<svg width="50" height="50" viewBox="0 0 50 50" fill="none" xmlns="http://www.w3.org/2000/svg">
<path fill-rule="evenodd" clip-rule="evenodd" d="M6.81836 25.7305H29.5248L44.3184 35.2273H19.8918L6.81836 25.7305Z" fill="#2CB0C7"/>
<path fill-rule="evenodd" clip-rule="evenodd" d="M6.81836 22.8113H29.5248L44.3184 32.308H19.8918L6.81836 22.8113Z" stroke="black" stroke-width="1.2"/>
<path d="M19.8917 28.6526C23.5018 28.6526 26.4284 25.5455 26.4284 21.7127C26.4284 17.8799 23.5018 14.7727 19.8917 14.7727C16.2816 14.7727 13.355 17.8799 13.355 21.7127C13.355 25.5455 16.2816 28.6526 19.8917 28.6526Z" fill="#EA5B29"/>
<path d="M24.0203 28.214C27.4024 28.214 30.1442 25.3031 30.1442 21.7124C30.1442 18.1216 27.4024 15.2108 24.0203 15.2108C20.6382 15.2108 17.8965 18.1216 17.8965 21.7124C17.8965 25.3031 20.6382 28.214 24.0203 28.214Z" stroke="black" stroke-width="1.2"/>
</svg>
