<svg width="44" height="44" viewBox="0 0 44 44" fill="none" xmlns="http://www.w3.org/2000/svg">
<path d="M32.648 11.4222H32.03V10.1752C32.0374 9.7609 31.963 9.34931 31.8111 8.96443C31.6592 8.57954 31.4328 8.22907 31.1453 7.93347C30.8578 7.63788 30.5148 7.40309 30.1364 7.24282C29.758 7.08255 29.3518 7 28.9415 7C28.5312 7 28.125 7.08255 27.7466 7.24282C27.3682 7.40309 27.0252 7.63788 26.7377 7.93347C26.4502 8.22907 26.2238 8.57954 26.0719 8.96443C25.92 9.34931 25.8456 9.7609 25.853 10.1752V11.4222H25.235C24.9076 11.4232 24.5939 11.5551 24.3625 11.7889C24.1311 12.0228 24.0008 12.3396 24 12.6702V18.9072C24.0011 19.2376 24.1315 19.5542 24.3629 19.7878C24.5943 20.0215 24.9078 20.1532 25.235 20.1543H32.648C32.9752 20.1532 33.2887 20.0215 33.5201 19.7878C33.7515 19.5542 33.8819 19.2376 33.883 18.9072V12.6702C33.8822 12.3396 33.7519 12.0228 33.5205 11.7889C33.2891 11.5551 32.9754 11.4232 32.648 11.4222ZM28.942 17.0362C28.6977 17.0362 28.459 16.9631 28.2559 16.8261C28.0528 16.689 27.8945 16.4943 27.801 16.2664C27.7075 16.0386 27.6831 15.7878 27.7307 15.5459C27.7784 15.304 27.896 15.0818 28.0687 14.9074C28.2414 14.7331 28.4615 14.6143 28.7011 14.5662C28.9406 14.5181 29.1889 14.5427 29.4146 14.6371C29.6403 14.7315 29.8332 14.8913 29.9689 15.0964C30.1046 15.3015 30.177 15.5426 30.177 15.7892C30.1759 16.1196 30.0455 16.4362 29.8141 16.6698C29.5827 16.9034 29.2692 17.0352 28.942 17.0362ZM30.857 11.4222H27.027V10.1752C27.027 9.92123 27.0765 9.66979 27.1728 9.43519C27.269 9.20059 27.4101 8.98743 27.5879 8.80788C27.7657 8.62832 27.9768 8.48589 28.2092 8.38872C28.4415 8.29155 28.6905 8.24153 28.942 8.24153C29.1935 8.24153 29.4425 8.29155 29.6748 8.38872C29.9072 8.48589 30.1183 8.62832 30.2961 8.80788C30.4739 8.98743 30.615 9.20059 30.7112 9.43519C30.8075 9.66979 30.857 9.92123 30.857 10.1752V11.4222Z" fill="#92C3D0"/>
<g opacity="0.5">
<path fill-rule="evenodd" clip-rule="evenodd" d="M6 22.6428H25.9817L39 31H17.5046L6 22.6428Z" fill="#2CB0C7"/>
<path fill-rule="evenodd" clip-rule="evenodd" d="M6 20.0739H25.9817L39 28.4311H17.5046L6 20.0739Z" stroke="black" stroke-width="1.2"/>
<path d="M17.5047 25.2143C20.6816 25.2143 23.257 22.48 23.257 19.1071C23.257 15.7343 20.6816 13 17.5047 13C14.3278 13 11.7524 15.7343 11.7524 19.1071C11.7524 22.48 14.3278 25.2143 17.5047 25.2143Z" fill="#EA5B29"/>
<path d="M21.1375 24.8283C24.1138 24.8283 26.5265 22.2667 26.5265 19.1069C26.5265 15.947 24.1138 13.3855 21.1375 13.3855C18.1613 13.3855 15.7485 15.947 15.7485 19.1069C15.7485 22.2667 18.1613 24.8283 21.1375 24.8283Z" stroke="black" stroke-width="1.2"/>
</g>
</svg>
