<svg width="44" height="44" viewBox="0 0 44 44" fill="none" xmlns="http://www.w3.org/2000/svg">
<path fill-rule="evenodd" clip-rule="evenodd" d="M6 22.6428H25.9817L39 31H17.5046L6 22.6428Z" fill="#2CB0C7"/>
<path fill-rule="evenodd" clip-rule="evenodd" d="M6 20.0739H25.9817L39 28.4311H17.5046L6 20.0739Z" stroke="black" stroke-width="1.2"/>
<path d="M17.5047 25.2143C20.6816 25.2143 23.257 22.48 23.257 19.1071C23.257 15.7343 20.6816 13 17.5047 13C14.3278 13 11.7524 15.7343 11.7524 19.1071C11.7524 22.48 14.3278 25.2143 17.5047 25.2143Z" fill="#EA5B29"/>
<path d="M21.1375 24.8283C24.1138 24.8283 26.5265 22.2667 26.5265 19.1069C26.5265 15.947 24.1138 13.3854 21.1375 13.3854C18.1613 13.3854 15.7485 15.947 15.7485 19.1069C15.7485 22.2667 18.1613 24.8283 21.1375 24.8283Z" stroke="black" stroke-width="1.2"/>
</svg>
