<svg width="44" height="44" viewBox="0 0 44 44" fill="none" xmlns="http://www.w3.org/2000/svg">
<g opacity="0.5">
<g clip-path="url(#clip0)">
<rect x="10" y="10" width="20" height="27" fill="#2CB0C7"/>
<rect x="14.5" y="6.5" width="19" height="26" stroke="black"/>
<g clip-path="url(#clip1)">
<path d="M17 21C17 20.1159 17.3512 19.2681 17.9763 18.6429C18.6014 18.0178 19.4493 17.6666 20.3333 17.6666C21.2174 17.6666 22.0652 18.0178 22.6904 18.6429C23.3155 19.2681 23.6667 20.1159 23.6667 21H17ZM20.3333 17.25C18.9521 17.25 17.8333 16.1312 17.8333 14.75C17.8333 13.3687 18.9521 12.25 20.3333 12.25C21.7146 12.25 22.8333 13.3687 22.8333 14.75C22.8333 16.1312 21.7146 17.25 20.3333 17.25Z" fill="#EDF6F8"/>
<ellipse cx="20.3335" cy="14.75" rx="2.5" ry="2.5" fill="#EA5B29"/>
<path d="M18.9266 19.9166C18.9857 19.1904 19.3006 18.5054 19.8196 17.9864C20.3978 17.4082 21.1821 17.0833 21.9998 17.0833C22.8176 17.0833 23.6018 17.4082 24.1801 17.9864C24.6991 18.5054 25.014 19.1904 25.073 19.9166H18.9266ZM21.9998 16.1666C20.7567 16.1666 19.7498 15.1598 19.7498 13.9166C19.7498 12.6735 20.7567 11.6666 21.9998 11.6666C23.243 11.6666 24.2498 12.6735 24.2498 13.9166C24.2498 15.1598 23.243 16.1666 21.9998 16.1666Z" stroke="black" stroke-width="0.5"/>
</g>
<path d="M17 24.5H28M17 26.5H28" stroke="black" stroke-width="0.5"/>
</g>
</g>
<defs>
<clipPath id="clip0">
<rect width="24" height="31" fill="white" transform="translate(10 6)"/>
</clipPath>
<clipPath id="clip1">
<rect width="10" height="10" fill="white" transform="translate(17 11)"/>
</clipPath>
</defs>
</svg>
