<svg width="50" height="50" viewBox="0 0 50 50" fill="none" xmlns="http://www.w3.org/2000/svg">
<g clip-path="url(#clip0)">
<rect x="11.3638" y="11.3636" width="22.7273" height="30.6818" fill="#2CB0C7"/>
<rect x="16.4092" y="7.31818" width="21.7273" height="29.6818" stroke="black"/>
<g clip-path="url(#clip1)">
<path d="M19.3184 23.8636C19.3184 22.859 19.7174 21.8955 20.4278 21.1852C21.1382 20.4748 22.1016 20.0757 23.1062 20.0757C24.1108 20.0757 25.0743 20.4748 25.7847 21.1852C26.495 21.8955 26.8941 22.859 26.8941 23.8636H19.3184ZM23.1062 19.6022C21.5366 19.6022 20.2653 18.3309 20.2653 16.7613C20.2653 15.1917 21.5366 13.9204 23.1062 13.9204C24.6758 13.9204 25.9471 15.1917 25.9471 16.7613C25.9471 18.3309 24.6758 19.6022 23.1062 19.6022Z" fill="#EDF6F8"/>
<ellipse cx="23.1065" cy="16.7613" rx="2.84091" ry="2.84091" fill="#EA5B29"/>
<path d="M21.4712 22.6667C21.5312 21.8197 21.8943 21.0193 22.4986 20.415C23.1621 19.7515 24.062 19.3788 25.0003 19.3788C25.9386 19.3788 26.8385 19.7515 27.5019 20.415C28.1062 21.0193 28.4694 21.8197 28.5293 22.6667H21.4712ZM25.0003 18.4053C23.5687 18.4053 22.4094 17.2459 22.4094 15.8144C22.4094 14.3829 23.5687 13.2235 25.0003 13.2235C26.4318 13.2235 27.5912 14.3829 27.5912 15.8144C27.5912 17.2459 26.4318 18.4053 25.0003 18.4053Z" stroke="black" stroke-width="0.5"/>
</g>
<path d="M19.3184 27.8409H31.8184M19.3184 30.1136H31.8184" stroke="black" stroke-width="0.5"/>
</g>
<defs>
<clipPath id="clip0">
<rect width="27.2727" height="35.2273" fill="white" transform="translate(11.3638 6.81818)"/>
</clipPath>
<clipPath id="clip1">
<rect width="11.3636" height="11.3636" fill="white" transform="translate(19.3184 12.5)"/>
</clipPath>
</defs>
</svg>
