<svg width="44" height="46" viewBox="0 0 44 46" fill="none" xmlns="http://www.w3.org/2000/svg">
<path d="M37.648 4.42216H37.03V3.17515C37.0374 2.7609 36.963 2.34931 36.8111 1.96443C36.6592 1.57954 36.4328 1.22907 36.1453 0.933475C35.8578 0.637883 35.5148 0.403094 35.1364 0.242821C34.758 0.0825469 34.3518 0 33.9415 0C33.5312 0 33.125 0.0825469 32.7466 0.242821C32.3682 0.403094 32.0252 0.637883 31.7377 0.933475C31.4502 1.22907 31.2238 1.57954 31.0719 1.96443C30.92 2.34931 30.8456 2.7609 30.853 3.17515V4.42216H30.235C29.9076 4.42323 29.5939 4.55509 29.3625 4.78894C29.1311 5.02278 29.0008 5.3396 29 5.67018V11.9072C29.0011 12.2376 29.1315 12.5542 29.3629 12.7878C29.5943 13.0215 29.9078 13.1532 30.235 13.1543H37.648C37.9752 13.1532 38.2887 13.0215 38.5201 12.7878C38.7515 12.5542 38.8819 12.2376 38.883 11.9072V5.67018C38.8822 5.3396 38.7519 5.02278 38.5205 4.78894C38.2891 4.55509 37.9754 4.42323 37.648 4.42216ZM33.942 10.0362C33.6977 10.0362 33.459 9.96309 33.2559 9.82607C33.0528 9.68904 32.8945 9.49429 32.801 9.26643C32.7075 9.03856 32.6831 8.78783 32.7307 8.54594C32.7784 8.30404 32.896 8.08185 33.0687 7.90745C33.2414 7.73305 33.4615 7.61428 33.7011 7.56617C33.9406 7.51805 34.1889 7.54275 34.4146 7.63713C34.6403 7.73151 34.8332 7.89135 34.9689 8.09641C35.1046 8.30148 35.177 8.54258 35.177 8.78922C35.1759 9.11962 35.0455 9.43618 34.8141 9.66981C34.5827 9.90344 34.2692 10.0352 33.942 10.0362ZM35.857 4.42216H32.027V3.17515C32.027 2.92123 32.0765 2.66979 32.1728 2.43519C32.269 2.20059 32.4101 1.98743 32.5879 1.80788C32.7657 1.62832 32.9768 1.48589 33.2092 1.38872C33.4415 1.29155 33.6905 1.24153 33.942 1.24153C34.1935 1.24153 34.4425 1.29155 34.6748 1.38872C34.9072 1.48589 35.1183 1.62832 35.2961 1.80788C35.4739 1.98743 35.615 2.20059 35.7112 2.43519C35.8075 2.66979 35.857 2.92123 35.857 3.17515V4.42216Z" fill="#92C3D0"/>
<g opacity="0.5">
<g clip-path="url(#clip0)">
<rect x="10" y="12" width="20" height="27" fill="#2CB0C7"/>
<rect x="14.5" y="8.5" width="19" height="26" stroke="black"/>
<g clip-path="url(#clip1)">
<path d="M17 23C17 22.1159 17.3512 21.2681 17.9763 20.6429C18.6014 20.0178 19.4493 19.6666 20.3333 19.6666C21.2174 19.6666 22.0652 20.0178 22.6904 20.6429C23.3155 21.2681 23.6667 22.1159 23.6667 23H17ZM20.3333 19.25C18.9521 19.25 17.8333 18.1312 17.8333 16.75C17.8333 15.3687 18.9521 14.25 20.3333 14.25C21.7146 14.25 22.8333 15.3687 22.8333 16.75C22.8333 18.1312 21.7146 19.25 20.3333 19.25Z" fill="#EDF6F8"/>
<ellipse cx="20.3335" cy="16.75" rx="2.5" ry="2.5" fill="#EA5B29"/>
<path d="M18.9266 21.9166C18.9857 21.1904 19.3006 20.5054 19.8196 19.9864C20.3978 19.4082 21.1821 19.0833 21.9998 19.0833C22.8176 19.0833 23.6018 19.4082 24.1801 19.9864C24.6991 20.5054 25.014 21.1904 25.073 21.9166H18.9266ZM21.9998 18.1666C20.7567 18.1666 19.7498 17.1598 19.7498 15.9166C19.7498 14.6735 20.7567 13.6666 21.9998 13.6666C23.243 13.6666 24.2498 14.6735 24.2498 15.9166C24.2498 17.1598 23.243 18.1666 21.9998 18.1666Z" stroke="black" stroke-width="0.5"/>
</g>
<path d="M17 26.5H28M17 28.5H28" stroke="black" stroke-width="0.5"/>
</g>
</g>
<defs>
<clipPath id="clip0">
<rect width="24" height="31" fill="white" transform="translate(10 8)"/>
</clipPath>
<clipPath id="clip1">
<rect width="10" height="10" fill="white" transform="translate(17 13)"/>
</clipPath>
</defs>
</svg>
