<svg width="50" height="50" viewBox="0 0 50 50" fill="none" xmlns="http://www.w3.org/2000/svg">
<ellipse cx="22.0204" cy="18.7149" rx="7.99254" ry="8.07026" fill="#EA5B29"/>
<path d="M11.3638 38.8906C11.3638 36.0367 12.4865 33.2998 14.485 31.2819C16.4836 29.2639 19.1941 28.1302 22.0205 28.1302C24.8468 28.1302 27.5574 29.2639 29.5559 31.2819C31.5544 33.2998 32.6772 36.0367 32.6772 38.8906H11.3638Z" fill="#2CB0C7"/>
<path d="M17.2044 35.7005C17.327 33.1598 18.3806 30.7493 20.1689 28.9436C22.0741 27.0199 24.6569 25.9401 27.3491 25.9401C30.0413 25.9401 32.6241 27.0199 34.5293 28.9436C36.3176 30.7493 37.3712 33.1598 37.4938 35.7005H17.2044ZM27.3491 23.5951C23.2139 23.5951 19.8566 20.2121 19.8566 16.0248C19.8566 11.8376 23.2139 8.45456 27.3491 8.45456C31.4843 8.45456 34.8416 11.8376 34.8416 16.0248C34.8416 20.2121 31.4843 23.5951 27.3491 23.5951Z" stroke="black"/>
</svg>
