<svg width="44" height="44" viewBox="0 0 44 44" fill="none" xmlns="http://www.w3.org/2000/svg">
<path d="M36.648 4.42216H36.03V3.17515C36.0374 2.7609 35.963 2.34931 35.8111 1.96443C35.6592 1.57954 35.4328 1.22907 35.1453 0.933475C34.8578 0.637883 34.5148 0.403094 34.1364 0.242821C33.758 0.0825469 33.3518 0 32.9415 0C32.5312 0 32.125 0.0825469 31.7466 0.242821C31.3682 0.403094 31.0252 0.637883 30.7377 0.933475C30.4502 1.22907 30.2238 1.57954 30.0719 1.96443C29.92 2.34931 29.8456 2.7609 29.853 3.17515V4.42216H29.235C28.9076 4.42323 28.5939 4.55509 28.3625 4.78894C28.1311 5.02278 28.0008 5.3396 28 5.67018V11.9072C28.0011 12.2376 28.1315 12.5542 28.3629 12.7878C28.5943 13.0215 28.9078 13.1532 29.235 13.1543H36.648C36.9752 13.1532 37.2887 13.0215 37.5201 12.7878C37.7515 12.5542 37.8819 12.2376 37.883 11.9072V5.67018C37.8822 5.3396 37.7519 5.02278 37.5205 4.78894C37.2891 4.55509 36.9754 4.42323 36.648 4.42216ZM32.942 10.0362C32.6977 10.0362 32.459 9.96309 32.2559 9.82607C32.0528 9.68904 31.8945 9.49429 31.801 9.26643C31.7075 9.03856 31.6831 8.78783 31.7307 8.54594C31.7784 8.30404 31.896 8.08185 32.0687 7.90745C32.2414 7.73305 32.4615 7.61428 32.7011 7.56617C32.9406 7.51805 33.1889 7.54275 33.4146 7.63713C33.6403 7.73151 33.8332 7.89135 33.9689 8.09641C34.1046 8.30148 34.177 8.54258 34.177 8.78922C34.1759 9.11962 34.0455 9.43618 33.8141 9.66981C33.5827 9.90344 33.2692 10.0352 32.942 10.0362ZM34.857 4.42216H31.027V3.17515C31.027 2.92123 31.0765 2.66979 31.1728 2.43519C31.269 2.20059 31.4101 1.98743 31.5879 1.80788C31.7657 1.62832 31.9768 1.48589 32.2092 1.38872C32.4415 1.29155 32.6905 1.24153 32.942 1.24153C33.1935 1.24153 33.4425 1.29155 33.6748 1.38872C33.9072 1.48589 34.1183 1.62832 34.2961 1.80788C34.4739 1.98743 34.615 2.20059 34.7112 2.43519C34.8075 2.66979 34.857 2.92123 34.857 3.17515V4.42216Z" fill="#92C3D0"/>
<g opacity="0.5">
<ellipse cx="19.3777" cy="16.4691" rx="7.03343" ry="7.10183" fill="#EA5B29"/>
<path d="M10 34.2237C10 31.7123 10.988 29.3038 12.7467 27.528C14.5054 25.7522 16.8907 24.7546 19.3779 24.7546C21.8651 24.7546 24.2504 25.7522 26.0091 27.528C27.7678 29.3038 28.7558 31.7123 28.7558 34.2237H10Z" fill="#2CB0C7"/>
<path d="M15.2032 31.3564C15.3246 29.1585 16.243 27.0761 17.7914 25.5126C19.4568 23.8311 21.7144 22.8873 24.0674 22.8873C26.4204 22.8873 28.678 23.8311 30.3433 25.5126C31.8918 27.0761 32.8101 29.1585 32.9315 31.3564H15.2032ZM24.0674 20.7037C20.4621 20.7037 17.5339 17.754 17.5339 14.1018C17.5339 10.4496 20.4621 7.5 24.0674 7.5C27.6726 7.5 30.6008 10.4496 30.6008 14.1018C30.6008 17.754 27.6726 20.7037 24.0674 20.7037Z" stroke="black"/>
</g>
</svg>
