<svg width="44" height="44" viewBox="0 0 44 44" fill="none" xmlns="http://www.w3.org/2000/svg">
<g opacity="0.5">
<ellipse cx="19.3777" cy="16.4691" rx="7.03343" ry="7.10183" fill="#EA5B29"/>
<path d="M10 34.2237C10 31.7123 10.988 29.3038 12.7467 27.528C14.5054 25.7522 16.8907 24.7546 19.3779 24.7546C21.8651 24.7546 24.2504 25.7522 26.0091 27.528C27.7678 29.3038 28.7558 31.7123 28.7558 34.2237H10Z" fill="#2CB0C7"/>
<path d="M15.2032 31.3564C15.3246 29.1585 16.243 27.0761 17.7914 25.5126C19.4568 23.8311 21.7144 22.8873 24.0674 22.8873C26.4204 22.8873 28.678 23.8311 30.3433 25.5126C31.8918 27.0761 32.8101 29.1585 32.9315 31.3564H15.2032ZM24.0674 20.7037C20.4621 20.7037 17.5339 17.754 17.5339 14.1018C17.5339 10.4496 20.4621 7.5 24.0674 7.5C27.6726 7.5 30.6008 10.4496 30.6008 14.1018C30.6008 17.754 27.6726 20.7037 24.0674 20.7037Z" stroke="black"/>
</g>
</svg>
