<?xml version="1.0" encoding="UTF-8"?>
<svg width="151px" height="69px" viewBox="0 0 151 69" version="1.1" xmlns="http://www.w3.org/2000/svg" xmlns:xlink="http://www.w3.org/1999/xlink">
    <!-- Generator: Sketch 54.1 (76490) - https://sketchapp.com -->
    <title>190513_ReDI_school</title>
    <desc>Created with Sketch.</desc>
    <g id="ReDI_school" stroke="none" stroke-width="1" fill="none" fill-rule="evenodd">
        <g id="Group-31" transform="translate(0.000000, -1.000000)" fill="#FFFFFF">
            <text id="SCHOOL" font-family="LucidaGrande, Lucida Grande" font-size="9.95549572" font-weight="normal">
                <tspan x="81" y="67.3494525">SCHOOL</tspan>
            </text>
            <path d="M69.61007,31.0092198 L39.446,1.0049 L4.8924,35.376 L39.446,69.7465 L69.61007,39.742704 L69.61007,69.7517 L0.4921,69.7517 L0.4921,0.99949 L69.61007,0.99949 L69.61007,31.0092198 Z" id="Combined-Shape"></path>
            <polygon id="Fill-25" points="39.5452 65.2523 69.5811 35.3756 39.5452 5.4993"></polygon>
            <path d="M35.4718,35.4048 C35.4718,41.1234 30.8112,45.7593 25.0621,45.7593 C19.3125,45.7593 14.6519,41.1234 14.6519,35.4048 C14.6519,29.6861 19.3125,25.0502 25.0621,25.0502 C30.8112,25.0502 35.4718,29.6861 35.4718,35.4048" id="Fill-26"></path>
            <path d="M95.1849,42.5877 C95.1849,40.4926 93.717,39.4128 91.323,39.4128 L86.44,39.4128 L86.44,45.7936 L91.4186,45.7936 C93.8131,45.7936 95.1849,44.5241 95.1849,42.6512 L95.1849,42.5877 Z M95.0893,57.2226 L90.3019,50.1118 L86.44,50.1118 L86.44,57.2226 L81.5253,57.2226 L81.5253,35 L91.7385,35 C97.0039,35 100.1639,37.7621 100.1639,42.334 L100.1639,42.397 C100.1639,45.9842 98.2172,48.2384 95.3765,49.2862 L100.834,57.2226 L95.0893,57.2226 Z" id="Fill-27"></path>
            <path d="M110.1216,43.762 C108.1109,43.762 106.802,45.1906 106.4192,47.3812 L113.7278,47.3812 C113.4406,45.2226 112.1639,43.762 110.1216,43.762 M118.3875,50.3974 L106.4831,50.3974 C106.962,52.5876 108.4937,53.7304 110.6638,53.7304 C112.2917,53.7304 113.4723,53.2226 114.8129,51.9841 L117.5892,54.429 C115.9935,56.3974 113.6957,57.6033 110.6,57.6033 C105.4614,57.6033 101.6635,54.0162 101.6635,48.8098 L101.6635,48.7462 C101.6635,43.8891 105.1425,39.8891 110.1216,39.8891 C115.8341,39.8891 118.4514,44.3019 118.4514,49.1275 L118.4514,49.1906 C118.4514,49.6669 118.4197,49.9526 118.3875,50.3974" id="Fill-28"></path>
            <path d="M137.1127,46.1116 C137.1127,42.1752 134.3998,39.4126 130.3781,39.4126 L126.5801,39.4126 L126.5801,52.8101 L130.3781,52.8101 C134.3998,52.8101 137.1127,50.1116 137.1127,46.1752 L137.1127,46.1116 Z M130.3781,57.2225 L121.6654,57.2225 L121.6654,35.0003 L130.3781,35.0003 C137.4,35.0003 142.2508,39.7939 142.2508,46.0481 L142.2508,46.1116 C142.2508,52.3658 137.4,57.2225 130.3781,57.2225 L130.3781,57.2225 Z" id="Fill-29"></path>
            <polygon id="Fill-30" points="145.706 57.2227 150.620704 57.2227 150.620704 35.0001 145.706 35.0001"></polygon>
        </g>
    </g>
</svg>