<?xml version="1.0" encoding="UTF-8"?>
<svg width="60px" height="60px" viewBox="0 0 60 60" version="1.1" xmlns="http://www.w3.org/2000/svg" xmlns:xlink="http://www.w3.org/1999/xlink">
    <!-- Generator: Sketch 63.1 (92452) - https://sketch.com -->
    <title>Plan sessions</title>
    <desc>Created with Sketch.</desc>
    <g id="Mentee/Mentor-Page" stroke="none" stroke-width="1" fill="none" fill-rule="evenodd">
        <g id="SP1_Subpage_Mentor" transform="translate(-919.000000, -571.000000)" fill="#2CB0C7">
            <g id="Mentee_Steps" transform="translate(86.000000, 500.000000)">
                <g id="Mentee_Step4" transform="translate(824.000000, 69.000000)">
                    <g id="icons/visual/calender">
                        <path d="M53.8015278,2.0900784 C55.660929,2.0900784 57.1851302,3.55717083 57.2846777,5.39827235 L57.289849,5.59002047 L57.289849,7.22318094 L62.8329367,7.22318094 C65.9638672,7.22318094 68.5251618,9.71995329 68.6425985,12.8330322 L68.6468053,13.0564177 L68.6468053,57.3884339 C68.6468053,59.763578 66.7758079,61.7086696 64.4349754,61.8178788 L64.2272477,61.8227147 L13.5307495,61.8227147 C11.1641976,61.8227147 9.22613313,59.9454844 9.11731847,57.5973884 L9.1125,57.3890173 L9.1125,54.3704631 C9.1125,53.7691341 9.56602826,53.2740064 10.1485838,53.2106619 L10.2752737,53.2038157 L13.420722,53.2038157 C11.3886296,51.4481573 10.0980961,48.8510544 10.0980961,45.9561648 C10.0980961,40.6811688 14.3756499,36.3893648 19.6331313,36.3893648 C24.8906127,36.3893648 29.1680212,40.6811688 29.1680212,45.9561648 C29.1680212,48.7438363 27.9713125,51.2553708 26.0687527,53.0053074 L25.846122,53.2038157 L37.4636849,53.2038157 C38.1058267,53.2038157 38.6264587,53.7261821 38.6264587,54.3704631 C38.6264587,54.971792 38.1729304,55.4669197 37.5903749,55.5302642 L37.4636849,55.5371104 L11.4380474,55.5371104 L11.4380474,57.3890173 C11.4380474,58.4968504 12.2972482,59.4070801 13.3815539,59.4841363 L13.5307495,59.48942 L60.3364615,59.48942 C60.0417892,58.9416244 59.8580641,58.3252746 59.8167371,57.6710469 L59.8078355,57.3884339 L59.8078355,55.5371104 L47.4453706,55.5371104 C46.8032288,55.5371104 46.2825969,55.0147441 46.2825969,54.3704631 C46.2825969,53.7691341 46.7361252,53.2740064 47.3186807,53.2106619 L47.4453706,53.2038157 L60.9706092,53.2038157 C61.5699416,53.2038157 62.0634253,53.6588548 62.1265594,54.243351 L62.1333829,54.3704631 L62.1333829,57.3884339 C62.1333829,58.5466231 63.0730495,59.48942 64.2272477,59.48942 C65.3314025,59.48942 66.2391419,58.6268232 66.3159885,57.5382208 L66.3212578,57.3884339 L66.3212578,13.0564177 C66.3212578,11.1908222 64.8584933,9.66154326 63.0239938,9.56166422 L62.8329367,9.55647565 L57.289849,9.55647565 L57.289849,11.0147848 C57.289849,12.9448571 55.7250463,14.5147269 53.8015278,14.5147269 C51.9425482,14.5147269 50.4179535,13.0477708 50.3183794,11.2065466 L50.3132067,11.0147848 L50.3132067,9.55647565 L30.7787535,9.55647565 L30.7787535,11.0147848 C30.7787535,12.9448571 29.2140961,14.5147269 27.2904323,14.5147269 C25.4310311,14.5147269 23.9068299,13.0477708 23.8072825,11.2065466 L23.8021111,11.0147848 L23.8021111,9.51316387 C23.7363175,9.53144134 23.6681984,9.54459853 23.5983135,9.55133916 L23.4922319,9.55647565 L18.8593054,9.55647565 C16.9997637,9.55647565 15.4756936,11.0235681 15.3761551,12.8646696 L15.3709842,13.0564177 L15.3709842,16.9067915 L57.289849,16.9067915 C57.9319908,16.9067915 58.4526227,17.4285745 58.4526227,18.0734388 C58.4526227,18.6747678 57.9990945,19.1698955 57.416539,19.23324 L57.289849,19.2400862 L15.3709842,19.2400862 L15.3709842,32.9282138 C15.3709842,33.5730781 14.8503523,34.0948612 14.2082105,34.0948612 C13.6088782,34.0948612 13.1153944,33.6403302 13.0522603,33.0554275 L13.0454368,32.9282138 L13.0454368,13.0564177 C13.0454368,9.91505692 15.5337804,7.34522966 18.6366519,7.22740177 L18.8593054,7.22318094 L23.4922319,7.22318094 C23.5637425,7.22318094 23.6337673,7.23031045 23.7017465,7.24314357 L23.8021111,7.26649272 L23.8021111,5.59002047 C23.8021111,3.66009408 25.3669139,2.0900784 27.2904323,2.0900784 C29.149974,2.0900784 30.6740441,3.55717083 30.7735826,5.39827235 L30.7787535,5.59002047 L30.7787535,7.22318094 L50.3132067,7.22318094 L50.3132067,5.59002047 C50.3132067,3.66009408 51.8784454,2.0900784 53.8015278,2.0900784 Z M43.0169469,53.204399 C43.3223203,53.204399 43.622752,53.3280636 43.8384465,53.5450601 C44.0547224,53.7632231 44.1797206,54.0629057 44.1797206,54.3698797 C44.1797206,54.6769997 44.0547224,54.977703 43.8384465,55.1958661 C43.622752,55.4128625 43.3223203,55.5365271 43.0169469,55.5365271 C42.7108467,55.5365271 42.4111418,55.4128625 42.1947205,55.1958661 C41.9784446,54.977703 41.8541732,54.6780205 41.8541732,54.3698797 C41.8541732,54.0629057 41.9784446,53.7632231 42.1947205,53.5450601 C42.4111418,53.3280636 42.7108467,53.204399 43.0169469,53.204399 Z M19.6331313,38.7226596 C15.6581893,38.7226596 12.4236435,41.9673975 12.4236435,45.9561648 C12.4236435,49.944203 15.6581893,53.1889409 19.6331313,53.1889409 C23.6085093,53.1889409 26.8424737,49.944203 26.8424737,45.9561648 C26.8424737,41.9673975 23.6085093,38.7226596 19.6331313,38.7226596 Z M23.7755127,43.1130452 C24.1972777,43.5356736 24.2274038,44.2028702 23.8658909,44.660904 L23.7755127,44.7626846 L19.166423,49.3871289 C18.9484029,49.6058753 18.6526224,49.7289566 18.344342,49.7289566 C18.0801016,49.7289566 17.8249381,49.6385295 17.6201314,49.4749403 L17.5221156,49.3871289 L15.4055767,47.2641223 C14.9519496,46.8084007 14.9519496,46.0694755 15.4055767,45.6137538 C15.8278816,45.1905838 16.4924387,45.1603573 16.9488855,45.5230745 L17.0503202,45.6137538 L18.344342,46.9119407 L22.1312053,43.1130452 C22.5854138,42.6573236 23.3213042,42.6573236 23.7755127,43.1130452 Z M46.2724226,37.5560122 C48.7087243,37.5560122 50.6906721,39.5447085 50.6906721,41.9897097 C50.6906721,44.4339817 48.7087243,46.4226779 46.2724226,46.4226779 C43.8355396,46.4226779 41.8535918,44.4339817 41.8535918,41.9897097 C41.8535918,39.5447085 43.8355396,37.5560122 46.2724226,37.5560122 Z M57.1245898,37.5560122 C59.5614728,37.5560122 61.5434206,39.5447085 61.5434206,41.9897097 C61.5434206,44.4339817 59.5614728,46.4226779 57.1245898,46.4226779 C54.6882881,46.4226779 52.7063403,44.4339817 52.7063403,41.9897097 C52.7063403,39.5447085 54.6882881,37.5560122 57.1245898,37.5560122 Z M35.4196741,37.5560122 C37.8559757,37.5560122 39.8380689,39.5447085 39.8380689,41.9897097 C39.8380689,44.4339817 37.8559757,46.4226779 35.4196741,46.4226779 C32.9833724,46.4226779 31.0014246,44.4339817 31.0014246,41.9897097 C31.0014246,39.5447085 32.9833724,37.5560122 35.4196741,37.5560122 Z M46.2724226,39.8893069 C45.1182244,39.8893069 44.1791392,40.8315205 44.1791392,41.9897097 C44.1791392,43.1471697 45.1182244,44.0893832 46.2724226,44.0893832 C47.4261849,44.0893832 48.3651246,43.1471697 48.3651246,41.9897097 C48.3651246,40.8315205 47.4261849,39.8893069 46.2724226,39.8893069 Z M57.1245898,39.8893069 C55.9709729,39.8893069 55.0318878,40.8315205 55.0318878,41.9897097 C55.0318878,43.1471697 55.9709729,44.0893832 57.1245898,44.0893832 C58.2789334,44.0893832 59.2178732,43.1471697 59.2178732,41.9897097 C59.2178732,40.8315205 58.2789334,39.8893069 57.1245898,39.8893069 Z M35.4196741,39.8893069 C34.2654758,39.8893069 33.3269721,40.8315205 33.3269721,41.9897097 C33.3269721,43.1471697 34.2654758,44.0893832 35.4196741,44.0893832 C36.5740177,44.0893832 37.5125214,43.1471697 37.5125214,41.9897097 C37.5125214,40.8315205 36.5740177,39.8893069 35.4196741,39.8893069 Z M57.1245898,25.4230255 C59.5614728,25.4230255 61.5434206,27.4117218 61.5434206,29.8559938 C61.5434206,32.300995 59.5614728,34.2896913 57.1245898,34.2896913 C54.6882881,34.2896913 52.7063403,32.300995 52.7063403,29.8559938 C52.7063403,27.4117218 54.6882881,25.4230255 57.1245898,25.4230255 Z M24.5669255,25.4230255 C27.0038086,25.4230255 28.9857564,27.4117218 28.9857564,29.8559938 C28.9857564,32.300995 27.0038086,34.2896913 24.5669255,34.2896913 C22.1306239,34.2896913 20.1486761,32.300995 20.1486761,29.8559938 C20.1486761,27.4117218 22.1306239,25.4230255 24.5669255,25.4230255 Z M46.2724226,25.4230255 C48.7087243,25.4230255 50.6906721,27.4117218 50.6906721,29.8559938 C50.6906721,32.300995 48.7087243,34.2896913 46.2724226,34.2896913 C43.8355396,34.2896913 41.8535918,32.300995 41.8535918,29.8559938 C41.8535918,27.4117218 43.8355396,25.4230255 46.2724226,25.4230255 Z M35.4196741,25.4230255 C37.8559757,25.4230255 39.8380689,27.4117218 39.8380689,29.8559938 C39.8380689,32.300995 37.8559757,34.2896913 35.4196741,34.2896913 C32.9833724,34.2896913 31.0014246,32.300995 31.0014246,29.8559938 C31.0014246,27.4117218 32.9833724,25.4230255 35.4196741,25.4230255 Z M57.1245898,27.7563202 C55.9709729,27.7563202 55.0318878,28.6985338 55.0318878,29.8559938 C55.0318878,31.014183 55.9709729,31.9563966 57.1245898,31.9563966 C58.2789334,31.9563966 59.2178732,31.014183 59.2178732,29.8559938 C59.2178732,28.6985338 58.2789334,27.7563202 57.1245898,27.7563202 Z M24.5669255,27.7563202 C23.4133087,27.7563202 22.4742235,28.6985338 22.4742235,29.8559938 C22.4742235,31.014183 23.4133087,31.9563966 24.5669255,31.9563966 C25.7212692,31.9563966 26.6602089,31.014183 26.6602089,29.8559938 C26.6602089,28.6985338 25.7212692,27.7563202 24.5669255,27.7563202 Z M46.2724226,27.7563202 C45.1182244,27.7563202 44.1791392,28.6985338 44.1791392,29.8559938 C44.1791392,31.014183 45.1182244,31.9563966 46.2724226,31.9563966 C47.4261849,31.9563966 48.3651246,31.014183 48.3651246,29.8559938 C48.3651246,28.6985338 47.4261849,27.7563202 46.2724226,27.7563202 Z M35.4196741,27.7563202 C34.2654758,27.7563202 33.3269721,28.6985338 33.3269721,29.8559938 C33.3269721,31.014183 34.2654758,31.9563966 35.4196741,31.9563966 C36.5740177,31.9563966 37.5125214,31.014183 37.5125214,29.8559938 C37.5125214,28.6985338 36.5740177,27.7563202 35.4196741,27.7563202 Z M62.7442752,16.9067915 C63.0503754,16.9067915 63.3500803,17.0314769 63.5663562,17.2484733 C63.7827775,17.4656156 63.9070489,17.7663189 63.9070489,18.0734388 C63.9070489,18.3798296 63.7827775,18.6812621 63.5663562,18.8982585 C63.3500803,19.1146716 63.0503754,19.2400862 62.7442752,19.2400862 C62.4383203,19.2400862 62.1384701,19.1146716 61.9221942,18.8982585 C61.7059182,18.6812621 61.5815015,18.3798296 61.5815015,18.0734388 C61.5815015,17.7663189 61.7059182,17.4656156 61.9221942,17.2484733 C62.1384701,17.0314769 62.4383203,16.9067915 62.7442752,16.9067915 Z M27.2904323,4.42337311 C26.6921852,4.42337311 26.1977609,4.87942853 26.1344965,5.46311171 L26.1276586,5.59002047 L26.1276586,11.0147848 C26.1276586,11.6578992 26.6494533,12.1814322 27.2904323,12.1814322 C27.888815,12.1814322 28.3831218,11.7253768 28.4463699,11.1416936 L28.453206,11.0147848 L28.453206,5.59002047 C28.453206,4.94690611 27.9315567,4.42337311 27.2904323,4.42337311 Z M53.8015278,4.42337311 C53.2032807,4.42337311 52.7088564,4.87942853 52.6455921,5.46311171 L52.6387541,5.59002047 L52.6387541,11.0147848 C52.6387541,11.6578992 53.1605488,12.1814322 53.8015278,12.1814322 C54.4003175,12.1814322 54.8942716,11.7253768 54.9574708,11.1416936 L54.9643016,11.0147848 L54.9643016,5.59002047 C54.9643016,4.94690611 54.4430882,4.42337311 53.8015278,4.42337311 Z" id="Combined-Shape"></path>
                    </g>
                </g>
            </g>
        </g>
    </g>
</svg>