<?xml version="1.0" encoding="UTF-8"?>
<svg width="60px" height="60px" viewBox="0 0 60 60" version="1.1" xmlns="http://www.w3.org/2000/svg" xmlns:xlink="http://www.w3.org/1999/xlink">
    <!-- Generator: Sketch 63.1 (92452) - https://sketch.com -->
    <title>05_Gettoknow</title>
    <desc>Created with Sketch.</desc>
    <g id="Mentee/Mentor-Page" stroke="none" stroke-width="1" fill="none" fill-rule="evenodd">
        <g id="SP1_Subpage_Mentor" transform="translate(-1151.000000, -570.000000)" fill="#2CB0C7">
            <g id="Mentee_Steps" transform="translate(86.000000, 500.000000)">
                <g id="Mentee_Step5" transform="translate(1054.000000, 68.000000)">
                    <g id="icons/visual/successfull">
                        <g id="038-certificate-2" transform="translate(11.137500, 2.031746)">
                            <g id="038-certificate">
                                <path d="M49.9372831,0 C51.8673177,0 53.4375272,1.57544048 53.4375272,3.51190476 L53.4375272,3.51190476 L53.4375272,9.71626984 C53.4375272,10.3628115 52.9151741,10.8869048 52.2707792,10.8869048 C51.6263843,10.8869048 51.1040312,10.3628115 51.1040312,9.71626984 L51.1040312,9.71626984 L51.1040312,3.51190476 C51.1040312,2.86641667 50.580628,2.34126984 49.9372831,2.34126984 L49.9372831,2.34126984 L3.50071084,2.34126984 C2.85736597,2.34126984 2.33396279,2.86641667 2.33396279,3.51190476 L2.33396279,3.51190476 L2.33396279,56.4246032 C2.33396279,57.0700913 2.85736597,57.5952381 3.50071084,57.5952381 L3.50071084,57.5952381 L49.9372831,57.5952381 C50.580628,57.5952381 51.1040312,57.0700913 51.1040312,56.4246032 L51.1040312,56.4246032 L51.1040312,53.1468254 C51.1040312,52.5002837 51.6263843,51.9761905 52.2707792,51.9761905 C52.9151741,51.9761905 53.4375272,52.5002837 53.4375272,53.1468254 L53.4375272,53.1468254 L53.4375272,56.4246032 C53.4375272,58.3610675 51.8673177,59.9365079 49.9372831,59.9365079 L49.9372831,59.9365079 L3.50071084,59.9365079 C1.57067622,59.9365079 0.000466699219,58.3610675 0.000466699219,56.4246032 L0.000466699219,56.4246032 L0.000466699219,3.51190476 C0.000466699219,1.57544048 1.57067622,0 3.50071084,0 L3.50071084,0 Z M6.76690532,38.9236111 C7.41130027,38.9236111 7.93365337,39.4477044 7.93365337,40.094246 L7.93365337,40.094246 L7.93365337,51.9761905 L45.5043406,51.9761905 L45.5043406,50.5714286 C45.5043406,49.9248869 46.0266937,49.4007937 46.6710886,49.4007937 C47.3154836,49.4007937 47.8378367,49.9248869 47.8378367,50.5714286 L47.8378367,50.5714286 L47.8378367,53.1468254 C47.8378367,53.7933671 47.3154836,54.3174603 46.6710886,54.3174603 L46.6710886,54.3174603 L6.76690532,54.3174603 C6.12251038,54.3174603 5.60015728,53.7933671 5.60015728,53.1468254 L5.60015728,53.1468254 L5.60015728,40.094246 C5.60015728,39.4477044 6.12251038,38.9236111 6.76690532,38.9236111 Z M47.942494,13.2618889 C48.7445166,12.7459901 49.7321688,12.5918175 50.6528497,12.8394067 C51.5731805,13.086879 52.3519849,13.7158611 52.7895154,14.5650397 C52.9792286,14.9332044 53.3664723,15.1596052 53.7811345,15.1394702 C54.7333176,15.0945179 55.665316,15.4572976 56.3389963,16.1332222 C57.0126766,16.8092639 57.3736685,17.7446012 57.3294487,18.6996052 C57.3101974,19.1136587 57.534913,19.5041825 57.901972,19.6945278 C58.7484477,20.1335159 59.3752247,20.9149147 59.6218753,21.8383115 C59.8685258,22.7617083 59.7149818,23.753002 59.2007959,24.5578135 C58.9777137,24.9067798 58.9777137,25.3577083 59.2007959,25.7064405 C59.7149818,26.511369 59.8685258,27.5025456 59.6218753,28.4260595 C59.3752247,29.3495734 58.748331,30.1308552 57.901972,30.5698433 C57.5350297,30.7601885 57.3101974,31.1507123 57.3294487,31.5647659 C57.3736685,32.5197698 57.0126766,33.4551071 56.3388796,34.1311488 C55.6651993,34.8071905 54.733901,35.1700873 53.7811345,35.1249008 C53.3689225,35.1060536 52.9792286,35.3310496 52.7895154,35.6993313 C52.6493889,35.9713869 52.4737934,36.220498 52.2701958,36.4419821 L52.2701958,36.4419821 L52.2701958,47.3748929 C52.2701958,47.8478294 51.9865594,48.2742917 51.5513624,48.4558571 C51.4065689,48.5162619 51.254425,48.5457103 51.1036811,48.5457103 C50.8010267,48.5457103 50.5036226,48.4275278 50.2805404,48.204873 L50.2805404,48.204873 L47.369854,45.2997083 L44.4591677,48.204873 C44.1248944,48.538504 43.623426,48.6375397 43.1883457,48.4559742 C42.7531487,48.2744087 42.4695122,47.8479464 42.4695122,47.3750099 L42.4695122,47.3750099 L42.4695122,36.4420992 C42.2659147,36.220498 42.0903191,35.971504 41.9501927,35.6994484 C41.7604794,35.3311667 41.3707856,35.1047659 40.9585735,35.1250179 C40.0063904,35.1700873 39.0745088,34.8071905 38.4008284,34.1312659 C37.7270314,33.4552242 37.3660396,32.5198869 37.4102594,31.5648829 C37.4171432,31.4170317 37.3917081,31.2726925 37.3409545,31.1388889 L37.3409545,31.1388889 L14.6751236,31.1388889 C14.0307286,31.1388889 13.5083755,30.6147956 13.5083755,29.968254 C13.5083755,29.3217123 14.0307286,28.797619 14.6751236,28.797619 L14.6751236,28.797619 L35.2413914,28.797619 C35.1935547,28.6768095 35.1519018,28.5529563 35.1180661,28.4261766 C34.8714156,27.5027798 35.0249596,26.5114861 35.5391455,25.7066746 C35.5771815,25.6472063 35.6062335,25.5841091 35.6313186,25.5198413 L35.6313186,25.5198413 L14.6754736,25.5198413 C14.0310787,25.5198413 13.5083755,24.995748 13.5083755,24.3492063 C13.5083755,23.7026647 14.0310787,23.1785714 14.6754736,23.1785714 L14.6754736,23.1785714 L35.035227,23.1785714 C34.9749062,22.7347837 35.0004579,22.2788214 35.1181828,21.8383115 C35.3648333,20.9147976 35.9917271,20.1335159 36.8380861,19.6945278 C37.2050284,19.5041825 37.4298607,19.1136587 37.4106094,18.6994881 C37.3663896,17.7446012 37.7273815,16.8092639 38.4011785,16.1332222 C39.0748588,15.4572976 40.0067405,15.094869 40.9589235,15.1394702 C41.3705522,15.1582004 41.7608295,14.9333214 41.9505427,14.5650397 C42.3880732,13.7158611 43.1668775,13.086879 44.0872084,12.8394067 C45.0076559,12.5919345 45.9954248,12.745873 46.7975641,13.2618889 C47.145255,13.4855972 47.5946864,13.4857143 47.942494,13.2618889 Z M34.5084403,41.362629 C34.9641721,40.905496 35.7028403,40.905496 36.1584554,41.362746 C36.6140705,41.819996 36.6140705,42.5612421 36.1584554,43.018375 L36.1584554,43.018375 L33.8436272,45.3409147 C33.3911624,45.7948869 32.7968209,46.021873 32.2024794,46.021873 C31.608138,46.021873 31.0137965,45.7948869 30.5613316,45.3409147 L30.5613316,45.3409147 L29.1279817,43.9026726 L28.2041506,44.8295813 C27.7484188,45.2867143 27.0096339,45.2867143 26.5540188,44.8295813 C26.0984037,44.3723313 26.0984037,43.6310853 26.5540188,43.1739524 L26.5540188,43.1739524 L27.4867172,42.2381468 C28.3917636,41.3302024 29.864083,41.3302024 30.7691295,42.2381468 L30.7691295,42.2381468 L32.2024794,43.6763889 Z M47.9423773,37.0025992 C47.5946864,36.7788909 47.145255,36.7787738 46.7974474,37.0025992 C46.2006558,37.3863333 45.5010737,37.5694206 44.8030083,37.5364087 L44.8030083,37.5364087 L44.8030083,44.5592817 L46.5469466,42.8185476 C47.002095,42.3642242 47.7374963,42.3642242 48.1926448,42.8185476 L48.1926448,42.8185476 L49.9366997,44.5592817 L49.9366997,37.5354722 C49.8832627,37.5380476 49.8299423,37.5407401 49.7765052,37.5407401 C49.1321103,37.5407401 48.4934324,37.3570675 47.9423773,37.0025992 Z M35.3335645,34.4166667 C35.9779594,34.4166667 36.5001959,34.9407599 36.5001959,35.5873016 C36.5001959,36.2338433 35.9778428,36.7579365 35.3334478,36.7579365 L35.3334478,36.7579365 L21.9950675,36.7579365 C21.3506725,36.7579365 20.8283194,36.2338433 20.8283194,35.5873016 C20.8283194,34.9407599 21.3506725,34.4166667 21.9950675,34.4166667 L21.9950675,34.4166667 Z M6.76643862,34.4166667 C7.07446011,34.4166667 7.37431436,34.5419246 7.59132949,34.7596627 C7.80951138,34.9774008 7.93318667,35.2794246 7.93318667,35.5873016 C7.93318667,35.8951786 7.80951138,36.1972024 7.59132949,36.4149405 C7.37431436,36.6326786 7.07446011,36.7579365 6.76643862,36.7579365 C6.45958389,36.7579365 6.15856289,36.6326786 5.94154775,36.4149405 C5.72453262,36.1972024 5.59969058,35.8951786 5.59969058,35.5873016 C5.59969058,35.2794246 5.72453262,34.9774008 5.94154775,34.7596627 C6.15856289,34.5419246 6.45958389,34.4166667 6.76643862,34.4166667 Z M50.0487075,15.1008393 C49.7567872,15.0222897 49.4559995,15.0693492 49.2016485,15.2328869 C48.0890375,15.9488472 46.6507872,15.9488472 45.5378262,15.2328869 C45.2835918,15.0692321 44.9826875,15.0225238 44.6908838,15.1008393 C44.3989635,15.1792718 44.1617636,15.3707877 44.0230373,15.6401508 C43.4160949,16.8183948 42.1714081,17.539623 40.8500659,17.4781647 C40.5488116,17.4642341 40.2643584,17.5742738 40.0507269,17.7887341 C39.8370953,18.0031944 39.7270709,18.2880099 39.7411886,18.5908532 C39.8025595,19.9157778 39.0834927,21.1653135 37.9092775,21.7743948 C37.6409254,21.9135833 37.4499288,22.1515734 37.3717567,22.4443492 C37.2935845,22.7372421 37.3403711,23.0391488 37.5033658,23.2943472 C38.2168323,24.4108988 38.2168323,25.8538234 37.5033658,26.970375 C37.3402545,27.2254563 37.2935845,27.5273631 37.3717567,27.820256 C37.4499288,28.1131488 37.6408088,28.3510218 37.9091608,28.4902103 C38.2297832,28.6565575 38.5150531,28.8719544 38.7612369,29.1223532 C38.7808383,29.1410833 38.7993896,29.16075 38.8175908,29.1807679 C39.4374841,29.8420595 39.7843583,30.7385317 39.7410719,31.6736349 C39.7269543,31.9765952 39.8368619,32.2614107 40.0506102,32.475871 C40.2642417,32.6902143 40.5488116,32.800371 40.8499493,32.7864405 C42.1714081,32.7245139 43.4158616,33.4463274 44.0229206,34.6244544 C44.1617636,34.8937004 44.3988468,35.0853333 44.6907672,35.1637659 C44.9825708,35.2420813 45.2834752,35.195256 45.5378262,35.0317183 C46.0942484,34.6738552 46.7321095,34.4948651 47.3697374,34.4948651 C48.0075985,34.4948651 48.6452263,34.6737381 49.2017651,35.0317183 C49.4559995,35.195373 49.7570205,35.2420813 50.0487075,35.1637659 C50.3406279,35.0853333 50.5778278,34.8938175 50.7165541,34.6244544 C51.3236131,33.4462103 52.5683,32.7250992 53.8895254,32.7864405 C54.1913632,32.800254 54.475233,32.6902143 54.6888645,32.475871 C54.9024961,32.2614107 55.0125204,31.9765952 54.9984028,31.673752 C54.9369152,30.3488274 55.6560987,29.0992917 56.8303139,28.4902103 C57.0986659,28.3510218 57.2896626,28.1130317 57.3678347,27.820256 C57.4461235,27.5273631 57.3993369,27.2254563 57.2362255,26.9702579 C56.5227591,25.8537063 56.5227591,24.4107817 57.2362255,23.2942302 C57.3993369,23.0391488 57.4460068,22.7372421 57.3678347,22.4443492 C57.2896626,22.1514563 57.0987826,21.9135833 56.8304306,21.7743948 C55.655982,21.1653135 54.9370318,19.9156607 54.9984028,18.5908532 C55.0125204,18.2880099 54.9026128,18.0031944 54.6888645,17.7887341 C54.475233,17.5742738 54.1914798,17.4643512 53.8895254,17.4781647 C52.5688833,17.5399742 51.3236131,16.8182778 50.7165541,15.6401508 C50.5777111,15.3709048 50.3406279,15.1792718 50.0487075,15.1008393 Z M46.6710886,5.61904762 C47.3154836,5.61904762 47.8378367,6.14314087 47.8378367,6.78968254 L47.8378367,6.78968254 L47.8378367,9.83333333 C47.8378367,10.479875 47.3154836,11.0039683 46.6710886,11.0039683 C46.0268104,11.0039683 45.5043406,10.479875 45.5043406,9.83333333 L45.5043406,9.83333333 L45.5043406,7.96031746 L7.93365337,7.96031746 L7.93365337,31.2559524 C7.93365337,31.902494 7.41130027,32.4265873 6.76690532,32.4265873 C6.12251038,32.4265873 5.60015728,31.902494 5.60015728,31.2559524 L5.60015728,31.2559524 L5.60015728,6.78968254 C5.60015728,6.14314087 6.12251038,5.61904762 6.76690532,5.61904762 L6.76690532,5.61904762 Z M51.2685426,21.9477659 C51.7241577,21.4906329 52.4629426,21.4906329 52.9185577,21.9477659 C53.3741728,22.4050159 53.3741728,23.1462619 52.9185577,23.6033948 L52.9185577,23.6033948 L48.2208801,28.3167222 C47.9931308,28.5453472 47.6944433,28.6596012 47.3958725,28.6596012 C47.0973017,28.6596012 46.7987309,28.5453472 46.570865,28.3167222 L46.570865,28.3167222 L44.2042332,25.9422063 C43.7486181,25.4849563 43.7486181,24.7437103 44.2042332,24.2865774 C44.659965,23.8294444 45.3987499,23.8294444 45.854365,24.2865774 L45.854365,24.2865774 L47.3959892,25.8333373 Z M23.4512857,13.8134921 C24.0956807,13.8134921 24.6180338,14.3375853 24.6180338,14.984127 C24.6180338,15.6306687 24.0956807,16.1547619 23.4512857,16.1547619 L23.4512857,16.1547619 L17.773073,16.1547619 C17.1286781,16.1547619 16.606325,15.6306687 16.606325,14.984127 C16.606325,14.3375853 17.1286781,13.8134921 17.773073,13.8134921 L17.773073,13.8134921 Z M13.4180692,13.8134921 C13.724924,13.8134921 14.025945,13.93875 14.2429601,14.1564881 C14.4599752,14.3742262 14.5848173,14.67625 14.5848173,14.984127 C14.5848173,15.292004 14.4599752,15.5940278 14.2429601,15.8117659 C14.025945,16.029504 13.724924,16.1547619 13.4180692,16.1547619 C13.1112145,16.1547619 12.8101935,16.029504 12.5931784,15.8117659 C12.3761632,15.5940278 12.2513212,15.292004 12.2513212,14.984127 C12.2513212,14.67625 12.3761632,14.3742262 12.5931784,14.1564881 C12.8101935,13.93875 13.1112145,13.8134921 13.4180692,13.8134921 Z" id="Combined-Shape"></path>
                            </g>
                        </g>
                    </g>
                </g>
            </g>
        </g>
    </g>
</svg>