<svg width="24" height="24" viewBox="0 0 24 24" fill="none" xmlns="http://www.w3.org/2000/svg">
<path fill-rule="evenodd" clip-rule="evenodd" d="M17.6664 2.9697L8.81756 12L17.6664 21.0302C18.1112 21.4808 18.1112 22.2113 17.6664 22.6619C17.4439 22.8872 17.1524 23 16.8609 23C16.5693 23 16.2775 22.8872 16.055 22.6619L6.33649 12.8184C6.30846 12.7902 6.28202 12.7606 6.24161 12.7087C6.22398 12.6859 6.2067 12.6629 6.16952 12.6034C6.15726 12.5831 6.14473 12.5629 6.11512 12.5029C6.10507 12.4819 6.09488 12.4611 6.07223 12.4011C6.06396 12.3786 6.05556 12.3561 6.03931 12.2959C6.03298 12.2719 6.02658 12.248 6.0159 12.1841C6.01212 12.1602 6.00792 12.1363 6.00558 12.1119C6.00386 12.0938 6.00379 12.0756 6 11.9997C6 11.98 6.002 11.9609 6.00558 11.8877C6.00792 11.8634 6.01205 11.8397 6.02183 11.7761C6.02651 11.752 6.03284 11.7286 6.04875 11.6666C6.05543 11.6442 6.06348 11.6226 6.08627 11.5597C6.09454 11.5395 6.10411 11.5201 6.13406 11.4572C6.14397 11.4383 6.15519 11.4203 6.19141 11.3601C6.20463 11.3399 6.2193 11.3209 6.25779 11.2691C6.28196 11.2393 6.30743 11.2106 6.33428 11.1834L16.055 1.33772C16.5002 0.887427 17.2213 0.887427 17.6664 1.33772C18.1112 1.78857 18.1112 2.51885 17.6664 2.9697Z" fill="#FF7D55"/>
</svg>
