<svg width="24" height="24" viewBox="0 0 24 24" fill="none" xmlns="http://www.w3.org/2000/svg">
<path fill-rule="evenodd" clip-rule="evenodd" d="M6.3336 21.0303L15.1824 12L6.33359 2.96979C5.8888 2.51922 5.8888 1.78865 6.33359 1.33809C6.55606 1.11283 6.84759 1 7.13911 1C7.43071 1 7.72251 1.11283 7.94497 1.33809L17.6635 11.1816C17.6915 11.2098 17.718 11.2394 17.7584 11.2913C17.776 11.3141 17.7933 11.3371 17.8305 11.3966C17.8427 11.4169 17.8553 11.4371 17.8849 11.4971C17.8949 11.5181 17.9051 11.5389 17.9278 11.5989C17.936 11.6214 17.9444 11.6439 17.9607 11.7041C17.967 11.7281 17.9734 11.752 17.9841 11.8159C17.9879 11.8398 17.9921 11.8637 17.9944 11.8881C17.9961 11.9062 17.9962 11.9244 18 12.0003C18 12.02 17.998 12.0391 17.9944 12.1123C17.9921 12.1366 17.988 12.1603 17.9782 12.2239C17.9735 12.248 17.9672 12.2714 17.9513 12.3334C17.9446 12.3558 17.9365 12.3774 17.9137 12.4403C17.9055 12.4605 17.8959 12.4799 17.8659 12.5428C17.856 12.5617 17.8448 12.5797 17.8086 12.6399C17.7954 12.6601 17.7807 12.6791 17.7422 12.7309C17.718 12.7607 17.6926 12.7894 17.6657 12.8166L7.94497 22.6623C7.49984 23.1126 6.77873 23.1126 6.3336 22.6623C5.8888 22.2114 5.8888 21.4811 6.3336 21.0303Z" fill="#FF7D55"/>
</svg>
