<?xml version="1.0" encoding="UTF-8"?>
<svg width="60px" height="60px" viewBox="0 0 60 60" version="1.1" xmlns="http://www.w3.org/2000/svg" xmlns:xlink="http://www.w3.org/1999/xlink">
    <!-- Generator: Sketch 63.1 (92452) - https://sketch.com -->
    <title>02_Createprofile_Mentee</title>
    <desc>Created with Sketch.</desc>
    <g id="Mentee/Mentor-Page" stroke="none" stroke-width="1" fill="none" fill-rule="evenodd">
        <g id="SP1_Subpage_Mentee" transform="translate(-455.000000, -570.000000)" fill="#FD4D00">
            <g id="Mentee_Steps" transform="translate(86.000000, 500.000000)">
                <g id="Mentee_Step2" transform="translate(358.000000, 68.000000)">
                    <g id="icons/visual/create-profile-Copy-1">
                        <path d="M57.1081898,2.03174603 C59.0382244,2.03174603 60.6084339,3.60718651 60.6084339,5.54365079 L60.6084339,5.54365079 L60.6084339,18.2743056 C60.6084339,18.9208472 60.0859641,19.4449405 59.4416859,19.4449405 C58.7974076,19.4449405 58.2749378,18.9208472 58.2749378,18.2743056 L58.2749378,18.2743056 L58.2749378,5.54365079 C58.2749378,4.8981627 57.7515346,4.37301587 57.1081898,4.37301587 L57.1081898,4.37301587 L14.6385609,4.37301587 C13.995216,4.37301587 13.4718128,4.8981627 13.4718128,5.54365079 L13.4718128,5.54365079 L13.4718128,58.4563492 C13.4718128,59.1018373 13.995216,59.6269841 14.6385609,59.6269841 L14.6385609,59.6269841 L57.1081898,59.6269841 C57.7515346,59.6269841 58.2749378,59.1018373 58.2749378,58.4563492 L58.2749378,58.4563492 L58.2749378,49.8320476 C58.2749378,49.185506 58.7974076,48.6614127 59.4416859,48.6614127 C60.0859641,48.6614127 60.6084339,49.185506 60.6084339,49.8320476 L60.6084339,49.8320476 L60.6084339,58.4563492 C60.6084339,60.3928135 59.0382244,61.968254 57.1081898,61.968254 L57.1081898,61.968254 L14.6385609,61.968254 C12.7085262,61.968254 11.1383167,60.3928135 11.1383167,58.4563492 L11.1383167,58.4563492 L11.1383167,5.54365079 C11.1383167,3.60718651 12.7085262,2.03174603 14.6385609,2.03174603 L14.6385609,2.03174603 Z M42.1738148,53.3055556 C42.818093,53.3055556 43.3405628,53.8296488 43.3405628,54.4761905 C43.3405628,55.1227321 42.818093,55.6468254 42.1738148,55.6468254 L42.1738148,55.6468254 L35.8733753,55.6468254 C35.229097,55.6468254 34.7066273,55.1227321 34.7066273,54.4761905 C34.7066273,53.8296488 35.229097,53.3055556 35.8733753,53.3055556 L35.8733753,53.3055556 Z M64.7065198,16.7962619 C65.9710413,16.4564266 67.2915667,16.6308512 68.4250625,17.2874603 C70.7650923,18.6430556 71.5696818,21.6560357 70.2185875,24.0038611 L70.2185875,24.0038611 L55.5361135,49.519371 C55.4557245,49.6592619 55.3472169,49.7808909 55.2175912,49.8766488 L55.2175912,49.8766488 L47.7172681,55.4189028 C47.5125038,55.5702659 47.2693535,55.6469425 47.0252698,55.6469425 C46.8244725,55.6469425 46.6232084,55.5949663 46.4420125,55.4900774 C46.0406511,55.2574722 45.8145354,54.8085337 45.8658723,54.3463671 L45.8658723,54.3463671 L46.8993777,45.0580813 C46.917229,44.8975873 46.9680992,44.7424782 47.0484881,44.6025873 L47.0484881,44.6025873 L61.7310789,19.0870774 C62.3853912,17.9498056 63.4422316,17.1362143 64.7065198,16.7962619 Z M49.0205257,47.0967421 L48.480788,51.9469167 L52.3973279,49.052873 L49.0205257,47.0967421 Z M42.1738148,46.75 C42.818093,46.75 43.3405628,47.2740933 43.3405628,47.9206349 C43.3405628,48.5671766 42.818093,49.0912698 42.1738148,49.0912698 L42.1738148,49.0912698 L25.6059925,49.0912698 C24.9617142,49.0912698 24.4392445,48.5671766 24.4392445,47.9206349 C24.4392445,47.2740933 24.9617142,46.75 25.6059925,46.75 L25.6059925,46.75 Z M20.6216448,46.75 C20.9296663,46.75 21.2295206,46.8752579 21.4475858,47.092996 C21.6647176,47.3107341 21.7895596,47.6127579 21.7895596,47.9206349 C21.7895596,48.2285119 21.6646009,48.5305357 21.4475858,48.7482738 C21.2306873,48.9660119 20.9296663,49.0912698 20.6216448,49.0912698 C20.3146734,49.0912698 20.0136524,48.9660119 19.796754,48.7482738 C19.5796222,48.5305357 19.4548968,48.2285119 19.4548968,47.9206349 C19.4548968,47.6127579 19.5797388,47.3107341 19.796754,47.092996 C20.0149359,46.8752579 20.3146734,46.75 20.6216448,46.75 Z M61.4351916,24.283877 L49.6527864,44.7594524 L54.0986799,47.3348492 L65.881085,26.8592738 L61.4351916,24.283877 Z M42.1738148,40.1944444 C42.818093,40.1944444 43.3405628,40.7185377 43.3405628,41.3650794 C43.3405628,42.011621 42.818093,42.5357143 42.1738148,42.5357143 L42.1738148,42.5357143 L25.6059925,42.5357143 C24.9617142,42.5357143 24.4392445,42.011621 24.4392445,41.3650794 C24.4392445,40.7185377 24.9617142,40.1944444 25.6059925,40.1944444 L25.6059925,40.1944444 Z M20.6216448,40.1944444 C20.9296663,40.1944444 21.2295206,40.3197024 21.4475858,40.5374405 C21.6647176,40.7551786 21.7895596,41.0572024 21.7895596,41.3650794 C21.7895596,41.6729563 21.6646009,41.9749802 21.4475858,42.1927183 C21.2295206,42.4104563 20.9296663,42.5357143 20.6216448,42.5357143 C20.3146734,42.5357143 20.0149359,42.4104563 19.796754,42.1927183 C19.5796222,41.9749802 19.4548968,41.6729563 19.4548968,41.3650794 C19.4548968,41.0572024 19.5797388,40.7551786 19.796754,40.5374405 C20.0149359,40.3197024 20.3146734,40.1944444 20.6216448,40.1944444 Z M20.6216448,33.6388889 C20.9296663,33.6388889 21.2306873,33.7641468 21.4475858,33.9818849 C21.6647176,34.199623 21.7895596,34.5016468 21.7895596,34.8095238 C21.7895596,35.1174008 21.6646009,35.4194246 21.4475858,35.6371627 C21.2295206,35.8549008 20.9296663,35.9801587 20.6216448,35.9801587 C20.3146734,35.9801587 20.0149359,35.8549008 19.796754,35.6371627 C19.5796222,35.4194246 19.4548968,35.1174008 19.4548968,34.8095238 C19.4548968,34.5016468 19.5797388,34.199623 19.796754,33.9818849 C20.0136524,33.7641468 20.3146734,33.6388889 20.6216448,33.6388889 Z M42.1738148,33.6388889 C42.818093,33.6388889 43.3405628,34.1629821 43.3405628,34.8095238 C43.3405628,35.4560655 42.818093,35.9801587 42.1738148,35.9801587 L42.1738148,35.9801587 L25.6059925,35.9801587 C24.9617142,35.9801587 24.4392445,35.4560655 24.4392445,34.8095238 C24.4392445,34.1629821 24.9617142,33.6388889 25.6059925,33.6388889 L25.6059925,33.6388889 Z M35.8733753,8.3531746 C41.7921715,8.3531746 46.6074573,13.184502 46.6074573,19.1230159 C46.6074573,22.2037758 45.3112003,24.9861409 43.2374223,26.9509345 C43.1985696,26.9924921 43.1572667,27.0320595 43.1121135,27.067998 C41.2020303,28.821375 38.6600364,29.8927401 35.8732586,29.8927401 C33.0864809,29.8927401 30.544487,28.8214921 28.6344037,27.067998 C28.5892506,27.0320595 28.5479477,26.9926091 28.509095,26.9509345 C26.4355504,24.9861409 25.1392933,22.2037758 25.1392933,19.1230159 C25.1392933,13.184502 29.9545792,8.3531746 35.8733753,8.3531746 Z M35.8733753,22.8690476 C33.7381097,22.8690476 31.8245262,24.0100655 30.7990714,25.8345 C32.2099031,26.9110159 33.9681924,27.5515873 35.8733753,27.5515873 C37.7785582,27.5515873 39.5367308,26.9110159 40.9476792,25.8345 C39.9222244,24.0100655 38.0086409,22.8690476 35.8733753,22.8690476 Z M67.2581977,19.3151171 C66.6645563,18.9711845 65.9729081,18.8796409 65.3104285,19.0578115 C64.6481823,19.2358651 64.0946771,19.6619762 63.7518865,20.2577123 L63.7518865,20.2577123 L62.6018229,22.2563373 L67.0477164,24.8317341 L68.1977799,22.8331091 C68.5405705,22.237373 68.6315769,21.5433036 68.4541145,20.8788512 C68.2766521,20.2143988 67.8519558,19.6590496 67.2581977,19.3151171 Z M35.8733753,10.6944444 C31.2412689,10.6944444 27.4727894,14.4754782 27.4727894,19.1230159 C27.4727894,20.9921687 28.0831153,22.720377 29.1132371,24.1196369 C29.9737138,22.8391964 31.166247,21.8433373 32.5508269,21.2285198 C32.0012886,20.5159544 31.6730823,19.6233452 31.6730823,18.6547619 L31.6730823,18.6547619 L31.6730823,17.8938492 C31.6730823,15.5700218 33.5572638,13.6795635 35.8733753,13.6795635 C38.1894869,13.6795635 40.0736683,15.5700218 40.0736683,17.8938492 L40.0736683,17.8938492 L40.0736683,18.6547619 C40.0736683,19.6233452 39.7454621,20.5159544 39.1959237,21.2285198 C40.5805036,21.8433373 41.7730368,22.8391964 42.6335135,24.1196369 C43.6636354,22.720377 44.2739613,20.9921687 44.2739613,19.1230159 C44.2739613,14.4754782 40.5054817,10.6944444 35.8733753,10.6944444 Z M35.8733753,16.0208333 C34.8440702,16.0208333 34.0065784,16.8611151 34.0065784,17.8938492 L34.0065784,17.8938492 L34.0065784,18.6547619 C34.0065784,19.687496 34.8440702,20.5277778 35.8733753,20.5277778 C36.9026804,20.5277778 37.7401722,19.687496 37.7401722,18.6547619 L37.7401722,18.6547619 L37.7401722,17.8938492 C37.7401722,16.8611151 36.9026804,16.0208333 35.8733753,16.0208333 Z" id="Combined-Shape"></path>
                    </g>
                </g>
            </g>
        </g>
    </g>
</svg>