<?xml version="1.0" encoding="UTF-8"?>
<svg width="20px" height="20px" viewBox="0 0 20 20" version="1.1" xmlns="http://www.w3.org/2000/svg" xmlns:xlink="http://www.w3.org/1999/xlink">
    <!-- Generator: Sketch 63.1 (92452) - https://sketch.com -->
    <title>Group</title>
    <desc>Created with Sketch.</desc>
    <g id="Symbols" stroke="none" stroke-width="1" fill="none" fill-rule="evenodd">
        <g id="icons/functional/cancel" transform="translate(-10.000000, -10.000000)" fill="#FD4D00" fill-rule="nonzero">
            <g id="Group" transform="translate(10.000000, 10.000000)">
                <path d="M19.7477372,0.252969343 C20.0562417,0.561970445 20.0817577,1.04676826 19.8244205,1.38485069 L19.7472249,1.47317511 L11.22,10 L19.7472249,18.5268249 L19.8244205,18.6151493 C20.0817577,18.9532317 20.0562417,19.4380296 19.7477372,19.7470307 C19.4111868,20.0841228 18.8653015,20.0843523 18.5284681,19.7475434 L18.5284681,19.7475434 L10,11.219 L1.47153186,19.7475434 C1.13469852,20.0843523 0.58881316,20.0841228 0.252262788,19.7470307 C-0.0562417189,19.4380296 -0.0817576752,18.9532317 0.175579498,18.6151493 L0.252775149,18.5268249 L8.779,10 L0.252775149,1.47317511 L0.175579498,1.38485069 C-0.0817576752,1.04676826 -0.0562417189,0.561970445 0.252262788,0.252969343 C0.58881316,-0.0841227691 1.13469852,-0.0843523369 1.47153186,0.252456588 L1.47153186,0.252456588 L10,8.78 L18.5284681,0.252456588 C18.8653015,-0.0843523369 19.4111868,-0.0841227691 19.7477372,0.252969343 Z" id="Combined-Shape"></path>
            </g>
        </g>
    </g>
</svg>