<?xml version="1.0" encoding="UTF-8"?>
<svg width="24" height="24" viewBox="0 0 24 24" fill="none" xmlns="http://www.w3.org/2000/svg">
<path fill-rule="evenodd" clip-rule="evenodd" d="M18.6421 4.71888C17.6835 3.76037 16.1294 3.76037 15.1708 4.71888L5.43958 14.4493C5.37289 14.5159 5.32473 14.5986 5.29959 14.6894L4.0199 19.3089C3.96728 19.4983 4.02076 19.7011 4.15968 19.8403C4.29881 19.9792 4.50165 20.0326 4.69107 19.9802L9.31102 18.7004C9.40179 18.6753 9.48446 18.6271 9.55115 18.5605L19.2822 8.82988C20.2393 7.87073 20.2393 6.31803 19.2822 5.35888L18.6421 4.71888ZM6.62807 14.8038L14.5923 6.84L17.1609 9.4083L9.19639 17.3721L6.62807 14.8038ZM6.115 15.8332L8.16706 17.8853L5.32857 18.6717L6.115 15.8332ZM18.5109 8.05864L17.9324 8.63707L15.3636 6.06855L15.9423 5.49012C16.4748 4.95771 17.3381 4.95771 17.8706 5.49012L18.5109 6.13012C19.0425 6.66317 19.0425 7.5258 18.5109 8.05864Z" fill="#A0A0A0" stroke="#A0A0A0" stroke-width="0.3"/>
</svg>
