<svg width="40" height="40" viewBox="0 0 40 40" fill="none" xmlns="http://www.w3.org/2000/svg">
<path d="M13.502 26.108C13.178 26.108 12.896 25.994 12.656 25.766C12.428 25.526 12.314 25.244 12.314 24.92C12.314 24.596 12.428 24.32 12.656 24.092C12.896 23.852 13.178 23.732 13.502 23.732C13.826 23.732 14.102 23.852 14.33 24.092C14.57 24.32 14.69 24.596 14.69 24.92C14.69 25.244 14.57 25.526 14.33 25.766C14.102 25.994 13.826 26.108 13.502 26.108ZM20.2118 26.108C19.8878 26.108 19.6058 25.994 19.3658 25.766C19.1378 25.526 19.0238 25.244 19.0238 24.92C19.0238 24.596 19.1378 24.32 19.3658 24.092C19.6058 23.852 19.8878 23.732 20.2118 23.732C20.5358 23.732 20.8118 23.852 21.0398 24.092C21.2798 24.32 21.3998 24.596 21.3998 24.92C21.3998 25.244 21.2798 25.526 21.0398 25.766C20.8118 25.994 20.5358 26.108 20.2118 26.108ZM26.9215 26.108C26.5975 26.108 26.3155 25.994 26.0755 25.766C25.8475 25.526 25.7335 25.244 25.7335 24.92C25.7335 24.596 25.8475 24.32 26.0755 24.092C26.3155 23.852 26.5975 23.732 26.9215 23.732C27.2455 23.732 27.5215 23.852 27.7495 24.092C27.9895 24.32 28.1095 24.596 28.1095 24.92C28.1095 25.244 27.9895 25.526 27.7495 25.766C27.5215 25.994 27.2455 26.108 26.9215 26.108Z" fill="#FF7D55"/>
</svg>
