<svg width="20" height="19" viewBox="0 0 20 19" fill="none" xmlns="http://www.w3.org/2000/svg">
<g id="Property 1=no">
<path id="Vector" d="M10.1 15.9001L10 16.0001L9.89 15.9001C5.14 11.5901 2 8.7401 2 5.8501C2 3.8501 3.5 2.3501 5.5 2.3501C7.04 2.3501 8.54 3.3501 9.07 4.7101H10.93C11.46 3.3501 12.96 2.3501 14.5 2.3501C16.5 2.3501 18 3.8501 18 5.8501C18 8.7401 14.86 11.5901 10.1 15.9001ZM14.5 0.350098C12.76 0.350098 11.09 1.1601 10 2.4301C8.91 1.1601 7.24 0.350098 5.5 0.350098C2.42 0.350098 0 2.7601 0 5.8501C0 9.6201 3.4 12.7101 8.55 17.3801L10 18.7001L11.45 17.3801C16.6 12.7101 20 9.6201 20 5.8501C20 2.7601 17.58 0.350098 14.5 0.350098Z" fill="#FF7D55"/>
</g>
</svg>
