<?xml version="1.0" encoding="UTF-8"?>
<svg width="21px" height="19px" viewBox="0 0 21 19" version="1.1" xmlns="http://www.w3.org/2000/svg" xmlns:xlink="http://www.w3.org/1999/xlink">
    <!-- Generator: Sketch 63.1 (92452) - https://sketch.com -->
    <title>icon/functional/star copy 8</title>
    <desc>Created with Sketch.</desc>
    <g id="Find-a-mentor" stroke="none" stroke-width="1" fill="none" fill-rule="evenodd">
        <g id="Find_a_mentor_04" transform="translate(-1109.000000, -206.000000)">
            <g id="icon/functional/star-copy-8" transform="translate(1109.000000, 206.000000)">
                <g id="-2" transform="translate(0.500000, 0.250000)">
                    <path d="M10.2199219,18.4078125 C10.4589844,18.4078125 10.6947266,18.3613281 10.9271484,18.2683594 C11.1595703,18.1753906 11.36875,18.0359375 11.5546875,17.85 C11.5546875,17.85 11.9232422,17.4548828 12.6603516,16.6646484 C13.3974609,15.8744141 14.2076172,14.9978516 15.0908203,14.0349609 C15.9740234,13.0720703 16.7908203,12.1888672 17.5412109,11.3853516 C18.2916016,10.5818359 18.6734375,10.1734375 18.6867188,10.1601562 C19.2710938,9.57578125 19.709375,8.91503906 20.0015625,8.17792969 C20.29375,7.44082031 20.4398438,6.69375 20.4398438,5.93671875 C20.4398438,5.1796875 20.29375,4.43261719 20.0015625,3.69550781 C19.709375,2.95839844 19.2710938,2.30429687 18.6867188,1.73320312 C18.115625,1.14882813 17.4980469,0.713867187 16.8339844,0.428320312 C16.1699219,0.142773438 15.4460938,0 14.6625,0 C13.9054688,0 13.1318359,0.25234375 12.3416016,0.75703125 C11.5513672,1.26171875 10.8441406,1.8328125 10.2199219,2.4703125 C9.56914063,1.8328125 8.85527344,1.26171875 8.07832031,0.75703125 C7.30136719,0.25234375 6.52109375,0 5.7375,0 C4.98046875,0 4.26660156,0.122851563 3.59589844,0.368554687 C2.92519531,0.614257812 2.3109375,1.01601562 1.753125,1.57382812 C1.16875,2.15820312 0.73046875,2.815625 0.43828125,3.54609375 C0.14609375,4.2765625 0,5.02363281 0,5.78730469 C0,6.55097656 0.14609375,7.29804687 0.43828125,8.02851563 C0.73046875,8.75898437 1.16875,9.41640625 1.753125,10.0007812 C1.9125,10.1734375 2.37402344,10.678125 3.13769531,11.5148437 C3.90136719,12.3515625 4.70820313,13.2414062 5.55820313,14.184375 C6.40820313,15.1273437 7.17519531,15.9740234 7.85917969,16.7244141 C8.54316406,17.4748047 8.88515625,17.85 8.88515625,17.85 C9.07109375,18.0359375 9.27695313,18.1753906 9.50273438,18.2683594 C9.72851562,18.3613281 9.96757813,18.4078125 10.2199219,18.4078125 Z M10.2199219,17.1328125 C10.1667969,17.1328125 10.1037109,17.1228516 10.0306641,17.1029297 C9.95761719,17.0830078 9.88125,17.0398437 9.8015625,16.9734375 C9.60234375,16.7609375 9.15078125,16.2595703 8.446875,15.4693359 C7.74296875,14.6791016 6.98925781,13.8423828 6.18574219,12.9591797 C5.38222656,12.0759766 4.63183594,11.2525391 3.93457031,10.4888672 C3.23730469,9.72519531 2.80898438,9.26367188 2.64960938,9.10429687 C2.21132813,8.66601562 1.87265625,8.16132813 1.63359375,7.59023437 C1.39453125,7.01914062 1.275,6.42148437 1.275,5.79726562 C1.275,5.17304687 1.39453125,4.57539062 1.63359375,4.00429687 C1.87265625,3.43320312 2.21132813,2.921875 2.64960938,2.4703125 C3.08789063,2.0453125 3.559375,1.73984375 4.0640625,1.55390625 C4.56875,1.36796875 5.1265625,1.275 5.7375,1.275 C6.05625,1.275 6.50449219,1.40117187 7.08222656,1.65351562 C7.65996094,1.90585937 8.40703125,2.48359375 9.3234375,3.38671875 L10.2398438,4.28320312 L11.1363281,3.36679687 C11.7738281,2.71601562 12.4080078,2.2046875 13.0388672,1.8328125 C13.6697266,1.4609375 14.2109375,1.275 14.6625,1.275 C15.2734375,1.275 15.83125,1.38457031 16.3359375,1.60371094 C16.840625,1.82285156 17.3253906,2.16484375 17.7902344,2.6296875 C18.2285156,3.06796875 18.5671875,3.57265625 18.80625,4.14375 C19.0453125,4.71484375 19.1648438,5.3125 19.1648438,5.93671875 C19.1648438,6.5609375 19.0453125,7.15859375 18.80625,7.7296875 C18.5671875,8.30078125 18.2285156,8.81210937 17.7902344,9.26367188 C17.7636719,9.27695312 17.5279297,9.52265625 17.0830078,10.0007812 C16.6380859,10.4789062 16.0736328,11.0898437 15.3896484,11.8335937 C14.7056641,12.5773438 13.9419922,13.4007812 13.0986328,14.3039062 C12.2552734,15.2070312 11.4351563,16.096875 10.6382813,16.9734375 C10.5585938,17.0398437 10.4789062,17.0830078 10.3992188,17.1029297 C10.3195313,17.1228516 10.2597656,17.1328125 10.2199219,17.1328125 Z" id="" fill="#FFFFFF"></path>
                    <path d="M10.2199219,18.4078125 C10.4589844,18.4078125 10.6947266,18.3613281 10.9271484,18.2683594 C11.1595703,18.1753906 11.36875,18.0359375 11.5546875,17.85 C11.5546875,17.85 11.9232422,17.4548828 12.6603516,16.6646484 C13.3974609,15.8744141 14.2076172,14.9978516 15.0908203,14.0349609 C15.9740234,13.0720703 16.7908203,12.1888672 17.5412109,11.3853516 C18.2916016,10.5818359 18.6734375,10.1734375 18.6867188,10.1601562 C19.2710938,9.57578125 19.709375,8.91503906 20.0015625,8.17792969 C20.29375,7.44082031 20.4398438,6.69375 20.4398438,5.93671875 C20.4398438,5.1796875 20.29375,4.43261719 20.0015625,3.69550781 C19.709375,2.95839844 19.2710938,2.30429687 18.6867188,1.73320312 C18.115625,1.14882813 17.4980469,0.713867187 16.8339844,0.428320312 C16.1699219,0.142773438 15.4460938,0 14.6625,0 C13.9054688,0 13.1318359,0.25234375 12.3416016,0.75703125 C11.5513672,1.26171875 10.8441406,1.8328125 10.2199219,2.4703125 C9.56914063,1.8328125 8.85527344,1.26171875 8.07832031,0.75703125 C7.30136719,0.25234375 6.52109375,0 5.7375,0 C4.98046875,0 4.26660156,0.122851563 3.59589844,0.368554687 C2.92519531,0.614257812 2.3109375,1.01601562 1.753125,1.57382812 C1.16875,2.15820312 0.73046875,2.815625 0.43828125,3.54609375 C0.14609375,4.2765625 0,5.02363281 0,5.78730469 C0,6.55097656 0.14609375,7.29804687 0.43828125,8.02851563 C0.73046875,8.75898437 1.16875,9.41640625 1.753125,10.0007812 C1.9125,10.1734375 2.37402344,10.678125 3.13769531,11.5148437 C3.90136719,12.3515625 4.70820313,13.2414062 5.55820313,14.184375 C6.40820313,15.1273437 7.17519531,15.9740234 7.85917969,16.7244141 C8.54316406,17.4748047 8.88515625,17.85 8.88515625,17.85 C9.07109375,18.0359375 9.27695313,18.1753906 9.50273438,18.2683594 C9.72851562,18.3613281 9.96757813,18.4078125 10.2199219,18.4078125 Z" id="" fill="#FD4D00"></path>
                </g>
            </g>
        </g>
    </g>
</svg>