<?xml version="1.0" encoding="UTF-8"?>
<svg width="16px" height="16px" viewBox="0 0 16 16" version="1.1" xmlns="http://www.w3.org/2000/svg" xmlns:xlink="http://www.w3.org/1999/xlink">
    <defs>
        <path d="M6.81328125,12.271875 C6.97265625,12.271875 7.12981771,12.2408854 7.28476563,12.1789062 C7.43971354,12.1169271 7.57916667,12.0239583 7.703125,11.9 C7.703125,11.9 7.94882813,11.6365885 8.44023437,11.1097656 C8.93164062,10.5829427 9.47174479,9.99856771 10.0605469,9.35664063 C10.649349,8.71471354 11.1938802,8.12591146 11.6941406,7.59023438 C12.194401,7.05455729 12.4489583,6.78229167 12.4578125,6.7734375 C12.8473958,6.38385417 13.1395833,5.94335938 13.334375,5.45195312 C13.5291667,4.96054687 13.6265625,4.4625 13.6265625,3.9578125 C13.6265625,3.453125 13.5291667,2.95507812 13.334375,2.46367187 C13.1395833,1.97226563 12.8473958,1.53619792 12.4578125,1.15546875 C12.0770833,0.765885417 11.6653646,0.475911458 11.2226562,0.285546875 C10.7799479,0.0951822917 10.2973958,0 9.775,0 C9.2703125,0 8.75455729,0.168229167 8.22773437,0.5046875 C7.70091146,0.841145833 7.22942708,1.221875 6.81328125,1.646875 C6.37942708,1.221875 5.90351562,0.841145833 5.38554688,0.5046875 C4.86757812,0.168229167 4.34739583,0 3.825,0 C3.3203125,0 2.84440104,0.0819010417 2.39726563,0.245703125 C1.95013021,0.409505208 1.540625,0.67734375 1.16875,1.04921875 C0.779166667,1.43880208 0.486979167,1.87708333 0.2921875,2.3640625 C0.0973958333,2.85104167 0,3.34908854 0,3.85820312 C0,4.36731771 0.0973958333,4.86536458 0.2921875,5.35234375 C0.486979167,5.83932292 0.779166667,6.27760417 1.16875,6.6671875 C1.275,6.78229167 1.58268229,7.11875 2.09179688,7.6765625 C2.60091146,8.234375 3.13880208,8.82760417 3.70546875,9.45625 C4.27213542,10.0848958 4.78346354,10.649349 5.23945312,11.1496094 C5.69544271,11.6498698 5.9234375,11.9 5.9234375,11.9 C6.04739583,12.0239583 6.18463542,12.1169271 6.33515625,12.1789062 C6.48567708,12.2408854 6.64505208,12.271875 6.81328125,12.271875 Z M6.81328125,11.421875 C6.77786458,11.421875 6.73580729,11.4152344 6.68710937,11.4019531 C6.63841146,11.3886719 6.5875,11.3598958 6.534375,11.315625 C6.4015625,11.1739583 6.10052083,10.8397135 5.63125,10.3128906 C5.16197917,9.78606771 4.65950521,9.22825521 4.12382812,8.63945312 C3.58815104,8.05065104 3.08789062,7.50169271 2.62304687,6.99257812 C2.15820312,6.48346354 1.87265625,6.17578125 1.76640625,6.06953125 C1.47421875,5.77734375 1.2484375,5.44088542 1.0890625,5.06015625 C0.9296875,4.67942708 0.85,4.28098958 0.85,3.86484375 C0.85,3.44869792 0.9296875,3.05026042 1.0890625,2.66953125 C1.2484375,2.28880208 1.47421875,1.94791667 1.76640625,1.646875 C2.05859375,1.36354167 2.37291667,1.15989583 2.709375,1.0359375 C3.04583333,0.911979167 3.41770833,0.85 3.825,0.85 C4.0375,0.85 4.33632812,0.934114583 4.72148437,1.10234375 C5.10664062,1.27057292 5.6046875,1.65572917 6.215625,2.2578125 L6.8265625,2.85546875 L7.42421875,2.24453125 C7.84921875,1.81067708 8.27200521,1.46979167 8.69257812,1.221875 C9.11315104,0.973958333 9.47395833,0.85 9.775,0.85 C10.1822917,0.85 10.5541667,0.923046875 10.890625,1.06914062 C11.2270833,1.21523437 11.5502604,1.44322917 11.8601562,1.753125 C12.1523438,2.0453125 12.378125,2.38177083 12.5375,2.7625 C12.696875,3.14322917 12.7765625,3.54166667 12.7765625,3.9578125 C12.7765625,4.37395833 12.696875,4.77239583 12.5375,5.153125 C12.378125,5.53385417 12.1523438,5.87473958 11.8601562,6.17578125 C11.8424479,6.18463542 11.6852865,6.3484375 11.3886719,6.6671875 C11.0920573,6.9859375 10.7157552,7.39322917 10.2597656,7.8890625 C9.80377604,8.38489583 9.29466146,8.93385417 8.73242188,9.5359375 C8.17018229,10.1380208 7.6234375,10.73125 7.0921875,11.315625 C7.0390625,11.3598958 6.9859375,11.3886719 6.9328125,11.4019531 C6.8796875,11.4152344 6.83984375,11.421875 6.81328125,11.421875 Z" id="path-1-heart"></path>
    </defs>
    <g id="icons/functional/star/not-checked" stroke="none" stroke-width="1" fill="none" fill-rule="evenodd">
        <g id="-2" transform="translate(1.000000, 1.500000)">
            <g id="">
                <use fill="black" fill-opacity="1" filter="url(#filter-2)" xlink:href="#path-1-heart"></use>
                <use fill="#FFFFFF" fill-rule="evenodd" xlink:href="#path-1-heart"></use>
            </g>
        </g>
    </g>
</svg>