<?xml version="1.0" encoding="UTF-8"?>
<svg width="240px" height="258px" viewBox="0 0 264 284" version="1.1" xmlns="http://www.w3.org/2000/svg" xmlns:xlink="http://www.w3.org/1999/xlink">
    <!-- Generator: Sketch 63.1 (92452) - https://sketch.com -->
    <title>Group 94</title>
    <desc>Created with Sketch.</desc>
    <defs>
        <polygon id="path-1" points="1 -1.23179245e-13 19 -1.23179245e-13 19 11 1 11"></polygon>
    </defs>
    <g id="Mentee/Mentor-Page" stroke="none" stroke-width="1" fill="none" fill-rule="evenodd">
        <g id="SP1_Subpage_Mentor" transform="translate(-1155.000000, -284.000000)">
            <g id="Group-94" transform="translate(1155.000000, 284.000000)">
                <path d="M2.54866294,179.002654 L87.1634707,182.83873 C88.6151296,182.904665 89.8737669,183.851427 90.3209144,185.215778 L105.827738,232.499765 C106.576981,234.784391 104.783822,237.105085 102.352779,236.99632 L19.9874145,233.318601 C18.9954667,233.274645 18.1308673,232.640652 17.8007891,231.715869 L0.140462541,182.200793 C-0.432891311,180.593552 0.824032822,178.924321 2.54866294,179.002654" id="Fill-1" fill="#2CB0C7"></path>
                <path d="M185.541496,73.9914787 C188.33041,74.1376284 190.96233,72.3921986 191.761519,69.6499381 C192.210885,68.1092295 192.0209,66.48931 191.227968,65.0886151 C190.434467,63.6879202 189.132443,62.6737971 187.561368,62.2336743 C186.372539,61.899538 185.146168,61.9268713 184,62.2955927 C184.220701,62.8104638 184.439127,63.2907499 184.631957,63.7158114 C184.831043,64.1548185 184.997138,64.5218664 185.105213,64.7885061 C186.360594,67.8911205 186.508487,71.0590004 185.541496,73.9914787 M186.023381,78 C185.118414,78 184.199168,77.8814686 183.287061,77.6330632 C183.060373,77.5712454 182.840825,77.4958164 182.621871,77.4192531 C182.138746,77.2502466 181.734159,76.8833098 181.549715,76.424497 C181.36527,75.9668185 181.376575,75.4473223 181.616948,75.0134634 C181.827571,74.6334825 181.984051,74.3096481 182.108997,73.9937535 C183.041333,71.6509159 182.968151,69.0551359 181.897779,66.4854441 C181.798417,66.2466799 181.644317,65.9183084 181.460467,65.5252833 C181.080274,64.7108765 180.559665,63.5964548 180.108669,62.4202154 C179.815938,61.6568508 180.130684,60.8033116 180.859536,60.3819297 C183.231133,59.0100285 186.113818,58.6391218 188.766841,59.3610855 C191.327046,60.0592295 193.448751,61.6653578 194.741646,63.8839926 C196.03454,66.1026275 196.343336,68.6683493 195.611509,71.1081671 C194.361452,75.2766144 190.360201,78 186.023381,78" id="Fill-3" fill="#000000"></path>
                <path d="M134.344157,83 L126.655528,83 C126.161535,83 125.693483,82.7730528 125.378873,82.380019 C125.064815,81.9881227 124.936211,81.4710926 125.030042,80.9711263 L130.555589,51.3832422 C130.728901,50.4583898 131.596562,49.8554724 132.494581,50.030091 C133.3926,50.208691 133.980424,51.1033976 133.807664,52.0288188 L128.660753,79.5872603 L134.344157,79.5872603 C135.258734,79.5872603 136,80.3511452 136,81.2936302 C136,82.2361151 135.258734,83 134.344157,83" id="Fill-5" fill="#000000"></path>
                <path d="M142.178652,63 C142.106127,63 142.033601,62.9969862 141.959625,62.9909586 C140.763676,62.8915033 139.891917,62.0060497 140.010859,61.0114966 L140.658513,55.6282519 C140.778181,54.6343016 141.842858,53.9121958 143.040258,54.0086373 C144.236207,54.1080926 145.108691,54.994149 144.989023,55.9880993 L144.341369,61.3719467 C144.228954,62.3044156 143.282494,63 142.178652,63" id="Fill-7" fill="#000000"></path>
                <path d="M119.178652,61 C119.106127,61 119.033601,60.9969859 118.959625,60.9909577 C117.763676,60.8914926 116.891917,60.0059515 117.010859,59.0113001 L117.658513,53.6281265 C117.778181,52.634078 118.839232,51.9137093 120.040258,52.0083519 C121.236207,52.107817 122.108691,52.9939609 121.989023,53.9880095 L121.340644,59.3717859 C121.228954,60.3043469 120.282494,61 119.178652,61" id="Fill-9" fill="#000000"></path>
                <path d="M147.25407,51 C146.745114,51 146.240817,50.7551671 145.895495,50.2841858 C144.302242,48.1077499 142.49935,47.4254391 140.223606,48.140609 C139.294208,48.4305428 138.32987,47.8345679 138.066658,46.8069138 C137.803445,45.7799041 138.343264,44.7116593 139.271497,44.4210813 C142.903486,43.2806753 146.133086,44.4674707 148.610316,47.850031 C149.217685,48.6792415 149.102384,49.8969632 148.352926,50.5689652 C148.029151,50.8588989 147.640737,51 147.25407,51" id="Fill-11" fill="#000000"></path>
                <path d="M114.802337,51 C114.431382,51 114.056819,50.8733833 113.735165,50.6094311 C112.932531,49.9515603 112.760581,48.6934328 113.350983,47.7997468 C115.537633,44.4869455 118.747567,43.3098794 122.632675,44.3884658 C123.598841,44.6571076 124.18744,45.7477528 123.945748,46.8256693 C123.705258,47.902246 122.724061,48.5574371 121.759698,48.2887953 C119.274239,47.598098 117.576984,48.1816066 116.256697,50.1806762 C115.903177,50.7166198 115.356064,51 114.802337,51" id="Fill-13" fill="#000000"></path>
                <path d="M140.56613,96 C139.572621,96 138.538386,95.9108379 137.463423,95.7325138 C136.523835,95.5774221 135.877366,94.6173603 136.019623,93.5882293 C136.161881,92.5597262 137.038371,91.8495694 137.978533,92.0084285 C143.86903,92.9848157 148.047273,90.6954859 150.753035,85.0136029 C151.192427,84.0912152 152.232399,83.7326833 153.074472,84.213656 C153.917119,84.6946288 154.244082,85.8323868 153.80469,86.7547745 C150.878658,92.900049 146.433682,96 140.56613,96" id="Fill-15" fill="#000000"></path>
                <path d="M107.48243,123.48018 C97.7230032,124.10333 92.3007844,117.34258 91.1998925,103.225814 C91.0399484,101.166858 89.5420321,99.4453709 87.524581,99.0373358 C72.2572918,95.9506093 72.0077336,79.3549017 87.6805549,73.2696572 C100.619013,67.705127 104.345937,54.7686472 105.406559,34.9018291 C108.716608,-2.46440634 180.198014,-15.0230126 198.81789,34.9018291 L199.40265,36.6671362 C199.835974,37.9748975 200.899432,38.9673848 202.223225,39.336153 C207.144626,40.707652 208.719678,45.0748237 208.319251,49.6986535 C208.222831,50.8072344 208.944281,51.8236233 210.028725,52.0541035 C218.439403,53.8427431 223.460627,59.7908377 220.500526,66.7359723 C219.863586,68.2309632 220.448913,69.9666777 221.896351,70.6990924 C258.35907,89.1505918 242.12134,123.417012 198.077156,132.327203 C174.654986,137.065419 160.805074,116.037095 163.866699,92.5070654 C164.634658,86.6050668 167.177315,81.1298833 170.845253,76.4519902 C174.599403,71.6642635 174.956157,65.4862578 169.288918,63.8939531 C168.278774,63.6099788 167.215316,63.545672 166.172843,63.6549367 C154.260978,64.903513 149.592538,52.6681481 162.136807,43.4011396 C143.342807,31.7746974 130.483754,47.4416554 116.635543,40.7776497 C111.069829,86.1583337 112.52464,111.658541 144.103392,113.205888 L143.101189,130.080448 C132.147286,134.948985 122.548938,133.362941 114.214829,125.76108 C112.38795,124.094794 109.946817,123.323112 107.48243,123.48018" id="Fill-17" fill="#000000"></path>
                <path d="M166.647594,61.3675898 C167.555598,61.3675898 168.435172,61.48636 169.27381,61.7221873 C172.61301,62.6614997 173.945733,64.8022182 174.475639,66.4324534 C175.493376,69.5633042 174.460856,73.5249754 171.714104,77.0321222 C168.05878,81.6972784 165.761197,86.977984 165.068681,92.3037994 C163.376054,105.326837 166.931878,117.382583 174.580824,124.550478 C180.558748,130.153234 188.426592,132.160336 197.334916,130.357085 C220.828714,125.599425 237.902812,112.808217 239.82116,98.5272434 C241.212446,88.169683 234.450467,78.6526502 220.780955,71.7291472 C218.553305,70.6002594 217.587308,67.8862462 218.582302,65.5496711 C219.567631,63.2353653 219.546594,61.054105 218.51976,59.0687013 C217.065931,56.2564743 213.705126,54.1054776 209.299292,53.1678783 C207.383787,52.7601767 206.06812,50.9592095 206.239828,48.9800869 C206.468392,46.3397341 206.139191,41.7111226 201.371749,40.38181 C199.484103,39.8547673 197.992749,38.4386611 197.382107,36.593155 L196.806147,34.8515728 C186.653228,7.6497722 161.28543,0.959241573 142.644927,3.49738347 C133.250478,4.77644711 124.510451,8.40407714 118.035598,13.7121912 C111.181511,19.330935 107.185046,26.4845552 106.475473,34.4033295 C105.42874,53.9792843 101.828567,68.2619712 87.6763408,74.3535117 C87.6581466,74.3615059 87.6393838,74.3695 87.6200525,74.3763521 C80.7346939,77.0526786 76.5790303,82.2357414 77.0338848,87.5815421 C77.4301767,92.2444143 81.2253681,95.7487061 87.185098,96.9546803 C89.9375357,97.5114156 92.0133775,99.8753993 92.2334134,102.703615 C93.7588813,122.280711 103.535977,121.656026 106.74668,121.449891 C109.766914,121.256318 112.610891,122.226465 114.751549,124.180463 C122.482937,131.238725 131.052963,132.697086 140.921598,128.622354 L141.76251,114.452157 C131.937086,113.676724 124.78848,110.477352 119.943712,104.698154 C110.108623,92.9656006 110.506621,71.231797 114.337632,39.9678274 C114.404723,39.4202282 114.729944,38.9388663 115.212089,38.6744885 C115.693667,38.4089686 116.273037,38.3946933 116.76826,38.6328047 C122.336247,41.3148412 127.735937,40.0392037 133.989048,38.5619994 C142.145725,36.6342678 151.391778,34.4495814 162.538553,41.3513859 C163.021836,41.6505955 163.324883,42.1702151 163.348194,42.7395126 C163.371506,43.3082391 163.11167,43.8518411 162.65511,44.1893084 C156.164906,48.988081 155.130112,54.0129739 156.325811,57.1158452 C157.531744,60.24327 161.050042,61.8963455 165.512164,61.4281169 C165.89481,61.3875751 166.273477,61.3675898 166.647594,61.3675898 M191.638915,135 C184.41304,135 177.979416,132.501511 172.765472,127.614853 C164.304551,119.686109 160.350126,106.514596 162.187328,92.3822134 C162.959659,86.4392277 165.502602,80.5728372 169.541261,75.4180959 C171.523027,72.8887401 172.387559,69.9741221 171.743286,67.9929363 C171.34773,66.7765591 170.377905,65.9425862 168.861132,65.5155967 C168.093354,65.3001013 167.255572,65.2389395 166.371688,65.3298248 C160.306871,65.9648789 155.425876,63.4801084 153.637051,58.8403839 C152.133368,54.9397458 152.909114,49.0413454 159.119063,43.5287789 C150.114608,38.8524717 142.563751,40.6381683 135.243967,42.3672759 C129.361276,43.7574212 123.771126,45.0784023 117.911201,43.0806399 C114.438843,72.2628318 114.190126,92.498821 123.014731,103.025514 C127.497893,108.373458 134.405046,111.205193 144.132316,111.682484 C144.587633,111.704776 145.015631,111.909411 145.319555,112.250088 C145.624048,112.590765 145.780563,113.040048 145.753244,113.497332 L144.747563,130.446016 C144.70943,131.086215 144.318427,131.652105 143.735053,131.912185 C132.246276,137.02177 121.875871,135.461858 112.90784,127.274176 C111.45538,125.948622 109.501503,125.287846 107.408754,125.426174 C96.5585585,126.110386 90.447071,118.745245 89.2598329,103.504519 C89.1573867,102.194399 88.2023601,101.100345 86.9360107,100.844266 C79.5109347,99.3420858 74.5718876,94.5703205 74.046566,88.3912616 C73.4597767,81.4919793 78.4585842,74.940805 86.7846179,71.6935124 C97.649611,67.0023434 102.34108,56.6122645 103.512382,34.6523121 C103.51352,34.6323059 103.515227,34.6122997 103.516366,34.5922935 C104.302356,25.7118255 108.734294,17.7259206 116.33296,11.4965604 C123.29532,5.7879331 132.648662,1.89301105 142.667904,0.529731176 C162.583454,-2.18139522 189.691868,4.99568744 200.552307,34.1430113 C200.559706,34.1630175 200.566536,34.1830237 200.573366,34.2036016 L201.160155,35.9767228 C201.412287,36.7381018 202.035501,37.3251409 202.827183,37.5457808 C207.973399,38.9816546 210.725219,43.5453554 210.187946,49.7547095 C210.165749,50.0130753 210.324541,50.2457189 210.556752,50.2954486 C215.970467,51.4472343 220.181007,54.2469596 222.109273,57.9761159 C223.609542,60.8775871 223.668733,64.1340254 222.280586,67.3938934 C221.986907,68.0838216 222.24473,68.8469154 222.880466,69.1687295 C237.963398,76.8088128 245.387905,87.5864406 243.78576,99.515854 C242.756175,107.178802 238.030557,114.505645 230.118862,120.70471 C222.030731,127.042104 211.113377,131.737274 198.546638,134.281491 C196.177853,134.76164 193.869967,135 191.638915,135" id="Fill-19" fill="#000000"></path>
                <path d="M157.954242,138 C157.321395,138 156.673909,137.979955 156.008407,137.938146 C148.902958,137.491995 143.216909,134.549347 141.169729,130.257365 C140.762658,129.404009 141.112863,128.375972 141.952342,127.961894 C142.791821,127.549534 143.802461,127.904049 144.209533,128.757405 C145.702128,131.886761 150.414696,134.144433 156.216728,134.508111 C162.905535,134.929062 168.880981,132.737826 171.621815,128.900586 L171.621815,96.7181673 C171.621815,95.7691662 172.377965,95 173.310907,95 C174.24385,95 175,95.7691662 175,96.7181673 L175,129.432645 C175,129.764251 174.905411,130.088985 174.728056,130.366755 C172.31378,134.157605 166.691354,138 157.954242,138" id="Fill-21" fill="#000000"></path>
                <path d="M189.758496,184.149322 C225.252753,213.8386 205.33719,264.597432 148.481747,248.316931 C142.738791,251.484197 139.955837,255.610982 140,260.653439 C267.081852,303.659814 259.960311,144.42638 172.592654,130" id="Fill-23" fill="#DEEFF3"></path>
                <path d="M180.69941,270 C168.816076,270 155.560415,267.50068 141.148724,262.531775 C140.467079,262.296766 140.006813,261.651781 140,260.923313 C139.950338,255.16876 143.056428,250.490898 149.232463,247.020669 C149.62609,246.800528 150.091438,246.746207 150.523467,246.872574 C169.422046,252.386401 193.127157,251.609902 202.98645,232.899599 C206.603633,226.034619 207.45809,217.728141 205.392823,209.510863 C203.155309,200.609717 197.710616,192.272362 189.646643,185.401092 C188.931112,184.790985 188.839059,183.709148 189.441076,182.984111 C190.043657,182.259073 191.112717,182.167014 191.828812,182.776549 C200.437198,190.112117 206.263093,199.064153 208.676242,208.664605 C210.950464,217.713274 209.99153,226.892884 205.975638,234.514351 C201.782417,242.473749 194.675119,248.242597 185.422925,251.197066 C175.504899,254.363099 163.365736,254.074914 150.277239,250.367962 C146.050698,252.895299 143.802454,255.958982 143.440453,259.69338 C160.922091,265.577159 176.567746,267.702524 189.956687,266.004291 C202.1399,264.460442 212.232432,259.807167 219.952477,252.173693 C227.606446,244.606547 232.698174,234.194717 234.677036,222.062925 C236.579657,210.39829 235.565942,197.724435 231.744887,185.410812 C227.571432,171.962746 220.349491,159.923013 210.86067,150.593592 C200.49932,140.406478 187.594364,133.772502 173.540721,131.408127 C172.617365,131.25317 171.993323,130.369745 172.146934,129.435431 C172.299979,128.500545 173.170249,127.865852 174.095864,128.024239 C188.833412,130.502974 202.362973,137.456583 213.221298,148.132011 C223.112782,157.857115 230.635731,170.392595 234.977479,184.383295 C238.957227,197.205816 240.009344,210.429167 238.020318,222.622713 C235.92286,235.479542 230.49398,246.547222 222.319882,254.628413 C214.058248,262.796516 203.311743,267.769996 190.377421,269.408763 C187.263425,269.803302 184.03535,270 180.69941,270" id="Fill-25" fill="#000000"></path>
                <path d="M176.882773,150 C173.964364,150 170.677851,149.37132 167.429554,148.15955 C164.082347,146.911197 159.303754,144.506793 154.857296,140.026677 C145.780611,148.429708 135.941868,150.574648 130.007825,148.885599 C126.864058,147.99239 124.795376,146.081024 124.18337,143.504395 C123.627563,141.166968 124.068162,137.362809 129.324446,132.517418 C130.010073,131.884799 131.076728,131.929825 131.706718,132.61535 C132.33727,133.302001 132.293434,134.369687 131.607808,135.001743 C128.491016,137.875546 126.98039,140.689689 127.463138,142.722063 C127.891374,144.523115 129.817872,145.321206 130.928363,145.636953 C138.189824,147.700282 147.835805,142.314575 153.723764,136.435831 C154.050842,136.10939 154.496499,135.924782 154.959578,135.943356 C155.421534,135.956301 155.857637,136.157793 156.166731,136.501682 C161.732109,142.689419 172.078328,148.062181 179.762405,146.332046 C181.190981,146.011797 182.997776,145.281808 183.494013,143.629343 C184.167276,141.383657 182.368348,137.823203 178.558624,133.859201 C177.912899,133.187747 177.933131,132.118372 178.604146,131.472245 C179.275161,130.824992 180.342378,130.845817 180.988103,131.517834 C187.072759,137.84853 187.46559,142.126591 186.723202,144.600785 C185.970137,147.109875 183.760395,148.895167 180.500297,149.62797 C179.389806,149.876741 178.171976,150 176.882773,150" id="Fill-27" fill="#000000"></path>
                <path d="M127,152 C125.895333,152 125,151.245717 125,150.31508 L125,145.68492 C125,144.754283 125.895333,144 127,144 C128.104667,144 129,144.754283 129,145.68492 L129,150.31508 C129,151.245717 128.104667,152 127,152" id="Fill-29" fill="#000000"></path>
                <path d="M135,153 C133.895333,153 133,152.192423 133,151.196031 L133,147.803969 C133,146.807577 133.895333,146 135,146 C136.104667,146 137,146.807577 137,147.803969 L137,151.196031 C137,152.192423 136.104667,153 135,153" id="Fill-31" fill="#000000"></path>
                <path d="M140,152 C138.895333,152 138,151.192423 138,150.196031 L138,146.803969 C138,145.807577 138.895333,145 140,145 C141.104667,145 142,145.807577 142,146.803969 L142,150.196031 C142,151.192423 141.104667,152 140,152" id="Fill-33" fill="#000000"></path>
                <path d="M145,150 C143.895333,150 143,149.192423 143,148.196031 L143,144.803969 C143,143.807577 143.895333,143 145,143 C146.104667,143 147,143.807577 147,144.803969 L147,148.196031 C147,149.192423 146.104667,150 145,150" id="Fill-35" fill="#000000"></path>
                <path d="M172,153 C170.895333,153 170,152.192423 170,151.196031 L170,147.803969 C170,146.807577 170.895333,146 172,146 C173.104667,146 174,146.807577 174,147.803969 L174,151.196031 C174,152.192423 173.104667,153 172,153" id="Fill-37" fill="#000000"></path>
                <path d="M179,154 C177.895333,154 177,153.192423 177,152.196031 L177,148.803969 C177,147.807577 177.895333,147 179,147 C180.104667,147 181,147.807577 181,148.803969 L181,152.196031 C181,153.192423 180.104667,154 179,154" id="Fill-39" fill="#000000"></path>
                <path d="M184,152 C182.895333,152 182,151.192493 182,150.196186 L182,146.803814 C182,145.807507 182.895333,145 184,145 C185.104667,145 186,145.807507 186,146.803814 L186,150.196186 C186,151.192493 185.104667,152 184,152" id="Fill-41" fill="#000000"></path>
                <path d="M169.776105,181 C164.553279,181 159.60516,179.840197 154.986464,177.524899 C154.136958,177.0989 153.764664,176.002504 154.155008,175.076016 C154.545352,174.148912 155.549981,173.744458 156.399487,174.167995 C163.247431,177.601235 170.612637,178.231001 178.918731,176.091767 C179.826337,175.856605 180.740149,176.472827 180.954499,177.465801 C181.16885,178.458159 180.605333,179.452364 179.696034,179.686911 C176.294062,180.562919 172.98347,181 169.776105,181" id="Fill-43" fill="#000000"></path>
                <path d="M171.11781,191 C168.174638,191 165.192572,190.515016 162.191614,189.544444 C161.309273,189.259124 160.806984,188.251153 161.069797,187.293249 C161.33261,186.336552 162.259956,185.791849 163.142852,186.075963 C168.503015,187.809601 173.781501,187.81141 178.831622,186.084408 C179.708962,185.783404 180.645199,186.313026 180.922458,187.266105 C181.199162,188.219786 180.711874,189.235599 179.833979,189.535999 C176.98193,190.512 174.069317,191 171.11781,191" id="Fill-45" fill="#000000"></path>
                <path d="M167.92883,181 C167.873612,181 167.818393,180.997615 167.761891,180.993442 C166.701828,180.909374 165.916572,180.043065 166.007104,179.058705 L167.154489,166.63525 C167.245664,165.650293 168.17667,164.927673 169.23866,165.005778 C170.298081,165.089845 171.083979,165.95675 170.992804,166.940515 L169.846061,179.36397 C169.760023,180.296459 168.918265,181 167.92883,181" id="Fill-47" fill="#000000"></path>
                <path d="M163.064305,180 C162.984599,180 162.904207,179.995874 162.823127,179.987623 C161.692134,179.875053 160.882711,178.99748 161.01395,178.027376 L161.890711,171.564337 C162.022637,170.593643 163.049875,169.897007 164.176746,170.012524 C165.307739,170.125093 166.117849,171.002666 165.985922,171.972771 L165.109162,178.436399 C164.986856,179.336958 164.095666,180 163.064305,180" id="Fill-49" fill="#000000"></path>
                <path d="M173.035754,181 C172.960526,181 172.884621,180.99641 172.808716,180.988632 C171.692503,180.879741 170.888044,179.99186 171.012745,179.006456 L171.94665,171.596478 C172.069996,170.611672 173.073706,169.899692 174.191953,170.011574 C175.308165,170.120465 176.111947,171.008346 175.987246,171.993751 L175.054019,179.403729 C174.938128,180.320927 174.057763,181 173.035754,181" id="Fill-51" fill="#000000"></path>
                <path d="M69.7190728,177 C69.5150927,177 69.3076747,176.964151 69.1059864,176.88733 C68.2190166,176.55046 67.7749587,175.564316 68.1135887,174.683445 C77.0148006,151.544638 94.749613,136.195398 120.824119,129.061933 C121.739165,128.810987 122.685724,129.345314 122.937834,130.254638 C123.189945,131.163392 122.652491,132.103443 121.737446,132.35382 C96.4238544,139.279017 79.9341231,153.523185 71.3251299,175.901187 C71.063279,176.581757 70.4112301,177 69.7190728,177" id="Fill-53" fill="#000000"></path>
                <path d="M31.9817141,238.245308 L122,243 L101.837864,180.908381 L10,176 L31.9817141,238.245308 Z M124.290977,246 C124.260781,246 124.230585,246 124.200389,245.997726 L30.7756204,241.058034 C30.0839607,241.021081 29.4834587,240.571967 29.2532853,239.921035 L6.09692805,174.271849 C5.9072059,173.734617 5.99979907,173.138829 6.34134487,172.682892 C6.68375632,172.227524 7.23583067,171.972268 7.80100896,172.002399 L103.141801,177.103545 C103.848843,177.141066 104.458461,177.609509 104.67667,178.281476 L125.917004,243.769208 C126.090204,244.303597 125.988791,244.888583 125.64581,245.333719 C125.32163,245.754977 124.819693,246 124.290977,246 L124.290977,246 Z" id="Fill-55" fill="#000000"></path>
                <path d="M102.67876,180 C102.585982,180 102.492087,179.991605 102.397075,179.974816 C101.483834,179.809324 100.869045,178.880527 101.02386,177.900762 C101.733662,173.404281 102.63796,168.872422 105.872866,162.8961 C106.33787,162.036858 107.364567,161.744847 108.16491,162.243124 C108.965812,162.742 109.237996,163.842886 108.772992,164.701529 C105.819771,170.158587 104.985894,174.342672 104.330306,178.501572 C104.191699,179.379403 103.481897,180 102.67876,180" id="Fill-57" fill="#000000"></path>
                <path d="M189.207842,250 C188.72443,250 188.24281,249.815144 187.889662,249.45055 L182.474726,243.862774 C181.803685,243.169989 181.849696,242.090429 182.576906,241.45168 C183.305311,240.812931 184.439448,240.857296 185.110489,241.548943 L190.524827,247.136719 C191.196466,247.829504 191.150455,248.909064 190.422647,249.547813 C190.078462,249.850409 189.642256,250 189.207842,250" id="Fill-59" fill="#000000"></path>
                <path d="M197.238224,243 C196.777159,243 196.316682,242.824829 195.970736,242.476204 L185.494876,231.910972 C184.818843,231.229178 184.837638,230.141513 185.537752,229.482617 C186.237865,228.823149 187.353231,228.84204 188.029264,229.523834 L198.505124,240.089066 C199.181157,240.77086 199.162362,241.858525 198.462248,242.51742 C198.120414,242.839713 197.678732,243 197.238224,243" id="Fill-61" fill="#000000"></path>
                <path d="M202.170131,237 C201.689443,237 201.209364,236.816517 200.850068,236.45252 L193.510415,229.016406 C192.810122,228.306819 192.833302,227.179199 193.562266,226.497521 C194.291229,225.814655 195.44903,225.837813 196.149322,226.547994 L203.489585,233.984701 C204.189878,234.693694 204.166698,235.821908 203.437734,236.502992 C203.082708,236.835518 202.62642,237 202.170131,237" id="Fill-63" fill="#000000"></path>
                <path d="M206.305733,231 C205.848202,231 205.392365,230.802657 205.058536,230.413419 L200.447634,225.045207 C199.813868,224.307289 199.858492,223.158947 200.547048,222.479748 C201.23617,221.799944 202.307698,221.848977 202.941464,222.586289 L207.552366,227.954502 C208.186132,228.691814 208.141508,229.840762 207.452952,230.51996 C207.127031,230.841399 206.715817,231 206.305733,231" id="Fill-65" fill="#000000"></path>
                <path d="M33.4784009,243.395737 L124,248 L123.521025,245.604814 L33,241 L33.4784009,243.395737 Z M126.273154,252 C126.242645,252 126.212136,251.999442 126.181626,251.99777 L31.787192,247.152734 C30.993947,247.112034 30.3325257,246.55282 30.1822811,245.797908 L29.0309821,239.988326 C28.9308191,239.482636 29.0764584,238.961334 29.425302,238.573285 C29.7747213,238.185794 30.2910789,237.975043 30.8183739,238.002363 L125.212808,242.847399 C126.006053,242.888099 126.66805,243.447313 126.817719,244.202225 L127.969018,250.011807 C128.069181,250.51694 127.923542,251.038798 127.574698,251.42629 C127.246002,251.792037 126.770516,252 126.273154,252 L126.273154,252 Z" id="Fill-67" fill="#000000"></path>
                <path d="M131.029854,264 C118.378669,264 109.38531,259.206928 104.224525,249.687214 C103.758148,248.826627 104.041832,247.729649 104.857708,247.237116 C105.674151,246.744582 106.713571,247.044411 107.179948,247.904399 C112.864981,258.393022 123.614347,262.235139 140.047043,259.653978 C140.975258,259.506757 141.842765,260.184813 141.981203,261.165092 C142.119641,262.14537 141.478514,263.05922 140.548597,263.205244 C137.176158,263.73548 134.001164,264 131.029854,264" id="Fill-69" fill="#000000"></path>
                <path d="M148.277545,250 C148.008553,250 147.735547,249.936962 147.48032,249.802863 C143.546957,247.74324 139.981236,245.147794 136.533092,242.637736 C131.054029,238.649151 125.878944,234.881771 120.57596,234.433056 C119.628466,234.352825 118.926448,233.520724 119.006171,232.575154 C119.086467,231.628438 119.920399,230.923559 120.866173,231.006654 C127.127549,231.536747 132.680599,235.579201 138.559421,239.858907 C141.907196,242.295612 145.368532,244.815412 149.077639,246.757555 C149.919027,247.197675 150.244227,248.237229 149.803172,249.078499 C149.495752,249.664179 148.896973,250 148.277545,250" id="Fill-71" fill="#000000"></path>
                <path d="M126.360863,252 C125.576532,252 124.858156,251.517432 124.641871,250.784237 C124.383398,249.905391 124.943719,248.999065 125.893235,248.75943 C128.112535,248.200465 129.469071,247.164428 129.434014,246.05639 C129.394203,244.786214 127.493389,243.057104 123.415463,242.262351 C122.452281,242.07438 121.835511,241.200482 122.038724,240.308995 C122.241937,239.417509 123.18967,238.84865 124.150476,239.035522 C130.552279,240.283713 132.918344,243.430297 132.997966,245.960206 C133.065109,248.083395 131.47981,250.769946 126.830867,251.94174 C126.674001,251.981313 126.515946,252 126.360863,252" id="Fill-73" fill="#000000"></path>
                <path d="M143.319799,245 C142.617295,245 141.969868,244.53008 141.764678,243.808143 C141.515751,242.932683 142.010366,242.017055 142.870002,241.762836 L153.760165,238.546031 L153.760165,236.809419 L138.044808,241.159204 C137.181392,241.395814 136.291518,240.878572 136.05717,239.998161 C135.822282,239.118849 136.332556,238.211475 137.195971,237.972663 L154.955664,233.057765 C155.44218,232.922951 155.963793,233.02695 156.364452,233.340047 C156.765112,233.652042 157,234.136819 157,234.65076 L157,239.786312 C157,240.520905 156.523744,241.167457 155.83096,241.372153 L143.771216,244.934519 C143.621103,244.97854 143.468831,245 143.319799,245" id="Fill-75" fill="#000000"></path>
                <path d="M155.30671,237 C155.278466,237 155.250787,236.9993 155.222544,236.9972 L125.611949,235.198935 C124.677085,235.142236 123.956309,234.156656 124.002063,232.998878 C124.047818,231.839701 124.835814,230.926919 125.778021,231.004617 L155.388616,232.802882 C156.322915,232.859581 157.043691,233.844462 156.997937,235.002239 C156.953877,236.126417 156.204291,237 155.30671,237" id="Fill-77" fill="#000000"></path>
                <path d="M180.777755,284 C177.125737,284 173.407084,283.74359 169.639156,283.22678 C167.340546,282.91168 165.728439,280.759542 166.038094,278.420509 C166.347748,276.082046 168.462133,274.439879 170.760743,274.756119 C186.224425,276.874069 200.67403,274.125349 212.550089,266.799418 C223.530781,260.026764 232.078474,249.627896 237.269245,236.725893 C243.376101,221.547535 244.270907,204.091683 239.789037,187.572013 C234.827287,169.285391 223.625413,153.075123 207.394595,140.693348 C205.538348,139.277963 205.162059,136.599328 206.552984,134.710438 C207.944469,132.822688 210.576252,132.438072 212.432498,133.854597 C230.165113,147.381102 242.424179,165.170288 247.885408,185.297368 C252.859477,203.630714 251.84988,223.044972 245.042523,239.964642 C239.164689,254.572629 229.434933,266.379475 216.904289,274.108825 C206.302125,280.647861 193.976424,284 180.777755,284" id="Fill-79" fill="#2CB0C7"></path>
                <path d="M5.67361129,79 C4.90585534,79 4.21403744,78.4699789 4.040385,77.6902738 C3.83937254,76.7890707 4.40834949,75.8962276 5.31123048,75.6950313 L17.9409554,72.889988 L8.68321459,63.8684825 C8.02154856,63.223094 8.0087061,62.1647237 8.65473783,61.50373 C9.30132793,60.8427363 10.3616687,60.8310323 11.0238931,61.4758635 L22.4950045,72.6547946 C22.9349984,73.0839389 23.1041839,73.7181808 22.9361152,74.3089509 C22.767488,74.8991637 22.2889667,75.3500439 21.6887211,75.4832458 L6.0393423,78.9598722 C5.91650135,78.9871814 5.79421877,79 5.67361129,79" id="Fill-81" fill="#2CB0C7"></path>
                <path d="M245,46.4564625 L253.606776,58 L260,46 L245,46.4564625 Z M253.520545,63 C252.969172,63 252.448934,62.7438581 252.129658,62.3083089 L240.307403,46.187583 C239.949633,45.700157 239.900383,45.0646658 240.179466,44.5323878 C240.45855,44.0006503 241.020678,43.6569663 241.643379,43.6375125 L262.246846,43.0004001 C262.842374,42.9879713 263.409032,43.2657285 263.73227,43.74667 C264.054376,44.2276114 264.088342,44.8350027 263.82058,45.3462057 L255.039935,62.1035035 C254.771608,62.6147064 254.242312,62.953527 253.645652,62.9956769 C253.603761,62.9983788 253.56187,63 253.520545,63 L253.520545,63 Z" id="Fill-83" fill="#2CB0C7"></path>
                <path d="M68,28 C65.7945736,28 64,29.7944494 64,32.0002768 C64,34.2055506 65.7945736,36 68,36 C70.2054264,36 72,34.2055506 72,32.0002768 C72,29.7944494 70.2054264,28 68,28 M68.5,40 C64.3643376,40 61,36.6357896 61,32.5002836 C61,28.3647775 64.3643376,25 68.5,25 C72.6356624,25 76,28.3647775 76,32.5002836 C76,36.6357896 72.6356624,40 68.5,40" id="Fill-85" fill="#000000"></path>
                <path d="M221.695621,23 C221.552187,23 221.405929,22.9820688 221.260236,22.9451197 C220.356149,22.7141876 219.817424,21.8219749 220.056857,20.9514969 L224.66821,4.21299921 C224.907643,3.34306463 225.836013,2.82360337 226.739535,3.05507879 C227.644187,3.28601083 228.182912,4.17822356 227.942914,5.04815815 L223.332126,21.7871993 C223.131092,22.5174879 222.445545,23 221.695621,23" id="Fill-87" fill="#000000"></path>
                <g id="Group-91" transform="translate(245.000000, 134.000000)">
                    <mask id="mask-2" fill="white">
                        <use xlink:href="#path-1"></use>
                    </mask>
                    <g id="Clip-90"></g>
                    <path d="M2.59264202,11 C1.96870813,11 1.37660761,10.5648226 1.12194071,9.84265326 C0.785037637,8.88601332 1.17022131,7.78806579 1.98197203,7.39165421 L16.7977491,0.144325147 C17.6094998,-0.253962198 18.5406257,0.200598085 18.8780593,1.15723802 C19.2149624,2.11387795 18.8297787,3.21182548 18.018028,3.60886232 L3.2022509,10.8561914 C3.00276183,10.9537311 2.79584498,11 2.59264202,11" id="Fill-89" fill="#000000" mask="url(#mask-2)"></path>
                </g>
                <path d="M47.2626712,135 C46.5745692,135 45.9229575,134.610066 45.6501494,133.968402 L38.1262058,116.259569 C37.7676745,115.416631 38.1991863,114.457974 39.0894328,114.119044 C39.9791,113.780662 40.9915598,114.188146 41.3500911,115.031084 L48.8740346,132.739916 C49.2319867,133.582855 48.8010541,134.541512 47.9108077,134.880442 C47.6982375,134.96161 47.4787167,135 47.2626712,135" id="Fill-92" fill="#000000"></path>
            </g>
        </g>
    </g>
</svg>