<?xml version="1.0" encoding="UTF-8"?>
<svg width="599px" height="559px" viewBox="0 0 599 559" version="1.1" xmlns="http://www.w3.org/2000/svg" xmlns:xlink="http://www.w3.org/1999/xlink">
    <!-- Generator: Sketch 63.1 (92452) - https://sketch.com -->
    <title>Illustration/welcome</title>
    <desc>Created with Sketch.</desc>
    <defs>
        <path d="M597,520 L563,482" id="path-1"></path>
        <path d="M563,464 L595,490" id="path-3"></path>
        <polygon id="path-5" points="8.01397727 225 28 207.645858 2 201"></polygon>
        <path d="M324.141914,34.6546848 C324.430689,37.0095632 324.029815,39.2816862 321.829274,40.511456" id="path-7"></path>
    </defs>
    <g id="Landing-Page_02" stroke="none" stroke-width="1" fill="none" fill-rule="evenodd">
        <g id="SP1_LandingPage_web" transform="translate(-679.000000, -96.000000)">
            <g id="Illustration/WelcometoReDI" transform="translate(678.000000, 96.000000)">
                <g id="Illustration/welcome" transform="translate(1.000000, 1.000000)">
                    <g id="Group-180">
                        <path d="M309.214253,53.6462011 C301.982369,58.63615 297.109741,63.0050275 294.59637,66.7528338 C290.826312,72.3745431 287.773654,78.3347587 288.104615,83.8477298 C288.325257,87.523044 287.815775,89.8530976 286.576172,90.8378906 L257.956789,92.7553769 L273.617127,122.518728 L275.234513,129.652344 L334.697202,129.652344 L359.342171,137.492188 L360.401258,123.36046 C368.363953,119.028295 373.466855,114.179497 375.709961,108.814066 C379.074621,100.765919 380.340647,91.1202644 379.074621,83.8477298 C377.808594,76.5751953 369.519432,59.8830957 365.714177,56.7646484 C361.908921,53.6462011 350.002916,46.5467599 347.311393,46.5467599 C345.517044,46.5467599 340.216694,35.3925014 331.410342,13.0839844 L308.433508,16.9003906 L299.910126,23.609375 L309.214253,53.6462011 Z" id="Path-3" fill="#FFFFFF"></path>
                        <path d="M224.355397,328.909339 L234.414406,328.909339 C271.852855,328.909339 285.264462,316.071905 285.264462,280.352598 C285.264462,246.307263 272.41152,232.354456 239.442997,232.354456 L224.355397,232.354456 L224.355397,328.909339 Z M350.642843,355.140372 C402.610228,367.419207 419.373822,397.557392 421.609089,451.137265 C422.167754,462.298902 425.52096,468.438624 435.578751,468.438624 L441.167225,468.438624 L441.167225,535.412705 L336.113908,535.412705 C289.733778,535.412705 271.294191,482.39143 266.264991,429.370156 C264.029723,403.138515 259.000523,384.720566 229.943871,384.720566 L224.355397,384.720566 L224.355397,446.113524 C224.355397,462.856893 228.267268,468.438624 239.442997,468.438624 L253.412658,468.438624 L253.412658,535.412705 L52.8063692,535.412705 L52.8063692,468.438624 L66.77664,468.438624 C77.95176,468.438624 81.8636308,462.856893 81.8636308,446.113524 L81.8636308,254.121565 C81.8636308,237.378197 77.95176,231.796465 66.77664,231.796465 L52.8063692,231.796465 L52.8063692,164.822384 L283.029194,164.822384 C372.436246,164.822384 424.403022,193.844588 424.403022,269.748343 C424.403022,315.513914 397.581028,342.304155 350.642843,355.140372 L350.642843,355.140372 Z" id="Fill-1" fill="#FFB298"></path>
                        <path d="M237.825672,329.131562 L248.163709,329.131562 C286.639069,329.131562 300.422306,315.938766 300.422306,279.229437 C300.422306,244.240324 287.213574,229.901123 253.331204,229.901123 L237.825672,229.901123 L237.825672,329.131562 Z M367.61254,356.089747 C421.020146,368.708732 438.249192,399.682381 440.545992,454.746375 C441.119887,466.217736 444.566306,472.527837 454.902515,472.527837 L460.645734,472.527837 L460.645734,541.357221 L352.681512,541.357221 C305.015906,541.357221 286.065174,486.867038 280.897069,432.376247 C278.59966,405.418061 273.430946,386.489585 243.56889,386.489585 L237.825672,386.489585 L237.825672,449.583897 C237.825672,466.791548 241.845986,472.527837 253.331204,472.527837 L267.688337,472.527837 L267.688337,541.357221 L61.5228166,541.357221 L61.5228166,472.527837 L75.8799489,472.527837 C87.3651674,472.527837 91.384872,466.791548 91.384872,449.583897 L91.384872,252.270642 C91.384872,235.063601 87.3651674,229.327311 75.8799489,229.327311 L61.5228166,229.327311 L61.5228166,160.497319 L298.125506,160.497319 C390.00969,160.497319 443.417297,190.323345 443.417297,268.331278 C443.417297,315.364955 415.852041,342.89756 367.61254,356.089747 Z" id="Stroke-3" stroke="#000000" stroke-width="2.4" stroke-linecap="round" stroke-linejoin="round"></path>
                        <mask id="mask-2" fill="white">
                            <use xlink:href="#path-1"></use>
                        </mask>
                        <!-- <use id="Stroke-50" stroke="#DAF0F4" stroke-width="4" stroke-linecap="round" stroke-linejoin="round" xlink:href="#path-1"></use> -->
                        <mask id="mask-4" fill="white">
                            <use xlink:href="#path-3"></use>
                        </mask>
                        <use id="Stroke-66" stroke="#2CB0C7" stroke-width="4" stroke-linecap="round" stroke-linejoin="round" xlink:href="#path-3"></use>
                        <mask id="mask-6" fill="white">
                            <use xlink:href="#path-5"></use>
                        </mask>
                        <use id="Stroke-46-Copy" stroke="#2CB0C7" stroke-width="3" stroke-linecap="round" stroke-linejoin="round" transform="translate(15.000000, 213.000000) rotate(76.000000) translate(-15.000000, -213.000000) " xlink:href="#path-5"></use>
                        <polygon id="Fill-5" fill="#FFFFFF" points="267.017391 164.434164 274.934954 164.434164 274.934954 156.526154 267.017391 156.526154"></polygon>
                        <path d="M311.61814,47.4886504 C309.844669,46.3002583 308.44953,44.6293291 307.447346,42.7460348 L300.723266,30.1063618 L297.463881,30.650357 L306.217309,56.2838475 C306.775364,57.918267 308.387389,58.9308039 310.109684,58.7792885 C313.178989,58.5097248 316.172749,57.6006322 319.07878,55.9503919 C320.673137,55.0443417 321.373752,53.1129763 320.722484,51.4000609 L319.935358,49.3275245 C316.992164,49.8021512 314.135481,49.1754006 311.61814,47.4886504" id="Fill-7" fill="#000000"></path>
                        <path d="M311.61814,47.4886504 C309.844669,46.3002583 308.44953,44.6293291 307.447346,42.7460348 L300.723266,30.1063618 L297.463881,30.650357 L306.217309,56.2838475 C306.775364,57.918267 308.387389,58.9308039 310.109684,58.7792885 C313.178989,58.5097248 316.172749,57.6006322 319.07878,55.9503919 C320.673137,55.0443417 321.373752,53.1129763 320.722484,51.4000609 L319.935358,49.3275245 C316.992164,49.8021512 314.135481,49.1754006 311.61814,47.4886504 Z" id="Stroke-8" stroke="#000000" stroke-width="2.4" stroke-linecap="round" stroke-linejoin="round"></path>
                        <polygon id="Fill-9" fill="#FD4D00" points="262.757771 119.59807 251.454103 98.0646237 289.532854 95.0574379 299.014922 117.851687"></polygon>
                        <path d="M279.784065,214.812194 L272.837616,225.686012 C271.330988,228.043933 270.214268,230.638559 269.631234,233.374356 C268.209899,240.04286 273.071561,239.455662 279.092588,231.794701 C283.512558,226.959594 286.14809,221.208701 287.527998,214.812194" id="Fill-10" fill="#FFFFFF"></path>
                        <path d="M279.784065,214.812194 L272.837616,225.686012 C271.330988,228.043933 270.214268,230.638559 269.631234,233.374356 C268.209899,240.04286 273.071561,239.455662 279.092588,231.794701 C283.512558,226.959594 286.14809,221.208701 287.527998,214.812194" id="Stroke-11" stroke="#000000" stroke-width="2.4" stroke-linecap="round" stroke-linejoin="round"></path>
                        <path d="M272.139559,226.848422 C272.742089,227.016366 280.490286,230.159247 280.490286,230.159247" id="Stroke-13" stroke="#000000" stroke-width="2.4" stroke-linecap="round" stroke-linejoin="round"></path>
                        <path d="M269.631234,233.373686 C268.209899,240.041582 273.071561,239.454992 279.092588,231.793423 C279.580582,231.259772 280.042988,230.713343 280.487727,230.157786 C280.439598,230.138315 272.757807,227.022208 272.141874,226.848178 C270.987991,228.887247 270.120447,231.079657 269.631234,233.373686" id="Fill-14" fill="#000000"></path>
                        <path d="M254.557525,183.152892 L243.297722,194.477606 C236.56755,201.463137 239.867143,206.339621 245.932036,204.721023 C248.604731,204.007866 250.874116,202.238969 252.397193,199.931553 L261.783002,185.715876" id="Fill-15" fill="#FFFFFF"></path>
                        <path d="M254.557525,183.152892 L243.297722,194.477606 C236.56755,201.463137 239.867143,206.339621 245.932036,204.721023 C248.604731,204.007866 250.874116,202.238969 252.397193,199.931553 L261.783002,185.715876" id="Stroke-16" stroke="#000000" stroke-width="2.4" stroke-linecap="round" stroke-linejoin="round"></path>
                        <path d="M243.297478,194.477484 C244.797404,197.790743 247.256869,200.298354 250.675872,202.000925" id="Stroke-18" stroke="#000000" stroke-width="2.4" stroke-linecap="round" stroke-linejoin="round"></path>
                        <path d="M243.297478,194.477484 C236.567306,201.463015 239.8669,206.340108 245.931792,204.720901 C247.730241,204.241406 249.33922,203.275115 250.668561,201.996666 C247.252604,200.294703 244.796186,197.788309 243.297478,194.477484" id="Fill-19" fill="#000000"></path>
                        <path d="M365.714177,4.01777737 C365.714177,6.11708759 364.010767,7.81844161 361.908921,7.81844161 C359.807684,7.81844161 358.103666,6.11708759 358.103666,4.01777737 C358.103666,1.91846715 359.807684,0.21711313 361.908921,0.21711313 C364.010767,0.21711313 365.714177,1.91846715 365.714177,4.01777737 Z" id="Stroke-20" stroke="#2CB0C7" stroke-width="2.4" stroke-linecap="round" stroke-linejoin="round"></path>
                        <path d="M300.723388,29.8339383 L307.447468,42.4730028 C308.449652,44.3569055 309.844791,46.0284433 311.618262,47.2162269 C317.444335,51.1203354 325.090182,49.3599573 331.410342,41.3570217" id="Stroke-21" stroke="#000000" stroke-width="2.4" stroke-linecap="round" stroke-linejoin="round"></path>
                        <path d="M320.450828,20.2210447 C326.82521,27.6878956 330.88817,37.7256409 333.550508,49.3229608 C334.207868,52.1847161 337.372822,53.6749221 339.986422,52.3301466 L344.480718,50.0172544 C346.463154,48.9980241 347.674305,46.3881859 347.213727,44.2097713 C345.294041,35.1291897 341.118373,25.2788611 335.704139,15.0050194 C330.014533,4.20787143 316.78265,-0.535961167 305.806748,4.82001812 C297.597973,8.82574542 292.090527,17.7067404 295.749567,30.5393065 C304.176447,29.969146 312.388878,26.2056 320.450828,20.2210447" id="Fill-22" fill="#000000"></path>
                        <path d="M320.450828,20.2210447 C326.82521,27.6878956 330.88817,37.7256409 333.550508,49.3229608 C334.207868,52.1847161 337.372822,53.6749221 339.986422,52.3301466 L344.480718,50.0172544 C346.463154,48.9980241 347.674305,46.3881859 347.213727,44.2097713 C345.294041,35.1291897 341.118373,25.2788611 335.704139,15.0050194 C330.014533,4.20787143 316.78265,-0.535961167 305.806748,4.82001812 C297.597973,8.82574542 292.090527,17.7067404 295.749567,30.5393065 C304.176447,29.969146 312.388878,26.2056 320.450828,20.2210447 Z" id="Stroke-23" stroke="#000000" stroke-width="2.4" stroke-linecap="round" stroke-linejoin="round"></path>
                        <line x1="317.025063" y1="29.6963574" x2="318.997143" y2="28.5207437" id="Stroke-24" stroke="#000000" stroke-width="2.4" stroke-linecap="round" stroke-linejoin="round"></line>
                        <line x1="306.982929" y1="34.9313069" x2="308.433508" y2="34.067243" id="Stroke-25" stroke="#000000" stroke-width="2.4" stroke-linecap="round" stroke-linejoin="round"></line>
                        <mask id="mask-8" fill="white">
                            <use xlink:href="#path-7"></use>
                        </mask>
                        <use id="Stroke-26" stroke="#000000" stroke-width="2.4" stroke-linecap="round" stroke-linejoin="round" xlink:href="#path-7"></use>
                        <polyline id="Stroke-27" stroke="#000000" stroke-width="2.4" stroke-linecap="round" stroke-linejoin="round" points="310.589514 29.9180324 315.027761 39.3917022 318.011773 36.7100616"></polyline>
                        <path d="M320.876193,53.5029004 C325.550212,55.4902474 331.928249,54.3876532 334.697202,50.7129475" id="Stroke-28" stroke="#000000" stroke-width="2.4" stroke-linecap="round" stroke-linejoin="round"></path>
                        <path d="M328.648089,54.1999322 C330.100495,64.8778151 320.96508,67.3975958 310.108588,53.6462011" id="Stroke-29" stroke="#000000" stroke-width="2.4" stroke-linecap="round" stroke-linejoin="round"></path>
                        <path d="M328.648089,55.1328779 C334.853714,64.9899 345.137529,60.7499018 344.599578,41.830553" id="Stroke-30" stroke="#000000" stroke-width="2.4" stroke-linecap="round" stroke-linejoin="round"></path>
                        <path d="M347.311143,46.5467599 C400.395857,61.7920116 382.460712,155.041546 326.621057,114.642298 C325.476312,111.719694 329.674521,106.765321 333.108755,107.781509 C351.495949,120.331125 372.15801,99.3970468 351.551998,78.9430718" id="Stroke-31" stroke="#000000" stroke-width="2.4" stroke-linecap="round" stroke-linejoin="round"></path>
                        <path d="M305.911962,55.3883852 C293.777913,62.5540308 286.681593,75.5125555 288.810855,89.360701" id="Stroke-32" stroke="#000000" stroke-width="2.4" stroke-linecap="round" stroke-linejoin="round"></path>
                        <polygon id="Stroke-33" stroke="#000000" stroke-width="2.4" stroke-linecap="round" stroke-linejoin="round" points="273.580512 122.518728 257.956789 92.7553769 310.589454 88.5981342 323.695835 120.104825"></polygon>
                        <path d="M299.910126,78.5617276 C301.427719,82.6739416 302.856975,86.5470168 303.811639,89.1337321" id="Stroke-34" stroke="#000000" stroke-width="2.4" stroke-linecap="round" stroke-linejoin="round"></path>
                        <path d="M332.219583,107.650074 C326.428844,104.345334 321.991207,102.978653 317.384814,104.933749" id="Stroke-35" stroke="#000000" stroke-width="2.4" stroke-linecap="round" stroke-linejoin="round"></path>
                        <path d="M322.539089,117.32364 C322.540916,117.327894 326.620935,114.641994 326.620935,114.641994" id="Stroke-36" stroke="#000000" stroke-width="2.4" stroke-linecap="round" stroke-linejoin="round"></path>
                        <line x1="351.183048" y1="100.765919" x2="357.08954" y2="105.558431" id="Stroke-37" stroke="#000000" stroke-width="2.4" stroke-linecap="round" stroke-linejoin="round"></line>
                        <line x1="355.613679" y1="98.6183548" x2="359.342171" y2="101.291477" id="Stroke-38" stroke="#000000" stroke-width="2.4" stroke-linecap="round" stroke-linejoin="round"></line>
                        <line x1="349.879538" y1="105.840956" x2="353.667735" y2="108.814066" id="Stroke-39" stroke="#000000" stroke-width="2.4" stroke-linecap="round" stroke-linejoin="round"></line>
                        <path d="M288.004538,143.537995 C287.82055,143.453414 287.636562,143.370051 287.451966,143.287295 C283.922082,141.715551 279.659295,140.984139 276.103215,142.890556 C273.671775,144.194562 271.898304,146.497719 270.715178,148.940829 C269.359639,151.737475 268.846667,154.516475 268.651104,157.501755 C267.865196,169.558489 270.858956,175.773056 262.382729,185.928849 L253.823646,182.892456 C253.227818,157.117794 261.721104,137.488331 276.889122,126.941883 C284.01103,120.04215 308.817689,116.561555 330.470359,120.87153 C349.304119,124.621081 363.181178,131.254901 359.645202,147.559544 C356.386427,162.581477 338.935012,161.349273 320.339461,156.556153 C312.57055,154.552985 304.948464,151.920024 297.687042,148.501495 C294.40999,146.958958 291.293166,145.056801 288.004538,143.537995" id="Fill-40" fill="#000000"></path>
                        <path d="M288.004538,143.537995 C287.82055,143.453414 287.636562,143.370051 287.451966,143.287295 C283.922082,141.715551 279.659295,140.984139 276.103215,142.890556 C273.671775,144.194562 271.898304,146.497719 270.715178,148.940829 C269.359639,151.737475 268.846667,154.516475 268.651104,157.501755 C267.865196,169.558489 270.858956,175.773056 262.382729,185.928849 L253.823646,182.892456 C253.227818,157.117794 261.721104,137.488331 276.889122,126.941883 C284.01103,120.04215 308.817689,116.561555 330.470359,120.87153 C349.304119,124.621081 363.181178,131.254901 359.645202,147.559544 C356.386427,162.581477 338.935012,161.349273 320.339461,156.556153 C312.57055,154.552985 304.948464,151.920024 297.687042,148.501495 C294.40999,146.958958 291.293166,145.056801 288.004538,143.537995 Z" id="Stroke-41" stroke="#000000" stroke-width="2.4" stroke-linecap="round" stroke-linejoin="round"></path>
                        <path d="M287.527998,214.812194 C291.501401,209.520107 300.060484,171.55971 294.864354,161.179381 L325.126674,161.179381 C313.155899,158.930381 302.215333,155.625641 293.029961,150.49298 C280.645518,142.401204 272.10593,142.71032 272.855284,163.316418 C272.798625,169.762822 272.172336,175.884897 270.715056,181.533563 C271.620373,194.543202 274.30769,205.939109 279.784065,214.812194 L287.527998,214.812194 Z" id="Fill-42" fill="#000000"></path>
                        <path d="M287.527998,214.812194 C291.501401,209.520107 300.060484,171.55971 294.864354,161.179381 L325.126674,161.179381 C313.155899,158.930381 302.215333,155.625641 293.029961,150.49298 C280.645518,142.401204 272.10593,142.71032 272.855284,163.316418 C272.798625,169.762822 272.172336,175.884897 270.715056,181.533563 C271.620373,194.543202 274.30769,205.939109 279.784065,214.812194 L287.527998,214.812194 Z" id="Stroke-43" stroke="#000000" stroke-width="2.4" stroke-linecap="round" stroke-linejoin="round"></path>
                        <polyline id="Stroke-44" stroke="#000000" stroke-width="2.4" stroke-linecap="round" stroke-linejoin="round" points="273.580512 122.518728 273.580512 126.982044 276.889244 126.982044"></polyline>
                        <line x1="360.401258" y1="123.36046" x2="359.815787" y2="142.112472" id="Stroke-45" stroke="#000000" stroke-width="2.4" stroke-linecap="round" stroke-linejoin="round"></line>
                        <line x1="275.907347" y1="15.6023188" x2="281.575021" y2="25.5427048" id="Stroke-46" stroke="#000000" stroke-width="2.4" stroke-linecap="round" stroke-linejoin="round"></line>
                        <line x1="385.226193" y1="28.1992146" x2="383.152981" y2="40.848015" id="Stroke-47" stroke="#000000" stroke-width="2.4" stroke-linecap="round" stroke-linejoin="round"></line>
                        <polyline id="Stroke-50" stroke="#FD4D00" stroke-width="2.4" stroke-linecap="round" stroke-linejoin="round" points="277.373948 66.7528338 269.860305 61.9840528 274.634238 54.4794752"></polyline>
                        <path d="M363.127322,46.5467599 C391.717913,65.6565679 393.295211,113.571955 366.570694,126.547517" id="Stroke-51" stroke="#2CB0C7" stroke-width="4.8" stroke-linecap="round" stroke-linejoin="round"></path>
                        <path d="M156.248271,365.28716 C154.385852,375.093069 154.137895,385.33466 150.7524,389.693923 C130.530812,391.09894 111.926123,390.587804 97.3472308,385.305452 C95.8917785,380.871344 95.3964738,375.972345 95.4994338,370.783702 L95.5286769,370.781268 C74.0076,368.071028 63.2845292,342.18988 81.6004431,315.740397 C90.204,304.21853 101.145175,301.205868 114.468443,293.431118 L114.468443,282.959515 L114.473926,282.960124 C110.414012,280.269356 107.456197,275.478669 107.456197,268.910566 L107.456197,253.074465 C107.929569,241.909177 130.530203,240.538237 137.172037,249.940104 C138.193717,251.38589 138.639065,253.160872 138.512954,254.926118 L137.515643,268.910566 C136.929563,277.790953 132.558332,282.879194 127.321994,284.696162 L127.87152,284.770399 L128.480751,293.431118 C141.666332,301.747429 155.689606,307.92001 166.476646,319.515504 C173.756345,327.341367 180.065538,338.139124 177.976486,349.245996 C176.279778,358.26512 168.774055,363.919262 159.926806,365.037068 L156.248271,365.28716 Z" id="Fill-52" fill="#FFFFFF"></path>
                        <path d="M95.3891631,370.783824 C95.2862031,375.972467 95.7815077,380.871466 97.23696,385.305574 C111.815243,390.587925 130.420542,391.099062 150.642129,389.694045 C154.027625,385.334782 154.276191,375.09319 156.138,365.287282" id="Stroke-53" stroke="#000000" stroke-width="2.4" stroke-linecap="round" stroke-linejoin="round"></path>
                        <path d="M116.572422,514.507652 C116.572422,517.043253 116.320809,519.437684 115.874243,521.555249 C114.800778,526.645316 112.600237,530.13443 110.060963,530.13443 C107.477825,530.13443 105.246212,526.525442 104.193462,521.294205 C103.780403,519.241748 103.548895,516.939809 103.548895,514.507652 C103.548895,505.876749 107.25972,497.703434 110.856009,497.703434 C114.452908,497.703434 116.572422,505.876749 116.572422,514.507652" id="Fill-54" fill="#FFFFFF"></path>
                        <path d="M116.572422,514.507652 C116.572422,517.043253 116.320809,519.437684 115.874243,521.555249 C114.800778,526.645316 112.600237,530.13443 110.060963,530.13443 C107.477825,530.13443 105.246212,526.525442 104.193462,521.294205 C103.780403,519.241748 103.548895,516.939809 103.548895,514.507652 C103.548895,505.876749 107.25972,497.703434 110.856009,497.703434 C114.452908,497.703434 116.572422,505.876749 116.572422,514.507652 Z" id="Stroke-55" stroke="#000000" stroke-width="2.4" stroke-linecap="round" stroke-linejoin="round"></path>
                        <path d="M104.281922,521.712119 C108.145663,520.437321 112.010014,520.38499 115.874365,521.555127" id="Stroke-56" stroke="#000000" stroke-width="2.4" stroke-linecap="round" stroke-linejoin="round"></path>
                        <line x1="109.383011" y1="520.715282" x2="109.383011" y2="504.825025" id="Stroke-57" stroke="#000000" stroke-width="2.4" stroke-linecap="round" stroke-linejoin="round"></line>
                        <polyline id="Stroke-58" stroke="#000000" stroke-width="2.4" stroke-linecap="round" stroke-linejoin="round" points="121.159198 254.506438 120.116804 269.951885 122.88454 269.91355"></polyline>
                        <path d="M111.341871,250.948503 C113.195151,249.578171 115.048431,249.346334 116.90232,250.254209" id="Stroke-59" stroke="#000000" stroke-width="2.4" stroke-linecap="round" stroke-linejoin="round"></path>
                        <path d="M132.433562,251.765834 C130.746602,250.194698 128.931094,249.756582 126.987039,250.450267" id="Stroke-60" stroke="#000000" stroke-width="2.4" stroke-linecap="round" stroke-linejoin="round"></path>
                        <line x1="113.700873" y1="257.834788" x2="113.700873" y2="259.328037" id="Stroke-61" stroke="#000000" stroke-width="2.4" stroke-linecap="round" stroke-linejoin="round"></line>
                        <line x1="128.63385" y1="258.185343" x2="128.63385" y2="259.678591" id="Stroke-62" stroke="#000000" stroke-width="2.4" stroke-linecap="round" stroke-linejoin="round"></line>
                        <path d="M143.128364,248.518354 C146.081915,248.237837 148.392118,245.755175 148.392118,242.732776 C148.392118,240.549494 147.185841,238.650379 145.40445,237.656097 C145.536044,237.171734 145.612198,236.664249 145.612198,236.1379 C145.612198,232.926868 143.005909,230.324332 139.790998,230.324332 C139.33042,230.324332 138.883854,230.383356 138.453737,230.484366 C138.143638,227.565412 135.671989,225.291464 132.667263,225.291464 C130.90354,225.291464 129.325632,226.078249 128.25826,227.315929 C127.237798,225.635872 125.395484,224.510155 123.2845,224.510155 C121.187527,224.510155 119.35557,225.621268 118.330235,227.282462 C117.29698,226.34477 115.928647,225.768524 114.422629,225.768524 C111.207718,225.768524 108.602038,228.371669 108.602038,231.582092 C108.602038,231.753688 108.613004,231.922241 108.627626,232.089578 C107.902641,231.766467 107.101503,231.582092 106.2565,231.582092 C103.041589,231.582092 100.4353,234.185237 100.4353,237.396269 C100.4353,239.746888 101.835312,241.767702 103.845774,242.683488 L104.913146,259.662344 L104.913146,265.070654 L107.386014,264.811435 L107.386014,253.05834 C107.859386,241.893052 130.460629,240.522111 137.101854,249.924587 C138.123534,251.370373 138.568881,253.145355 138.44277,254.909993 L137.63554,266.22497 L139.63869,266.616233 L140.833392,261.258428 L143.128364,248.518354" id="Fill-63" fill="#000000"></path>
                        <path d="M143.128364,248.518354 C146.081915,248.237837 148.392118,245.755175 148.392118,242.732776 C148.392118,240.549494 147.185841,238.650379 145.40445,237.656097 C145.536044,237.171734 145.612198,236.664249 145.612198,236.1379 C145.612198,232.926868 143.005909,230.324332 139.790998,230.324332 C139.33042,230.324332 138.883854,230.383356 138.453737,230.484366 C138.143638,227.565412 135.671989,225.291464 132.667263,225.291464 C130.90354,225.291464 129.325632,226.078249 128.25826,227.315929 C127.237798,225.635872 125.395484,224.510155 123.2845,224.510155 C121.187527,224.510155 119.35557,225.621268 118.330235,227.282462 C117.29698,226.34477 115.928647,225.768524 114.422629,225.768524 C111.207718,225.768524 108.602038,228.371669 108.602038,231.582092 C108.602038,231.753688 108.613004,231.922241 108.627626,232.089578 C107.902641,231.766467 107.101503,231.582092 106.2565,231.582092 C103.041589,231.582092 100.4353,234.185237 100.4353,237.396269 C100.4353,239.746888 101.835312,241.767702 103.845774,242.683488 L104.913146,259.662344 L104.913146,265.070654 L107.386014,264.811435 L107.386014,253.05834 C107.859386,241.893052 130.460629,240.522111 137.101854,249.924587 C138.123534,251.370373 138.568881,253.145355 138.44277,254.909993 L137.63554,266.22497 L139.63869,266.616233 L140.833392,261.258428 L143.128364,248.518354" id="Stroke-64" stroke="#000000" stroke-width="2.4" stroke-linecap="round" stroke-linejoin="round"></path>
                        <path d="M137.40525,268.910688 L138.402561,254.926239 C138.528672,253.160993 138.083324,251.386011 137.062254,249.940226 C130.42042,240.538358 107.819177,241.909299 107.345804,253.074587 L107.345804,268.910688 C107.345804,289.302596 135.841964,292.600035 137.40525,268.910688 Z" id="Stroke-66" stroke="#000000" stroke-width="2.4" stroke-linecap="round" stroke-linejoin="round"></path>
                        <path d="M106.29549,268.106074 C104.055349,268.106074 102.239841,266.292757 102.239841,264.055318 C102.239841,261.817879 104.055349,260.003954 106.29549,260.003954" id="Fill-67" fill="#FFFFFF"></path>
                        <path d="M106.29549,268.106074 C104.055349,268.106074 102.239841,266.292757 102.239841,264.055318 C102.239841,261.817879 104.055349,260.003954 106.29549,260.003954" id="Stroke-68" stroke="#000000" stroke-width="2.4" stroke-linecap="round" stroke-linejoin="round"></path>
                        <path d="M138.214674,268.968921 C140.454816,268.968921 142.270324,267.155604 142.270324,264.918165 C142.270324,262.680726 140.454816,260.866801 138.214674,260.866801" id="Fill-70" fill="#FFFFFF"></path>
                        <path d="M138.214674,268.968921 C140.454816,268.968921 142.270324,267.155604 142.270324,264.918165 C142.270324,262.680726 140.454816,260.866801 138.214674,260.866801" id="Stroke-71" stroke="#000000" stroke-width="2.4" stroke-linecap="round" stroke-linejoin="round"></path>
                        <path d="M127.761371,284.770216 L127.761371,293.430936 C123.186657,296.343805 118.698454,296.663873 114.358294,293.430936 L114.358294,282.959333" id="Stroke-73" stroke="#000000" stroke-width="2.4" stroke-linecap="round" stroke-linejoin="round"></path>
                        <path d="M114.614415,274.012194 C115.175516,275.402607 116.33671,276.40845 118.097996,277.030333" id="Stroke-74" stroke="#000000" stroke-width="2.4" stroke-linecap="round" stroke-linejoin="round"></path>
                        <path d="M126.987039,264.084891 C126.987039,264.544914 126.61358,264.917922 126.153002,264.917922 C125.692423,264.917922 125.319574,264.544914 125.319574,264.084891 C125.319574,263.624868 125.692423,263.25186 126.153002,263.25186 C126.61358,263.25186 126.987039,263.624868 126.987039,264.084891" id="Fill-75" fill="#000000"></path>
                        <path d="M130.544276,265.750831 C130.544276,266.210853 130.170818,266.583861 129.710239,266.583861 C129.249661,266.583861 128.876812,266.210853 128.876812,265.750831 C128.876812,265.290808 129.249661,264.9178 129.710239,264.9178 C130.170818,264.9178 130.544276,265.290808 130.544276,265.750831" id="Fill-76" fill="#000000"></path>
                        <path d="M126.987039,267.684813 C126.987039,268.144835 126.61358,268.517843 126.153002,268.517843 C125.692423,268.517843 125.319574,268.144835 125.319574,267.684813 C125.319574,267.22479 125.692423,266.851782 126.153002,266.851782 C126.61358,266.851782 126.987039,267.22479 126.987039,267.684813" id="Fill-77" fill="#000000"></path>
                        <path d="M117.189999,267.684813 C117.189999,268.144835 116.81654,268.517843 116.355962,268.517843 C115.895383,268.517843 115.521925,268.144835 115.521925,267.684813 C115.521925,267.22479 115.895383,266.851782 116.355962,266.851782 C116.81654,266.851782 117.189999,267.22479 117.189999,267.684813" id="Fill-78" fill="#000000"></path>
                        <path d="M117.736113,264.084891 C117.736113,264.544914 117.362655,264.917922 116.902076,264.917922 C116.441498,264.917922 116.068039,264.544914 116.068039,264.084891 C116.068039,263.624868 116.441498,263.25186 116.902076,263.25186 C117.362655,263.25186 117.736113,263.624868 117.736113,264.084891" id="Fill-79" fill="#000000"></path>
                        <path d="M113.480454,266.019116 C113.480454,266.479139 113.106995,266.852147 112.646417,266.852147 C112.185838,266.852147 111.81238,266.479139 111.81238,266.019116 C111.81238,265.559094 112.185838,265.186086 112.646417,265.186086 C113.106995,265.186086 113.480454,265.559094 113.480454,266.019116" id="Fill-80" fill="#000000"></path>
                        <line x1="120.466076" y1="295.729954" x2="120.466076" y2="309.374862" id="Stroke-81" stroke="#000000" stroke-width="2.4" stroke-linecap="round" stroke-linejoin="round"></line>
                        <path d="M126.153246,303.3855 C126.153246,303.845522 125.779787,304.21853 125.319209,304.21853 C124.85863,304.21853 124.485172,303.845522 124.485172,303.3855 C124.485172,302.925477 124.85863,302.552469 125.319209,302.552469 C125.779787,302.552469 126.153246,302.925477 126.153246,303.3855" id="Fill-82" fill="#000000"></path>
                        <path d="M114.358294,293.430875 C101.034417,301.205625 90.0938511,304.218287 81.4902942,315.740762 C55.0411495,353.933604 89.137968,390.95996 128.876873,358.707861" id="Stroke-83" stroke="#000000" stroke-width="2.4" stroke-linecap="round" stroke-linejoin="round"></path>
                        <path d="M127.761371,293.430875 C140.947562,301.747186 155.579457,307.919766 166.366497,319.515261 C173.646196,327.341732 179.95539,338.139489 177.866337,349.245753 C176.16963,358.265485 168.663906,363.919018 159.816657,365.036825 C152.581433,365.951394 145.180497,364.29872 138.423519,361.785024 C131.04939,359.040708 122.150356,356.539182 112.212583,355.90513 C111.548522,355.862535 110.970971,355.404946 110.822319,354.756898 C109.996811,351.161297 111.141556,348.177234 114.061599,345.745077 C115.113131,344.869452 116.458922,344.428292 117.827863,344.432552 C124.249156,344.451415 132.613894,345.612425 138.423519,346.295157 C151.064448,347.780495 156.69435,339.823197 148.302805,333.457723" id="Stroke-84" stroke="#000000" stroke-width="2.4" stroke-linecap="round" stroke-linejoin="round"></path>
                        <path d="M91.793544,335.049243 C88.9368609,349.372016 95.1924425,355.701588 110.560898,354.039786" id="Stroke-85" stroke="#000000" stroke-width="2.4" stroke-linecap="round" stroke-linejoin="round"></path>
                        <path d="M103.109274,354.15534 C104.385613,348.835262 107.72237,346.320957 113.120154,346.611818" id="Stroke-86" stroke="#000000" stroke-width="2.4" stroke-linecap="round" stroke-linejoin="round"></path>
                        <path d="M124.961529,534.425481 L124.210957,543.738508 L142.562815,553.867528 C144.232717,554.814347 145.999486,555.591396 147.851548,556.098273 C157.44084,558.720281 159.739468,552.376105 149.605523,545.352847 L138.31404,537.735698 L124.961529,534.425481 Z" id="Fill-87" fill="#FFFFFF"></path>
                        <path d="M124.961529,534.425481 L124.210957,543.738508 L142.562815,553.867528 C144.232717,554.814347 145.999486,555.591396 147.851548,556.098273 C157.44084,558.720281 159.739468,552.376105 149.605523,545.352847 L138.31404,537.735698 L124.961529,534.425481 Z" id="Stroke-88" stroke="#000000" stroke-width="2.4" stroke-linecap="round" stroke-linejoin="round"></path>
                        <path d="M141.928362,553.508089 C144.880086,547.147484 146.783932,545.09016 148.331378,544.493225" id="Fill-89" fill="#FFFFFF"></path>
                        <path d="M141.928362,553.508089 C144.880086,547.147484 146.783932,545.09016 148.331378,544.493225" id="Stroke-90" stroke="#000000" stroke-width="2.4" stroke-linecap="round" stroke-linejoin="round"></path>
                        <g id="Group-94" transform="translate(132.027692, 537.838777)">
                            <path d="M13.8585988,8.70726944 C13.0123772,8.31296422 0.570666462,0.135390297 0.570666462,0.135390297" id="Fill-92" fill="#FFFFFF"></path>
                            <path d="M13.8585988,8.70726944 C13.0123772,8.31296422 0.570666462,0.135390297 0.570666462,0.135390297" id="Stroke-93" stroke="#000000" stroke-width="2.4" stroke-linecap="round" stroke-linejoin="round"></path>
                        </g>
                        <path d="M124.927047,541.690555 L142.868893,551.554271 C146.984856,554.055188 151.158696,555.312949 155.376401,555.624498" id="Stroke-95" stroke="#000000" stroke-width="2.4" stroke-linecap="round" stroke-linejoin="round"></path>
                        <path d="M150.642312,389.694106 C130.420724,391.099123 111.815426,390.587986 97.2365335,385.305635 C58.8227058,437.268126 62.2739982,467.829824 104.376109,508.502894 C109.075715,507.631529 112.415518,504.808108 114.143297,499.668754 C92.4863612,471.69864 97.4540289,446.904265 117.143149,427.160404 L115.901537,420.616033 C115.722423,419.669822 116.335309,418.754644 117.279617,418.559317 C118.250121,418.357297 119.20113,418.995 119.382681,419.967985 C126.906681,460.254661 129.472761,498.092141 124.608663,533.866213 C127.163167,538.217566 131.702546,539.666394 138.176841,538.080654 C156.704158,491.759526 162.322484,438.020227 150.642312,389.694106" id="Fill-96" fill="#000000"></path>
                        <path d="M150.642312,389.694106 C130.420724,391.099123 111.815426,390.587986 97.2365335,385.305635 C58.8227058,437.268126 62.2739982,467.829824 104.376109,508.502894 C109.075715,507.631529 112.415518,504.808108 114.143297,499.668754 C92.4863612,471.69864 97.4540289,446.904265 117.143149,427.160404 L115.901537,420.616033 C115.722423,419.669822 116.335309,418.754644 117.279617,418.559317 C118.250121,418.357297 119.20113,418.995 119.382681,419.967985 C126.906681,460.254661 129.472761,498.092141 124.608663,533.866213 C127.163167,538.217566 131.702546,539.666394 138.176841,538.080654 C156.704158,491.759526 162.322484,438.020227 150.642312,389.694106 Z" id="Stroke-97" stroke="#000000" stroke-width="2.4" stroke-linecap="round" stroke-linejoin="round"></path>
                        <path d="M94.6817243,394.794152 C98.9579151,395.498181 102.996506,394.340823 106.833441,391.602592" id="Stroke-98" stroke="#FFFFFF" stroke-width="2.4" stroke-linecap="round" stroke-linejoin="round"></path>
                        <path d="M137.004255,394.480107 C139.955369,398.123171 144.489873,399.522103 150.099061,399.39797" id="Stroke-99" stroke="#FFFFFF" stroke-width="2.4" stroke-linecap="round" stroke-linejoin="round"></path>
                        <line x1="101.401418" y1="390.65918" x2="101.868698" y2="394.201234" id="Stroke-100" stroke="#FFFFFF" stroke-width="2.4" stroke-linecap="round" stroke-linejoin="round"></line>
                        <line x1="98.087568" y1="391.602774" x2="98.5603311" y2="394.923336" id="Stroke-101" stroke="#FFFFFF" stroke-width="2.4" stroke-linecap="round" stroke-linejoin="round"></line>
                        <path d="M76.2269668,431.01565 C72.521016,441.664934 72.6733237,452.313609 76.6838898,462.962892" id="Stroke-102" stroke="#FFFFFF" stroke-width="2.4" stroke-linecap="round" stroke-linejoin="round"></path>
                        <path d="M73.2917538,257.664531 C73.2917538,260.750213 70.7872062,263.252347 67.6971877,263.252347 C64.6077785,263.252347 62.1032308,260.750213 62.1032308,257.664531 C62.1032308,254.578849 64.6077785,252.076715 67.6971877,252.076715 C70.7872062,252.076715 73.2917538,254.578849 73.2917538,257.664531 Z" id="Stroke-103" stroke="#FD4D00" stroke-width="2.4" stroke-linecap="round" stroke-linejoin="round"></path>
                        <polygon id="Stroke-104" stroke="#2BB0C7" stroke-width="2.4" stroke-linecap="round" stroke-linejoin="round" points="149.420012 208.527893 158.064997 207.491625 154.329803 215.347305"></polygon>
                        <line x1="91.7406018" y1="210.656107" x2="97.5155003" y2="221.250626" id="Stroke-105" stroke="#000000" stroke-width="2.4" stroke-linecap="round" stroke-linejoin="round"></line>
                        <line x1="167.524097" y1="239.378991" x2="179.545438" y2="228.548985" id="Stroke-106" stroke="#000000" stroke-width="2.4" stroke-linecap="round" stroke-linejoin="round"></line>
                        <line x1="68.8759883" y1="282.959272" x2="79.9548498" y2="289.348477" id="Stroke-107" stroke="#000000" stroke-width="2.4" stroke-linecap="round" stroke-linejoin="round"></line>
                        <polyline id="Stroke-108" stroke="#000000" stroke-width="2.4" stroke-linecap="round" stroke-linejoin="round" points="167.524097 269.952068 162.220134 278.453361 172.474097 278.453361"></polyline>
                        <polyline id="Stroke-109" stroke="#2CB0C7" stroke-width="2.4" stroke-linecap="round" stroke-linejoin="round" points="163.870479 296.942504 160.806048 291.41006 169.174442 291.998476"></polyline>
                        <path d="M78.2474197,310.872857 C60.2915612,332.578507 61.3985335,366.024474 88.3886751,375.616801" id="Stroke-115" stroke="#2CB0C7" stroke-width="4.8" stroke-linecap="round" stroke-linejoin="round"></path>
                        <polyline id="Stroke-116" stroke="#FD4D00" stroke-width="2.4" stroke-linecap="round" stroke-linejoin="round" points="518.206892 168.582888 528.943366 168.582888 524.388148 177.681724"></polyline>
                        <polyline id="Stroke-117" stroke="#000000" stroke-width="2.4" stroke-linecap="round" stroke-linejoin="round" points="509.965036 164.900089 504.976654 175.948546 516.254734 174.323863"></polyline>
                        <g id="Group-120" transform="translate(439.080000, 164.222408)">
                            <line x1="0.144083077" y1="0.352927515" x2="6.43378154" y2="12.0512576" id="Fill-118" fill="#FFFFFF"></line>
                            <line x1="0.144083077" y1="0.352927515" x2="6.43378154" y2="12.0512576" id="Stroke-119" stroke="#2CB0C7" stroke-width="2.4" stroke-linecap="round" stroke-linejoin="round"></line>
                        </g>
                        <line x1="530.570012" y1="214.833856" x2="541.871852" y2="204.976834" id="Stroke-121" stroke="#000000" stroke-width="2.4" stroke-linecap="round" stroke-linejoin="round"></line>
                        <polygon id="Stroke-122" stroke="#FD4D00" stroke-width="2.4" stroke-linecap="round" stroke-linejoin="round" points="498.187935 329.239144 506.211504 319.615176 510.384126 331.425469"></polygon>
                        <line x1="54.0819157" y1="548.657709" x2="117.681343" y2="548.657709" id="Stroke-126" stroke="#2CB0C7" stroke-width="4.8" stroke-linecap="round" stroke-linejoin="round"></line>
                        <path d="M271.586804,426.25764 C271.039106,481.852851 294.838706,538.810484 333.067937,548.65777" id="Stroke-127" stroke="#FD4D00" stroke-width="4.8" stroke-linecap="round" stroke-linejoin="round"></path>
                        <polyline id="Stroke-128" stroke="#FD4D00" stroke-width="4.8" stroke-linecap="round" stroke-linejoin="round" points="53.436984 162.608434 53.436984 152.451423 149.001532 152.451423"></polyline>
                        <g id="Group-131" transform="translate(419.584615, 326.082268)">
                            <path d="M39.6143778,79.970515 C59.9961932,133.801697 86.123664,121.505216 129.033006,78.6932825 C127.736562,74.1405175 125.494593,70.6653985 122.282119,68.2983502 L82.6815102,86.7728886 C79.9625132,88.0416022 76.7603963,86.4917636 76.0695286,83.5746351 C68.5041009,51.6200911 62.4221502,22.6124918 48.9142855,7.6769645 L7.64986708,0.513752933 C-6.44834215,32.6922234 2.64625477,102.85543 16.5817994,185.31877 L31.9539102,184.353696 L39.6143778,79.970515" id="Fill-129" fill="#000000"></path>
                            <path d="M39.6143778,79.970515 C59.9961932,133.801697 86.123664,121.505216 129.033006,78.6932825 C127.736562,74.1405175 125.494593,70.6653985 122.282119,68.2983502 L82.6815102,86.7728886 C79.9625132,88.0416022 76.7603963,86.4917636 76.0695286,83.5746351 C68.5041009,51.6200911 62.4221502,22.6124918 48.9142855,7.6769645 L7.64986708,0.513752933 C-6.44834215,32.6922234 2.64625477,102.85543 16.5817994,185.31877 L31.9539102,184.353696 L39.6143778,79.970515" id="Stroke-130" stroke="#000000" stroke-width="2.4" stroke-linecap="round" stroke-linejoin="round"></path>
                        </g>
                        <path d="M461.625803,418.017391 C456.164658,406.58619 447.947354,378.364159 446.864751,372.901085" id="Stroke-132" stroke="#FFFFFF" stroke-width="2.4" stroke-linecap="round" stroke-linejoin="round"></path>
                        <path d="M464.182866,341.907903 C475.296454,368.143196 483.95667,393.30206 489.277691,416.998708 C490.905556,421.867891 496.494639,424.144273 501.066916,421.799739 L539.03174,402.332744" id="Stroke-133" stroke="#FFFFFF" stroke-width="2.4" stroke-linecap="round" stroke-linejoin="round" stroke-dasharray="1.2,6"></path>
                        <path d="M446.864994,507.880708 C449.787474,472.779024 450.761025,437.67734 449.787474,402.575656" id="Stroke-134" stroke="#FFFFFF" stroke-width="2.4" stroke-linecap="round" stroke-linejoin="round" stroke-dasharray="1.2,6"></path>
                        <path d="M549.220577,404.140524 C554.279629,398.340952 566.866946,397.570596 573.623315,398.245418 C576.370337,398.519849 578.177315,395.296039 576.394706,393.189427 C571.834004,387.800589 553.729494,385.103736 545.776595,386.621324 C545.051001,386.760061 544.491118,387.33509 544.383894,388.064676 C544.043943,390.359313 543.140454,394.489174 542.657334,394.406418" id="Stroke-135" stroke="#000000" stroke-width="2.4" stroke-linecap="round" stroke-linejoin="round"></path>
                        <path d="M570.655447,389.617192 C571.12821,392.586043 571.186697,395.419807 570.655447,398.061896" id="Stroke-136" stroke="#000000" stroke-width="2.4" stroke-linecap="round" stroke-linejoin="round"></path>
                        <path d="M543.950487,390.465739 C552.347514,389.089931 561.273354,390.031882 570.84437,392.472558" id="Stroke-137" stroke="#000000" stroke-width="2.4" stroke-linecap="round" stroke-linejoin="round"></path>
                        <path d="M553.723158,394.790258 C553.723158,396.070533 552.684419,397.108018 551.402598,397.108018 C550.120776,397.108018 549.082038,396.070533 549.082038,394.790258 C549.082038,393.509983 550.120776,392.472497 551.402598,392.472497 C552.684419,392.472497 553.723158,393.509983 553.723158,394.790258" id="Fill-138" fill="#000000"></path>
                        <path d="M436.902548,511.401281 L438.217268,522.824571 C436.360333,534.226564 428.24477,544.275871 428.730327,549.393928 C428.790031,550.019462 429.222585,550.548245 429.823896,550.73201 C435.517767,552.47535 445.799754,540.588995 453.965274,528.883972 C453.965274,528.883972 449.822505,520.887121 449.742696,519.2168 C449.677508,517.847076 450.152099,510.138044 450.152099,510.138044 L436.902548,511.401281 Z" id="Fill-139" fill="#FFFFFF"></path>
                        <path d="M436.902548,511.401281 L438.217268,522.824571 C436.360333,534.226564 428.24477,544.275871 428.730327,549.393928 C428.790031,550.019462 429.222585,550.548245 429.823896,550.73201 C435.517767,552.47535 445.799754,540.588995 453.965274,528.883972 C453.965274,528.883972 449.822505,520.887121 449.742696,519.2168 C449.677508,517.847076 450.152099,510.138044 450.152099,510.138044 L436.902548,511.401281 Z" id="Stroke-140" stroke="#000000" stroke-width="2.4" stroke-linecap="round" stroke-linejoin="round"></path>
                        <path d="M437.604565,517.499869 C441.49755,518.460683 445.998546,518.141832 449.867771,516.033394" id="Stroke-141" stroke="#000000" stroke-width="2.4" stroke-linecap="round" stroke-linejoin="round"></path>
                        <path d="M447.910374,524.517832 C447.910374,525.786546 446.880774,526.815512 445.610527,526.815512 C444.339672,526.815512 443.309463,525.786546 443.309463,524.517832 C443.309463,523.249119 444.339672,522.220152 445.610527,522.220152 C446.880774,522.220152 447.910374,523.249119 447.910374,524.517832" id="Fill-142" fill="#000000"></path>
                        <path d="M430.703747,542.451175 C433.711519,543.706501 435.87307,545.199141 437.405895,547.707361" id="Stroke-143" stroke="#000000" stroke-width="2.4" stroke-linecap="round" stroke-linejoin="round"></path>
                        <path d="M452.150559,525.236222 C446.902036,533.199606 441.590762,540.073173 435.8975,545.589187" id="Stroke-144" stroke="#000000" stroke-width="2.4" stroke-linecap="round" stroke-linejoin="round"></path>
                        <g id="Group-147" transform="translate(397.652308, 173.958339)">
                            <path d="M79.0191803,120.399214 C78.7943742,124.568626 78.0474572,128.88712 76.6559742,132.835041 C75.3729342,136.476279 72.8488911,139.623419 72.1165957,143.467895 C71.4988357,146.706918 72.7355742,150.098064 72.9079865,153.33161 C73.0468911,155.947533 72.2408788,160.606177 68.7231803,160.460138 C68.4106449,160.447359 68.1121218,160.340264 67.8190818,160.233777 C56.7079311,156.1958 44.9936418,158.047452 33.6808357,155.221598 C28.5297895,153.93463 27.6866142,149.275986 27.2534511,144.592395 C26.6161957,137.70544 27.263808,130.674881 28.0143803,123.824436 C25.0309772,112.326301 25.6761526,102.13704 30.8290265,93.5718546 C-1.89885046,72.1911407 -3.06918277,39.403566 3.11938338,0.300414335 L12.8085895,2.75265207 C3.43679262,39.5234397 29.5782757,79.2563844 53.4278326,83.3722494 L65.1549157,84.9938905 C94.7202757,95.010947 114.842559,151.360084 143.690245,93.0242085 C144.685119,92.882429 151.933137,93.165988 151.933137,93.165988 C142.979882,132.198554 110.29526,146.534105 77.8263065,119.424404" id="Fill-145" fill="#FFFFFF"></path>
                            <path d="M79.0191803,120.399214 C78.7943742,124.568626 78.0474572,128.88712 76.6559742,132.835041 C75.3729342,136.476279 72.8488911,139.623419 72.1165957,143.467895 C71.4988357,146.706918 72.7355742,150.098064 72.9079865,153.33161 C73.0468911,155.947533 72.2408788,160.606177 68.7231803,160.460138 C68.4106449,160.447359 68.1121218,160.340264 67.8190818,160.233777 C56.7079311,156.1958 44.9936418,158.047452 33.6808357,155.221598 C28.5297895,153.93463 27.6866142,149.275986 27.2534511,144.592395 C26.6161957,137.70544 27.263808,130.674881 28.0143803,123.824436 C25.0309772,112.326301 25.6761526,102.13704 30.8290265,93.5718546 C-1.89885046,72.1911407 -3.06918277,39.403566 3.11938338,0.300414335 L12.8085895,2.75265207 C3.43679262,39.5234397 29.5782757,79.2563844 53.4278326,83.3722494 L65.1549157,84.9938905 C94.7202757,95.010947 114.842559,151.360084 143.690245,93.0242085 C144.685119,92.882429 151.933137,93.165988 151.933137,93.165988 C142.979882,132.198554 110.29526,146.534105 77.8263065,119.424404" id="Stroke-146" stroke="#000000" stroke-width="2.4" stroke-linecap="round" stroke-linejoin="round"></path>
                        </g>
                        <path d="M462.044649,262.23476 C457.882994,262.854208 454.228218,262.006574 451.080323,259.692465 L453.219332,250.490792 L464.183049,253.032479 L462.044649,262.23476 Z" id="Fill-148" fill="#FFFFFF"></path>
                        <path d="M462.044649,262.23476 C457.882994,262.854208 454.228218,262.006574 451.080323,259.692465 L453.219332,250.490792 L464.183049,253.032479 L462.044649,262.23476 Z" id="Stroke-149" stroke="#000000" stroke-width="2.4" stroke-linecap="round" stroke-linejoin="round"></path>
                        <path d="M498.307527,232.243162 C498.919804,229.608984 497.278536,226.978457 494.640567,226.366919 C494.308536,226.28964 493.975287,226.248871 493.646911,226.24096 C493.663361,226.13995 493.676764,226.03894 493.693213,225.937321 C493.71941,225.944014 493.744388,225.95375 493.770585,225.959835 C496.059465,226.490444 498.345299,225.067781 498.876548,222.781662 C499.407798,220.495544 497.983416,218.212468 495.694536,217.68186 C495.228474,217.574156 494.763631,217.550425 494.312191,217.595453 C495.756678,217.18837 496.941631,216.029185 497.304733,214.466568 C497.835982,212.18045 496.411601,209.897374 494.122721,209.366766 C493.572585,209.238982 493.021841,209.226812 492.496684,209.310176 C492.907305,208.844676 493.211921,208.274516 493.361791,207.627685 C493.84613,205.544804 492.547859,203.463749 490.461853,202.979995 C489.594308,202.779191 488.72981,202.889329 487.978019,203.23252 C488.163225,202.885678 488.310659,202.51267 488.403262,202.111671 C488.978376,199.639962 487.437631,197.171903 484.963545,196.597483 C483.469711,196.251858 481.980142,196.678413 480.905459,197.611845 C480.906678,197.603935 480.909724,197.596633 480.911551,197.589331 C481.486056,195.117622 479.945311,192.648954 477.471225,192.075143 C475.458327,191.608427 473.447256,192.539425 472.457865,194.233477 C472.391459,194.217656 472.326271,194.197576 472.259256,194.182364 C472.19285,194.166543 472.125225,194.156198 472.058819,194.140986 C471.918087,192.184672 470.523558,190.463846 468.51005,189.997739 C466.397847,189.5079 464.292345,190.559989 463.362659,192.414684 C462.771096,191.231159 461.675699,190.309288 460.284825,189.987394 C457.81013,189.413583 455.338481,190.95186 454.763976,193.423569 C454.690868,193.738162 454.653096,194.052146 454.645785,194.363087 C454.139514,193.973041 453.546124,193.679746 452.882671,193.526405 C450.408585,192.952594 447.936327,194.490871 447.362431,196.962581 C447.194893,197.684256 447.211951,198.404715 447.375225,199.078929 C447.03101,198.896988 446.661207,198.750949 446.263379,198.659067 C443.789293,198.085255 441.317644,199.624141 440.743139,202.09585 C440.420247,203.483221 440.765071,204.869374 441.56621,205.920246 C441.469342,205.891038 441.373084,205.860005 441.272561,205.836274 C438.797256,205.262462 436.326216,206.800739 435.751102,209.272449 C435.22229,211.550048 436.491318,213.821563 438.630327,214.613824 C438.623016,214.640598 438.615705,214.667372 438.609613,214.694146 C436.340228,214.465351 434.200001,215.945821 433.671188,218.222812 C433.096684,220.694522 434.636819,223.163189 437.112124,223.737001 C437.353379,223.792982 437.595244,223.822798 437.834671,223.839836 C437.84381,223.951191 437.857213,224.061937 437.86757,224.173292 C436.173299,224.531087 434.751964,225.829617 434.334641,227.625897 C433.760136,230.097606 435.300271,232.566273 437.774967,233.140085 C438.608394,233.332978 439.439385,233.281864 440.199096,233.041508 C440.255145,233.165642 440.315459,233.287949 440.372727,233.410865 C439.73669,234.010842 439.263318,234.79641 439.050087,235.710979 C438.476191,238.182689 440.016327,240.651356 442.491022,241.225167 C443.532198,241.466132 444.570936,241.330437 445.470161,240.911184 C445.486001,240.927613 445.501841,240.943434 445.51829,240.960472 C445.215502,241.409542 444.985213,241.917635 444.855447,242.476235 C444.280333,244.947944 445.821078,247.416611 448.295164,247.990423 C449.52581,248.275807 450.754628,248.037885 451.750721,247.424522 C451.68797,249.565818 453.138548,251.526391 455.308628,252.029617 C457.578622,252.555966 459.841914,251.301856 460.644881,249.183074 C460.966554,249.244532 461.287619,249.297472 461.609902,249.34676 C461.999201,250.80289 463.159176,252.001626 464.730991,252.365507 C466.929705,252.876035 469.121718,251.564118 469.735213,249.420388 C470.156801,249.361972 470.576561,249.295646 470.994493,249.218367 C471.561078,250.174314 472.499293,250.90816 473.667798,251.17894 C475.937182,251.705289 478.20413,250.294188 478.730505,248.027541 C478.847478,247.526749 478.863927,247.026566 478.802394,246.544637 C478.927287,246.480136 479.052179,246.414419 479.176462,246.348093 C479.725379,246.927381 480.444881,247.358804 481.281354,247.552914 C483.55013,248.078655 485.817078,246.668162 486.344062,244.400907 C486.450068,243.943926 486.473828,243.488163 486.431791,243.045787 C486.592628,243.10116 486.757121,243.149231 486.926487,243.188783 C489.563847,243.800321 492.198161,242.160425 492.810438,239.526247 C493.115662,238.214331 492.860394,236.903631 492.202425,235.842414 C492.276751,235.863103 492.348641,235.888051 492.424185,235.905698 C495.061545,236.516628 497.69525,234.87734 498.307527,232.243162" id="Fill-150" fill="#000000"></path>
                        <path d="M498.307527,232.243162 C498.919804,229.608984 497.278536,226.978457 494.640567,226.366919 C494.308536,226.28964 493.975287,226.248871 493.646911,226.24096 C493.663361,226.13995 493.676764,226.03894 493.693213,225.937321 C493.71941,225.944014 493.744388,225.95375 493.770585,225.959835 C496.059465,226.490444 498.345299,225.067781 498.876548,222.781662 C499.407798,220.495544 497.983416,218.212468 495.694536,217.68186 C495.228474,217.574156 494.763631,217.550425 494.312191,217.595453 C495.756678,217.18837 496.941631,216.029185 497.304733,214.466568 C497.835982,212.18045 496.411601,209.897374 494.122721,209.366766 C493.572585,209.238982 493.021841,209.226812 492.496684,209.310176 C492.907305,208.844676 493.211921,208.274516 493.361791,207.627685 C493.84613,205.544804 492.547859,203.463749 490.461853,202.979995 C489.594308,202.779191 488.72981,202.889329 487.978019,203.23252 C488.163225,202.885678 488.310659,202.51267 488.403262,202.111671 C488.978376,199.639962 487.437631,197.171903 484.963545,196.597483 C483.469711,196.251858 481.980142,196.678413 480.905459,197.611845 C480.906678,197.603935 480.909724,197.596633 480.911551,197.589331 C481.486056,195.117622 479.945311,192.648954 477.471225,192.075143 C475.458327,191.608427 473.447256,192.539425 472.457865,194.233477 C472.391459,194.217656 472.326271,194.197576 472.259256,194.182364 C472.19285,194.166543 472.125225,194.156198 472.058819,194.140986 C471.918087,192.184672 470.523558,190.463846 468.51005,189.997739 C466.397847,189.5079 464.292345,190.559989 463.362659,192.414684 C462.771096,191.231159 461.675699,190.309288 460.284825,189.987394 C457.81013,189.413583 455.338481,190.95186 454.763976,193.423569 C454.690868,193.738162 454.653096,194.052146 454.645785,194.363087 C454.139514,193.973041 453.546124,193.679746 452.882671,193.526405 C450.408585,192.952594 447.936327,194.490871 447.362431,196.962581 C447.194893,197.684256 447.211951,198.404715 447.375225,199.078929 C447.03101,198.896988 446.661207,198.750949 446.263379,198.659067 C443.789293,198.085255 441.317644,199.624141 440.743139,202.09585 C440.420247,203.483221 440.765071,204.869374 441.56621,205.920246 C441.469342,205.891038 441.373084,205.860005 441.272561,205.836274 C438.797256,205.262462 436.326216,206.800739 435.751102,209.272449 C435.22229,211.550048 436.491318,213.821563 438.630327,214.613824 C438.623016,214.640598 438.615705,214.667372 438.609613,214.694146 C436.340228,214.465351 434.200001,215.945821 433.671188,218.222812 C433.096684,220.694522 434.636819,223.163189 437.112124,223.737001 C437.353379,223.792982 437.595244,223.822798 437.834671,223.839836 C437.84381,223.951191 437.857213,224.061937 437.86757,224.173292 C436.173299,224.531087 434.751964,225.829617 434.334641,227.625897 C433.760136,230.097606 435.300271,232.566273 437.774967,233.140085 C438.608394,233.332978 439.439385,233.281864 440.199096,233.041508 C440.255145,233.165642 440.315459,233.287949 440.372727,233.410865 C439.73669,234.010842 439.263318,234.79641 439.050087,235.710979 C438.476191,238.182689 440.016327,240.651356 442.491022,241.225167 C443.532198,241.466132 444.570936,241.330437 445.470161,240.911184 C445.486001,240.927613 445.501841,240.943434 445.51829,240.960472 C445.215502,241.409542 444.985213,241.917635 444.855447,242.476235 C444.280333,244.947944 445.821078,247.416611 448.295164,247.990423 C449.52581,248.275807 450.754628,248.037885 451.750721,247.424522 C451.68797,249.565818 453.138548,251.526391 455.308628,252.029617 C457.578622,252.555966 459.841914,251.301856 460.644881,249.183074 C460.966554,249.244532 461.287619,249.297472 461.609902,249.34676 C461.999201,250.80289 463.159176,252.001626 464.730991,252.365507 C466.929705,252.876035 469.121718,251.564118 469.735213,249.420388 C470.156801,249.361972 470.576561,249.295646 470.994493,249.218367 C471.561078,250.174314 472.499293,250.90816 473.667798,251.17894 C475.937182,251.705289 478.20413,250.294188 478.730505,248.027541 C478.847478,247.526749 478.863927,247.026566 478.802394,246.544637 C478.927287,246.480136 479.052179,246.414419 479.176462,246.348093 C479.725379,246.927381 480.444881,247.358804 481.281354,247.552914 C483.55013,248.078655 485.817078,246.668162 486.344062,244.400907 C486.450068,243.943926 486.473828,243.488163 486.431791,243.045787 C486.592628,243.10116 486.757121,243.149231 486.926487,243.188783 C489.563847,243.800321 492.198161,242.160425 492.810438,239.526247 C493.115662,238.214331 492.860394,236.903631 492.202425,235.842414 C492.276751,235.863103 492.348641,235.888051 492.424185,235.905698 C495.061545,236.516628 497.69525,234.87734 498.307527,232.243162 Z" id="Stroke-151" stroke="#000000" stroke-width="2.4" stroke-linecap="round" stroke-linejoin="round"></path>
                        <g id="Group-154" transform="translate(445.781538, 226.288971)">
                            <path d="M3.02598831,6.9872346 C1.24337908,6.57406601 0.133969846,4.79543304 0.547637538,3.01558307 C0.961305231,1.2351246 2.74147754,0.127053905 4.52408677,0.540222496" id="Fill-152" fill="#FFFFFF"></path>
                            <path d="M3.02598831,6.9872346 C1.24337908,6.57406601 0.133969846,4.79543304 0.547637538,3.01558307 C0.961305231,1.2351246 2.74147754,0.127053905 4.52408677,0.540222496" id="Stroke-153" stroke="#000000" stroke-width="2.4" stroke-linecap="round" stroke-linejoin="round"></path>
                        </g>
                        <g id="Group-157" transform="translate(475.024615, 232.373928)">
                            <path d="M1.95270646,0.108129689 C3.73470646,0.52129828 4.84411569,2.29993126 4.430448,4.07978122 C4.01678031,5.86023969 2.236608,6.96831039 0.453998769,6.5551418" id="Fill-155" fill="#FFFFFF"></path>
                            <path d="M1.95270646,0.108129689 C3.73470646,0.52129828 4.84411569,2.29993126 4.430448,4.07978122 C4.01678031,5.86023969 2.236608,6.96831039 0.453998769,6.5551418" id="Stroke-156" stroke="#000000" stroke-width="2.4" stroke-linecap="round" stroke-linejoin="round"></path>
                        </g>
                        <path d="M458.145877,253.615722 L458.145877,253.615722 C451.232326,252.012945 446.92872,245.115646 448.534043,238.211045 L452.380726,221.658136 C459.952246,214.471801 473.670905,217.313476 477.416455,227.463185 L473.569163,244.015485 C471.964449,250.920695 465.059428,255.2185 458.145877,253.615722" id="Fill-158" fill="#FFFFFF"></path>
                        <path d="M458.145877,253.615722 L458.145877,253.615722 C451.232326,252.012945 446.92872,245.115646 448.534043,238.211045 L452.380726,221.658136 C459.952246,214.471801 473.670905,217.313476 477.416455,227.463185 L473.569163,244.015485 C471.964449,250.920695 465.059428,255.2185 458.145877,253.615722 Z" id="Stroke-159" stroke="#000000" stroke-width="2.4" stroke-linecap="round" stroke-linejoin="round"></path>
                        <polyline id="Stroke-160" stroke="#000000" stroke-width="2.4" stroke-linecap="round" stroke-linejoin="round" points="463.412433 225.712847 459.025362 238.373817 461.252101 238.89043"></polyline>
                        <path d="M466.375854,242.03611 C464.642592,243.943744 462.523078,244.852228 460.016703,244.760345 C462.17277,250.895199 467.737484,247.664086 466.375854,242.03611 Z" id="Stroke-161" stroke="#000000" stroke-width="2.4" stroke-linecap="round" stroke-linejoin="round"></path>
                        <path d="M454.993839,223.761036 C456.126399,222.993114 457.45574,222.786226 458.981254,223.139762" id="Stroke-162" stroke="#000000" stroke-width="2.4" stroke-linecap="round" stroke-linejoin="round"></path>
                        <path d="M469.893247,225.901785 C471.179334,226.139707 472.224774,226.820005 473.029567,227.942679" id="Stroke-163" stroke="#000000" stroke-width="2.4" stroke-linecap="round" stroke-linejoin="round"></path>
                        <path d="M467.284338,232.482058 C468.268855,231.700749 469.893065,232.301943 469.893065,233.639416" id="Stroke-164" stroke="#000000" stroke-width="2.0934" stroke-linecap="round" stroke-linejoin="round"></path>
                        <path d="M454.936754,229.89802 C455.727535,228.921384 457.443738,229.154438 457.73556,230.46027" id="Stroke-165" stroke="#000000" stroke-width="2.0934" stroke-linecap="round" stroke-linejoin="round"></path>
                        <path d="M431.63721,301.195706 C439.682712,311.779272 450.773149,315.171027 453.10102,320.734503" id="Stroke-166" stroke="#000000" stroke-width="2.0934" stroke-linecap="round" stroke-linejoin="round"></path>
                        <path d="M540.355172,258.327974 L536.382378,258.327974 L536.382378,251.713625 C536.382378,250.617725 537.271246,249.729321 538.368471,249.729321 C539.465695,249.729321 540.355172,250.617725 540.355172,251.713625 L540.355172,258.327974 Z" id="Fill-167" fill="#FFFFFF"></path>
                        <path d="M540.355172,258.327974 L536.382378,258.327974 L536.382378,251.713625 C536.382378,250.617725 537.271246,249.729321 538.368471,249.729321 C539.465695,249.729321 540.355172,250.617725 540.355172,251.713625 L540.355172,258.327974 Z" id="Stroke-168" stroke="#000000" stroke-width="2.0892" stroke-linecap="round" stroke-linejoin="round"></path>
                        <path d="M556.548587,290.985878 L519.743129,282.121313 C518.399775,281.797593 517.573049,280.447949 517.897769,279.106216 L523.801215,254.65199 C524.125326,253.309649 525.476599,252.484529 526.819953,252.808248 L563.625412,261.672814 C564.968766,261.996534 565.795492,263.346177 565.471381,264.68791 L559.566716,289.142136 C559.243215,290.483869 557.891332,291.309598 556.548587,290.985878" id="Fill-169" fill="#FFFFFF"></path>
                        <path d="M556.548587,290.985878 L519.743129,282.121313 C518.399775,281.797593 517.573049,280.447949 517.897769,279.106216 L523.801215,254.65199 C524.125326,253.309649 525.476599,252.484529 526.819953,252.808248 L563.625412,261.672814 C564.968766,261.996534 565.795492,263.346177 565.471381,264.68791 L559.566716,289.142136 C559.243215,290.483869 557.891332,291.309598 556.548587,290.985878 Z" id="Stroke-170" stroke="#000000" stroke-width="2.6508" stroke-linecap="round" stroke-linejoin="round"></path>
                        <path d="M554.586438,287.134952 L526.335188,280.330753 C525.144142,280.043543 524.411238,278.846632 524.698185,277.656414 L529.19309,259.038271 C529.480647,257.848053 530.679613,257.116033 531.871268,257.403243 L560.121908,264.207442 C561.313564,264.494044 562.046468,265.691563 561.758911,266.881781 L557.264007,285.499924 C556.97645,286.690142 555.778093,287.422162 554.586438,287.134952" id="Fill-171" fill="#2CB0C7"></path>
                        <path d="M525.954967,268.108447 C525.788647,268.796656 525.095343,269.220169 524.406912,269.05405 C523.717872,268.88793 523.293847,268.196071 523.460167,267.507862 C523.626487,266.819653 524.319183,266.39614 525.008223,266.56226 C525.697263,266.72777 526.120678,267.420239 525.954967,268.108447" id="Fill-172" fill="#000000"></path>
                        <path d="M554.183614,257.837709 C553.464113,260.816904 549.551023,262.429418 545.441762,261.440004 C541.33311,260.45059 538.585479,257.233473 539.30498,254.254278 C540.024482,251.275083 543.93818,249.66196 548.046833,250.651983 C552.155485,251.641397 554.903116,254.858514 554.183614,257.837709" id="Fill-173" fill="#FFFFFF"></path>
                        <path d="M554.183614,257.837709 C553.464113,260.816904 549.551023,262.429418 545.441762,261.440004 C541.33311,260.45059 538.585479,257.233473 539.30498,254.254278 C540.024482,251.275083 543.93818,249.66196 548.046833,250.651983 C552.155485,251.641397 554.903116,254.858514 554.183614,257.837709 Z" id="Stroke-174" stroke="#000000" stroke-width="2.0892" stroke-linecap="round" stroke-linejoin="round"></path>
                        <path d="M409.911371,176.144177 L414.18147,170.96527 C414.736479,170.291057 415.06059,169.454984 415.120903,168.584835 C415.240313,166.844537 415.034393,164.577282 413.31819,163.63594 C411.391802,162.579591 408.497956,163.559269 406.94198,164.903436 C406.37966,165.389016 405.465814,166.33766 405.891666,167.168257 C406.302897,167.969038 407.522577,167.796225 408.21771,167.592379 L409.911371,166.982057" id="Stroke-175" stroke="#000000" stroke-width="2.4" stroke-linecap="round" stroke-linejoin="round"></path>
                        <path d="M414.770961,165.39717 C413.392272,148.375719 393.77565,162.377205 405.78237,166.84113" id="Stroke-176" stroke="#000000" stroke-width="2.4" stroke-linecap="round" stroke-linejoin="round"></path>
                        <path d="M401.637347,174.477934 C401.537433,174.029472 402.001667,163.448949 402.001667,163.448949" id="Stroke-177" stroke="#000000" stroke-width="2.4" stroke-linecap="round" stroke-linejoin="round"></path>
                        <path d="M449.245442,344.360019 C451.42466,350.598926 456.756039,353.342024 464.183171,353.761886" id="Stroke-178" stroke="#FFFFFF" stroke-width="2.4" stroke-linecap="round" stroke-linejoin="round"></path>
                        <path d="M435.226006,331.457415 C433.6152,338.169731 433.229557,344.533379 434.725218,350.360943 L439.031262,350.360943" id="Stroke-179" stroke="#FFFFFF" stroke-width="2.4" stroke-linecap="round" stroke-linejoin="round"></path>
                    </g>
                </g>
            </g>
        </g>
    </g>
</svg>