<?xml version="1.0" encoding="UTF-8"?>
<svg width="240px" height="310px" viewBox="0 0 258 333" version="1.1" xmlns="http://www.w3.org/2000/svg" xmlns:xlink="http://www.w3.org/1999/xlink">
    <!-- Generator: Sketch 63.1 (92452) - https://sketch.com -->
    <title>Group 95</title>
    <desc>Created with Sketch.</desc>
    <defs>
        <polygon id="path-1" points="-8.67361738e-18 -4.22439861e-14 16 -4.22439861e-14 16 16 -8.67361738e-18 16"></polygon>
        <polygon id="path-3" points="0 2.93098879e-14 20 2.93098879e-14 20 22 0 22"></polygon>
    </defs>
    <g id="Mentee/Mentor-Page" stroke="none" stroke-width="1" fill="none" fill-rule="evenodd">
        <g id="SP1_Subpage_Mentee" transform="translate(-44.000000, -239.000000)">
            <g id="Group-95" transform="translate(44.000000, 239.000000)">
                <path d="M132.429232,0 C108.995882,0 90,19.3100546 90,43.1309673 C90,48.7366405 91.063218,54.0870396 92.97749,59 L167,18.1403021 C159.308151,7.16534319 146.695772,0 132.429232,0" id="Fill-7" fill="#FD4D00"></path>
                <path d="M103.80371,41 C103.440262,41 103.073205,40.8905581 102.754888,40.6632557 C101.944352,40.0841756 101.757213,38.9572847 102.336683,38.146693 C105.79244,33.3180196 111.127411,30.2638686 117.764535,29.3149712 C127.264708,27.9583725 138.467788,31.0564205 146.309583,37.2110248 C147.093642,37.8261845 147.230235,38.9602914 146.614662,39.7438233 C145.998486,40.5273553 144.864218,40.663857 144.079557,40.0480959 C137.0838,34.5585617 126.714122,31.6793975 118.276009,32.8862652 C112.638365,33.6926477 108.141608,36.2374728 105.273143,40.2453319 C104.921129,40.7378205 104.366331,41 103.80371,41" id="Fill-1" fill="#000000"></path>
                <path d="M176,209 C173.333333,225 173.666667,238.333333 177,249 C182,265 191.5,282.001953 202,282.001953 C212.5,282.001953 231.556887,279 237.778443,265 C244,251 250.049613,223.5 240.541016,208 C231.032419,192.5 217,166 212.5,164 C208,162 192,152.464844 186,148.732422 C182,146.244141 175,144.838287 165,144.514862 L148.5,152 L138.5,153 C135.5,153 132.333333,153 129,153 C125.666667,153 119.666667,150.171621 111,144.514862 L66,219 L68,237 L124,184 C161.50956,184 171.50956,184 154,184 C154,184 173,213 173,213 C173.784913,213 175.08843,251.597305 173.958008,239 C173.46146,233.46652 174.142124,223.46652 176,209 Z" id="Path-2" fill="#FFB298"></path>
                <path d="M109.169192,59 C108.53703,59 107.92258,58.6825139 107.582373,58.1144743 C105.281548,54.2691012 104.579145,50.5119846 105.233296,45.5518561 C105.36156,44.578074 106.276516,43.8892001 107.2837,44.014773 C108.287219,44.1391612 108.99695,45.0294255 108.868075,46.0032076 C108.317147,50.1814673 108.863189,53.1738925 110.752345,56.3309841 C111.259907,57.1797857 110.962455,58.2672941 110.087201,58.7595161 C109.797689,58.9224054 109.481303,59 109.169192,59" id="Fill-3" fill="#000000"></path>
                <path d="M147.743963,9 C123.072498,9 103,28.3998953 103,52.2463863 C103,54.5120009 103.182494,56.774571 103.543209,59 L176,19.4165906 C167.785944,12.5022346 158.292599,9 147.743963,9 M101.866887,63 C101.610622,63 101.354357,62.9460075 101.115096,62.8380225 C100.59285,62.6020328 100.212703,62.1343 100.088215,61.5755686 C99.3661794,58.3378385 99,55 99,51.6561148 C99,25.8895585 120.60519,4.92712156 147.161393,4.92712156 C159.005443,4.92712156 169.604605,9.01538523 178.684396,17.0808943 L206.249869,2 L208,5.19283747 L179.32688,20.8785691 C179.305019,20.8913089 179.283157,20.903442 179.260688,20.9149685 L102.741952,62.7761434 C102.469899,62.9253811 102.168696,63 101.866887,63" id="Fill-5" fill="#000000"></path>
                <path d="M149.734049,264.999266 L76.6529634,302.154622 C72.8191083,304.104416 68.1349664,302.566798 66.1917132,298.721236 L43.8427888,254.49393 C41.8989304,250.648367 43.4318673,245.950529 47.2663276,244.000734 L120.346808,206.845378 C124.181269,204.895584 128.864805,206.433202 130.808664,210.278764 L153.157588,254.50607 C155.100841,258.35224 153.567905,263.050078 149.734049,264.999266" id="Fill-9" fill="#000000"></path>
                <path d="M124.77219,208 C123.850664,208 122.93517,208.219417 122.089634,208.653974 L49.2613671,246.064325 C47.8440992,246.792253 46.7923056,248.035414 46.2977696,249.565835 C45.8038367,251.095644 45.9274707,252.729356 46.6457541,254.165042 L68.9173639,298.694539 C69.6356473,300.130837 70.8623378,301.196753 72.3724819,301.697929 C73.8832291,302.199105 75.4946928,302.0732 76.9107544,301.345883 L149.738418,263.935532 C151.155686,263.207604 152.208083,261.964443 152.702015,260.434633 C153.195948,258.904824 153.072917,257.271112 152.354634,255.835426 L130.083024,211.305318 C129.364741,209.86902 128.137447,208.802493 126.627906,208.301928 C126.019386,208.100235 125.393979,208 124.77219,208 M73.7851367,305 C72.7861137,305 71.7834797,304.839793 70.8067241,304.515723 C68.3831905,303.712859 66.4140319,302.003575 65.2609427,299.701585 L43.0362915,255.320507 C41.8832023,253.018517 41.6852032,250.399767 42.4784034,247.947316 C43.2716036,245.494256 44.9603136,243.501107 47.2345955,242.333969 L119.909307,205.048917 C122.183589,203.881779 124.770818,203.681368 127.19375,204.484232 C129.616681,205.286487 131.586442,206.99638 132.738929,209.29837 L154.96358,253.680057 C156.11667,255.982047 156.314669,258.600188 155.52207,261.053248 C154.72887,263.505699 153.039558,265.499458 150.765276,266.665986 L78.0911666,303.951038 C76.7334582,304.647909 75.2638111,305 73.7851367,305" id="Fill-11" fill="#000000"></path>
                <path d="M49,251.082479 L72.7889372,298 L144,261.917521 L120.211063,215 L49,251.082479 Z M72.4536397,300 C72.1230181,300 71.8038805,299.818797 71.6443117,299.503504 L47.0979183,251.11029 C46.9891214,250.895867 46.9703841,250.647015 47.0447287,250.418699 C47.1196777,250.190384 47.2822686,250.000725 47.4968402,249.892003 L120.136902,213.098181 C120.583574,212.871677 121.129372,213.050464 121.355428,213.496827 L145.901821,261.890645 C146.010618,262.105069 146.02996,262.353316 145.955011,262.581632 C145.880062,262.810551 145.718075,262.999606 145.503503,263.108328 L72.862837,299.902151 C72.7316763,299.968592 72.5914491,300 72.4536397,300 L72.4536397,300 Z" id="Fill-13" fill="#F6B9A2"></path>
                <path d="M139.837731,234.822103 C140.212032,235.560497 139.916876,236.463111 139.177795,236.837365 C138.43931,237.212215 137.536585,236.917095 137.162284,236.178106 C136.787983,235.439117 137.08314,234.537098 137.821625,234.162249 C138.560705,233.787995 139.46343,234.083114 139.837731,234.822103" id="Fill-15" fill="#F6B9A2"></path>
                <path d="M68.9338541,258 C68.5967745,258 68.2715115,257.822042 68.1054594,257.510918 C67.8678867,257.066023 68.0451333,256.517622 68.502243,256.286397 L86.6361262,247.102793 C87.0944797,246.870964 87.6566936,247.044685 87.8942662,247.488974 C88.1324608,247.93387 87.9545923,248.481666 87.4974826,248.713495 L69.3635994,257.897099 C69.2261555,257.966709 69.0787609,258 68.9338541,258" id="Fill-17" fill="#F6B9A2"></path>
                <path d="M76.9180023,261 C76.5866445,261 76.2669027,260.817325 76.1036692,260.497955 C75.8701293,260.041268 76.0443672,259.478332 76.4937176,259.240979 L95.6592775,249.105636 C96.1092392,248.867662 96.6631324,249.045366 96.896061,249.502053 C97.1302123,249.95874 96.955363,250.521676 96.5060126,250.759029 L77.3404528,260.894372 C77.205342,260.965826 77.0604494,261 76.9180023,261" id="Fill-19" fill="#F6B9A2"></path>
                <path d="M71.9080624,271 C71.5802925,271 71.2640127,270.819155 71.1025467,270.502985 C70.8715355,270.050873 71.0438868,269.493576 71.4883718,269.258601 L90.6737945,259.104849 C91.1188842,258.868644 91.6661752,259.045183 91.8971864,259.497294 C92.1288024,259.949406 91.9558464,260.506088 91.5113614,260.741678 L72.3259387,270.89543 C72.1922908,270.966169 72.0489671,271 71.9080624,271" id="Fill-21" fill="#F6B9A2"></path>
                <path d="M190.096956,88.6013952 L193.596918,107.948162 C195.560326,118.803113 190.226159,129.842046 180.317348,134.508006 C151.821364,147.926524 97.7388872,120.752593 118.622136,85.7709932 L118.153623,68.8653419 L103,68.8653419 L103,60.7835267 L135.182506,43 L135.182506,80.7717941 C147.139855,103.419884 180.229803,74.818568 190.096956,88.6013952" id="Fill-23" fill="#000000"></path>
                <path d="M105,66.712647 L118.436809,66.712647 C119.424246,66.712647 120.232315,67.4907338 120.260285,68.4687624 L120.732114,85.1807665 C120.741843,85.526449 120.651247,85.8673137 120.47127,86.163613 C113.683855,97.3236182 114.760064,108.770287 123.501681,118.393992 C136.766418,132.997574 163.82366,139.374634 180.268991,131.773231 C189.399139,127.552773 194.477996,117.562909 192.619254,107.478494 L189.17356,88.7791169 C185.386154,84.118425 177.416732,86.0600287 168.219094,88.3003405 C156.247633,91.2163594 141.348517,94.8454238 133.976178,81.1391715 C133.835724,80.8778018 133.762152,80.5857181 133.762152,80.2894188 L133.762152,46 L105,61.6002794 L105,66.712647 Z M163.213109,139 C147.683926,139 130.547878,132.348667 120.377536,121.061373 C110.62179,110.233439 109.31375,97.385291 116.669807,84.8312783 L116.263696,70.3266518 L102.818406,70.3266518 C101.81404,70.3266518 101,69.5138456 101,68.5110014 L101,60.4821949 C101,59.8188773 101.362469,59.2082135 101.944965,58.8898695 L134.254395,41.2229851 C134.817494,40.9149297 135.501821,40.927034 136.054616,41.2532459 C136.607411,41.580063 136.946241,42.1743859 136.946241,42.8153105 L136.946241,79.8751577 C143.036687,90.697645 155.109688,87.7314774 166.790519,84.86396 C176.990562,82.3589676 186.625081,79.993175 191.732376,87.0542397 C191.891183,87.2733282 191.999075,87.5250984 192.047566,87.7913938 L195.561332,107.011265 C197.710687,118.768812 191.808749,130.429525 181.209263,135.368699 C175.909217,137.838589 169.700574,139 163.213109,139 L163.213109,139 Z" id="Fill-25" fill="#000000"></path>
                <path d="M192.198998,101 C191.347098,101 190.58992,100.388196 190.43165,99.5145352 L178.029636,31.1348848 C177.850983,30.1514129 178.498451,29.2089694 179.475649,29.029169 C180.453445,28.851782 181.389876,29.5015975 181.56793,30.4850693 L193.970543,98.8647197 C194.148597,99.8481916 193.501129,100.790635 192.523931,100.970436 C192.414821,100.990346 192.30631,101 192.198998,101" id="Fill-27" fill="#000000"></path>
                <path d="M124,76.0003029 C124,82.6274262 118.627291,88 112,88 C105.372104,88 100,82.6274262 100,76.0003029 C100,69.3731795 105.372104,64 112,64 C118.627291,64 124,69.3731795 124,76.0003029" id="Fill-29" fill="#F6B9A2"></path>
                <path d="M112.5,66 C106.709977,66 102,70.7104613 102,76.5003123 C102,82.2895387 106.709977,87 112.5,87 C118.290023,87 123,82.2895387 123,76.5003123 C123,70.7104613 118.290023,66 112.5,66 M112,90 C104.280328,90 98,83.7198097 98,76.0003069 C98,68.2801903 104.280328,62 112,62 C119.719672,62 126,68.2801903 126,76.0003069 C126,83.7198097 119.719672,90 112,90" id="Fill-31" fill="#000000"></path>
                <path d="M153,34.1706017 C154.200599,33.5079301 178.677259,20 178.677259,20 L182,38.4466855 C170.261015,39.8722492 160.458538,38.5766687 153,34.1706017" id="Fill-33" fill="#000000"></path>
                <path d="M157,34.8027853 C163.127066,37.6270798 170.840735,38.5850054 180,37.6575304 L177.472766,23 L157,34.8027853 Z M172.772861,41 C164.489622,41 157.485412,39.2758826 151.876722,35.844309 C151.32561,35.5073842 150.990922,34.8866032 151.000188,34.2201584 C151.009844,33.5537136 151.361681,32.94404 151.922254,32.6237763 L177.113757,18.2273346 C177.614015,17.9416273 178.21539,17.9243491 178.72984,18.1804367 C179.24429,18.4365242 179.609727,18.9351237 179.711435,19.5201141 L182.971393,38.2614056 C183.058909,38.7630904 182.943601,39.2802022 182.653262,39.6911765 C182.363514,40.1015337 181.92357,40.3687287 181.438095,40.4298195 C178.4123,40.8099398 175.521918,41 172.772861,41 L172.772861,41 Z" id="Fill-35" fill="#000000"></path>
                <path d="M151.741644,105 C150.611401,105 149.457037,104.808398 148.364125,104.419613 C145.988202,103.575075 144.142369,101.88352 143.166041,99.656843 C142.758855,98.7279757 143.126414,97.6186676 143.986156,97.1796569 C144.846473,96.7394061 145.87334,97.1362519 146.280526,98.0644991 C147.009326,99.726291 148.402029,100.516262 149.442105,100.885825 C151.136321,101.488534 153.153299,101.383742 154.462152,100.626015 C155.300646,100.140499 156.345316,100.479678 156.795001,101.385603 C157.244686,102.290907 156.929964,103.418817 156.091471,103.904333 C154.8389,104.629817 153.312957,105 151.741644,105" id="Fill-37" fill="#F6B9A2"></path>
                <line x1="161" y1="60" x2="162" y2="66" id="Fill-39" fill="#000000"></line>
                <path d="M162.059443,68 C161.134868,68 160.3169,67.3563947 160.152143,66.4433149 L159.029213,60.2046674 C158.845074,59.181291 159.55062,58.2074228 160.605062,58.0288176 C161.657566,57.8483324 162.664197,58.5345523 162.847691,59.5573019 L163.97062,65.7959494 C164.155406,66.8193258 163.449214,67.793194 162.395418,67.9717992 C162.282349,67.9905997 162.169927,68 162.059443,68" id="Fill-41" fill="#000000"></path>
                <line x1="181" y1="57" x2="182" y2="63" id="Fill-43" fill="#000000"></line>
                <path d="M182.059443,65 C181.134868,65 180.3169,64.3564155 180.152143,63.4433651 L179.029213,57.204919 C178.845074,56.1815758 179.55062,55.207739 180.605062,55.0291396 C181.660151,54.8474068 182.663551,55.5348579 182.847691,56.5575745 L183.97062,62.7960206 C184.155406,63.8193639 183.449214,64.7932007 182.395418,64.9718001 C182.282349,64.9906 182.169927,65 182.059443,65" id="Fill-45" fill="#000000"></path>
                <path d="M167.914463,82 C166.986044,82 166.170722,81.3606457 166.02312,80.4656705 C165.860184,79.4764238 166.575827,78.5500248 167.621816,78.3953228 L175.853631,77.1824834 L169.462042,43.1305214 C169.27738,42.1442962 169.971938,41.2033939 171.014732,41.0287499 C172.058166,40.8516886 173.052399,41.510985 173.23706,42.4966058 L179.970497,78.371755 C180.060592,78.8515728 179.942383,79.3452897 179.642707,79.7423179 C179.343032,80.1387417 178.887448,80.4046358 178.378191,80.4795695 L168.212222,81.978245 C168.112543,81.9927483 168.012864,82 167.914463,82" id="Fill-47" fill="#000000"></path>
                <path d="M149.886125,58 C149.799483,58 149.711587,57.9938149 149.62369,57.9820631 C148.592785,57.8404235 147.874543,56.9027569 148.018317,55.887776 C148.725259,50.8951341 153.365584,46.8327367 158.187353,47.005302 C159.226419,47.0436499 160.037581,47.9052393 159.998656,48.9288794 C159.95973,49.9531379 159.073855,50.7572056 158.04609,50.7139096 C155.167469,50.6118549 152.185883,53.319089 151.74891,56.4005238 C151.617692,57.3289127 150.810925,58 149.886125,58" id="Fill-49" fill="#000000"></path>
                <path d="M189.057765,49 C188.409118,49 187.774727,48.6915001 187.406016,48.1299194 C185.161347,44.708711 182.560927,43.3238481 179.215956,43.7727432 C178.153886,43.9137541 177.169575,43.2117783 177.01924,42.2013026 C176.869552,41.1914426 177.609567,40.2567064 178.672933,40.1138482 C182.050304,39.6606427 186.879841,40.3447613 190.705627,46.1748552 C191.273274,47.0406254 190.995283,48.1797967 190.084196,48.7198254 C189.764084,48.9094821 189.408981,49 189.057765,49" id="Fill-51" fill="#000000"></path>
                <path d="M136.354744,156 C127.231871,156 118.326797,152.648057 109.69865,145.943569 C109.25762,145.600414 109,145.073318 109,144.514862 L109,87.809253 C109,86.8099423 109.810265,86 110.809974,86 C111.80908,86 112.619949,86.8099423 112.619949,87.809253 L112.619949,143.621694 C128.216497,155.381839 144.183486,155.365555 161.380051,143.569829 L161.380051,136.698889 C161.380051,135.699578 162.190317,134.889636 163.190026,134.889636 C164.189132,134.889636 165,135.699578 165,136.698889 L165,144.514862 C165,145.102869 164.713421,145.654691 164.233174,145.993625 C154.768819,152.663737 145.453485,156 136.354744,156" id="Fill-53" fill="#000000"></path>
                <path d="M138,171 C136.895333,171 136,170.17269 136,169.151951 L136,154.848049 C136,153.82731 136.895333,153 138,153 C139.104667,153 140,153.82731 140,154.848049 L140,169.151951 C140,170.17269 139.104667,171 138,171" id="Fill-55" fill="#000000"></path>
                <path d="M150,163.999679 C150,165.104344 149.104985,166 147.999679,166 C146.895656,166 146,165.104344 146,163.999679 C146,162.895015 146.895656,162 147.999679,162 C149.104985,162 150,162.895015 150,163.999679" id="Fill-57" fill="#000000"></path>
                <path d="M208.148966,285 C200.786711,285 188.266763,282.020045 179.438835,264.157236 C172.507447,250.131148 167.826007,225.710868 173.926524,205.240296 C174.098991,204.660256 174.549828,204.205287 175.128352,204.025838 L187.250716,200.268871 C187.721523,200.123257 188.231664,200.175219 188.663741,200.411465 C189.095819,200.648918 189.412312,201.051321 189.541209,201.526229 C194.211151,218.740118 204.549534,232.870734 220.2677,243.525341 C221.096755,244.087858 221.312794,245.215311 220.750004,246.043076 C220.187215,246.871445 219.0574,247.087752 218.228344,246.52463 C202.323792,235.743744 191.673152,221.537602 186.549953,204.282022 L177.13987,207.19793 C171.976125,225.718722 175.968905,248.942067 182.695147,262.553063 C188.908222,275.125426 198.280785,281.809177 209.119022,281.354812 C221.554249,280.840027 233.324416,271.062127 239.116307,256.436664 C247.067373,232.128767 240.253989,203.092336 220.885558,178.74879 C204.133796,157.693949 181.400126,145.138504 162.975729,146.769262 C161.974811,146.85808 161.096133,146.120946 161.007176,145.124003 C160.918824,144.126455 161.656502,143.246728 162.655605,143.158514 C172.618794,142.27637 183.723297,145.088355 194.759417,151.288738 C205.305971,157.213604 215.323624,165.929306 223.729158,176.494489 C243.87097,201.810811 250.907049,232.136621 242.549928,257.616079 C242.539035,257.649914 242.526932,257.68375 242.513619,257.716377 C236.201904,273.701912 223.15245,284.402438 209.269099,284.976436 C208.91085,284.991541 208.536867,285 208.148966,285" id="Fill-59" fill="#000000"></path>
                <path d="M198.841601,229 C198.493843,229 198.142397,228.896381 197.830275,228.680076 C196.979925,228.090094 196.74399,226.885522 197.303721,225.989217 L203.616218,215.874694 C204.17595,214.979036 205.318761,214.73035 206.169725,215.319684 C207.020075,215.909666 207.25601,217.114238 206.696279,218.010543 L200.383168,228.124418 C200.029265,228.691733 199.44127,229 198.841601,229" id="Fill-61" fill="#000000"></path>
                <path d="M203.925803,234 C203.562144,234 203.19463,233.904 202.868236,233.703599 C201.979007,233.156997 201.732284,232.040993 202.317608,231.210589 L212.462148,216.810534 C213.047472,215.980131 214.242534,215.75033 215.131764,216.296332 C216.020993,216.842334 216.267716,217.958939 215.682392,218.789342 L205.537852,233.188797 C205.167768,233.714399 204.552889,234 203.925803,234" id="Fill-63" fill="#000000"></path>
                <path d="M209.795504,239 C209.45645,239 209.113802,238.902618 208.809492,238.699333 C207.980427,238.144863 207.750398,237.012795 208.296119,236.17044 L213.701212,227.822355 C214.246933,226.979999 215.360539,226.746891 216.190203,227.300143 C217.019867,227.854613 217.249297,228.98668 216.704175,229.829645 L211.298483,238.177121 C210.953438,238.710288 210.380162,239 209.795504,239" id="Fill-65" fill="#000000"></path>
                <path d="M185.82322,184 C185.211316,184 184.613374,183.702128 184.269178,183.160914 C183.743475,182.33297 184.011183,181.249957 184.868334,180.741581 L204.225266,169.260006 C205.083025,168.752215 206.204242,169.010802 206.730553,169.838746 C207.256863,170.666691 206.988548,171.749703 206.131396,172.25808 L186.774464,183.739655 C186.477011,183.915564 186.147991,184 185.82322,184" id="Fill-67" fill="#000000"></path>
                <path d="M146.791328,209 C146.190127,209 145.602645,208.687342 145.264469,208.119263 C144.747962,207.250836 145.010987,206.113449 145.853145,205.579837 L165.274068,193.272912 C166.115629,192.739916 167.218427,193.011338 167.735531,193.88038 C168.252038,194.749423 167.989013,195.886195 167.146855,196.420422 L147.725932,208.726732 C147.433682,208.911372 147.110417,209 146.791328,209" id="Fill-69" fill="#000000"></path>
                <path d="M175.76249,208 C175.27066,208 174.781241,207.798205 174.423821,207.40193 L167.7142,199.938556 C164.082132,195.897774 163.004446,190.134113 164.967546,185.254448 C166.703417,180.940542 170.485565,177.92154 175.083813,177.178372 C179.71702,176.430937 184.223653,178.06054 187.14088,181.539831 C189.073241,183.843711 190.086435,186.893806 189.994216,190.127406 L189.643426,202.433257 C189.614495,203.442842 188.783929,204.252462 187.783995,204.208567 C186.78587,204.179303 185.999906,203.337372 186.028838,202.327787 L186.379628,190.021936 C186.445929,187.692452 185.736512,185.520257 184.383377,183.905895 C182.290689,181.409975 179.028096,180.246757 175.653998,180.790568 C172.265435,181.338036 169.591109,183.467555 168.317535,186.633484 C166.875798,190.216416 167.688885,194.473015 170.38973,197.477386 L177.099954,204.940151 C177.771399,205.688195 177.717153,206.844707 176.978805,207.52447 C176.632234,207.842709 176.196458,208 175.76249,208" id="Fill-71" fill="#000000"></path>
                <path d="M138.448473,250.94465 L129.512093,237.913585 C128.630646,236.628362 128.914502,234.862623 130.152711,233.93079 C131.395701,232.995308 133.144851,233.242256 134.090838,234.486119 L136.962264,238.260286 C138.156849,239.831385 140.338057,239.602685 141.588218,238.077812 C144.395104,234.655211 137.252096,221.650302 137.252096,221.650302 C151.781333,211.224964 159.221344,233.758656 149.823026,251" id="Fill-73" fill="#F6B9A2"></path>
                <path d="M149.933276,253 C149.635234,253 149.332951,252.927118 149.053082,252.774784 C148.175918,252.294483 147.859097,251.20365 148.346141,250.338033 C154.347571,239.67045 153.108152,227.435914 148.241948,223.127541 C145.479,220.680634 142.199931,221.516979 139.581764,222.999103 C140.26084,224.304996 141.261583,226.331341 142.145411,228.526747 C144.402535,234.133247 144.668471,237.672182 142.982594,239.664476 C141.96489,240.867021 140.479525,241.571343 138.965689,241.542071 C137.571797,241.51698 136.326926,240.895695 135.461271,239.792317 L132.550514,236.085516 C132.199164,235.638071 131.538867,235.547268 131.076054,235.884195 C130.609,236.224707 130.503595,236.859135 130.836166,237.328683 L139.894951,250.127154 C140.469227,250.939006 140.267503,252.056125 139.444859,252.62245 C138.621608,253.18997 137.489411,252.990442 136.914529,252.17859 L127.855745,239.380716 C126.387342,237.307177 126.852579,234.50542 128.914643,233.001791 C130.952475,231.514889 133.872319,231.913945 135.424319,233.891304 L138.335076,237.598106 C138.521655,237.835269 138.749427,237.953552 139.032325,237.958331 C139.440012,237.980435 139.873143,237.745063 140.192387,237.367513 C141.262189,236.103437 139.075941,229.378027 135.605446,223.25598 C135.151113,222.455478 135.383732,221.44589 136.144587,220.916603 C141.499047,217.193672 146.793535,217.027598 150.670506,220.460197 C156.679811,225.781145 158.456554,239.755279 151.524046,252.077033 C151.19208,252.666657 150.57237,253 149.933276,253" id="Fill-75" fill="#000000"></path>
                <path d="M77.716141,224.695512 C56.2124407,276.480664 124.663674,299.770898 137.774207,251.058763 L149.313902,251.113887 C149.84378,253.925216 150.093562,257.279911 149.968065,260.959293 C149.082914,286.96454 129.856961,308.634368 104.279749,313.528298 C8.41492106,331.87069 -2.60277734,173.230807 110.370918,145" id="Fill-77" fill="#FFB298"></path>
                <path d="M89.9868162,317 C76.6362312,317 64.6425356,313.251903 54.7450832,305.89655 C42.6404241,296.902087 33.9020567,282.493099 30.1395533,265.324336 C24.9797555,241.780044 29.2536554,215.61014 41.8672987,193.525262 C51.9800442,175.818628 72.066831,152.68897 110.33292,143.055255 C111.30204,142.809995 112.284428,143.404324 112.526859,144.379898 C112.76929,145.356079 112.180098,146.345008 111.210978,146.588447 C74.1781508,155.912552 54.7673964,178.246332 45.0038238,195.341032 C32.8346371,216.64885 28.7042659,241.870498 33.6728932,264.539385 C37.2466382,280.847919 45.4935101,294.495024 56.8937928,302.966186 C69.5568872,312.376497 85.9746452,315.475021 104.372256,311.928473 C116.335798,309.622792 127.313937,303.294615 135.284004,294.111351 C143.300506,284.874665 147.941671,273.10525 148.351753,260.972196 C148.446434,258.149285 148.316172,255.41865 147.971824,252.980626 L139.39568,252.939345 C135.281592,266.822604 126.089722,276.269339 114.008582,278.955658 C101.823716,281.665652 88.6612861,277.061575 80.4759265,267.228132 C71.2623464,256.158678 69.856609,240.400156 76.6187424,223.993275 C77.0010837,223.06384 78.0594574,222.623708 78.9827452,223.009203 C79.906033,223.394697 80.3432529,224.460118 79.9609116,225.389554 C71.434219,246.075725 78.3615914,259.016192 83.2500114,264.889061 C90.5778169,273.692902 102.34657,277.817994 113.228823,275.39879 C119.755762,273.947874 131.431041,268.80107 136.283278,250.638521 C136.495555,249.842642 137.212596,249.290201 138.030348,249.290201 L138.038791,249.290201 L149.517472,249.346052 C150.384072,249.349695 151.126441,249.972557 151.286855,250.82975 C151.856146,253.874245 152.091943,257.424435 151.967712,261.09604 C151.529286,274.06504 146.572117,286.641261 138.009241,296.508094 C129.510289,306.300863 117.806063,313.047924 105.052509,315.505982 C99.8752227,316.504018 94.8414648,317 89.9868162,317" id="Fill-79" fill="#000000"></path>
                <g id="Group-83" transform="translate(254.000000, 97.000000)">
                    <mask id="mask-2" fill="white">
                        <use xlink:href="#path-1"></use>
                    </mask>
                    <g id="Clip-82"></g>
                </g>
                <path d="M243.201038,152 C242.631513,152 242.071591,151.724004 241.721714,151.208893 L231.322639,135.897559 C230.754915,135.060965 230.955959,133.912108 231.772137,133.329996 C232.588916,132.749113 233.710562,132.955034 234.278286,133.791014 L244.677361,149.102347 C245.245085,149.938327 245.044041,151.087799 244.227863,151.669296 C243.913994,151.892429 243.555716,152 243.201038,152" id="Fill-84" fill="#000000"></path>
                <path d="M238,92 L239.355734,103 L248,96.8837287 L238,92 Z M238.087835,109 C237.829763,109 237.570432,108.946433 237.326208,108.837385 C236.717537,108.565722 236.294551,107.989235 236.213983,107.319643 L234.014079,89.1456405 C233.929734,88.4486271 234.228719,87.7611793 234.793959,87.3536847 C235.358569,86.9474656 236.098165,86.8862457 236.720684,87.1955335 L252.94395,95.2650737 C253.541291,95.562245 253.939729,96.1553122 253.993861,96.827455 C254.047363,97.4995979 253.748378,98.1506964 253.205798,98.5409729 L239.182436,108.646073 C238.857643,108.880111 238.474313,109 238.087835,109 L238.087835,109 Z" id="Fill-86-Copy" fill="#FD4D00" transform="translate(244.000000, 98.000000) rotate(77.000000) translate(-244.000000, -98.000000) "></path>
                <g id="Group-88" transform="translate(0.000000, 82.000000)">
                    <mask id="mask-4" fill="white">
                        <use xlink:href="#path-3"></use>
                    </mask>
                    <g id="Clip-87"></g>
                    <path d="M4,5 L5.35573438,16 L14,9.88372868 L4,5 Z M4.08783455,22 C3.8297629,22 3.57043235,21.9464326 3.32620844,21.8373848 C2.717537,21.5657218 2.29455126,20.9892349 2.21398255,20.3196429 L0.0140790284,2.14564047 C-0.0702663425,1.44862708 0.228719114,0.761179286 0.793958987,0.353684722 C1.35856942,-0.0525344278 2.09816502,-0.113754268 2.72068421,0.195533468 L18.9439498,8.2650737 C19.5412913,8.56224501 19.9397287,9.15531221 19.9938608,9.82745504 C20.0473635,10.4995979 19.748378,11.1506964 19.2057981,11.5409729 L5.18243605,21.6460728 C4.85764342,21.8801111 4.4743126,22 4.08783455,22 L4.08783455,22 Z" id="Fill-86" fill="#FD4D00" mask="url(#mask-4)"></path>
                    <path d="M4,5 L5.35573438,16 L14,9.88372868 L4,5 Z M4.08783455,22 C3.8297629,22 3.57043235,21.9464326 3.32620844,21.8373848 C2.717537,21.5657218 2.29455126,20.9892349 2.21398255,20.3196429 L0.0140790284,2.14564047 C-0.0702663425,1.44862708 0.228719114,0.761179286 0.793958987,0.353684722 C1.35856942,-0.0525344278 2.09816502,-0.113754268 2.72068421,0.195533468 L18.9439498,8.2650737 C19.5412913,8.56224501 19.9397287,9.15531221 19.9938608,9.82745504 C20.0473635,10.4995979 19.748378,11.1506964 19.2057981,11.5409729 L5.18243605,21.6460728 C4.85764342,21.8801111 4.4743126,22 4.08783455,22 L4.08783455,22 Z" id="Fill-86" fill="#FD4D00" mask="url(#mask-4)"></path>
                </g>
                <path d="M67.759002,135 C67.6254504,135 67.4901415,134.984464 67.3548326,134.9516 C66.4100132,134.725137 65.8242603,133.759532 66.0474321,132.796317 L70.5319561,113.382036 C70.7539565,112.418821 71.6999474,111.820696 72.6453525,112.048354 C73.5901719,112.275415 74.175339,113.240422 73.9527529,114.204235 L69.4676432,133.617918 C69.2772735,134.443701 68.5556259,135 67.759002,135" id="Fill-89" fill="#000000"></path>
                <path d="M238.815106,47 C238.160452,47 237.556016,46.6537617 237.234135,46.0931288 C236.906808,45.5235876 236.923749,44.8233903 237.278303,44.2698841 L246.524534,29.8335874 C247.05818,29.0003586 248.178715,28.7503306 249.026982,29.2729545 C249.875854,29.7967662 250.131786,30.8966519 249.598141,31.7298806 L242.136174,43.3802358 L256.153756,43.1444611 C256.164042,43.1438673 256.174933,43.1438673 256.185218,43.1438673 C257.17325,43.1438673 257.982794,43.9218642 257.999735,44.8952511 C258.016676,45.8787342 257.218628,46.6905829 256.216075,46.7072119 L238.845963,47 C238.835677,47 238.825392,47 238.815106,47" id="Fill-91" fill="#000000"></path>
                <path d="M87.6077803,333 C71.4526376,333 56.5927887,328.275393 43.9329412,318.866882 C31.7345307,309.801614 22.201192,296.755938 16.3635889,281.141102 C10.6192421,265.774738 8.71354321,248.636874 10.8517773,231.580416 C13.3036917,212.024661 21.0191379,193.30727 33.1636535,177.450645 C46.8002701,159.64695 65.4545609,145.815156 88.6099829,136.338604 C90.9317018,135.388458 93.5834512,136.506277 94.5311533,138.836686 C95.4782499,141.166488 94.3634131,143.82556 92.0410886,144.776314 C51.0767383,161.541167 24.7687684,193.594015 19.864334,232.717675 C15.8985184,264.349519 27.4683571,295.290624 49.3399908,311.54456 C69.8321577,326.773627 97.2713145,327.908457 126.602242,314.740064 C128.892472,313.71155 131.578133,314.741887 132.602741,317.038276 C133.62735,319.334664 132.60153,322.030187 130.312511,323.058095 C115.531991,329.693929 101.116018,333 87.6077803,333" id="Fill-93" fill="#FD4D00"></path>
            </g>
        </g>
    </g>
</svg>