<?xml version="1.0" encoding="UTF-8"?>
<svg width="24px" height="24px" viewBox="0 0 24 24" version="1.1" xmlns="http://www.w3.org/2000/svg" xmlns:xlink="http://www.w3.org/1999/xlink">
    <!-- Generator: Sketch 63.1 (92452) - https://sketch.com -->
    <title>Link/linkedin</title>
    <desc>Created with Sketch.</desc>
    <g id="Link/linkedin" stroke="none" stroke-width="1" fill="none" fill-rule="evenodd">
        <path d="M4.40357479,9.13049046 L7.52210724,9.13049046 L7.52210724,19.9989755 L4.40357479,19.9989755 L4.40357479,9.13049046 Z M5.88334901,7.77103342 L5.8607714,7.77103342 C4.73189087,7.77103342 4,6.94019721 4,5.88807786 C4,4.81444487 4.75352775,4 5.90498589,4 C7.05550329,4 7.76293509,4.81239595 7.7855127,5.88500448 C7.7855127,6.93712383 7.05550329,7.77103342 5.88334901,7.77103342 L5.88334901,7.77103342 Z M20,20 L16.4637817,20 L16.4637817,14.3746959 C16.4637817,12.9025483 15.9106303,11.8985786 14.6942615,11.8985786 C13.7638758,11.8985786 13.2464722,12.5757459 13.0056444,13.2303752 C12.915334,13.4639519 12.929445,13.7907543 12.929445,14.1185811 L12.929445,20 L9.4261524,20 C9.4261524,20 9.47130762,10.0361122 9.4261524,9.13049046 L12.929445,9.13049046 L12.929445,10.8362146 C13.1364064,10.0904085 14.2558796,9.02599565 16.042333,9.02599565 C18.2587018,9.02599565 20,10.5903445 20,13.9556922 L20,20 L20,20 Z" id="Shape" fill="#000000"></path>
    </g>
</svg>