<?xml version="1.0" encoding="UTF-8"?>
<svg width="24" height="24" viewBox="0 0 24 24" fill="none" xmlns="http://www.w3.org/2000/svg">
<mask id="mask0_993_120" style="mask-type:alpha" maskUnits="userSpaceOnUse" x="0" y="0" width="24" height="24">
<rect width="24" height="24" fill="#D9D9D9"/>
</mask>
<g mask="url(#mask0_993_120)">
<path d="M14.8286 16.2423L12.0002 19.0707C11.022 20.0489 9.84348 20.5379 8.46462 20.5379C7.08576 20.5379 5.90725 20.0489 4.92909 19.0707C3.95092 18.0925 3.46184 16.914 3.46184 15.5352C3.46184 14.1563 3.95092 12.9778 4.92909 11.9996L7.75752 9.1712L9.17173 10.5854L6.3433 13.4138C5.75405 14.0031 5.45942 14.7102 5.45942 15.5352C5.45942 16.3601 5.75405 17.0672 6.3433 17.6565C6.93256 18.2457 7.63966 18.5404 8.46462 18.5404C9.28958 18.5404 9.99669 18.2457 10.5859 17.6565L13.4144 14.828L14.8286 16.2423ZM9.87884 15.5352L8.46462 14.1209L14.1215 8.46409L15.5357 9.8783L9.87884 15.5352ZM16.2428 14.828L14.8286 13.4138L17.657 10.5854C18.2463 9.99615 18.5409 9.28905 18.5409 8.46409C18.5409 7.63913 18.2463 6.93202 17.657 6.34277C17.0678 5.75351 16.3606 5.45888 15.5357 5.45888C14.7107 5.45889 14.0036 5.75351 13.4144 6.34277L10.5859 9.1712L9.17173 7.75698L12.0002 4.92855C12.9783 3.95039 14.1568 3.46131 15.5357 3.46131C16.9145 3.46131 18.0931 3.95039 19.0712 4.92855C20.0494 5.90672 20.5385 7.08523 20.5385 8.46409C20.5385 9.84295 20.0494 11.0215 19.0712 11.9996L16.2428 14.828Z" fill="#A0A0A0"/>
</g>
</svg>
