<?xml version="1.0" encoding="UTF-8"?>
<svg width="36px" height="36px" viewBox="0 0 36 36" version="1.1" xmlns="http://www.w3.org/2000/svg" xmlns:xlink="http://www.w3.org/1999/xlink">
    <!-- Generator: Sketch 63.1 (92452) - https://sketch.com -->
    <title>Combined Shape</title>
    <desc>Created with Sketch.</desc>
    <g id="Profile-Page" stroke="none" stroke-width="1" fill="none" fill-rule="evenodd">
        <g id="ProfilePage_Mentee_EditMode_Profilenotapproved" transform="translate(-446.000000, -134.000000)" fill="#5C5D67">
            <g id="Group-5" transform="translate(420.000000, 112.000000)">
                <g id="043-approval" transform="translate(26.000000, 22.000000)">
                    <path d="M9.73828125,0 C10.1265469,0 10.4414062,0.314789063 10.4414062,0.703125 C10.4414062,1.05909961 10.1768369,1.35327441 9.83367863,1.3998315 L9.73828125,1.40625 L5.90625,1.40625 C5.55085547,1.40625 5.25619727,1.67129199 5.20955558,2.01409578 L5.203125,2.109375 L5.203125,15.9148828 L13.7859609,22.9225078 L15.9391406,21.3645234 C17.1130246,20.5150145 18.671411,20.4745617 19.8820357,21.243165 L20.0609297,21.3645234 L22.2140391,22.9224375 L30.796875,15.9148125 L30.796875,2.109375 C30.796875,1.75398047 30.531833,1.45932227 30.1890292,1.41268058 L30.09375,1.40625 L15.2226562,1.40625 C14.8343906,1.40625 14.5195312,1.09146094 14.5195312,0.703125 C14.5195312,0.347150391 14.7841006,0.0529755859 15.1272589,0.00641849772 L15.2226562,0 L30.09375,0 C31.2062894,0 32.1204311,0.86577044 32.1978186,1.95895477 L32.203125,2.109375 L32.203125,10.0420312 L35.7090469,12.5788359 C35.8887656,12.7088437 35.9883984,12.9080391 35.9987344,13.1135625 L35.9996836,13.130209 L35.9996836,13.130209 L36,13.1484375 L36,32.484375 C36,34.3582734 34.5262789,35.8944578 32.6769768,35.994788 L32.484375,36 L3.515625,36 C1.64172656,36 0.105542187,34.5262789 0.00521200521,32.6769768 L0,32.484375 L0,13.1484375 C0,12.9475045 0.0846160714,12.7666665 0.21993094,12.6386452 L0.29165625,12.5791875 L0.290953125,12.5788359 L3.796875,10.0419609 L3.796875,2.109375 C3.796875,0.996835598 4.66264544,0.08269388 5.75582977,0.00530639486 L5.90625,0 L9.73828125,0 Z M16.9146349,22.4039025 L16.7634844,22.5037969 L1.6396875,33.4470234 C1.96515904,34.0786406 2.59976559,34.5260136 3.34241738,34.5867015 L3.515625,34.59375 L32.484375,34.59375 C33.2424593,34.59375 33.9079667,34.1914925 34.2798076,33.5894185 L34.3603125,33.4470234 L33.2242031,32.625 L24.2578125,32.625 C23.8695469,32.625 23.5546875,32.3102109 23.5546875,31.921875 C23.5546875,31.5659004 23.8192568,31.2717256 24.1624151,31.2251685 L24.2578125,31.21875 L31.2807656,31.21875 L19.2365156,22.5037969 C18.5462719,22.004325 17.6344256,21.9710269 16.9146349,22.4039025 Z M20.5,31 C20.6315,31 20.7605,31.0535 20.8535,31.1465 C20.9465,31.2395 21,31.3685 21,31.5 C21,31.6315 20.94645,31.7605 20.8535,31.8535 C20.7605,31.9465 20.6315,32 20.5,32 C20.36805,32 20.2395,31.9465 20.1465,31.8535 C20.053,31.7605 20,31.6315 20,31.5 C20,31.3685 20.053,31.2395 20.1465,31.1465 C20.2395,31.0535 20.368,31 20.5,31 Z M1.40625,14.6302031 L1.40625,31.8801797 L12.6071719,23.7754688 L1.40625,14.6302031 Z M34.59375,14.6302031 L23.3928281,23.7753984 L34.59375,31.8801797 L34.59375,14.6302031 Z M18,3.796875 C21.8955938,3.796875 25.0649297,6.96628125 25.0649297,10.861875 C25.0649297,14.7574688 21.8955938,17.9268047 18,17.9268047 C14.1044063,17.9268047 10.9350703,14.7573984 10.9350703,10.8618047 C10.9350703,6.96621094 14.1044063,3.796875 18,3.796875 Z M18,5.203125 C14.8797422,5.203125 12.3413203,7.7416875 12.3413203,10.861875 C12.3413203,13.9820625 14.8797422,16.5205547 18,16.5205547 C21.1202578,16.5205547 23.6586797,13.9819922 23.6586797,10.8618047 C23.6586797,7.74161719 21.1202578,5.203125 18,5.203125 Z M32.203125,11.7777656 L32.203125,14.7666797 L34.1439609,13.1820469 L32.203125,11.7777656 Z M3.796875,11.7777656 L1.85603906,13.1820469 L3.796875,14.7666797 L3.796875,11.7777656 Z M21.4652813,8.39095313 C21.7123945,8.63806641 21.7371059,9.02340492 21.5394152,9.29816325 L21.4652813,9.3853125 L17.5177969,13.3327969 C17.3858906,13.4646328 17.2070859,13.5387422 17.0206172,13.5387422 C16.8714422,13.5387422 16.7271722,13.4913122 16.6078952,13.4048402 L16.5234375,13.3327969 L14.5346484,11.3441484 C14.2600781,11.0695078 14.2600781,10.6242891 14.5346484,10.3497188 C14.7818883,10.1026055 15.1671255,10.0778941 15.4419136,10.2755848 L15.5290781,10.3497188 L17.0206172,11.8412578 L20.4708516,8.39095313 C20.7455625,8.11638281 21.1906406,8.11638281 21.4652813,8.39095313 Z M12.5,0 C12.6315,0 12.7605,0.0535 12.85345,0.1465 C12.9465,0.2395 13,0.3685 13,0.5 C13,0.6315 12.94645,0.7605 12.85345,0.8535 C12.7605,0.9465 12.6315,1 12.5,1 C12.3685,1 12.23955,0.9465 12.1465,0.8535 C12.05345,0.7605 12,0.632 12,0.5 C12,0.3685 12.0535,0.2395 12.1465,0.1465 C12.2395,0.0535 12.36795,0 12.5,0 Z" id="Combined-Shape"></path>
                </g>
            </g>
        </g>
    </g>
</svg>