<svg width="14" height="21" viewBox="0 0 14 21" fill="none" xmlns="http://www.w3.org/2000/svg">
<path d="M6.5 0.535156C4.77609 0.535156 3.12279 1.23578 1.90381 2.4829C0.684819 3.73001 0 5.42147 0 7.18516C0 12.1727 6.5 19.5352 6.5 19.5352C6.5 19.5352 13 12.1727 13 7.18516C13 5.42147 12.3152 3.73001 11.0962 2.4829C9.87721 1.23578 8.22391 0.535156 6.5 0.535156ZM6.5 9.56016C6.04086 9.56016 5.59204 9.42087 5.21028 9.1599C4.82853 8.89893 4.53098 8.528 4.35528 8.09403C4.17958 7.66006 4.1336 7.18252 4.22318 6.72182C4.31275 6.26111 4.53384 5.83793 4.8585 5.50578C5.18316 5.17363 5.5968 4.94743 6.04711 4.85579C6.49742 4.76415 6.96419 4.81118 7.38837 4.99094C7.81256 5.1707 8.17512 5.47511 8.4302 5.86568C8.68528 6.25624 8.82143 6.71543 8.82143 7.18516C8.82143 7.49705 8.76138 7.80588 8.64472 8.09403C8.52806 8.38218 8.35706 8.644 8.1415 8.86453C7.92593 9.08507 7.67002 9.26002 7.38837 9.37937C7.10672 9.49872 6.80485 9.56016 6.5 9.56016Z" fill="black"/>
</svg>
