<svg xmlns="http://www.w3.org/2000/svg" width="20" height="20" viewBox="0 0 20 20" fill="none">
  <path d="M10.0003 1.66602C6.77533 1.66602 4.16699 4.27435 4.16699 7.49935C4.16699 11.2854 8.53552 16.6316 9.71166 18.0024C9.86596 18.1823 10.1347 18.1823 10.289 18.0024C11.4651 16.6316 15.8337 11.2854 15.8337 7.49935C15.8337 4.27435 13.2253 1.66602 10.0003 1.66602ZM5.83366 7.49935C5.83366 5.19935 7.70033 3.33268 10.0003 3.33268C12.3003 3.33268 14.167 5.19935 14.167 7.49935C14.167 9.76028 12.0371 13.0788 10.3132 15.3299C10.1553 15.5361 9.8464 15.5352 9.68955 15.3282C7.9906 13.0869 5.83366 9.7354 5.83366 7.49935Z" fill="black"/>
  <path d="M10.0003 9.58268C11.1509 9.58268 12.0837 8.64994 12.0837 7.49935C12.0837 6.34876 11.1509 5.41602 10.0003 5.41602C8.84973 5.41602 7.91699 6.34876 7.91699 7.49935C7.91699 8.64994 8.84973 9.58268 10.0003 9.58268Z" fill="black"/>
</svg>
