<?xml version="1.0" encoding="UTF-8"?>
<svg width="24px" height="24px" viewBox="0 0 24 24" version="1.1" xmlns="http://www.w3.org/2000/svg" xmlns:xlink="http://www.w3.org/1999/xlink">
    <!-- Generator: Sketch 63.1 (92452) - https://sketch.com -->
    <title>Link/Meetup</title>
    <desc>Created with Sketch.</desc>
    <g id="Link/Meetup" stroke="none" stroke-width="1" fill="none" fill-rule="evenodd">
        <g id="2111553" transform="translate(4.000000, 5.000000)" fill="#000000" fill-rule="nonzero">
            <path d="M7.5691807,1.51043782 C6.80635302,1.55765538 5.79013852,0.0515541656 4.07444304,0.767455665 C2.43209638,1.45280463 2.30073532,2.74781558 0.515025063,8.80346736 C0.097603622,10.2199941 -0.366494338,11.2865554 0.450344744,12.3822805 C1.13648957,13.3030229 2.3620816,13.51203 3.36229272,12.9898593 C3.621014,12.8551504 3.81505496,12.5169894 4.07444304,12.1121683 C4.28515418,11.671934 6.85703038,4.68720733 6.85703038,4.68442983 C7.15709372,4.05740843 8.32000585,4.12754039 8.15130357,5.35936315 C8.15130357,5.76279552 6.33892102,10.2665173 6.33892102,10.491495 C6.120875,12.0823101 8.1266317,12.2392391 8.73342644,10.7616072 C8.79810676,10.6942528 9.05682804,10.0866739 9.5749374,9.0062251 C12.1161405,3.70327675 11.158605,5.7690449 11.9047625,4.21155987 C12.1634838,3.87409321 12.4222051,3.67133546 12.6169128,3.67133546 C12.9403144,3.67133546 13.1343554,3.94144767 13.0696751,4.41431762 C13.0696751,4.95731953 11.1546042,8.51807888 10.6104893,10.2213828 C10.3377651,11.644159 11.0472482,12.913478 12.2281641,13.5974382 C12.5949082,13.8522741 14.8233786,14.2841759 15.5288608,13.7321471 C16.2643494,13.4766168 16.0576391,12.3704761 15.4641805,12.2468772 C14.8187109,11.9101049 14.5013106,12.1961878 13.6517979,11.8420561 C11.7840704,11.062272 15.9662865,4.621936 15.7235686,2.59088664 C15.5295276,1.30768008 14.8820576,0.700101208 13.5877844,0.632746751 C12.816955,0.632746751 12.7336041,0.997988447 12.3588584,0.954937144 C11.9841126,0.911885842 11.2059483,-0.01441154 10.0943804,0.000170352835 C8.98281242,0.0147522456 8.16930737,1.47294153 7.5691807,1.51043782 L7.5691807,1.51043782 Z" id="Path"></path>
        </g>
    </g>
</svg>