<?xml version="1.0" encoding="UTF-8"?>
<svg width="90px" height="116px" viewBox="0 0 90 116" version="1.1" xmlns="http://www.w3.org/2000/svg" xmlns:xlink="http://www.w3.org/1999/xlink">
    <!-- Generator: Sketch 64 (93537) - https://sketch.com -->
    <title>Group</title>
    <desc>Created with Sketch.</desc>
    <defs>
        <polygon id="path-1" points="-3.25260652e-18 -1.58414948e-14 6 -1.58414948e-14 6 6 -3.25260652e-18 6"></polygon>
        <polygon id="path-3" points="0 9.32587341e-15 7 9.32587341e-15 7 7 0 7"></polygon>
    </defs>
    <g id="Landing-Pages" stroke="none" stroke-width="1" fill="none" fill-rule="evenodd">
        <g id="Artboard" transform="translate(-1387.000000, -133.000000)">
            <g id="Group" transform="translate(1372.000000, 133.000000)">
                <rect id="Rectangle" x="0" y="0" width="124" height="116"></rect>
                <path d="M61.8777826,0 C53.6608939,0 47,6.87307029 47,15.3517002 C47,17.3469398 47.3728167,19.2513192 48.0440549,21 L74,6.45671771 C71.3028581,2.55037639 66.8803356,0 61.8777826,0" id="Fill-7" fill="#FD4D00"></path>
                <path d="M50.6413189,14 C50.5120933,14 50.3815839,13.9635194 50.2684045,13.8877519 C49.9802141,13.6947252 49.9136757,13.3190949 50.1197094,13.0488977 C51.348423,11.4393399 53.2453019,10.4212895 55.6051681,10.1049904 C58.9830074,9.65279084 62.9663246,10.6854735 65.7545183,12.7370083 C66.0332949,12.9420615 66.0818615,13.3200971 65.8629908,13.5812744 C65.6439062,13.8424518 65.2406109,13.8879523 64.9616204,13.6826986 C62.4742401,11.8528539 58.7872433,10.8931325 55.7870254,11.2954217 C53.7825298,11.5642159 52.183683,12.4124909 51.1637843,13.748444 C51.0386237,13.9126068 50.841362,14 50.6413189,14" id="Fill-1" fill="#000000"></path>
                <path d="M75.9974024,72.5132891 C75.0762532,78.0992681 75.1913969,82.7542505 76.3428333,86.4782365 C78.069988,92.0642155 81.3515818,98 84.9786066,98 C88.6056313,98 95.1884694,96.9519471 97.3375876,92.0642155 C99.4867057,87.1764839 101.576429,77.5755825 98.2918655,72.1641654 C95.007302,66.7527483 90.1600705,57.5009707 88.6056313,56.8027233 C87.0511922,56.1044759 81.5242973,52.775527 79.4517117,51.4724501 C78.069988,50.6037322 75.6519714,50.1129155 72.1976621,50 L66.4980518,52.6132391 L63.0437425,52.9623627 C62.0074497,52.9623627 60.9135851,52.9623627 59.7621486,52.9623627 C58.6107122,52.9623627 56.5381266,51.9749085 53.5443919,50 L38,76.004526 L38.6908619,82.2887523 L58.034994,63.785197 C70.9919561,63.785197 74.4462654,63.785197 68.3979219,63.785197 C68.3979219,63.785197 74.9611096,73.9097838 74.9611096,73.9097838 C75.2322428,73.9097838 75.682518,87.3850174 75.2920351,82.9869997 C75.120512,81.0551306 75.3556344,77.5638938 75.9974024,72.5132891 Z" id="Path-2" fill="#FFB298"></path>
                <path d="M52.3897306,21 C52.1790099,21 51.9741934,20.8730055 51.8607911,20.6457897 C51.0938492,19.1076405 50.8597151,17.6047938 51.0777652,15.6207424 C51.1205201,15.2312296 51.4255052,14.9556801 51.7612332,15.0059092 C52.0957396,15.0556645 52.3323168,15.4117702 52.2893583,15.801283 C52.1057157,17.4725869 52.2877295,18.669557 52.9174485,19.9323936 C53.0866358,20.2719143 52.9874851,20.7069177 52.6957336,20.9038064 C52.5992297,20.9689622 52.4937675,21 52.3897306,21" id="Fill-3" fill="#000000"></path>
                <path d="M66.9933083,3.52459016 C58.3922469,3.52459016 51.3944954,10.5212737 51.3944954,19.1216475 C51.3944954,19.9387544 51.4581171,20.7547633 51.5838711,21.557377 L76.8440367,7.28139332 C73.9804207,4.78769115 70.6708143,3.52459016 66.9933083,3.52459016 M50.9994652,23 C50.9101251,23 50.8207851,22.9805273 50.7373728,22.9415819 C50.5553055,22.8564708 50.4227774,22.6877803 50.3793776,22.4862706 C50.1276589,21.3185647 50,20.1147577 50,18.9087627 C50,9.61590636 57.5320846,2.05568319 66.7902103,2.05568319 C70.9193288,2.05568319 74.6144495,3.53013893 77.7798812,6.43901105 L87.3898626,1 L88,2.15151515 L78.0038664,7.80866426 C77.996245,7.81325894 77.9886236,7.81763483 77.9807904,7.82179193 L51.3045339,22.9192649 C51.2096895,22.9730883 51.1046832,23 50.9994652,23" id="Fill-5" fill="#000000"></path>
                <path d="M67.5011525,92.6801549 L41.8240142,105.703682 C40.476984,106.387115 38.8312044,105.848156 38.1484398,104.500227 L30.296115,88.9978723 C29.6131377,87.6499432 30.1517371,86.0032781 31.49898,85.3198451 L57.1759056,72.296318 C58.5231485,71.612885 60.1687154,72.1518438 60.8516927,73.4997729 L68.7040175,89.0021277 C69.3867821,90.3502696 68.8481827,91.9969347 67.5011525,92.6801549" id="Fill-9" fill="#000000"></path>
                <path d="M59.0428737,72.4257426 C58.7195314,72.4257426 58.3983052,72.5039507 58.1016259,72.6588421 L32.5478481,85.9932248 C32.0505611,86.2526842 31.6815107,86.6957912 31.5079893,87.2412877 C31.3346795,87.7865663 31.3780599,88.3688795 31.6300892,88.8806092 L39.4446891,104.752509 C39.6967184,105.264457 40.1271361,105.644387 40.6570112,105.823024 C41.1870979,106.001661 41.7525238,105.956784 42.2493875,105.697543 L67.8029537,92.3631598 C68.3002406,92.1037004 68.6695027,91.6605935 68.8428124,91.1153148 C69.0161222,90.5700362 68.9729535,89.9877231 68.7209242,89.4759933 L60.9063243,73.6038756 C60.654295,73.091928 60.2236657,72.7117797 59.6940022,72.5333605 C59.4804862,72.46147 59.2610451,72.4257426 59.0428737,72.4257426 M41.1526795,107 C40.8021451,107 40.4503438,106.942896 40.1076225,106.827386 C39.2572598,106.541217 38.566327,105.931967 38.1617343,105.111456 L30.3636111,89.2924579 C29.9590184,88.4719466 29.889545,87.5385308 30.1678608,86.6643899 C30.4461767,85.7900318 31.0387065,85.0796023 31.8367002,84.6635929 L57.336599,71.3738714 C58.1345927,70.9578619 59.0423923,70.8864282 59.8925438,71.1725975 C60.7426952,71.4585497 61.4338392,72.0680166 61.8382208,72.8885279 L69.636344,88.7077432 C70.0409367,89.5282545 70.1104101,90.4614532 69.8323054,91.3358112 C69.5539896,92.2099522 68.9612486,92.9205988 68.1632549,93.3363911 L42.6635672,106.626113 C42.1871783,106.874502 41.6715127,107 41.1526795,107" id="Fill-11" fill="#000000"></path>
                <path d="M32.6868687,88.1318892 L40.8568067,104.310345 L65.3131313,91.8681108 L57.1431933,75.6896552 L32.6868687,88.1318892 Z M40.7416541,105 C40.6281072,105 40.5185044,104.937516 40.463703,104.828795 L32.0336285,88.1414792 C31.9962639,88.0675402 31.9898289,87.9817292 32.0153614,87.9029998 C32.0411014,87.8242703 32.0969407,87.7588707 32.170632,87.7213804 L57.117724,75.0338554 C57.2711264,74.9557508 57.4585721,75.0174014 57.5362075,75.1713196 L65.966282,91.8588433 C66.0036465,91.9327823 66.0102891,92.018385 65.9845491,92.0971145 C65.958809,92.1760522 65.9031773,92.2412435 65.829486,92.2787338 L40.8821864,104.966259 C40.8371413,104.989169 40.7889825,105 40.7416541,105 L40.7416541,105 Z" id="Fill-13" fill="#F6B9A2"></path>
                <path d="M62.9459103,81.2740343 C63.0706772,81.5201657 62.9722919,81.8210369 62.7259318,81.9457884 C62.4797701,82.0707382 62.1788616,81.972365 62.0540947,81.7260354 C61.9293278,81.4797057 62.0277132,81.1790328 62.2738749,81.054083 C62.520235,80.9293315 62.8211434,81.0277047 62.9459103,81.2740343" id="Fill-15" fill="#F6B9A2"></path>
                <path d="M39.3268489,90 C39.2088711,90 39.095029,89.935288 39.0369108,89.822152 C38.9537604,89.660372 39.0157967,89.4609533 39.1757851,89.3768717 L45.5226442,86.0373794 C45.6830679,85.9530777 45.8798427,86.016249 45.9629932,86.1778089 C46.0463613,86.339589 45.9841073,86.5387875 45.8241189,86.6230892 L39.4772598,89.9625815 C39.4291544,89.987894 39.3775663,90 39.3268489,90" id="Fill-17" fill="#F6B9A2"></path>
                <path d="M41.3060008,91 C41.1955482,91 41.0889676,90.9391084 41.0345564,90.8326517 C40.9567098,90.6804227 41.0147891,90.4927772 41.1645725,90.4136596 L47.5530925,87.035212 C47.7030797,86.9558872 47.8877108,87.0151219 47.9653537,87.1673509 C48.0434041,87.3195799 47.985121,87.5072254 47.8353375,87.586343 L41.4468176,90.9647906 C41.4017807,90.9886087 41.3534831,91 41.3060008,91" id="Fill-19" fill="#F6B9A2"></path>
                <path d="M39.3026875,95 C39.1934308,95 39.0880042,94.9397184 39.0341822,94.8343282 C38.9571785,94.6836243 39.0146289,94.4978587 39.1627906,94.4195337 L45.5579315,91.0349497 C45.7062947,90.9562146 45.8887251,91.0150609 45.9657288,91.1657648 C46.0429341,91.3164687 45.9852821,91.5020293 45.8371205,91.5805593 L39.4419796,94.9651433 C39.3974303,94.9887228 39.3496557,95 39.3026875,95" id="Fill-21" fill="#F6B9A2"></path>
                <path d="M81.6275009,30.8404846 L82.8582568,37.5609403 C83.5486861,41.3316076 81.672935,45.1661845 78.1885178,46.7869915 C68.1679521,51.4481609 49.1499384,42.0087956 56.4934984,29.8572924 L56.3287465,23.984803 L51,23.984803 L51,21.1774356 L62.3169252,15 L62.3169252,28.1207285 C66.5217072,35.9879597 78.157733,26.0527657 81.6275009,30.8404846" id="Fill-23" fill="#000000"></path>
                <path d="M51.4315789,23.9207143 L56.2405421,23.9207143 C56.5939407,23.9207143 56.8831444,24.1906628 56.8931545,24.5299788 L57.0620198,30.328021 C57.0655016,30.4479517 57.0330777,30.5662109 56.9686651,30.6690086 C54.5394848,34.5408471 54.9246545,38.5121404 58.0532333,41.850977 C62.8006129,46.9175256 72.4842574,49.129975 78.3699548,46.4927538 C81.6375864,45.028513 83.4552827,41.5626419 82.7900489,38.0639674 L81.5568531,31.5764283 C80.2013605,29.9594536 77.3491464,30.6330712 74.05736,31.4103222 C69.772837,32.4220022 64.4405218,33.6810654 61.8020006,28.925835 C61.7517327,28.8351557 61.7254019,28.7338206 61.7254019,28.6310229 L61.7254019,16.7346939 L51.4315789,22.1470357 L51.4315789,23.9207143 Z M72.2657443,49 C66.7079313,49 60.57503,46.6923947 56.935118,42.7763948 C53.443588,39.0197645 52.9754474,34.5622438 55.6081414,30.20677 L55.4627965,25.1745527 L50.6507978,25.1745527 C50.2913405,25.1745527 50,24.8925587 50,24.5446331 L50,21.7591289 C50,21.5289982 50.1297257,21.3171353 50.3381979,21.2066894 L61.9015728,15.0773622 C62.1031032,14.9704858 62.3480201,14.9746853 62.5458626,15.0878608 C62.7437051,15.2012463 62.8649704,15.40744 62.8649704,15.6298016 L62.8649704,28.4872996 C65.0447091,32.2420401 69.3655725,31.2129615 73.5460805,30.2181086 C77.1966221,29.3490296 80.6447657,28.5282444 82.4726397,30.9780015 C82.529476,31.0540118 82.5680901,31.1413607 82.5854447,31.2337489 L83.8430029,37.9018673 C84.6122459,41.9810164 82.4999732,46.0265697 78.706473,47.7401609 C76.8096144,48.5970615 74.5875739,49 72.2657443,49 L72.2657443,49 Z" id="Fill-25" fill="#000000"></path>
                <path d="M82.3246243,35 C82.0051617,35 81.7212199,34.7875681 81.6618687,34.4842136 L77.0111136,10.7412794 C76.9441186,10.3997962 77.1869192,10.0725588 77.5533682,10.0101281 C77.9200421,9.94853543 78.2712036,10.1741658 78.3379738,10.5156491 L82.9889536,34.2585832 C83.0557238,34.6000665 82.8129232,34.9273039 82.4464742,34.9897346 C82.4055578,34.996648 82.3648662,35 82.3246243,35" id="Fill-27" fill="#000000"></path>
                <path d="M58,27.000101 C58,29.2091421 56.2090969,31 54,31 C51.7907012,31 50,29.2091421 50,27.000101 C50,24.7910598 51.7907012,23 54,23 C56.2090969,23 58,24.7910598 58,27.000101" id="Fill-29" fill="#F6B9A2"></path>
                <path d="M54.6607143,23.2857143 C52.7996354,23.2857143 51.2857143,24.7997911 51.2857143,26.6608147 C51.2857143,28.5216374 52.7996354,30.0357143 54.6607143,30.0357143 C56.5217932,30.0357143 58.0357143,28.5216374 58.0357143,26.6608147 C58.0357143,24.7997911 56.5217932,23.2857143 54.6607143,23.2857143 M54.5,31 C52.0186768,31 50,28.9813674 50,26.5000986 C50,24.0186326 52.0186768,22 54.5,22 C56.9813232,22 59,24.0186326 59,26.5000986 C59,28.9813674 56.9813232,31 54.5,31" id="Fill-31" fill="#000000"></path>
                <path d="M68,11.220748 C68.4139995,10.9766058 76.8542273,6 76.8542273,6 L78,12.7961473 C73.9520742,13.321355 70.5719096,12.8440358 68,11.220748" id="Fill-33" fill="#000000"></path>
                <path d="M69.0625,11.8444471 C71.1686791,12.8268104 73.8202525,13.1600019 76.96875,12.8374019 L76.1000133,7.73913043 L69.0625,11.8444471 Z M74.4844211,14 C71.6370575,14 69.2293604,13.400307 67.3013733,12.2067162 C67.1119285,12.0895249 66.9968794,11.8736011 67.0000645,11.6417942 C67.0033839,11.4099873 67.1243277,11.197927 67.3170248,11.0865309 L75.9766039,6.07907291 C76.1485677,5.97969644 76.3552902,5.97368663 76.5321325,6.06276057 C76.7089747,6.15183452 76.8345937,6.32526041 76.8695556,6.52873534 L77.9901664,13.0474454 C78.0202499,13.2219445 77.9806128,13.4018095 77.8808088,13.544757 C77.781208,13.68749 77.6299773,13.7804274 77.4630952,13.8016763 C76.4229781,13.9338921 75.4294092,14 74.4844211,14 L74.4844211,14 Z" id="Fill-35" fill="#000000"></path>
                <path d="M68.1220157,37 C67.7183576,37 67.3060847,36.9281492 66.9157588,36.7823549 C66.0672152,36.4656533 65.4079889,35.83132 65.0593004,34.9963161 C64.9138768,34.6479909 65.0451477,34.2320004 65.3521987,34.0673713 C65.6594548,33.9022773 66.026193,34.0510945 66.1716166,34.3991872 C66.4319023,35.0223591 66.9292961,35.3185983 67.3007519,35.4571843 C67.9058289,35.6832004 68.6261782,35.6439034 69.0936259,35.3597556 C69.3930877,35.1776871 69.7661844,35.3048792 69.9267862,35.644601 C70.087388,35.9840902 69.9749872,36.4070565 69.6755254,36.5891251 C69.2281786,36.8611815 68.6831991,37 68.1220157,37" id="Fill-37" fill="#F6B9A2"></path>
                <line x1="70.8259259" y1="21" x2="71.1740741" y2="23" id="Fill-39" fill="#000000"></line>
                <path d="M71.2237773,24 C70.8539471,24 70.5267598,23.7425579 70.4608572,23.3773259 L70.0116853,20.8818669 C69.9380294,20.4725164 70.2202479,20.0829691 70.6420249,20.011527 C71.0630265,19.9393329 71.4656789,20.2138209 71.5390763,20.6229208 L71.9882482,23.1183798 C72.0621625,23.5277303 71.7796856,23.9172776 71.3581671,23.9887197 C71.3129398,23.9962399 71.2679709,24 71.2237773,24" id="Fill-41" fill="#000000"></path>
                <line x1="77.8259259" y1="20" x2="78.1740741" y2="22" id="Fill-43" fill="#000000"></line>
                <path d="M78.2237773,23 C77.8539471,23 77.5267598,22.7425662 77.4608572,22.3773461 L77.0116853,19.8819676 C76.9380294,19.4726303 77.2202479,19.0830956 77.6420249,19.0116558 C78.0640603,18.9389627 78.4654204,19.2139432 78.5390763,19.6230298 L78.9882482,22.1184082 C79.0621625,22.5277456 78.7796856,22.9172803 78.3581671,22.98872 C78.3129398,22.99624 78.2679709,23 78.2237773,23" id="Fill-45" fill="#000000"></path>
                <path d="M73.6837369,28 C73.3521585,28 73.060972,27.7816839 73.0082572,27.4760826 C72.9500656,27.1382911 73.2056525,26.8219597 73.5792201,26.7691346 L76.5191541,26.3549943 L74.2364436,14.7274951 C74.170493,14.3907353 74.4185492,14.0694516 74.7909759,14.009817 C75.1636307,13.9493571 75.5187139,14.1744827 75.5846645,14.5110361 L77.9894633,26.7610871 C78.0216399,26.9249273 77.9794224,27.0935136 77.8723954,27.2290842 C77.7653684,27.3644484 77.6026599,27.4552415 77.4207825,27.4808286 L73.7900793,27.9925715 C73.7544797,27.9975238 73.7188801,28 73.6837369,28" id="Fill-47" fill="#000000"></path>
                <path d="M67.6287082,21 C67.5998278,21 67.5705289,20.9977509 67.5412299,20.9934775 C67.1975952,20.9419722 66.9581809,20.6010025 67.0061056,20.2319186 C67.2417529,18.4164124 68.7885279,16.939177 70.3957843,17.001928 C70.7421397,17.0158727 71.0125271,17.3291779 70.9995519,17.7014107 C70.9865766,18.0738683 70.6912851,18.3662566 70.3486967,18.3505126 C69.3891563,18.3134018 68.3952942,19.2978505 68.2496366,20.4183723 C68.2058974,20.7559683 67.936975,21 67.6287082,21" id="Fill-49" fill="#000000"></path>
                <path d="M80.3063448,17 C80.0746852,17 79.8481169,16.8971667 79.7164343,16.7099731 C78.9147669,15.5695703 77.9860454,15.1079494 76.791413,15.2575811 C76.4121021,15.3045847 76.0605626,15.0705928 76.0068713,14.7337675 C75.9534114,14.3971475 76.2177024,14.0855688 76.5974761,14.0379494 C77.80368,13.8868809 79.5285146,14.1149204 80.8948668,16.0582851 C81.0975979,16.3468751 80.9983152,16.7265989 80.6729271,16.9066085 C80.5586016,16.9698274 80.4317789,17 80.3063448,17" id="Fill-51" fill="#000000"></path>
                <path d="M62.7695515,54 C59.5113824,54 56.330999,52.8507625 53.2495179,50.5520806 C53.092007,50.4344275 53,50.253709 53,50.0622383 L53,30.6203153 C53,30.2776945 53.2893804,30 53.6464194,30 C54.0032429,30 54.2928388,30.2776945 54.2928388,30.6203153 L54.2928388,49.7560093 C59.8630345,53.7880589 65.5655308,53.7824761 71.7071612,49.7382269 L71.7071612,47.3824761 C71.7071612,47.0398553 71.9965417,46.7621608 72.3535806,46.7621608 C72.7104041,46.7621608 73,47.0398553 73,47.3824761 L73,50.0622383 C73,50.2638408 72.8976503,50.453037 72.7261337,50.5692427 C69.3460067,52.8561385 66.0191017,54 62.7695515,54" id="Fill-53" fill="#000000"></path>
                <path d="M62.5,60 C62.2238333,60 62,59.6782683 62,59.2813142 L62,53.7186858 C62,53.3217317 62.2238333,53 62.5,53 C62.7761667,53 63,53.3217317 63,53.7186858 L63,59.2813142 C63,59.6782683 62.7761667,60 62.5,60" id="Fill-55" fill="#000000"></path>
                <path d="M67,57.4999199 C67,57.7760859 66.7762462,58 66.4999199,58 C66.2239141,58 66,57.7760859 66,57.4999199 C66,57.2237538 66.2239141,57 66.4999199,57 C66.7762462,57 67,57.2237538 67,57.4999199" id="Fill-57" fill="#000000"></path>
                <path d="M87.6408116,99 C85.0423687,99 80.6235634,97.9507202 77.5078241,91.6609986 C75.0614518,86.7222353 73.4091788,78.123545 75.5623025,70.9155972 C75.6231734,70.7113578 75.7822923,70.5511575 75.986477,70.487971 L80.2649587,69.1650956 C80.4311257,69.113823 80.6111757,69.1321194 80.7636735,69.2153044 C80.9161713,69.2989149 81.0278748,69.440606 81.0733679,69.607827 C82.7215829,75.6690558 86.3704237,80.6446247 91.9180117,84.3962467 C92.2106196,84.5943163 92.2868685,84.9913066 92.0882369,85.2827732 C91.8896053,85.5744526 91.490847,85.6506168 91.1982392,85.4523344 C85.5848679,81.6562479 81.8258185,76.6540853 80.0176303,70.5781767 L76.6964247,71.6049051 C74.8739265,78.1263107 76.2831429,86.3035446 78.6571107,91.0961491 C80.8499607,95.5230375 84.1579242,97.8764707 87.9831841,97.7164832 C92.3720878,97.5352208 96.5262645,94.0922981 98.5704612,88.9424875 C101.37672,80.3833685 98.971996,70.1592733 92.1360793,61.5876021 C86.2236927,54.1739257 78.2000445,49.7529943 71.6973162,50.3272048 C71.344051,50.3584789 71.0339294,50.0989247 71.0025328,49.7478883 C70.9713498,49.3966392 71.2317067,49.0868761 71.5843312,49.0558147 C75.100751,48.7452007 79.0199871,49.7353361 82.9150885,51.9185699 C86.6374017,54.00479 90.1730439,57.0736993 93.1397028,60.7938343 C100.248578,69.7080319 102.7319,80.3861343 99.7823275,89.3577742 C99.778483,89.3696881 99.7742114,89.3816021 99.7695125,89.3930906 C97.5418486,95.0218 92.9361588,98.7895909 88.0361525,98.9917028 C87.9097118,98.9970215 87.7777179,99 87.6408116,99" id="Fill-59" fill="#000000"></path>
                <path d="M84.7366405,80 C84.597537,80 84.456959,79.9629932 84.3321099,79.8857414 C83.9919699,79.6750337 83.8975958,79.2448293 84.1214886,78.9247202 L86.6464871,75.3123907 C86.8703798,74.9925129 87.3275044,74.9036965 87.6678901,75.1141729 C88.0080301,75.3248805 88.1024042,75.755085 87.8785114,76.0751941 L85.3532671,79.6872923 C85.211706,79.8899047 84.976508,80 84.7366405,80" id="Fill-61" fill="#000000"></path>
                <path d="M86.6877866,82 C86.5579085,82 86.4266535,81.9626665 86.3100844,81.8847329 C85.9925025,81.6721654 85.9043873,81.2381638 86.1134314,80.9152292 L89.7364814,75.3152078 C89.9455256,74.9922732 90.3723336,74.9029062 90.6899156,75.1152403 C91.0074975,75.3275745 91.0956127,75.7618095 90.8865686,76.084744 L87.2635186,81.6845321 C87.1313458,81.8889329 86.9117461,82 86.6877866,82" id="Fill-63" fill="#000000"></path>
                <path d="M87.5985012,83 C87.4854833,83 87.3712672,82.9675393 87.2698306,82.8997775 C86.9934758,82.7149543 86.9167993,82.3375985 87.0987063,82.0568133 L88.9004041,79.2741183 C89.0823111,78.9933331 89.4535131,78.9156303 89.7300677,79.1000477 C90.0066222,79.284871 90.083099,79.6622268 89.9013917,79.9432149 L88.0994942,82.7257069 C87.9844795,82.9034294 87.7933873,83 87.5985012,83" id="Fill-65" fill="#000000"></path>
                <path d="M79.6341635,65 C79.4213273,65 79.2133475,64.880851 79.0936271,64.6643658 C78.9107737,64.3331879 79.0038896,63.8999829 79.3020292,63.6966322 L86.0348753,59.1040023 C86.3332261,58.9008862 86.7232147,59.0043206 86.9062792,59.3354985 C87.0893437,59.6666763 86.9960167,60.0998813 86.697877,60.303232 L79.965031,64.8958619 C79.8615689,64.9662255 79.7471272,65 79.6341635,65" id="Fill-67" fill="#000000"></path>
                <path d="M65.6230705,73 C65.4139573,73 65.2096155,72.8827531 65.0919893,72.6697238 C64.9123345,72.3440636 65.0038216,71.9175433 65.296746,71.7174388 L72.0518497,67.1023421 C72.3445667,66.9024684 72.7281484,67.0042516 72.9080107,67.3301427 C73.0876655,67.6560337 72.9961784,68.0823231 72.703254,68.2826584 L65.9481503,72.8975244 C65.846498,72.9667647 65.7340582,73 65.6230705,73" id="Fill-69" fill="#000000"></path>
                <path d="M76.0716313,73 C75.9013824,73 75.7319682,72.9283952 75.6082457,72.7877817 L73.2856845,70.1394875 C72.0284303,68.7056618 71.655385,66.6604916 72.3349199,64.9289978 C72.9357981,63.3982569 74.2450032,62.3269979 75.8367046,62.0632934 C77.4405069,61.7980746 79.0004952,62.3763208 80.0103045,63.6109079 C80.6791987,64.4284135 81.0299197,65.5107053 80.997998,66.658112 L80.8765705,71.0247039 C80.8665559,71.382944 80.5790524,71.6702283 80.2329215,71.6546527 C79.8874165,71.6442689 79.6153522,71.3455192 79.6253669,70.9872791 L79.7467943,66.6206871 C79.7697445,65.7940957 79.5241773,65.0233171 79.0557844,64.450479 C78.3313923,63.5648299 77.2020334,63.152075 76.0340764,63.3450401 C74.861112,63.5393031 73.935384,64.2949388 73.4945314,65.418333 C72.9954686,66.6896959 73.2769217,68.2001019 74.2118297,69.2661691 L76.5345996,71.914247 C76.7670226,72.1796821 76.7482452,72.5900574 76.4926633,72.8312637 C76.3726963,72.9441872 76.2218508,73 76.0716313,73" id="Fill-71" fill="#000000"></path>
                <path d="M63.0235115,87.9809733 L60.1638699,83.501545 C59.8818068,83.0597493 59.9726407,82.4527767 60.3688676,82.1324591 C60.7666244,81.810887 61.3263523,81.8957754 61.6290681,82.3233533 L62.5479245,83.6207232 C62.9301917,84.1607887 63.6281783,84.0821729 64.0282298,83.5579979 C64.9264334,82.3814789 62.6406706,77.9110412 62.6406706,77.9110412 C67.2900265,74.3273313 69.6708302,82.0732882 66.6633683,88" id="Fill-73" fill="#F6B9A2"></path>
                <path d="M66.9080262,88 C66.8052531,88 66.7010177,87.9750121 66.6045112,87.9227831 C66.3020406,87.7581085 66.1927919,87.3841086 66.3607383,87.0873255 C68.4301968,83.4298684 68.0028109,79.2351705 66.3248095,77.7580142 C65.372069,76.9190746 64.2413555,77.2058215 63.3385393,77.713978 C63.5727034,78.1617129 63.9177872,78.8564597 64.2225555,79.6091704 C65.0008741,81.5313989 65.0925762,82.7447481 64.5112394,83.4278202 C64.1603067,83.8401213 63.6481121,84.0816032 63.1260997,84.0715671 C62.6454473,84.0629647 62.2161814,83.8499527 61.9176797,83.4716515 L60.9139704,82.2007482 C60.7928151,82.0473386 60.5651266,82.0162061 60.4055358,82.1317241 C60.2444827,82.2484711 60.2081361,82.4659891 60.3228159,82.626977 L63.4465347,87.0150243 C63.644561,87.2933736 63.5750011,87.6763856 63.2913305,87.8705542 C63.0074511,88.0651325 62.6170384,87.9967229 62.4188032,87.7183736 L59.2950845,83.3305311 C58.7887387,82.6196035 58.9491651,81.6590013 59.6602216,81.1434713 C60.3629225,80.6336762 61.3697651,80.7704955 61.9049375,81.4484471 L62.9086468,82.7193505 C62.9729845,82.8006637 63.0515265,82.8412179 63.1490775,82.8428565 C63.2896594,82.8504348 63.4390147,82.769736 63.549099,82.6402903 C63.9179961,82.2068928 63.1641174,79.9010378 61.9673952,77.8020503 C61.8107288,77.5275925 61.890942,77.181448 62.1533059,76.9999782 C63.9996715,75.7235447 65.8253571,75.666605 67.1622435,76.8434963 C69.2344175,78.6678212 69.8470875,83.4589527 67.4565674,87.6835543 C67.3420965,87.8857109 67.1284036,88 66.9080262,88" id="Fill-75" fill="#000000"></path>
                <path d="M41.9097349,77.6590307 C34.4456406,95.6315246 58.2055727,103.714606 62.7563364,86.8086295 L66.7618503,86.8277608 C66.9457748,87.8034574 67.032476,88.9677339 66.988915,90.2446959 C66.6816727,99.2700464 60.0082012,106.790751 51.1301609,108.489233 C17.854766,114.855122 14.0304409,59.7977506 53.244451,50" id="Fill-77" fill="#FFB298"></path>
                <path d="M46.4954282,110 C41.8657899,110 37.7066857,108.686012 34.2745046,106.107411 C30.0769213,102.95418 27.046681,97.9027532 25.7419419,91.883819 C23.9526571,83.6297854 25.4347353,74.455279 29.8088213,66.7128793 C33.3156605,60.5053812 40.2812398,52.3967079 53.5509318,49.0193709 C53.8869978,48.9333892 54.2276646,49.1417459 54.3117333,49.4837574 C54.3958021,49.8259817 54.1914857,50.1726754 53.8554197,50.2580186 C41.013391,53.5268143 34.2822423,61.3564727 30.8964873,67.3494421 C26.6765274,74.8194245 25.2442213,83.6614965 26.967213,91.6086349 C28.2064955,97.3259945 31.0662979,102.110325 35.0196217,105.0801 C39.4108561,108.379117 45.1041108,109.465381 51.4839273,108.222051 C55.6325751,107.413738 59.4395106,105.195239 62.2033239,101.975819 C64.98324,98.7376699 66.5926762,94.6116108 66.7348821,90.3580689 C66.7677149,89.3684276 66.7225436,88.411136 66.6031325,87.5564265 L63.6291472,87.5419543 C62.2024874,92.4090737 59.0149842,95.7208603 54.8255567,96.6626156 C50.6001595,97.6126712 46.0357686,95.9985983 43.1972971,92.5512416 C40.0022653,88.6705709 39.5147918,83.1460317 41.8597252,77.3941943 C41.9923113,77.0683576 42.359328,76.9140587 42.6795003,77.0492032 C42.9996727,77.1843478 43.1512893,77.5578575 43.0187032,77.8836943 C40.0618663,85.1357427 42.4641002,89.6723433 44.1592782,91.7312227 C46.700372,94.8176264 50.781472,96.2637796 54.5551564,95.4156677 C56.8185305,94.9070134 60.8672159,93.1026739 62.5498463,86.7353435 C62.6234587,86.4563285 62.8721099,86.2626568 63.1556852,86.2626568 L63.158613,86.2626568 L67.1391232,86.2822368 C67.4396377,86.2835137 67.6970722,86.5018733 67.7526998,86.8023837 C67.9501151,87.8697064 68.0318835,89.1143133 67.9888034,90.4014854 C67.8367686,94.9480888 66.1177503,99.3569937 63.1483658,102.816056 C60.2011486,106.249153 56.1424251,108.614502 51.7198218,109.476235 C49.9244724,109.826121 48.178895,110 46.4954282,110" id="Fill-79" fill="#000000"></path>
                <g id="Group-83" transform="translate(103.000000, 33.000000)">
                    <mask id="mask-2" fill="white">
                        <use xlink:href="#path-1"></use>
                    </mask>
                    <g id="Clip-82"></g>
                </g>
                <path d="M100.357514,54 C100.154112,54 99.9541396,53.8983172 99.8291837,53.7085395 L96.1152282,48.0675218 C95.9124696,47.7593029 95.984271,47.3360397 96.2757634,47.1215773 C96.56747,46.9075678 96.9680577,46.9834336 97.1708163,47.2914261 L100.884772,52.9324438 C101.08753,53.2404363 101.015729,53.6639259 100.724237,53.8781618 C100.612141,53.9603686 100.484184,54 100.357514,54" id="Fill-84" fill="#000000"></path>
                <path d="M97.8592593,32.048048 L98.3312557,35.8798799 L101.340741,33.7492869 L97.8592593,32.048048 Z M97.8898387,37.96997 C97.7999915,37.96997 97.7097061,37.9513099 97.62468,37.9133232 C97.4127721,37.8186899 97.2655104,37.6178716 97.2374606,37.3846204 L96.4715683,31.0537366 C96.4422036,30.8109332 96.5462948,30.5714619 96.743082,30.4295118 C96.9396501,30.288006 97.1971389,30.2666802 97.4138678,30.3744201 L103.061968,33.1854311 C103.269931,33.2889502 103.408646,33.4955442 103.427492,33.729684 C103.446119,33.9638239 103.342028,34.190633 103.15313,34.3265851 L98.2709222,37.84668 C98.1578462,37.9282069 98.0243903,37.96997 97.8898387,37.96997 L97.8898387,37.96997 Z" id="Fill-86-Copy" fill="#FD4D00" transform="translate(99.948148, 34.138138) rotate(77.000000) translate(-99.948148, -34.138138) "></path>
                <g id="Group-88" transform="translate(15.000000, 29.000000)">
                    <mask id="mask-4" fill="white">
                        <use xlink:href="#path-3"></use>
                    </mask>
                    <g id="Clip-87"></g>
                    <path d="M1.4,1.59090909 L1.87450703,5.09090909 L4.9,3.14482276 L1.4,1.59090909 Z M1.43074209,7 C1.34041701,7 1.24965132,6.98295584 1.16417296,6.9482588 C0.951137949,6.86182056 0.80309294,6.67839293 0.774893891,6.46534093 L0.00492765992,0.682703786 C-0.0245932199,0.460926798 0.0800516899,0.242193409 0.277885646,0.112536048 C0.475499296,-0.0167154998 0.734357757,-0.0361945399 0.952239475,0.0622151942 L6.63038243,2.62979618 C6.83945195,2.72435068 6.97890506,2.91305389 6.99785129,3.12691751 C7.01657722,3.34078114 6.91193231,3.54794885 6.72202934,3.67212773 L1.81385262,6.8873868 C1.7001752,6.96185355 1.56600941,7 1.43074209,7 L1.43074209,7 Z" id="Fill-86" fill="#FD4D00" mask="url(#mask-4)"></path>
                    <path d="M1.4,1.59090909 L1.87450703,5.09090909 L4.9,3.14482276 L1.4,1.59090909 Z M1.43074209,7 C1.34041701,7 1.24965132,6.98295584 1.16417296,6.9482588 C0.951137949,6.86182056 0.80309294,6.67839293 0.774893891,6.46534093 L0.00492765992,0.682703786 C-0.0245932199,0.460926798 0.0800516899,0.242193409 0.277885646,0.112536048 C0.475499296,-0.0167154998 0.734357757,-0.0361945399 0.952239475,0.0622151942 L6.63038243,2.62979618 C6.83945195,2.72435068 6.97890506,2.91305389 6.99785129,3.12691751 C7.01657722,3.34078114 6.91193231,3.54794885 6.72202934,3.67212773 L1.81385262,6.8873868 C1.7001752,6.96185355 1.56600941,7 1.43074209,7 L1.43074209,7 Z" id="Fill-86" fill="#FD4D00" mask="url(#mask-4)"></path>
                </g>
                <path d="M38.6596258,47 C38.6095439,47 38.5588031,46.9945963 38.5080622,46.9831653 C38.1537549,46.9043955 37.9340976,46.5685329 38.0177871,46.2335015 L39.6994836,39.4807083 C39.7827337,39.145677 40.1374803,38.9376333 40.4920072,39.0168188 C40.8463145,39.0957964 41.0657521,39.4314512 40.9822823,39.7666904 L39.3003662,46.5192758 C39.2289776,46.8065049 38.9583597,47 38.6596258,47" id="Fill-89" fill="#000000"></path>
                <path d="M98.6050353,17 C98.3868173,17 98.1853388,16.8653518 98.0780449,16.6473279 C97.9689359,16.4258396 97.9745829,16.1535407 98.0927675,15.9382883 L101.174845,10.3241729 C101.352727,10.0001395 101.726238,9.90290636 102.008994,10.106149 C102.291951,10.3098535 102.377262,10.7375868 102.19938,11.0616202 L99.712058,15.5923139 L104.384585,15.5006238 C104.388014,15.5003928 104.391644,15.5003928 104.395073,15.5003928 C104.724417,15.5003928 104.994265,15.8029472 104.999912,16.1814865 C105.005559,16.5639522 104.739543,16.8796711 104.405358,16.8861379 L98.615321,17 C98.6118924,17 98.6084639,17 98.6050353,17" id="Fill-91" fill="#000000"></path>
                <path d="M46.1311752,116 C40.4834424,116 35.2885359,114.369171 30.8627355,111.121563 C26.5982506,107.992435 23.2654574,103.489359 21.2246693,98.0994668 C19.216483,92.7953411 18.5502631,86.8797332 19.2977758,80.9922249 C20.1549491,74.242015 22.8522189,67.7811898 27.0978626,62.307837 C31.8651351,56.1623989 38.3865538,51.3879728 46.4815387,48.1168786 C47.2931966,47.7889094 48.2202309,48.1747555 48.5515414,48.9791607 C48.8826402,49.7833563 48.4929005,50.7012087 47.681031,51.0293876 C33.3601605,56.8162403 24.1630654,67.8801677 22.448507,81.3847813 C21.0620837,92.3033873 25.106824,102.983566 32.7530049,108.594061 C39.9169332,113.850795 49.5094839,114.242513 59.7633855,109.697078 C60.564035,109.342058 61.5029245,109.697707 61.8611209,110.490369 C62.2193173,111.283031 61.8606975,112.213466 61.0604715,112.568276 C55.8932977,114.858818 50.8535673,116 46.1311752,116" id="Fill-93" fill="#FD4D00"></path>
            </g>
        </g>
    </g>
</svg>