<?xml version="1.0" encoding="UTF-8"?>
<svg width="124px" height="116px" viewBox="0 0 181 204" version="1.1" xmlns="http://www.w3.org/2000/svg" xmlns:xlink="http://www.w3.org/1999/xlink">
    <!-- Generator: Sketch 63.1 (92452) - https://sketch.com -->
    <title>Illustration/Mentor</title>
    <desc>Created with Sketch.</desc>
    <defs>
        <polygon id="path-1" points="0.27306 0.11026 47.80918 0.11026 47.80918 35.941208 0.27306 35.941208"></polygon>
        <polygon id="path-3" points="0.346357 0.139194 2.65475 0.139194 2.65475 2.447624 0.346357 2.447624"></polygon>
        <polygon id="path-5" points="0 0.053724 2.308245 0.053724 2.308245 2.362154 0 2.362154"></polygon>
    </defs>
    <g id="Styles-&amp;-Behaviours" stroke="none" stroke-width="1" fill="none" fill-rule="evenodd">
        <g id="Styles/Illustrations" transform="translate(-797.000000, -282.000000)">
            <g id="Illustration/Mentee" transform="translate(787.000000, 281.000000)">
                <g id="Group-106" transform="translate(10.000000, 1.000000)">
                    <g id="Group-3" transform="translate(57.720000, 0.259740)">
                        <mask id="mask-2" fill="white">
                            <use xlink:href="#path-1"></use>
                        </mask>
                        <g id="Clip-2"></g>
                        <path d="M26.46684,0.110038 C12.00058,0.110038 0.27306,11.837558 0.27306,26.303818 C0.27306,29.708188 0.92944,32.957528 2.11159,35.941208 L47.80918,11.126788 C43.0606,4.461608 35.27432,0.110038 26.46684,0.110038" id="Fill-1" fill="#EA5B25" mask="url(#mask-2)"></path>
                    </g>
                    <path d="M94.847095,162.648041 L50.166635,185.295371 C47.822685,186.483071 44.958885,185.546231 43.770815,183.201911 L30.107085,156.244821 C28.918645,153.900501 29.855855,151.037071 32.200175,149.849001 L76.880635,127.201671 C79.224585,126.013601 82.088385,126.950811 83.276455,129.294761 L96.940185,156.252221 C98.128255,158.596171 97.191045,161.459971 94.847095,162.648041" id="Fill-4" fill="#000000"></path>
                    <path d="M94.847095,162.648041 L50.166635,185.295371 C47.822685,186.483071 44.958885,185.546231 43.770815,183.201911 L30.107085,156.244821 C28.918645,153.900501 29.855855,151.037071 32.200175,149.849001 L76.880635,127.201671 C79.224585,126.013601 82.088385,126.950811 83.276455,129.294761 L96.940185,156.252221 C98.128255,158.596171 97.191045,161.459971 94.847095,162.648041 Z" id="Stroke-6" stroke="#000000" stroke-width="2.22" stroke-linecap="round" stroke-linejoin="round"></path>
                    <polygon id="Stroke-8" stroke="#FFFFFF" stroke-width="1.11" stroke-linecap="round" stroke-linejoin="round" points="91.933345 160.478805 47.466375 183.018095 32.440305 153.373325 76.907275 130.834035"></polygon>
                    <path d="M88.510327,143.583458 C88.743057,144.042998 88.559537,144.603918 88.100367,144.837018 C87.640827,145.069748 87.079537,144.886228 86.846807,144.426688 C86.614077,143.967148 86.797597,143.406228 87.256767,143.173498 C87.716307,142.940398 88.277597,143.123918 88.510327,143.583458" id="Fill-10" fill="#FFFFFF"></path>
                    <line x1="45.5988" y1="157.915001" x2="56.38726" y2="152.301361" id="Stroke-12" stroke="#FFFFFF" stroke-width="1.11" stroke-linecap="round" stroke-linejoin="round"></line>
                    <line x1="50.587658" y1="159.193906" x2="62.186788" y2="153.158466" id="Stroke-14" stroke="#FFFFFF" stroke-width="1.11" stroke-linecap="round" stroke-linejoin="round"></line>
                    <line x1="47.263985" y1="165.301792" x2="59.002235" y2="159.193832" id="Stroke-16" stroke="#FFFFFF" stroke-width="1.11" stroke-linecap="round" stroke-linejoin="round"></line>
                    <path d="M66.373708,24.10994 C71.874868,16.41727 84.727188,18.18809 91.823788,23.7614" id="Stroke-18" stroke="#000000" stroke-width="2.22" stroke-linecap="round" stroke-linejoin="round"></path>
                    <path d="M70.332449,35.530434 C69.122179,33.444744 68.665229,31.390874 69.050029,28.380924" id="Stroke-20" stroke="#000000" stroke-width="2.22" stroke-linecap="round" stroke-linejoin="round"></path>
                    <path d="M112.390682,12.498489 C107.316502,7.768779 100.938072,4.842079 93.345672,4.842079 C77.752392,4.842079 65.111342,17.104989 65.111342,32.232069 C65.111342,34.225629 65.331122,36.169239 65.747742,38.041439 L65.748112,38.041069 L129.880952,2.920669" id="Stroke-22" stroke="#000000" stroke-width="2.22" stroke-linecap="round" stroke-linejoin="round"></path>
                    <path d="M120.045057,54.431329 L122.189947,66.181419 C123.393187,72.774079 120.124237,79.478479 114.051427,82.312309 C96.588537,90.462299 63.445047,73.958079 76.242977,52.712309 L75.955857,42.444809 L66.669227,42.444809 L66.669227,37.536389 L86.391707,26.735719 L86.391707,49.676089 C93.719187,63.431209 113.998147,46.060449 120.045057,54.431329" id="Fill-24" fill="#000000"></path>
                    <path d="M120.045057,54.431329 L122.189947,66.181419 C123.393187,72.774079 120.124237,79.478479 114.051427,82.312309 C96.588537,90.462299 63.445047,73.958079 76.242977,52.712309 L75.955857,42.444809 L66.669227,42.444809 L66.669227,37.536389 L86.391707,26.735719 L86.391707,49.676089 C93.719187,63.431209 113.998147,46.060449 120.045057,54.431329 Z" id="Stroke-26" stroke="#000000" stroke-width="2.22" stroke-linecap="round" stroke-linejoin="round"></path>
                    <line x1="113.600027" y1="19.186128" x2="121.254217" y2="61.119338" id="Stroke-28" stroke="#000000" stroke-width="2.22" stroke-linecap="round" stroke-linejoin="round"></line>
                    <path d="M78.857249,47.101962 C78.857249,51.149762 75.575719,54.431292 71.527549,54.431292 C67.479749,54.431292 64.198219,51.149762 64.198219,47.101962 C64.198219,43.054162 67.479749,39.772632 71.527549,39.772632 C75.575719,39.772632 78.857249,43.054162 78.857249,47.101962" id="Fill-30" fill="#FFFFFF"></path>
                    <path d="M78.857249,47.101962 C78.857249,51.149762 75.575719,54.431292 71.527549,54.431292 C67.479749,54.431292 64.198219,51.149762 64.198219,47.101962 C64.198219,43.054162 67.479749,39.772632 71.527549,39.772632 C75.575719,39.772632 78.857249,43.054162 78.857249,47.101962 Z" id="Stroke-32" stroke="#000000" stroke-width="2.22" stroke-linecap="round" stroke-linejoin="round"></path>
                    <path d="M96.627535,21.130626 C97.364575,20.726956 112.390645,12.498526 112.390645,12.498526 L114.430455,23.735426 C107.223965,24.603816 101.206285,23.814606 96.627535,21.130626" id="Fill-34" fill="#000000"></path>
                    <path d="M96.627535,21.130626 C97.364575,20.726956 112.390645,12.498526 112.390645,12.498526 L114.430455,23.735426 C107.223965,24.603816 101.206285,23.814606 96.627535,21.130626 Z" id="Stroke-36" stroke="#000000" stroke-width="2.22" stroke-linecap="round" stroke-linejoin="round"></path>
                    <path d="M91.823677,61.119153 C93.041717,63.692503 96.627387,64.220863 98.622797,63.150453" id="Stroke-38" stroke="#FFFFFF" stroke-width="2.22" stroke-linecap="round" stroke-linejoin="round"></path>
                    <g id="Group-43" transform="translate(101.380000, 36.519740)">
                        <line x1="0.344285" y1="0.290339" x2="0.987345" y2="3.974059" id="Fill-40" fill="#000000"></line>
                        <line x1="0.344285" y1="0.290339" x2="0.987345" y2="3.974059" id="Stroke-42" stroke="#000000" stroke-width="2.22" stroke-linecap="round" stroke-linejoin="round"></line>
                    </g>
                    <g id="Group-47" transform="translate(113.960000, 35.409740)">
                        <line x1="0.010027" y1="0.120694" x2="0.653087" y2="3.804044" id="Fill-44" fill="#000000"></line>
                        <line x1="0.010027" y1="0.120694" x2="0.653087" y2="3.804044" id="Stroke-46" stroke="#000000" stroke-width="2.22" stroke-linecap="round" stroke-linejoin="round"></line>
                    </g>
                    <polyline id="Stroke-48" stroke="#000000" stroke-width="2.22" stroke-linecap="round" stroke-linejoin="round" points="108.408298 26.735904 112.307358 48.701324 106.420288 49.618554"></polyline>
                    <path d="M95.223052,34.634368 C95.564562,32.186818 97.836732,30.192888 100.075232,30.276878" id="Stroke-50" stroke="#000000" stroke-width="2.22" stroke-linecap="round" stroke-linejoin="round"></path>
                    <path d="M112.846115,26.687841 C115.188215,26.357061 117.112585,27.400461 118.619595,29.818041" id="Stroke-52" stroke="#000000" stroke-width="2.22" stroke-linecap="round" stroke-linejoin="round"></path>
                    <path d="M70.786439,54.431329 L70.786439,89.220949 C80.494499,96.768579 91.098699,97.548909 102.909469,89.220949 L102.909469,84.425749" id="Stroke-54" stroke="#000000" stroke-width="2.22" stroke-linecap="round" stroke-linejoin="round"></path>
                    <line x1="87.510513" y1="95.177949" x2="87.510513" y2="103.769349" id="Stroke-56" stroke="#000000" stroke-width="2.22" stroke-linecap="round" stroke-linejoin="round"></line>
                    <path d="M94.552982,100.627864 C94.552982,101.265374 94.036462,101.781894 93.398952,101.781894 C92.761442,101.781894 92.244552,101.265374 92.244552,100.627864 C92.244552,99.990354 92.761442,99.473464 93.398952,99.473464 C94.036462,99.473464 94.552982,99.990354 94.552982,100.627864" id="Fill-58" fill="#000000"></path>
                    <path d="M102.909617,89.221097 C128.077757,86.993327 161.331507,125.108507 150.605947,157.860907 C143.734307,175.290497 123.675127,181.189407 114.068817,161.720377 C109.963667,153.400927 107.158697,138.574657 110.766567,126.449017 L118.178777,124.148357 C121.119907,135.007117 127.533487,143.788327 137.413227,150.496057" id="Stroke-60" stroke="#000000" stroke-width="2.22" stroke-linecap="round" stroke-linejoin="round"></path>
                    <line x1="125.096408" y1="138.742748" x2="128.897788" y2="132.964458" id="Stroke-62" stroke="#000000" stroke-width="2.22" stroke-linecap="round" stroke-linejoin="round"></line>
                    <line x1="128.374386" y1="142.339407" x2="134.216316" y2="133.459777" id="Stroke-64" stroke="#000000" stroke-width="2.22" stroke-linecap="round" stroke-linejoin="round"></line>
                    <line x1="131.573406" y1="145.267254" x2="134.911916" y2="140.192334" id="Stroke-66" stroke="#000000" stroke-width="2.22" stroke-linecap="round" stroke-linejoin="round"></line>
                    <line x1="117.099672" y1="112.258481" x2="128.897862" y2="105.013141" id="Stroke-68" stroke="#000000" stroke-width="2.22" stroke-linecap="round" stroke-linejoin="round"></line>
                    <line x1="93.137103" y1="126.973381" x2="105.185043" y2="119.574861" id="Stroke-70" stroke="#000000" stroke-width="2.22" stroke-linecap="round" stroke-linejoin="round"></line>
                    <path d="M110.766678,126.449091 L106.647838,121.919551 C104.738638,119.820171 104.098908,116.801341 105.168578,114.173231 C107.172868,109.249271 113.716688,108.457841 116.905718,112.218521 C117.951338,113.451731 118.440848,115.063821 118.394228,116.680351 L118.178518,124.148431" id="Stroke-72" stroke="#000000" stroke-width="2.22" stroke-linecap="round" stroke-linejoin="round"></path>
                    <g id="Group-77" transform="translate(81.400000, 134.199740)">
                        <path d="M6.106739,19.798996 L0.573389,11.872486 C0.028009,11.090306 0.203759,10.016566 0.970399,9.449356 C1.739999,8.880296 2.822989,9.030516 3.408699,9.787166 L5.186549,12.083016 C5.926179,13.038726 7.276679,12.899606 8.050719,11.972016 C9.788609,9.890396 5.365629,1.979056 5.365629,1.979056 C14.361809,-4.362744 18.968309,9.344646 13.149319,19.832666" id="Fill-74" fill="#FFFFFF"></path>
                        <path d="M6.106739,19.798996 L0.573389,11.872486 C0.028009,11.090306 0.203759,10.016566 0.970399,9.449356 C1.739999,8.880296 2.822989,9.030516 3.408699,9.787166 L5.186549,12.083016 C5.926179,13.038726 7.276679,12.899606 8.050719,11.972016 C9.788609,9.890396 5.365629,1.979056 5.365629,1.979056 C14.361809,-4.362744 18.968309,9.344646 13.149319,19.832666" id="Stroke-76" stroke="#000000" stroke-width="2.22" stroke-linecap="round" stroke-linejoin="round"></path>
                    </g>
                    <g id="Group-81" transform="translate(21.090000, 89.059740)">
                        <path d="M29.767388,48.839852 C16.643858,80.470412 58.419078,94.696172 66.420698,64.942622 L73.462908,64.976292 C73.786658,66.693462 73.938728,68.742522 73.862138,70.990272 C73.321938,86.874002 61.588498,100.110012 45.978938,103.099242 C-12.526202,114.302842 -19.250212,17.405392 49.696328,0.161542" id="Fill-78" fill="#FFFFFF"></path>
                        <path d="M29.767388,48.839852 C16.643858,80.470412 58.419078,94.696172 66.420698,64.942622 L73.462908,64.976292 C73.786658,66.693462 73.938728,68.742522 73.862138,70.990272 C73.321938,86.874002 61.588498,100.110012 45.978938,103.099242 C-12.526202,114.302842 -19.250212,17.405392 49.696328,0.161542" id="Stroke-80" stroke="#000000" stroke-width="2.22" stroke-linecap="round" stroke-linejoin="round"></path>
                    </g>
                    <path d="M167.001091,64.90207 C167.001091,66.99109 165.307231,68.68495 163.217841,68.68495 C161.128821,68.68495 159.434961,66.99109 159.434961,64.90207 C159.434961,62.81305 161.128821,61.11919 163.217841,61.11919 C165.307231,61.11919 167.001091,62.81305 167.001091,64.90207 Z" id="Stroke-82" stroke="#58ADC4" stroke-width="2.22" stroke-linecap="round" stroke-linejoin="round"></path>
                    <line x1="145.677288" y1="82.977162" x2="152.088648" y2="92.193492" id="Stroke-84" stroke="#000000" stroke-width="2.22" stroke-linecap="round" stroke-linejoin="round"></line>
                    <polygon id="Stroke-86" stroke="#58ADC4" stroke-width="2.22" stroke-linecap="round" stroke-linejoin="round" points="5.693375 62.395727 4.400225 51.850727 13.936605 56.532707"></polygon>
                    <line x1="47.263985" y1="69.887154" x2="44.430895" y2="81.908454" id="Stroke-88" stroke="#000000" stroke-width="2.22" stroke-linecap="round" stroke-linejoin="round"></line>
                    <g id="Group-92" transform="translate(177.970000, 87.579740)">
                        <mask id="mask-4" fill="white">
                            <use xlink:href="#path-3"></use>
                        </mask>
                        <g id="Clip-91"></g>
                        <path d="M2.654787,1.293224 C2.654787,1.930734 2.138267,2.447624 1.500757,2.447624 C0.863247,2.447624 0.346357,1.930734 0.346357,1.293224 C0.346357,0.655714 0.863247,0.139194 1.500757,0.139194 C2.138267,0.139194 2.654787,0.655714 2.654787,1.293224" id="Fill-90" fill="#000000" mask="url(#mask-4)"></path>
                    </g>
                    <path d="M178.316431,93.347633 C178.316431,93.985143 177.799911,94.501663 177.162401,94.501663 C176.524891,94.501663 176.008001,93.985143 176.008001,93.347633 C176.008001,92.710123 176.524891,92.193233 177.162401,92.193233 C177.799911,92.193233 178.316431,92.710123 178.316431,93.347633" id="Fill-93" fill="#000000"></path>
                    <path d="M10.990443,96.332016 C10.990443,96.969526 10.473923,97.486416 9.836043,97.486416 C9.198903,97.486416 8.682013,96.969526 8.682013,96.332016 C8.682013,95.694506 9.198903,95.177986 9.836043,95.177986 C10.473923,95.177986 10.990443,95.694506 10.990443,96.332016" id="Fill-95" fill="#000000"></path>
                    <path d="M10.990443,106.167578 C10.990443,106.805088 10.473923,107.321608 9.836043,107.321608 C9.198903,107.321608 8.682013,106.805088 8.682013,106.167578 C8.682013,105.530068 9.198903,105.013178 9.836043,105.013178 C10.473923,105.013178 10.990443,105.530068 10.990443,106.167578" id="Fill-97" fill="#000000"></path>
                    <g id="Group-101" transform="translate(0.000000, 99.419740)">
                        <mask id="mask-6" fill="white">
                            <use xlink:href="#path-5"></use>
                        </mask>
                        <g id="Clip-100"></g>
                        <path d="M2.308245,1.208124 C2.308245,1.845634 1.791725,2.362154 1.154215,2.362154 C0.516705,2.362154 -0.000185,1.845634 -0.000185,1.208124 C-0.000185,0.570614 0.516705,0.053724 1.154215,0.053724 C1.791725,0.053724 2.308245,0.570614 2.308245,1.208124" id="Fill-99" fill="#000000" mask="url(#mask-6)"></path>
                    </g>
                    <polyline id="Stroke-102" stroke="#000000" stroke-width="2.22" stroke-linecap="round" stroke-linejoin="round" points="159.850767 28.021321 149.228807 28.203731 154.883147 19.209771"></polyline>
                    <path d="M58.696763,86.17004 C-19.722517,118.15987 10.536083,226.76745 81.994923,194.78798" id="Stroke-104" stroke="#EA5B25" stroke-width="5.55" stroke-linecap="round" stroke-linejoin="round"></path>
                </g>
            </g>
        </g>
    </g>
</svg>