<?xml version="1.0" encoding="UTF-8"?>
<svg width="124px" height="116px" viewBox="0 0 186 200" version="1.1" xmlns="http://www.w3.org/2000/svg" xmlns:xlink="http://www.w3.org/1999/xlink">
    <!-- Generator: Sketch 63.1 (92452) - https://sketch.com -->
    <title>Illustration/Mentor Copy</title>
    <desc>Created with Sketch.</desc>
    <g id="Styles-&amp;-Behaviours" stroke="none" stroke-width="1" fill="none" fill-rule="evenodd">
        <g id="Styles/Illustrations" transform="translate(-1134.000000, -283.000000)">
            <g id="Illustration/Mentor" transform="translate(1129.000000, 281.000000)">
                <g id="Group-105" transform="translate(5.000000, 4.000000)">
                    <path d="M1.7852,124.50308 L61.0528,127.22588 C62.0696,127.27228 62.9512,127.94468 63.2644,128.91348 L74.126,162.47468 C74.6508,164.09628 73.3948,165.74348 71.692,165.66628 L14,163.05588 C13.3052,163.02468 12.6996,162.57428 12.4684,161.91868 L0.0984,126.77308 C-0.3032,125.63228 0.5772,124.44748 1.7852,124.50308" id="Fill-1" fill="#58ADC4"></path>
                    <path d="M100.42328,78.1644 C103.07168,78.294 106.02088,78.1852 109.29768,77.8336" id="Stroke-3" stroke="#000000" stroke-width="2.4" stroke-linecap="round" stroke-linejoin="round"></path>
                    <polyline id="Stroke-5" stroke="#000000" stroke-width="2.4" stroke-linecap="round" stroke-linejoin="round" points="92.75608 34.65208 88.75128 55.45928 94.32328 55.45928"></polyline>
                    <line x1="99.89496" y1="38.18804" x2="99.53776" y2="41.76044" id="Stroke-7" stroke="#000000" stroke-width="2.4" stroke-linecap="round" stroke-linejoin="round"></line>
                    <line x1="84.01936" y1="36.82532" x2="83.66216" y2="40.39772" id="Stroke-9" stroke="#000000" stroke-width="2.4" stroke-linecap="round" stroke-linejoin="round"></line>
                    <path d="M98.34908,31.12864 C100.38428,30.55224 102.10268,31.12864 103.50468,32.85824" id="Stroke-11" stroke="#000000" stroke-width="2.4" stroke-linecap="round" stroke-linejoin="round"></path>
                    <path d="M85.32504,31.7052 C83.21104,31.1776 81.57144,31.7052 80.40704,33.2884" id="Stroke-13" stroke="#000000" stroke-width="2.4" stroke-linecap="round" stroke-linejoin="round"></path>
                    <path d="M97.49088,64.45484 C102.12528,65.15564 105.50888,63.46004 107.64248,59.36724" id="Stroke-15" stroke="#000000" stroke-width="2.4" stroke-linecap="round" stroke-linejoin="round"></path>
                    <path d="M74.59632,85.38588 C67.71352,85.82388 63.88952,81.07188 63.11312,71.14948 C63.00032,69.70228 61.94392,68.49188 60.52112,68.20548 C49.75392,66.03588 49.57792,54.37108 60.63112,50.09388 C69.75592,46.18308 72.38432,37.08948 73.13232,23.12588 C75.46672,-3.13812 125.87872,-11.96532 139.01032,23.12588 L139.42272,24.36668 C139.72832,25.28588 140.47832,25.98348 141.41232,26.24268 C144.88272,27.20668 145.99352,30.27588 145.71112,33.52628 C145.64312,34.30508 146.15192,35.01988 146.91672,35.18228 C152.84832,36.43908 156.38952,40.61948 154.30192,45.50148 C153.85272,46.55228 154.26552,47.77228 155.28632,48.28708 C181.00152,61.25628 169.54992,85.34108 138.48792,91.60428 C121.96952,94.93468 112.20192,80.15388 114.36112,63.61588 C114.90272,59.46748 116.69592,55.61868 119.28272,52.33068 C121.93032,48.96548 122.18192,44.62308 118.18512,43.50388 C117.47312,43.30428 116.72272,43.25908 115.98752,43.33588 C107.58672,44.21388 104.29432,35.61348 113.14112,29.09988 C99.88672,20.92788 90.81792,31.93988 81.05152,27.25588 C77.12632,59.15308 78.15232,77.07668 100.42312,78.16428 L99.71632,90.02508 C91.99112,93.44708 85.22192,92.33268 79.34472,86.98908 C78.05592,85.81788 76.33432,85.27548 74.59632,85.38588" id="Fill-17" fill="#000000"></path>
                    <path d="M74.59632,85.38588 C67.71352,85.82388 63.88952,81.07188 63.11312,71.14948 C63.00032,69.70228 61.94392,68.49188 60.52112,68.20548 C49.75392,66.03588 49.57792,54.37108 60.63112,50.09388 C69.75592,46.18308 72.38432,37.08948 73.13232,23.12588 C75.46672,-3.13812 125.87872,-11.96532 139.01032,23.12588 L139.42272,24.36668 C139.72832,25.28588 140.47832,25.98348 141.41232,26.24268 C144.88272,27.20668 145.99352,30.27588 145.71112,33.52628 C145.64312,34.30508 146.15192,35.01988 146.91672,35.18228 C152.84832,36.43908 156.38952,40.61948 154.30192,45.50148 C153.85272,46.55228 154.26552,47.77228 155.28632,48.28708 C181.00152,61.25628 169.54992,85.34108 138.48792,91.60428 C121.96952,94.93468 112.20192,80.15388 114.36112,63.61588 C114.90272,59.46748 116.69592,55.61868 119.28272,52.33068 C121.93032,48.96548 122.18192,44.62308 118.18512,43.50388 C117.47312,43.30428 116.72272,43.25908 115.98752,43.33588 C107.58672,44.21388 104.29432,35.61348 113.14112,29.09988 C99.88672,20.92788 90.81792,31.93988 81.05152,27.25588 C77.12632,59.15308 78.15232,77.07668 100.42312,78.16428 L99.71632,90.02508 C91.99112,93.44708 85.22192,92.33268 79.34472,86.98908 C78.05592,85.81788 76.33432,85.27548 74.59632,85.38588 Z" id="Stroke-19" stroke="#000000" stroke-width="2.4" stroke-linecap="round" stroke-linejoin="round"></path>
                    <path d="M99.71644,90.02516 C102.56684,95.89996 117.07324,96.75996 121.47084,89.97276 L121.47084,67.12436" id="Stroke-21" stroke="#000000" stroke-width="2.4" stroke-linecap="round" stroke-linejoin="round"></path>
                    <path d="M133.45472,128.00892 C158.23392,148.86372 144.33032,184.51852 104.63912,173.08212 C100.62992,175.30772 98.68712,178.20612 98.7179502,181.74812 C187.43472,211.95772 182.46352,100.10612 121.47112,89.97252" id="Stroke-23" stroke="#000000" stroke-width="2.4" stroke-linecap="round" stroke-linejoin="round"></path>
                    <path d="M126.99124,91.20444 C139.27404,103.96404 119.92484,106.51644 109.29764,94.71684 C96.69564,107.28244 81.63484,101.41124 91.89644,91.96524" id="Stroke-25" stroke="#000000" stroke-width="2.4" stroke-linecap="round" stroke-linejoin="round"></path>
                    <line x1="89.94048" y1="100.6154" x2="89.94048" y2="103.913" id="Stroke-27" stroke="#000000" stroke-width="2.4" stroke-linecap="round" stroke-linejoin="round"></line>
                    <line x1="94.32932" y1="102.30992" x2="94.32932" y2="104.56632" id="Stroke-29" stroke="#000000" stroke-width="2.4" stroke-linecap="round" stroke-linejoin="round"></line>
                    <line x1="98.176" y1="101.6566" x2="98.176" y2="103.913" id="Stroke-31" stroke="#000000" stroke-width="2.4" stroke-linecap="round" stroke-linejoin="round"></line>
                    <line x1="101.852" y1="100.30876" x2="101.852" y2="102.56516" id="Stroke-33" stroke="#000000" stroke-width="2.4" stroke-linecap="round" stroke-linejoin="round"></line>
                    <line x1="120.58852" y1="101.99352" x2="120.58852" y2="104.24992" id="Stroke-35" stroke="#000000" stroke-width="2.4" stroke-linecap="round" stroke-linejoin="round"></line>
                    <line x1="125.23012" y1="102.78472" x2="125.23012" y2="105.04112" id="Stroke-37" stroke="#000000" stroke-width="2.4" stroke-linecap="round" stroke-linejoin="round"></line>
                    <line x1="129.42076" y1="101.43688" x2="129.42076" y2="103.69328" id="Stroke-39" stroke="#000000" stroke-width="2.4" stroke-linecap="round" stroke-linejoin="round"></line>
                    <path d="M110.02056,122.29212 C114.86416,124.51692 120.37656,125.12692 126.76576,123.61932" id="Stroke-41" stroke="#000000" stroke-width="2.4" stroke-linecap="round" stroke-linejoin="round"></path>
                    <path d="M114.46216,130.51168 C118.51696,131.71968 122.51776,131.75448 126.45976,130.51168" id="Stroke-43" stroke="#000000" stroke-width="2.4" stroke-linecap="round" stroke-linejoin="round"></path>
                    <line x1="119.10788" y1="116.06364" x2="118.39308" y2="124.39804" id="Stroke-45" stroke="#000000" stroke-width="2.4" stroke-linecap="round" stroke-linejoin="round"></line>
                    <line x1="114.97272" y1="119.43316" x2="114.46232" y2="123.81996" id="Stroke-47" stroke="#000000" stroke-width="2.4" stroke-linecap="round" stroke-linejoin="round"></line>
                    <line x1="122.32428" y1="119.43316" x2="121.77308" y2="124.38716" id="Stroke-49" stroke="#000000" stroke-width="2.4" stroke-linecap="round" stroke-linejoin="round"></line>
                    <path d="M84.70084,90.56968 C66.47204,95.59128 54.71004,106.19408 48.70564,121.91008" id="Stroke-51" stroke="#000000" stroke-width="2.4" stroke-linecap="round" stroke-linejoin="round"></path>
                    <polygon id="Stroke-53" stroke="#000000" stroke-width="2.4" stroke-linecap="round" stroke-linejoin="round" points="6.05452 120.231 72.99172 123.8198 87.90412 169.8974 22.31252 166.4218"></polygon>
                    <path d="M75.2104,114.15268 C73.0172,117.92988 72.382,120.82708 71.8852,123.76068" id="Stroke-55" stroke="#000000" stroke-width="2.4" stroke-linecap="round" stroke-linejoin="round"></path>
                    <line x1="129.67936" y1="168.27632" x2="133.30416" y2="172.20592" id="Stroke-57" stroke="#000000" stroke-width="2.4" stroke-linecap="round" stroke-linejoin="round"></line>
                    <line x1="131.06744" y1="161.56732" x2="138.20184" y2="168.95012" id="Stroke-59" stroke="#000000" stroke-width="2.4" stroke-linecap="round" stroke-linejoin="round"></line>
                    <line x1="137.15944" y1="159.71656" x2="141.97224" y2="164.72616" id="Stroke-61" stroke="#000000" stroke-width="2.4" stroke-linecap="round" stroke-linejoin="round"></line>
                    <line x1="141.24652" y1="156.16928" x2="144.51132" y2="159.71648" id="Stroke-63" stroke="#000000" stroke-width="2.4" stroke-linecap="round" stroke-linejoin="round"></line>
                    <polygon id="Stroke-65" stroke="#000000" stroke-width="2.4" stroke-linecap="round" stroke-linejoin="round" points="88.70396 174.06556 23.11236 170.58996 22.31236 166.42156 87.90396 169.89756"></polygon>
                    <path d="M74.32816,173.30384 C78.57016,180.72344 86.70016,183.53784 98.71816,181.74784" id="Stroke-67" stroke="#000000" stroke-width="2.4" stroke-linecap="round" stroke-linejoin="round"></path>
                    <path d="M104.63932,173.08216 C97.49092,169.33656 91.84932,162.76616 85.41972,162.22136" id="Stroke-69" stroke="#000000" stroke-width="2.4" stroke-linecap="round" stroke-linejoin="round"></path>
                    <path d="M86.9678,167.0052 C93.0018,168.2764 93.5782,172.7376 88.7038,174.0656" id="Stroke-71" stroke="#000000" stroke-width="2.4" stroke-linecap="round" stroke-linejoin="round"></path>
                    <polyline id="Stroke-73" stroke="#000000" stroke-width="2.4" stroke-linecap="round" stroke-linejoin="round" points="96.21468 167.49116 109.37108 163.91876 109.37108 167.65196 100.43748 170.24116"></polyline>
                    <line x1="88.40296" y1="162.89096" x2="109.37096" y2="163.91896" id="Stroke-75" stroke="#000000" stroke-width="2.4" stroke-linecap="round" stroke-linejoin="round"></line>
                    <path d="M132.71548,41.48352 C131.18148,41.04472 129.61588,41.30832 128.35148,42.07552 C128.79028,43.27552 129.33428,44.38512 129.54268,44.91152 C130.33228,46.90032 130.45828,49.05312 129.69148,51.07512 C129.57748,51.37592 129.44308,51.65752 129.29948,51.92912 C129.42868,51.97672 129.55708,52.02472 129.69108,52.06272 C132.61268,52.89792 135.65788,51.20672 136.49308,48.28512 C137.32828,45.36392 135.63708,42.31832 132.71548,41.48352" id="Fill-77" fill="#FFFFFF"></path>
                    <path d="M132.71548,41.48352 C131.18148,41.04472 129.61588,41.30832 128.35148,42.07552 C128.79028,43.27552 129.33428,44.38512 129.54268,44.91152 C130.33228,46.90032 130.45828,49.05312 129.69148,51.07512 C129.57748,51.37592 129.44308,51.65752 129.29948,51.92912 C129.42868,51.97672 129.55708,52.02472 129.69108,52.06272 C132.61268,52.89792 135.65788,51.20672 136.49308,48.28512 C137.32828,45.36392 135.63708,42.31832 132.71548,41.48352 Z" id="Stroke-79" stroke="#000000" stroke-width="2.4" stroke-linecap="round" stroke-linejoin="round"></path>
                    <path d="M147.477,94.95288 C195.3798,130.86328 173.241,201.73288 119.1078,194.43848" id="Stroke-81" stroke="#58ADC4" stroke-width="6" stroke-linecap="round" stroke-linejoin="round"></path>
                    <polyline id="Stroke-83" stroke="#EA5B25" stroke-width="2.4" stroke-linecap="round" stroke-linejoin="round" points="6.49868 41.91968 14.71628 49.94328 3.50548 52.43768"></polyline>
                    <path d="M58.33424,84.656 C58.33424,85.3452 57.77584,85.904 57.08624,85.904 C56.39744,85.904 55.83864,85.3452 55.83864,84.656 C55.83864,83.9668 56.39744,83.4084 57.08624,83.4084 C57.77584,83.4084 58.33424,83.9668 58.33424,84.656" id="Fill-85" fill="#000000"></path>
                    <path d="M58.33424,95.289 C58.33424,95.9782 57.77584,96.5366 57.08624,96.5366 C56.39744,96.5366 55.83864,95.9782 55.83864,95.289 C55.83864,94.5998 56.39744,94.0414 57.08624,94.0414 C57.77584,94.0414 58.33424,94.5998 58.33424,95.289" id="Fill-87" fill="#000000"></path>
                    <path d="M48.94808,89.30016 C48.94808,89.98936 48.38968,90.54776 47.70048,90.54776 C47.01128,90.54776 46.45288,89.98936 46.45288,89.30016 C46.45288,88.61096 47.01128,88.05216 47.70048,88.05216 C48.38968,88.05216 48.94808,88.61096 48.94808,89.30016" id="Fill-89" fill="#000000"></path>
                    <path d="M182.08012,71.41264 C182.08012,72.10184 181.52172,72.66064 180.83252,72.66064 C180.14332,72.66064 179.58452,72.10184 179.58452,71.41264 C179.58452,70.72344 180.14332,70.16504 180.83252,70.16504 C181.52172,70.16504 182.08012,70.72344 182.08012,71.41264" id="Fill-91" fill="#000000"></path>
                    <path d="M179.5846,76.25016 C179.5846,76.93936 179.0262,77.49776 178.337,77.49776 C177.6478,77.49776 177.0894,76.93936 177.0894,76.25016 C177.0894,75.56096 177.6478,75.00256 178.337,75.00256 C179.0262,75.00256 179.5846,75.56096 179.5846,76.25016" id="Fill-93" fill="#000000"></path>
                    <polygon id="Stroke-95" stroke="#EA5B25" stroke-width="2.4" stroke-linecap="round" stroke-linejoin="round" points="178.16372 42.24936 169.81012 30.31696 184.36852 29.84536"></polygon>
                    <path d="M52.79516,21.556 C52.79516,23.8144 50.96396,25.6456 48.70556,25.6456 C46.44676,25.6456 44.61596,23.8144 44.61596,21.556 C44.61596,19.2972 46.44676,17.4664 48.70556,17.4664 C50.96396,17.4664 52.79516,19.2972 52.79516,21.556 Z" id="Stroke-97" stroke="#000000" stroke-width="2.4" stroke-linecap="round" stroke-linejoin="round"></path>
                    <line x1="159.54028" y1="1.8818" x2="156.27388" y2="14.2038" id="Stroke-99" stroke="#000000" stroke-width="2.4" stroke-linecap="round" stroke-linejoin="round"></line>
                    <line x1="173.19848" y1="98.67768" x2="184.36848" y2="94.04128" id="Stroke-101" stroke="#000000" stroke-width="2.4" stroke-linecap="round" stroke-linejoin="round"></line>
                    <line x1="27.70764" y1="80.26868" x2="32.90364" y2="93.18468" id="Stroke-103" stroke="#000000" stroke-width="2.4" stroke-linecap="round" stroke-linejoin="round"></line>
                </g>
            </g>
        </g>
    </g>
</svg>