<?xml version="1.0" encoding="UTF-8"?>
<svg width="108px" height="116px" viewBox="0 0 108 116" version="1.1" xmlns="http://www.w3.org/2000/svg" xmlns:xlink="http://www.w3.org/1999/xlink">
    <!-- Generator: Sketch 64 (93537) - https://sketch.com -->
    <title>Group</title>
    <desc>Created with Sketch.</desc>
    <defs>
        <polygon id="path-1" points="0 -8.26813365e-14 7 -8.26813365e-14 7 4 0 4"></polygon>
    </defs>
    <g id="Landing-Pages" stroke="none" stroke-width="1" fill="none" fill-rule="evenodd">
        <g id="Artboard" transform="translate(-1380.000000, -133.000000)">
            <g id="Group" transform="translate(1372.000000, 133.000000)">
                <rect id="Rectangle" x="0" y="0" width="124" height="116"></rect>
                <g id="Group-94" transform="translate(8.000000, 0.000000)">
                    <path d="M1.03389157,73.0010983 L35.3587664,74.58844 C35.9476469,74.6157235 36.4582262,75.007487 36.6396162,75.5720461 L42.93012,95.1378338 C43.2340583,96.0831964 42.5066449,97.0434834 41.5204671,96.9984772 L8.10810212,95.4766626 C7.70570818,95.4584736 7.35497449,95.196132 7.22107484,94.813463 L0.0569800876,74.324466 C-0.175606853,73.6594008 0.334277466,72.9686845 1.03389157,73.0010983" id="Fill-1" fill="#2CB0C7"></path>
                    <path d="M82.1097737,13.855135 C82.1128203,13.8632535 82.1156325,13.871372 82.1184448,13.8797224 L82.3600639,14.5992498 C82.4638828,14.9082152 82.7205006,15.146434 83.0464872,15.235969 C85.1655174,15.8186424 86.2986197,17.670579 86.0773894,20.1903169 C86.0682496,20.295161 86.1336344,20.3895671 86.2292509,20.4097472 C88.4584275,20.8771386 90.1921795,22.013259 90.9861713,23.5265398 C91.6039289,24.7039484 91.6283017,26.0254016 91.0567119,27.3482466 C90.9357852,27.6282175 91.0419476,27.9378787 91.3037212,28.0684699 C97.5143405,31.1687936 100.57149,35.5423237 99.9117834,40.3832451 C99.4878367,43.492847 97.5419943,46.4660588 94.2842373,48.9816215 C90.9538305,51.5533175 86.4584492,53.4586039 81.2839096,54.49104 C80.3085277,54.6858831 79.3582216,54.7826087 78.4395534,54.7826087 C76.0100956,54.7826087 73.7981339,54.1066409 71.8994808,52.7790764 L71.586,52.552 L71.5810085,52.6235388 C71.5666311,52.722654 71.5310297,52.8179127 71.4762584,52.9024515 C70.4821447,54.4407673 68.1670281,56 64.5693936,56 C64.3088096,56 64.042198,55.9918657 63.7681676,55.9748998 C61.3596901,55.8258634 59.3472699,54.9903216 58.2407116,53.7279555 C53.6987181,55.557677 49.590066,54.8588846 46.0208754,51.6474916 C45.4228037,51.1095857 44.6182659,50.8414446 43.7565457,50.8975779 C39.2888182,51.1752292 36.7723234,48.1864764 36.2834606,42.001834 C36.2412769,41.4701908 35.8480306,41.0262271 35.3265926,40.9223108 C32.2692084,40.3127305 30.2354831,38.3763619 30.0191743,35.8689177 C29.7775551,33.069209 31.8358876,30.4107615 35.2642544,29.0930195 C39.7380751,27.1893568 41.6698563,22.9730928 42.1521572,14.0618078 C42.1526259,14.0536894 42.1533289,14.0455709 42.1537977,14.0374524 C42.4774407,10.4337843 44.3023565,7.19312721 47.4312187,4.66527089 C50.298073,2.34872648 54.149449,0.768178399 58.2750195,0.214963376 C66.4755398,-0.885203858 77.6378278,2.02723548 82.1097737,13.855135 Z M55.218104,17.1925177 C52.7958195,17.7566347 50.493993,18.292685 48.0810827,17.4819988 L48.0207205,17.981236 C48.6217742,17.8038407 49.2944939,17.8127864 50.0252191,18.0127108 C50.4230524,18.1217248 50.6654163,18.5643055 50.5658961,19.0017209 C50.466871,19.4385926 50.0628486,19.7044672 49.665758,19.5954532 C48.8783389,19.3798044 48.2830468,19.4702456 47.8027572,19.8929026 C46.6550706,30.4450152 46.8010879,37.8322524 50.1825364,41.8074548 C52.028544,43.977635 54.8726659,45.126745 58.8780127,45.3204282 C59.065496,45.3294745 59.2417303,45.4125148 59.3668754,45.5507605 C59.4922549,45.6890063 59.5567023,45.8713237 59.5454533,46.0568885 L59.1481006,52.6397162 C59.9396329,53.7043539 61.7173997,54.4510211 63.853947,54.5830017 C66.6081613,54.7538224 69.0686392,53.8646252 70.1972179,52.3074842 L70.1970661,51.3262076 C67.0388217,48.0734246 65.5908944,42.9582854 66.3124293,37.4884344 C66.6304479,35.076788 67.6775422,32.6962238 69.3405192,30.6044447 C70.1565404,29.5780395 70.5125243,28.3952959 70.2472354,27.5913365 C70.0843593,27.0977341 69.6850198,26.7593104 69.060466,26.5860392 C68.7443223,26.4985918 68.399353,26.4737725 68.035401,26.5106535 C65.5381232,26.7683566 63.528302,25.760044 62.7917269,23.8772573 C62.1725633,22.2943896 62.491988,19.9008358 65.0490261,17.6638523 C61.3413091,15.7662204 58.2321326,16.4908509 55.218104,17.1925177 Z M62.5600768,34.1736575 C62.907049,34.3688349 63.0416809,34.8305338 62.8607546,35.204836 C61.6559179,37.6985706 59.8256337,38.9565217 57.4095829,38.9565217 C57.0004912,38.9565217 56.5746294,38.92034 56.1319978,38.8479766 C55.7451085,38.7850409 55.4789154,38.3954506 55.537492,37.9778322 C55.5960687,37.5604686 55.9569764,37.272289 56.344102,37.3367536 C58.7696005,37.7329687 60.4900535,36.8039653 61.6041909,34.4982736 C61.7851172,34.1239714 62.2133409,33.9784802 62.5600768,34.1736575 Z M54.086004,20.3020659 C54.4557764,20.3745413 54.6978216,20.7376106 54.6266853,21.1131439 L52.5073691,32.2962796 L54.8475942,32.2962796 C55.2241848,32.2962796 55.5294118,32.6062618 55.5294118,32.9887195 C55.5294118,33.3711771 55.2241848,33.6811594 54.8475942,33.6811594 L51.681688,33.6811594 C51.4782791,33.6811594 51.285552,33.5890649 51.1560067,33.4295729 C51.0266886,33.2705425 50.9737341,33.0607332 51.0123704,32.8578483 L53.2875956,20.8511708 C53.3589592,20.4758683 53.7162316,20.2312062 54.086004,20.3020659 Z M58.4283414,21.9165485 C58.920791,21.9569071 59.2800492,22.3164663 59.2307744,22.7198084 L58.9640931,24.9045581 C58.9178046,25.2829513 58.5280856,25.5652174 58.0735627,25.5652174 C58.0436992,25.5652174 58.0138356,25.5639944 57.9833748,25.5615484 C57.4909253,25.5211897 57.1319657,25.1618752 57.1809418,24.7582885 L57.4476231,22.5737834 C57.496898,22.1704412 57.9352945,21.8774128 58.4283414,21.9165485 Z M48.9577532,21.1048384 C49.4502027,21.1452011 49.809461,21.5047957 49.7601861,21.9081777 L49.4932062,24.0928986 C49.4472164,24.4713292 49.0574973,24.7536232 48.6029744,24.7536232 C48.5731109,24.7536232 48.5432474,24.7524001 48.5127866,24.7499539 C48.020337,24.7095912 47.6613774,24.3502412 47.7103536,23.9466145 L47.9770349,21.7621383 C48.0263097,21.3587563 48.4632131,21.0664328 48.9577532,21.1048384 Z M60.7218947,19.4174039 C60.9719881,19.7538951 60.9245111,20.248043 60.6159107,20.5207395 C60.4825915,20.6383938 60.3226564,20.6956522 60.1634407,20.6956522 C59.9538706,20.6956522 59.7462187,20.5962997 59.6040276,20.4051769 C58.947982,19.5219855 58.2056146,19.2451057 57.2685437,19.5353196 C56.8858504,19.6529739 56.4887702,19.411129 56.3803884,18.99411 C56.2720066,18.5773524 56.4942852,18.1438618 56.8764989,18.025946 C58.3720238,17.5631726 59.7018589,18.0447707 60.7218947,19.4174039 Z" id="Combined-Shape" fill="#000000"></path>
                    <path d="M77.5189675,74.9736377 C92.1557743,87.0214608 83.9431711,107.619248 60.4976278,101.012668 C58.1293982,102.297935 56.9817886,103.972573 57,106.018787 C109.404887,123.470649 106.468169,58.8541832 70.4402696,53" id="Fill-23" fill="#DEEFF3"></path>
                    <path d="M73.8553113,110 C68.9339305,110 63.4442123,108.979151 57.4757342,106.949598 C57.1934366,106.853609 57.0028213,106.590164 57,106.292621 C56.979433,103.942169 58.2657933,102.031494 60.8235455,100.614076 C60.9865624,100.524159 61.1792826,100.501972 61.3582036,100.553587 C69.1848877,102.805713 79.002156,102.488552 83.0852976,94.8463152 C84.5833227,92.042309 84.9371888,88.6495222 84.0818761,85.2931693 C83.1552289,81.65749 80.9003561,78.2520915 77.5607308,75.4455163 C77.2644001,75.196318 77.2262771,74.7544406 77.4755971,74.4582987 C77.725151,74.1621568 78.1678928,74.1245551 78.4644574,74.3735199 C82.0295466,77.3697381 84.4422909,81.0262033 85.4416759,84.9475147 C86.3835256,88.6434499 85.986391,92.3928682 84.3232441,95.5058616 C82.5866576,98.7568833 79.6432312,101.113173 75.8115146,102.319928 C71.704049,103.613097 66.6767189,103.495388 61.2562303,101.98128 C59.5058447,103.013573 58.5747537,104.264936 58.4248342,105.790254 C65.6647042,108.193488 72.1442182,109.061594 77.6891329,108.36795 C82.734706,107.737364 86.9144416,105.83673 90.1116317,102.718832 C93.2814575,99.6280263 95.3901529,95.3753069 96.2096814,90.4200678 C96.9976356,85.6556395 96.5778144,80.4789947 94.9953573,75.4494866 C93.2669567,69.9566145 90.276052,65.0389771 86.3463381,61.2283686 C82.0552738,57.0674345 76.7107974,54.3577827 70.8906015,53.3920518 C70.5082017,53.3287596 70.2497602,52.9679242 70.3133766,52.5863028 C70.376759,52.2044479 70.7371738,51.945207 71.1205092,52.0099004 C77.2239382,53.0223415 82.82709,55.862548 87.3239719,60.2229341 C91.4204449,64.1951595 94.5360097,69.3152851 96.3341076,75.0297965 C97.982286,80.2671645 98.4180113,85.6682512 97.5942729,90.6487137 C96.7256289,95.9000946 94.4773049,100.420696 91.0920722,103.721464 C87.6705876,107.057732 83.2200146,109.089153 77.8633763,109.758509 C76.5737416,109.919659 75.2368623,110 73.8553113,110" id="Fill-25" fill="#000000"></path>
                    <path d="M72.8246365,61 C71.6202135,61 70.2638752,60.7352928 68.9233082,60.2250739 C67.5419212,59.6994512 65.5698033,58.6870707 63.7347573,56.8007062 C59.9888234,60.3388245 55.9283898,61.2419571 53.4794197,60.5307787 C52.1819921,60.1546907 51.3282504,59.349905 51.0756764,58.2650085 C50.8462957,57.2808286 51.0281304,55.6790776 53.1973904,53.6389128 C53.4803475,53.3725468 53.9205544,53.3915052 54.1805502,53.6801474 C54.4407779,53.9692636 54.4226872,54.4188155 54.1397302,54.6849446 C52.8534353,55.8949668 52.230002,57.0798692 52.4292316,57.9356056 C52.6059638,58.6939431 53.4010267,59.0299814 53.8593244,59.1629274 C56.8561178,60.0316978 60.8369988,57.7640318 63.2669504,55.2887708 C63.4019348,55.1513221 63.5858569,55.0735925 63.7769689,55.0814129 C63.967617,55.0868634 64.1475962,55.1717024 64.2751588,55.3164975 C66.5719815,57.9218607 70.8418497,60.1840763 74.0130561,59.4555983 C74.6026272,59.3207564 75.3482886,59.0133928 75.5530846,58.3176181 C75.8309391,57.3720661 75.0885248,55.8729276 73.5162577,54.2038742 C73.2497678,53.9211565 73.2581174,53.4708937 73.5350442,53.1988401 C73.811971,52.9263125 74.2524099,52.9350808 74.5188998,53.2180355 C77.0300276,55.8835918 77.1921481,57.6848803 76.8857659,58.7266464 C76.574977,59.7831053 75.6630203,60.5348073 74.3175828,60.8433559 C73.8592851,60.9481013 73.3566885,61 72.8246365,61" id="Fill-27" fill="#000000"></path>
                    <path d="M73.9190402,76.4442103 C74.0324434,76.8415776 73.8327354,77.2648328 73.4729421,77.3899997 C72.3040696,77.7966666 71.1103759,78 69.900742,78 C68.6945238,78 67.4723654,77.7979233 66.2424647,77.3935185 C65.8808497,77.274635 65.6749933,76.8546472 65.7827036,76.4555205 C65.8904138,76.0568965 66.2704739,75.8299372 66.6323166,75.948318 C68.8291047,76.6706669 70.9924184,76.6714209 73.0621403,75.9518367 C73.4217058,75.8264185 73.8054093,76.0470943 73.9190402,76.4442103 Z M69.1305983,67.1690742 C69.5647873,67.2041021 69.8868766,67.5653126 69.84951,67.9752145 L69.4559004,72.303199 C70.6226267,72.2911563 71.8336427,72.1192568 73.0978405,71.7882362 C73.4698103,71.6902521 73.8443232,71.9470114 73.9321719,72.3607505 C74.0200205,72.7742331 73.789071,73.1884852 73.4164076,73.2862128 C72.0221564,73.6512163 70.6653565,73.8333333 69.3508627,73.8333333 C69.1472457,73.8333333 68.9446475,73.8289604 68.7430873,73.8202162 C68.6953333,73.8286493 68.6450416,73.8333333 68.5937828,73.8333333 C68.5711523,73.8333333 68.5485219,73.8323396 68.5253651,73.8306007 C68.4640687,73.8256586 68.4050141,73.8142284 68.3488933,73.7970874 C66.5757114,73.6693879 64.884685,73.198332 63.2895344,72.3853748 C62.9413761,72.2078748 62.7887968,71.7510433 62.9487739,71.3650065 C63.108751,70.9787132 63.5204839,70.8101908 63.8686422,70.9866648 C65.1553303,71.6425015 66.4865765,72.0528159 67.879111,72.2189921 L68.2764301,67.8480207 C68.3137967,67.437622 68.6953567,67.1365304 69.1305983,67.1690742 Z M73.1311475,59.6666667 C73.5838798,59.6666667 73.9508197,60.0031569 73.9508197,60.4183203 L73.9508197,61.8316797 C73.9508197,62.2468431 73.5838798,62.5833333 73.1311475,62.5833333 C72.6784153,62.5833333 72.3114754,62.2468431 72.3114754,61.8316797 L72.3114754,60.4183203 C72.3114754,60.0031569 72.6784153,59.6666667 73.1311475,59.6666667 Z M55.0983607,59.25 C55.5510929,59.25 55.9180328,59.5864903 55.9180328,60.0016536 L55.9180328,61.415013 C55.9180328,61.8301764 55.5510929,62.1666667 55.0983607,62.1666667 C54.6456284,62.1666667 54.2786885,61.8301764 54.2786885,61.415013 L54.2786885,60.0016536 C54.2786885,59.5864903 54.6456284,59.25 55.0983607,59.25 Z M70.2622951,59.25 C70.7150273,59.25 71.0819672,59.5864903 71.0819672,60.0016536 L71.0819672,61.415013 C71.0819672,61.8301764 70.7150273,62.1666667 70.2622951,62.1666667 C69.8095628,62.1666667 69.442623,61.8301764 69.442623,61.415013 L69.442623,60.0016536 C69.442623,59.5864903 69.8095628,59.25 70.2622951,59.25 Z M51.8196721,58.4166667 C52.2724044,58.4166667 52.6393443,58.730951 52.6393443,59.1187167 L52.6393443,61.04795 C52.6393443,61.4357156 52.2724044,61.75 51.8196721,61.75 C51.3669399,61.75 51,61.4357156 51,61.04795 L51,59.1187167 C51,58.730951 51.3669399,58.4166667 51.8196721,58.4166667 Z M57.147541,58.8333333 C57.6002732,58.8333333 57.9672131,59.1698236 57.9672131,59.584987 L57.9672131,60.9983464 C57.9672131,61.4135097 57.6002732,61.75 57.147541,61.75 C56.6948087,61.75 56.3278689,61.4135097 56.3278689,60.9983464 L56.3278689,59.584987 C56.3278689,59.1698236 56.6948087,58.8333333 57.147541,58.8333333 Z M75.1803279,58.8333333 C75.6330601,58.8333333 76,59.1697947 76,59.5849224 L76,60.9984109 C76,61.4135386 75.6330601,61.75 75.1803279,61.75 C74.7275956,61.75 74.3606557,61.4135386 74.3606557,60.9984109 L74.3606557,59.5849224 C74.3606557,59.1697947 74.7275956,58.8333333 75.1803279,58.8333333 Z M59.1967213,58 C59.6494536,58 60.0163934,58.3364903 60.0163934,58.7516536 L60.0163934,60.165013 C60.0163934,60.5801764 59.6494536,60.9166667 59.1967213,60.9166667 C58.7439891,60.9166667 58.3770492,60.5801764 58.3770492,60.165013 L58.3770492,58.7516536 C58.3770492,58.3364903 58.7439891,58 59.1967213,58 Z" id="Combined-Shape" fill="#000000"></path>
                    <path d="M50.0487141,53.5111487 C50.152304,53.8813819 49.9314692,54.2643658 49.5554851,54.3663712 C39.2305085,57.1670907 32.4782809,62.9061103 28.9197316,71.9081726 L41.1043459,72.5543956 C41.3901276,70.8408874 41.7966261,69.0813836 43.0368708,66.8095223 C43.2279367,66.4594606 43.6497974,66.3404934 43.9786512,66.543495 C44.3077347,66.7467408 44.4195726,67.1952498 44.2285067,67.5450672 C43.0816593,69.6462818 42.7126587,71.2842477 42.4481975,72.8881249 C42.4900765,72.9451479 42.5228093,73.0087694 42.5453644,73.0776382 L49.5866331,94.6019785 C49.9511501,94.6532166 50.3101355,94.7324371 50.6648388,94.8357164 C50.7974685,94.6510469 50.99643,94.5395062 51.2157215,94.5574366 L63.3824512,95.2900631 C63.599694,95.3031349 63.7888415,95.4373023 63.9087162,95.6368032 C63.9960581,95.7520254 64.0445545,95.8944786 64.0445545,96.0429021 L64.0445545,98.135164 C64.0445545,98.4344428 63.8488652,98.6978531 63.5642062,98.7812476 L59.2062273,100.058213 C59.7227947,100.385449 60.2496785,100.695128 60.7893269,100.9753 C61.1350459,101.154608 61.2686674,101.57813 61.0874418,101.92087 C60.9611259,102.159481 60.7150927,102.296296 60.4605756,102.296296 C60.3500492,102.296296 60.2378731,102.270614 60.1330027,102.215981 C58.5168191,101.376876 57.0516961,100.319472 55.6348842,99.2968555 C53.7322078,97.9235102 51.9187454,96.6145358 50.0873737,96.1317132 L50.649,97.85 L50.8132067,97.8846092 C53.2433525,98.4259199 54.1507447,99.6552922 54.1823324,100.650454 C54.209921,101.515457 53.5585358,102.609978 51.6483265,103.087376 C51.5838716,103.103498 51.5189284,103.111111 51.455206,103.111111 L51.4383614,103.110862 C51.4319733,103.111028 51.4255748,103.111111 51.4191674,103.111111 C51.4066314,103.111111 51.3940953,103.110884 51.3815593,103.110203 L44.4225691,102.756993 C46.9119398,106.028957 51.0709399,107.165071 57.0787356,106.229399 C57.4601309,106.16942 57.8165817,106.445665 57.8734646,106.845037 C57.9303475,107.24441 57.6669143,107.616719 57.2848197,107.676211 C55.8991145,107.892233 54.5945375,108 53.373653,108 C48.4023535,108 44.8056456,106.21406 42.646332,102.665852 L12.5957274,101.136299 C12.2697901,101.119717 11.998018,100.891889 11.9362838,100.584333 L11.4632253,98.2174661 C11.4451166,98.1268164 11.4465612,98.0349355 11.4660679,97.9469895 L2.03982687,71.4440865 C1.96187173,71.2252141 1.99991744,70.9824859 2.14025557,70.796734 C2.28094938,70.6112136 2.50779181,70.5072203 2.74001854,70.5194957 L27.4758172,71.8319895 C27.4788271,71.7585236 27.493811,71.6842735 27.5219201,71.6117738 C31.1793488,62.1848527 38.4664251,55.9314585 49.1802073,53.0252321 C49.5561914,52.9229949 49.9451243,53.1406837 50.0487141,53.5111487 Z M75.5949038,98.8532729 L77.8196072,101.129775 C78.0955775,101.41202 78.076672,101.851841 77.7776224,102.112072 C77.6361999,102.235352 77.4569666,102.296296 77.2784698,102.296296 C77.0798399,102.296296 76.8819466,102.220985 76.7368413,102.072446 L74.5118923,99.7959448 C74.2361676,99.5136994 74.255073,99.0738786 74.5538771,98.8136474 C74.8531723,98.5534162 75.319179,98.571491 75.5949038,98.8532729 Z M51.1509114,99.3817025 L51.1609585,99.4132749 C51.4044634,99.4875566 51.5930159,99.6846432 51.6429241,99.9342396 L51.9661123,101.545629 C52.4518365,101.314016 52.7281325,101.009177 52.7179363,100.68964 C52.7048785,100.276558 52.2045597,99.7443331 51.1509114,99.3817025 Z M13.109,98.702 L13.2906301,99.6056705 L42.8047722,101.093919 C42.9341029,101.061628 43.06784,101.069357 43.1905187,101.112633 L50.4851485,101.481481 L50.318,100.652 L13.109,98.702 Z M76.7942023,93.9541547 L81.0986401,98.2585083 C81.3764159,98.5362762 81.3686932,98.9793989 81.0810227,99.2478379 C80.9405662,99.3791422 80.7590828,99.4444444 80.5780821,99.4444444 C80.3886347,99.4444444 80.1994287,99.3730784 80.0572828,99.2310459 L75.752845,94.9266923 C75.4750693,94.6489244 75.482792,94.2058017 75.7704624,93.9373627 C76.0581329,93.6686904 76.5164266,93.6763868 76.7942023,93.9541547 Z M3.64356436,72.1481481 L12.648,97.431 L49.62,99.313 L41.3789243,74.147859 L3.64356436,72.1481481 Z M62.594,96.955 L56.941,98.506 L56.985619,98.5380754 C57.2857394,98.7536342 57.5883633,98.9692025 57.894048,99.1820596 C57.9765393,99.0689571 58.0952366,98.9824706 58.238664,98.9404146 L62.7133353,97.6298647 L62.713,96.962 L62.594,96.955 Z M55.6240339,97.558558 L55.6526352,97.5308953 C55.7245375,97.469599 55.8105002,97.4228049 55.9072556,97.3962702 L58.428,96.704 L53.9776081,96.4365788 C54.5254182,96.7861747 55.0724862,97.1656337 55.6240339,97.558558 Z M80.1306622,92.7417752 L83.1467108,95.771545 C83.4344548,96.060394 83.4249302,96.5200365 83.1254057,96.7975154 C82.9795285,96.932989 82.7920437,97 82.6045589,97 C82.4070482,97 82.2097882,96.9252476 82.0621565,96.7769524 L79.0463585,93.7474246 C78.7586145,93.4583336 78.7681391,92.9989331 79.0676636,92.7212122 C79.3671881,92.4430076 79.8429182,92.4524423 80.1306622,92.7417752 Z M82.9214926,91.1277475 L84.8160711,93.3147971 C85.0764799,93.6151834 85.0581445,94.0832732 84.7752227,94.3599838 C84.6413048,94.4909404 84.4723408,94.5555556 84.303841,94.5555556 C84.1158453,94.5555556 83.9285459,94.4751566 83.7913787,94.3165782 L81.8968002,92.1295287 C81.6363914,91.8288957 81.6547267,91.3610525 81.9376486,91.0843419 C82.2208026,90.8073847 82.6610838,90.8273611 82.9214926,91.1277475 Z M71.1085746,69.7084191 C71.5672165,69.7527821 71.8974832,70.1145114 71.8462445,70.5159725 L71.4627898,73.5348524 C71.4151713,73.9085256 71.0534373,74.1851852 70.6335028,74.1851852 C70.6025925,74.1851852 70.5714038,74.1837227 70.540215,74.1805539 C70.0815731,74.1361908 69.7510279,73.7744615 69.8022665,73.3730005 L70.1859997,70.3541206 C70.2366815,69.9529033 70.6490972,69.6628373 71.1085746,69.7084191 Z M66.9934153,69.7088059 C67.4581303,69.7546677 67.7909972,70.1121974 67.7367899,70.5074251 L67.376537,73.1407553 C67.3262823,73.5076495 66.9601004,73.7777778 66.5363233,73.7777778 C66.503573,73.7777778 66.4705404,73.776097 66.4372255,73.7727354 C65.9725105,73.7268736 65.6399259,73.3693439 65.6938509,72.9741162 L66.0541038,70.3410261 C66.1083112,69.9455583 66.5303943,69.6617436 66.9934153,69.7088059 Z" id="Combined-Shape" fill="#000000"></path>
                    <path d="M74.084958,116 C72.5811858,116 71.0499759,115.894719 69.4984759,115.682519 C68.5519895,115.55314 67.8881808,114.669481 68.0156856,113.709083 C68.1431903,112.748919 69.0138195,112.074652 69.960306,112.204499 C76.3277044,113.074121 82.2775419,111.945508 87.1676836,108.93751 C91.6891451,106.156685 95.2087836,101.886951 97.3461599,96.5894396 C99.8607473,90.3572661 100.229197,83.1899624 98.3837211,76.4070517 C96.3406477,68.8986373 91.7281113,62.2427658 85.0448332,57.1588582 C84.2804964,56.5777065 84.1255539,55.4778699 84.6982877,54.7022991 C85.2712521,53.9271962 86.3549272,53.7692745 87.1192641,54.3508942 C94.4209287,59.9048234 99.4687797,67.2089925 101.717521,75.4730914 C103.765667,83.0006904 103.349951,90.9721078 100.546921,97.9192569 C98.1266365,103.917238 94.1202665,108.765082 88.9605895,111.938723 C84.5949927,114.623625 79.519704,116 74.084958,116" id="Fill-79" fill="#2CB0C7"></path>
                    <path d="M2.70467844,32 C2.38141278,32 2.09012103,31.7938807 2.01700421,31.490662 C1.93236738,31.1401942 2.17193663,30.7929774 2.55209704,30.7147344 L7.86987595,29.6238842 L3.97187983,26.115521 C3.6932836,25.8645365 3.68787625,25.4529481 3.95988961,25.195895 C4.23213807,24.9388419 4.67859734,24.9342904 4.95742867,25.185058 L9.7873703,29.5324201 C9.97263091,29.6993096 10.0438669,29.9459592 9.97310112,30.1757031 C9.90210022,30.4052303 9.70061755,30.5805726 9.44788258,30.6323734 L2.85867044,31.9843948 C2.80694794,31.995015 2.75546053,32 2.70467844,32" id="Fill-81" fill="#2CB0C7"></path>
                    <path d="M100.083333,19.382585 L103.66949,24 L106.333333,19.2 L100.083333,19.382585 Z M103.633561,26 C103.403822,26 103.187056,25.8975433 103.054024,25.7233236 L98.1280847,19.2750332 C97.9790139,19.0800628 97.9584931,18.8258663 98.0747777,18.6129551 C98.1910623,18.4002601 98.4252827,18.2627865 98.6847413,18.255005 L107.269519,18.00016 C107.517656,17.9951885 107.753763,18.1062914 107.888446,18.298668 C108.022657,18.4910446 108.036809,18.7340011 107.925242,18.9384823 L104.26664,25.6414014 C104.154836,25.8458826 103.934297,25.9814108 103.685688,25.9982708 C103.668234,25.9993515 103.650779,26 103.633561,26 L103.633561,26 Z" id="Fill-83" fill="#2CB0C7"></path>
                    <path d="M27.8,11.2 C26.9178295,11.2 26.2,11.9177798 26.2,12.8001107 C26.2,13.6822202 26.9178295,14.4 27.8,14.4 C28.6821705,14.4 29.4,13.6822202 29.4,12.8001107 C29.4,11.9177798 28.6821705,11.2 27.8,11.2 M28,16 C26.345735,16 25,14.6543159 25,13.0001134 C25,11.345911 26.345735,10 28,10 C29.654265,10 31,11.345911 31,13.0001134 C31,14.6543159 29.654265,16 28,16" id="Fill-85" fill="#000000"></path>
                    <path d="M90.6358579,9 C90.5820701,9 90.5272235,8.99282752 90.4725886,8.97804787 C90.1335559,8.88567506 89.931534,8.52878996 90.0213215,8.18059878 L91.7505787,1.48519968 C91.8403663,1.13722585 92.1885048,0.92944135 92.5273257,1.02203151 C92.8665701,1.11440433 93.0685921,1.47128942 92.9785928,1.81926326 L91.2495473,8.5148797 C91.1741596,8.80699515 90.9170793,9 90.6358579,9" id="Fill-87" fill="#000000"></path>
                    <g id="Group-91" transform="translate(101.000000, 55.000000)">
                        <mask id="mask-2" fill="white">
                            <use xlink:href="#path-1"></use>
                        </mask>
                        <g id="Clip-90"></g>
                        <path d="M0.619360786,4 C0.37671983,4 0.146458514,3.84175368 0.0474213889,3.57914664 C-0.0835964746,3.23127757 0.0661971772,2.83202392 0.381878014,2.68787426 L6.1435691,0.0524818717 C6.45924993,-0.09234989 6.82135442,0.072944758 6.95257861,0.420813825 C7.08359647,0.768682891 6.93380282,1.16793654 6.61812199,1.31231357 L0.856430905,3.94770596 C0.778851823,3.98317496 0.698384159,4 0.619360786,4" id="Fill-89" fill="#000000" mask="url(#mask-2)"></path>
                    </g>
                    <path d="M19.3682441,55 C19.1180252,55 18.8810754,54.8328853 18.7818725,54.5578864 L16.045893,46.9683869 C15.915518,46.6071277 16.0724314,46.1962746 16.3961574,46.0510188 C16.7196727,45.905998 17.0878399,46.0806341 17.2182149,46.4418933 L19.9541944,54.0313928 C20.0843588,54.392652 19.927656,54.8035051 19.6039301,54.9487609 C19.5266318,54.9835471 19.4468061,55 19.3682441,55" id="Fill-92" fill="#000000"></path>
                </g>
            </g>
        </g>
    </g>
</svg>