<?xml version="1.0" encoding="UTF-8"?>
<svg width="23px" height="23px" viewBox="0 0 23 23" version="1.1" xmlns="http://www.w3.org/2000/svg" xmlns:xlink="http://www.w3.org/1999/xlink">
    <!-- Generator: Sketch 63.1 (92452) - https://sketch.com -->
    <title>Save Copy 13</title>
    <desc>Created with Sketch.</desc>
    <g id="Dashboard" stroke="none" stroke-width="1" fill="none" fill-rule="evenodd">
        <g id="Dashboard_Mentor_02" transform="translate(-653.000000, -669.000000)" fill="#FD4D00">
            <g id="Group" transform="translate(420.000000, 652.000000)">
                <g id="icons/functional/edit/edit-copy" transform="translate(232.000000, 16.000000)">
                    <path d="M20.1118983,4.51608397 C20.3587019,4.76328485 20.3791146,5.15112311 20.1732449,5.42158905 L20.1114884,5.49224859 L13.2897085,12.3137085 L20.1114884,19.1351684 L20.1732449,19.2058279 C20.3791146,19.4762939 20.3587019,19.8641321 20.1118983,20.111333 C19.842658,20.3810067 19.4059497,20.3811904 19.136483,20.1117432 L19.136483,20.1117432 L12.3137085,13.2897085 L5.49093398,20.1117432 C5.22146731,20.3811904 4.78475903,20.3810067 4.51551873,20.111333 C4.26871512,19.8641321 4.24830236,19.4762939 4.4541721,19.2058279 L4.51592862,19.1351684 L11.3377085,12.3137085 L4.51592862,5.49224859 L4.4541721,5.42158905 C4.24830236,5.15112311 4.26871512,4.76328485 4.51551873,4.51608397 C4.78475903,4.24641028 5.22146731,4.24622663 5.49093398,4.51567377 L5.49093398,4.51567377 L12.3137085,11.3377085 L19.136483,4.51567377 C19.4059497,4.24622663 19.842658,4.24641028 20.1118983,4.51608397 Z" id="Combined-Shape" transform="translate(12.313708, 12.313708) rotate(45.000000) translate(-12.313708, -12.313708) "></path>
                </g>
            </g>
        </g>
    </g>
</svg>