<svg width="224" height="29" viewBox="0 0 224 29" fill="none" xmlns="http://www.w3.org/2000/svg">
<rect width="224" height="29" />
<path d="M73.1 23V17H74.94L78.22 23H81.26L77.5 16.74C79.5 16.46 80.78 15.02 80.78 12.9C80.78 9.8 78.3 8.84 75.58 8.84H70.58V23H73.1ZM73.1 11H75.36C76.68 11 78.14 11.26 78.14 12.88C78.14 14.64 76.62 14.84 75.18 14.84H73.1V11ZM87.6977 13.16C84.7577 13.16 82.4777 15.22 82.4777 18.2C82.4777 21.2 84.7577 23.24 87.6977 23.24C89.3377 23.24 90.7177 22.6 91.7577 21.32L90.0377 20.02C89.3577 20.86 88.5377 21.32 87.4577 21.32C86.0777 21.32 85.0377 20.42 84.8777 19.04H92.1977V18.36C92.1977 15.46 90.7377 13.16 87.6977 13.16ZM84.8777 17.24C85.0577 15.88 85.9177 14.96 87.3377 14.96C88.7577 14.96 89.7777 15.74 89.7977 17.24H84.8777ZM94.662 8.84V23H100.002C103.082 23 107.442 20.94 107.442 15.92C107.442 11.16 103.962 8.84 100.302 8.84H94.662ZM97.182 20.72V11.12H99.502C102.582 11.12 104.802 12.48 104.802 15.92C104.802 19.36 102.182 20.72 99.162 20.72H97.182ZM112.298 8.84H109.778V23H112.298V8.84ZM119.882 11.12H124.222V23H126.742V11.12H131.082V8.84H119.882V11.12ZM133.454 23.24C134.734 23.24 135.854 22.76 136.534 21.68H136.594V23H138.754V17.26C138.754 15 137.934 13.16 134.654 13.16C132.774 13.16 131.434 13.82 130.574 14.7L131.834 15.96C132.494 15.36 133.394 14.96 134.394 14.96C135.714 14.96 136.594 15.62 136.594 16.74V17.02H135.854C131.734 17.02 129.954 18.14 129.954 20.36C129.954 22.12 131.474 23.24 133.454 23.24ZM135.754 18.7H136.454V19.3C136.454 20.52 135.694 21.44 134.054 21.44C133.154 21.44 132.354 21 132.354 20.18C132.354 19.16 133.634 18.7 135.754 18.7ZM143.777 7.88H141.377V23H143.777V7.88ZM151.272 13.16C148.332 13.16 146.052 15.22 146.052 18.2C146.052 21.2 148.332 23.24 151.272 23.24C152.912 23.24 154.292 22.6 155.332 21.32L153.612 20.02C152.932 20.86 152.112 21.32 151.032 21.32C149.652 21.32 148.612 20.42 148.452 19.04H155.772V18.36C155.772 15.46 154.312 13.16 151.272 13.16ZM148.452 17.24C148.632 15.88 149.492 14.96 150.912 14.96C152.332 14.96 153.352 15.74 153.372 17.24H148.452ZM160.416 23V17.72C160.416 16.44 161.076 15.32 162.616 15.32C163.756 15.32 164.376 16.1 164.376 18.02V23H166.776V16.86C166.776 15.38 166.136 13.16 163.276 13.16C162.016 13.16 160.916 13.68 160.336 14.94H160.296V13.4H158.016V23H160.416ZM170.361 15.44V19.94C170.361 22.36 171.241 23.24 173.501 23.24C174.041 23.24 174.941 23.14 175.401 22.92V20.9C175.201 21.06 174.701 21.2 174.101 21.2C173.161 21.2 172.761 20.72 172.761 19.7V15.44H175.401V13.4H172.761V10.62H170.361V13.4H168.381V15.44H170.361ZM185.932 23V17.14H187.872C191.652 17.14 193.392 15.86 193.392 12.9C193.392 9.36 190.092 8.84 188.272 8.84H183.412V23H185.932ZM185.932 11H187.812C189.772 11 190.752 11.64 190.752 12.98C190.752 14.82 189.052 14.98 187.572 14.98H185.932V11ZM200.159 13.16C197.239 13.16 194.939 15.22 194.939 18.2C194.939 21.2 197.219 23.24 200.159 23.24C203.099 23.24 205.379 21.2 205.379 18.2C205.379 15.2 203.099 13.16 200.159 13.16ZM197.339 18.2C197.339 16.56 198.539 15.32 200.139 15.32C201.779 15.32 202.979 16.54 202.979 18.2C202.979 19.8 201.839 21.08 200.159 21.08C198.539 21.08 197.339 19.86 197.339 18.2ZM212.366 13.16C209.446 13.16 207.146 15.22 207.146 18.2C207.146 21.2 209.426 23.24 212.366 23.24C215.306 23.24 217.586 21.2 217.586 18.2C217.586 15.2 215.306 13.16 212.366 13.16ZM209.546 18.2C209.546 16.56 210.746 15.32 212.346 15.32C213.986 15.32 215.186 16.54 215.186 18.2C215.186 19.8 214.046 21.08 212.366 21.08C210.746 21.08 209.546 19.86 209.546 18.2ZM222.273 7.88H219.873V23H222.273V7.88Z" fill="black"/>
<path fill-rule="evenodd" clip-rule="evenodd" d="M2 15H35L56.5 28H21L2 15Z" fill="#2CB0C7"/>
<path fill-rule="evenodd" clip-rule="evenodd" d="M2 11.0039H35L56.5 24.0039H21L2 11.0039Z" stroke="black" stroke-width="1.2"/>
<path d="M21 19C26.2467 19 30.5 14.7467 30.5 9.5C30.5 4.25329 26.2467 0 21 0C15.7533 0 11.5 4.25329 11.5 9.5C11.5 14.7467 15.7533 19 21 19Z" fill="#FD4D00"/>
<path d="M27.0001 18.4001C31.9154 18.4001 35.9001 14.4154 35.9001 9.5001C35.9001 4.58476 31.9154 0.600098 27.0001 0.600098C22.0848 0.600098 18.1001 4.58476 18.1001 9.5001C18.1001 14.4154 22.0848 18.4001 27.0001 18.4001Z" stroke="black" stroke-width="1.2"/>
</svg>
