<svg width="200" height="28" viewBox="0 0 200 28" fill="none" xmlns="http://www.w3.org/2000/svg">
<path d="M79.232 14.272C79.232 12.272 78.064 11.376 75.536 11.376H70.256V12.576H71.056C71.28 12.576 71.36 12.672 71.36 13.024V20.336C71.36 20.704 71.28 20.8 71.056 20.8H70.256V22H74.624V20.8H73.824C73.6 20.8 73.52 20.704 73.52 20.336V17.344H74.72C76.032 17.344 76.336 18.112 76.416 19.472C76.528 20.928 77.024 22 78.336 22H80.08V20.8H79.744C79.184 20.8 78.976 20.592 78.912 19.76C78.784 18.304 78.24 17.312 76.832 16.88C78.512 16.592 79.232 15.728 79.232 14.272ZM73.52 12.576H74.928C76.272 12.576 76.848 13.04 76.848 14.384C76.848 15.792 76.176 16.304 74.688 16.304H73.52V12.576ZM88.2854 18.512V18.112C88.2854 15.536 86.9254 14 84.4614 14C82.0614 14 80.4134 15.664 80.4134 18.096C80.4134 20.496 81.8374 22.208 84.6694 22.208C86.6854 22.208 87.7414 21.216 88.1734 19.968L86.9574 19.424C86.5894 20.368 85.9494 20.928 84.8454 20.928C83.3894 20.928 82.6694 19.968 82.6214 18.512H88.2854ZM84.4614 15.232C85.5974 15.232 86.0774 15.84 86.1094 17.424H82.5894C82.6854 15.888 83.3254 15.232 84.4614 15.232ZM88.8498 22H93.4578C97.2818 22 99.1538 20.048 99.1538 16.72C99.1538 13.28 97.3618 11.376 93.5698 11.376H88.8498V12.576H89.6497C89.8738 12.576 89.9538 12.656 89.9538 13.024V20.336C89.9538 20.72 89.8738 20.8 89.6497 20.8H88.8498V22ZM92.1458 20.8V12.576H93.7298C96.0978 12.576 96.7218 13.696 96.7218 16.336V17.088C96.7218 19.648 96.0498 20.8 93.6498 20.8H92.1458ZM99.8509 22H104.251V20.8H103.451C103.227 20.8 103.147 20.72 103.147 20.336V13.024C103.147 12.656 103.227 12.576 103.451 12.576H104.251V11.376H99.8509V12.576H100.651C100.875 12.576 100.955 12.656 100.955 13.024V20.336C100.955 20.72 100.875 20.8 100.651 20.8H99.8509V22ZM111.224 22H115.704V20.8H114.824C114.6 20.8 114.52 20.72 114.52 20.336V12.512H115.784C116.456 12.512 116.76 12.576 116.792 13.056L116.872 14H118.264V11.376H108.744V14H110.136L110.216 13.056C110.248 12.592 110.552 12.512 111.208 12.512H112.408V20.336C112.408 20.72 112.328 20.8 112.104 20.8H111.224V22ZM121.17 15.216C122.306 15.216 122.834 15.632 122.834 16.672V17.12C119.618 17.6 117.65 18.208 117.65 20.16C117.65 21.312 118.53 22.208 120.002 22.208C121.298 22.208 122.45 21.52 122.85 20.672C122.962 21.216 123.09 21.6 123.33 22H125.922V20.8H125.25C125.058 20.8 124.994 20.688 124.994 20.384V16.64C124.994 14.736 123.97 14 121.554 14C119.538 14 117.874 14.56 117.874 16.096C117.874 16.928 118.386 17.376 119.202 17.376C119.906 17.376 120.45 16.912 120.45 16.208C120.45 15.856 120.338 15.568 120.146 15.344C120.402 15.264 120.738 15.216 121.17 15.216ZM120.866 20.88C120.178 20.88 119.746 20.464 119.746 19.792C119.746 18.72 120.898 18.336 122.834 18.064V18.672C122.818 19.984 122.066 20.88 120.866 20.88ZM126.334 22H130.382V20.8H129.742C129.582 20.8 129.486 20.752 129.486 20.384V11.216C129.118 11.296 128.398 11.376 127.614 11.376H126.302V12.576H127.054C127.246 12.576 127.31 12.672 127.31 13.056V20.384C127.31 20.752 127.214 20.8 127.054 20.8H126.334V22ZM138.739 18.512V18.112C138.739 15.536 137.379 14 134.915 14C132.515 14 130.867 15.664 130.867 18.096C130.867 20.496 132.291 22.208 135.123 22.208C137.139 22.208 138.195 21.216 138.627 19.968L137.411 19.424C137.043 20.368 136.403 20.928 135.299 20.928C133.843 20.928 133.123 19.968 133.075 18.512H138.739ZM134.915 15.232C136.051 15.232 136.531 15.84 136.563 17.424H133.043C133.139 15.888 133.779 15.232 134.915 15.232ZM142.391 14.048C142.039 14.128 141.319 14.208 140.535 14.208H139.287V15.408H139.991C140.199 15.408 140.263 15.504 140.263 15.888V20.384C140.263 20.752 140.167 20.8 139.991 20.8H139.287V22H143.319V20.8H142.695C142.519 20.8 142.423 20.752 142.423 20.384V17.952C142.423 16.208 143.047 15.408 144.119 15.408C144.999 15.408 145.399 15.872 145.399 16.96V20.384C145.399 20.752 145.303 20.8 145.127 20.8H144.503V22H148.535V20.8H147.831C147.655 20.8 147.559 20.752 147.559 20.384V16.912C147.559 14.96 146.679 14 145.031 14C143.783 14 142.887 14.528 142.391 15.6V14.048ZM151.88 22.192C152.44 22.192 152.968 22.08 153.272 21.984V20.752C153.08 20.816 152.872 20.88 152.536 20.88C151.848 20.88 151.544 20.592 151.544 19.744V15.408H153.144V14.208H151.592V12H150.104L149.944 13.408C149.88 13.984 149.528 14.192 148.984 14.288L148.376 14.336V15.408H149.432V19.776C149.432 21.52 150.12 22.192 151.88 22.192ZM157.584 22H162.064V20.8H161.184C160.96 20.8 160.88 20.72 160.88 20.336V17.696H162.176C165.168 17.696 166.432 16.752 166.432 14.512C166.432 12.368 165.088 11.376 162.192 11.376H157.584V12.576H158.384C158.608 12.576 158.688 12.656 158.688 13.024V20.336C158.688 20.72 158.608 20.8 158.384 20.8H157.584V22ZM160.88 12.576H162.224C163.568 12.576 164.08 13.104 164.08 14.528C164.08 15.968 163.568 16.528 162.224 16.528H160.88V12.576ZM170.729 22.208C173.225 22.208 174.889 20.544 174.889 18.096C174.889 15.648 173.241 14 170.793 14C168.281 14 166.601 15.664 166.601 18.096C166.601 20.56 168.249 22.208 170.729 22.208ZM170.745 20.928C169.385 20.928 168.777 20.08 168.777 18.208V18C168.777 16.128 169.401 15.28 170.761 15.28C172.105 15.28 172.729 16.128 172.729 18V18.208C172.729 20.064 172.105 20.928 170.745 20.928ZM179.635 22.208C182.131 22.208 183.795 20.544 183.795 18.096C183.795 15.648 182.147 14 179.699 14C177.187 14 175.507 15.664 175.507 18.096C175.507 20.56 177.155 22.208 179.635 22.208ZM179.651 20.928C178.291 20.928 177.683 20.08 177.683 18.208V18C177.683 16.128 178.307 15.28 179.667 15.28C181.011 15.28 181.635 16.128 181.635 18V18.208C181.635 20.064 181.011 20.928 179.651 20.928ZM184.162 22H188.21V20.8H187.57C187.41 20.8 187.314 20.752 187.314 20.384V11.216C186.946 11.296 186.226 11.376 185.442 11.376H184.13V12.576H184.882C185.074 12.576 185.138 12.672 185.138 13.056V20.384C185.138 20.752 185.042 20.8 184.882 20.8H184.162V22Z" fill="black"/>
<path fill-rule="evenodd" clip-rule="evenodd" d="M2 15H35L56.5 28H21L2 15Z" fill="#2CB0C7"/>
<path fill-rule="evenodd" clip-rule="evenodd" d="M2 11.0039H35L56.5 24.0039H21L2 11.0039Z" stroke="black" stroke-width="1.2"/>
<path d="M21 19C26.2467 19 30.5 14.7467 30.5 9.5C30.5 4.25329 26.2467 0 21 0C15.7533 0 11.5 4.25329 11.5 9.5C11.5 14.7467 15.7533 19 21 19Z" fill="#FD4D00"/>
<path d="M27.0001 18.3996C31.9154 18.3996 35.9001 14.4149 35.9001 9.49961C35.9001 4.58427 31.9154 0.599609 27.0001 0.599609C22.0848 0.599609 18.1001 4.58427 18.1001 9.49961C18.1001 14.4149 22.0848 18.3996 27.0001 18.3996Z" stroke="black" stroke-width="1.2"/>
</svg>
