<svg width="198" height="28" viewBox="0 0 198 28" fill="none" xmlns="http://www.w3.org/2000/svg">
<path d="M80.384 21L77.68 17.16C79.184 16.632 80.176 15.352 80.176 13.72C80.176 11.544 78.416 10.008 76.032 10.008H71.088V21H73.44V17.432H75.184L77.696 21H80.384ZM73.44 12.168H75.776C76.944 12.168 77.744 12.776 77.744 13.72C77.744 14.664 76.944 15.272 75.776 15.272H73.44V12.168ZM85.7718 19.128C84.7958 19.128 84.0758 18.52 83.8038 17.624H89.7718C89.7718 14.504 88.2518 12.536 85.6598 12.536C83.2438 12.536 81.4038 14.344 81.4038 16.84C81.4038 19.384 83.3238 21.192 85.7878 21.192C87.0038 21.192 88.4278 20.68 89.1638 19.912L87.6758 18.392C87.2278 18.824 86.4278 19.128 85.7718 19.128ZM85.7558 14.6C86.6998 14.6 87.3078 15.128 87.5318 15.944H83.8358C84.1398 15.112 84.8758 14.6 85.7558 14.6ZM91.5121 21H95.4481C99.1441 21 101.768 18.712 101.768 15.496C101.768 12.28 99.1441 10.008 95.4481 10.008H91.5121V21ZM93.8641 18.856V12.152H95.7521C97.8481 12.152 99.3361 13.544 99.3361 15.496C99.3361 17.464 97.8481 18.856 95.7521 18.856H93.8641ZM103.62 21H105.988V10.008H103.62V21ZM115.881 21H117.497V11.512H121.113V10.008H112.281V11.512H115.881V21ZM126.374 12.536C125.462 12.536 124.422 12.776 123.238 13.368L123.814 14.536C124.534 14.168 125.334 13.848 126.15 13.848C127.798 13.848 128.278 14.952 128.278 15.992V16.248C127.478 15.976 126.598 15.8 125.782 15.8C123.958 15.8 122.47 16.904 122.47 18.552C122.47 20.168 123.766 21.192 125.526 21.192C126.534 21.192 127.67 20.728 128.278 19.864V21H129.83V15.992C129.83 13.944 128.598 12.536 126.374 12.536ZM125.83 19.944C124.79 19.944 123.99 19.4 123.99 18.504C123.99 17.608 124.918 16.984 126.022 16.984C126.838 16.984 127.606 17.096 128.278 17.304V18.408C128.006 19.432 126.854 19.944 125.83 19.944ZM132.121 21H133.689V9.816H132.121V21ZM139.788 19.784C138.364 19.784 137.356 18.792 137.148 17.416H143.66C143.66 14.456 142.204 12.536 139.676 12.536C137.388 12.536 135.548 14.36 135.548 16.84C135.548 19.384 137.5 21.192 139.804 21.192C140.972 21.192 142.412 20.696 143.148 19.912L142.156 18.888C141.66 19.4 140.652 19.784 139.788 19.784ZM139.74 13.944C141.164 13.944 141.948 14.872 142.124 16.152H137.164C137.42 14.808 138.46 13.944 139.74 13.944ZM149.704 12.536C148.584 12.536 147.576 13.112 147.08 13.928V12.728H145.496V21H147.08V15.64C147.208 14.664 148.2 13.912 149.352 13.912C150.472 13.912 151.256 14.776 151.256 16.008V21H152.808V15.736C152.808 13.864 151.528 12.536 149.704 12.536ZM158.946 19.512C158.77 19.688 158.45 19.816 158.098 19.816C157.634 19.816 157.25 19.4 157.25 18.824V14.072H159.202V12.728H157.25V10.456H155.698V12.728H154.45V14.072H155.698V18.936C155.698 20.264 156.594 21.192 157.874 21.192C158.466 21.192 159.074 20.968 159.522 20.6L158.946 19.512ZM165.763 21H167.379V17.176H170.387C172.707 17.176 174.467 15.688 174.467 13.592C174.467 11.496 172.707 10.008 170.387 10.008H165.763V21ZM167.379 15.672V11.512H170.163C171.747 11.512 172.819 12.296 172.819 13.592C172.819 14.888 171.747 15.672 170.163 15.672H167.379ZM180.025 21.192C182.377 21.192 184.361 19.208 184.361 16.856C184.361 14.504 182.377 12.536 180.025 12.536C177.657 12.536 175.657 14.504 175.657 16.856C175.657 19.208 177.657 21.192 180.025 21.192ZM180.025 19.816C178.505 19.816 177.241 18.472 177.241 16.856C177.241 15.256 178.505 13.912 180.025 13.912C181.513 13.912 182.777 15.256 182.777 16.856C182.777 18.472 181.513 19.816 180.025 19.816ZM190.135 21.192C192.487 21.192 194.47 19.208 194.47 16.856C194.47 14.504 192.487 12.536 190.135 12.536C187.767 12.536 185.767 14.504 185.767 16.856C185.767 19.208 187.767 21.192 190.135 21.192ZM190.135 19.816C188.615 19.816 187.351 18.472 187.351 16.856C187.351 15.256 188.615 13.912 190.135 13.912C191.623 13.912 192.887 15.256 192.887 16.856C192.887 18.472 191.623 19.816 190.135 19.816ZM196.324 21H197.892V9.816H196.324V21Z" fill="black"/>
<path fill-rule="evenodd" clip-rule="evenodd" d="M2 15H35L56.5 28H21L2 15Z" fill="#2CB0C7"/>
<path fill-rule="evenodd" clip-rule="evenodd" d="M2 11.0039H35L56.5 24.0039H21L2 11.0039Z" stroke="black" stroke-width="1.2"/>
<path d="M21 19C26.2467 19 30.5 14.7467 30.5 9.5C30.5 4.25329 26.2467 0 21 0C15.7533 0 11.5 4.25329 11.5 9.5C11.5 14.7467 15.7533 19 21 19Z" fill="#FD4D00"/>
<path d="M27.0001 18.4001C31.9154 18.4001 35.9001 14.4154 35.9001 9.5001C35.9001 4.58476 31.9154 0.600098 27.0001 0.600098C22.0848 0.600098 18.1001 4.58476 18.1001 9.5001C18.1001 14.4154 22.0848 18.4001 27.0001 18.4001Z" stroke="black" stroke-width="1.2"/>
</svg>
