<?xml version="1.0" standalone="no"?>
<!DOCTYPE svg PUBLIC "-//W3C//DTD SVG 20010904//EN"
 "http://www.w3.org/TR/2001/REC-SVG-20010904/DTD/svg10.dtd">
<svg version="1.0" xmlns="http://www.w3.org/2000/svg"
 width="1208.000000pt" height="1208.000000pt" viewBox="0 0 1208.000000 1208.000000"
 preserveAspectRatio="xMidYMid meet">
<metadata>
Created by potrace 1.11, written by Peter Selinger 2001-2013
</metadata>
<g transform="translate(0.000000,1208.000000) scale(0.100000,-0.100000)"
fill="#000000" stroke="none">
<path d="M39 8758 c0 -24 0 -92 0 -153 1 -60 1 -128 0 -150 0 -22 0 -76 0
-120 1 -44 1 -98 0 -120 0 -22 0 -76 0 -120 1 -44 1 -98 0 -120 0 -22 0 -76 0
-120 1 -44 1 -98 0 -120 0 -22 0 -76 0 -120 1 -44 1 -98 0 -120 0 -22 0 -76 0
-120 1 -44 1 -98 0 -120 0 -22 0 -76 0 -120 1 -44 1 -98 0 -120 0 -22 0 -76 0
-120 1 -44 1 -98 0 -120 0 -22 0 -76 0 -120 1 -44 1 -98 0 -120 0 -22 0 -76 0
-120 1 -44 1 -98 0 -120 0 -22 0 -76 0 -120 1 -44 1 -98 0 -120 0 -22 0 -76 0
-120 1 -44 1 -98 0 -120 0 -22 0 -76 0 -120 1 -44 1 -98 0 -120 0 -22 0 -76 0
-120 1 -44 1 -98 0 -120 0 -22 0 -76 0 -120 1 -44 1 -98 0 -120 0 -22 0 -76 0
-120 1 -44 1 -98 0 -120 0 -22 0 -76 0 -120 1 -44 1 -98 0 -120 0 -22 0 -76 0
-120 1 -44 1 -98 0 -120 0 -22 0 -76 0 -120 1 -44 1 -98 0 -120 0 -22 0 -76 0
-120 1 -44 1 -98 0 -120 0 -22 0 -76 0 -120 1 -44 1 -98 0 -120 -1 -39 0 -174
1 -205 1 -8 1 -44 0 -78 -1 -35 0 -66 3 -68 2 -2 702 -3 1556 -2 l1552 3 -328
327 c-180 180 -612 610 -960 955 -348 345 -821 816 -1052 1045 l-419 418 472
469 c259 259 881 877 1381 1375 l910 906 -1557 0 -1558 0 -1 -42z"/>
<path d="M3965 7995 c446 -443 986 -981 1201 -1195 215 -215 393 -390 397
-390 4 0 7 538 7 1195 l0 1195 -1207 0 -1208 0 810 -805z"/>
<path d="M3164 6050 c0 -1309 2 -2380 4 -2380 5 0 -88 -92 1201 1190 644 640
1176 1167 1182 1171 19 11 8 26 -98 132 -331 333 -2276 2262 -2282 2265 -4 1
-7 -1069 -7 -2378z"/>
<path d="M1948 6875 c-2 -2 -28 -5 -58 -9 -202 -23 -399 -133 -534 -300 -37
-45 -119 -176 -111 -176 3 0 -2 -14 -10 -31 -46 -88 -75 -311 -55 -420 5 -24
10 -57 13 -74 19 -116 115 -292 217 -396 77 -80 200 -157 335 -210 63 -24 188
-39 298 -35 148 6 239 33 397 117 74 40 198 158 250 238 16 25 33 51 37 56 24
30 80 172 90 230 2 17 8 49 13 73 12 69 3 230 -18 312 -84 322 -340 556 -672
615 -35 7 -187 14 -192 10z"/>
<path d="M6565 6080 l-40 -5 0 -885 0 -885 195 0 195 0 0 280 0 280 158 3
c143 2 158 1 164 -15 4 -10 9 -20 13 -23 7 -5 257 -376 275 -407 6 -10 27 -41
48 -69 l37 -51 224 0 c255 0 241 -7 174 84 -21 29 -38 55 -38 57 0 3 -7 14
-15 23 -33 41 -245 353 -245 362 0 5 -4 11 -8 13 -5 2 -22 24 -40 49 l-31 46
61 28 c59 27 160 101 184 134 7 9 21 27 33 40 12 13 21 30 21 38 0 7 4 13 9
13 5 0 11 8 14 18 3 9 13 37 22 62 29 77 36 125 37 230 0 162 -55 302 -163
411 -29 29 -109 80 -157 100 -26 11 -56 24 -67 29 -35 16 -127 31 -219 36 -50
3 -94 8 -98 10 -5 3 -8 1 -8 -5 0 -5 -12 -7 -27 -4 -37 7 -183 9 -183 3 0 -4
-106 -4 -120 0 -5 2 -125 1 -138 -1 -4 -1 -11 0 -17 1 -5 1 -28 1 -50 1 -40
-2 -62 -1 -125 2 -19 1 -53 0 -75 -3z m841 -363 c123 -22 200 -108 208 -229 3
-53 -20 -134 -49 -169 -23 -28 -96 -85 -104 -82 -3 1 -24 -2 -46 -8 -35 -10
-464 -20 -490 -12 -7 2 -10 91 -9 251 1 136 2 250 3 254 1 7 441 3 487 -5z"/>
<path d="M9758 6080 l-25 -5 1 -885 1 -885 393 -1 c452 -1 491 3 646 53 45 15
83 29 86 32 3 3 28 17 55 30 182 85 349 279 420 486 48 142 55 369 16 517 -80
305 -310 532 -627 619 -87 24 -103 26 -219 34 -120 9 -160 9 -172 2 -6 -4 -18
-4 -27 -1 -19 7 -176 11 -176 4 0 -3 -21 -4 -47 -2 -49 3 -195 4 -210 1 -4 -1
-10 -1 -13 1 -12 4 -79 5 -102 0z m835 -374 c92 -26 197 -87 235 -138 7 -9 18
-23 26 -30 38 -39 91 -150 103 -220 8 -43 8 -214 0 -258 -18 -94 -80 -205
-156 -273 -40 -36 -121 -87 -143 -91 -7 -1 -18 -5 -24 -8 -6 -4 -24 -10 -40
-12 -16 -3 -40 -8 -54 -12 -14 -3 -112 -7 -217 -8 -188 -2 -193 -1 -194 19 -1
26 -1 1049 0 1052 1 0 92 0 204 -2 148 -2 217 -7 260 -19z"/>
<path d="M11725 6082 c-2 -2 -18 -4 -36 -5 l-34 -2 0 -883 c0 -875 0 -883 20
-887 11 -2 100 -3 198 -3 l177 1 0 889 0 888 -37 1 c-21 1 -42 0 -48 -1 -28
-5 -73 -5 -97 1 -17 5 -28 4 -28 -2 0 -6 -5 -7 -10 -4 -11 7 -99 12 -105 7z"/>
<path d="M5428 5562 c-233 -234 -2225 -2214 -2234 -2221 -5 -3 -15 -14 -23
-23 -13 -17 45 -18 1193 -18 l1206 0 0 1195 c0 657 -3 1195 -7 1195 -5 -1 -65
-58 -135 -128z"/>
<path d="M8655 5671 c-80 -20 -192 -68 -217 -93 -10 -10 -21 -18 -25 -18 -5 0
-26 -17 -48 -38 -116 -108 -196 -257 -222 -417 -9 -52 -8 -197 0 -259 19 -135
87 -266 192 -371 76 -76 126 -108 246 -159 86 -37 300 -52 419 -31 83 15 228
73 251 101 6 8 16 14 21 14 14 0 128 111 128 125 0 6 -19 26 -42 45 -23 19
-52 44 -64 55 -110 101 -106 99 -130 76 -11 -9 -44 -33 -74 -52 -138 -89 -359
-86 -457 6 -16 14 -31 25 -35 25 -8 0 -78 138 -78 156 0 10 92 13 471 13 259
0 474 3 478 6 12 12 3 211 -13 288 -32 156 -94 275 -191 372 -82 81 -192 138
-305 159 -14 2 -25 5 -25 6 0 1 -47 3 -105 5 -72 2 -127 -3 -175 -14z m277
-321 c78 -36 140 -124 158 -222 l7 -38 -287 0 c-158 0 -289 3 -293 6 -8 9 27
106 56 151 75 119 232 164 359 103z"/>
<path d="M6694 4078 c-3 -5 -9 -6 -14 -3 -28 17 -138 -65 -141 -104 -8 -95 -4
-110 35 -158 19 -22 114 -57 176 -65 108 -14 147 -132 61 -182 -45 -26 -138
-25 -212 3 -30 12 -57 21 -60 21 -7 0 -5 -68 3 -75 2 -2 15 -7 29 -9 13 -2 24
-5 24 -6 0 -7 65 -13 136 -14 75 0 91 3 131 27 53 31 78 75 78 137 0 95 -57
150 -181 176 -99 21 -136 39 -143 72 -12 56 11 93 67 112 44 14 132 6 186 -16
18 -8 34 -14 35 -14 0 0 2 16 3 35 2 30 -2 37 -24 46 -49 18 -181 30 -189 17z"/>
<path d="M7259 4079 c-112 -17 -195 -97 -219 -214 -26 -124 11 -262 86 -322
82 -65 225 -79 321 -32 44 22 48 27 50 62 1 42 -5 45 -36 17 -13 -10 -37 -24
-55 -29 -177 -55 -298 44 -291 239 5 138 73 212 195 215 63 2 107 -9 122 -30
4 -5 8 -6 8 -2 0 5 14 -1 30 -13 l31 -22 -3 42 c-2 37 -6 44 -39 60 -20 11
-54 21 -75 24 -22 2 -39 5 -39 6 0 5 -47 5 -86 -1z"/>
<path d="M8438 4085 c-2 -2 -21 -6 -43 -9 -52 -9 -123 -51 -144 -87 -9 -16
-19 -29 -23 -29 -5 0 -8 -4 -8 -9 0 -5 -5 -22 -12 -38 -15 -37 -18 -55 -19
-138 -2 -123 50 -218 145 -268 59 -30 185 -30 241 0 99 53 141 131 147 273 7
145 -77 268 -200 295 -41 9 -81 13 -84 10z m49 -71 c51 -6 96 -41 124 -96 24
-47 37 -143 26 -188 -2 -8 -7 -32 -12 -52 -4 -21 -11 -38 -16 -38 -5 0 -9 -6
-9 -12 0 -15 -36 -50 -67 -67 -33 -17 -103 -20 -139 -6 -84 34 -118 96 -120
219 -3 121 30 192 104 227 38 18 52 20 109 13z"/>
<path d="M9067 4084 c-1 -1 -22 -5 -46 -9 -114 -17 -193 -117 -206 -262 -13
-157 61 -286 185 -320 8 -2 40 -6 70 -8 155 -11 267 97 278 271 9 138 -44 248
-143 300 -28 15 -130 36 -138 28z m117 -98 c56 -42 80 -106 80 -206 0 -69 -5
-94 -24 -130 -36 -70 -88 -105 -152 -103 -10 0 -31 1 -46 2 -17 1 -45 15 -69
36 -87 74 -103 247 -34 359 47 75 173 97 245 42z"/>
<path d="M7632 4072 c-9 -3 -12 -82 -12 -291 l0 -288 41 0 40 0 -1 61 c-1 34
-1 95 -1 137 l1 77 140 1 c77 0 140 -2 141 -6 1 -5 2 -66 3 -138 l1 -130 38
-1 c20 -1 37 4 38 10 7 70 2 566 -6 569 -5 2 -24 1 -40 -3 l-30 -5 0 -115 0
-115 -138 0 c-76 0 -141 4 -144 9 -6 8 -7 76 -3 94 1 4 1 12 0 17 -1 6 -2 33
-1 61 2 50 1 52 -27 56 -16 2 -34 2 -40 0z"/>
<path d="M9499 4072 l-25 -3 0 -287 1 -287 176 -2 c149 -2 178 0 183 12 8 21
-12 68 -25 59 -9 -5 -167 -9 -241 -5 -16 1 -17 21 -15 255 2 277 5 265 -54
258z"/>
</g>
</svg>
