<svg width="83" height="83" viewBox="0 0 83 83" fill="none" xmlns="http://www.w3.org/2000/svg">
<rect width="83" height="83" fill="#EBEBEB"/>
<g id="Job listing card (horizontal) - desktop">
<g clip-path="url(#clip0_12_844)">
<g id="State=Default" filter="url(#filter0_d_12_844)">
<rect x="-58" y="-59" width="1145" height="200" rx="5" fill="white"/>
<g id="Frame 120">
<g id="Company logo">
<circle id="Ellipse 2" cx="42" cy="41" r="68" fill="#F5F5F5"/>
<g id="Company placeholder icon" clip-path="url(#clip1_12_844)">
<path id="Vector" d="M76.9832 -0.658691H41.1482C39.5647 -0.65711 38.0465 -0.0273602 36.9268 1.09236C35.8071 2.21207 35.1773 3.73028 35.1757 5.3138V35.1762H5.31331C3.72979 35.1778 2.21158 35.8076 1.09187 36.9273C-0.0278485 38.047 -0.657599 39.5652 -0.65918 41.1487V82.9561H82.9556V5.3138C82.9541 3.73028 82.3243 2.21207 81.2046 1.09236C80.0849 -0.0273602 78.5667 -0.65711 76.9832 -0.658691ZM20.2445 76.9836V56.0799H32.1895V76.9836H20.2445ZM76.9832 76.9836H38.162V53.0937C38.162 52.3017 37.8474 51.5421 37.2873 50.9821C36.7273 50.4221 35.9677 50.1074 35.1757 50.1074H17.2583C16.4663 50.1074 15.7067 50.4221 15.1467 50.9821C14.5867 51.5421 14.272 52.3017 14.272 53.0937V76.9836H5.31331V41.1487H41.1482V5.3138H76.9832V76.9836Z" fill="white"/>
<path id="Vector_2" d="M46.7699 17.127H52.6984V23.0556H46.7699V17.127ZM64.5556 17.127H70.4842V23.0556H64.5556V17.127ZM46.7699 34.9127H52.6984V40.8413H46.7699V34.9127ZM64.5556 34.9127H70.4842V40.8413H64.5556V34.9127ZM46.7699 52.6984H52.6984V58.627H46.7699V52.6984ZM64.5556 52.6984H70.4842V58.627H64.5556V52.6984ZM-0.658691 23.0556H14.1627V28.9842H-0.658691V23.0556ZM23.0556 -0.658691H28.9842V14.1627H23.0556V-0.658691ZM5.26988 9.46138L9.46138 5.26988L20.0913 15.8968L15.8968 20.0913L5.26988 9.46138Z" fill="white"/>
</g>
</g>
</g>
</g>
</g>
<rect x="-77.5" y="-78.5" width="1184" height="457" rx="4.5" stroke="#9747FF" stroke-dasharray="10 5"/>
</g>
<defs>
<filter id="filter0_d_12_844" x="-62" y="-62" width="1153" height="208" filterUnits="userSpaceOnUse" color-interpolation-filters="sRGB">
<feFlood flood-opacity="0" result="BackgroundImageFix"/>
<feColorMatrix in="SourceAlpha" type="matrix" values="0 0 0 0 0 0 0 0 0 0 0 0 0 0 0 0 0 0 127 0" result="hardAlpha"/>
<feMorphology radius="1" operator="dilate" in="SourceAlpha" result="effect1_dropShadow_12_844"/>
<feOffset dy="1"/>
<feGaussianBlur stdDeviation="1.5"/>
<feComposite in2="hardAlpha" operator="out"/>
<feColorMatrix type="matrix" values="0 0 0 0 0 0 0 0 0 0 0 0 0 0 0 0 0 0 0.07 0"/>
<feBlend mode="normal" in2="BackgroundImageFix" result="effect1_dropShadow_12_844"/>
<feBlend mode="normal" in="SourceGraphic" in2="effect1_dropShadow_12_844" result="shape"/>
</filter>
<clipPath id="clip0_12_844">
<rect x="-78" y="-79" width="1185" height="458" rx="5" fill="white"/>
</clipPath>
<clipPath id="clip1_12_844">
<rect width="83" height="83" fill="white"/>
</clipPath>
</defs>
</svg>
