<svg width="16" height="16" viewBox="0 0 16 16" fill="none" xmlns="http://www.w3.org/2000/svg">
<g id="Navigation / Location">
<g id="Vector">
<path d="M8.00016 1.3335C5.42016 1.3335 3.3335 3.42016 3.3335 6.00016C3.3335 8.96941 6.69214 13.1382 7.71077 14.3342C7.86441 14.5146 8.13592 14.5146 8.28956 14.3342C9.30819 13.1382 12.6668 8.96941 12.6668 6.00016C12.6668 3.42016 10.5802 1.3335 8.00016 1.3335ZM4.66683 6.00016C4.66683 4.16016 6.16016 2.66683 8.00016 2.66683C9.84016 2.66683 11.3335 4.16016 11.3335 6.00016C11.3335 7.78198 9.67992 10.3848 8.31229 12.1836C8.15513 12.3903 7.84634 12.3895 7.69017 12.182C6.34103 10.39 4.66683 7.76219 4.66683 6.00016Z" fill="#A0A0A0"/>
<path d="M8.00016 7.66683C8.92064 7.66683 9.66683 6.92064 9.66683 6.00016C9.66683 5.07969 8.92064 4.3335 8.00016 4.3335C7.07969 4.3335 6.3335 5.07969 6.3335 6.00016C6.3335 6.92064 7.07969 7.66683 8.00016 7.66683Z" fill="#A0A0A0"/>
</g>
</g>
</svg>
