<svg width="95" height="30" viewBox="0 0 95 30" fill="none" xmlns="http://www.w3.org/2000/svg">
<rect y="4" width="89" height="26" rx="13" fill="#FAD7CA"/>
<path d="M16.2895 8.712H19.0285C19.5272 8.712 19.9379 8.78167 20.2605 8.921C20.5832 9.053 20.8362 9.22533 21.0195 9.438C21.2102 9.64333 21.3422 9.878 21.4155 10.142C21.4889 10.3987 21.5255 10.648 21.5255 10.89C21.5255 11.132 21.4889 11.385 21.4155 11.649C21.3422 11.9057 21.2102 12.1403 21.0195 12.353C20.8362 12.5583 20.5832 12.7307 20.2605 12.87C19.9379 13.002 19.5272 13.068 19.0285 13.068H17.3455V16.5H16.2895V8.712ZM17.3455 12.144H18.7315C18.9369 12.144 19.1385 12.1293 19.3365 12.1C19.5419 12.0633 19.7215 12.001 19.8755 11.913C20.0369 11.825 20.1652 11.7003 20.2605 11.539C20.3559 11.3703 20.4035 11.154 20.4035 10.89C20.4035 10.626 20.3559 10.4133 20.2605 10.252C20.1652 10.0833 20.0369 9.955 19.8755 9.867C19.7215 9.779 19.5419 9.72033 19.3365 9.691C19.1385 9.65433 18.9369 9.636 18.7315 9.636H17.3455V12.144ZM25.0666 8.712V13.486C25.0666 13.728 25.0996 13.981 25.1656 14.245C25.2316 14.5017 25.3416 14.74 25.4956 14.96C25.6496 15.18 25.8513 15.3597 26.1006 15.499C26.3499 15.6383 26.6579 15.708 27.0246 15.708C27.3913 15.708 27.6993 15.6383 27.9486 15.499C28.1979 15.3597 28.3996 15.18 28.5536 14.96C28.7076 14.74 28.8176 14.5017 28.8836 14.245C28.9496 13.981 28.9826 13.728 28.9826 13.486V8.712H30.0386V13.651C30.0386 14.1057 29.9616 14.52 29.8076 14.894C29.6536 15.2607 29.4409 15.5797 29.1696 15.851C28.8983 16.1223 28.5793 16.3313 28.2126 16.478C27.8459 16.6247 27.4499 16.698 27.0246 16.698C26.5993 16.698 26.2033 16.6247 25.8366 16.478C25.4699 16.3313 25.1509 16.1223 24.8796 15.851C24.6083 15.5797 24.3956 15.2607 24.2416 14.894C24.0876 14.52 24.0106 14.1057 24.0106 13.651V8.712H25.0666ZM33.2423 8.712H35.9483C36.2856 8.712 36.5973 8.75233 36.8833 8.833C37.1766 8.91367 37.426 9.03467 37.6313 9.196C37.844 9.35 38.009 9.55167 38.1263 9.801C38.251 10.043 38.3133 10.329 38.3133 10.659C38.3133 11.1063 38.1886 11.473 37.9393 11.759C37.69 12.0377 37.3673 12.243 36.9713 12.375V12.397C37.206 12.4117 37.426 12.474 37.6313 12.584C37.8366 12.6867 38.0126 12.826 38.1593 13.002C38.3133 13.1707 38.4343 13.3687 38.5223 13.596C38.6103 13.8233 38.6543 14.069 38.6543 14.333C38.6543 14.685 38.581 14.9967 38.4343 15.268C38.295 15.532 38.1006 15.7557 37.8513 15.939C37.602 16.1223 37.3123 16.2617 36.9823 16.357C36.6523 16.4523 36.2966 16.5 35.9153 16.5H33.2423V8.712ZM34.2983 11.946H35.7393C35.9373 11.946 36.1243 11.9277 36.3003 11.891C36.4763 11.847 36.6303 11.7773 36.7623 11.682C36.8943 11.5867 36.997 11.4657 37.0703 11.319C37.151 11.1723 37.1913 10.9927 37.1913 10.78C37.1913 10.472 37.0923 10.2043 36.8943 9.977C36.6963 9.74967 36.3846 9.636 35.9593 9.636H34.2983V11.946ZM34.2983 15.576H35.8493C36.0106 15.576 36.1866 15.5613 36.3773 15.532C36.5753 15.4953 36.7586 15.4293 36.9273 15.334C37.096 15.2313 37.239 15.0957 37.3563 14.927C37.4736 14.7583 37.5323 14.5347 37.5323 14.256C37.5323 13.794 37.382 13.4493 37.0813 13.222C36.7806 12.9873 36.3736 12.87 35.8603 12.87H34.2983V15.576ZM41.5146 8.712H42.5706V15.51H46.1456V16.5H41.5146V8.712ZM48.5623 8.712H49.6183V16.5H48.5623V8.712ZM58.3904 10.395C58.1704 10.109 57.8917 9.889 57.5544 9.735C57.217 9.581 56.8687 9.504 56.5094 9.504C56.0694 9.504 55.6697 9.58833 55.3104 9.757C54.9584 9.91833 54.654 10.142 54.3974 10.428C54.148 10.714 53.9537 11.0513 53.8144 11.44C53.675 11.8213 53.6054 12.232 53.6054 12.672C53.6054 13.0827 53.6714 13.4713 53.8034 13.838C53.9354 14.2047 54.126 14.5273 54.3754 14.806C54.6247 15.0847 54.929 15.3047 55.2884 15.466C55.6477 15.6273 56.0547 15.708 56.5094 15.708C56.9567 15.708 57.349 15.6163 57.6864 15.433C58.0237 15.2497 58.3097 14.993 58.5444 14.663L59.4354 15.334C59.3767 15.4147 59.274 15.532 59.1274 15.686C58.9807 15.8327 58.7864 15.983 58.5444 16.137C58.3024 16.2837 58.009 16.412 57.6644 16.522C57.327 16.6393 56.9347 16.698 56.4874 16.698C55.8714 16.698 55.314 16.5807 54.8154 16.346C54.324 16.1113 53.9024 15.8033 53.5504 15.422C53.2057 15.0407 52.9417 14.6117 52.7584 14.135C52.575 13.651 52.4834 13.1633 52.4834 12.672C52.4834 12.0707 52.5824 11.517 52.7804 11.011C52.9784 10.4977 53.2534 10.0577 53.6054 9.691C53.9647 9.317 54.3937 9.02733 54.8924 8.822C55.391 8.61667 55.941 8.514 56.5424 8.514C57.0557 8.514 57.558 8.613 58.0494 8.811C58.548 9.009 58.955 9.31333 59.2704 9.724L58.3904 10.395Z" fill="black"/>
<circle cx="78" cy="13.5" r="7.5" fill="#EA5B29" stroke="black"/>
<rect x="6.5" y="0.5" width="88" height="26" rx="13" stroke="black"/>
</svg>
