<svg width="101" height="29" viewBox="0 0 101 29" fill="none" xmlns="http://www.w3.org/2000/svg">
<rect y="3" width="85" height="26" rx="13" fill="#DADADA"/>
<circle cx="21" cy="12.5" r="7.5" fill="#A0A0A0" stroke="black"/>
<path d="M40.2169 7.712H42.9559C43.4545 7.712 43.8652 7.78167 44.1879 7.921C44.5105 8.053 44.7635 8.22533 44.9469 8.438C45.1375 8.64333 45.2695 8.878 45.3429 9.142C45.4162 9.39867 45.4529 9.648 45.4529 9.89C45.4529 10.132 45.4162 10.385 45.3429 10.649C45.2695 10.9057 45.1375 11.1403 44.9469 11.353C44.7635 11.5583 44.5105 11.7307 44.1879 11.87C43.8652 12.002 43.4545 12.068 42.9559 12.068H41.2729V15.5H40.2169V7.712ZM41.2729 11.144H42.6589C42.8642 11.144 43.0659 11.1293 43.2639 11.1C43.4692 11.0633 43.6489 11.001 43.8029 10.913C43.9642 10.825 44.0925 10.7003 44.1879 10.539C44.2832 10.3703 44.3309 10.154 44.3309 9.89C44.3309 9.626 44.2832 9.41333 44.1879 9.252C44.0925 9.08333 43.9642 8.955 43.8029 8.867C43.6489 8.779 43.4692 8.72033 43.2639 8.691C43.0659 8.65433 42.8642 8.636 42.6589 8.636H41.2729V11.144ZM48.0809 7.712H50.8199C51.3186 7.712 51.7293 7.78167 52.0519 7.921C52.3746 8.053 52.6276 8.22533 52.8109 8.438C53.0016 8.64333 53.1336 8.878 53.2069 9.142C53.2803 9.39867 53.3169 9.648 53.3169 9.89C53.3169 10.1393 53.2729 10.3813 53.1849 10.616C53.0969 10.8433 52.9686 11.0523 52.7999 11.243C52.6386 11.4263 52.4369 11.584 52.1949 11.716C51.9603 11.8407 51.6963 11.9177 51.4029 11.947L53.6139 15.5H52.2939L50.3139 12.068H49.1369V15.5H48.0809V7.712ZM49.1369 11.144H50.5229C50.7283 11.144 50.9299 11.1293 51.1279 11.1C51.3333 11.0633 51.5129 11.001 51.6669 10.913C51.8283 10.825 51.9566 10.7003 52.0519 10.539C52.1473 10.3703 52.1949 10.154 52.1949 9.89C52.1949 9.626 52.1473 9.41333 52.0519 9.252C51.9566 9.08333 51.8283 8.955 51.6669 8.867C51.5129 8.779 51.3333 8.72033 51.1279 8.691C50.9299 8.65433 50.7283 8.636 50.5229 8.636H49.1369V11.144ZM56.1491 7.712H57.2051V15.5H56.1491V7.712ZM59.4872 7.712H60.7082L62.9962 14.048H63.0182L65.3942 7.712H66.5492L63.4802 15.5H62.4902L59.4872 7.712ZM70.7636 7.712H71.7206L75.0536 15.5H73.8216L73.0406 13.575H69.3336L68.5636 15.5H67.3316L70.7636 7.712ZM72.6556 12.651L71.2036 9.076H71.1816L69.7076 12.651H72.6556ZM78.0285 8.702H75.5205V7.712H81.5925V8.702H79.0845V15.5H78.0285V8.702ZM84.0605 7.712H89.0875V8.702H85.1165V11.023H88.8125V12.013H85.1165V14.51H89.2855V15.5H84.0605V7.712Z" fill="black"/>
<rect x="6.5" y="0.5" width="90" height="24" rx="12" stroke="black"/>
</svg>
