<?xml version="1.0" encoding="UTF-8"?>
<svg width="24px" height="24px" viewBox="0 0 24 24" version="1.1" xmlns="http://www.w3.org/2000/svg" xmlns:xlink="http://www.w3.org/1999/xlink">
    <!-- Generator: Sketch 63.1 (92452) - https://sketch.com -->
    <title>icons/Profile/Application</title>
    <desc>Created with Sketch.</desc>
    <g id="icons/Profile/Application" stroke="none" stroke-width="1" fill="none" fill-rule="evenodd">
        <g id="followers" transform="translate(2.000000, 1.000000)" fill="#000000">
            <g id="Group-11">
                <path d="M19.7790879,12.300627 L21,13.3971797 L14.1716777,20.9998359 L9.7316543,16.7734219 L10.8630293,15.5847891 L14.0794746,18.6465645 L19.7790879,12.300627 Z M13.1690918,9.64561764e-13 C15.7195664,9.64561764e-13 17.7945469,2.07498047 17.7945879,4.62541406 C17.7945879,6.05628516 17.141373,7.3374082 16.117623,8.18651367 C17.3319316,8.68177734 18.3953848,9.47280469 19.2172559,10.4702227 L19.2172559,10.4702227 L18.1052812,11.7083203 C16.9730859,10.2165 15.1820156,9.25082813 13.1690508,9.25082813 C12.8924414,9.25082813 12.6214922,9.2263418 12.3580898,9.17958398 C12.4254375,9.49314844 12.4612031,9.81832031 12.4612031,10.1516953 C12.4612031,12.7021289 10.3862637,14.7771094 7.83578906,14.7771094 C4.4199668,14.7771094 1.64099414,17.556041 1.64099414,20.9719043 L1.64099414,20.9719043 L-1.27897692e-13,20.9719043 C-1.27897692e-13,17.6938125 2.02366992,14.8799355 4.88709375,13.7125488 C3.86350781,12.8634023 3.21041602,11.5824023 3.21041602,10.1516543 C3.21041602,7.6012207 5.28535547,5.52624023 7.83583008,5.52624023 C8.11243945,5.52624023 8.38338867,5.55072656 8.64679102,5.59748438 C8.57944336,5.28391992 8.54367773,4.95878906 8.54367773,4.62541406 C8.54367773,2.07498047 10.6186172,9.64561764e-13 13.1690918,9.64561764e-13 Z M7.83583008,7.16723438 C6.19024219,7.16723438 4.85141016,8.50602539 4.85141016,10.1516543 C4.85141016,11.7972832 6.19024219,13.1360742 7.83583008,13.1360742 C9.48141797,13.1360742 10.82025,11.7972422 10.82025,10.1516543 C10.82025,8.50606641 9.48141797,7.16723438 7.83583008,7.16723438 Z M13.1690918,1.64099414 C11.5235039,1.64099414 10.1846719,2.97974414 10.1846719,4.62537305 C10.1846719,6.27100195 11.5235039,7.60979297 13.1690918,7.60979297 C14.8147207,7.60979297 16.1535117,6.27108398 16.1535117,4.62541406 C16.1535117,2.97978516 14.8146797,1.64099414 13.1690918,1.64099414 Z" id="Combined-Shape"></path>
            </g>
        </g>
    </g>
</svg>