<?xml version="1.0" encoding="UTF-8"?>
<svg width="20px" height="16px" viewBox="0 0 20 16" version="1.1" xmlns="http://www.w3.org/2000/svg" xmlns:xlink="http://www.w3.org/1999/xlink">
    <!-- Generator: Sketch 63.1 (92452) - https://sketch.com -->
    <title>icons/functional/arrow/Black Copy</title>
    <desc>Created with Sketch.</desc>
    <g id="icons/functional/arrow/Black-Copy" stroke="none" stroke-width="1" fill="none" fill-rule="evenodd">
        <rect id="Rectangle" x="0" y="0" width="20" height="16"></rect>
        <path d="M13.0607445,2.79379591 C12.8140845,3.10113631 12.8386788,3.54740173 13.1338102,3.82471862 L16.758,7.23 L1.28708512,7.23058092 C0.859135599,7.23058092 0.5,7.56757251 0.5,8.0003372 L0.507315037,8.10628468 C0.56034225,8.48649164 0.894848714,8.77009347 1.28708512,8.77009347 L16.756,8.77 L13.1338102,12.1754163 C12.8118486,12.4779438 12.8118486,12.981534 13.132881,13.2847354 C13.2846182,13.4258788 13.4796001,13.4999999 13.6794515,13.4999999 C13.8799441,13.4999999 14.0757299,13.4254184 14.2245187,13.2856107 L19.2582692,8.55570417 C19.332536,8.48592015 19.3907868,8.40325189 19.4325119,8.31277532 C19.5208779,8.10887289 19.5208779,7.89126199 19.4373662,7.69822369 C19.3907868,7.59688298 19.332536,7.51421473 19.2582692,7.44443071 L14.2245187,2.71452418 C13.9202669,2.42863738 13.4396199,2.42863738 13.1347412,2.71365153 L13.0607445,2.79379591 Z" id="Fill-1" fill="#000000" fill-rule="nonzero" transform="translate(9.999703, 8.000000) scale(-1, 1) translate(-9.999703, -8.000000) "></path>
    </g>
</svg>