<?xml version="1.0" encoding="UTF-8"?>
<svg width="270px" height="551px" viewBox="0 0 270 551" version="1.1" xmlns="http://www.w3.org/2000/svg" xmlns:xlink="http://www.w3.org/1999/xlink">
    <!-- Generator: Sketch 63.1 (92452) - https://sketch.com -->
    <title>Patterns_welcome_mobile</title>
    <desc>Created with Sketch.</desc>
    <g id="SP01_Landing-Page" stroke="none" stroke-width="1" fill="none" fill-rule="evenodd" stroke-linecap="round" stroke-linejoin="round">
        <g id="SP1_Mobile_Menu_expanded" transform="translate(-46.000000, -50.000000)">
            <g id="Patterns_welcome_mobile" transform="translate(48.000000, 52.000000)">
                <path d="M266.817037,72.8940851 C265.771481,78.3161593 260.527616,81.8632714 255.105411,80.8170412 C249.683906,79.770811 246.136709,74.5277708 247.182964,69.1056966 C248.22852,63.6843217 253.472386,60.1372096 258.893891,61.1827405 C264.316095,62.2289707 267.863292,67.4727102 266.817037,72.8940851 Z" id="Stroke-30-Copy" stroke="#58ADC4" stroke-width="2" opacity="0.444731213"></path>
                <polygon id="Stroke-18" stroke="#E1EEF2" stroke-width="3" points="20 9.42178666 1.66753292 24 0 0"></polygon>
                <polygon id="Stroke-46-Copy" stroke="#58ADC4" stroke-width="2" opacity="0.431361607" points="7.62613636 224 23 210.261304 3 205"></polygon>
                <polygon id="Stroke-46-Copy-2" stroke="#58ADC4" stroke-width="2" points="7.62613636 526 23 512.261304 3 507"></polygon>
                <path d="M262.787297,522.607537 C260.253448,526.882297 254.733373,528.294015 250.457778,525.760139 C246.183064,523.226264 244.770481,517.707009 247.30521,513.431369 C249.839058,509.155729 255.359134,507.744011 259.633848,510.277886 C263.908562,512.811762 265.321145,518.331897 262.787297,522.607537 Z" id="Stroke-2-Copy-2" stroke="#EA5B25" stroke-width="2"></path>
                <polygon id="Stroke-60-Copy-2" stroke="#FAD7CA" stroke-width="2" points="237.903051 547.525126 244.954058 529.525126 226.954058 533.074648"></polygon>
            </g>
        </g>
    </g>
</svg>