<?xml version="1.0" encoding="UTF-8"?>
<svg width="60px" height="60px" viewBox="0 0 60 60" version="1.1" xmlns="http://www.w3.org/2000/svg" xmlns:xlink="http://www.w3.org/1999/xlink">
    <!-- Generator: Sketch 63.1 (92452) - https://sketch.com -->
    <title>icons/visual/create profile</title>
    <desc>Created with Sketch.</desc>
    <g id="icons/visual/create-profile" stroke="none" stroke-width="1"  fill="#EA5B29" fill-rule="evenodd">
        <path d="M46.1715031,4.61852778e-14 C48.1102143,4.61852778e-14 49.6871109,1.57704308 49.6871109,3.51560783 L49.6871109,3.51560783 L49.6871109,56.4843922 C49.6871109,58.422371 48.1102143,60 46.1715031,60 L46.1715031,60 L3.51560783,60 C1.57704308,60 1.0658141e-14,58.422371 1.0658141e-14,56.4843922 L1.0658141e-14,56.4843922 L1.0658141e-14,25.1168207 C1.0658141e-14,24.4696559 0.524704469,23.9449514 1.17186928,23.9449514 C1.81903409,23.9449514 2.34373856,24.4696559 2.34373856,25.1168207 L2.34373856,25.1168207 L2.34373856,56.4843922 C2.34373856,57.1303851 2.86961489,57.6562614 3.51560783,57.6562614 L3.51560783,57.6562614 L46.1715031,57.6562614 C46.8180819,57.6562614 47.3433723,57.1303851 47.3433723,56.4843922 L47.3433723,56.4843922 L47.3433723,3.51560783 C47.3433723,2.86961489 46.8180819,2.34373856 46.1715031,2.34373856 L46.1715031,2.34373856 L22.4612185,2.34373856 C21.8140536,2.34373856 21.2893492,1.81903409 21.2893492,1.17186928 C21.2893492,0.524704469 21.8140536,4.61852778e-14 22.4612185,4.61852778e-14 L22.4612185,4.61852778e-14 Z M35.6671598,46.6406902 C36.3137387,46.6406902 36.8390291,47.1653947 36.8390291,47.8125595 C36.8390291,48.4597243 36.3141782,48.9844288 35.6671598,48.9844288 L35.6671598,48.9844288 L19.0263231,48.9844288 C18.3791583,48.9844288 17.8544538,48.4597243 17.8544538,47.8125595 C17.8544538,47.1653947 18.3791583,46.6406902 19.0263231,46.6406902 L19.0263231,46.6406902 Z M14.0200976,46.6401043 C14.3296175,46.6401043 14.6306415,46.7654943 14.8486091,46.983462 C15.0677487,47.2014297 15.1919668,47.5042114 15.1919668,47.8119736 C15.1919668,48.12164 15.0677487,48.4225175 14.8486091,48.6406316 C14.6306415,48.8585993 14.3285921,48.9838429 14.0200976,48.9838429 C13.7123354,48.9838429 13.4095537,48.8585993 13.1921719,48.6406316 C12.9742042,48.4225175 12.8482283,48.12164 12.8482283,47.8119736 C12.8482283,47.5042114 12.9742042,47.2014297 13.1921719,46.983462 C13.4095537,46.7660802 13.7123354,46.6401043 14.0200976,46.6401043 Z M14.0200976,40.0782223 C14.3285921,40.0782223 14.6306415,40.2034658 14.8486091,40.4214335 C15.0677487,40.6395477 15.1919668,40.941597 15.1919668,41.2500916 C15.1919668,41.5578537 15.0677487,41.8606354 14.8486091,42.0780172 C14.6306415,42.2959849 14.3285921,42.4219608 14.0200976,42.4219608 C13.7123354,42.4219608 13.4095537,42.2959849 13.1921719,42.0780172 C12.9742042,41.8606354 12.8482283,41.5590256 12.8482283,41.2500916 C12.8482283,40.941597 12.9742042,40.6395477 13.1921719,40.4214335 C13.4095537,40.2034658 13.7123354,40.0782223 14.0200976,40.0782223 Z M35.6671598,40.0782223 C36.3137387,40.0782223 36.8390291,40.6029267 36.8390291,41.2500916 C36.8390291,41.8972564 36.3141782,42.4219608 35.6671598,42.4219608 L35.6671598,42.4219608 L19.0263231,42.4219608 C18.3791583,42.4219608 17.8544538,41.8972564 17.8544538,41.2500916 C17.8544538,40.6029267 18.3791583,40.0782223 19.0263231,40.0782223 L19.0263231,40.0782223 Z M24.8439217,4.68747711 C33.437825,4.68747711 40.4294901,11.6791422 40.4294901,20.2736315 C40.4294901,28.8675348 33.437825,35.8593464 24.8439217,35.8593464 C21.1348089,35.8593464 17.5414183,34.5346947 14.7251234,32.12914 C11.940762,29.7505383 10.0752926,26.4615407 9.47280531,22.8685895 C9.36587224,22.2306532 9.79668068,21.6264081 10.4347635,21.5193285 C11.0726998,21.4123954 11.6775309,21.842618 11.7844639,22.4812867 C12.1890518,24.8935796 13.2236659,27.0565573 14.7032973,28.8149472 C15.5633029,27.3282845 16.7420569,26.0465525 18.1732023,25.0532468 C19.005083,24.4759547 19.8983403,24.0152636 20.8333455,23.6748356 C19.7656261,22.6311395 19.1019087,21.1771427 19.1019087,19.5705099 L19.1019087,19.5705099 L19.1019087,18.4277909 C19.1019087,15.2616931 21.6773844,12.6857779 24.8439217,12.6857779 C28.009873,12.6857779 30.5859346,15.2616931 30.5859346,18.4277909 L30.5859346,18.4277909 L30.5859346,19.5705099 C30.5859346,21.1771427 29.9216312,22.6311395 28.8544978,23.6748356 C29.7893565,24.0152636 30.6826139,24.4759547 31.5140551,25.0532468 C32.9387552,26.0414256 34.1123823,27.3162729 34.9718019,28.794293 C36.9138823,26.4895191 38.0857515,23.5157543 38.0857515,20.2736315 C38.0857515,12.9718605 32.1456926,7.03121567 24.8439217,7.03121567 C24.1652629,7.03121567 23.4832349,7.08277792 22.8171737,7.18516999 C22.1780655,7.28243514 21.5795333,6.84415603 21.4810963,6.20431541 C21.3832452,5.56462127 21.8221102,4.96667497 22.4618044,4.86823795 C23.245199,4.74812135 24.0461716,4.68747711 24.8439217,4.68747711 Z M24.8439217,25.3125229 C21.23266,25.3125229 18.0158788,27.3357552 16.4422049,30.5292455 C18.7378968,32.4077519 21.6710856,33.5156078 24.8439217,33.5156078 C28.0258397,33.5156078 30.9492141,32.3872442 33.2352381,30.5097631 C31.658195,27.3278451 28.4475662,25.3125229 24.8439217,25.3125229 Z M24.8439217,15.0295165 C22.9699562,15.0295165 21.4456472,16.5538254 21.4456472,18.4277909 L21.4456472,18.4277909 L21.4456472,19.5705099 C21.4456472,21.4444754 22.9699562,22.9687843 24.8439217,22.9687843 C26.7178871,22.9687843 28.2421961,21.4444754 28.2421961,19.5705099 L28.2421961,19.5705099 L28.2421961,18.4277909 C28.2421961,16.5538254 26.7178871,15.0295165 24.8439217,15.0295165 Z M1.17186928,19.5705099 C1.48036387,19.5705099 1.78241317,19.6957534 2.00038086,19.9137211 C2.21849503,20.1318353 2.34373856,20.4338846 2.34373856,20.7423792 C2.34373856,21.0501414 2.21849503,21.3529231 2.00038086,21.5703048 C1.78241317,21.7882725 1.48036387,21.9142485 1.17186928,21.9142485 C0.864107109,21.9142485 0.561325384,21.7882725 0.343357698,21.5703048 C0.125390013,21.3529231 2.06057393e-13,21.0501414 2.06057393e-13,20.7423792 C2.06057393e-13,20.4338846 0.125390013,20.1318353 0.343357698,19.9137211 C0.561325384,19.6957534 0.864107109,19.5705099 1.17186928,19.5705099 Z M9.60962105,3.90798505e-14 C14.908228,3.90798505e-14 19.2185097,4.31101411 19.2185097,9.60962105 C19.2185097,14.9080815 14.908228,19.2185097 9.60962105,19.2185097 C4.31101411,19.2185097 1.77635684e-15,14.9080815 1.77635684e-15,9.60962105 C1.77635684e-15,4.31101411 4.31101411,3.90798505e-14 9.60962105,3.90798505e-14 Z M9.60962105,2.34373856 C5.60299999,2.34373856 2.34373856,5.60299999 2.34373856,9.60962105 C2.34373856,13.6155097 5.60299999,16.8747711 9.60962105,16.8747711 C13.6155097,16.8747711 16.8747711,13.6155097 16.8747711,9.60962105 C16.8747711,5.60299999 13.6155097,2.34373856 9.60962105,2.34373856 Z M12.1272357,6.75318968 C12.5844112,6.2958677 13.3266439,6.2958677 13.7844053,6.75318968 C14.2421668,7.21095112 14.2421668,7.95303734 13.7844053,8.41079878 L13.7844053,8.41079878 L9.13926202,13.0559421 C8.91030806,13.2841637 8.610456,13.3987139 8.31075044,13.3987139 C8.01089838,13.3987139 7.71104633,13.2841637 7.48209237,13.0559421 L7.48209237,13.0559421 L5.34899732,10.9227006 C4.89182182,10.4649391 4.89182182,9.72343885 5.34899732,9.26567741 C5.80675876,8.80791598 6.54884498,8.80791598 7.00660641,9.26567741 L7.00660641,9.26567741 L8.31075044,10.569675 Z" id="Combined-Shape"></path>
    </g>
</svg>