<?xml version="1.0" encoding="UTF-8"?>
<svg width="60px" height="60px" viewBox="0 0 60 60" version="1.1" xmlns="http://www.w3.org/2000/svg" xmlns:xlink="http://www.w3.org/1999/xlink">
    <!-- Generator: Sketch 63.1 (92452) - https://sketch.com -->
    <title>icons/visual/step3_speachbubble</title>
    <desc>Created with Sketch.</desc>
    <g id="icons/visual/step3_speachbubble" stroke="none" stroke-width="1" fill="none" fill-rule="evenodd">
        <g id="042-conversation-1" fill="#FD4D00">
            <path d="M20.0390625,20.390625 C20.6861719,20.390625 21.2109375,20.9152734 21.2109375,21.5625 C21.2109375,22.2097266 20.6861719,22.734375 20.0390625,22.734375 L20.0390625,22.734375 L8.203125,22.734375 C4.97226562,22.734375 2.34375,25.3628906 2.34375,28.59375 L2.34375,28.59375 L2.34375,46.640625 C2.34375,49.8714844 4.97226562,52.5 8.203125,52.5 L8.203125,52.5 L15.8178516,52.5 C16.2971484,52.5 16.7115234,52.7883984 16.8925781,53.2040625 L16.8925781,53.2040625 L19.6896094,56.0009766 L19.69125,53.6710547 C19.6917187,53.0241797 20.2161328,52.5 20.863125,52.5 L20.863125,52.5 L33.515625,52.5 C36.7464844,52.5 39.375,49.8714844 39.375,46.640625 L39.375,46.640625 L39.375,38.5546875 C39.375,37.9074609 39.8997656,37.3828125 40.546875,37.3828125 C41.1939844,37.3828125 41.71875,37.9074609 41.71875,38.5546875 L41.71875,38.5546875 L41.71875,46.640625 C41.71875,51.1638281 38.0388281,54.84375 33.515625,54.84375 L33.515625,54.84375 L22.0340625,54.84375 L22.03125,58.8289453 C22.0308984,59.3027344 21.7453125,59.7297656 21.3073828,59.9109375 C21.1626563,59.9708203 21.0104297,60 20.8596094,60 C20.5545703,60 20.2549219,59.8809375 20.0307422,59.6567578 L20.0307422,59.6567578 L15.2177344,54.84375 L8.203125,54.84375 C3.67992188,54.84375 0,51.1638281 0,46.640625 L0,46.640625 L0,28.59375 C0,24.0705469 3.67992188,20.390625 8.203125,20.390625 L8.203125,20.390625 Z M32.2265625,42.890625 C32.5347656,42.890625 32.8371094,43.0160156 33.0549609,43.2339844 C33.2729297,43.4519531 33.3984375,43.7542969 33.3984375,44.0625 C33.3984375,44.371875 33.2730469,44.6730469 33.0549609,44.8910156 C32.8371094,45.1089844 32.5347656,45.234375 32.2265625,45.234375 C31.9183594,45.234375 31.6160156,45.1089844 31.3980469,44.8910156 C31.1800781,44.6730469 31.0546875,44.3707031 31.0546875,44.0625 C31.0546875,43.7542969 31.1799609,43.4519531 31.3980469,43.2339844 C31.6160156,43.0160156 31.9183594,42.890625 32.2265625,42.890625 Z M27.6172266,42.890625 C28.2643359,42.890625 28.7891016,43.4152734 28.7891016,44.0625 C28.7891016,44.7097266 28.2644531,45.234375 27.6172266,45.234375 L27.6172266,45.234375 L7.5,45.234375 C6.85289063,45.234375 6.328125,44.7097266 6.328125,44.0625 C6.328125,43.4152734 6.85289063,42.890625 7.5,42.890625 L7.5,42.890625 Z M32.2265625,36.328125 C32.8736719,36.328125 33.3984375,36.8527734 33.3984375,37.5 C33.3984375,38.1472266 32.8737891,38.671875 32.2265625,38.671875 L32.2265625,38.671875 L7.5,38.671875 C6.85289063,38.671875 6.328125,38.1472266 6.328125,37.5 C6.328125,36.8527734 6.85289063,36.328125 7.5,36.328125 L7.5,36.328125 Z M42.9673828,7.93320964e-12 C52.3591406,7.93320964e-12 60,7.64085938 60,17.0327344 C60,19.7533594 59.3773828,22.3536328 58.1491406,24.7613672 C57.0677344,26.8812891 55.5268359,28.7789063 53.671875,30.2811328 L53.671875,30.2811328 L53.671875,37.0611328 C53.671875,37.5350391 53.3864063,37.9623047 52.9485938,38.1437109 C52.8036328,38.2038281 52.6512891,38.2330078 52.5002344,38.2330078 C52.1953125,38.2330078 51.8957813,38.1139453 51.6716016,37.89 L51.6716016,37.89 L47.2903125,33.5111719 C45.8840625,33.8791406 44.4331641,34.0653516 42.9672656,34.0653516 L42.9672656,34.0653516 L40.0013672,34.0653516 C30.6096094,34.0653516 22.96875,26.4246094 22.96875,17.0327344 C22.96875,7.64085938 30.6096094,7.93320964e-12 40.0014844,7.93320964e-12 L40.0014844,7.93320964e-12 Z M42.9673828,2.34375 L40.0014844,2.34375 C31.9019531,2.34375 25.3125,8.93320313 25.3125,17.0327344 C25.3125,25.1322656 31.9018359,31.7217188 40.0014844,31.7217188 L40.0014844,31.7217188 L42.9673828,31.7217188 C44.439375,31.7217188 45.8929688,31.5044531 47.2878516,31.0757813 C47.4010547,31.0409766 47.5170703,31.0239844 47.6319141,31.0239844 C47.9380078,31.0239844 48.2373047,31.1441016 48.4604297,31.3669922 L48.4604297,31.3669922 L51.328125,34.2331641 L51.328125,29.7097266 C51.328125,29.3416406 51.5010937,28.995 51.7948828,28.7736328 C55.5199219,25.9681641 57.65625,21.6887109 57.65625,17.0327344 C57.65625,8.93320313 51.0669141,2.34375 42.9673828,2.34375 L42.9673828,2.34375 Z M24.609375,29.765625 C25.2564844,29.765625 25.78125,30.2902734 25.78125,30.9375 C25.78125,31.5847266 25.2566016,32.109375 24.609375,32.109375 L24.609375,32.109375 L7.5,32.109375 C6.85289063,32.109375 6.328125,31.5847266 6.328125,30.9375 C6.328125,30.2902734 6.85289063,29.765625 7.5,29.765625 L7.5,29.765625 Z M41.8125,24.1792969 C42.1207031,24.1792969 42.4230469,24.3046875 42.6410156,24.5226563 C42.8588672,24.740625 42.984375,25.0429688 42.984375,25.3511719 C42.984375,25.6605469 42.8589844,25.9617188 42.6410156,26.1808594 C42.4230469,26.3988281 42.1207031,26.5230469 41.8125,26.5230469 C41.5042969,26.5230469 41.2019531,26.3988281 40.9839844,26.1808594 C40.7661328,25.9628906 40.640625,25.6605469 40.640625,25.3511719 C40.640625,25.0429688 40.7660156,24.740625 40.9839844,24.5226563 C41.2019531,24.3046875 41.5042969,24.1792969 41.8125,24.1792969 Z M41.9015177,8.21138329 L42.1614844,8.22269531 C44.6149219,8.39179688 46.5925781,10.3694531 46.7616797,12.8227734 C46.9298438,15.2627344 45.3455859,17.4234375 42.9842578,17.9939063 L42.9842578,17.9939063 L42.9842578,20.7157031 C42.984375,21.3629297 42.4597266,21.8875781 41.8125,21.8875781 C41.1653906,21.8875781 40.640625,21.3629297 40.640625,20.7157031 L40.640625,20.7157031 L40.640625,17.9002734 C40.640625,16.850625 41.3589844,15.9567188 42.3876563,15.7265625 C43.6572656,15.4425 44.5135547,14.2891406 44.4235547,12.9840234 C44.3344922,11.6917969 43.2928125,10.6501172 42.0004688,10.5610547 C41.2633594,10.5101953 40.5628125,10.7578125 40.0267969,11.2580859 C39.4903125,11.7588281 39.1947656,12.4386328 39.1947656,13.1721094 C39.1947656,13.8193359 38.67,14.3439844 38.0228906,14.3439844 C37.3757813,14.3439844 36.8510156,13.8193359 36.8510156,13.1721094 C36.8510156,11.8020703 37.4255859,10.4799609 38.4275391,9.5446875 C39.4434375,8.59628906 40.7707031,8.1271875 42.1614844,8.22269531 Z" id="Combined-Shape"></path>
        </g>
    </g>
</svg>