<?xml version="1.0" encoding="UTF-8"?>
<svg width="24px" height="24px" viewBox="0 0 24 24" version="1.1" xmlns="http://www.w3.org/2000/svg" xmlns:xlink="http://www.w3.org/1999/xlink">
    <!-- Generator: Sketch 63.1 (92452) - https://sketch.com -->
    <title>Link/Instagram</title>
    <desc>Created with Sketch.</desc>
    <g id="Link/Instagram" stroke="none" stroke-width="1" fill="none" fill-rule="evenodd">
        <path d="M16.9078081,4 L7.09219191,4 C5.38758231,4 4,5.38664158 4,7.09219191 L4,16.9078081 C4,18.6133584 5.38758231,20 7.09219191,20 L16.9078081,20 C18.6124177,20 20,18.6133584 20,16.9078081 L20,7.09219191 C20,5.38664158 18.6124177,4 16.9078081,4 L16.9078081,4 Z M17.79492,5.84477893 L18.1486359,5.84289746 L18.1486359,8.55503293 L15.4449671,8.56349953 L15.4355597,5.85136406 L17.79492,5.84477893 L17.79492,5.84477893 Z M9.71683913,10.3574788 C10.2285983,9.64816557 11.060207,9.18344309 12,9.18344309 C12.939793,9.18344309 13.7714017,9.64816557 14.2831609,10.3574788 C14.6171214,10.8203198 14.8165569,11.3866416 14.8165569,12 C14.8165569,13.5522107 13.5531515,14.8156162 12,14.8156162 C10.4477893,14.8156162 9.18438382,13.5522107 9.18438382,12 C9.18438382,11.3866416 9.38381938,10.8203198 9.71683913,10.3574788 L9.71683913,10.3574788 Z M18.4412041,16.9078081 C18.4412041,17.7535278 17.7535278,18.4412041 16.9078081,18.4412041 L7.09219191,18.4412041 C6.24647225,18.4412041 5.55879586,17.7535278 5.55879586,16.9078081 L5.55879586,10.3574788 L7.94825964,10.3574788 C7.74129821,10.8654751 7.62558796,11.4195673 7.62558796,12 C7.62558796,14.4120414 9.58795861,16.3753528 12,16.3753528 C14.4129821,16.3753528 16.3753528,14.4120414 16.3753528,12 C16.3753528,11.4195673 16.2577611,10.8654751 16.0526811,10.3574788 L18.4412041,10.3574788 L18.4412041,16.9078081 L18.4412041,16.9078081 Z" id="Shape" fill="#000000"></path>
    </g>
</svg>