<?xml version="1.0" encoding="UTF-8"?>
<svg width="24px" height="24px" viewBox="0 0 24 24" version="1.1" xmlns="http://www.w3.org/2000/svg" xmlns:xlink="http://www.w3.org/1999/xlink">
    <!-- Generator: Sketch 63.1 (92452) - https://sketch.com -->
    <title>Icons/Profile/MyProfile</title>
    <desc>Created with Sketch.</desc>
    <g id="Icons/Profile/MyProfile" stroke="none" stroke-width="1" fill="none" fill-rule="evenodd">
        <g id="profile" transform="translate(2.000000, 1.000000)" fill="#000000">
            <path d="M17.7142857,7.78125 C17.7142857,4.59353637 15.1317545,2 11.9575672,2 C8.78337992,2 6.20084866,4.59353637 6.20084866,7.78125 C6.20084866,9.7557373 7.19195601,11.5019531 8.70042047,12.5455017 C7.29193278,13.0334778 6.001047,13.8397522 4.91649632,14.9289246 C3.03577781,16.8176575 2,19.328949 2,22 L3.55586987,22 C3.55586987,17.3475952 7.32490388,13.5625 11.9575672,13.5625 C15.1317545,13.5625 17.7142857,10.9689636 17.7142857,7.78125 Z M12,12 C9.63687377,12 7.71428571,10.0774119 7.71428571,7.71428571 C7.71428571,5.35115948 9.63687377,3.42857143 12,3.42857143 C14.3631262,3.42857143 16.2857143,5.35115948 16.2857143,7.71428571 C16.2857143,10.0774119 14.3631262,12 12,12 Z M14.8571429,17.7142857 L22,17.7142857 L22,19.1428571 L14.8571429,19.1428571 L14.8571429,17.7142857 Z M22,14.8571429 L22,16.2857143 L14.8571429,16.2857143 L14.8571429,14.8571429 L22,14.8571429 Z M14.8571429,20.5714286 L22,20.5714286 L22,22 L14.8571429,22 L14.8571429,20.5714286 Z" id="Shape"></path>
        </g>
    </g>
</svg>