<?xml version="1.0" encoding="UTF-8"?>
<svg width="22px" height="22px" viewBox="0 0 22 22" version="1.1" xmlns="http://www.w3.org/2000/svg" xmlns:xlink="http://www.w3.org/1999/xlink">
    <!-- Generator: Sketch 63.1 (92452) - https://sketch.com -->
    <title>icon/functional/edit copy 13</title>
    <desc>Created with Sketch.</desc>
    <g id="SP02_Profile-Page" stroke="none" stroke-width="1" fill="none" fill-rule="evenodd">
        <g id="ReDI_Menteeflow_Editmode" transform="translate(-1222.000000, -340.000000)" fill="#EA5B25">
            <g id="Group-18" transform="translate(1221.000000, 339.000000)">
                <g id="icons/functional/save">
                    <g id="icon/functional/edit" transform="translate(1.500000, 1.500000)">
                        <g id="save-button-interface-symbol-of-outlined-diskette" fill-rule="nonzero">
                            <path d="M12.46875,6.5625 C12.831,6.5625 13.125,6.2685 13.125,5.90625 L13.125,3.28125 C13.125,2.919 12.831,2.625 12.46875,2.625 C12.1065,2.625 11.8125,2.919 11.8125,3.28125 L11.8125,5.90625 C11.8125,6.2685 12.1065,6.5625 12.46875,6.5625 Z M18.375,0 L2.625,0 C1.17534804,0 0,1.17534804 0,2.625 L0,18.375 C0,19.824652 1.17534804,21 2.625,21 L18.375,21 C19.824652,21 21,19.824652 21,18.375 L21,2.625 C21,1.17534804 19.824652,0 18.375,0 Z M5.25,1.3125 L15.75,1.3125 L15.75,7.21875 C15.75,7.581 15.456,7.875 15.09375,7.875 L5.90625,7.875 C5.544,7.875 5.25,7.581 5.25,7.21875 L5.25,1.3125 Z M19.6875,18.375 C19.6875,19.100152 19.100152,19.6875 18.375,19.6875 L2.625,19.6875 C1.89984804,19.6875 1.3125,19.100152 1.3125,18.375 L1.3125,2.625 C1.3125,1.89984804 1.89984804,1.3125 2.625,1.3125 L3.9375,1.3125 L3.9375,7.875 C3.9375,8.5995 4.52484804,9.1875 5.25,9.1875 L15.75,9.1875 C16.475152,9.1875 17.0625,8.5995 17.0625,7.875 L17.0625,1.3125 L18.375,1.3125 C19.100152,1.3125 19.6875,1.9005 19.6875,2.625 L19.6875,18.375 Z" id="Shape"></path>
                        </g>
                    </g>
                </g>
            </g>
        </g>
    </g>
</svg>