<?xml version="1.0" encoding="UTF-8"?>
<svg width="56px" height="56px" viewBox="0 0 56 56" version="1.1" xmlns="http://www.w3.org/2000/svg" xmlns:xlink="http://www.w3.org/1999/xlink">
    <!-- Generator: Sketch 63.1 (92452) - https://sketch.com -->
    <title>picture</title>
    <desc>Created with Sketch.</desc>
    <g id="SP02_Profile-Page" stroke="none" stroke-width="1" fill="none" fill-rule="evenodd">
        <g id="SP2_ProfilePage_Empty" transform="translate(-463.000000, -169.000000)" fill="#B3B3B3">
            <g id="Icon-Picture" transform="translate(439.000000, 169.000000)">
                <g id="picture" transform="translate(24.000000, 0.000000)">
                    <path d="M32.2658437,0.434113654 C33.8326406,-0.460508803 35.8435,0.0722621283 36.7481406,1.62189534 L36.7481406,1.62189534 L40.4524531,7.96765689 C40.7545469,8.48506671 40.5752812,9.14667625 40.0521406,9.4453525 C39.5292187,9.74413693 38.8602812,9.56683509 38.5580781,9.04942527 L38.5580781,9.04942527 L34.8537656,2.70366373 C34.5521094,2.18701115 33.8816406,2.0092766 33.3597031,2.30762833 L33.3597031,2.30762833 L16.9427344,11.682125 L40.9070156,11.682125 C42.7162969,11.682125 44.188375,13.1380771 44.188375,14.9276465 L44.188375,14.9276465 L44.188375,52.1411281 C44.188375,53.9306976 42.7162969,55.3865415 40.9070156,55.3865415 L40.9070156,55.3865415 L3.28135937,55.3865415 C1.47196875,55.3865415 -2.13162821e-14,53.9306976 -2.13162821e-14,52.1411281 L-2.13162821e-14,52.1411281 L-2.13162821e-14,14.9276465 C-2.13162821e-14,13.1381853 1.47196875,11.6823414 3.28135937,11.6823414 L3.28135937,11.6823414 L12.5701406,11.6823414 C12.5773594,11.6780143 12.5838125,11.6731463 12.5911406,11.6689274 L12.5911406,11.6689274 Z M40.9070156,13.84577 L3.28135937,13.84577 C2.67826562,13.84577 2.18760937,14.3310513 2.18760937,14.9275383 L2.18760937,14.9275383 L2.18760937,52.14102 C2.18760937,52.737507 2.67826562,53.2227883 3.28135937,53.2227883 L3.28135937,53.2227883 L40.9070156,53.2227883 C41.5101094,53.2227883 42.0007656,52.737507 42.0007656,52.14102 L42.0007656,52.14102 L42.0007656,14.9275383 C42.0007656,14.3310513 41.5101094,13.84577 40.9070156,13.84577 L40.9070156,13.84577 Z M22.0941875,16.8747214 C22.6981562,16.8747214 23.1879375,17.3590291 23.1879375,17.9564898 C23.1879375,18.5539505 22.6981562,19.0382582 22.0941875,19.0382582 L22.0941875,19.0382582 L7.43771875,19.0382582 L7.43771875,41.3078668 L16.151625,32.689418 C16.3568125,32.4865865 16.6349531,32.3725681 16.9250156,32.3725681 C17.2150781,32.3725681 17.4932187,32.4865865 17.6984062,32.689418 L17.6984062,32.689418 L24.3703906,39.2883134 C24.7975,39.7108521 24.7975,40.3958279 24.3703906,40.8182584 C23.9430625,41.240689 23.2507187,41.240689 22.8235,40.8182584 L22.8235,40.8182584 L16.9249062,34.9842815 L8.98460937,42.8375955 L36.7506562,42.8375955 L36.7506562,37.5204875 C36.7481406,37.5181076 36.7454062,37.5160522 36.7428906,37.5135642 L36.7428906,37.5135642 L27.2937656,28.1679507 L22.2727969,33.1340248 C21.8454687,33.5564554 21.153125,33.5564554 20.7259062,33.1340248 C20.2987969,32.7115943 20.2987969,32.0266185 20.7259062,31.604188 L20.7259062,31.604188 L26.520375,25.8731954 C26.7255625,25.6703638 27.0037031,25.5563455 27.2937656,25.5563455 C27.5838281,25.5563455 27.8619687,25.6703638 28.0671562,25.8731954 L28.0671562,25.8731954 L36.7505469,34.4613547 L36.7505469,19.0382582 L33.5786719,19.0382582 C32.9747031,19.0382582 32.4849219,18.5539505 32.4849219,17.9564898 C32.4849219,17.3590291 32.9747031,16.8747214 33.5786719,16.8747214 L33.5786719,16.8747214 L37.8444062,16.8747214 C38.448375,16.8747214 38.9381562,17.3591373 38.9381562,17.9564898 L38.9381562,17.9564898 L38.9381562,43.9193638 C38.9381562,44.5168245 38.448375,45.0011322 37.8444062,45.0011322 L37.8444062,45.0011322 L6.34385937,45.0011322 C5.73989062,45.0011322 5.25010937,44.5168245 5.25010937,43.9193638 L5.25010937,43.9193638 L5.25010937,17.9564898 C5.25010937,17.3590291 5.73989062,16.8747214 6.34385937,16.8747214 L6.34385937,16.8747214 Z M49.5415156,25.7013024 C50.0647656,25.4026262 50.7334844,25.5798198 51.0355781,26.0972297 L51.0355781,26.0972297 L55.5610781,33.8497228 C56.4656094,35.3995724 55.9268281,37.3881872 54.3601406,38.2828097 L54.3601406,38.2828097 L47.3260156,42.2994157 C47.1538594,42.3977484 46.9657344,42.4444808 46.7802344,42.4444808 C46.402125,42.4444808 46.034625,42.2505198 45.8319531,41.9034885 C45.5298594,41.3860786 45.709125,40.7244691 46.2322656,40.4257928 L46.2322656,40.4257928 L53.2663906,36.4091868 C53.7886562,36.1109433 53.96825,35.4480356 53.6667031,34.931383 L53.6667031,34.931383 L49.1412031,27.178998 C48.8391094,26.6615882 49.018375,25.9999787 49.5415156,25.7013024 Z M15.9326563,21.5263255 C17.8625781,21.5263255 19.4327656,23.079204 19.4327656,24.9880925 C19.4327656,26.896981 17.8625781,28.4498595 15.9326563,28.4498595 C14.002625,28.4498595 12.4325469,26.896981 12.4325469,24.9880925 C12.4325469,23.079204 14.0027344,21.5263255 15.9326563,21.5263255 Z M15.9326563,23.6899705 C15.2089219,23.6899705 14.6201563,24.2722864 14.6201563,24.9880925 C14.6201563,25.7038987 15.2089219,26.2862146 15.9326563,26.2862146 C16.6563906,26.2862146 17.2451563,25.7038987 17.2451563,24.9880925 C17.2451563,24.2723946 16.6563906,23.6899705 15.9326563,23.6899705 Z M48.1509219,22.2383455 C48.4385781,22.2383455 48.7206562,22.3540947 48.9242031,22.5553036 C49.12775,22.7565125 49.2446719,23.0356088 49.2446719,23.3201138 C49.2446719,23.6046189 49.1276406,23.8837152 48.9242031,24.0849241 C48.7207656,24.286133 48.4385781,24.4018822 48.1509219,24.4018822 C47.863375,24.4018822 47.5811875,24.2860248 47.37775,24.0849241 C47.1742031,23.8837152 47.0571719,23.6046189 47.0571719,23.3201138 C47.0571719,23.0356088 47.1743125,22.7565125 47.37775,22.5553036 C47.5810781,22.3540947 47.8632656,22.2383455 48.1509219,22.2383455 Z M28.0005469,16.8747214 C28.2882031,16.8747214 28.5703906,16.9904707 28.7737188,17.1916796 C28.9772656,17.3928885 29.0942969,17.6719847 29.0942969,17.9564898 C29.0942969,18.2409949 28.9771563,18.5200912 28.7737188,18.7213001 C28.5703906,18.922509 28.2882031,19.0382582 28.0005469,19.0382582 C27.7128906,19.0382582 27.4308125,18.922509 27.2272656,18.7213001 C27.0237188,18.5200912 26.9067969,18.2409949 26.9067969,17.9564898 C26.9067969,17.6719847 27.0238281,17.3928885 27.2272656,17.1916796 C27.4307031,16.9904707 27.7128906,16.8747214 28.0005469,16.8747214 Z" id="Combined-Shape"></path>
                </g>
            </g>
        </g>
    </g>
</svg>