<?xml version="1.0" encoding="UTF-8"?>
<svg width="20px" height="16px" viewBox="0 0 20 16" version="1.1" xmlns="http://www.w3.org/2000/svg" xmlns:xlink="http://www.w3.org/1999/xlink">
    <!-- Generator: Sketch 63.1 (92452) - https://sketch.com -->
    <title>icon/functional/arrow/black</title>
    <desc>Created with Sketch.</desc>
    <g id="icon/functional/arrow/black" stroke="none" stroke-width="1" fill="none" fill-rule="evenodd">
        <rect id="Rectangle" x="0" y="0" width="20" height="16"></rect>
        <path d="M13.8821336,12.9212312 C13.8264391,12.9735639 13.7529453,13 13.6794515,13 C13.6059577,13 13.5324639,12.9735639 13.4761953,12.9212312 C13.3642321,12.8154867 13.3642321,12.6450007 13.4761953,12.5397958 L18.0201785,8.27009347 L1.28708512,8.27009347 C1.12861413,8.27009347 1,8.14924266 1,8.0003372 C1,7.85089222 1.12861413,7.73058092 1.28708512,7.73058092 L18.0201785,7.73058092 L13.4761953,3.46033908 C13.3642321,3.35513414 13.3642321,3.18464817 13.4761953,3.07890371 C13.5887326,2.97369876 13.7701704,2.97369876 13.8821336,3.07890371 L18.9158841,7.80881024 C18.9428701,7.83416733 18.9635402,7.86438003 18.9784686,7.89675079 C19.0071771,7.96311083 19.0071771,8.03702405 18.9784686,8.10338409 C18.9635402,8.13575485 18.9428701,8.16596755 18.9158841,8.19132464 L13.8821336,12.9212312 Z" stroke="#FD4D00"></path>
    </g>
</svg>