<?xml version="1.0" encoding="UTF-8"?>
<svg width="56px" height="22px" viewBox="0 0 56 22" version="1.1" xmlns="http://www.w3.org/2000/svg" xmlns:xlink="http://www.w3.org/1999/xlink">
    <!-- Generator: Sketch 63.1 (92452) - https://sketch.com -->
    <title>Step_Arrow</title>
    <desc>Created with Sketch.</desc>
    <g id="Mentee/Mentor-Page" stroke="none" stroke-width="1" fill="none" fill-rule="evenodd">
        <g id="SP1_Subpage_Mentor" transform="translate(-156.000000, -641.000000)" fill="#58ADC4" fill-rule="nonzero">
            <g id="Mentee_Steps" transform="translate(89.000000, 499.000000)">
                <path d="M110.158604,142.354841 C109.822229,142.745007 109.850211,143.325047 110.241948,143.681097 L119.421607,152.025138 L68.0233571,152.02536 C67.4677692,152.02536 67,152.449927 67,153.000715 L67.007026,153.116536 C67.0673161,153.609223 67.5077614,153.97607 68.0233571,153.97607 L119.421607,153.975872 L110.241948,162.319189 C109.820077,162.702627 109.820077,163.345842 110.2412,163.730562 C110.43743,163.907111 110.690046,164 110.949123,164 C111.208807,164 111.461985,163.906711 111.655039,163.731244 L122.683702,153.707314 C122.780246,153.619565 122.857286,153.513809 122.913388,153.396137 C123.028167,153.139798 123.028167,152.860488 122.91755,152.61316 C122.857286,152.486477 122.780246,152.380721 122.683702,152.292972 L111.655039,142.269042 C111.260486,141.910433 110.638523,141.910433 110.242698,142.268362 L110.158604,142.354841 Z" id="Step_Arrow"></path>
            </g>
        </g>
    </g>
</svg>