<?xml version="1.0" encoding="UTF-8"?>
<svg width="59px" height="59px" viewBox="0 0 59 59" version="1.1" xmlns="http://www.w3.org/2000/svg" xmlns:xlink="http://www.w3.org/1999/xlink">
    <!-- Generator: Sketch 61.2 (89653) - https://sketch.com -->
    <title>icon/visual/calender</title>
    <desc>Created with Sketch.</desc>
    <g id="Styles-&amp;-Behaviours" stroke="none" stroke-width="1" fill="none" fill-rule="evenodd">
        <g id="Styles/Icons" transform="translate(-165.000000, -234.000000)" fill="#EA5B29">
            <g id="icon/visual/calender" transform="translate(156.000000, 232.000000)">
                <path d="M53.1373114,2.05742092 C54.973757,2.05742092 56.479141,3.50159004 56.5774594,5.31392435 L56.5825669,5.5026764 L56.5825669,7.11031873 L62.0572214,7.11031873 C65.1494984,7.11031873 67.6791722,9.56807902 67.795159,12.6325161 L67.7993139,12.8524112 L67.7993139,56.4917397 C67.7993139,58.8277495 65.9546109,60.7411587 63.6454807,60.8516914 L63.4343187,60.8567348 L13.3637032,60.8567348 C11.0283899,60.8567348 9.11554223,59.0120318 9.00504194,56.7034266 L9,56.4923139 L9,53.5209246 C9,52.9289914 9.44792915,52.4416 10.0232926,52.3792453 L10.1484185,52.3725061 L13.2550341,52.3725061 C11.2480292,50.6442798 9.97342822,48.0877567 9.97342822,45.2380998 C9.97342822,40.0455255 14.1981727,35.820781 19.390747,35.820781 C24.5833212,35.820781 28.8079221,40.0455255 28.8079221,45.2380998 C28.8079221,47.9781545 27.6294819,50.4471906 25.7552507,52.1694499 L25.5270341,52.3725061 L37.0011703,52.3725061 C37.6353844,52.3725061 38.1495888,52.8867105 38.1495888,53.5209246 C38.1495888,54.1128577 37.7016597,54.6002491 37.1262962,54.6626038 L37.0011703,54.6693431 L11.296837,54.6693431 L11.296837,56.4923139 C11.296837,57.5828371 12.1454303,58.4788445 13.2163495,58.5546967 L13.3637032,58.5598978 L59.5915669,58.5598978 C59.3005325,58.0206615 59.1190757,57.4139421 59.0782589,56.7699367 L59.0694672,56.4917397 L59.0694672,54.6693431 L46.8596253,54.6693431 C46.2254112,54.6693431 45.7112068,54.1551387 45.7112068,53.5209246 C45.7112068,52.9289914 46.159136,52.4416 46.7344994,52.3792453 L46.8596253,52.3725061 L60.2178856,52.3725061 C60.8098188,52.3725061 61.2972102,52.8204352 61.3595649,53.3957987 L61.3663041,53.5209246 L61.3663041,56.4917397 C61.3663041,57.6318321 62.2943698,58.5598978 63.4343187,58.5598978 C64.524842,58.5598978 65.4213747,57.7107791 65.4972726,56.6391861 L65.5024769,56.4917397 L65.5024769,12.8524112 C65.5024769,11.0159656 64.0577712,9.51058165 62.2459198,9.41226321 L62.0572214,9.40715572 L56.5825669,9.40715572 L56.5825669,10.8426788 C56.5825669,12.7425937 55.0370827,14.2879343 53.1373114,14.2879343 C51.3012822,14.2879343 49.7955096,12.8438993 49.6971648,11.0314443 L49.692056,10.8426788 L49.692056,9.40715572 L30.3987689,9.40715572 L30.3987689,10.8426788 C30.3987689,12.7425937 28.8534282,14.2879343 26.9535134,14.2879343 C25.1170678,14.2879343 23.6116838,12.8438993 23.5133654,11.0314443 L23.5082579,10.8426788 L23.5082579,9.36452068 C23.4432766,9.38251257 23.3759984,9.39546418 23.3069763,9.40209949 L23.2022044,9.40715572 L18.6264745,9.40715572 C16.7898901,9.40715572 15.2846357,10.8513248 15.186326,12.6636591 L15.181219,12.8524112 L15.181219,16.6426229 L56.5825669,16.6426229 C57.216781,16.6426229 57.7309854,17.156253 57.7309854,17.7910414 C57.7309854,18.3829745 57.2830563,18.8703659 56.7076928,18.9327206 L56.5825669,18.9394599 L15.181219,18.9394599 L15.181219,32.4137105 C15.181219,33.0484988 14.6670146,33.562129 14.0328005,33.562129 C13.4408673,33.562129 12.953476,33.1147 12.8911213,32.5389364 L12.884382,32.4137105 L12.884382,12.8524112 C12.884382,9.76013416 15.3420053,7.23046045 18.4065698,7.11447361 L18.6264745,7.11031873 L23.2022044,7.11031873 C23.2728321,7.11031873 23.3419924,7.11733685 23.4091324,7.12996945 L23.5082579,7.15295377 L23.5082579,5.5026764 C23.5082579,3.60290511 25.0537421,2.05742092 26.9535134,2.05742092 C28.7900977,2.05742092 30.2953522,3.50159004 30.3936618,5.31392435 L30.3987689,5.5026764 L30.3987689,7.11031873 L49.692056,7.11031873 L49.692056,5.5026764 C49.692056,3.60290511 51.2379708,2.05742092 53.1373114,2.05742092 Z M42.4858735,52.3730803 C42.7874769,52.3730803 43.0841995,52.4948127 43.2972311,52.7084185 C43.510837,52.9231727 43.634292,53.2181727 43.634292,53.5203504 C43.634292,53.8226715 43.510837,54.1186764 43.2972311,54.3334307 C43.0841995,54.5470365 42.7874769,54.6687689 42.4858735,54.6687689 C42.1835523,54.6687689 41.8875474,54.5470365 41.6737981,54.3334307 C41.4601922,54.1186764 41.337455,53.8236764 41.337455,53.5203504 C41.337455,53.2181727 41.4601922,52.9231727 41.6737981,52.7084185 C41.8875474,52.4948127 42.1835523,52.3730803 42.4858735,52.3730803 Z M19.390747,38.117618 C15.4648783,38.117618 12.2702652,41.3116569 12.2702652,45.2380998 C12.2702652,49.1638248 15.4648783,52.3578637 19.390747,52.3578637 C23.3170462,52.3578637 26.5110852,49.1638248 26.5110852,45.2380998 C26.5110852,41.3116569 23.3170462,38.117618 19.390747,38.117618 Z M23.4819878,42.4394039 C23.8985459,42.8554287 23.9283,43.5122003 23.5712503,43.9630773 L23.4819878,44.0632676 L18.9298005,48.615455 C18.714472,48.8307835 18.4223431,48.9519416 18.1178686,48.9519416 C17.8568905,48.9519416 17.6048771,48.8629275 17.4025989,48.7018944 L17.3057932,48.615455 L15.2153844,46.5256204 C14.7673577,46.0770195 14.7673577,45.3496399 15.2153844,44.9010389 C15.6324757,44.4844809 16.2888283,44.4547267 16.73964,44.8117765 L16.8398224,44.9010389 L18.1178686,46.1789416 L21.8579805,42.4394039 C22.3065815,41.9908029 23.0333869,41.9908029 23.4819878,42.4394039 Z M45.7011582,36.9691995 C48.107382,36.9691995 50.0648613,38.9268224 50.0648613,41.3336204 C50.0648613,43.7397007 48.107382,45.6973236 45.7011582,45.6973236 C43.2943601,45.6973236 41.3368808,43.7397007 41.3368808,41.3336204 C41.3368808,38.9268224 43.2943601,36.9691995 45.7011582,36.9691995 Z M56.4193479,36.9691995 C58.826146,36.9691995 60.7836253,38.9268224 60.7836253,41.3336204 C60.7836253,43.7397007 58.826146,45.6973236 56.4193479,45.6973236 C54.0131241,45.6973236 52.0556448,43.7397007 52.0556448,41.3336204 C52.0556448,38.9268224 54.0131241,36.9691995 56.4193479,36.9691995 Z M34.9823942,36.9691995 C37.388618,36.9691995 39.3462409,38.9268224 39.3462409,41.3336204 C39.3462409,43.7397007 37.388618,45.6973236 34.9823942,45.6973236 C32.5761703,45.6973236 30.618691,43.7397007 30.618691,41.3336204 C30.618691,38.9268224 32.5761703,36.9691995 34.9823942,36.9691995 Z M45.7011582,39.2660365 C44.5612092,39.2660365 43.6337178,40.193528 43.6337178,41.3336204 C43.6337178,42.4729951 44.5612092,43.4004866 45.7011582,43.4004866 C46.8406764,43.4004866 47.7680243,42.4729951 47.7680243,41.3336204 C47.7680243,40.193528 46.8406764,39.2660365 45.7011582,39.2660365 Z M56.4193479,39.2660365 C55.2799732,39.2660365 54.3524818,40.193528 54.3524818,41.3336204 C54.3524818,42.4729951 55.2799732,43.4004866 56.4193479,43.4004866 C57.5594404,43.4004866 58.4867883,42.4729951 58.4867883,41.3336204 C58.4867883,40.193528 57.5594404,39.2660365 56.4193479,39.2660365 Z M34.9823942,39.2660365 C33.8424453,39.2660365 32.915528,40.193528 32.915528,41.3336204 C32.915528,42.4729951 33.8424453,43.4004866 34.9823942,43.4004866 C36.1224866,43.4004866 37.0494039,42.4729951 37.0494039,41.3336204 C37.0494039,40.193528 36.1224866,39.2660365 34.9823942,39.2660365 Z M56.4193479,25.0257908 C58.826146,25.0257908 60.7836253,26.9834136 60.7836253,29.3894939 C60.7836253,31.796292 58.826146,33.7539148 56.4193479,33.7539148 C54.0131241,33.7539148 52.0556448,31.796292 52.0556448,29.3894939 C52.0556448,26.9834136 54.0131241,25.0257908 56.4193479,25.0257908 Z M24.2636302,25.0257908 C26.6704282,25.0257908 28.6279075,26.9834136 28.6279075,29.3894939 C28.6279075,31.796292 26.6704282,33.7539148 24.2636302,33.7539148 C21.8574063,33.7539148 19.899927,31.796292 19.899927,29.3894939 C19.899927,26.9834136 21.8574063,25.0257908 24.2636302,25.0257908 Z M45.7011582,25.0257908 C48.107382,25.0257908 50.0648613,26.9834136 50.0648613,29.3894939 C50.0648613,31.796292 48.107382,33.7539148 45.7011582,33.7539148 C43.2943601,33.7539148 41.3368808,31.796292 41.3368808,29.3894939 C41.3368808,26.9834136 43.2943601,25.0257908 45.7011582,25.0257908 Z M34.9823942,25.0257908 C37.388618,25.0257908 39.3462409,26.9834136 39.3462409,29.3894939 C39.3462409,31.796292 37.388618,33.7539148 34.9823942,33.7539148 C32.5761703,33.7539148 30.618691,31.796292 30.618691,29.3894939 C30.618691,26.9834136 32.5761703,25.0257908 34.9823942,25.0257908 Z M56.4193479,27.3226277 C55.2799732,27.3226277 54.3524818,28.2501192 54.3524818,29.3894939 C54.3524818,30.5295864 55.2799732,31.4570779 56.4193479,31.4570779 C57.5594404,31.4570779 58.4867883,30.5295864 58.4867883,29.3894939 C58.4867883,28.2501192 57.5594404,27.3226277 56.4193479,27.3226277 Z M24.2636302,27.3226277 C23.1242555,27.3226277 22.196764,28.2501192 22.196764,29.3894939 C22.196764,30.5295864 23.1242555,31.4570779 24.2636302,31.4570779 C25.4037226,31.4570779 26.3310706,30.5295864 26.3310706,29.3894939 C26.3310706,28.2501192 25.4037226,27.3226277 24.2636302,27.3226277 Z M45.7011582,27.3226277 C44.5612092,27.3226277 43.6337178,28.2501192 43.6337178,29.3894939 C43.6337178,30.5295864 44.5612092,31.4570779 45.7011582,31.4570779 C46.8406764,31.4570779 47.7680243,30.5295864 47.7680243,29.3894939 C47.7680243,28.2501192 46.8406764,27.3226277 45.7011582,27.3226277 Z M34.9823942,27.3226277 C33.8424453,27.3226277 32.915528,28.2501192 32.915528,29.3894939 C32.915528,30.5295864 33.8424453,31.4570779 34.9823942,31.4570779 C36.1224866,31.4570779 37.0494039,30.5295864 37.0494039,29.3894939 C37.0494039,28.2501192 36.1224866,27.3226277 34.9823942,27.3226277 Z M61.9696545,16.6426229 C62.2719757,16.6426229 62.5679805,16.7653601 62.7815864,16.9789659 C62.9953358,17.1927153 63.118073,17.4887202 63.118073,17.7910414 C63.118073,18.0926448 62.9953358,18.3893674 62.7815864,18.6029732 C62.5679805,18.8160049 62.2719757,18.9394599 61.9696545,18.9394599 C61.6674769,18.9394599 61.3713285,18.8160049 61.1577226,18.6029732 C60.9441168,18.3893674 60.821236,18.0926448 60.821236,17.7910414 C60.821236,17.4887202 60.9441168,17.1927153 61.1577226,16.9789659 C61.3713285,16.7653601 61.6674769,16.6426229 61.9696545,16.6426229 Z M26.9535134,4.35425791 C26.3626521,4.35425791 25.8743318,4.80318746 25.8118484,5.37775058 L25.8050949,5.5026764 L25.8050949,10.8426788 C25.8050949,11.4757445 26.3204477,11.9910973 26.9535134,11.9910973 C27.5445087,11.9910973 28.0327129,11.5421678 28.0951801,10.9676046 L28.1019319,10.8426788 L28.1019319,5.5026764 C28.1019319,4.86961071 27.5867226,4.35425791 26.9535134,4.35425791 Z M53.1373114,4.35425791 C52.5464501,4.35425791 52.0581298,4.80318746 51.9956465,5.37775058 L51.9888929,5.5026764 L51.9888929,10.8426788 C51.9888929,11.4757445 52.5042457,11.9910973 53.1373114,11.9910973 C53.7287087,11.9910973 54.2165645,11.5421678 54.2789835,10.9676046 L54.2857299,10.8426788 L54.2857299,5.5026764 C54.2857299,4.86961071 53.7709513,4.35425791 53.1373114,4.35425791 Z" id="Combined-Shape"></path>
            </g>
        </g>
    </g>
</svg>