<?xml version="1.0" encoding="UTF-8"?>
<svg width="49px" height="59px" viewBox="0 0 49 59" version="1.1" xmlns="http://www.w3.org/2000/svg" xmlns:xlink="http://www.w3.org/1999/xlink">
    <!-- Generator: Sketch 61.2 (89653) - https://sketch.com -->
    <title>icon/visual/calender copy 2</title>
    <desc>Created with Sketch.</desc>
    <g id="Styles-&amp;-Behaviours" stroke="none" stroke-width="1" fill="none" fill-rule="evenodd">
        <g id="Styles/Icons" transform="translate(-412.000000, -234.000000)" fill="#EA5B29">
            <g id="icon/visual/create-profile" transform="translate(396.000000, 232.000000)">
                <path d="M61.3579049,2 C63.2624537,2 64.8115634,3.54925366 64.8115634,5.45365854 L64.8115634,5.45365854 L64.8115634,57.4890683 C64.8115634,59.3928976 63.2624537,60.9427268 61.3579049,60.9427268 L61.3579049,60.9427268 L19.4536585,60.9427268 C17.5492537,60.9427268 16,59.3928976 16,57.4890683 L16,57.4890683 L16,26.6742317 C16,26.0384707 16.5154585,25.5230122 17.1512195,25.5230122 C17.7869805,25.5230122 18.302439,26.0384707 18.302439,26.6742317 L18.302439,26.6742317 L18.302439,57.4890683 C18.302439,58.123678 18.8190488,58.6402878 19.4536585,58.6402878 L19.4536585,58.6402878 L61.3579049,58.6402878 C61.9930902,58.6402878 62.5091244,58.123678 62.5091244,57.4890683 L62.5091244,57.4890683 L62.5091244,5.45365854 C62.5091244,4.81904878 61.9930902,4.30243902 61.3579049,4.30243902 L61.3579049,4.30243902 L38.0654244,4.30243902 C37.4296634,4.30243902 36.9142049,3.78698049 36.9142049,3.15121951 C36.9142049,2.51545854 37.4296634,2 38.0654244,2 L38.0654244,2 Z M51.038661,47.8188244 C51.6738463,47.8188244 52.1898805,48.3342829 52.1898805,48.9700439 C52.1898805,49.6058049 51.674278,50.1212634 51.038661,50.1212634 L51.038661,50.1212634 L34.6910561,50.1212634 C34.0552951,50.1212634 33.5398366,49.6058049 33.5398366,48.9700439 C33.5398366,48.3342829 34.0552951,47.8188244 34.6910561,47.8188244 L34.6910561,47.8188244 Z M29.7730463,47.8182488 C30.0771122,47.8182488 30.3728317,47.9414293 30.5869585,48.1555561 C30.8022366,48.3696829 30.9242659,48.6671293 30.9242659,48.9694683 C30.9242659,49.273678 30.8022366,49.5692537 30.5869585,49.7835244 C30.3728317,49.9976512 30.0761049,50.1206878 29.7730463,50.1206878 C29.4707073,50.1206878 29.173261,49.9976512 28.9597098,49.7835244 C28.7455829,49.5692537 28.6218268,49.273678 28.6218268,48.9694683 C28.6218268,48.6671293 28.7455829,48.3696829 28.9597098,48.1555561 C29.173261,47.9420049 29.4707073,47.8182488 29.7730463,47.8182488 Z M29.7730463,41.3719951 C30.0761049,41.3719951 30.3728317,41.4950317 30.5869585,41.7091585 C30.8022366,41.9234293 30.9242659,42.2201561 30.9242659,42.5232146 C30.9242659,42.8255537 30.8022366,43.123 30.5869585,43.3365512 C30.3728317,43.550678 30.0761049,43.6744341 29.7730463,43.6744341 C29.4707073,43.6744341 29.173261,43.550678 28.9597098,43.3365512 C28.7455829,43.123 28.6218268,42.8267049 28.6218268,42.5232146 C28.6218268,42.2201561 28.7455829,41.9234293 28.9597098,41.7091585 C29.173261,41.4950317 29.4707073,41.3719951 29.7730463,41.3719951 Z M51.038661,41.3719951 C51.6738463,41.3719951 52.1898805,41.8874537 52.1898805,42.5232146 C52.1898805,43.1589756 51.674278,43.6744341 51.038661,43.6744341 L51.038661,43.6744341 L34.6910561,43.6744341 C34.0552951,43.6744341 33.5398366,43.1589756 33.5398366,42.5232146 C33.5398366,41.8874537 34.0552951,41.3719951 34.6910561,41.3719951 L34.6910561,41.3719951 Z M40.4061415,6.60487805 C48.8486098,6.60487805 55.7170732,13.4733415 55.7170732,21.9163854 C55.7170732,30.3588537 48.8486098,37.227461 40.4061415,37.227461 C36.7623878,37.227461 33.2323171,35.9261512 30.4656488,33.5629854 C27.7303512,31.2262976 25.8977537,27.9952561 25.3058829,24.4656171 C25.2008341,23.838922 25.6240512,23.2453244 26.2508902,23.1401317 C26.8775854,23.0350829 27.4717585,23.4577244 27.5768073,24.085139 C27.9742659,26.4549244 28.9906488,28.5797878 30.4442073,30.3071927 C31.2890585,28.8467268 32.4470415,27.5875805 33.8529683,26.611778 C34.6701902,26.0446585 35.5477073,25.5920854 36.4662366,25.2576561 C35.4173317,24.2323512 34.7653098,22.8039756 34.7653098,21.2256537 L34.7653098,21.2256537 L34.7653098,20.1030707 C34.7653098,16.9927634 37.2954024,14.462239 40.4061415,14.462239 C43.5163049,14.462239 46.0469732,16.9927634 46.0469732,20.1030707 L46.0469732,20.1030707 L46.0469732,21.2256537 C46.0469732,22.8039756 45.3943756,24.2323512 44.3460463,25.2576561 C45.2644317,25.5920854 46.1419488,26.0446585 46.958739,26.611778 C48.3583341,27.5825439 49.5112805,28.8349268 50.3555561,30.2869024 C52.2634146,28.0227415 53.4146341,25.101378 53.4146341,21.9163854 C53.4146341,14.7432805 47.5792463,8.90731707 40.4061415,8.90731707 C39.7394415,8.90731707 39.0694317,8.95797073 38.4151073,9.05855854 C37.787261,9.15410976 37.1992756,8.72355366 37.1025732,8.0949878 C37.0064463,7.46656585 37.437578,6.8791561 38.066,6.78245366 C38.8355902,6.66445366 39.6224488,6.60487805 40.4061415,6.60487805 Z M40.4061415,26.8664854 C36.8585146,26.8664854 33.6984171,28.8540659 32.1524732,31.9912829 C34.4077122,33.8366878 37.2892146,34.925022 40.4061415,34.925022 C43.5319902,34.925022 46.4038512,33.8165415 48.6495927,31.9721439 C47.100339,28.8462951 43.9462854,26.8664854 40.4061415,26.8664854 Z M40.4061415,16.764678 C38.5651976,16.764678 37.0677488,18.2621268 37.0677488,20.1030707 L37.0677488,20.1030707 L37.0677488,21.2256537 C37.0677488,23.0665976 38.5651976,24.5640463 40.4061415,24.5640463 C42.2470854,24.5640463 43.7445341,23.0665976 43.7445341,21.2256537 L43.7445341,21.2256537 L43.7445341,20.1030707 C43.7445341,18.2621268 42.2470854,16.764678 40.4061415,16.764678 Z M17.1512195,21.2256537 C17.454278,21.2256537 17.7510049,21.3486902 17.9651317,21.5628171 C18.1794024,21.7770878 18.302439,22.0738146 18.302439,22.3768732 C18.302439,22.6792122 18.1794024,22.9766585 17.9651317,23.1902098 C17.7510049,23.4043366 17.454278,23.5280927 17.1512195,23.5280927 C16.8488805,23.5280927 16.5514341,23.4043366 16.3373073,23.1902098 C16.1231805,22.9766585 16,22.6792122 16,22.3768732 C16,22.0738146 16.1231805,21.7770878 16.3373073,21.5628171 C16.5514341,21.3486902 16.8488805,21.2256537 17.1512195,21.2256537 Z M25.4402878,2 C30.6455268,2 34.8798561,6.23504878 34.8798561,11.4402878 C34.8798561,16.6453829 30.6455268,20.8798561 25.4402878,20.8798561 C20.2350488,20.8798561 16,16.6453829 16,11.4402878 C16,6.23504878 20.2350488,2 25.4402878,2 Z M25.4402878,4.30243902 C21.5042683,4.30243902 18.302439,7.50426829 18.302439,11.4402878 C18.302439,15.3755878 21.5042683,18.5774171 25.4402878,18.5774171 C29.3755878,18.5774171 32.5774171,15.3755878 32.5774171,11.4402878 C32.5774171,7.50426829 29.3755878,4.30243902 25.4402878,4.30243902 Z M27.913539,8.63419024 C28.3626585,8.18492683 29.0918122,8.18492683 29.5415073,8.63419024 C29.9912024,9.08388537 29.9912024,9.81289512 29.5415073,10.2625902 L29.5415073,10.2625902 L24.9782171,14.8258805 C24.7532976,15.0500805 24.4587293,15.1626122 24.1643049,15.1626122 C23.8697366,15.1626122 23.5751683,15.0500805 23.3502488,14.8258805 L23.3502488,14.8258805 L21.2547415,12.7302293 C20.805622,12.2805341 20.805622,11.5521 21.2547415,11.1024049 C21.7044366,10.6527098 22.4334463,10.6527098 22.8831415,11.1024049 L22.8831415,11.1024049 L24.1643049,12.3834244 Z" id="Combined-Shape"></path>
            </g>
        </g>
    </g>
</svg>