<?xml version="1.0" encoding="UTF-8"?>
<svg width="80px" height="63px" viewBox="0 0 80 63" version="1.1" xmlns="http://www.w3.org/2000/svg" xmlns:xlink="http://www.w3.org/1999/xlink" style="background: #FFFFFF;">
    <!-- Generator: Sketch 63.1 (92452) - https://sketch.com -->
    <title>icons/visual/step3_speachbubble</title>
    <desc>Created with Sketch.</desc>
    <g id="icons/visual/step3_speachbubble" stroke="none" stroke-width="1" fill="none" fill-rule="evenodd">
        <rect fill="#FFFFFF" x="0" y="0" width="80" height="63"></rect>
        <g id="042-conversation-1" transform="translate(11.000000, 2.000000)" fill="#FD4D00">
            <path d="M19.7050781,20.0507812 C20.3414023,20.0507812 20.8574219,20.5666855 20.8574219,21.203125 C20.8574219,21.8395645 20.3414023,22.3554687 19.7050781,22.3554687 L19.7050781,22.3554687 L8.06640625,22.3554687 C4.88939453,22.3554687 2.3046875,24.9401758 2.3046875,28.1171875 L2.3046875,28.1171875 L2.3046875,45.8632812 C2.3046875,49.040293 4.88939453,51.625 8.06640625,51.625 L8.06640625,51.625 L15.5542207,51.625 C16.0255293,51.625 16.432998,51.9085918 16.6110352,52.3173281 L16.6110352,52.3173281 L19.3614492,55.067627 L19.3630625,52.7765371 C19.3635234,52.1404434 19.8791973,51.625 20.5154063,51.625 L20.5154063,51.625 L32.9570312,51.625 C36.134043,51.625 38.71875,49.040293 38.71875,45.8632812 L38.71875,45.8632812 L38.71875,37.9121094 C38.71875,37.2756699 39.2347695,36.7597656 39.8710938,36.7597656 C40.507418,36.7597656 41.0234375,37.2756699 41.0234375,37.9121094 L41.0234375,37.9121094 L41.0234375,45.8632812 C41.0234375,50.3110977 37.4048477,53.9296875 32.9570312,53.9296875 L32.9570312,53.9296875 L21.6668281,53.9296875 L21.6640625,57.8484629 C21.6637168,58.3143555 21.3828906,58.7342695 20.9522598,58.9124219 C20.8099453,58.9713066 20.6602559,59 20.5119492,59 C20.2119941,59 19.9173398,58.8829219 19.6968965,58.6624785 L19.6968965,58.6624785 L14.9641055,53.9296875 L8.06640625,53.9296875 C3.61858984,53.9296875 0,50.3110977 0,45.8632812 L0,45.8632812 L0,28.1171875 C0,23.6693711 3.61858984,20.0507812 8.06640625,20.0507812 L8.06640625,20.0507812 Z M31.6894531,42.1757812 C31.9925195,42.1757812 32.2898242,42.299082 32.5040449,42.513418 C32.7183809,42.7277539 32.8417969,43.0250586 32.8417969,43.328125 C32.8417969,43.6323437 32.7184961,43.9284961 32.5040449,44.142832 C32.2898242,44.357168 31.9925195,44.4804687 31.6894531,44.4804687 C31.3863867,44.4804687 31.089082,44.357168 30.8747461,44.142832 C30.6604102,43.9284961 30.5371094,43.6311914 30.5371094,43.328125 C30.5371094,43.0250586 30.6602949,42.7277539 30.8747461,42.513418 C31.089082,42.299082 31.3863867,42.1757812 31.6894531,42.1757812 Z M27.1569395,42.1757812 C27.7932637,42.1757812 28.3092832,42.6916855 28.3092832,43.328125 C28.3092832,43.9645645 27.7933789,44.4804687 27.1569395,44.4804687 L27.1569395,44.4804687 L7.375,44.4804687 C6.73867578,44.4804687 6.22265625,43.9645645 6.22265625,43.328125 C6.22265625,42.6916855 6.73867578,42.1757812 7.375,42.1757812 L7.375,42.1757812 Z M31.6894531,35.7226562 C32.3257773,35.7226562 32.8417969,36.2385605 32.8417969,36.875 C32.8417969,37.5114395 32.3258926,38.0273437 31.6894531,38.0273437 L31.6894531,38.0273437 L7.375,38.0273437 C6.73867578,38.0273437 6.22265625,37.5114395 6.22265625,36.875 C6.22265625,36.2385605 6.73867578,35.7226562 7.375,35.7226562 L7.375,35.7226562 Z M42.2512598,-7.81597009e-13 C51.4864883,-7.81597009e-13 59,7.51351172 59,16.7488555 C59,19.4241367 58.3877598,21.9810723 57.1799883,24.3486777 C56.1166055,26.4332676 54.6013887,28.2992578 52.7773438,29.7764473 L52.7773438,29.7764473 L52.7773438,36.4434473 C52.7773438,36.9094551 52.4966328,37.3295996 52.0661172,37.5079824 C51.9235723,37.5670977 51.7737676,37.595791 51.6252305,37.595791 C51.3253906,37.595791 51.0308516,37.4787129 50.8104082,37.2585 L50.8104082,37.2585 L46.5021406,32.9526523 C45.1193281,33.3144883 43.6926113,33.4975957 42.2511445,33.4975957 L42.2511445,33.4975957 L39.3346777,33.4975957 C30.0994492,33.4975957 22.5859375,25.9841992 22.5859375,16.7488555 C22.5859375,7.51351172 30.0994492,-7.81597009e-13 39.334793,-7.81597009e-13 L39.334793,-7.81597009e-13 Z M42.2512598,2.3046875 L39.334793,2.3046875 C31.3702539,2.3046875 24.890625,8.78431641 24.890625,16.7488555 C24.890625,24.7133945 31.3701387,31.1930234 39.334793,31.1930234 L39.334793,31.1930234 L42.2512598,31.1930234 C43.6987187,31.1930234 45.1280859,30.9793789 46.4997207,30.5578516 C46.6110371,30.523627 46.7251191,30.506918 46.8380488,30.506918 C47.139041,30.506918 47.4333496,30.6250332 47.6527559,30.844209 L47.6527559,30.844209 L50.4726562,33.6626113 L50.4726562,29.2145645 C50.4726562,28.8526133 50.6427422,28.51175 50.9316348,28.2940723 C54.5945898,25.5353613 56.6953125,21.3272324 56.6953125,16.7488555 C56.6953125,8.78431641 50.2157988,2.3046875 42.2512598,2.3046875 L42.2512598,2.3046875 Z M24.1992188,29.2695312 C24.835543,29.2695312 25.3515625,29.7854355 25.3515625,30.421875 C25.3515625,31.0583145 24.8356582,31.5742187 24.1992188,31.5742187 L24.1992188,31.5742187 L7.375,31.5742187 C6.73867578,31.5742187 6.22265625,31.0583145 6.22265625,30.421875 C6.22265625,29.7854355 6.73867578,29.2695312 7.375,29.2695312 L7.375,29.2695312 Z M41.115625,23.7763086 C41.4186914,23.7763086 41.7159961,23.8996094 41.930332,24.1139453 C42.1445527,24.3282812 42.2679688,24.6255859 42.2679688,24.9286523 C42.2679688,25.2328711 42.144668,25.5290234 41.930332,25.7445117 C41.7159961,25.9588477 41.4186914,26.0809961 41.115625,26.0809961 C40.8125586,26.0809961 40.5152539,25.9588477 40.300918,25.7445117 C40.0866973,25.5301758 39.9632813,25.2328711 39.9632813,24.9286523 C39.9632813,24.6255859 40.086582,24.3282812 40.300918,24.1139453 C40.5152539,23.8996094 40.8125586,23.7763086 41.115625,23.7763086 Z M41.2031591,8.0745269 L41.458793,8.08565039 C43.8713398,8.25193359 45.8160352,10.1966289 45.9823184,12.6090605 C46.1476797,15.0083555 44.5898262,17.1330469 42.2678535,17.6940078 L42.2678535,17.6940078 L42.2678535,20.3704414 C42.2679687,21.0068809 41.7520645,21.5227852 41.115625,21.5227852 C40.4793008,21.5227852 39.9632812,21.0068809 39.9632812,20.3704414 L39.9632812,20.3704414 L39.9632812,17.6019355 C39.9632812,16.5697812 40.669668,15.6907734 41.6811953,15.4644531 C42.9296445,15.185125 43.7716621,14.0509883 43.6831621,12.767623 C43.595584,11.4969336 42.5712656,10.4726152 41.3004609,10.3850371 C40.5756367,10.3350254 39.8867656,10.5785156 39.3596836,11.0704512 C38.8321406,11.5628477 38.5415195,12.2313223 38.5415195,12.9525742 C38.5415195,13.5890137 38.0255,14.104918 37.3891758,14.104918 C36.7528516,14.104918 36.236832,13.5890137 36.236832,12.9525742 C36.236832,11.6053691 36.8018262,10.3052949 37.7870801,9.38560937 C38.7860469,8.45301758 40.0911914,7.99173437 41.458793,8.08565039 Z" id="Combined-Shape"></path>
        </g>
    </g>
</svg>