<?xml version="1.0" encoding="UTF-8"?>
<svg width="16px" height="9px" viewBox="0 0 16 9" version="1.1" xmlns="http://www.w3.org/2000/svg" xmlns:xlink="http://www.w3.org/1999/xlink">
    <!-- Generator: Sketch 63.1 (92452) - https://sketch.com -->
    <title>dropdown copy</title>
    <desc>Created with Sketch.</desc>
    <g id="Symbols" stroke="none" stroke-width="1" fill="none" fill-rule="evenodd">
        <g id="Inputfields/withoutheader/filled" transform="translate(-424.000000, -20.000000)" fill="#FD4D00">
            <g id="icons/functional/chevron/down" transform="translate(424.000000, 16.000000)">
                <path d="M1.37913145,4.23657111 L7.70190941,10.5117799 L14.0246263,4.23657111 C14.3401033,3.92114296 14.8516243,3.92114296 15.1671012,4.23657111 C15.3248153,4.39433401 15.4038188,4.60107128 15.4038188,4.80780856 C15.4038188,5.01459466 15.3248153,5.22152724 15.1671012,5.37929014 L8.27494739,12.2712487 C8.25517209,12.2911216 8.23446907,12.3098715 8.19814112,12.3385335 C8.1821744,12.3510334 8.1660612,12.3632892 8.12436219,12.3896563 C8.11015327,12.3983477 8.09604201,12.4072343 8.0540012,12.4282303 C8.03935284,12.4353592 8.0247533,12.4425857 7.98276131,12.4586501 C7.96698991,12.4645095 7.9512185,12.4704665 7.90908003,12.4819898 C7.89228324,12.486482 7.87553528,12.491023 7.83080893,12.4985913 C7.81406097,12.5012768 7.79736183,12.5042554 7.78027207,12.5059155 C7.76757682,12.5071362 7.75483274,12.507185 7.701708,12.5098706 C7.68793854,12.5098706 7.67451087,12.5084545 7.62329041,12.5059155 C7.60624948,12.5042554 7.58969683,12.5013257 7.54511697,12.4943921 C7.52827135,12.4910718 7.51186518,12.4865797 7.46845719,12.4753004 C7.45278343,12.4705641 7.43764679,12.4648512 7.39365286,12.4486892 C7.37949278,12.4428299 7.3658698,12.4360428 7.32187587,12.4148027 C7.30864351,12.4077714 7.29604592,12.3998125 7.25385862,12.374129 C7.23974736,12.3647541 7.22641735,12.3543537 7.19013823,12.3270589 C7.16928872,12.3099204 7.14922046,12.291854 7.13017759,12.2728112 L0.236461248,5.37929014 C-0.0788204159,5.06361785 -0.0788204159,4.5522434 0.236461248,4.23657111 C0.552133535,3.92114296 1.06345916,3.92114296 1.37913145,4.23657111 Z" id="Down-Copy"></path>
            </g>
        </g>
    </g>
</svg>