<?xml version="1.0" encoding="UTF-8"?>
<svg width="24px" height="24px" viewBox="0 0 24 24" version="1.1" xmlns="http://www.w3.org/2000/svg" xmlns:xlink="http://www.w3.org/1999/xlink">
    <!-- Generator: Sketch 63.1 (92452) - https://sketch.com -->
    <title>icons/functional/edit/edit</title>
    <desc>Created with Sketch.</desc>
    <g id="icons/functional/edit/edit" stroke="none" stroke-width="1" fill="none" fill-rule="evenodd">
        <path d="M20.3026475,2.89860085 C19.1044067,1.70046638 17.1617596,1.70046638 15.9635188,2.89860085 L3.79946976,15.0615703 C3.71610695,15.1449257 3.65591522,15.2482546 3.62448773,15.3617031 L2.02488016,21.136131 C1.95909542,21.3728817 2.02594544,21.62641 2.19959588,21.8003113 C2.37351257,21.9739463 2.62706343,22.0407904 2.86383516,21.9752778 L8.63877551,20.3755459 C8.75223416,20.3441211 8.85557211,20.2839348 8.93893499,20.2005793 L21.1027176,8.03734359 C22.2990941,6.83841017 22.2990941,4.89753346 21.1027176,3.69859998 L20.3026475,2.89860085 Z M5.28508605,15.5047123 L15.2404194,5.5499961 L18.451087,8.76037877 L8.49548728,18.715095 L5.28508605,15.5047123 Z M4.64375153,16.7915285 L7.20882328,19.3566388 L3.66070928,20.3395939 L4.64375153,16.7915285 Z M20.1385852,7.0732967 L19.4154859,7.79633188 L16.2045519,4.58568292 L16.9279175,3.86264773 C17.5934886,3.19713579 18.6726777,3.19713579 19.3382487,3.86264773 L20.1385852,4.66264686 C20.8030908,5.32895776 20.8030908,6.40725217 20.1385852,7.0732967 L20.1385852,7.0732967 Z" id="Shape" fill="#FD4D00"></path>
    </g>
</svg>