<?xml version="1.0" encoding="UTF-8"?>
<svg width="18px" height="17px" viewBox="0 0 18 17" version="1.1" xmlns="http://www.w3.org/2000/svg" xmlns:xlink="http://www.w3.org/1999/xlink">
    <!-- Generator: Sketch 63.1 (92452) - https://sketch.com -->
    <title>icon/functional/edit copy 12</title>
    <desc>Created with Sketch.</desc>
    <g id="SP02_Profile-Page" stroke="none" stroke-width="1" fill="none" fill-rule="evenodd">
        <g id="SP2_ProfilePage_Empty" transform="translate(-1263.000000, -1062.000000)" fill="#EA5B25">
            <g id="icons/functional/edit/edit" transform="translate(1260.000000, 1059.000000)">
                <g id="edit-icon-copy-4" transform="translate(3.000000, 3.000000)">
                    <g id="Shape-2" fill-rule="nonzero">
                        <path d="M16.4723827,0.761235336 C15.393966,-0.253745112 13.6455837,-0.253745112 12.5671669,0.761235336 L1.61952279,11.0649004 C1.54449625,11.1355136 1.4903237,11.223047 1.46203896,11.3191531 L0.0223921472,16.2108673 C-0.0368141235,16.4114269 0.0233508916,16.6261994 0.179636291,16.773517 C0.336161315,16.9206091 0.564357085,16.9772351 0.777451648,16.9217371 L5.97489796,15.5665498 C6.07701074,15.5399288 6.1700149,15.488943 6.24504149,15.4183297 L17.1924459,5.11443906 C18.2691847,4.0987818 18.2691847,2.45459913 17.1924459,1.4389418 L16.4723827,0.761235336 Z M2.95657744,11.440301 L11.9163775,3.00732242 L14.8059783,5.72694675 L5.84593855,14.1599254 L2.95657744,11.440301 Z M2.37937638,12.5304068 L4.68794095,14.703399 L1.49463835,15.5360936 L2.37937638,12.5304068 Z M16.3247266,4.29776216 L15.6739373,4.91026985 L12.7840967,2.19041993 L13.4351258,1.57791224 C14.0341397,1.01413444 15.0054099,1.01413444 15.6044238,1.57791224 L16.3247266,2.25561871 C16.9227818,2.82007332 16.9227818,3.73353319 16.3247266,4.29776216 L16.3247266,4.29776216 Z" id="Shape"></path>
                    </g>
                </g>
            </g>
        </g>
    </g>
</svg>