<?xml version="1.0" encoding="UTF-8"?>
<svg width="60px" height="60px" viewBox="0 0 60 60" version="1.1" xmlns="http://www.w3.org/2000/svg" xmlns:xlink="http://www.w3.org/1999/xlink">
    <!-- Generator: Sketch 63.1 (92452) - https://sketch.com -->
    <title>icons/visual/step4_handshake</title>
    <desc>Created with Sketch.</desc>
    <g id="icons/visual/step4_handshake" stroke="none" stroke-width="1" fill="none" fill-rule="evenodd">
        <g id="019-handshake" fill="#FD4D00">
            <g id="Group" transform="translate(0.002695, 0.000000)">
                <path d="M39.3576563,19.0296094 L58.8233203,19.0342969 C59.4271797,19.0344063 59.9242599,19.4914406 59.9878535,20.0784067 L59.9947266,20.2060547 L59.9947266,27.6929297 C59.9947266,28.3399219 59.4701953,28.8646875 58.8229688,28.8646875 C58.2188906,28.8646875 57.7216938,28.4075583 57.6579903,27.8204839 L57.6510938,27.6928125 L57.6510938,21.3774609 L53.6265234,21.3765234 C53.6435547,21.4407422 53.6558984,21.506888 53.6622352,21.5747526 L53.6670703,21.6778125 L53.6670703,42.255 L57.6510938,42.255 L57.6510938,36.6766406 C57.6510938,36.0296484 58.1757422,35.5048828 58.8228516,35.5048828 C59.4268203,35.5048828 59.9242141,35.962012 59.9878489,36.5489911 L59.9947266,36.6766406 L59.9947266,43.4271094 C59.9947266,44.0309688 59.5376995,44.5283552 58.9505434,44.5919896 L58.8228516,44.5988672 L49.3135547,44.5988672 C49.1265234,45.2692969 48.7705078,45.8840625 48.2648438,46.3896094 C47.5464342,47.1075837 46.6082531,47.5262647 45.6021126,47.5824132 L45.3687891,47.5889063 L45.3469336,47.5884229 L45.3256641,47.5878516 C45.3359766,48.6503906 44.9373047,49.7160938 44.1283594,50.5248047 C43.4099498,51.242779 42.4717688,51.6614601 41.4656282,51.7176085 L41.2323047,51.7241016 C41.2175391,51.7241016 41.2033594,51.7231641 41.1891797,51.7230469 C41.1994922,52.7855859 40.8008203,53.8514063 39.991875,54.6601172 C39.2734654,55.3782003 38.3353854,55.7966871 37.3292593,55.8528072 L37.0959375,55.8592969 L37.0738037,55.8588135 L37.0525781,55.8582422 C37.0627734,56.9206641 36.6641016,57.9864844 35.8551563,58.7951953 C35.0565234,59.5934766 34.0078125,59.9925 32.9591016,59.9925 C32.0799609,59.9925 31.2012891,59.7110156 30.4695703,59.1500391 C29.8215234,59.6507493 29.0441829,59.9438149 28.2203108,59.9929614 L27.9718359,60.0003516 L27.737622,59.9938515 C26.7312006,59.9376425 25.7930273,59.5185184 25.0747266,58.8 C24.3011719,58.0262109 23.8753125,56.9975391 23.8754297,55.9033594 C23.8754297,55.8897656 23.87625,55.8762891 23.8763672,55.8626953 C23.8630078,55.8628125 23.8497656,55.8636328 23.8364063,55.8636328 C22.7415234,55.8635156 21.7129688,55.4373047 20.9394141,54.6633984 C20.1658594,53.8894922 19.7398828,52.8608203 19.7401172,51.7666406 C19.7401172,51.7530469 19.7409375,51.7396875 19.7410547,51.7260938 C19.7276953,51.7262109 19.7144531,51.7270313 19.7010938,51.7270313 L19.7005078,51.7270313 L19.4671125,51.7204878 C18.4606766,51.6641201 17.5224023,51.2451981 16.8041016,50.5266797 C16.0305469,49.7528906 15.6046875,48.7241016 15.6048047,47.6300391 C15.6048047,47.6157422 15.6057422,47.6016797 15.6058594,47.5875 C15.5926172,47.5876172 15.579375,47.5884375 15.5660156,47.5884375 C14.5167188,47.5884375 13.4675391,47.1888281 12.6689063,46.3900781 C12.2182471,45.9391113 11.895531,45.408382 11.699502,44.8429527 L11.6232422,44.5986328 L1.17175781,44.5986328 C0.567789063,44.5986328 0.0704973958,44.1416057 0.00687614583,43.5545449 L2.13162821e-14,43.426875 L2.13162821e-14,20.2013672 C2.13162821e-14,19.8907031 0.123398438,19.5925781 0.343242188,19.3728516 C0.531579241,19.1845145 0.77742905,19.066863 1.03953888,19.037092 L1.17175781,19.0296094 L24.3162891,19.0313672 C25.7585742,19.0314771 27.1199039,19.5582097 28.1807017,20.5203163 L28.3887891,20.7185156 L31.1963672,23.5266797 L33.0276563,21.673125 C34.6151087,20.0661685 36.7943017,19.1147478 39.0475271,19.0350532 L39.3551953,19.0296094 L39.3576563,19.0296094 Z M30.4538672,51.6697266 L30.2796648,51.678208 C29.9347627,51.712002 29.6113664,51.8459912 29.3435884,52.0659375 L29.2144922,52.1830078 L26.7324609,54.6641016 C26.4012891,54.9951563 26.2189453,55.4351953 26.2188281,55.9033594 C26.2187109,56.3715234 26.4009375,56.8116797 26.7319922,57.1427344 C27.0217676,57.4325098 27.3948047,57.6084283 27.7972481,57.6479588 L27.9713672,57.6564844 L28.1457603,57.648008 C28.4905758,57.6142332 28.8138938,57.4803127 29.0816512,57.2603856 L29.2107422,57.1433203 L29.6419922,56.7123047 L29.6419922,56.7123047 L31.6927734,54.6621094 C32.0238281,54.3310547 32.2062891,53.8910156 32.2064063,53.4228516 C32.2065088,53.0131055 32.0670044,52.6249823 31.8103459,52.312573 L31.6932422,52.1834766 L31.5641505,52.0662451 C31.2517621,51.8095386 30.8637158,51.6698291 30.4538672,51.6697266 Z M34.3168359,54.7896094 C34.1446708,55.2773772 33.8798653,55.7302758 33.53098,56.1263873 L33.3495703,56.3196094 L32.1951563,57.4736719 C32.8478906,57.7892578 33.6570703,57.6785156 34.1983594,57.1374609 C34.8397266,56.4963281 34.8792188,55.4775 34.3168359,54.7896094 Z M26.3187891,47.533125 L26.1443909,47.5416014 C25.7995562,47.5753761 25.4761695,47.7092967 25.2083929,47.9292238 L25.0792969,48.0462891 L22.5972656,50.5273828 C21.9135938,51.2105859 21.9134766,52.3226953 22.5967969,53.00625 C23.2400322,53.6494853 24.2628868,53.6875303 24.9507832,53.1200918 L25.0756641,53.0066016 L27.5576953,50.5255078 C28.2411328,49.8423047 28.24125,48.7301953 27.5580469,48.0466406 C27.2269922,47.7155859 26.7869531,47.533125 26.3187891,47.533125 Z M2.34351563,21.3730078 L2.34351563,42.2548828 L6.32765625,42.2548828 L6.32765625,29.1186328 C6.32765625,28.4716406 6.85230469,27.946875 7.49941406,27.946875 C8.10338281,27.946875 8.60067448,28.4039021 8.66429573,28.9909629 L8.67117188,29.1186328 L8.67117188,42.2551172 L11.6637891,42.2551172 C11.8314404,41.7240674 12.1087317,41.2204724 12.497233,40.7811518 L12.6705469,40.5969141 L15.1525781,38.1158203 C16.6967148,36.5720234 19.1765736,36.5212206 20.7826683,37.9623532 L20.945625,38.1167578 L21.1126392,38.2940807 C21.8091522,39.0781802 22.1518945,40.0676451 22.1419922,41.0541797 L22.1628516,41.0536084 L22.1628516,41.0536084 L22.1841211,41.053125 L22.4179248,41.0596684 C23.4243463,41.1160362 24.3625195,41.5349581 25.0808203,42.2534766 C25.8895313,43.0625391 26.2878516,44.1283594 26.2771875,45.1907813 C26.2911328,45.1906641 26.3049609,45.1897266 26.3189063,45.1897266 L26.3196094,45.1897266 L26.5529813,45.1962449 C27.4819125,45.2481767 28.352845,45.6090367 29.046301,46.2293805 L29.2158984,46.3898438 L29.3829127,46.5671666 C30.0794256,47.3512661 30.422168,48.340731 30.4122656,49.3272656 L30.4331396,49.3266504 L30.4331396,49.3266504 L30.4541016,49.3262109 L30.6851655,49.3326008 C31.6790625,49.3876405 32.6062919,49.7966602 33.3213281,50.4982031 L33.4139648,50.5666553 L33.4139648,50.5666553 L33.5009766,50.6453906 L35.8564453,53.0016797 C36.1461182,53.2913525 36.5192322,53.467348 36.9216964,53.5068208 L37.0958203,53.5153125 C37.5642188,53.5153125 38.0041406,53.3330859 38.3351953,53.0021484 C38.9785409,52.3591337 39.0164886,51.3361882 38.4490383,50.6481827 L38.3355469,50.5232813 L30.9260156,43.1129297 C30.4682813,42.6551953 30.4683984,41.9133984 30.9260156,41.4557813 C31.3510547,41.0310686 32.0210252,41.000631 32.4809606,41.3648436 L32.5831641,41.4558984 L39.9928125,48.8663672 C40.2825879,49.1561426 40.655625,49.3320612 41.0580684,49.3715916 L41.2321875,49.3801172 L41.4065071,49.3716357 C41.8088928,49.3322095 42.1820068,49.1564063 42.4716797,48.8668359 C43.114915,48.2238212 43.15296,47.2009795 42.5855215,46.5129862 L42.4720313,46.3880859 L35.0626172,38.9777344 C34.83375,38.7489844 34.719375,38.4491016 34.719375,38.1492188 C34.719375,37.8493359 34.83375,37.5494531 35.0626172,37.3207031 C35.4876563,36.8958817 36.1576268,36.8654363 36.6175622,37.2297421 L36.7197656,37.3208203 L44.1292969,44.7312891 C44.4190723,45.0210645 44.7921991,45.196983 45.1946649,45.2365134 L45.3687891,45.2450391 C45.8371875,45.2450391 46.2772266,45.0626953 46.6081641,44.731875 C46.9135547,44.4266016 47.0902734,44.0283984 47.1164063,43.6010156 C47.1078516,43.5439453 47.1019922,43.4860547 47.1019922,43.4266406 C47.1019922,43.3822266 47.1050391,43.3383984 47.1098438,43.2952734 C47.0723772,42.9579743 46.9395153,42.6418551 46.7234345,42.3795341 L46.6085156,42.2530078 L36.2466797,31.8902344 L32.3866406,34.2017578 C31.7098828,34.6069922 30.9566016,34.8048047 30.2084766,34.8048047 C29.1196875,34.8048047 28.0415625,34.3860938 27.2252344,33.5790234 C25.6163256,31.9881464 25.5496092,29.4171014 27.0362371,27.7455696 L27.1900781,27.5814844 L29.5492969,25.1935547 L26.7316406,22.3753125 C26.1402832,21.7839551 25.3701042,21.4360156 24.5430505,21.3820421 L24.3161719,21.3746484 L2.34351563,21.3730078 Z M22.1835938,43.3964063 L22.0091956,43.4048827 C21.6643609,43.4386574 21.3409742,43.572578 21.0731976,43.792505 L20.9441016,43.9095703 L18.4621875,46.3907813 C18.1311328,46.7218359 17.9486719,47.161875 17.9485546,47.6300391 C17.9484375,48.0983203 18.1306641,48.5383594 18.4617188,48.8694141 C18.7927734,49.2005859 19.2326953,49.3830469 19.7009766,49.3831641 L19.7012109,49.3831641 L19.8752628,49.3746874 C20.2201181,49.3409113 20.5435831,49.2069811 20.8114462,48.9869868 L20.9405859,48.8698828 L23.4226172,46.3887891 C24.0658525,45.7457744 24.1038975,44.7230365 23.536459,44.0350553 L23.4229688,43.9101563 L23.2938387,43.7929248 C22.9813733,43.5362183 22.5933398,43.3965088 22.1835938,43.3964063 Z M18.0480469,39.2607422 C17.6553223,39.2607422 17.2627771,39.3914667 16.9418523,39.6529942 L16.8089063,39.7730859 L14.326875,42.2541797 C13.9957031,42.5852344 13.8133594,43.0252734 13.8132421,43.4934375 C13.813125,43.9616016 13.9953516,44.4017578 14.3264063,44.7328125 C14.6161816,45.0225879 14.9892188,45.1985065 15.3916621,45.2380369 L15.5657813,45.2465625 C15.9755273,45.2465625 16.3637402,45.1070453 16.676172,44.8504637 L16.8052734,44.7333984 L19.2871875,42.2521875 C19.970625,41.5689844 19.9708594,40.4569922 19.2876563,39.7734375 C18.9459375,39.4317188 18.4969922,39.2607422 18.0480469,39.2607422 Z M39.3570703,21.373125 C37.7126302,21.373125 36.1062384,22.0060442 34.9029661,23.1188647 L34.6948828,23.3201953 L28.8571875,29.2289063 C28.1218359,29.9730469 28.1289844,31.1771484 28.8728906,31.9126172 C29.4505518,32.4839063 30.3215479,32.6205487 31.0408361,32.2683747 L31.1825391,32.1914063 L38.9076563,27.5653125 C39.05325,27.478125 39.2154938,27.4238625 39.3831675,27.405645 L39.5097656,27.3987891 L47.3937891,27.3987891 C48.0408984,27.3987891 48.5655469,27.9234375 48.5655469,28.5705469 C48.5655469,29.1744063 48.1086219,29.6717927 47.5214794,29.7354271 L47.3937891,29.7423047 L39.8337891,29.7423047 L38.3196094,30.6489844 L48.2658984,40.5960938 C48.6789258,41.0093262 48.9922723,41.4954126 49.1950257,42.0252271 L49.2751172,42.2548828 L51.3236719,42.2548828 L51.3236719,21.6778125 C51.3236719,21.608125 51.3303385,21.5401042 51.3423872,21.4739236 L51.3643359,21.3760547 L39.3570703,21.373125 Z M58.8230859,30.6418359 C59.1311719,30.6418359 59.4335156,30.7672266 59.6514844,30.9851953 C59.8694531,31.2031641 59.9948437,31.5055078 59.9948437,31.8135938 C59.9948437,32.1227344 59.8694531,32.4240234 59.6514844,32.641875 C59.4336328,32.8610156 59.1312891,32.9853516 58.8230859,32.9853516 C58.515,32.9853516 58.2126562,32.8610156 57.9946875,32.641875 C57.7767187,32.4241406 57.6513281,32.1229688 57.6513281,31.8135938 C57.6513281,31.5055078 57.7767187,31.2031641 57.9946875,30.9851953 C58.2125391,30.7671094 58.5148828,30.6418359 58.8230859,30.6418359 Z M7.49941406,23.5525781 C7.8075,23.5525781 8.10984375,23.6779688 8.3278125,23.8959375 C8.54578125,24.1139063 8.67117188,24.41625 8.67117188,24.7243359 C8.67117188,25.0324219 8.54578125,25.3347656 8.3278125,25.5526172 C8.10996094,25.7707031 7.80761719,25.8960938 7.49941406,25.8960938 C7.19132813,25.8960938 6.88898438,25.7705859 6.67101563,25.5526172 C6.45304688,25.3348828 6.32765625,25.0324219 6.32765625,24.7243359 C6.32765625,24.41625 6.45304688,24.1139063 6.67101563,23.8959375 C6.88886719,23.6778516 7.19121094,23.5525781 7.49941406,23.5525781 Z M38.4342188,3.38573614e-12 C40.3078906,3.38573614e-12 41.8437389,1.47361159 41.944047,3.32269464 L41.9492578,3.51527344 L41.9492578,12.1864453 C41.9492578,14.0601172 40.4757557,15.5961845 38.6265741,15.6965071 L38.4339844,15.7017188 L34.3494141,15.7017188 L30.8258203,19.2253125 C30.5971875,19.4540625 30.2970703,19.5685547 29.9973047,19.5685547 C29.7403627,19.5685547 29.4833347,19.484438 29.2710155,19.3163522 L29.1687891,19.2253125 L25.6451953,15.7017188 L21.560625,15.7017188 C19.6869531,15.7017188 18.1508858,14.2282167 18.0505632,12.3790351 L18.0453516,12.1864453 L18.0453516,3.51527344 C18.0453516,1.64160156 19.5188536,0.105534245 21.3680352,0.00521161459 L21.560625,3.38573614e-12 L38.4342188,3.38573614e-12 Z M38.4342188,2.34351563 L21.560625,2.34351563 C20.9576406,2.34351563 20.4594958,2.80135938 20.3957565,3.38776688 L20.3888672,3.51527344 L20.3888672,12.1864453 C20.3888672,12.7894297 20.8467109,13.2875745 21.4331184,13.3513139 L21.560625,13.3582031 L26.1305859,13.3582031 C26.3968694,13.3582031 26.6539405,13.4489493 26.8603251,13.6132469 L26.9591016,13.7014453 L29.9974219,16.7397656 L33.0357422,13.7014453 C33.2239788,13.5131083 33.4699004,13.3954568 33.7320327,13.3656857 L33.8642578,13.3582031 L38.4342188,13.3582031 C39.0372031,13.3582031 39.5353479,12.9002573 39.5990873,12.3139315 L39.6059766,12.1864453 L39.6059766,3.51527344 C39.6059766,2.86921875 39.0802734,2.34351563 38.4342188,2.34351563 Z M24.4900781,6.66972656 C24.7981641,6.66972656 25.1005078,6.79394531 25.3184766,7.01308594 C25.5364453,7.23105469 25.6618359,7.53210938 25.6618359,7.84148438 C25.6618359,8.14957031 25.5364453,8.45191406 25.3184766,8.66988281 C25.100625,8.88785156 24.7981641,9.01324219 24.4900781,9.01324219 C24.1819922,9.01324219 23.8796484,8.88785156 23.6616797,8.66988281 C23.4437109,8.45203125 23.3183203,8.1496875 23.3183203,7.84148438 C23.3183203,7.53234375 23.4437109,7.23105469 23.6616797,7.01308594 C23.8795313,6.79394531 24.1807031,6.66972656 24.4900781,6.66972656 Z M29.9974219,6.66972656 C30.3055078,6.66972656 30.6078516,6.79394531 30.8258203,7.01308594 C31.0437891,7.23105469 31.1691797,7.53210938 31.1691797,7.84148438 C31.1691797,8.14957031 31.0437891,8.45191406 30.8258203,8.66988281 C30.6079688,8.88785156 30.3055078,9.01324219 29.9974219,9.01324219 C29.6893359,9.01324219 29.3869922,8.88785156 29.1690234,8.66988281 C28.9510547,8.45203125 28.8256641,8.1496875 28.8256641,7.84148438 C28.8256641,7.53234375 28.9510547,7.23105469 29.1690234,7.01308594 C29.386875,6.79394531 29.6893359,6.66972656 29.9974219,6.66972656 Z M35.5047656,6.66972656 C35.8128516,6.66972656 36.1151953,6.79394531 36.3331641,7.01308594 C36.5511328,7.23105469 36.6765234,7.53210938 36.6765234,7.84148438 C36.6765234,8.14957031 36.5511328,8.45191406 36.3331641,8.66988281 C36.1153125,8.88785156 35.8129688,9.01324219 35.5047656,9.01324219 C35.1966797,9.01324219 34.8943359,8.88773438 34.6763672,8.66988281 C34.4583984,8.45203125 34.3330078,8.1496875 34.3330078,7.84148438 C34.3330078,7.53234375 34.4583984,7.23105469 34.6763672,7.01308594 C34.8942188,6.79394531 35.1965625,6.66972656 35.5047656,6.66972656 Z" id="Combined-Shape"></path>
            </g>
        </g>
    </g>
</svg>