<?xml version="1.0" encoding="UTF-8"?>
<svg width="80px" height="63px" viewBox="0 0 80 63" version="1.1" xmlns="http://www.w3.org/2000/svg" xmlns:xlink="http://www.w3.org/1999/xlink" style="background: #FFFFFF;">
    <!-- Generator: Sketch 63.1 (92452) - https://sketch.com -->
    <title>icons/visual/step4_handshake</title>
    <desc>Created with Sketch.</desc>
    <g id="icons/visual/step4_handshake" stroke="none" stroke-width="1" fill="none" fill-rule="evenodd">
        <rect fill="#FFFFFF" x="0" y="0" width="80" height="63"></rect>
        <g id="019-handshake" transform="translate(11.000000, 2.000000)" fill="#FD4D00">
            <path d="M38.7043457,18.7124492 L57.845582,18.7170586 C58.481791,18.7171738 58.9974649,19.2330781 58.9974649,19.8692871 L58.9974649,19.8692871 L58.9974649,27.2313809 C58.9974649,27.8675898 58.4816758,28.3836094 57.8452363,28.3836094 C57.2087969,28.3836094 56.6930078,27.8675898 56.6928926,27.2312656 L56.6928926,27.2312656 L56.6928926,21.0211699 L52.7353984,21.020248 C52.7605195,21.1149707 52.7752695,21.213957 52.7752695,21.3165156 L52.7752695,21.3165156 L52.7752695,41.55075 L56.6928926,41.55075 L56.6928926,36.0653633 C56.6928926,35.4291543 57.2087969,34.9131348 57.8451211,34.9131348 C58.4814453,34.9131348 58.9974649,35.4291543 58.9974649,36.0653633 L58.9974649,36.0653633 L58.9974649,42.7033242 C58.9974649,43.3395332 58.4815605,43.8555527 57.8451211,43.8555527 L57.8451211,43.8555527 L48.4943125,43.8555527 C48.3103984,44.5148086 47.9603164,45.1193281 47.4630801,45.6164492 C46.7023027,46.3767656 45.6908906,46.7957578 44.615293,46.7957578 L44.615293,46.7957578 L44.5938018,46.7952825 L44.5938018,46.7952825 L44.5728867,46.7947207 C44.5830273,47.8395508 44.191,48.8874922 43.3955371,49.6827246 C42.6347598,50.443041 41.6233477,50.8620332 40.54775,50.8620332 C40.5475195,50.8620332 40.5474043,50.8620332 40.5471738,50.8620332 L40.5053437,50.8609961 C40.5154844,51.9058262 40.123457,52.9538828 39.3279941,53.7491152 C38.5672168,54.5095469 37.5559199,54.9283086 36.4803223,54.9283086 L36.4803223,54.9283086 C36.465457,54.9283086 36.4516289,54.9273867 36.4376855,54.9272715 C36.4477109,55.9719863 36.0556836,57.020043 35.2602207,57.8152754 C34.4748984,58.600252 33.443666,58.992625 32.4124336,58.992625 C31.5479453,58.992625 30.683918,58.715832 29.9643945,58.1642051 C29.2634238,58.7058066 28.4086152,59.0003457 27.5082891,59.0003457 L27.5082891,59.0003457 C26.4315391,59.0003457 25.420127,58.5808926 24.6594648,57.82 C23.8988027,57.0591074 23.480041,56.0475801 23.4801562,54.9716367 C23.4801562,54.9582695 23.4809629,54.9450176 23.4810781,54.9316504 C23.4679414,54.9317656 23.4549199,54.9325723 23.4417832,54.9325723 L23.4414375,54.9325723 L23.2115881,54.9261625 C22.2219403,54.8708402 21.2994033,54.4589919 20.5930742,53.7523418 C19.8324121,52.991334 19.4135352,51.9798066 19.4137656,50.9038633 C19.4137656,50.8904961 19.4145723,50.8773594 19.4146875,50.8639922 C19.4015508,50.8641074 19.3885293,50.8649141 19.3753926,50.8649141 L19.3753926,50.8649141 L19.145311,50.8584797 C18.1556491,50.8030514 17.2330127,50.3911115 16.5266836,49.6845684 C15.7660215,48.9236758 15.3472598,47.9120332 15.347375,46.8362051 C15.347375,46.8221465 15.3482969,46.8083184 15.3484121,46.794375 C15.3353906,46.7944902 15.3223691,46.7952969 15.3092324,46.7952969 C14.2774238,46.7952969 13.2457305,46.4023477 12.4604082,45.6169102 C11.9539531,45.1101094 11.6118223,44.5008652 11.4321719,43.8553223 L11.4321719,43.8553223 L1.15487891,43.8553223 C0.518554687,43.8553223 0.00265039062,43.339418 0.00265039062,42.7030938 L0.00265039062,42.7030938 L0.00265039062,19.8646777 C0.00265039062,19.5591914 0.123992187,19.2660352 0.340171875,19.0499707 C0.556236328,18.8339063 0.849277344,18.7124492 1.15487891,18.7124492 L1.15487891,18.7124492 L23.913668,18.7141777 C25.4264648,18.714293 26.8486875,19.3036016 27.918293,20.373207 L27.918293,20.373207 L30.6790781,23.1345684 L32.4798457,21.3119063 C34.1117949,19.6599063 36.3797227,18.7124492 38.7019258,18.7124492 L38.7019258,18.7124492 L38.7043457,18.7124492 Z M29.9489531,50.8085645 L29.7776541,50.8169045 C29.3819748,50.8556737 29.0150793,51.0285469 28.7302344,51.313291 L28.7302344,51.313291 L26.2895703,53.7530332 C25.963918,54.0785703 25.7846133,54.5112754 25.784498,54.9716367 C25.7843828,55.431998 25.9635723,55.8648184 26.2891094,56.1903555 C26.6147617,56.5160078 27.0473516,56.6954277 27.5078281,56.695543 L27.5078281,56.695543 L27.6793147,56.6872078 C28.0748947,56.6484607 28.4417019,56.4756758 28.7265469,56.1909316 L28.7265469,56.1909316 L29.1489961,55.7685977 L29.1489961,55.7685977 L29.1498027,55.767791 L31.1672109,53.7510742 C31.492748,53.4255371 31.672168,52.992832 31.6722833,52.5324707 C31.6723984,52.0719941 31.493209,51.6392891 31.1676719,51.313752 L31.1676719,51.313752 L31.0407318,51.1984744 C30.7335498,50.9460463 30.3519709,50.8086653 29.9489531,50.8085645 L29.9489531,50.8085645 Z M33.7475391,53.8764492 C33.5500273,54.4360273 33.2285234,54.9489355 32.7963945,55.3809492 L32.7963945,55.3809492 L31.6612207,56.5157773 C32.3030762,56.8261035 33.0987695,56.717207 33.6310371,56.1851699 C34.2617148,55.5547227 34.3005488,54.552875 33.7475391,53.8764492 Z M25.882793,46.7409063 C25.8826777,46.7409063 25.8825625,46.7409063 25.8824473,46.7409063 L25.7113015,46.7492414 C25.3156994,46.7879885 24.948804,46.9607734 24.663959,47.2455176 L24.663959,47.2455176 L22.2232949,49.6852598 C21.5510176,50.3570762 21.5509023,51.4506504 22.222834,52.1228125 C22.8948809,52.7948594 23.9883398,52.7950898 24.6603867,52.1231582 L24.6603867,52.1231582 L27.1010508,49.683416 C27.7730977,49.0115996 27.7732129,47.9180254 27.1013965,47.2458633 C26.7758594,46.9203262 26.3431543,46.7409063 25.882793,46.7409063 Z M2.30710742,21.016791 L2.30710742,41.5506348 L6.2248457,41.5506348 L6.2248457,28.6333223 C6.2248457,27.9971133 6.74075,27.4810938 7.37707422,27.4810938 C8.01339844,27.4810938 8.52930273,27.996998 8.52930273,28.6333223 L8.52930273,28.6333223 L8.52930273,41.5508652 L11.472043,41.5508652 C11.6604512,40.9540664 11.9896758,40.3925293 12.4620215,39.9202988 L12.4620215,39.9202988 L14.9026855,37.4805566 C16.4734453,35.9101426 19.0288828,35.910834 20.5991816,37.4814785 L20.5991816,37.4814785 L20.7634123,37.655846 C21.4483167,38.4268772 21.7853467,39.399851 21.7756094,40.3699434 C21.7893223,40.3698281 21.8029199,40.3689063 21.8166328,40.3689063 C21.8169785,40.3689063 21.8170937,40.3689063 21.8174395,40.3689063 L22.0469432,40.3753406 C23.0365909,40.4307689 23.9591279,40.8427088 24.665457,41.549252 C25.4606895,42.3448301 25.8523711,43.3928867 25.8418848,44.4376016 C25.8555977,44.4374863 25.8691953,44.4365645 25.8829082,44.4365645 L25.8829082,44.4365645 L26.113082,44.4429742 C27.1026517,44.498296 28.0252881,44.9101366 28.7316172,45.6166797 L28.7316172,45.6166797 L28.8958478,45.7910472 C29.5807523,46.5620784 29.9177822,47.5350522 29.9080449,48.5051445 C29.9217578,48.5049141 29.9353555,48.5041074 29.9491836,48.5041074 C31.0122207,48.5043379 32.011418,48.9136504 32.768623,49.6565664 C32.8309648,49.698166 32.8903105,49.7462188 32.9452773,49.8013008 L32.9452773,49.8013008 L35.2614883,52.1183184 C35.5870254,52.4438555 36.0197305,52.6233906 36.480207,52.6233906 L36.480207,52.6233906 L36.6516164,52.6150555 C37.0472736,52.5763084 37.4140808,52.4035234 37.6989258,52.1187793 C38.3710879,51.4469629 38.3712031,50.3533887 37.6992715,49.6812266 L37.6992715,49.6812266 L30.4132324,42.3943809 C29.963127,41.9442754 29.9632422,41.2148418 30.4132324,40.7648516 C30.8633379,40.3150918 31.5927715,40.3149766 32.0427617,40.7649668 L32.0427617,40.7649668 L39.328916,48.0519277 C39.6545684,48.3775801 40.0871582,48.557 40.5476348,48.5571152 C40.5476348,48.5571152 40.54775,48.5571152 40.5478652,48.5571152 L40.719049,48.5487751 C41.1147283,48.510006 41.4816238,48.3371328 41.7664687,48.0523887 C42.4385156,47.3805723 42.4387461,46.2871133 41.7668145,45.6149512 L41.7668145,45.6149512 L34.4808906,38.3281055 C34.2558379,38.103168 34.1433691,37.8082832 34.1433691,37.5133984 C34.1433691,37.2185137 34.2558379,36.9236289 34.4808906,36.6986914 C34.9309961,36.2488164 35.6604297,36.2487012 36.1104199,36.6988066 L36.1104199,36.6988066 L43.396459,43.9857676 C43.7221113,44.3114199 44.1548164,44.4908398 44.615293,44.4909551 L44.615293,44.4909551 L44.786707,44.4826152 C45.1823847,44.4438476 45.5492676,44.2709871 45.8340117,43.9863438 C46.1343125,43.6861582 46.3080859,43.2945918 46.3337832,42.874332 C46.3253711,42.8182129 46.3196094,42.7612871 46.3196094,42.7028633 C46.3196094,42.6591895 46.3226055,42.6160918 46.3273301,42.5736855 C46.2843477,42.1867285 46.1136855,41.8281191 45.8343574,41.548791 L45.8343574,41.548791 L35.6452187,31.3587305 L31.8495137,33.6317285 C31.1840352,34.030209 30.4433086,34.2247246 29.7076523,34.2247246 C28.6370098,34.2247246 27.5768535,33.8129922 26.7741309,33.019373 C25.1393008,31.4028652 25.1237441,28.7571992 26.7395605,27.121793 L26.7395605,27.121793 L29.059459,24.7736621 L26.2887637,22.0023906 C25.6543984,21.3680254 24.8107676,21.0185195 23.9135527,21.0184043 L23.9135527,21.0184043 L2.30710742,21.016791 Z M21.8165176,42.6731328 L21.6450261,42.6814679 C21.249424,42.7202151 20.8825286,42.893 20.5976836,43.1777441 L20.5976836,43.1777441 L18.1571348,45.6176016 C17.8315977,45.9431387 17.6521777,46.3758438 17.6520624,46.8362051 C17.6519473,47.2966816 17.8311367,47.7293867 18.1566738,48.0549238 C18.4822109,48.3805762 18.9148008,48.5599961 19.3752773,48.5601113 L19.3752773,48.5601113 L19.5466588,48.551776 C19.9422845,48.5130273 20.3092808,48.3402297 20.5942266,48.0553848 L20.5942266,48.0553848 L23.0348906,45.6156426 C23.7069375,44.9438262 23.707168,43.8504824 23.0352363,43.1783203 L23.0352363,43.1783203 L22.9082584,43.0630427 C22.6010008,42.8106146 22.2194346,42.6732336 21.8165176,42.6731328 L21.8165176,42.6731328 Z M17.7498965,38.6063965 C17.3085488,38.6063965 16.8674316,38.774293 16.5314082,39.1102012 L16.5314082,39.1102012 L14.0907441,41.5499434 C13.7650918,41.8754805 13.5857871,42.3081855 13.5856718,42.7685469 C13.5855566,43.2289082 13.7647461,43.6617285 14.0902832,43.9872656 C14.4159355,44.312918 14.8485254,44.4923379 15.309002,44.4924531 L15.309002,44.4924531 L15.4804604,44.484118 C15.8760073,44.4453709 16.242991,44.2725859 16.5278359,43.9878418 L16.5278359,43.9878418 L18.9683848,41.5479844 C19.6404316,40.876168 19.6406621,39.782709 18.9688457,39.1105469 C18.6328223,38.7745234 18.1913594,38.6063965 17.7498965,38.6063965 Z M38.7037695,21.0169063 C36.9916172,21.0169063 35.3214102,21.7146504 34.1192852,22.9315254 L34.1192852,22.9315254 L28.3788848,28.7417578 C27.6557891,29.4734961 27.6628184,30.6575293 28.3943262,31.3807402 C29.0002285,31.979959 29.9343184,32.0928887 30.6654805,31.6548828 L30.6654805,31.6548828 L38.2618457,27.1058906 C38.4408047,26.9987227 38.6453457,26.9421426 38.8539199,26.9421426 L38.8539199,26.9421426 L46.606543,26.9421426 C47.2428672,26.9421426 47.7587715,27.4580469 47.7587715,28.0943711 C47.7587715,28.7305801 47.2429824,29.2465996 46.606543,29.2465996 L46.606543,29.2465996 L39.172543,29.2465996 L37.6835996,30.138168 L47.4641172,39.9194922 C47.9282812,40.3838867 48.2644199,40.9418516 48.4565156,41.5506348 L48.4565156,41.5506348 L50.4709277,41.5506348 L50.4709277,21.3165156 C50.4709277,21.2137266 50.4856777,21.114625 50.5109141,21.0197871 L50.5109141,21.0197871 L38.7037695,21.0169063 L38.7037695,21.0169063 Z M57.8453516,30.1311387 C58.1483027,30.1311387 58.4456074,30.2544395 58.6599434,30.4687754 C58.8742793,30.6831113 58.9975801,30.980416 58.9975801,31.2833672 C58.9975801,31.5873555 58.8742793,31.883623 58.6599434,32.0978438 C58.4457227,32.313332 58.148418,32.4355957 57.8453516,32.4355957 C57.5424004,32.4355957 57.2450957,32.313332 57.0307598,32.0978438 C56.8164238,31.8837383 56.693123,31.5875859 56.693123,31.2833672 C56.693123,30.980416 56.8164238,30.6831113 57.0307598,30.4687754 C57.2449805,30.2543242 57.5422852,30.1311387 57.8453516,30.1311387 Z M7.37707422,23.1600352 C7.68002539,23.1600352 7.97733008,23.2833359 8.19166602,23.4976719 C8.40600195,23.7120078 8.52930273,24.0093125 8.52930273,24.3122637 C8.52930273,24.6152148 8.40600195,24.9125195 8.19166602,25.1267402 C7.97744531,25.3411914 7.68014062,25.4644922 7.37707422,25.4644922 C7.07412305,25.4644922 6.77681836,25.3410762 6.56248242,25.1267402 C6.34814648,24.9126348 6.2248457,24.6152148 6.2248457,24.3122637 C6.2248457,24.0093125 6.34814648,23.7120078 6.56248242,23.4976719 C6.77670312,23.2832207 7.07400781,23.1600352 7.37707422,23.1600352 Z M37.7962988,2.16715534e-12 C39.7022754,2.16715534e-12 41.2527539,1.55070898 41.2527539,3.45668555 L41.2527539,3.45668555 L41.2527539,11.9833379 C41.2527539,13.8893145 39.7021602,15.4400234 37.7960684,15.4400234 L37.7960684,15.4400234 L33.7795742,15.4400234 L30.314707,18.9048906 C30.0898848,19.1298281 29.7947695,19.2424121 29.5,19.2424121 C29.2052305,19.2424121 28.9103457,19.1298281 28.685293,18.9048906 L28.685293,18.9048906 L25.2204258,15.4400234 L21.2039316,15.4400234 C19.2979551,15.4400234 17.7472461,13.8894297 17.7472461,11.9833379 L17.7472461,11.9833379 L17.7472461,3.45668555 C17.7472461,1.55070898 19.2978398,2.16715534e-12 21.2039316,2.16715534e-12 L21.2039316,2.16715534e-12 Z M37.7962988,2.30445703 L21.2039316,2.30445703 C20.5686445,2.30445703 20.0517031,2.8212832 20.0517031,3.45668555 L20.0517031,3.45668555 L20.0517031,11.9833379 C20.0517031,12.618625 20.5685293,13.1355664 21.2039316,13.1355664 L21.2039316,13.1355664 L25.6977266,13.1355664 C26.0032129,13.1355664 26.2963691,13.2570234 26.5124336,13.4730879 L26.5124336,13.4730879 L29.5001152,16.4607695 L32.4877969,13.4730879 C32.7037461,13.2570234 32.9969023,13.1355664 33.3025039,13.1355664 L33.3025039,13.1355664 L37.7962988,13.1355664 C38.4315859,13.1355664 38.9485273,12.618625 38.9485273,11.9833379 L38.9485273,11.9833379 L38.9485273,3.45668555 C38.9485273,2.82139844 38.4315859,2.30445703 37.7962988,2.30445703 L37.7962988,2.30445703 Z M24.0845605,6.55856445 C24.3875117,6.55856445 24.6848164,6.68071289 24.8991523,6.89620117 C25.1134883,7.11053711 25.2367891,7.40657422 25.2367891,7.71079297 C25.2367891,8.01374414 25.1134883,8.31104883 24.8991523,8.52538477 C24.6849316,8.7397207 24.3875117,8.86302148 24.0845605,8.86302148 C23.7816094,8.86302148 23.4843047,8.7397207 23.2699687,8.52538477 C23.0556328,8.31116406 22.932332,8.01385938 22.932332,7.71079297 C22.932332,7.40680469 23.0556328,7.11053711 23.2699687,6.89620117 C23.4841895,6.68071289 23.7803418,6.55856445 24.0845605,6.55856445 Z M29.5001152,6.55856445 C29.8030664,6.55856445 30.1003711,6.68071289 30.314707,6.89620117 C30.529043,7.11053711 30.6523437,7.40657422 30.6523437,7.71079297 C30.6523437,8.01374414 30.529043,8.31104883 30.314707,8.52538477 C30.1004863,8.7397207 29.8030664,8.86302148 29.5001152,8.86302148 C29.1971641,8.86302148 28.8998594,8.7397207 28.6855234,8.52538477 C28.4711875,8.31116406 28.3478867,8.01385938 28.3478867,7.71079297 C28.3478867,7.40680469 28.4711875,7.11053711 28.6855234,6.89620117 C28.8997441,6.68071289 29.1971641,6.55856445 29.5001152,6.55856445 Z M34.9156699,6.55856445 C35.2186211,6.55856445 35.5159258,6.68071289 35.7302617,6.89620117 C35.9445977,7.11053711 36.0678984,7.40657422 36.0678984,7.71079297 C36.0678984,8.01374414 35.9445977,8.31104883 35.7302617,8.52538477 C35.516041,8.7397207 35.2187363,8.86302148 34.9156699,8.86302148 C34.6127187,8.86302148 34.3154141,8.73960547 34.1010781,8.52538477 C33.8867422,8.31116406 33.7634414,8.01385938 33.7634414,7.71079297 C33.7634414,7.40680469 33.8867422,7.11053711 34.1010781,6.89620117 C34.3152988,6.68071289 34.6126035,6.55856445 34.9156699,6.55856445 Z" id="Combined-Shape"></path>
        </g>
    </g>
</svg>