<?xml version="1.0" encoding="UTF-8"?>
<svg width="1264px" height="599px" viewBox="0 0 1264 599" version="1.1" xmlns="http://www.w3.org/2000/svg" xmlns:xlink="http://www.w3.org/1999/xlink">
    <!-- Generator: Sketch 61.2 (89653) - https://sketch.com -->
    <title>header</title>
    <desc>Created with Sketch.</desc>
    <defs>
        <polygon id="path-1" points="0 532.111614 502.323834 532.111614 502.323834 -6.58599612e-14 0 -6.58599612e-14"></polygon>
    </defs>
    <g id="Prototyp-Mentee-+-Mentor-|-Design-" stroke="none" stroke-width="1" fill="none" fill-rule="evenodd">
        <g id="Landingpage_1" transform="translate(-84.000000, -96.000000)">
            <g id="header" transform="translate(84.000000, 96.000000)">
                <g id="Illustration/welcome" transform="translate(699.000000, 0.000000)" fill-rule="evenodd" stroke-width="1">
                    <g id="Group-180">
                        <path d="M165.136527,314.085848 L174.718634,314.085848 C210.382106,314.085848 223.157861,301.864138 223.157861,267.858041 C223.157861,235.445628 210.914284,222.162041 179.508816,222.162041 L165.136527,222.162041 L165.136527,314.085848 Z M285.43662,339.058759 C334.940203,350.748662 350.909027,379.441324 353.038319,430.451338 C353.570497,441.077628 356.764726,446.922869 366.345672,446.922869 L371.669193,446.922869 L371.669193,510.684662 L271.596509,510.684662 C227.415286,510.684662 209.849928,460.206455 205.059165,409.728248 C202.929873,384.754759 198.13911,367.220193 170.460049,367.220193 L165.136527,367.220193 L165.136527,425.668552 C165.136527,441.608855 168.862934,446.922869 179.508816,446.922869 L192.816169,446.922869 L192.816169,510.684662 L1.72072832,510.684662 L1.72072832,446.922869 L15.0286613,446.922869 C25.673963,446.922869 29.4003699,441.608855 29.4003699,425.668552 L29.4003699,242.885131 C29.4003699,226.944828 25.673963,221.630814 15.0286613,221.630814 L1.72072832,221.630814 L1.72072832,157.869021 L221.028569,157.869021 C306.196786,157.869021 355.69979,185.499228 355.69979,257.7624 C355.69979,301.33291 330.14944,326.838207 285.43662,339.058759 L285.43662,339.058759 Z" id="Fill-1" fill="#FAD7CA"></path>
                        <path d="M177.968169,314.297412 L187.816075,314.297412 C224.467298,314.297412 237.597064,301.737385 237.597064,266.78875 C237.597064,233.477826 225.014565,219.826378 192.738576,219.826378 L177.968169,219.826378 L177.968169,314.297412 Z M301.601774,339.962599 C352.477298,351.976337 368.889506,381.464392 371.077413,433.887343 C371.6241,444.808502 374.907122,450.81595 384.753286,450.81595 L390.224216,450.81595 L390.224216,516.344061 L287.378634,516.344061 C241.972879,516.344061 223.920611,464.467399 218.997529,412.590157 C216.809041,386.924971 211.885379,368.904364 183.439099,368.904364 L177.968169,368.904364 L177.968169,428.972474 C177.968169,445.354792 181.797878,450.81595 192.738576,450.81595 L206.41503,450.81595 L206.41503,516.344061 L10.0239244,516.344061 L10.0239244,450.81595 L23.7003776,450.81595 C34.6410758,450.81595 38.4702042,445.354792 38.4702042,428.972474 L38.4702042,241.122985 C38.4702042,224.741247 34.6410758,219.280088 23.7003776,219.280088 L10.0239244,219.280088 L10.0239244,153.751399 L235.409157,153.751399 C322.937064,153.751399 373.812588,182.146874 373.812588,256.413302 C373.812588,301.191095 347.554216,327.40315 301.601774,339.962599 Z" id="Stroke-3" stroke="#000000" stroke-width="2.4" stroke-linecap="round" stroke-linejoin="round"></path>
                        <mask id="mask-2" fill="white">
                            <use xlink:href="#path-1"></use>
                        </mask>
                        <g id="Clip-6"></g>
                        <polygon id="Fill-5" fill="#FFFFFF" mask="url(#mask-2)" points="205.775894 157.499421 213.318081 157.499421 213.318081 149.970703 205.775894 149.970703"></polygon>
                        <path d="M248.262098,46.1629821 C246.572708,45.031589 245.243714,43.4408028 244.289043,41.6478372 L237.883756,29.6144028 L234.7789,30.1323062 L243.117323,54.5363338 C243.648921,56.0923614 245.184519,57.0563338 246.825159,56.9120855 C249.748946,56.655451 252.600771,55.7899614 255.369025,54.2188717 C256.887793,53.3562786 257.555191,51.5175476 256.934801,49.886789 L256.184993,47.9136579 C253.381337,48.36552 250.660091,47.7688303 248.262098,46.1629821" id="Fill-7" fill="#000000" mask="url(#mask-2)"></path>
                        <path d="M248.262098,46.1629821 C246.572708,45.031589 245.243714,43.4408028 244.289043,41.6478372 L237.883756,29.6144028 L234.7789,30.1323062 L243.117323,54.5363338 C243.648921,56.0923614 245.184519,57.0563338 246.825159,56.9120855 C249.748946,56.655451 252.600771,55.7899614 255.369025,54.2188717 C256.887793,53.3562786 257.555191,51.5175476 256.934801,49.886789 L256.184993,47.9136579 C253.381337,48.36552 250.660091,47.7688303 248.262098,46.1629821 Z" id="Stroke-8" stroke="#000000" stroke-width="2.4" stroke-linecap="round" stroke-linejoin="round" mask="url(#mask-2)"></path>
                        <polygon id="Fill-9" fill="#58ADC4" mask="url(#mask-2)" points="201.718225 114.813807 190.95047 94.3131724 227.223887 91.4502207 236.256405 113.151186"></polygon>
                        <g id="Group-12" mask="url(#mask-2)">
                            <g transform="translate(207.764162, 205.380579)">
                                <path d="M10.1731316,0.080582069 L3.55601711,10.4328579 C2.12081942,12.6776855 1.0570437,15.1478648 0.501651792,17.7524441 C-0.852297341,24.1011062 3.77887029,23.5420717 9.51443792,16.2485545 C13.7248541,11.6453545 16.2354345,6.17029241 17.54992,0.080582069" id="Fill-10" stroke="none" fill="#FFFFFF" fill-rule="evenodd"></path>
                                <path d="M10.1731316,0.080582069 L3.55601711,10.4328579 C2.12081942,12.6776855 1.0570437,15.1478648 0.501651792,17.7524441 C-0.852297341,24.1011062 3.77887029,23.5420717 9.51443792,16.2485545 C13.7248541,11.6453545 16.2354345,6.17029241 17.54992,0.080582069" id="Stroke-11" stroke="#000000" stroke-width="2.4" fill="none" stroke-linecap="round" stroke-linejoin="round"></path>
                            </g>
                        </g>
                        <path d="M210.655218,216.920094 C211.229181,217.079983 218.610031,220.072121 218.610031,220.072121" id="Stroke-13" stroke="#000000" stroke-width="2.4" stroke-linecap="round" stroke-linejoin="round" mask="url(#mask-2)"></path>
                        <path d="M208.265814,223.132386 C206.911865,229.480469 211.543032,228.922014 217.2786,221.627917 C217.743458,221.119862 218.183941,220.599641 218.607594,220.070731 C218.561747,220.052193 211.244154,217.085545 210.657423,216.919862 C209.558246,218.861131 208.731832,220.948386 208.265814,223.132386" id="Fill-14" fill="#000000" mask="url(#mask-2)"></path>
                        <g id="Group-17" mask="url(#mask-2)">
                            <g transform="translate(179.327168, 175.256441)">
                                <path d="M14.5795889,0.063897931 L3.85361896,10.8454428 C-2.55747237,17.4959255 0.585686012,22.1385186 6.36303861,20.5975531 C8.90902012,19.9186014 11.070812,18.2345462 12.5216791,16.0378014 L21.4625022,2.5039531" id="Fill-15" stroke="none" fill="#FFFFFF" fill-rule="evenodd"></path>
                                <path d="M14.5795889,0.063897931 L3.85361896,10.8454428 C-2.55747237,17.4959255 0.585686012,22.1385186 6.36303861,20.5975531 C8.90902012,19.9186014 11.070812,18.2345462 12.5216791,16.0378014 L21.4625022,2.5039531" id="Stroke-16" stroke="#000000" stroke-width="2.4" fill="none" stroke-linecap="round" stroke-linejoin="round"></path>
                            </g>
                        </g>
                        <path d="M183.180554,186.101768 C184.609368,189.256113 186.952228,191.643451 190.209135,193.264361" id="Stroke-18" stroke="#000000" stroke-width="2.4" stroke-linecap="round" stroke-linejoin="round" mask="url(#mask-2)"></path>
                        <path d="M183.180554,186.101768 C176.769463,192.752251 179.912622,197.395423 185.689974,195.853879 C187.403158,195.397382 188.935854,194.477437 190.202171,193.260306 C186.948166,191.639975 184.608208,189.253796 183.180554,186.101768" id="Fill-19" fill="#000000" mask="url(#mask-2)"></path>
                        <path d="M299.793413,4.77710897 C299.793413,6.77572966 298.170764,8.39548138 296.168567,8.39548138 C294.166951,8.39548138 292.543721,6.77572966 292.543721,4.77710897 C292.543721,2.77848828 294.166951,1.15873655 296.168567,1.15873655 C298.170764,1.15873655 299.793413,2.77848828 299.793413,4.77710897 Z" id="Stroke-20" stroke="#58ADC4" stroke-width="2.4" stroke-linecap="round" stroke-linejoin="round" mask="url(#mask-2)"></path>
                        <path d="M237.883872,29.3550455 L244.28916,41.3879007 C245.24383,43.1814455 246.572824,44.772811 248.262214,45.9036248 C253.812071,49.62048 261.095423,47.9445352 267.115941,40.3254455" id="Stroke-21" stroke="#000000" stroke-width="2.4" stroke-linecap="round" stroke-linejoin="round" mask="url(#mask-2)"></path>
                        <path d="M256.676024,20.2032166 C262.748193,27.3119338 266.618526,36.8682372 269.154641,47.9093131 C269.780836,50.6338097 272.795737,52.0525407 275.285425,50.7722648 L279.566644,48.5703062 C281.455092,47.5999614 282.608822,45.1152993 282.17008,43.0413683 C280.341407,34.39632 276.36371,25.0184441 271.206167,15.2373683 C265.786308,4.95808552 253.181756,0.441782069 242.726228,5.54087172 C234.906634,9.35447172 229.660299,17.8095062 233.145862,30.0265821 C241.173219,29.4837683 248.996295,25.9007338 256.676024,20.2032166" id="Fill-22" fill="#000000" mask="url(#mask-2)"></path>
                        <path d="M256.676024,20.2032166 C262.748193,27.3119338 266.618526,36.8682372 269.154641,47.9093131 C269.780836,50.6338097 272.795737,52.0525407 275.285425,50.7722648 L279.566644,48.5703062 C281.455092,47.5999614 282.608822,45.1152993 282.17008,43.0413683 C280.341407,34.39632 276.36371,25.0184441 271.206167,15.2373683 C265.786308,4.95808552 253.181756,0.441782069 242.726228,5.54087172 C234.906634,9.35447172 229.660299,17.8095062 233.145862,30.0265821 C241.173219,29.4837683 248.996295,25.9007338 256.676024,20.2032166 Z" id="Stroke-23" stroke="#000000" stroke-width="2.4" stroke-linecap="round" stroke-linejoin="round" mask="url(#mask-2)"></path>
                        <line x1="253.412676" y1="29.2240634" x2="255.291258" y2="28.1048359" id="Stroke-24" stroke="#000000" stroke-width="2.4" stroke-linecap="round" stroke-linejoin="round" mask="url(#mask-2)"></line>
                        <line x1="243.846645" y1="34.2079283" x2="245.228451" y2="33.3853076" id="Stroke-25" stroke="#000000" stroke-width="2.4" stroke-linecap="round" stroke-linejoin="round" mask="url(#mask-2)"></line>
                        <path d="M260.192113,33.9445738 C260.467198,36.1865048 260.085329,38.3496497 257.989117,39.5204359" id="Stroke-26" stroke="#000000" stroke-width="2.4" stroke-linecap="round" stroke-linejoin="round" mask="url(#mask-2)"></path>
                        <polyline id="Stroke-27" stroke="#000000" stroke-width="2.4" stroke-linecap="round" stroke-linejoin="round" mask="url(#mask-2)" points="247.28224 29.4351062 251.510067 38.454389 254.352606 35.9013683"></polyline>
                        <path d="M257.081222,51.8887697 C261.533643,53.7807972 267.609294,52.7310869 270.24697,49.2326317" id="Stroke-28" stroke="#000000" stroke-width="2.4" stroke-linecap="round" stroke-linejoin="round" mask="url(#mask-2)"></path>
                        <path d="M264.484649,52.5523697 C265.868195,62.7181076 257.165895,65.1170317 246.824114,52.0251972" id="Stroke-29" stroke="#000000" stroke-width="2.4" stroke-linecap="round" stroke-linejoin="round" mask="url(#mask-2)"></path>
                        <path d="M264.484649,53.4405683 C270.396061,62.8248166 280.192316,58.7881821 279.679869,40.7762648" id="Stroke-30" stroke="#000000" stroke-width="2.4" stroke-linecap="round" stroke-linejoin="round" mask="url(#mask-2)"></path>
                        <path d="M282.262877,45.2662676 C332.830817,59.780309 315.745987,148.557302 262.553719,110.09573 C261.463247,107.313302 265.462417,102.596557 268.733832,103.564006 C286.249279,115.511702 305.931742,95.5816883 286.302671,76.1087503" id="Stroke-31" stroke="#000000" stroke-width="2.4" stroke-linecap="round" stroke-linejoin="round" mask="url(#mask-2)"></path>
                        <path d="M242.826453,53.6838207 C231.267686,60.5057793 224.507806,72.8427724 226.536118,86.0267172" id="Stroke-32" stroke="#000000" stroke-width="2.4" stroke-linecap="round" stroke-linejoin="round" mask="url(#mask-2)"></path>
                        <polygon id="Stroke-33" stroke="#000000" stroke-width="2.4" stroke-linecap="round" stroke-linejoin="round" mask="url(#mask-2)" points="212.027854 117.594381 197.14486 89.2585738 247.282182 85.3007255 259.767183 115.296257"></polygon>
                        <path d="M237.109167,75.7456966 C238.554811,79.6606759 239.916304,83.3479862 240.825708,85.8106345" id="Stroke-34" stroke="#000000" stroke-width="2.4" stroke-linecap="round" stroke-linejoin="round" mask="url(#mask-2)"></path>
                        <path d="M267.886816,103.438874 C262.370619,100.29264 258.143373,98.991509 253.755371,100.852833" id="Stroke-35" stroke="#000000" stroke-width="2.4" stroke-linecap="round" stroke-linejoin="round" mask="url(#mask-2)"></path>
                        <path d="M258.665279,112.648466 C258.66702,112.652516 262.553603,110.09544 262.553603,110.09544" id="Stroke-36" stroke="#000000" stroke-width="2.4" stroke-linecap="round" stroke-linejoin="round" mask="url(#mask-2)"></path>
                        <line x1="285.951213" y1="96.8849048" x2="291.577676" y2="101.447553" id="Stroke-37" stroke="#000000" stroke-width="2.4" stroke-linecap="round" stroke-linejoin="round" mask="url(#mask-2)"></line>
                        <line x1="290.171785" y1="94.8403448" x2="293.723508" y2="97.3852552" id="Stroke-38" stroke="#000000" stroke-width="2.4" stroke-linecap="round" stroke-linejoin="round" mask="url(#mask-2)"></line>
                        <line x1="284.709503" y1="101.716527" x2="288.3181" y2="104.547037" id="Stroke-39" stroke="#000000" stroke-width="2.4" stroke-linecap="round" stroke-linejoin="round" mask="url(#mask-2)"></line>
                        <path d="M225.768029,137.605498 C225.592764,137.524974 225.4175,137.445608 225.241655,137.366822 C221.879125,135.870463 217.818438,135.174132 214.430954,136.989112 C212.11479,138.230574 210.4254,140.423263 209.298367,142.749194 C208.007095,145.411705 207.518443,148.057415 207.332152,150.899512 C206.583504,162.377967 209.435329,168.294463 201.360963,177.963153 L193.207671,175.072394 C192.640092,150.533967 200.730707,131.845994 215.179601,121.805388 C221.963856,115.236588 245.594418,111.922932 266.220524,116.026188 C284.161366,119.595898 297.380505,125.911539 294.012172,141.43416 C290.907897,155.735594 274.283863,154.562491 256.569937,149.999263 C249.169354,148.092174 241.908635,145.585498 234.991481,142.330932 C231.869796,140.862381 228.900741,139.051457 225.768029,137.605498" id="Fill-40" fill="#000000" mask="url(#mask-2)"></path>
                        <path d="M225.768029,137.605498 C225.592764,137.524974 225.4175,137.445608 225.241655,137.366822 C221.879125,135.870463 217.818438,135.174132 214.430954,136.989112 C212.11479,138.230574 210.4254,140.423263 209.298367,142.749194 C208.007095,145.411705 207.518443,148.057415 207.332152,150.899512 C206.583504,162.377967 209.435329,168.294463 201.360963,177.963153 L193.207671,175.072394 C192.640092,150.533967 200.730707,131.845994 215.179601,121.805388 C221.963856,115.236588 245.594418,111.922932 266.220524,116.026188 C284.161366,119.595898 297.380505,125.911539 294.012172,141.43416 C290.907897,155.735594 274.283863,154.562491 256.569937,149.999263 C249.169354,148.092174 241.908635,145.585498 234.991481,142.330932 C231.869796,140.862381 228.900741,139.051457 225.768029,137.605498 Z" id="Stroke-41" stroke="#000000" stroke-width="2.4" stroke-linecap="round" stroke-linejoin="round" mask="url(#mask-2)"></path>
                        <path d="M225.314082,205.461161 C229.099104,200.422899 237.252396,164.283203 232.302618,154.400748 L261.130186,154.400748 C249.726951,152.259617 239.305083,149.113382 230.555194,144.226899 C218.757904,136.52323 210.623182,136.81752 211.337009,156.435286 C211.283037,162.572499 210.68644,168.400941 209.298251,173.778679 C210.160646,186.164334 212.720556,197.013658 217.937293,205.461161 L225.314082,205.461161 Z" id="Fill-42" fill="#000000" mask="url(#mask-2)"></path>
                        <path d="M225.314082,205.461161 C229.099104,200.422899 237.252396,164.283203 232.302618,154.400748 L261.130186,154.400748 C249.726951,152.259617 239.305083,149.113382 230.555194,144.226899 C218.757904,136.52323 210.623182,136.81752 211.337009,156.435286 C211.283037,162.572499 210.68644,168.400941 209.298251,173.778679 C210.160646,186.164334 212.720556,197.013658 217.937293,205.461161 L225.314082,205.461161 Z" id="Stroke-43" stroke="#000000" stroke-width="2.4" stroke-linecap="round" stroke-linejoin="round" mask="url(#mask-2)"></path>
                        <polyline id="Stroke-44" stroke="#000000" stroke-width="2.4" stroke-linecap="round" stroke-linejoin="round" mask="url(#mask-2)" points="212.027854 117.594381 212.027854 121.843622 215.179717 121.843622"></polyline>
                        <line x1="294.732383" y1="118.395741" x2="294.17467" y2="136.248348" id="Stroke-45" stroke="#000000" stroke-width="2.4" stroke-linecap="round" stroke-linejoin="round" mask="url(#mask-2)"></line>
                        <line x1="214.244372" y1="15.8060193" x2="219.643339" y2="25.2696331" id="Stroke-46" stroke="#000000" stroke-width="2.4" stroke-linecap="round" stroke-linejoin="round" mask="url(#mask-2)"></line>
                        <line x1="318.380355" y1="27.7987283" x2="316.405435" y2="39.8408524" id="Stroke-47" stroke="#000000" stroke-width="2.4" stroke-linecap="round" stroke-linejoin="round" mask="url(#mask-2)"></line>
                        <path d="M302.330748,24.2728138 C302.330748,24.8231586 301.8833,25.2698069 301.331391,25.2698069 C300.780061,25.2698069 300.333194,24.8231586 300.333194,24.2728138 C300.333194,23.7218897 300.780061,23.2758207 301.331391,23.2758207 C301.8833,23.2758207 302.330748,23.7218897 302.330748,24.2728138" id="Fill-48" fill="#000000" mask="url(#mask-2)"></path>
                        <path d="M294.722749,26.2667421 C294.722749,26.8176662 294.275302,27.2637352 293.723392,27.2637352 C293.172062,27.2637352 292.725195,26.8176662 292.725195,26.2667421 C292.725195,25.7163972 293.172062,25.269749 293.723392,25.269749 C294.275302,25.269749 294.722749,25.7163972 294.722749,26.2667421" id="Fill-49" fill="#000000" mask="url(#mask-2)"></path>
                        <polyline id="Stroke-50" stroke="#EA5B25" stroke-width="2.4" stroke-linecap="round" stroke-linejoin="round" mask="url(#mask-2)" points="215.641441 64.5031945 208.484024 59.9631393 213.031622 52.8185048"></polyline>
                        <path d="M297.329203,45.2662676 C324.564299,63.459509 326.066817,109.076723 300.609323,121.429937" id="Stroke-51" stroke="#58ADC4" stroke-width="4.8" stroke-linecap="round" stroke-linejoin="round" mask="url(#mask-2)"></path>
                        <path d="M100.258395,348.718874 C98.4842751,358.054461 98.248074,367.804833 95.0230867,371.955012 C75.760215,373.29264 58.0375838,372.806019 44.1498844,367.777026 C42.7634358,363.555592 42.2916139,358.891564 42.3896925,353.951785 L42.4175491,353.949468 C21.9167977,351.369219 11.7021133,326.729412 29.1496601,301.54853 C37.3453179,290.579288 47.7677665,287.711123 60.4593711,280.309274 L60.4593711,270.339923 L60.4645942,270.340502 C56.597163,267.778792 53.7795792,263.217881 53.7795792,256.964806 L53.7795792,241.888254 C54.2305087,231.258488 75.7596347,229.953302 82.0865757,238.904226 C83.0598173,240.280668 83.4840509,241.970516 83.3639191,243.651095 L82.4138913,256.964806 C81.8555977,265.419261 77.6916092,270.263454 72.7035283,271.993274 L73.2270012,272.06395 L73.807348,280.309274 C86.3677942,288.226709 99.7262173,294.103233 110.001838,305.142571 C116.936402,312.593081 122.946474,322.872943 120.956465,333.447095 C119.340199,342.033633 112.190326,347.416585 103.762529,348.480778 L100.258395,348.718874 Z" id="Fill-52" fill="#FFFFFF" mask="url(#mask-2)"></path>
                        <path d="M42.2846497,353.951901 C42.1865711,358.89168 42.6583931,363.555708 44.0448416,367.777142 C57.9319607,372.806135 75.6551723,373.292756 94.9180439,371.955128 C98.1430312,367.804949 98.3798127,358.054577 100.153353,348.71899" id="Stroke-53" stroke="#000000" stroke-width="2.4" stroke-linecap="round" stroke-linejoin="round" mask="url(#mask-2)"></path>
                        <path d="M62.4635988,490.782281 C62.4635988,493.196268 62.2239156,495.475854 61.7985214,497.491854 C60.7759503,502.337785 58.6797376,505.65955 56.260852,505.65955 C53.8001815,505.65955 51.6743711,502.223661 50.6715318,497.24333 C50.2780566,495.289316 50.0575249,493.097785 50.0575249,490.782281 C50.0575249,482.565343 53.5924173,474.784047 57.0182046,474.784047 C60.4445723,474.784047 62.4635988,482.565343 62.4635988,490.782281" id="Fill-54" fill="#FFFFFF" mask="url(#mask-2)"></path>
                        <path d="M62.4635988,490.782281 C62.4635988,493.196268 62.2239156,495.475854 61.7985214,497.491854 C60.7759503,502.337785 58.6797376,505.65955 56.260852,505.65955 C53.8001815,505.65955 51.6743711,502.223661 50.6715318,497.24333 C50.2780566,495.289316 50.0575249,493.097785 50.0575249,490.782281 C50.0575249,482.565343 53.5924173,474.784047 57.0182046,474.784047 C60.4445723,474.784047 62.4635988,482.565343 62.4635988,490.782281 Z" id="Stroke-55" stroke="#000000" stroke-width="2.4" stroke-linecap="round" stroke-linejoin="round" mask="url(#mask-2)"></path>
                        <path d="M50.7557982,497.6412 C54.4363577,496.427545 58.1174976,496.377724 61.7986375,497.491738" id="Stroke-56" stroke="#000000" stroke-width="2.4" stroke-linecap="round" stroke-linejoin="round" mask="url(#mask-2)"></path>
                        <line x1="55.6150421" y1="496.692174" x2="55.6150421" y2="481.564063" id="Stroke-57" stroke="#000000" stroke-width="2.4" stroke-linecap="round" stroke-linejoin="round" mask="url(#mask-2)"></line>
                        <polyline id="Stroke-58" stroke="#000000" stroke-width="2.4" stroke-linecap="round" stroke-linejoin="round" mask="url(#mask-2)" points="66.832914 243.251545 65.8399406 257.956179 68.4764562 257.919683"></polyline>
                        <path d="M57.4810312,239.864259 C59.2464462,238.559652 61.0118613,238.338935 62.7778566,239.203266" id="Stroke-59" stroke="#000000" stroke-width="2.4" stroke-linecap="round" stroke-linejoin="round" mask="url(#mask-2)"></path>
                        <path d="M77.5727542,240.642389 C75.9657739,239.14661 74.2363403,238.729506 72.3844536,239.38992" id="Stroke-60" stroke="#000000" stroke-width="2.4" stroke-linecap="round" stroke-linejoin="round" mask="url(#mask-2)"></path>
                        <line x1="59.7281921" y1="246.420257" x2="59.7281921" y2="247.841884" id="Stroke-61" stroke="#000000" stroke-width="2.4" stroke-linecap="round" stroke-linejoin="round" mask="url(#mask-2)"></line>
                        <line x1="73.9531891" y1="246.753997" x2="73.9531891" y2="248.175625" id="Stroke-62" stroke="#000000" stroke-width="2.4" stroke-linecap="round" stroke-linejoin="round" mask="url(#mask-2)"></line>
                        <g id="Group-65" mask="url(#mask-2)">
                            <g transform="translate(47.008092, 214.649545)">
                                <path d="M40.752418,22.9011228 C43.5659394,22.6340607 45.7666146,20.2704745 45.7666146,17.39304 C45.7666146,15.3144745 44.6175279,13.5064469 42.9205938,12.5598538 C43.0459487,12.0987228 43.118492,11.6155779 43.118492,11.1144745 C43.118492,8.05745379 40.6357683,5.57974345 37.5732782,5.57974345 C37.134536,5.57974345 36.7091417,5.63593655 36.2994169,5.73210207 C36.0040203,2.95315034 33.6495533,0.788267586 30.7872828,0.788267586 C29.1071787,0.788267586 27.6040805,1.53731586 26.5873128,2.7156331 C25.6152319,1.11615724 23.8602631,0.0444331034 21.8493614,0.0444331034 C19.8518076,0.0444331034 18.1067047,1.10225379 17.129981,2.68377103 C16.1457128,1.79105379 14.8422539,1.2424469 13.4076365,1.2424469 C10.3451464,1.2424469 7.86300301,3.72073655 7.86300301,6.77717793 C7.86300301,6.94054345 7.87344925,7.10101241 7.88737757,7.26032276 C7.19676486,6.95270897 6.43360879,6.77717793 5.62866775,6.77717793 C2.56617757,6.77717793 0.0834538728,9.25546759 0.0834538728,12.3124883 C0.0834538728,14.5503641 1.41709087,16.4742538 3.33223538,17.3461159 L4.34900301,33.5106124 L4.34900301,38.6595228 L6.70463075,38.4127366 L6.70463075,27.2233572 C7.15556023,16.5935917 28.6852666,15.2884055 35.0116273,24.239909 C35.9848689,25.6163503 36.4091024,27.3061986 36.2889706,28.9861986 L35.5200111,39.7584745 L37.4281914,40.130971 L38.5662516,35.0301434 L40.752418,22.9011228" id="Fill-63" stroke="none" fill="#000000" fill-rule="evenodd"></path>
                                <path d="M40.752418,22.9011228 C43.5659394,22.6340607 45.7666146,20.2704745 45.7666146,17.39304 C45.7666146,15.3144745 44.6175279,13.5064469 42.9205938,12.5598538 C43.0459487,12.0987228 43.118492,11.6155779 43.118492,11.1144745 C43.118492,8.05745379 40.6357683,5.57974345 37.5732782,5.57974345 C37.134536,5.57974345 36.7091417,5.63593655 36.2994169,5.73210207 C36.0040203,2.95315034 33.6495533,0.788267586 30.7872828,0.788267586 C29.1071787,0.788267586 27.6040805,1.53731586 26.5873128,2.7156331 C25.6152319,1.11615724 23.8602631,0.0444331034 21.8493614,0.0444331034 C19.8518076,0.0444331034 18.1067047,1.10225379 17.129981,2.68377103 C16.1457128,1.79105379 14.8422539,1.2424469 13.4076365,1.2424469 C10.3451464,1.2424469 7.86300301,3.72073655 7.86300301,6.77717793 C7.86300301,6.94054345 7.87344925,7.10101241 7.88737757,7.26032276 C7.19676486,6.95270897 6.43360879,6.77717793 5.62866775,6.77717793 C2.56617757,6.77717793 0.0834538728,9.25546759 0.0834538728,12.3124883 C0.0834538728,14.5503641 1.41709087,16.4742538 3.33223538,17.3461159 L4.34900301,33.5106124 L4.34900301,38.6595228 L6.70463075,38.4127366 L6.70463075,27.2233572 C7.15556023,16.5935917 28.6852666,15.2884055 35.0116273,24.239909 C35.9848689,25.6163503 36.4091024,27.3061986 36.2889706,28.9861986 L35.5200111,39.7584745 L37.4281914,40.130971 L38.5662516,35.0301434 L40.752418,22.9011228" id="Stroke-64" stroke="#000000" stroke-width="2.4" fill="none" stroke-linecap="round" stroke-linejoin="round"></path>
                            </g>
                        </g>
                        <path d="M82.3087325,256.964921 L83.2587602,243.651211 C83.378892,241.970632 82.9546585,240.280783 81.9819972,238.904342 C75.6550562,229.953418 54.1253498,231.258604 53.6744203,241.88837 L53.6744203,256.964921 C53.6744203,276.37877 80.8195625,279.518052 82.3087325,256.964921 Z" id="Stroke-66" stroke="#000000" stroke-width="2.4" stroke-linecap="round" stroke-linejoin="round" mask="url(#mask-2)"></path>
                        <g id="Group-69" mask="url(#mask-2)">
                            <g transform="translate(48.749133, 248.249545)">
                                <path d="M3.92476948,7.94935448 C1.79083422,7.94935448 0.0614006936,6.22300966 0.0614006936,4.09288552 C0.0614006936,1.96276138 1.79083422,0.235837241 3.92476948,0.235837241" id="Fill-67" stroke="none" fill="#FFFFFF" fill-rule="evenodd"></path>
                                <path d="M3.92476948,7.94935448 C1.79083422,7.94935448 0.0614006936,6.22300966 0.0614006936,4.09288552 C0.0614006936,1.96276138 1.79083422,0.235837241 3.92476948,0.235837241" id="Stroke-68" stroke="#000000" stroke-width="2.4" fill="none" stroke-linecap="round" stroke-linejoin="round"></path>
                            </g>
                        </g>
                        <g id="Group-72" mask="url(#mask-2)">
                            <g transform="translate(82.989595, 248.828855)">
                                <path d="M0.090185896,8.19150621 C2.22412116,8.19150621 3.95355468,6.46516138 3.95355468,4.33503724 C3.95355468,2.2049131 2.22412116,0.477988966 0.090185896,0.477988966" id="Fill-70" stroke="none" fill="#FFFFFF" fill-rule="evenodd"></path>
                                <path d="M0.090185896,8.19150621 C2.22412116,8.19150621 3.95355468,6.46516138 3.95355468,4.33503724 C3.95355468,2.2049131 2.22412116,0.477988966 0.090185896,0.477988966" id="Stroke-71" stroke="#000000" stroke-width="2.4" fill="none" stroke-linecap="round" stroke-linejoin="round"></path>
                            </g>
                        </g>
                        <path d="M73.1220745,272.063777 L73.1220745,280.309101 C68.7642502,283.082259 64.4888351,283.386977 60.3544444,280.309101 L60.3544444,270.339749" id="Stroke-73" stroke="#000000" stroke-width="2.4" stroke-linecap="round" stroke-linejoin="round" mask="url(#mask-2)"></path>
                        <path d="M60.5984222,261.821743 C61.1329216,263.145468 62.2390627,264.103068 63.9168453,264.695123" id="Stroke-74" stroke="#000000" stroke-width="2.4" stroke-linecap="round" stroke-linejoin="round" mask="url(#mask-2)"></path>
                        <path d="M72.3844536,252.370585 C72.3844536,252.808543 72.028701,253.163661 71.5899588,253.163661 C71.1512166,253.163661 70.7960444,252.808543 70.7960444,252.370585 C70.7960444,251.932626 71.1512166,251.577509 71.5899588,251.577509 C72.028701,251.577509 72.3844536,251.932626 72.3844536,252.370585" id="Fill-75" fill="#000000" mask="url(#mask-2)"></path>
                        <path d="M75.7730407,253.956621 C75.7730407,254.394579 75.4172881,254.749697 74.9785459,254.749697 C74.5398037,254.749697 74.1846314,254.394579 74.1846314,253.956621 C74.1846314,253.518662 74.5398037,253.163545 74.9785459,253.163545 C75.4172881,253.163545 75.7730407,253.518662 75.7730407,253.956621" id="Fill-76" fill="#000000" mask="url(#mask-2)"></path>
                        <path d="M72.3844536,255.797843 C72.3844536,256.235801 72.028701,256.590919 71.5899588,256.590919 C71.1512166,256.590919 70.7960444,256.235801 70.7960444,255.797843 C70.7960444,255.359884 71.1512166,255.004767 71.5899588,255.004767 C72.028701,255.004767 72.3844536,255.359884 72.3844536,255.797843" id="Fill-77" fill="#000000" mask="url(#mask-2)"></path>
                        <path d="M63.0518964,255.797843 C63.0518964,256.235801 62.6961438,256.590919 62.2574016,256.590919 C61.8186594,256.590919 61.4629068,256.235801 61.4629068,255.797843 C61.4629068,255.359884 61.8186594,255.004767 62.2574016,255.004767 C62.6961438,255.004767 63.0518964,255.359884 63.0518964,255.797843" id="Fill-78" fill="#000000" mask="url(#mask-2)"></path>
                        <path d="M63.5721193,252.370585 C63.5721193,252.808543 63.2163667,253.163661 62.7776245,253.163661 C62.3388823,253.163661 61.9831297,252.808543 61.9831297,252.370585 C61.9831297,251.932626 62.3388823,251.577509 62.7776245,251.577509 C63.2163667,251.577509 63.5721193,251.932626 63.5721193,252.370585" id="Fill-79" fill="#000000" mask="url(#mask-2)"></path>
                        <path d="M59.5182227,254.212039 C59.5182227,254.649997 59.1624701,255.005114 58.7237279,255.005114 C58.2849857,255.005114 57.9292331,254.649997 57.9292331,254.212039 C57.9292331,253.77408 58.2849857,253.418963 58.7237279,253.418963 C59.1624701,253.418963 59.5182227,253.77408 59.5182227,254.212039" id="Fill-80" fill="#000000" mask="url(#mask-2)"></path>
                        <line x1="66.1726534" y1="282.497851" x2="66.1726534" y2="295.488306" id="Stroke-81" stroke="#000000" stroke-width="2.4" stroke-linecap="round" stroke-linejoin="round" mask="url(#mask-2)"></line>
                        <path d="M71.590191,289.786212 C71.590191,290.224171 71.2344384,290.579288 70.7956962,290.579288 C70.356954,290.579288 70.0012014,290.224171 70.0012014,289.786212 C70.0012014,289.348254 70.356954,288.993137 70.7956962,288.993137 C71.2344384,288.993137 71.590191,289.348254 71.590191,289.786212" id="Fill-82" fill="#000000" mask="url(#mask-2)"></path>
                        <path d="M60.3544444,280.309043 C47.6622594,287.710891 37.2403912,290.579057 29.0447334,301.548877 C3.84955653,337.90987 36.3298271,373.160326 74.1846895,342.455139" id="Stroke-83" stroke="#000000" stroke-width="2.4" stroke-linecap="round" stroke-linejoin="round" mask="url(#mask-2)"></path>
                        <path d="M73.1220745,280.309043 C85.683101,288.226477 99.6212906,294.103001 109.896911,305.142339 C116.831476,312.593429 122.841547,322.873291 120.851538,333.446863 C119.235272,342.033981 112.085399,347.416353 103.657603,348.480546 C96.7654039,349.35125 89.7153508,347.777843 83.2787242,345.384712 C76.2542062,342.772022 67.7770802,340.390477 58.3104629,339.786836 C57.6778849,339.746284 57.1277161,339.310643 56.9861114,338.693677 C56.1997415,335.270532 57.2902132,332.429594 60.0718155,330.114091 C61.0734941,329.280463 62.3554802,328.860463 63.6595195,328.864519 C69.776375,328.882477 77.7445369,329.987801 83.2787242,330.637788 C95.3203403,332.051884 100.683325,324.476243 92.6896282,318.416077" id="Stroke-84" stroke="#000000" stroke-width="2.4" stroke-linecap="round" stroke-linejoin="round" mask="url(#mask-2)"></path>
                        <path d="M38.8595008,319.931263 C36.1382546,333.56707 42.0972557,339.593057 56.7370846,338.01096" id="Stroke-85" stroke="#000000" stroke-width="2.4" stroke-linecap="round" stroke-linejoin="round" mask="url(#mask-2)"></path>
                        <path d="M49.6387466,338.120971 C50.8545732,333.056061 54.0331327,330.66235 59.1750055,330.939261" id="Stroke-86" stroke="#000000" stroke-width="2.4" stroke-linecap="round" stroke-linejoin="round" mask="url(#mask-2)"></path>
                        <path d="M70.4549746,509.744789 L69.7399873,518.611134 L87.2217746,528.254334 C88.8125052,529.155741 90.495511,529.89552 92.2597653,530.378086 C101.394424,532.874334 103.584073,526.834444 93.9305838,520.148044 L83.1744358,512.896237 L70.4549746,509.744789 Z" id="Fill-87" fill="#FFFFFF" mask="url(#mask-2)"></path>
                        <path d="M70.4549746,509.744789 L69.7399873,518.611134 L87.2217746,528.254334 C88.8125052,529.155741 90.495511,529.89552 92.2597653,530.378086 C101.394424,532.874334 103.584073,526.834444 93.9305838,520.148044 L83.1744358,512.896237 L70.4549746,509.744789 Z" id="Stroke-88" stroke="#000000" stroke-width="2.4" stroke-linecap="round" stroke-linejoin="round" mask="url(#mask-2)"></path>
                        <g id="Group-91" mask="url(#mask-2)">
                            <g transform="translate(86.471676, 518.787476)">
                                <path d="M0.145725087,9.12465931 C2.95750543,3.06912828 4.77108925,1.11048 6.24517017,0.542176552" id="Fill-89" stroke="none" fill="#FFFFFF" fill-rule="evenodd"></path>
                                <path d="M0.145725087,9.12465931 C2.95750543,3.06912828 4.77108925,1.11048 6.24517017,0.542176552" id="Stroke-90" stroke="#000000" stroke-width="2.4" fill="none" stroke-linecap="round" stroke-linejoin="round"></path>
                            </g>
                        </g>
                        <g id="Group-94" mask="url(#mask-2)">
                            <g transform="translate(77.186127, 512.994372)">
                                <path d="M13.2015554,8.28964138 C12.3954536,7.91424828 0.543610867,0.128896552 0.543610867,0.128896552" id="Fill-92" stroke="none" fill="#FFFFFF" fill-rule="evenodd"></path>
                                <path d="M13.2015554,8.28964138 C12.3954536,7.91424828 0.543610867,0.128896552 0.543610867,0.128896552" id="Stroke-93" stroke="#000000" stroke-width="2.4" fill="none" stroke-linecap="round" stroke-linejoin="round"></path>
                            </g>
                        </g>
                        <path d="M70.4221269,516.661407 L87.5133408,526.052028 C91.4341639,528.432993 95.41012,529.630428 99.427861,529.927034" id="Stroke-95" stroke="#000000" stroke-width="2.4" stroke-linecap="round" stroke-linejoin="round" mask="url(#mask-2)"></path>
                        <path d="M94.918218,371.955186 C75.6553464,373.292814 57.9321348,372.806193 44.0444354,367.7772 C7.45182728,417.247407 10.739492,446.343269 50.8455198,485.065531 C55.3223151,484.235959 58.5037764,481.547959 60.14964,476.655103 C39.5194712,450.026524 44.2516192,426.421366 63.0072677,407.624483 L61.8245209,401.394 C61.653899,400.493172 62.2377279,399.62189 63.1372654,399.435931 C64.0617579,399.2436 64.9676793,399.850717 65.1406227,400.777034 C72.3079059,439.131434 74.7523267,475.15411 70.1188377,509.212345 C72.5522319,513.354993 76.8763961,514.734331 83.0437417,513.224648 C100.692669,469.125228 106.044627,417.963434 94.918218,371.955186" id="Fill-96" fill="#000000" mask="url(#mask-2)"></path>
                        <path d="M94.918218,371.955186 C75.6553464,373.292814 57.9321348,372.806193 44.0444354,367.7772 C7.45182728,417.247407 10.739492,446.343269 50.8455198,485.065531 C55.3223151,484.235959 58.5037764,481.547959 60.14964,476.655103 C39.5194712,450.026524 44.2516192,426.421366 63.0072677,407.624483 L61.8245209,401.394 C61.653899,400.493172 62.2377279,399.62189 63.1372654,399.435931 C64.0617579,399.2436 64.9676793,399.850717 65.1406227,400.777034 C72.3079059,439.131434 74.7523267,475.15411 70.1188377,509.212345 C72.5522319,513.354993 76.8763961,514.734331 83.0437417,513.224648 C100.692669,469.125228 106.044627,417.963434 94.918218,371.955186 Z" id="Stroke-97" stroke="#000000" stroke-width="2.4" stroke-linecap="round" stroke-linejoin="round" mask="url(#mask-2)"></path>
                        <path d="M41.610751,376.810618 C45.6842053,377.48088 49.5313244,376.379032 53.1863487,373.772135" id="Stroke-98" stroke="#FFFFFF" stroke-width="2.4" stroke-linecap="round" stroke-linejoin="round" mask="url(#mask-2)"></path>
                        <path d="M81.9267482,376.511636 C84.7379482,379.979967 89.0574696,381.311801 94.4007228,381.193622" id="Stroke-99" stroke="#FFFFFF" stroke-width="2.4" stroke-linecap="round" stroke-linejoin="round" mask="url(#mask-2)"></path>
                        <line x1="48.0118603" y1="372.873972" x2="48.4569864" y2="376.246138" id="Stroke-100" stroke="#FFFFFF" stroke-width="2.4" stroke-linecap="round" stroke-linejoin="round" mask="url(#mask-2)"></line>
                        <line x1="44.8551218" y1="373.772309" x2="45.305471" y2="376.933606" id="Stroke-101" stroke="#FFFFFF" stroke-width="2.4" stroke-linecap="round" stroke-linejoin="round" mask="url(#mask-2)"></line>
                        <path d="M24.0309431,411.294819 C20.5006934,421.43333 20.6457801,431.571261 24.4662032,441.709771" id="Stroke-102" stroke="#FFFFFF" stroke-width="2.4" stroke-linecap="round" stroke-linejoin="round" mask="url(#mask-2)"></path>
                        <path d="M21.2348902,246.258166 C21.2348902,249.195848 18.8490844,251.577972 15.9055653,251.577972 C12.9626266,251.577972 10.5768208,249.195848 10.5768208,246.258166 C10.5768208,243.320483 12.9626266,240.938359 15.9055653,240.938359 C18.8490844,240.938359 21.2348902,243.320483 21.2348902,246.258166 Z" id="Stroke-103" stroke="#EA5B25" stroke-width="2.4" stroke-linecap="round" stroke-linejoin="round" mask="url(#mask-2)"></path>
                        <polygon id="Stroke-104" stroke="#58ADC4" stroke-width="2.4" stroke-linecap="round" stroke-linejoin="round" mask="url(#mask-2)" points="93.7538682 199.478276 101.98899 198.49171 98.4308832 205.970607"></polygon>
                        <line x1="38.8090687" y1="201.504414" x2="44.3101762" y2="211.590786" id="Stroke-105" stroke="#000000" stroke-width="2.4" stroke-linecap="round" stroke-linejoin="round" mask="url(#mask-2)"></line>
                        <line x1="110.999628" y1="228.849658" x2="122.451032" y2="218.539092" id="Stroke-106" stroke="#000000" stroke-width="2.4" stroke-linecap="round" stroke-linejoin="round" mask="url(#mask-2)"></line>
                        <line x1="17.0284784" y1="270.339691" x2="27.5820853" y2="276.42245" id="Stroke-107" stroke="#000000" stroke-width="2.4" stroke-linecap="round" stroke-linejoin="round" mask="url(#mask-2)"></line>
                        <polyline id="Stroke-108" stroke="#000000" stroke-width="2.4" stroke-linecap="round" stroke-linejoin="round" mask="url(#mask-2)" points="110.999628 257.956353 105.947129 266.049898 115.714946 266.049898"></polyline>
                        <polyline id="Stroke-109" stroke="#58ADC4" stroke-width="2.4" stroke-linecap="round" stroke-linejoin="round" mask="url(#mask-2)" points="107.519231 283.652243 104.600086 278.385153 112.57173 278.945346"></polyline>
                        <path d="M84.4459177,275.927429 C84.8736333,276.348008 84.8788564,277.034491 84.4575246,277.461443 C84.0361928,277.887815 83.3484818,277.893608 82.9207662,277.47245 C82.493631,277.05245 82.4878275,276.365388 82.9097397,275.939015 C83.3304911,275.512063 84.0187824,275.50685 84.4459177,275.927429" id="Fill-110" fill="#000000" mask="url(#mask-2)"></path>
                        <path d="M89.2468368,274.15416 C89.673972,274.574739 89.6797755,275.261222 89.2584437,275.687594 C88.8371119,276.114546 88.1488206,276.11976 87.7216853,275.699181 C87.2939697,275.279181 87.2887466,274.592119 87.7100784,274.165746 C88.1314102,273.738794 88.8191212,273.733581 89.2468368,274.15416" id="Fill-111" fill="#000000" mask="url(#mask-2)"></path>
                        <path d="M34.5423588,260.751062 C35.138375,260.680966 35.6780976,261.106759 35.7483195,261.70229 C35.8179612,262.296662 35.3914062,262.836 34.7953901,262.905517 C34.1993739,262.975034 33.6596513,262.549241 33.5894294,261.954869 C33.5197877,261.359338 33.9463427,260.820579 34.5423588,260.751062" id="Fill-112" fill="#000000" mask="url(#mask-2)"></path>
                        <path d="M36.1609461,255.903335 C36.7569623,255.833818 37.2966849,256.259611 37.3669068,256.854563 C37.4365484,257.448935 37.0099935,257.988273 36.4139773,258.05779 C35.8179612,258.127308 35.2782386,257.701514 35.2080166,257.107142 C35.138375,256.51219 35.5649299,255.973432 36.1609461,255.903335" id="Fill-113" fill="#000000" mask="url(#mask-2)"></path>
                        <path d="M30.0948129,256.878952 C30.6908291,256.809434 31.2305517,257.235228 31.3007736,257.830179 C31.3704153,258.424552 30.9438603,258.96389 30.3478442,259.033407 C29.751828,259.103503 29.2121054,258.677131 29.1418835,258.082759 C29.0722418,257.487807 29.4987968,256.949048 30.0948129,256.878952" id="Fill-114" fill="#000000" mask="url(#mask-2)"></path>
                        <path d="M25.9556053,296.914452 C8.85104347,317.579032 9.90553364,349.420825 35.6160585,358.553073" id="Stroke-115" stroke="#58ADC4" stroke-width="4.8" stroke-linecap="round" stroke-linejoin="round" mask="url(#mask-2)"></path>
                        <polyline id="Stroke-116" stroke="#EA5B25" stroke-width="2.4" stroke-linecap="round" stroke-linejoin="round" mask="url(#mask-2)" points="445.05637 161.449159 455.283822 161.449159 450.944569 170.111586"></polyline>
                        <polyline id="Stroke-117" stroke="#000000" stroke-width="2.4" stroke-linecap="round" stroke-linejoin="round" mask="url(#mask-2)" points="437.205264 157.942999 432.453384 168.461537 443.196765 166.914778"></polyline>
                        <g id="Group-120" mask="url(#mask-2)">
                            <g transform="translate(369.680925, 157.297821)">
                                <line x1="0.137252023" y1="0.336" x2="6.1287526" y2="11.4732414" id="Fill-118" stroke="none" fill="#FFFFFF" fill-rule="evenodd"></line>
                                <line x1="0.137252023" y1="0.336" x2="6.1287526" y2="11.4732414" id="Stroke-119" stroke="#58ADC4" stroke-width="2.4" fill="none" stroke-linecap="round" stroke-linejoin="round"></line>
                            </g>
                        </g>
                        <line x1="456.833348" y1="205.481785" x2="467.599362" y2="196.097537" id="Stroke-121" stroke="#000000" stroke-width="2.4" stroke-linecap="round" stroke-linejoin="round" mask="url(#mask-2)"></line>
                        <polygon id="Stroke-122" stroke="#EA5B25" stroke-width="2.4" stroke-linecap="round" stroke-linejoin="round" mask="url(#mask-2)" points="425.986522 314.399834 433.629689 305.237462 437.604485 316.481297"></polygon>
                        <path d="M431.645483,242.091244 C431.645483,242.63232 431.205581,243.070858 430.664117,243.070858 C430.122073,243.070858 429.68217,242.63232 429.68217,242.091244 C429.68217,241.550168 430.122073,241.11163 430.664117,241.11163 C431.205581,241.11163 431.645483,241.550168 431.645483,242.091244" id="Fill-123" fill="#000000" mask="url(#mask-2)"></path>
                        <path d="M427.674286,245.931434 C427.674286,246.47251 427.234383,246.911048 426.69292,246.911048 C426.150876,246.911048 425.710973,246.47251 425.710973,245.931434 C425.710973,245.390359 426.150876,244.951821 426.69292,244.951821 C427.234383,244.951821 427.674286,245.390359 427.674286,245.931434" id="Fill-124" fill="#000000" mask="url(#mask-2)"></path>
                        <path d="M432.776695,247.268541 C432.776695,247.809617 432.337373,248.248154 431.795329,248.248154 C431.253285,248.248154 430.813963,247.809617 430.813963,247.268541 C430.813963,246.727465 431.253285,246.288927 431.795329,246.288927 C432.337373,246.288927 432.776695,246.727465 432.776695,247.268541" id="Fill-125" fill="#000000" mask="url(#mask-2)"></path>
                        <line x1="2.93580046" y1="523.294394" x2="63.5199461" y2="523.294394" id="Stroke-126" stroke="#58ADC4" stroke-width="4.8" stroke-linecap="round" stroke-linejoin="round" mask="url(#mask-2)"></line>
                        <path d="M210.128669,406.765018 C209.606937,459.693708 232.278186,513.919473 268.694949,523.294452" id="Stroke-127" stroke="#58ADC4" stroke-width="4.8" stroke-linecap="round" stroke-linejoin="round" mask="url(#mask-2)"></path>
                        <polyline id="Stroke-128" stroke="#58ADC4" stroke-width="4.8" stroke-linecap="round" stroke-linejoin="round" mask="url(#mask-2)" points="2.32144532 155.761258 2.32144532 146.09141 93.355228 146.09141"></polyline>
                        <g id="Group-131" mask="url(#mask-2)">
                            <g transform="translate(351.109827, 311.394372)">
                                <path d="M37.7362395,76.1348772 C57.1517424,127.384146 82.0404962,115.677443 122.915483,74.9189048 C121.680505,70.5845048 119.544829,67.2760634 116.48466,65.0225462 L78.7615366,82.6109876 C76.1714488,83.8188497 73.1211459,82.3433462 72.4630326,79.5661324 C65.2562858,49.144229 59.4626835,21.5279255 46.5952338,7.3087531 L7.28718289,0.489111724 C-6.14262289,31.1242014 2.52079445,97.92216 15.7956476,176.430298 L30.4389586,175.511512 L37.7362395,76.1348772" id="Fill-129" stroke="none" fill="#000000" fill-rule="evenodd"></path>
                                <path d="M37.7362395,76.1348772 C57.1517424,127.384146 82.0404962,115.677443 122.915483,74.9189048 C121.680505,70.5845048 119.544829,67.2760634 116.48466,65.0225462 L78.7615366,82.6109876 C76.1714488,83.8188497 73.1211459,82.3433462 72.4630326,79.5661324 C65.2562858,49.144229 59.4626835,21.5279255 46.5952338,7.3087531 L7.28718289,0.489111724 C-6.14262289,31.1242014 2.52079445,97.92216 15.7956476,176.430298 L30.4389586,175.511512 L37.7362395,76.1348772" id="Stroke-130" stroke="#000000" stroke-width="2.4" fill="none" stroke-linecap="round" stroke-linejoin="round"></path>
                            </g>
                        </g>
                        <path d="M391.15782,398.919997 C385.955591,388.037073 378.127873,361.168659 377.096597,355.967611" id="Stroke-132" stroke="#FFFFFF" stroke-width="2.4" stroke-linecap="round" stroke-linejoin="round" mask="url(#mask-2)"></path>
                        <path d="M393.593651,326.46096 C404.180338,351.437926 412.429968,375.390091 417.498717,397.950174 C419.049404,402.585815 424.373506,404.753015 428.729009,402.520932 L464.893901,383.987636" id="Stroke-133" stroke="#FFFFFF" stroke-width="2.4" stroke-linecap="round" stroke-linejoin="round" stroke-dasharray="1.2,6" mask="url(#mask-2)"></path>
                        <path d="M377.096829,484.473186 C379.880752,451.05509 380.808147,417.636993 379.880752,384.218897" id="Stroke-134" stroke="#FFFFFF" stroke-width="2.4" stroke-linecap="round" stroke-linejoin="round" stroke-dasharray="1.2,6" mask="url(#mask-2)"></path>
                        <path d="M474.599679,385.708709 C479.418879,380.187302 491.409425,379.453895 497.845471,380.09635 C500.462255,380.357619 502.183564,377.288433 500.485469,375.282861 C496.140993,370.152488 478.894826,367.584985 471.318979,369.029785 C470.627786,369.161868 470.094447,369.709316 469.992306,370.403909 C469.668472,372.588488 468.807818,376.520268 468.347603,376.441481" id="Stroke-135" stroke="#000000" stroke-width="2.4" stroke-linecap="round" stroke-linejoin="round" mask="url(#mask-2)"></path>
                        <path d="M495.018312,371.881961 C495.468661,374.708417 495.524374,377.406265 495.018312,379.92163" id="Stroke-136" stroke="#000000" stroke-width="2.4" stroke-linecap="round" stroke-linejoin="round" mask="url(#mask-2)"></path>
                        <path d="M469.579447,372.68981 C477.578367,371.379989 486.081029,372.276761 495.198277,374.600375" id="Stroke-137" stroke="#000000" stroke-width="2.4" stroke-linecap="round" stroke-linejoin="round" mask="url(#mask-2)"></path>
                        <path d="M478.888791,376.80691 C478.888791,378.025779 477.899299,379.013503 476.678249,379.013503 C475.4572,379.013503 474.467708,378.025779 474.467708,376.80691 C474.467708,375.588041 475.4572,374.600317 476.678249,374.600317 C477.899299,374.600317 478.888791,375.588041 478.888791,376.80691" id="Fill-138" fill="#000000" mask="url(#mask-2)"></path>
                        <path d="M367.606707,487.824902 L368.859096,498.700295 C367.090199,509.555412 359.359399,519.122723 359.821935,523.995302 C359.878809,524.590833 360.290855,525.094254 360.863658,525.269206 C366.287579,526.92893 376.082092,515.612681 383.860481,504.469068 C383.860481,504.469068 379.914122,496.855771 379.838097,495.265564 C379.776,493.961537 380.22809,486.622254 380.22809,486.622254 L367.606707,487.824902 Z" id="Fill-139" fill="#FFFFFF" mask="url(#mask-2)"></path>
                        <path d="M367.606707,487.824902 L368.859096,498.700295 C367.090199,509.555412 359.359399,519.122723 359.821935,523.995302 C359.878809,524.590833 360.290855,525.094254 360.863658,525.269206 C366.287579,526.92893 376.082092,515.612681 383.860481,504.469068 C383.860481,504.469068 379.914122,496.855771 379.838097,495.265564 C379.776,493.961537 380.22809,486.622254 380.22809,486.622254 L367.606707,487.824902 Z" id="Stroke-140" stroke="#000000" stroke-width="2.4" stroke-linecap="round" stroke-linejoin="round" mask="url(#mask-2)"></path>
                        <path d="M368.275441,493.630982 C371.983857,494.545713 376.271459,494.242154 379.957242,492.234844" id="Stroke-141" stroke="#000000" stroke-width="2.4" stroke-linecap="round" stroke-linejoin="round" mask="url(#mask-2)"></path>
                        <path d="M378.092646,500.312342 C378.092646,501.520204 377.11186,502.499818 375.901837,502.499818 C374.691233,502.499818 373.709867,501.520204 373.709867,500.312342 C373.709867,499.10448 374.691233,498.124866 375.901837,498.124866 C377.11186,498.124866 378.092646,499.10448 378.092646,500.312342" id="Fill-142" fill="#000000" mask="url(#mask-2)"></path>
                        <path d="M361.701794,517.385545 C364.566967,518.580662 366.626037,520.00171 368.08619,522.389628" id="Stroke-143" stroke="#000000" stroke-width="2.4" stroke-linecap="round" stroke-linejoin="round" mask="url(#mask-2)"></path>
                        <path d="M382.131802,500.996276 C377.132114,508.57771 372.07265,515.1216 366.649309,520.373048" id="Stroke-144" stroke="#000000" stroke-width="2.4" stroke-linecap="round" stroke-linejoin="round" mask="url(#mask-2)"></path>
                        <g id="Group-147" mask="url(#mask-2)">
                            <g transform="translate(330.217341, 166.566786)">
                                <path d="M75.2728398,114.624488 C75.0586918,118.593923 74.3471866,122.705288 73.0216745,126.463854 C71.799464,129.930447 69.3950872,132.92664 68.6975103,136.586723 C68.1090386,139.670392 69.2871427,142.898888 69.4513808,145.977343 C69.5836999,148.467799 68.815901,152.902999 65.4649785,152.763964 C65.1672606,152.751799 64.8828906,152.64984 64.6037438,152.548461 C54.0193785,148.704157 42.8604698,150.466999 32.0840097,147.776681 C27.1771773,146.55144 26.3739773,142.11624 25.9613508,137.657288 C25.354308,131.100654 25.9712166,124.407302 26.6862039,117.885426 C23.8442455,106.938778 24.4588328,97.2382262 29.3674062,89.0838538 C-1.80882497,68.7286262 -2.92367121,37.5136469 2.97149179,0.286005517 L12.2013276,2.62062621 C3.27385249,37.627771 28.1759542,75.4549986 50.8947912,79.3734538 L62.0658872,80.9173159 C90.229538,90.4539228 109.397813,144.100378 136.877815,88.5624745 C137.825522,88.4274952 144.729908,88.6974538 144.729908,88.6974538 C136.201131,125.857895 105.066105,139.505868 74.1365207,113.696433" id="Fill-145" stroke="none" fill="#FFFFFF" fill-rule="evenodd"></path>
                                <path d="M75.2728398,114.624488 C75.0586918,118.593923 74.3471866,122.705288 73.0216745,126.463854 C71.799464,129.930447 69.3950872,132.92664 68.6975103,136.586723 C68.1090386,139.670392 69.2871427,142.898888 69.4513808,145.977343 C69.5836999,148.467799 68.815901,152.902999 65.4649785,152.763964 C65.1672606,152.751799 64.8828906,152.64984 64.6037438,152.548461 C54.0193785,148.704157 42.8604698,150.466999 32.0840097,147.776681 C27.1771773,146.55144 26.3739773,142.11624 25.9613508,137.657288 C25.354308,131.100654 25.9712166,124.407302 26.6862039,117.885426 C23.8442455,106.938778 24.4588328,97.2382262 29.3674062,89.0838538 C-1.80882497,68.7286262 -2.92367121,37.5136469 2.97149179,0.286005517 L12.2013276,2.62062621 C3.27385249,37.627771 28.1759542,75.4549986 50.8947912,79.3734538 L62.0658872,80.9173159 C90.229538,90.4539228 109.397813,144.100378 136.877815,88.5624745 C137.825522,88.4274952 144.729908,88.6974538 144.729908,88.6974538 C136.201131,125.857895 105.066105,139.505868 74.1365207,113.696433" id="Stroke-146" stroke="#000000" stroke-width="2.4" fill="none" stroke-linecap="round" stroke-linejoin="round"></path>
                            </g>
                        </g>
                        <path d="M391.556808,250.609192 C387.592459,251.19893 384.110958,250.39195 381.112306,248.188833 L383.149904,239.428502 L393.593825,241.848281 L391.556808,250.609192 Z" id="Fill-148" fill="#FFFFFF" mask="url(#mask-2)"></path>
                        <path d="M391.556808,250.609192 C387.592459,251.19893 384.110958,250.39195 381.112306,248.188833 L383.149904,239.428502 L393.593825,241.848281 L391.556808,250.609192 Z" id="Stroke-149" stroke="#000000" stroke-width="2.4" stroke-linecap="round" stroke-linejoin="round" mask="url(#mask-2)"></path>
                        <path d="M426.100444,222.056086 C426.683692,219.548251 425.120238,217.043892 422.607336,216.461686 C422.291047,216.388113 421.973597,216.349299 421.660791,216.341768 C421.67646,216.245603 421.689228,216.149437 421.704897,216.052692 C421.729852,216.059065 421.753646,216.068334 421.778601,216.074127 C423.958964,216.579286 426.136425,215.224858 426.642488,213.048389 C427.14855,210.87192 425.791699,208.698348 423.611336,208.193189 C423.167371,208.090651 422.724566,208.068058 422.294529,208.110927 C423.670532,207.723368 424.799306,206.619782 425.145193,205.132113 C425.651255,202.955644 424.294404,200.782072 422.114041,200.276913 C421.589988,200.155258 421.065355,200.143672 420.565096,200.223037 C420.956249,199.779865 421.246423,199.237051 421.389188,198.621244 C421.850564,196.638265 420.613845,194.657023 418.626737,194.196472 C417.800323,194.005299 416.976811,194.110154 416.260663,194.436886 C416.437089,194.106679 416.577533,193.751561 416.665745,193.369796 C417.213593,191.016637 415.745896,188.666954 413.389107,188.120086 C411.966097,187.791037 410.547149,188.197134 409.523417,189.085796 C409.524578,189.078265 409.52748,189.071313 409.529221,189.064361 C410.076488,186.711203 408.608791,184.360941 406.252002,183.814651 C404.334536,183.37032 402.418811,184.256665 401.476328,185.869465 C401.41307,185.854403 401.350973,185.835286 401.287135,185.820803 C401.223877,185.805741 401.159459,185.795892 401.096201,185.78141 C400.962141,183.918927 399.633727,182.280637 397.715681,181.836886 C395.703618,181.370541 393.69794,182.372168 392.81233,184.137906 C392.248814,183.011148 391.20535,182.133492 389.880418,181.827037 C387.523049,181.280748 385.168582,182.745244 384.621315,185.098403 C384.551674,185.397906 384.515692,185.69683 384.508728,185.992858 C384.02646,185.62152 383.461202,185.342292 382.829204,185.196306 C380.472416,184.650017 378.117369,186.114513 377.570682,188.467672 C377.411086,189.154734 377.427336,189.840637 377.582869,190.482513 C377.254973,190.309299 376.902703,190.170265 376.523736,190.082789 C374.166948,189.536499 371.812481,191.001575 371.265214,193.354734 C370.95763,194.675561 371.286106,195.99523 372.049262,196.995699 C371.956987,196.967892 371.865292,196.938348 371.769535,196.915754 C369.411586,196.369465 367.057699,197.833961 366.509852,200.18712 C366.006111,202.355479 367.214973,204.518044 369.252571,205.272306 C369.245607,205.297796 369.238643,205.323286 369.232839,205.348775 C367.071047,205.130954 365.032289,206.540417 364.528548,208.708196 C363.981281,211.061354 365.448397,213.411617 367.806347,213.957906 C368.036164,214.011203 368.266562,214.039589 368.494638,214.05581 C368.503343,214.161823 368.516111,214.267258 368.525977,214.373272 C366.912032,214.713906 365.558083,215.950154 365.160545,217.660279 C364.613278,220.013437 366.080395,222.363699 368.437764,222.909989 C369.231678,223.09363 370.023271,223.044968 370.746964,222.816141 C370.800356,222.93432 370.85781,223.050761 370.912363,223.167782 C370.306481,223.738982 369.855551,224.486872 369.65243,225.357575 C369.105743,227.710734 370.57286,230.060996 372.930229,230.607286 C373.922041,230.836692 374.911533,230.707506 375.768125,230.308361 C375.783214,230.324003 375.798303,230.339065 375.813972,230.355286 C375.52554,230.782817 375.306169,231.266541 375.182555,231.798348 C374.634707,234.151506 376.102404,236.501768 378.459193,237.048058 C379.631493,237.319754 380.802053,237.093244 381.75092,236.509299 C381.691144,238.547892 383.07295,240.41443 385.140145,240.89352 C387.302518,241.394623 389.458506,240.200665 390.223403,238.183506 C390.529826,238.242017 390.835669,238.292417 391.142673,238.339341 C391.513514,239.72563 392.618495,240.866872 394.115789,241.213299 C396.210261,241.699341 398.298349,240.450348 398.882758,238.409437 C399.284358,238.353823 399.684217,238.290679 400.082335,238.217106 C400.622058,239.127203 401.515792,239.825851 402.628897,240.083644 C404.790689,240.584748 406.950159,239.241327 407.451579,237.083396 C407.563006,236.606623 407.578675,236.13043 407.52006,235.671617 C407.639031,235.61021 407.758002,235.547644 407.876393,235.484499 C408.399285,236.036003 409.084675,236.446734 409.881491,236.631534 C412.042703,237.132058 414.202173,235.789217 414.704173,233.630706 C414.805154,233.195644 414.827787,232.761741 414.787743,232.340582 C414.940955,232.393299 415.097648,232.439065 415.258985,232.47672 C417.771306,233.058927 420.280726,231.497686 420.863974,228.989851 C421.154728,227.740858 420.911563,226.493023 420.284788,225.482706 C420.355591,225.502403 420.424071,225.526154 420.496034,225.542954 C423.008356,226.124582 425.517195,224.56392 426.100444,222.056086" id="Fill-150" fill="#000000" mask="url(#mask-2)"></path>
                        <path d="M426.100444,222.056086 C426.683692,219.548251 425.120238,217.043892 422.607336,216.461686 C422.291047,216.388113 421.973597,216.349299 421.660791,216.341768 C421.67646,216.245603 421.689228,216.149437 421.704897,216.052692 C421.729852,216.059065 421.753646,216.068334 421.778601,216.074127 C423.958964,216.579286 426.136425,215.224858 426.642488,213.048389 C427.14855,210.87192 425.791699,208.698348 423.611336,208.193189 C423.167371,208.090651 422.724566,208.068058 422.294529,208.110927 C423.670532,207.723368 424.799306,206.619782 425.145193,205.132113 C425.651255,202.955644 424.294404,200.782072 422.114041,200.276913 C421.589988,200.155258 421.065355,200.143672 420.565096,200.223037 C420.956249,199.779865 421.246423,199.237051 421.389188,198.621244 C421.850564,196.638265 420.613845,194.657023 418.626737,194.196472 C417.800323,194.005299 416.976811,194.110154 416.260663,194.436886 C416.437089,194.106679 416.577533,193.751561 416.665745,193.369796 C417.213593,191.016637 415.745896,188.666954 413.389107,188.120086 C411.966097,187.791037 410.547149,188.197134 409.523417,189.085796 C409.524578,189.078265 409.52748,189.071313 409.529221,189.064361 C410.076488,186.711203 408.608791,184.360941 406.252002,183.814651 C404.334536,183.37032 402.418811,184.256665 401.476328,185.869465 C401.41307,185.854403 401.350973,185.835286 401.287135,185.820803 C401.223877,185.805741 401.159459,185.795892 401.096201,185.78141 C400.962141,183.918927 399.633727,182.280637 397.715681,181.836886 C395.703618,181.370541 393.69794,182.372168 392.81233,184.137906 C392.248814,183.011148 391.20535,182.133492 389.880418,181.827037 C387.523049,181.280748 385.168582,182.745244 384.621315,185.098403 C384.551674,185.397906 384.515692,185.69683 384.508728,185.992858 C384.02646,185.62152 383.461202,185.342292 382.829204,185.196306 C380.472416,184.650017 378.117369,186.114513 377.570682,188.467672 C377.411086,189.154734 377.427336,189.840637 377.582869,190.482513 C377.254973,190.309299 376.902703,190.170265 376.523736,190.082789 C374.166948,189.536499 371.812481,191.001575 371.265214,193.354734 C370.95763,194.675561 371.286106,195.99523 372.049262,196.995699 C371.956987,196.967892 371.865292,196.938348 371.769535,196.915754 C369.411586,196.369465 367.057699,197.833961 366.509852,200.18712 C366.006111,202.355479 367.214973,204.518044 369.252571,205.272306 C369.245607,205.297796 369.238643,205.323286 369.232839,205.348775 C367.071047,205.130954 365.032289,206.540417 364.528548,208.708196 C363.981281,211.061354 365.448397,213.411617 367.806347,213.957906 C368.036164,214.011203 368.266562,214.039589 368.494638,214.05581 C368.503343,214.161823 368.516111,214.267258 368.525977,214.373272 C366.912032,214.713906 365.558083,215.950154 365.160545,217.660279 C364.613278,220.013437 366.080395,222.363699 368.437764,222.909989 C369.231678,223.09363 370.023271,223.044968 370.746964,222.816141 C370.800356,222.93432 370.85781,223.050761 370.912363,223.167782 C370.306481,223.738982 369.855551,224.486872 369.65243,225.357575 C369.105743,227.710734 370.57286,230.060996 372.930229,230.607286 C373.922041,230.836692 374.911533,230.707506 375.768125,230.308361 C375.783214,230.324003 375.798303,230.339065 375.813972,230.355286 C375.52554,230.782817 375.306169,231.266541 375.182555,231.798348 C374.634707,234.151506 376.102404,236.501768 378.459193,237.048058 C379.631493,237.319754 380.802053,237.093244 381.75092,236.509299 C381.691144,238.547892 383.07295,240.41443 385.140145,240.89352 C387.302518,241.394623 389.458506,240.200665 390.223403,238.183506 C390.529826,238.242017 390.835669,238.292417 391.142673,238.339341 C391.513514,239.72563 392.618495,240.866872 394.115789,241.213299 C396.210261,241.699341 398.298349,240.450348 398.882758,238.409437 C399.284358,238.353823 399.684217,238.290679 400.082335,238.217106 C400.622058,239.127203 401.515792,239.825851 402.628897,240.083644 C404.790689,240.584748 406.950159,239.241327 407.451579,237.083396 C407.563006,236.606623 407.578675,236.13043 407.52006,235.671617 C407.639031,235.61021 407.758002,235.547644 407.876393,235.484499 C408.399285,236.036003 409.084675,236.446734 409.881491,236.631534 C412.042703,237.132058 414.202173,235.789217 414.704173,233.630706 C414.805154,233.195644 414.827787,232.761741 414.787743,232.340582 C414.940955,232.393299 415.097648,232.439065 415.258985,232.47672 C417.771306,233.058927 420.280726,231.497686 420.863974,228.989851 C421.154728,227.740858 420.911563,226.493023 420.284788,225.482706 C420.355591,225.502403 420.424071,225.526154 420.496034,225.542954 C423.008356,226.124582 425.517195,224.56392 426.100444,222.056086 Z" id="Stroke-151" stroke="#000000" stroke-width="2.4" stroke-linecap="round" stroke-linejoin="round" mask="url(#mask-2)"></path>
                        <g id="Group-154" mask="url(#mask-2)">
                            <g transform="translate(376.064740, 216.387476)">
                                <path d="M2.88252462,6.65210483 C1.18442983,6.2587531 0.127618266,4.56542897 0.521673757,2.87094621 C0.915729249,1.17588414 2.61150266,0.12096 4.30959746,0.514311724" id="Fill-152" stroke="none" fill="#FFFFFF" fill-rule="evenodd"></path>
                                <path d="M2.88252462,6.65210483 C1.18442983,6.2587531 0.127618266,4.56542897 0.521673757,2.87094621 C0.915729249,1.17588414 2.61150266,0.12096 4.30959746,0.514311724" id="Stroke-153" stroke="#000000" stroke-width="2.4" fill="none" stroke-linecap="round" stroke-linejoin="round"></path>
                            </g>
                        </g>
                        <g id="Group-157" mask="url(#mask-2)">
                            <g transform="translate(403.921387, 222.180579)">
                                <path d="M1.86012763,0.102943448 C3.55764208,0.496295172 4.61445364,2.18961931 4.22039815,3.88410207 C3.82634266,5.57916414 2.13056925,6.63408828 0.432474451,6.24073655" id="Fill-155" stroke="none" fill="#FFFFFF" fill-rule="evenodd"></path>
                                <path d="M1.86012763,0.102943448 C3.55764208,0.496295172 4.61445364,2.18961931 4.22039815,3.88410207 C3.82634266,5.57916414 2.13056925,6.63408828 0.432474451,6.24073655" id="Stroke-156" stroke="#000000" stroke-width="2.4" fill="none" stroke-linecap="round" stroke-linejoin="round"></path>
                            </g>
                        </g>
                        <path d="M387.842879,242.40355 L387.842879,242.40355 C381.257103,240.877647 377.157533,234.311164 378.686747,227.73773 L382.351057,211.97875 C389.563607,205.137095 402.631857,207.842474 406.199829,217.505371 L402.534939,233.263771 C401.006305,239.837785 394.428654,243.929454 387.842879,242.40355" id="Fill-158" fill="#FFFFFF" mask="url(#mask-2)"></path>
                        <path d="M387.842879,242.40355 L387.842879,242.40355 C381.257103,240.877647 377.157533,234.311164 378.686747,227.73773 L382.351057,211.97875 C389.563607,205.137095 402.631857,207.842474 406.199829,217.505371 L402.534939,233.263771 C401.006305,239.837785 394.428654,243.929454 387.842879,242.40355 Z" id="Stroke-159" stroke="#000000" stroke-width="2.4" stroke-linecap="round" stroke-linejoin="round" mask="url(#mask-2)"></path>
                        <polyline id="Stroke-160" stroke="#000000" stroke-width="2.4" stroke-linecap="round" stroke-linejoin="round" mask="url(#mask-2)" points="392.859745 215.838985 388.680667 227.892695 390.801835 228.38453"></polyline>
                        <path d="M395.682668,231.379332 C394.031581,233.19547 392.012554,234.060381 389.625008,233.972905 C391.678855,239.813512 396.979743,236.737374 395.682668,231.379332 Z" id="Stroke-161" stroke="#000000" stroke-width="2.4" stroke-linecap="round" stroke-linejoin="round" mask="url(#mask-2)"></path>
                        <path d="M384.84028,213.980789 C385.919145,213.249699 387.185462,213.052734 388.63865,213.389313" id="Stroke-162" stroke="#000000" stroke-width="2.4" stroke-linecap="round" stroke-linejoin="round" mask="url(#mask-2)"></path>
                        <path d="M399.0333,216.018861 C400.258412,216.245371 401.254287,216.89304 402.020926,217.961868" id="Stroke-163" stroke="#000000" stroke-width="2.4" stroke-linecap="round" stroke-linejoin="round" mask="url(#mask-2)"></path>
                        <path d="M396.548081,222.283523 C397.485921,221.539688 399.033126,222.112047 399.033126,223.385371" id="Stroke-164" stroke="#000000" stroke-width="2.0934" stroke-linecap="round" stroke-linejoin="round" mask="url(#mask-2)"></path>
                        <path d="M384.785902,219.823423 C385.539192,218.89363 387.174029,219.115506 387.452015,220.358706" id="Stroke-165" stroke="#000000" stroke-width="2.0934" stroke-linecap="round" stroke-linejoin="round" mask="url(#mask-2)"></path>
                        <path d="M362.591002,287.701448 C370.255062,297.777393 380.819695,301.006469 383.037201,306.303103" id="Stroke-166" stroke="#000000" stroke-width="2.0934" stroke-linecap="round" stroke-linejoin="round" mask="url(#mask-2)"></path>
                        <path d="M466.154588,246.889788 L462.370147,246.889788 L462.370147,240.592684 C462.370147,239.549346 463.216873,238.703553 464.262077,238.703553 C465.307282,238.703553 466.154588,239.549346 466.154588,240.592684 L466.154588,246.889788 Z" id="Fill-167" fill="#FFFFFF" mask="url(#mask-2)"></path>
                        <path d="M466.154588,246.889788 L462.370147,246.889788 L462.370147,240.592684 C462.370147,239.549346 463.216873,238.703553 464.262077,238.703553 C465.307282,238.703553 466.154588,239.549346 466.154588,240.592684 L466.154588,246.889788 Z" id="Stroke-168" stroke="#000000" stroke-width="2.0892" stroke-linecap="round" stroke-linejoin="round" mask="url(#mask-2)"></path>
                        <path d="M481.580265,277.981316 L446.519772,269.541923 C445.240108,269.23373 444.452577,267.948819 444.761902,266.67144 L450.385463,243.390116 C450.694207,242.112157 451.981416,241.326612 453.261081,241.634806 L488.321574,250.074199 C489.601238,250.382392 490.388769,251.667302 490.080025,252.944681 L484.455303,276.226006 C484.147139,277.503385 482.859349,278.289509 481.580265,277.981316" id="Fill-169" fill="#FFFFFF" mask="url(#mask-2)"></path>
                        <path d="M481.580265,277.981316 L446.519772,269.541923 C445.240108,269.23373 444.452577,267.948819 444.761902,266.67144 L450.385463,243.390116 C450.694207,242.112157 451.981416,241.326612 453.261081,241.634806 L488.321574,250.074199 C489.601238,250.382392 490.388769,251.667302 490.080025,252.944681 L484.455303,276.226006 C484.147139,277.503385 482.859349,278.289509 481.580265,277.981316 Z" id="Stroke-170" stroke="#000000" stroke-width="2.6508" stroke-linecap="round" stroke-linejoin="round" mask="url(#mask-2)"></path>
                        <path d="M479.711142,274.315092 L452.799299,267.837244 C451.664721,267.56381 450.966564,266.424306 451.239907,265.291175 L455.521706,247.566017 C455.79563,246.432886 456.937752,245.735975 458.072911,246.00941 L484.984173,252.487258 C486.119332,252.760113 486.817489,253.900196 486.543565,255.033327 L482.261766,272.758486 C481.987843,273.891617 480.8463,274.588527 479.711142,274.315092" id="Fill-171" fill="#58ADC4" mask="url(#mask-2)"></path>
                        <path d="M452.437105,256.201159 C452.27867,256.856359 451.618235,257.259559 450.962443,257.101407 C450.306071,256.943255 449.90215,256.284579 450.060585,255.629379 C450.219019,254.974179 450.878874,254.570979 451.535246,254.729131 C452.191618,254.886703 452.594959,255.545959 452.437105,256.201159" id="Fill-172" fill="#000000" mask="url(#mask-2)"></path>
                        <path d="M479.327417,246.423037 C478.642027,249.259341 474.914459,250.794513 471.00002,249.852554 C467.086161,248.910596 464.468797,245.847782 465.154187,243.011479 C465.839576,240.175175 469.567724,238.639423 473.481583,239.581961 C477.395442,240.52392 480.012806,243.586734 479.327417,246.423037" id="Fill-173" fill="#FFFFFF" mask="url(#mask-2)"></path>
                        <path d="M479.327417,246.423037 C478.642027,249.259341 474.914459,250.794513 471.00002,249.852554 C467.086161,248.910596 464.468797,245.847782 465.154187,243.011479 C465.839576,240.175175 469.567724,238.639423 473.481583,239.581961 C477.395442,240.52392 480.012806,243.586734 479.327417,246.423037 Z" id="Stroke-174" stroke="#000000" stroke-width="2.0892" stroke-linecap="round" stroke-linejoin="round" mask="url(#mask-2)"></path>
                        <path d="M341.895196,168.647785 L345.962847,163.717274 C346.491543,163.075399 346.800287,162.279426 346.857742,161.451012 C346.971489,159.794185 346.775332,157.635674 345.140495,156.739481 C343.305439,155.733799 340.548791,156.666488 339.066585,157.946185 C338.530925,158.408474 337.660405,159.311619 338.066068,160.102378 C338.457802,160.86475 339.619656,160.700226 340.281832,160.506157 L341.895196,159.925109" id="Stroke-175" stroke="#000000" stroke-width="2.4" stroke-linecap="round" stroke-linejoin="round" mask="url(#mask-2)"></path>
                        <path d="M346.52439,158.416237 C345.211065,142.211189 326.524478,155.54112 337.961953,159.790941" id="Stroke-176" stroke="#000000" stroke-width="2.4" stroke-linecap="round" stroke-linejoin="round" mask="url(#mask-2)"></path>
                        <path d="M334.013448,167.061459 C333.918271,166.634508 334.360495,156.561459 334.360495,156.561459" id="Stroke-177" stroke="#000000" stroke-width="2.4" stroke-linecap="round" stroke-linejoin="round" mask="url(#mask-2)"></path>
                        <path d="M379.364418,328.795465 C381.440318,334.735134 386.518933,337.346665 393.593942,337.746389" id="Stroke-178" stroke="#FFFFFF" stroke-width="2.4" stroke-linecap="round" stroke-linejoin="round" mask="url(#mask-2)"></path>
                        <path d="M366.009651,316.51171 C364.475214,322.902083 364.107854,328.96051 365.532606,334.508566 L369.634497,334.508566" id="Stroke-179" stroke="#FFFFFF" stroke-width="2.4" stroke-linecap="round" stroke-linejoin="round" mask="url(#mask-2)"></path>
                    </g>
                </g>
                <line x1="1258" y1="552" x2="1224" y2="514" id="Stroke-50" stroke="#E1EEF2" stroke-width="4" stroke-linecap="round" stroke-linejoin="round"></line>
                <line x1="1224" y1="496" x2="1256" y2="522" id="Stroke-66" stroke="#58ADC4" stroke-width="4" stroke-linecap="round" stroke-linejoin="round"></line>
                <polyline id="Stroke-36" stroke="#EA5B29" stroke-width="4" stroke-linecap="round" stroke-linejoin="round" transform="translate(1240.000000, 80.000000) rotate(-1.000000) translate(-1240.000000, -80.000000) " points="1218 61 1237.42386 99 1262 63.520795"></polyline>
                <polygon id="Stroke-46-Copy" stroke="#58ADC4" stroke-width="4" stroke-linecap="round" stroke-linejoin="round" transform="translate(27.000000, 577.000000) rotate(76.000000) translate(-27.000000, -577.000000) " points="14.6401136 599 50 567.184073 4 555"></polygon>
            </g>
        </g>
    </g>
</svg>