<?xml version="1.0" encoding="UTF-8"?>
<svg width="270px" height="154px" viewBox="0 0 270 154" version="1.1" xmlns="http://www.w3.org/2000/svg" xmlns:xlink="http://www.w3.org/1999/xlink">
    <!-- Generator: Sketch 63.1 (92452) - https://sketch.com -->
    <title>Group 7</title>
    <desc>Created with Sketch.</desc>
    <defs>
        <polygon id="path-1" points="0 -4.82530682e-14 6 -4.82530682e-14 6 5 0 5"></polygon>
        <polygon id="path-3" points="0 109 280 109 280 -1.56187563e-13 0 -1.56187563e-13"></polygon>
    </defs>
    <g id="Landing-Pages" stroke="none" stroke-width="1" fill="none" fill-rule="evenodd">
        <g id="LandingPage_Mobile" transform="translate(-33.000000, -3076.000000)">
            <g id="Group-7" transform="translate(32.000000, 3077.000000)">
                <g id="Mobile_LP_FooterIllustration">
                    <g id="Illustration/Get-in-touch" transform="translate(0.000000, 44.000000)">
                        <g id="Group-202">
                            <g id="Group-32" transform="translate(1.000000, 0.000000)">
                                <path d="M64.5955807,19 C64.4959272,19 64.3962737,18.9745902 64.3059502,18.9235689 C64.1149807,18.815678 63.997461,18.6099795 64,18.3879462 L64.0665435,12.5979373 C64.0705138,12.266198 64.3363227,12 64.6620826,12 L64.6692291,12 C64.9979667,12.0040333 65.2613934,12.2778946 65.2576217,12.6120538 L65.2038247,17.284636 L69.0845559,14.7759212 C69.3622757,14.5966408 69.7301203,14.6797269 69.9067969,14.9616548 C70.0834735,15.2433811 70.0014876,15.61747 69.7241649,15.7967503 L64.9153852,18.905419 C64.8179153,18.9683386 64.7069466,19 64.5955807,19" id="Fill-1" fill="#EA5B25"></path>
                                <path d="M180.499981,35 C179.819823,35 179.202347,35.466873 179.040246,36.1569068 C178.948714,36.546971 179.014509,36.9492832 179.225385,37.289733 C179.436469,37.6303905 179.767312,37.8682903 180.157308,37.9598381 C180.547096,38.0511783 180.949338,37.9855794 181.289936,37.7746665 C181.630326,37.5637537 181.868184,37.2326454 181.959716,36.8427888 C182.051248,36.4527246 181.98566,36.05062 181.774577,35.7099626 C181.563701,35.3693051 181.23265,35.1314054 180.842862,35.0398575 C180.728084,35.0128707 180.613098,35 180.499981,35 M180.504999,39 C180.313354,39 180.120197,38.9778867 179.928929,38.9330932 C179.278961,38.7803792 178.727461,38.3836633 178.375734,37.8160892 C178.024006,37.248704 177.914575,36.5783126 178.067098,35.9283335 C178.38216,34.5867947 179.729535,33.7514042 181.071808,34.0664711 C182.413513,34.3817271 183.248701,35.729314 182.93345,37.0710418 C182.780928,37.721021 182.384407,38.2725299 181.816843,38.6242633 C181.416353,38.8724234 180.964645,39 180.504999,39" id="Fill-3" fill="#EA5B25"></path>
                                <path d="M1.62547659,83 C1.48051689,83 1.33472288,82.9554547 1.21646079,82.8645081 C0.955116173,82.6633118 0.926332807,82.3115895 1.15242823,82.079026 L5.90105789,77.192778 C6.12715332,76.9598432 6.52219459,76.9346009 6.78353921,77.1356115 C7.04488383,77.3368078 7.07366719,77.68853 6.84757177,77.9210936 L2.09915068,82.8073416 C1.97525706,82.9346669 1.80088827,83 1.62547659,83" id="Fill-5" fill="#EA5B25"></path>
                                <path d="M100.348865,24.0630427 C100.866335,24.2557252 101.129559,24.8313681 100.93687,25.3488216 C100.744342,25.8662751 100.16868,26.1296505 99.6512102,25.9368078 C99.13374,25.7441253 98.8705164,25.1684823 99.0630448,24.6511892 C99.2557335,24.1337357 99.831395,23.8705205 100.348865,24.0630427" id="Fill-7" fill="#58ADC4"></path>
                                <path d="M104.348771,28.0630427 C104.866205,28.2557252 105.12957,28.8313681 104.936895,29.3488216 C104.74422,29.8662751 104.168599,30.1296505 103.651165,29.9368078 C103.133731,29.7441253 102.870525,29.1684823 103.06304,28.6511892 C103.255716,28.1337357 103.831337,27.8705205 104.348771,28.0630427" id="Fill-9" fill="#58ADC4"></path>
                                <path d="M264,79.1521542 L266.868925,83 L269,79 L264,79.1521542 Z M266.506848,85 C266.323057,85 266.149645,84.9103508 266.043219,84.7579093 L262.102468,79.1156828 C261.983211,78.9450845 261.966794,78.7226637 262.059822,78.5365565 C262.15285,78.3502601 262.340226,78.2299713 262.547793,78.2233516 L269.415615,78.0003634 C269.613559,77.9931763 269.803011,78.0930387 269.910757,78.2613674 C270.018125,78.4296961 270.029447,78.642282 269.940193,78.8212022 L267.013312,84.6862278 C266.923869,84.8651479 266.747437,84.9837345 266.548551,84.9984869 C266.534587,84.9994326 266.520623,85 266.506848,85 L266.506848,85 Z" id="Fill-11" fill="#58ADC4"></path>
                                <path d="M170.479567,21 C170.446994,21 170.414101,20.9960478 170.381048,20.9879552 C170.122056,20.9241557 169.955994,20.6249188 170.010284,20.3196596 L171.051841,14.4487832 C171.106131,14.1437121 171.359694,13.9489259 171.618846,14.0117844 C171.877838,14.075584 172.0439,14.3748208 171.98977,14.6800801 L170.948053,20.5507683 C170.900789,20.8168821 170.701515,21 170.479567,21" id="Fill-13" fill="#000000"></path>
                                <path d="M264.605532,63 C264.439471,63 264.274015,62.9382019 264.154564,62.8169897 C263.9314,62.5907023 263.952385,62.242836 264.201376,62.0402043 L268.990716,58.1403238 C269.239707,57.9378755 269.622273,57.9565799 269.845436,58.1828673 C270.0686,58.409338 270.047615,58.7570209 269.798624,58.959836 L265.009284,62.8595332 C264.893667,62.9536056 264.749398,63 264.605532,63" id="Fill-15" fill="#000000"></path>
                                <path d="M205.844529,12.5352461 C205.548884,13.0016511 204.931139,13.1401777 204.464744,12.844526 C203.998349,12.5488743 203.859825,11.9311161 204.155471,11.4647111 C204.451116,10.9983061 205.068861,10.8597795 205.535256,11.1555915 C206.001651,11.4510829 206.140175,12.0688411 205.844529,12.5352461" id="Fill-17" fill="#58ADC4"></path>
                                <path d="M201.844532,15.5352461 C201.548893,16.0016511 200.93116,16.1401777 200.464774,15.844526 C199.998228,15.5488743 199.859867,14.9311161 200.155507,14.4647111 C200.451146,13.9983061 201.068879,13.8597795 201.535265,14.1555915 C202.001651,14.4510829 202.140172,15.0688411 201.844532,15.5352461" id="Fill-19" fill="#58ADC4"></path>
                                <path d="M113.495138,1 C113.035548,1 112.583924,1.12743017 112.183415,1.37565352 C111.615843,1.72719266 111.219096,2.27872636 111.066416,2.92870872 C110.751541,4.27026524 111.586635,5.61801627 112.928451,5.93283074 L112.928451,5.93283074 C113.578337,6.08548147 114.249024,5.97597116 114.816596,5.62443203 C115.384168,5.27267166 115.780916,4.72113796 115.933596,4.07137683 C116.248471,2.72959908 115.413155,1.38206928 114.071561,1.06725481 C113.880157,1.02234453 113.686984,1 113.495138,1 M113.506677,7 C113.238182,7 112.967866,6.96864656 112.699777,6.90593968 L112.699979,6.90593968 C110.821326,6.4649687 109.651847,4.5780984 110.093133,2.70012842 C110.306796,1.7902718 110.861995,1.01796575 111.656553,0.525817863 C112.451313,0.0336699805 113.390336,-0.11945618 114.300223,0.093747219 C116.178673,0.534718195 117.348153,2.4215885 116.906866,4.29955847 C116.693204,5.2094151 116.138005,5.98151887 115.343244,6.47386903 C114.782582,6.82118425 114.150093,7 113.506677,7" id="Fill-21" fill="#EA5B25"></path>
                                <g id="Group-25" transform="translate(0.000000, 52.000000)">
                                    <mask id="mask-2" fill="white">
                                        <use xlink:href="#path-1"></use>
                                    </mask>
                                    <g id="Clip-24"></g>
                                    <path d="M2,1.07611979 L3.72147059,3 L5,1 L2,1.07611979 Z M3.35463126,5 C3.16093836,5 2.97818294,4.91107119 2.86602401,4.75953501 L0.107988236,1.03467772 C-0.0176934004,0.865092553 -0.0349945117,0.643992605 0.0630451191,0.458990608 C0.16108475,0.2738006 0.358556055,0.154226139 0.577305738,0.147645783 L5.38403173,0.000245817713 C5.59442915,-0.00558249724 5.79229819,0.0925588062 5.90584916,0.259699838 C6.01920127,0.427216891 6.0309342,0.638540311 5.9370707,0.816209912 L3.88838049,4.68827915 C3.79431813,4.86594876 3.60818203,4.98383113 3.39858006,4.99849592 C3.38386417,4.99943597 3.36934715,5 3.35463126,5 L3.35463126,5 Z" id="Fill-23" fill="#58ADC4" mask="url(#mask-2)"></path>
                                </g>
                                <path d="M23.4675954,2.15364954 C23.9350928,1.8596153 24.5523304,2.00021946 24.84636,2.46756395 C25.1403896,2.93490845 24.9997876,3.55231622 24.5322903,3.84635046 C24.0649532,4.1403847 23.4475552,3.99978054 23.153686,3.53243605 C22.8596564,3.06493123 23.000098,2.44768378 23.4675954,2.15364954" id="Fill-26" fill="#000000"></path>
                                <path d="M29.4675954,2.15363121 C29.9350928,1.85961846 30.5523304,2.00021234 30.84636,2.46768301 C31.1403896,2.93499336 30.9997876,3.55235603 30.5322903,3.84636879 C30.0649532,4.14038154 29.4475552,3.99978766 29.153686,3.53231699 C28.8596564,3.06500664 29.000098,2.44764397 29.4675954,2.15363121" id="Fill-28" fill="#000000"></path>
                                <path d="M255,13 L255.548943,16 L258,14.2125761 L255,13 Z M255.484895,17 C255.410765,17 255.336228,16.9871226 255.26495,16.9613677 C255.063944,16.8879471 254.918943,16.7205404 254.882692,16.5200753 L254.008613,11.6731627 C253.971141,11.4646251 254.057693,11.2532045 254.234057,11.1227004 C254.410421,10.9921962 254.648695,10.9635583 254.854385,11.04755 L259.632496,13.0064576 C259.830039,13.0875663 259.967709,13.2607389 259.994998,13.4621651 C260.022492,13.6635912 259.935328,13.8638642 259.765889,13.9893711 L255.861857,16.8771839 C255.752699,16.9579081 255.61951,17 255.484895,17 L255.484895,17 Z" id="Fill-30" fill="#000000"></path>
                            </g>
                            <g id="Group-201" transform="translate(0.000000, 0.000000)">
                                <path d="M140.404828,94 C139.438285,94 138.467718,93.9733093 137.490827,93.9203291 C130.208891,93.5237809 122.631607,91.6624523 114,88.1198073 L117.693099,86.3810957 C130.72829,91.3513947 145.564894,93.7389123 161.837607,86 L165,87.7623921 C156.994739,91.9458158 148.889431,94 140.404828,94" id="Fill-33" fill="#58ADC4"></path>
                                <path d="M141.840436,100 C140.382433,100 138.917916,99.9617426 137.444394,99.8856085 C127.601245,99.3774136 117.393116,97.1862747 106,93.0902612 L108.564055,91 C126.315481,97.1995982 146.209656,100.257333 167.874125,92.6477318 L168,95.6512213 C159.462348,98.5625886 150.790582,100 141.840436,100" id="Fill-35" fill="#58ADC4"></path>
                                <path d="M142.353993,109 C140.892207,109 139.423889,108.959604 137.946544,108.87861 C133.798604,108.651989 130.389241,107.13674 126.050943,106.261563 L121,103.210665 C135.769039,106.945062 151.824104,107.515047 168.982136,101 L169,104.23268 C160.305155,107.424561 151.473736,109 142.353993,109" id="Fill-37" fill="#58ADC4"></path>
                                <path d="M234,106 C234,107.10441 233.104578,108 231.999892,108 C230.895422,108 230,107.10441 230,106 C230,104.89559 230.895422,104 231.999892,104 C233.104578,104 234,104.89559 234,106" id="Fill-39" fill="#EA5B25"></path>
                                <path d="M256,105.000108 C256,106.104578 255.104578,107 254.000108,107 C252.895422,107 252,106.104578 252,105.000108 C252,103.895422 252.895422,103 254.000108,103 C255.104578,103 256,103.895422 256,105.000108" id="Fill-41" fill="#EA5B25"></path>
                                <path d="M224.706868,80 C221.743318,80 218.89682,79.1113983 216.592862,77.3927778 C213.674101,75.2153558 212,71.9801575 212,68.5166219 L212,45.5800272 C212,45.2594655 212.252733,45 212.564557,45 C212.876193,45 213.129115,45.2594655 213.129115,45.5800272 L213.129115,68.5166219 C213.129115,71.6042999 214.633284,74.4972821 217.256217,76.4539071 C220.530085,78.8960149 225.017751,79.5065902 229.260399,78.0876504 C229.557168,77.9886591 229.875579,78.1553202 229.972118,78.4596411 C230.068657,78.7641554 229.906441,79.0916774 229.610048,79.1906687 C227.987699,79.7333808 226.329594,80 224.706868,80" id="Fill-43" fill="#000000"></path>
                                <path d="M234.420291,50 C232.809335,50 231.311742,48.8458725 231.010915,47.3722858 C230.949518,47.0711607 231.153341,46.7791101 231.466294,46.7200333 C231.7779,46.6592898 232.082576,46.8568915 232.144166,47.1580166 C232.338943,48.1125052 233.359985,48.8888374 234.420291,48.8888374 C235.757365,48.8888374 236.845193,47.8423075 236.845193,46.5555813 C236.845193,46.2487152 237.103677,46 237.422596,46 C237.741516,46 238,46.2487152 238,46.5555813 C238,48.4547433 236.394048,50 234.420291,50" id="Fill-45" fill="#000000"></path>
                                <path d="M215.262733,48 C212.912283,48 211,45.9812343 211,43.4999033 C211,41.0185723 212.912283,39 215.262733,39 C215.289122,39 215.315144,39.0013542 215.340983,39.0032888 C215.642257,39.0257303 215.879025,39.3014123 215.859966,39.6196556 C215.840724,39.9377056 215.591862,40.1830141 215.289671,40.1628942 C215.286556,40.1627007 215.264749,40.1621203 215.26255,40.161153 C213.517946,40.161153 212.09954,41.6589282 212.09954,43.4999033 C212.09954,45.3412652 213.518496,46.8392339 215.262733,46.8392339 C216.385546,46.8392339 217.400788,46.2313794 217.978596,45.213194 C218.134548,44.9380925 218.472106,44.8487135 218.732881,45.0135423 C218.993105,45.1783711 219.07777,45.5347263 218.921818,45.8098278 C218.155072,47.1607661 216.752976,48 215.262733,48" id="Fill-47" fill="#000000"></path>
                                <path d="M228.25829,50 C226.586737,50 225.14297,49.0935841 224.487739,47.7918186 C223.80458,48.5225837 222.788258,48.9782287 221.681219,48.9782287 C219.685814,48.9782287 218,47.404412 218,45.5415749 C218,45.242445 218.266014,45 218.594224,45 C218.922434,45 219.188448,45.242445 219.188448,45.5415749 C219.188448,46.8171643 220.329953,47.8950789 221.681219,47.8950789 C222.860555,47.8950789 223.887771,47.1321804 224.123678,46.0813445 C224.184091,45.8121818 224.457632,45.6280464 224.756725,45.6502509 C225.057006,45.6738997 225.290536,45.8986533 225.299648,46.1734123 L225.300836,46.2051847 C225.301034,47.7078745 226.627739,48.9168502 228.25829,48.9168502 C229.36216,48.9168502 230.366399,48.3628191 230.879412,47.4710257 C231.03193,47.2058346 231.391237,47.103838 231.681615,47.2428422 C231.972191,47.3816659 232.084301,47.7091382 231.931981,47.9737878 C231.213168,49.2235621 229.805451,50 228.25829,50" id="Fill-49" fill="#000000"></path>
                                <path d="M239.18639,79 C238.502019,79 237.837737,78.8648616 237.211911,78.5980549 C236.919948,78.4737122 236.783342,78.1344204 236.906747,77.8400463 C237.030343,77.5458649 237.367267,77.4078348 237.659039,77.5329487 C238.142518,77.7388371 238.656418,77.8433235 239.18639,77.8433235 C241.179619,77.8433235 242.914367,76.3022449 243.135731,74.3347382 C243.159073,74.1280787 243.290704,73.9499505 243.480308,73.8680192 C243.670103,73.7862808 243.888979,73.8136554 244.053328,73.9393476 C244.818056,74.5246259 245.731635,74.8342296 246.695342,74.8342296 C249.106426,74.8342296 251.068086,72.8576623 251.068086,70.4282561 C251.068086,69.1250673 250.499084,67.895713 249.507253,67.0553875 C249.289333,66.8707048 249.238823,66.5531971 249.388248,66.3089456 C249.537865,66.0646941 249.842263,65.9679188 250.103997,66.0816587 C250.709351,66.3448026 251.352778,66.4780132 252.016104,66.4780132 C254.682607,66.4780132 256.852047,64.2920874 256.852047,61.6055135 C256.852047,59.3156796 255.240512,57.3107737 253.020371,56.8384641 C252.764378,56.7841004 252.577453,56.5620185 252.565399,56.2988746 C252.553537,56.0355379 252.719799,55.7976481 252.969861,55.7197652 C254.866662,55.1306313 256.141081,53.3892549 256.141081,51.3874334 C256.141081,49.2795833 254.660413,47.4188764 252.62031,46.9627603 C252.397224,46.9130232 252.22484,46.7347023 252.181218,46.508572 C252.137595,46.2826346 252.231154,46.0522632 252.419418,45.9217515 C253.808632,44.9592039 254.638028,43.3726293 254.638028,41.6775199 C254.638028,38.8394214 252.346332,36.5303096 249.529446,36.5303096 C248.610127,36.5303096 247.708219,36.7797661 246.921488,37.2518829 C246.696298,37.3866357 246.408545,37.3509715 246.222768,37.1647466 C246.036991,36.9781362 246.000256,36.6887743 246.133419,36.4611018 C246.76728,35.3786454 247.102291,34.1402304 247.102291,32.8798386 C247.102291,28.9866583 243.958813,25.8194853 240.095186,25.8194853 C237.461973,25.8194853 235.074805,27.2867295 233.865245,29.6488556 C233.742797,29.8879021 233.473219,30.0101242 233.213782,29.9440009 C232.954727,29.877492 232.775455,29.6399878 232.781386,29.3708677 L232.783491,29.3018527 C232.784448,29.2737069 232.785404,29.2455611 232.785404,29.2172225 C232.785404,25.3238495 229.642118,22.1566765 225.778299,22.1566765 C222.574936,22.1566765 219.783497,24.3373972 218.989879,27.4598454 C218.933056,27.6844334 218.748618,27.8529226 218.521323,27.8880085 C218.294028,27.9232871 218.067882,27.8186079 217.946581,27.6219729 C216.978283,26.0533268 215.308011,25.1168044 213.478557,25.1168044 C210.57921,25.1168044 208.220358,27.4935818 208.220358,30.4151538 C208.220358,31.1241965 208.357347,31.8129973 208.627499,32.4618928 C208.719144,32.6820469 208.666912,32.9365157 208.49625,33.1021133 C208.325587,33.267518 208.071698,33.3110861 207.856457,33.2100697 C207.301996,32.9507814 206.710035,32.8191131 206.097219,32.8191131 C203.79079,32.8191131 201.91427,34.7098936 201.91427,37.0338494 C201.91427,38.5086119 202.660057,39.8515133 203.90903,40.6257154 C204.127715,40.7612394 204.230456,41.0265038 204.160623,41.2755748 C204.090789,41.5244531 203.865216,41.6964123 203.608457,41.6966051 C201.700368,41.697569 200.147953,43.2625523 200.147953,45.1851414 C200.147953,46.8237664 201.255536,48.2214171 202.841433,48.5840352 C203.063945,48.6347362 203.235373,48.8136355 203.278229,49.039573 C203.320895,49.2653177 203.226954,49.4951107 203.038881,49.625044 C202.334803,50.1110409 201.91427,50.9131961 201.91427,51.7702934 C201.91427,53.1681369 203.01554,54.3118971 204.389831,54.3668393 C204.546526,54.3352235 204.715275,54.3708876 204.850734,54.4755669 C205.079176,54.6527312 205.142122,54.9729378 204.99748,55.2243221 C204.967251,55.2767581 204.928986,55.3243746 204.884598,55.3654366 C204.078161,56.1897614 203.634478,57.2795434 203.634478,58.4381477 C203.634478,60.851746 205.583128,62.8153971 207.978523,62.8153971 C208.278139,62.8153971 208.577563,62.7845524 208.86876,62.7232485 C209.133938,62.6684992 209.400454,62.8061437 209.510275,63.0548291 C209.560785,63.1697257 209.571499,63.2938756 209.547009,63.4101216 C209.543183,63.4756666 209.54127,63.5415971 209.54127,63.6082988 C209.54127,65.1950662 210.663011,66.5549322 212.208538,66.8421735 C212.520399,66.8998145 212.726456,67.2015143 212.668867,67.5157448 C212.61147,67.8297824 212.312428,68.0375986 212.000376,67.979572 C210.023984,67.61252 208.559961,65.9486409 208.406518,63.9553018 C208.264172,63.966483 208.121443,63.9720736 207.978523,63.9720736 C204.950223,63.9720736 202.486525,61.4894603 202.486525,58.4381477 C202.486525,57.32716 202.809291,56.2661021 203.410053,55.3638944 C201.881745,54.8950549 200.766317,53.4613544 200.766317,51.7702934 C200.766317,50.8860142 201.07569,50.0426043 201.622307,49.3769369 C200.039471,48.6227839 199,47.0169314 199,45.1851414 C199,43.1035093 200.366638,41.3366859 202.243541,40.7483232 C201.302411,39.7624492 200.766317,38.4457658 200.766317,37.0338494 C200.766317,34.0719865 203.157694,31.6624366 206.097219,31.6624366 C206.477383,31.6624366 206.851042,31.7021492 207.216091,31.7809959 C207.120619,31.3352899 207.072405,30.8785955 207.072405,30.4151538 C207.072405,26.8558675 209.946306,23.9601279 213.478557,23.9601279 C215.321021,23.9601279 217.030706,24.7393423 218.234335,26.0887982 C219.474315,23.0434618 222.433355,21 225.778299,21 C229.750025,21 233.067801,23.8756905 233.788332,27.669011 C235.318362,25.7828573 237.612738,24.6628089 240.095186,24.6628089 C244.591909,24.6628089 248.250244,28.348944 248.250244,32.8798386 C248.250244,33.8186743 248.090487,34.7471 247.782071,35.6242463 C248.346863,35.4588416 248.935189,35.3736331 249.529446,35.3736331 C252.979236,35.3736331 255.785981,38.2015143 255.785981,41.6775199 C255.785981,43.3847744 255.099314,45.0020009 253.909652,46.1779553 C255.918379,47.0724518 257.289034,49.115528 257.289034,51.3874334 C257.289034,53.3861704 256.276923,55.1776695 254.664049,56.1994004 C256.660339,57.1979978 258,59.2834855 258,61.6055135 C258,64.9299945 255.315703,67.6346897 252.016104,67.6346897 C251.827457,67.6346897 251.640149,67.6260146 251.454372,67.6084717 C251.948183,68.453231 252.216039,69.4232971 252.216039,70.4282561 C252.216039,73.4953766 249.739522,75.9909061 246.695342,75.9909061 C245.776405,75.9909061 244.893438,75.7676676 244.100011,75.3400828 C243.470359,77.4778137 241.493393,79 239.18639,79" id="Fill-51" fill="#000000"></path>
                                <path d="M238.115537,62 C236.961109,62 235.874016,61.4757286 235.132947,60.5615439 C234.930368,60.3114887 234.962987,59.9400398 235.205623,59.7314312 C235.448068,59.5228227 235.808779,59.5560193 236.011548,59.8060746 C236.534588,60.4513468 237.301409,60.8214207 238.115537,60.8214207 C239.626289,60.8214207 240.855491,59.5558229 240.855491,58.0000982 C240.855491,56.4443735 239.626289,55.1785793 238.115537,55.1785793 C237.301409,55.1785793 236.534588,55.5486532 236.011548,56.1939254 C235.80897,56.4435878 235.448068,56.4773737 235.205623,56.2685688 C234.962987,56.0601567 234.930368,55.6885113 235.132947,55.4386525 C235.874016,54.5242714 236.961109,54 238.115537,54 C240.257485,54 242,55.794387 242,58.0000982 C242,60.205613 240.257485,62 238.115537,62" id="Fill-53" fill="#000000"></path>
                                <path d="M236.348738,56 C236.287941,56 236.22606,55.9921003 236.164612,55.9757085 C234.776942,55.604622 233.717136,54.7060356 233.25704,53.5102244 C232.73072,52.1420032 233.020804,50.5899174 234.0526,49.2521098 C234.259307,48.9843113 234.665555,48.9197316 234.959982,49.1073485 C235.254408,49.2953605 235.325844,49.6646696 235.119137,49.9324681 C234.331176,50.9540917 234.100803,52.1153418 234.486641,53.1187962 C234.811031,53.9622825 235.537544,54.5729263 236.532211,54.8389474 C236.877229,54.9311759 237.074816,55.2605918 236.973417,55.5744058 C236.89004,55.8325272 236.630137,56 236.348738,56" id="Fill-55" fill="#000000"></path>
                                <path d="M230.727423,88 C228.019778,88 225.470163,87.2974709 224.156673,85.8987801 C224.056038,85.7916932 224,85.6504541 224,85.5036196 L224,79.299136 C224,78.9794187 224.26041,78.7202876 224.581705,78.7202876 C224.902807,78.7202876 225.163411,78.9794187 225.163411,79.299136 L225.163411,85.2628186 C227.299627,87.2195193 233.587668,87.4973666 237.200834,85.1947075 L237.200834,70.1110746 C237.200834,69.9939542 237.236706,69.8795352 237.303408,69.7828675 L238.443938,68.1341142 C237.237481,67.6449872 236.366474,66.2736953 236.366474,64.66276 C236.366474,62.6431578 237.735615,61 239.418295,61 C239.73959,61 240,61.2591312 240,61.5788484 C240,61.8987587 239.73959,62.1576969 239.418295,62.1576969 C238.377042,62.1576969 237.529885,63.2816276 237.529885,64.66276 C237.529885,66.0438924 238.377042,67.1676302 239.418295,67.1676302 C239.634301,67.1676302 239.832663,67.286873 239.933104,67.4773141 C240.033739,67.6675623 240.019972,67.8975581 239.897426,68.0746857 L238.364245,70.2910965 L238.364245,85.5036196 C238.364245,85.6927101 238.271559,85.8698377 238.115856,85.9780824 C236.175287,87.327957 233.375733,88 230.727423,88" id="Fill-57" fill="#000000"></path>
                                <path d="M224.439614,66 L221.560353,66 C221.40139,66 221.250086,65.9332515 221.143799,65.8163955 C221.037513,65.6995394 220.986331,65.5432999 221.003142,65.3870604 L222.165195,54.4965192 C222.197698,54.1918059 222.473408,53.970482 222.781433,54.0032091 C223.089272,54.0353815 223.312305,54.3084771 223.279803,54.6131903 L222.182941,64.890607 L224.439614,64.890607 C224.749134,64.890607 225,65.1389261 225,65.4453035 C225,65.7516809 224.749134,66 224.439614,66" id="Fill-59" fill="#000000"></path>
                                <path d="M216.5,56 C216.223833,56 216,55.7001786 216,55.3302575 L216,53.6697425 C216,53.2995982 216.223833,53 216.5,53 C216.776167,53 217,53.2995982 217,53.6697425 L217,55.3302575 C217,55.7001786 216.776167,56 216.5,56" id="Fill-61" fill="#000000"></path>
                                <path d="M228.5,57 C228.223833,57 228,56.7002009 228,56.3303073 L228,54.6696927 C228,54.2995759 228.223833,54 228.5,54 C228.776167,54 229,54.2995759 229,54.6696927 L229,56.3303073 C229,56.7002009 228.776167,57 228.5,57" id="Fill-63" fill="#000000"></path>
                                <path d="M218.415997,51 C218.325766,51 218.234368,50.9736517 218.148609,50.9180287 C217.115031,50.2481135 215.59607,50.3705816 214.87908,50.8987558 C214.600996,51.1041705 214.243765,50.9868255 214.08061,50.638938 C213.91726,50.2903186 214.010019,49.8416754 214.287909,49.6369927 C215.429609,48.7950854 217.401866,48.7867907 218.684164,49.6177198 C218.970609,49.8031297 219.082621,50.244698 218.934828,50.6038077 C218.831179,50.8553309 218.627186,51 218.415997,51" id="Fill-65" fill="#000000"></path>
                                <path d="M231.414171,52 C231.30689,52 231.198438,51.967337 231.101299,51.8983091 C230.115674,51.2001913 228.589545,51.1583826 227.835843,51.5573071 C227.543842,51.7114766 227.194884,51.5725498 227.056588,51.2467905 C226.918098,50.9208135 227.042544,50.5312524 227.334545,50.3766474 C228.534343,49.7412426 230.505594,49.9289462 231.728214,50.7951697 C232.001099,50.9883171 232.082048,51.3920321 231.908837,51.6966693 C231.797459,51.8928653 231.607863,52 231.414171,52" id="Fill-67" fill="#000000"></path>
                                <path d="M225.578516,70 C225.319763,70 225.083971,69.8065897 225.017787,69.5162609 C224.939448,69.1734166 225.127193,68.825022 225.437079,68.7385638 C228.173573,67.9732484 229.617651,66.9216601 229.851899,65.5235986 C229.910171,65.1758444 230.212533,64.9469969 230.526664,65.0106131 C230.840988,65.0752967 231.048608,65.4093883 230.990143,65.7571425 C230.66482,67.6982899 228.941342,69.0794867 225.720917,69.9801466 C225.673257,69.9935957 225.625597,70 225.578516,70" id="Fill-69" fill="#000000"></path>
                                <path d="M229,59.5 C229,59.7760498 228.77617,60 228.500078,60 C228.22383,60 228,59.7760498 228,59.5 C228,59.2239502 228.22383,59 228.500078,59 C228.77617,59 229,59.2239502 229,59.5" id="Fill-71" fill="#000000"></path>
                                <path d="M229,62.5 C229,62.7760498 228.77617,63 228.499922,63 C228.22383,63 228,62.7760498 228,62.5 C228,62.2239502 228.22383,62 228.499922,62 C228.77617,62 229,62.2239502 229,62.5" id="Fill-73" fill="#000000"></path>
                                <path d="M227,62.5 C227,62.7760498 226.77617,63 226.499922,63 C226.22383,63 226,62.7760498 226,62.5 C226,62.2239502 226.22383,62 226.499922,62 C226.77617,62 227,62.2239502 227,62.5" id="Fill-75" fill="#000000"></path>
                                <path d="M218,59.5000778 C218,59.7761705 217.77617,60 217.500078,60 C217.22383,60 217,59.7761705 217,59.5000778 C217,59.2239851 217.22383,59 217.500078,59 C217.77617,59 218,59.2239851 218,59.5000778" id="Fill-77" fill="#000000"></path>
                                <path d="M219,62.5 C219,62.7760498 218.77617,63 218.500078,63 C218.22383,63 218,62.7760498 218,62.5 C218,62.2239502 218.22383,62 218.500078,62 C218.77617,62 219,62.2239502 219,62.5" id="Fill-79" fill="#000000"></path>
                                <path d="M215,62.4999222 C215,62.7760149 214.77617,63 214.500078,63 C214.22383,63 214,62.7760149 214,62.4999222 C214,62.2238295 214.22383,62 214.500078,62 C214.77617,62 215,62.2238295 215,62.4999222" id="Fill-81" fill="#000000"></path>
                                <path d="M263.42243,107 C263.163737,107 262.928509,106.82182 262.863115,106.555234 C261.347886,100.378966 258.515919,95.5442335 254.445689,92.1848194 C250.232552,88.7078571 244.543231,86.684698 237.535634,86.1720627 C237.217893,86.1487878 236.978626,85.8679239 237.001514,85.544813 C237.024402,85.221311 237.30079,84.9787822 237.618531,85.0014704 C244.866549,85.5317086 250.772634,87.6420998 255.172914,91.273772 C259.441636,94.7966974 262.405738,99.8426642 263.982707,106.270849 C264.059834,106.58555 263.871729,106.903966 263.562644,106.982397 C263.515714,106.994328 263.468783,107 263.42243,107" id="Fill-83" fill="#000000"></path>
                                <path d="M202.578365,99 C202.511665,99 202.444001,98.9879092 202.377879,98.9629346 C202.078307,98.8489635 201.925244,98.5070502 202.036089,98.1988327 C203.563059,93.9537558 206.485719,90.8107299 210.97082,88.5897799 C215.393654,86.3997507 220.72253,85.4949193 224.34612,85.0049426 C224.663042,84.9631202 224.953361,85.1912606 224.995,85.5169206 C225.03664,85.8425807 224.813599,86.1410859 224.497063,86.1840976 C215.709612,87.3723703 206.298149,89.778449 203.120833,98.6115072 C203.03447,98.8515402 202.81355,99 202.578365,99" id="Fill-85" fill="#000000"></path>
                                <path d="M244,91 C244,92.1044626 243.104664,93 242,93 C240.895537,93 240,92.1044626 240,91 C240,89.8955374 240.895537,89 242,89 C243.104664,89 244,89.8955374 244,91" id="Fill-87" fill="#EA5B25"></path>
                                <path d="M255,95.9998919 C255,97.1045776 254.104578,98 253.000108,98 C251.895422,98 251,97.1045776 251,95.9998919 C251,94.8954224 251.895422,94 253.000108,94 C254.104578,94 255,94.8954224 255,95.9998919" id="Fill-89" fill="#EA5B25"></path>
                                <path d="M243,101 C243,102.10441 242.104578,103 240.999892,103 C239.895422,103 239,102.10441 239,101 C239,99.8955901 239.895422,99 240.999892,99 C242.104578,99 243,99.8955901 243,101" id="Fill-91" fill="#EA5B25"></path>
                                <path d="M232,95 C232,96.1044626 231.104664,97 230,97 C228.895336,97 228,96.1044626 228,95 C228,93.8955374 228.895336,93 230,93 C231.104664,93 232,93.8955374 232,95" id="Fill-93" fill="#EA5B25"></path>
                                <path d="M223,99.9998993 C223,101.104306 222.104664,102 221,102 C219.895336,102 219,101.104306 219,99.9998993 C219,98.8954923 219.895336,98 221,98 C222.104664,98 223,98.8954923 223,99.9998993" id="Fill-95" fill="#EA5B25"></path>
                                <path d="M220,91 C220,92.1044626 219.104463,93 218,93 C216.895336,93 216,92.1044626 216,91 C216,89.8955374 216.895336,89 218,89 C219.104463,89 220,89.8955374 220,91" id="Fill-97" fill="#EA5B25"></path>
                                <path d="M209,100.000101 C209,101.104508 208.104664,102 207,102 C205.895336,102 205,101.104508 205,100.000101 C205,98.8956938 205.895336,98 207,98 C208.104664,98 209,98.8956938 209,100.000101" id="Fill-99" fill="#EA5B25"></path>
                                <path d="M227.49697,91 C226.922389,91 226.322187,90.8133849 225.703117,90.4412732 C224.130716,89.4958932 223.234385,88.4407067 223.038952,87.3055423 C222.828425,86.0820108 223.538458,85.2423359 223.568846,85.2072873 C223.775798,84.96754 224.150974,84.9300678 224.406983,85.1246994 C224.662595,85.3191445 224.70192,85.6713083 224.494769,85.9114285 C224.482058,85.9270885 224.084638,86.4207517 224.219097,87.1481965 C224.365076,87.9375357 225.100532,88.7507377 226.345822,89.4992489 C226.973233,89.8767671 227.508688,89.9718457 227.982573,89.7902641 C229.041963,89.3847817 229.670368,87.6821283 229.823298,87.0603886 C229.896982,86.7596791 230.217143,86.5719454 230.537105,86.6407376 C230.857464,86.7097162 231.058061,87.0089343 230.984972,87.3098302 C230.91526,87.5961847 230.252694,90.1267679 228.435406,90.8249434 C228.131333,90.9418342 227.818123,91 227.49697,91" id="Fill-101" fill="#000000"></path>
                                <path d="M233.606553,91 C233.303731,91 233.00614,90.9478954 232.714748,90.8431299 C230.850734,90.1744852 230.054639,87.5327266 230.021896,87.4205442 C229.934905,87.1249757 230.114893,86.8175401 230.423916,86.7344694 C230.73255,86.651955 231.053391,86.8234737 231.140576,87.1186713 C231.323083,87.7333571 232.0349,89.4125714 233.124518,89.8021506 C233.615078,89.9771924 234.151169,89.8766917 234.762626,89.4939733 C235.969847,88.7383639 236.679144,87.9230475 236.813603,87.1364721 C236.937599,86.4118289 236.545073,85.924345 236.528411,85.9041336 C236.331373,85.6647491 236.370122,85.3155927 236.617727,85.1242335 C236.86572,84.9330597 237.225891,84.9656946 237.428741,85.200258 C237.458578,85.2349326 238.159545,86.063785 237.966382,87.2824021 C237.787168,88.4134983 236.923262,89.4707951 235.398882,90.4249952 C234.787231,90.8080845 234.187399,91 233.606553,91" id="Fill-103" fill="#000000"></path>
                                <mask id="mask-4" fill="white">
                                    <use xlink:href="#path-3"></use>
                                </mask>
                                <g id="Clip-106"></g>
                                <path d="M129.6987,22 C121.028477,22 114,30.7343287 114,41.508305 C123.544681,45.1498476 136.61321,44.6447335 148,41.0031909 C148,30.2290226 138.368922,22 129.6987,22" id="Fill-108" fill="#000000" mask="url(#mask-4)"></path>
                                <path d="M114,41.6795406 C122.922036,44.9529953 135.48116,44.751668 147,41.1478894 C146.886408,36.3947464 144.854441,31.8601432 141.248972,28.3364314 C137.829896,24.9950939 133.322914,23 129.192815,23 C120.920126,23 114.170193,31.3429969 114,41.6795406 L114,41.6795406 Z M128.640259,45 C123.028379,45 117.755055,44.1690057 113.371021,42.4986231 C113.147442,42.4133489 113,42.2012126 113,41.9646578 C113,30.9562722 120.269492,22 129.204906,22 C138.07713,22 148,30.3232972 148,41.4623602 C148,41.7105521 147.837872,41.9305099 147.598641,42.006818 C141.363368,43.9984573 134.798235,45 128.640259,45 L128.640259,45 Z" id="Fill-109" fill="#000000" mask="url(#mask-4)"></path>
                                <path d="M128,22.7175077 C141.111271,17.0561318 160.104456,19.5068032 161.447248,37.0850331 C161.545945,38.378443 162.536994,39.439395 163.822583,39.6378158 C168.123977,40.3025063 170.524908,42.9361272 169.130538,47.2607732 C168.690567,48.6253516 168.959901,50.1305265 169.885216,51.2272561 C171.238285,52.8312546 173.034814,54.0573639 175.360898,54.8322882 C177.145017,55.4265837 177.576262,57.7695355 176.138457,58.979013 C167.37977,66.3468855 157.471808,69.2011673 146.71338,70.825472 C140.631357,71.7437003 138.832113,68.8660179 141.263487,66.2304631 C141.006175,66.5093353 139.663577,63.4517978 139.554021,63.0607579 C138.672335,59.9165805 140.728503,55.9396544 144.282005,55.9446826 C147.223156,51.8602302 146.497951,46.899129 144.198238,41.5614923 L142.437387,39.1363487 L128,22.7175077 Z" id="Fill-110" fill="#000000" mask="url(#mask-4)"></path>
                                <path d="M141.357169,65.2432907 C141.432655,65.2685121 141.504299,65.3100304 141.566531,65.3678456 C141.800671,65.5855256 141.815845,65.9539519 141.600337,66.1902569 C140.778638,67.0924065 140.513382,68.0013466 140.872755,68.6840702 C141.344876,69.5813695 143.068177,70.353144 146.488655,69.8304793 C155.567866,68.4423328 166.097054,65.9601602 175.350861,58.0767302 C175.863126,57.6402062 176.092848,56.9784357 175.965502,56.3061887 C175.840077,55.6446123 175.393118,55.1238876 174.769449,54.9135801 C172.441688,54.1280308 170.529769,52.8516345 169.087091,51.1198952 C168.046043,49.8698844 167.726237,48.1757831 168.231972,46.5878057 C168.788414,44.8395755 168.711968,43.3660643 168.00417,42.2078206 C167.208978,40.9065909 165.628774,40.0372291 163.434313,39.6938302 C161.906353,39.455003 160.712221,38.1543554 160.595055,36.601882 C160.136379,30.5192591 157.445787,25.8115899 152.814273,22.9879585 C149.607767,21.0329129 145.528086,20 141.013546,20 L140.946704,20 C136.959604,20.0091185 132.748927,20.8470506 129,22.3692584 L142.772381,38.2317657 C142.784289,38.2453464 142.79543,38.2595092 142.805994,38.274254 L144.550038,40.707148 C144.575008,40.7418759 144.595944,40.7793199 144.612847,40.8187041 C147.342046,47.2336673 147.348768,51.9995396 144.634359,55.8170878 C144.526221,55.9693862 144.351816,56.0596011 144.166464,56.0596011 C144.164159,56.0597952 144.162238,56.0596011 144.159933,56.0596011 C142.908754,56.0596011 141.77282,56.6536619 140.960726,57.7333313 C139.969809,59.0504698 139.607747,60.9055999 140.037996,62.4598195 C140.134994,62.8036064 140.989537,64.7314906 141.357169,65.2432907 M144.076415,71 C141.771883,71 140.139539,70.3352341 139.470251,69.079351 C138.934125,68.0735263 139.128939,66.8735544 139.996134,65.7248668 C139.819873,65.4638189 139.599547,65.065692 139.30346,64.4508607 C138.966014,63.7498489 138.607888,62.9140716 138.537538,62.6624708 C138.002185,60.7530041 138.432013,58.5657161 139.659461,56.9543144 C140.636045,55.6718252 141.990663,54.9301331 143.499702,54.842603 C145.796889,51.4578496 145.7047,47.1625135 143.217144,41.3608502 L141.515996,39.0170107 L127.143791,22.6691298 C127.021645,22.52993 126.973521,22.3409884 127.014108,22.1607227 C127.054694,21.9802642 127.179352,21.8302677 127.349428,21.7568119 C131.442658,19.9888585 136.136372,19.0100255 140.566082,19 L140.635659,19 C145.390059,19 149.701682,20.0835221 153.109196,22.135659 C158.104023,25.1433005 161.004014,30.1334789 161.495302,36.5669397 C161.572609,37.5797051 162.362497,38.428207 163.37329,38.5841802 C165.927138,38.9788367 167.797202,40.0282337 168.780938,41.6182349 C169.666686,43.0497566 169.786513,44.8875026 169.127081,46.9323132 C168.747116,48.1110773 168.993919,49.4157382 169.771051,50.3371176 C171.08315,51.8929936 172.832035,53.0428381 174.969003,53.7548394 C175.999509,54.0982118 176.737794,54.9444001 176.943818,56.0182824 C177.151968,57.1029613 176.774322,58.172602 175.933991,58.8795905 C166.402191,66.8995821 155.61434,69.4155899 146.31852,70.8193487 C145.516264,70.9406183 144.766189,71 144.076415,71" id="Fill-111" fill="#000000" mask="url(#mask-4)"></path>
                                <path d="M159,47.6194277 C159,45.0681332 156.939694,43 154.398487,43 C153.052356,43 151.841381,43.5802998 151,44.5053533 C151.453946,45.2637726 152.054683,45.9338135 152.693426,46.5481799 C153.278263,47.110765 153.900717,47.639089 154.412837,48.2688339 C155.268373,49.3204205 155.761101,50.6470703 155.858251,52 C157.683731,51.387191 159,49.6581662 159,47.6194277" id="Fill-112" fill="#FFFFFF" mask="url(#mask-4)"></path>
                                <path d="M152,44.9280058 C152.358667,45.3831893 152.817833,45.8435925 153.41595,46.3507919 C153.569344,46.4807415 153.724977,46.6085313 153.880609,46.7363211 C154.35361,47.12473 154.842682,47.5266379 155.270518,47.9901008 C156.051732,48.8363931 156.586782,49.8848092 156.816467,51 C158.147379,50.3534917 159,49.1103312 159,47.7311015 C159,45.6738661 157.108202,44 154.782667,44 C153.75651,44 152.765549,44.3340533 152,44.9280058 M156.34294,53 C156.231525,53 156.121063,52.9672621 156.026027,52.9035093 C155.879189,52.8051041 155.785677,52.6439033 155.773107,52.4670036 C155.684166,51.2244941 155.225177,50.035782 154.48089,49.119503 C154.130077,48.6877836 153.720796,48.3058411 153.287327,47.9011162 C153.137251,47.7611663 152.986984,47.6208336 152.839384,47.4785863 C152.05853,46.7267628 151.499934,46.0505619 151.081702,45.3506213 C150.951433,45.1329428 150.979048,44.855149 151.149503,44.6675282 C152.112238,43.6078533 153.48254,43 154.909217,43 C157.716289,43 160,45.2956751 160,48.1174545 C160,50.3214252 158.603225,52.2715333 156.52406,52.9703253 C156.465019,52.9902361 156.403884,53 156.34294,53" id="Fill-113" fill="#000000" mask="url(#mask-4)"></path>
                                <path d="M152.86717,47.1132759 C152.234884,46.4777224 151.64022,45.7845743 151.190863,45 C150.451276,45.8496199 150,46.9801641 150,48.221467 C150,50.8605447 152.039286,53 154.554994,53 C155.060209,53 155.545844,52.9126013 156,52.7531088 C155.903833,51.3535216 155.416085,49.9811207 154.569198,48.8932689 C154.062256,48.2418064 153.446094,47.6952625 152.86717,47.1132759" id="Fill-114" fill="#000000" mask="url(#mask-4)"></path>
                                <path d="M151.613049,46 C151.214217,46.6157305 151,47.3268317 151,48.0618707 C151,50.2333608 152.859949,52 155.146332,52 C155.434155,52 155.719778,51.9716927 156,51.9156482 C155.834187,50.8525109 155.37975,49.8509277 154.696496,49.0560446 C154.328066,48.627636 153.898232,48.2486226 153.442995,47.8471914 C153.285383,47.7081249 153.12757,47.5690583 152.972558,47.427902 C152.423314,46.9280603 151.978878,46.4620353 151.613049,46 M155.022022,53 C152.252864,53 150,50.6398544 150,47.7390267 C150,46.4228484 150.466317,45.1633562 151.312903,44.1920178 C151.432958,44.0544361 151.608813,43.9851532 151.785232,44.0026708 C151.962215,44.0213693 152.120597,44.1262778 152.212282,44.2862977 C152.572072,44.9133866 153.063941,45.5308311 153.759847,46.2295649 L153.760035,46.2295649 C153.901508,46.3714767 154.045236,46.5112235 154.188964,46.6509702 C154.625784,47.0757217 155.077447,47.515235 155.472557,48.0220631 C156.35221,49.1506657 156.894243,50.6081654 156.998516,52.1256971 C157.017116,52.3945619 156.859297,52.6425632 156.615241,52.7279859 C156.100639,52.9084757 155.564619,53 155.022022,53" id="Fill-115" fill="#000000" mask="url(#mask-4)"></path>
                                <path d="M131.542181,75 C126.781188,75 122.912428,73.8503885 120.384688,71.6342583 C118.138847,69.6650932 117,66.9685284 117,63.6191739 L117,42.5783724 C117,42.258918 117.25615,42 117.572189,42 C117.888228,42 118.144378,42.258918 118.144378,42.5783724 L118.144378,63.6191739 C118.144378,66.6180347 119.150477,69.0207864 121.134637,70.7605305 C124.238381,73.4815797 129.640798,74.4474616 136.346852,73.479459 C136.658695,73.4329964 136.949557,73.6541275 136.994188,73.9703044 C137.038819,74.2864813 136.821578,74.5793305 136.50859,74.6246363 C134.76761,74.8758427 133.106546,75 131.542181,75" id="Fill-116" fill="#000000" mask="url(#mask-4)"></path>
                                <path d="M125.534975,62 C125.408371,62 125.284263,61.9501913 125.186189,61.8570707 C125.057444,61.7350099 124.988971,61.5527061 125.001453,61.3658743 L125.926736,47.5468167 C125.94849,47.2215837 126.205087,46.9817932 126.499666,47.0010867 C126.794244,47.025302 127.015534,47.3084044 126.99378,47.6336374 L126.121814,60.6559528 L128.345951,60.096048 C128.633397,60.0226146 128.920843,60.22244 128.986463,60.5405856 C129.052262,60.8585344 128.871806,61.1753019 128.583825,61.2477509 L125.653912,61.9852346 C125.614504,61.9952751 125.574561,62 125.534975,62" id="Fill-117" fill="#000000" mask="url(#mask-4)"></path>
                                <path d="M135.5,50 C135.223833,50 135,49.7606914 135,49.4654312 L135,47.5345688 C135,47.2393086 135.223833,47 135.5,47 C135.776167,47 136,47.2393086 136,47.5345688 L136,49.4654312 C136,49.7606914 135.776167,50 135.5,50" id="Fill-118" fill="#000000" mask="url(#mask-4)"></path>
                                <path d="M120.5,50 C120.223833,50 120,49.7606914 120,49.4654312 L120,47.5345688 C120,47.2393086 120.223833,47 120.5,47 C120.776167,47 121,47.2393086 121,47.5345688 L121,49.4654312 C121,49.7606914 120.776167,50 120.5,50" id="Fill-119" fill="#000000" mask="url(#mask-4)"></path>
                                <path d="M133.608684,54 C133.401755,54 133.200298,53.8932899 133.086395,53.7009659 C132.91392,53.4099198 133.007758,53.0324404 133.295959,52.8583453 C135.309314,51.6407031 137.358745,51.015599 139.3873,51.0000328 C139.713806,50.9965509 139.997346,51.2703924 140,51.6097756 C140.002616,51.948954 139.732452,52.2262774 139.396623,52.22894 C137.587563,52.2426628 135.745061,52.8093938 133.920395,53.9127476 C133.822504,53.97194 133.714885,54 133.608684,54" id="Fill-120" fill="#000000" mask="url(#mask-4)"></path>
                                <path d="M130.596128,66 C130.30589,66 130.05126,65.7941342 130.0067,65.5067717 C129.957763,65.1904413 130.182156,64.8953541 130.508201,64.8476535 C133.114577,64.4670141 134.916282,63.2841547 135.863187,61.3326779 C136.003631,61.0431912 136.359317,60.9190151 136.657314,61.0553577 C136.955509,61.1918935 137.083421,61.5369988 136.942977,61.8264856 C135.815842,64.149525 133.71057,65.5515756 130.685647,65.993627 C130.655608,65.9978757 130.62557,66 130.596128,66" id="Fill-121" fill="#000000" mask="url(#mask-4)"></path>
                                <path d="M117.882394,64.1797698 C118.041485,64.5340984 117.723303,64.9218722 117.419796,65.1179569 C116.489514,65.719207 115.394856,65.8850954 114.32779,65.9617328 C113.183038,66.0441037 111.999931,66.0303434 110.9358,65.5414694 C110.213921,65.2096925 109.580296,64.6743773 108.955672,64.1446045 C108.206006,63.5091448 107.455753,62.8729205 106.744636,62.1826106 C105.380913,60.8593253 104.127947,59.3126258 102.492027,58.4826102 C101.419482,57.9386949 100.213089,57.7217785 99.2368205,56.9785295 C98.260552,56.2356627 97.6014876,54.6474911 98.2740542,53.5506779 C99.1481756,52.1251458 101.244736,52.8259671 102.463262,51.7794174 C103.308226,51.0533688 103.495887,49.6958738 104.151233,48.7485132 C105.108325,47.3652176 106.848545,47.1119893 108.393276,47.1630172 C109.938007,47.2142362 111.571187,47.4408995 112.955653,46.6580895 C113.991213,46.0725109 114.750468,44.9772267 115.239874,43.7831357 C115.729281,42.5890447 115.977017,41.2883111 116.221035,40 L118,40 L117.882394,64.1797698 Z" id="Fill-122" fill="#000000" mask="url(#mask-4)"></path>
                                <path d="M107.542631,47.1992974 C105.861821,47.1992974 104.736607,47.6412634 104.108328,48.5461498 C103.872106,48.8864194 103.697705,49.3043551 103.513231,49.7468978 C103.218546,50.4533898 102.91359,51.1841044 102.305062,51.7052744 C101.626615,52.2860396 100.76962,52.4252233 100.013552,52.5482587 C99.0998707,52.69667 98.5231416,52.8150915 98.1938926,53.350103 C97.6969575,54.1577147 98.2209514,55.4399736 99.0214592,56.047076 C99.5612539,56.4567453 100.200594,56.6943573 100.877658,56.9463875 C101.317907,57.109986 101.773168,57.2793518 102.215788,57.5031224 C103.570706,58.1880832 104.660566,59.3048211 105.714874,60.3848406 C106.021212,60.698773 106.338215,61.0234709 106.652651,61.3275989 C107.357762,62.0098683 108.118965,62.6527279 108.855085,63.2748254 C109.446627,63.7746564 110.058315,64.2915971 110.717603,64.5934181 C111.705351,65.0459575 112.853279,65.0340384 113.845569,64.9629086 C114.819095,64.8933168 115.836469,64.7535563 116.682799,64.208356 C116.819278,64.1203088 116.904603,64.0057322 116.923564,63.9524809 C116.897097,63.8855805 116.883864,63.8146429 116.884259,63.7427441 L117,40 L116.292322,40 C116.068938,41.1565322 115.815335,42.33498 115.35968,43.4432592 C114.936021,44.4731035 114.148351,45.8605191 112.800938,46.6196856 C111.456488,47.3771219 109.983261,47.3048386 108.559412,47.23467 C108.331288,47.22352 108.104152,47.2123699 107.87899,47.2048724 C107.764435,47.2010276 107.652249,47.1992974 107.542631,47.1992974 L107.542631,47.1992974 Z M112.823894,66 C111.956749,66 111.03429,65.8905136 110.163651,65.4894435 C109.369673,65.1235383 108.706893,64.5597592 108.06585,64.0147981 C107.327961,63.387342 106.564841,62.738787 105.844031,62.0371995 C105.523218,61.724897 105.206093,61.3977683 104.899254,61.0814742 C103.884802,60.0358408 102.926633,59.0479918 101.768369,58.4587419 C101.392438,58.2677109 100.995157,58.1188778 100.574588,57.9614911 C99.8586299,57.6934774 99.118412,57.41653 98.4505856,56.9065437 C97.2535053,55.9932064 96.5272611,54.1066563 97.3540383,52.754613 C97.9704337,51.7464254 99.0217606,51.5744025 99.9492649,51.4227182 C100.595937,51.3168433 101.206704,51.2168609 101.62378,50.8576085 C102.015432,50.5204055 102.251432,49.9513042 102.501212,49.3487486 C102.697038,48.8760182 102.899656,48.387511 103.199897,47.9520363 C104.087615,46.6653807 105.671883,46.0493294 107.909228,46.1246014 C108.137271,46.1320145 108.366866,46.1434193 108.597432,46.1548242 C109.884565,46.2186913 111.100083,46.2785667 112.12288,45.6988208 C112.931414,45.2401563 113.647566,44.3249182 114.139557,43.1209476 C114.605735,41.9808441 114.84717,40.702552 115.080841,39.4664578 C115.131884,39.1963533 115.372736,39 115.653374,39 L117.417748,39 C117.572623,39 117.721094,39.0606357 117.83036,39.1680313 C117.939627,39.2756169 118.000762,39.4212186 118,39.573093 L117.883732,63.5234398 C118.060538,64.1204829 117.651225,64.7116336 117.163504,65.0277377 C116.105967,65.7131684 114.879193,65.8836707 113.818356,65.9600831 C113.499872,65.9828927 113.16625,66 112.823894,66 L112.823894,66 Z" id="Fill-123" fill="#000000" mask="url(#mask-4)"></path>
                                <path d="M141,84 C137.770062,84 134.540124,83.2296915 131.332925,81.6892709 C131.129633,81.5916566 131,81.3846436 131,81.1570078 L131,74.8945687 C131,74.5689258 131.261209,74.3053475 131.583056,74.3053475 C131.905098,74.3053475 132.166113,74.5689258 132.166113,74.8945687 L132.166113,80.7816739 C138.029522,83.493859 143.970478,83.493859 149.833887,80.7816739 L149.833887,69.5892212 C149.833887,69.2637747 150.094902,69 150.416944,69 C150.738791,69 151,69.2637747 151,69.5892212 L151,81.1570078 C151,81.3846436 150.870367,81.5916566 150.667075,81.6892709 C147.459876,83.2296915 144.229938,84 141,84" id="Fill-124" fill="#000000" mask="url(#mask-4)"></path>
                                <path d="M143.42923,29 C143.246035,29 143.066078,28.9151419 142.955627,28.7579157 C140.538676,25.314184 136.696538,23.410755 131.535855,23.1008944 C131.220882,23.0819758 130.98151,22.8202383 131.001124,22.5166227 C131.020929,22.2130071 131.292674,21.9824944 131.606886,22.0010456 C137.13929,22.3333146 141.276025,24.3987454 143.901689,28.1400314 C144.0786,28.3920341 144.010235,28.7347726 143.748963,28.9052234 C143.650891,28.9693262 143.539489,29 143.42923,29" id="Fill-125" fill="#FFFFFF" mask="url(#mask-4)"></path>
                                <path d="M140.456535,88 C135.996794,88.0001855 131.538773,87.0830907 127.110192,85.2485303 C126.557527,85.0196276 126.156267,84.5412321 126.036596,83.9693464 C125.917308,83.3993156 126.093564,82.8098077 126.508015,82.3918841 C127.754426,81.1357017 129.295807,80.3341713 131.089147,80.0095525 C131.400368,79.9531615 131.699736,80.1521993 131.758042,80.4545586 C131.816157,80.7565469 131.610843,81.0474054 131.299431,81.1036108 C129.723831,81.3889045 128.426952,82.0628133 127.33424,83.1639205 C127.179012,83.3202941 127.115736,83.5332441 127.16066,83.7476781 C127.205967,83.9645235 127.351827,84.1385192 127.560582,84.2249606 C136.146095,87.7814851 144.852618,87.7696133 153.43794,84.1897162 C153.642489,84.1043878 153.787203,83.9346585 153.835568,83.723749 C153.88336,83.5152509 153.826966,83.3045269 153.681105,83.1453709 C152.64192,82.0134712 151.345041,81.4588367 149.716296,81.4506748 C149.399723,81.4491908 149.144132,81.1987706 149.145853,80.8914028 C149.147573,80.5849626 149.403928,80.3376958 149.719354,80.3376958 L149.722413,80.3376958 C151.667349,80.3475271 153.287492,81.043139 154.537726,82.4052398 C154.931721,82.8344788 155.084082,83.403211 154.955235,83.9652655 C154.827918,84.5211985 154.429907,84.9873512 153.890624,85.212173 C149.434133,87.070477 144.944569,87.9998145 140.456535,88" id="Fill-126" fill="#000000" mask="url(#mask-4)"></path>
                                <path d="M102.583922,98 C102.457125,98 102.329353,97.9605003 102.222227,97.8790674 C101.969021,97.6869979 101.925782,97.3337473 102.12562,97.0903844 C107.790811,90.1934804 116.741253,85.5469342 127.32799,84.0064471 C127.648003,83.9598338 127.945033,84.1709979 127.993337,84.4776351 C128.041641,84.7842723 127.822131,85.0705045 127.502896,85.1169307 C117.210463,86.6147356 108.523745,91.1141409 103.04281,97.7864023 C102.927698,97.9266167 102.756687,98 102.583922,98" id="Fill-127" fill="#000000" mask="url(#mask-4)"></path>
                                <path d="M124.534432,90 C124.456368,90 124.377235,89.9805156 124.302201,89.9397389 C124.036285,89.7949115 123.924893,89.4347511 124.053395,89.1350527 C124.967168,87.0032166 126.403505,85.6194214 128.322839,85.0220332 C128.607647,84.9330477 128.902079,85.1216649 128.980499,85.4424547 C129.059276,85.7630436 128.892276,86.0950821 128.607647,86.1836659 C126.975616,86.6916668 125.800918,87.8285925 125.016181,89.659324 C124.924037,89.8744561 124.733156,90 124.534432,90" id="Fill-128" fill="#000000" mask="url(#mask-4)"></path>
                                <path d="M127.563338,91 C127.505905,91 127.447533,90.9916626 127.389912,90.9741009 C127.094112,90.8836313 126.93176,90.5834851 127.027482,90.3039164 C127.503652,88.9122812 128.520559,87.5133731 130.049861,86.1456858 C130.275652,85.943637 130.632077,85.9528614 130.845856,86.1664406 C131.059635,86.3798423 131.049875,86.7167085 130.823896,86.9185799 C129.43311,88.162448 128.51643,89.4116379 128.099006,90.6313808 C128.021866,90.8564904 127.800954,91 127.563338,91" id="Fill-129" fill="#000000" mask="url(#mask-4)"></path>
                                <path d="M168.406133,90 C168.278544,90 168.150165,89.9577531 168.041764,89.8706062 C164.600441,87.1035374 158.070689,84.6058691 154.531449,84.2215653 C154.205456,84.1862575 153.969072,83.8848148 154.003293,83.5484725 C154.037712,83.2121302 154.331066,82.9664043 154.655675,83.003753 C158.36167,83.4060168 165.070243,85.9285843 168.771292,88.9048465 C169.029832,89.1126114 169.07612,89.4973233 168.87455,89.7640706 C168.757644,89.9191799 168.582778,90 168.406133,90" id="Fill-130" fill="#000000" mask="url(#mask-4)"></path>
                                <path d="M114.586121,101 C114.476033,101 114.364576,100.96882 114.265438,100.903303 C113.994421,100.724315 113.918357,100.357262 114.095906,100.08355 L115.922627,97.2676964 C116.100176,96.9943796 116.463682,96.9176141 116.734698,97.0967994 C117.005715,97.2757874 117.081584,97.6426436 116.904035,97.9163551 L115.077509,100.732406 C114.964879,100.905671 114.777358,101 114.586121,101" id="Fill-131" fill="#000000" mask="url(#mask-4)"></path>
                                <path d="M116.650078,102 C116.540354,102 116.429112,101.976721 116.327194,101.928179 C116.015368,101.779304 115.907596,101.44853 116.086277,101.189217 L118.784933,97.2720838 C118.963614,97.0127702 119.361094,96.9232646 119.672919,97.0715985 C119.984528,97.2204737 120.092517,97.5512474 119.913619,97.810561 L117.214963,101.727694 C117.09483,101.902193 116.875599,102 116.650078,102" id="Fill-132" fill="#000000" mask="url(#mask-4)"></path>
                                <path d="M119.671391,103 C119.553802,103 119.434645,102.969884 119.326464,102.906815 C119.00819,102.720881 118.904936,102.31868 119.095766,102.008572 L120.751864,99.3179905 C120.942694,99.0078829 121.355263,98.9074962 121.673536,99.0932116 C121.99181,99.2791452 122.095064,99.6813467 121.904234,99.9914543 L120.24836,102.682036 C120.12226,102.886519 119.899849,103 119.671391,103" id="Fill-133" fill="#000000" mask="url(#mask-4)"></path>
                                <path d="M122.541797,104 C122.451972,104 122.361063,103.975251 122.277021,103.923159 C122.01586,103.761495 121.922962,103.396652 122.069357,103.10805 L122.984778,101.305988 C123.131173,101.017786 123.461556,100.9146 123.722899,101.076864 C123.98406,101.238528 124.077139,101.603371 123.930563,101.891773 L123.015322,103.694035 C122.915738,103.889629 122.731569,104 122.541797,104" id="Fill-134" fill="#000000" mask="url(#mask-4)"></path>
                                <path d="M168.5,94 C168.223833,94 168,93.736062 168,93.410414 L168,75.589586 C168,75.263938 168.223833,75 168.5,75 C168.776167,75 169,75.263938 169,75.589586 L169,93.410414 C169,93.736062 168.776167,94 168.5,94" id="Fill-135" fill="#000000" mask="url(#mask-4)"></path>
                                <path d="M184,103 C188.161726,102.575177 191.495194,100.908578 194,98" id="Fill-136" fill="#FFFFFF" mask="url(#mask-4)"></path>
                                <path d="M184.594795,103 C184.292882,103 184.034043,102.773143 184.003078,102.468699 C183.969929,102.143971 184.208323,101.854295 184.535643,101.821606 C188.44304,101.42953 191.612429,99.8757985 193.955279,97.2031441 C194.171044,96.9569889 194.546996,96.930798 194.795315,97.1450515 C195.043435,97.3589111 195.069637,97.7322792 194.853871,97.9784344 C192.305577,100.885429 188.874372,102.573856 184.655336,102.996849 C184.63509,102.999015 184.614843,103 184.594795,103" id="Fill-137" fill="#000000" mask="url(#mask-4)"></path>
                                <path d="M202,68 C202,77.3888313 194.388831,85 185,85 C175.611169,85 168,77.3888313 168,68 C168,58.6111687 175.611169,51 185,51 C194.388831,51 202,58.6111687 202,68" id="Fill-138" fill="#FFFFFF" mask="url(#mask-4)"></path>
                                <path d="M202.4218,106 C202.102441,106 201.8436,105.739058 201.8436,105.417107 L201.8436,68.642217 C201.8436,59.5570581 194.511828,52.1657853 185.5,52.1657853 C176.488172,52.1657853 169.1564,59.5570581 169.1564,68.642217 L169.1564,105.417107 C169.1564,105.739058 168.897559,106 168.5782,106 C168.258841,106 168,105.739058 168,105.417107 L168,68.642217 C168,58.9141276 175.850417,51 185.5,51 C195.149583,51 203,58.9141276 203,68.642217 L203,105.417107 C203,105.739058 202.741159,106 202.4218,106" id="Fill-139" fill="#000000" mask="url(#mask-4)"></path>
                                <path d="M182.403826,95 L175.59632,95 C175.415083,95 175.243584,94.9215299 175.13051,94.7869016 C175.017435,94.6520843 174.97471,94.4758574 175.014653,94.3077611 L179.972631,73.4424598 C180.045165,73.1367099 180.364516,72.9444108 180.685654,73.0143721 C181.006793,73.083388 181.208101,73.387058 181.135567,73.6924297 L176.342332,93.8654921 L182.403826,93.8654921 C182.733113,93.8654921 183,94.1194328 183,94.4327461 C183,94.7460593 182.733113,95 182.403826,95" id="Fill-140" fill="#000000" mask="url(#mask-4)"></path>
                                <path d="M198,83.5 C198,88.1944132 194.194413,92 189.5,92 C184.805587,92 181,88.1944132 181,83.5 C181,78.8055868 184.805587,75 189.5,75 C194.194413,75 198,78.8055868 198,83.5" id="Fill-141" fill="#FFFFFF" mask="url(#mask-4)"></path>
                                <path d="M189.5,76 C184.813045,76 181,79.8130447 181,84.5 C181,89.1869553 184.813045,93 189.5,93 C194.186955,93 198,89.1869553 198,84.5 C198,79.8130447 194.186955,76 189.5,76 M189.5,94 C184.261724,94 180,89.7382755 180,84.5 C180,79.2617245 184.261724,75 189.5,75 C194.738276,75 199,79.2617245 199,84.5 C199,89.7382755 194.738276,94 189.5,94" id="Fill-142" fill="#000000" mask="url(#mask-4)"></path>
                                <line x1="189.05" y1="82" x2="189.05" y2="84" id="Fill-143" fill="#FFFFFF" mask="url(#mask-4)"></line>
                                <path d="M189.5,85 C189.223833,85 189,84.7291429 189,84.394958 L189,82.605042 C189,82.2708571 189.223833,82 189.5,82 C189.776167,82 190,82.2708571 190,82.605042 L190,84.394958 C190,84.7291429 189.776167,85 189.5,85" id="Fill-144" fill="#000000" mask="url(#mask-4)"></path>
                                <path d="M168.5,76 C163.813045,76 160,79.8130447 160,84.5 C160,89.1869553 163.813045,93 168.5,93 C173.186955,93 177,89.1869553 177,84.5 C177,79.8130447 173.186955,76 168.5,76 M168.5,94 C163.261724,94 159,89.7382755 159,84.5 C159,79.2617245 163.261724,75 168.5,75 C173.738276,75 178,79.2617245 178,84.5 C178,89.7382755 173.738276,94 168.5,94" id="Fill-145" fill="#000000" mask="url(#mask-4)"></path>
                                <line x1="172.05" y1="82" x2="172.05" y2="84" id="Fill-146" fill="#FFFFFF" mask="url(#mask-4)"></line>
                                <path d="M171.5,85 C171.223833,85 171,84.7291429 171,84.394958 L171,82.605042 C171,82.2708571 171.223833,82 171.5,82 C171.776167,82 172,82.2708571 172,82.605042 L172,84.394958 C172,84.7291429 171.776167,85 171.5,85" id="Fill-147" fill="#000000" mask="url(#mask-4)"></path>
                                <path d="M202.437513,66.9427517 C195.850609,60.2997964 184.927251,56.2426685 171.835285,56.0005161 C170.879833,55.9827166 169.9693,56.426141 169.379851,57.1993464 C168.619106,58.1969046 168.176211,59.3959304 168.005486,60.7668884 C167.956381,61.1604349 168.242826,61.5127098 168.628813,61.527771 C183.287186,62.1055724 194.344156,66.3725787 201.792107,72.8559246 C202.158681,73.1749477 202.721293,72.9324041 202.751365,72.4398842 L202.996319,68.4424142 C203.030388,67.8828036 202.826736,67.3355158 202.437513,66.9427517" id="Fill-148" fill="#FFFFFF" mask="url(#mask-4)"></path>
                                <path d="M172.318035,57 C171.534779,57 170.783395,57.3663337 170.300771,57.9854614 C169.604674,58.8783503 169.167498,59.9943626 169.000852,61.3026407 C168.996523,61.3368608 169.009509,61.3605974 169.021314,61.3742459 C169.036857,61.3930373 169.057516,61.4029275 169.082109,61.4039165 C183.488247,61.9591534 195.466899,65.9690436 203.723262,73 L203.744314,72.9998022 L203.997333,68.9521313 C204.021926,68.5577094 203.875545,68.1725843 203.595375,67.8962516 C196.816595,61.208288 185.433108,57.2369696 172.363681,57.0005934 C172.348531,57.0001978 172.333185,57 172.318035,57 M203.565651,74 C203.291109,74 203.020464,73.9041047 202.801259,73.7194822 C194.825902,67.0031337 183.20882,63.1710044 169.205619,62.6370906 C168.855281,62.6237234 168.524233,62.4635105 168.297819,62.197716 C168.070235,61.9303717 167.965212,61.5772059 168.010222,61.2286896 C168.202148,59.736792 168.715964,58.4519893 169.536862,57.4105088 C170.24923,56.5069624 171.369416,55.9804103 172.521167,56.0005579 C179.198636,56.120088 185.370862,57.1545944 190.866379,59.0748241 C196.299738,60.9737439 200.802305,63.6413754 204.248986,67.0044898 C204.24918,67.0044898 204.24918,67.0046835 204.24918,67.0046835 C204.768842,67.5118628 205.040656,68.2176131 204.995062,68.9411864 L204.744486,72.9002074 C204.716233,73.3455875 204.442665,73.7305247 204.030365,73.9050734 C203.879942,73.9688098 203.722114,74 203.565651,74" id="Fill-149" fill="#000000" mask="url(#mask-4)"></path>
                                <path d="M168,67.1285843 C173.941523,71.1790076 183.939753,67.2298722 196,68.2927582 C188.36023,64.565656 179.398083,62.3014996 168.661969,62 L168,67.1285843 Z" id="Fill-150" fill="#000000" mask="url(#mask-4)"></path>
                                <path d="M199,70 C200.030326,74.6011345 200.456155,79.6305788 200.401845,85 L202,84.1855437 L202,72.3971993 L199,70 Z" id="Fill-151" fill="#000000" mask="url(#mask-4)"></path>
                                <path d="M200,89.2763782 C200.693497,90.317517 201.848762,91 203.15795,91 C205.279788,91 207,89.2090691 207,87 C207,84.7907352 205.279788,83 203.15795,83 C201.897627,83 200.781641,83.6337622 200.081378,84.6097442" id="Fill-152" fill="#FFFFFF" mask="url(#mask-4)"></path>
                                <path d="M202.66332,92 C201.24261,92 199.91014,91.27537 199.098966,90.0614469 C198.924337,89.8000043 198.986863,89.4412405 199.238817,89.2602269 C199.490771,89.0788295 199.836514,89.1439022 200.011143,89.404961 C200.614945,90.3086849 201.606482,90.8482703 202.66332,90.8482703 C204.442537,90.8482703 205.89007,89.3464147 205.89007,87.500192 C205.89007,85.6537772 204.442537,84.1517297 202.66332,84.1517297 C201.638115,84.1517297 200.696525,84.6431344 200.079589,85.5000213 C199.896265,85.7543616 199.548302,85.8065734 199.302823,85.616538 C199.057344,85.4263106 199.007027,85.0654353 199.190535,84.8105191 C200.018913,83.6599411 201.284602,83 202.66332,83 C205.054478,83 207,85.0187903 207,87.500192 C207,89.9812097 205.054478,92 202.66332,92" id="Fill-153" fill="#000000" mask="url(#mask-4)"></path>
                                <path d="M187,72.3377076 C189.1153,71.7251058 191.11551,71.945995 193,73" id="Fill-154" fill="#FFFFFF" mask="url(#mask-4)"></path>
                                <path d="M193.391843,73 C193.28169,73 193.170119,72.9740535 193.069887,72.91916 C191.397536,72.0060914 189.67193,71.819877 187.794863,72.3506323 C187.475742,72.4406506 187.133131,72.2886785 187.029862,72.0105041 C186.926188,71.7321532 187.101138,71.4335041 187.42026,71.3433092 C189.629003,70.7188289 191.746828,70.9470519 193.715015,72.0218005 C193.999308,72.1769498 194.085366,72.5036635 193.907176,72.7516552 C193.79196,72.9120997 193.594129,73 193.391843,73" id="Fill-155" fill="#000000" mask="url(#mask-4)"></path>
                                <path d="M166,73 C167.950324,71.803304 169.950324,71.6805352 172,72.6324142" id="Fill-156" fill="#FFFFFF" mask="url(#mask-4)"></path>
                                <path d="M166.604975,73 C166.389019,73 166.179912,72.8864252 166.071128,72.6870296 C165.914198,72.3992544 166.0256,72.0416021 166.320123,71.8882663 C168.358812,70.8263322 170.478887,70.7159068 172.621525,71.5605331 C172.931156,71.6825719 173.080834,72.0266425 172.955934,72.3289837 C172.831034,72.6313248 172.479099,72.7777714 172.169266,72.6557326 C170.348749,71.938066 168.621706,72.0278235 166.88882,72.9303198 C166.798167,72.9775606 166.700866,73 166.604975,73" id="Fill-157" fill="#000000" mask="url(#mask-4)"></path>
                                <path d="M30.8580962,82 C28.4126055,82 26.0158049,81.4067387 23.7885669,80.2093428 C19.7279687,78.0270568 17,74.1073354 17,70.456203 L17,39.5722778 C17,39.2561897 17.2544386,39 17.5683663,39 C17.8821045,39 18.1367326,39.2561897 18.1367326,39.5722778 L18.1367326,70.456203 C18.1367326,73.6968214 20.6231456,77.2106071 24.3239679,79.199654 C29.1823629,81.8113391 34.9382083,81.3065901 40.1152673,77.8155047 C40.3761475,77.6394339 40.7292924,77.7100149 40.9037808,77.9726904 C41.0784587,78.2351751 41.0087391,78.5905596 40.747859,78.7664397 C37.5638711,80.913626 34.1667458,82 30.8580962,82" id="Fill-158" fill="#000000" mask="url(#mask-4)"></path>
                                <path d="M22.3957851,45.9997512 C22.269813,45.9997512 22.1428346,45.9544764 22.0343698,45.8604442 C21.3189847,45.2423858 20.6810746,45.2423858 19.9656895,45.8604442 C19.6988539,46.0916938 19.3205349,46.0290056 19.1207101,45.7209051 C18.920684,45.4130368 18.9748158,44.9765417 19.2418526,44.7459887 C20.391902,43.7513371 21.607956,43.7513371 22.7582066,44.7459887 C23.0250422,44.9765417 23.0793753,45.4130368 22.8793492,45.7209051 C22.7608227,45.9033972 22.5795113,45.9997512 22.3957851,45.9997512" id="Fill-159" fill="#000000" mask="url(#mask-4)"></path>
                                <path d="M35.4460983,47 C35.3098633,47 35.1732591,46.9530715 35.0661909,46.8585219 C34.2521037,46.138317 33.4847204,45.8976137 32.7199214,46.1234245 C32.428253,46.209489 32.1173861,46.0574476 32.0256398,45.7836693 C31.9338935,45.5100642 32.0961571,45.2182764 32.3880101,45.132212 C33.5533917,44.7888202 34.7099124,45.1150684 35.8261902,46.1024712 C36.0486336,46.299363 36.0589712,46.6282087 35.8490807,46.8368759 C35.7401665,46.945279 35.5932247,47 35.4460983,47" id="Fill-160" fill="#000000" mask="url(#mask-4)"></path>
                                <path d="M21.5,53 C21.2238333,53 21,52.7193508 21,52.3730844 L21,50.6269156 C21,50.2804402 21.2238333,50 21.5,50 C21.7761667,50 22,50.2804402 22,50.6269156 L22,52.3730844 C22,52.7193508 21.7761667,53 21.5,53" id="Fill-161" fill="#000000" mask="url(#mask-4)"></path>
                                <path d="M29.5211341,71 C29.2842041,71 29.0696982,70.8273427 29.013725,70.5720459 C28.948365,70.2743227 29.1227163,69.976784 29.4032775,69.9074259 C30.3669899,69.6692842 31.2505666,69.1000315 32.1045924,68.1677557 C32.3051919,67.9484293 32.6354685,67.9436333 32.8419783,68.1565035 C33.0484881,68.3693738 33.0531815,68.7198534 32.8525819,68.9389954 C31.8549728,70.0280647 30.8041718,70.6974807 29.6398599,70.9854274 C29.6000529,70.995204 29.5602458,71 29.5211341,71" id="Fill-162" fill="#000000" mask="url(#mask-4)"></path>
                                <path d="M25.57381,64 C25.4242558,64 25.2798651,63.9406452 25.1721937,63.8337677 C25.0536213,63.71564 24.9910839,63.5513474 25.0010287,63.3829815 L25.9427232,47.5470775 C25.9618478,47.2260571 26.2330344,46.9802972 26.5499288,47.0012459 C26.8662494,47.0206429 27.1072192,47.2962743 27.0880946,47.6171006 L26.1863704,62.7840021 L29.380176,62.5229185 C29.6951579,62.4973145 29.9726556,62.7357036 29.9980913,63.056142 C30.0237182,63.3763865 29.7882946,63.6570611 29.4723565,63.6828591 L25.6199003,63.9980603 C25.6046006,63.9994181 25.5891097,64 25.57381,64" id="Fill-163" fill="#000000" mask="url(#mask-4)"></path>
                                <path d="M33.4972851,53 C33.3850996,53 33.2720769,52.9501487 33.1786448,52.847998 C32.7037819,52.3294555 32.2230586,52.2068302 31.6658147,52.4612054 C31.4034345,52.5820503 31.11778,52.3957756 31.0275293,52.047039 C30.9371111,51.6983025 31.076757,51.3184089 31.3389697,51.1984542 C32.2208818,50.7951928 33.0775104,51.0090638 33.8165953,51.8166993 C34.0309198,52.0505998 34.0618964,52.4714427 33.8857484,52.7563073 C33.7864559,52.9169887 33.6424565,53 33.4972851,53" id="Fill-164" fill="#000000" mask="url(#mask-4)"></path>
                                <path d="M43.2393612,90 C39.5524645,90 35.9495278,89.146176 34.2304193,87.8561112 C34.0856542,87.7474357 34,87.5749013 34,87.3912108 L34,81.4902271 C34,81.1715097 34.2528212,80.913189 34.5647531,80.913189 C34.8766851,80.913189 35.1295063,81.1715097 35.1295063,81.4902271 L35.1295063,87.0873041 C38.1727726,89.0832788 46.6444461,89.7899581 50.8704937,87.0798026 L50.8704937,35.5770381 C50.8704937,35.2581284 51.1233149,35 51.4352469,35 C51.7469906,35 52,35.2581284 52,35.5770381 L52,87.3912108 C52,87.5812487 51.9083217,87.7591688 51.7548971,87.8666902 C49.6046937,89.3758371 46.3912484,90 43.2393612,90" id="Fill-165" fill="#000000" mask="url(#mask-4)"></path>
                                <path d="M33.5923712,94 C33.544389,94 33.495617,93.9940077 33.4470424,93.9816236 C30.6457101,93.2669397 28.8618773,91.2497255 29.0083909,88.9622578 C29.0850045,87.7647928 29.7022572,86.6288489 30.7464135,85.7633584 C31.8628393,84.8381444 33.4503991,84.2297243 35.3378972,84.0038139 C35.66311,83.967061 35.9575195,84.1999625 35.9958263,84.5285413 C36.0343305,84.8573198 35.8021203,85.1551381 35.4771049,85.1940881 C32.391631,85.5634147 30.3165481,87.07268 30.1905701,89.0397584 C30.0823633,90.7317895 31.5074154,92.2506425 33.7367128,92.8195132 C34.0540273,92.9004095 34.2463511,93.2261919 34.1661833,93.5469807 C34.0984553,93.8188322 33.857162,94 33.5923712,94" id="Fill-166" fill="#000000" mask="url(#mask-4)"></path>
                                <path d="M53.7302896,94 C53.4720218,94 53.2406183,93.8048637 53.1865191,93.5214468 C53.1244533,93.1974847 53.3178763,92.8807128 53.6185712,92.8138032 C55.7052789,92.3498303 56.9273266,91.1045135 56.8876786,89.482306 C56.8450663,87.7454535 55.2832314,85.6516834 52.4724845,85.1919048 C52.1690106,85.1423717 51.9603954,84.8369845 52.0063426,84.5096269 C52.0522898,84.1824691 52.3363103,83.9557755 52.6392285,84.0073059 C56.0841581,84.5705446 57.9429824,87.1718288 57.9989343,89.4507486 C58.0194994,90.2936095 57.7808703,93.1121999 53.8431197,93.9876167 C53.8051391,93.9958057 53.7675291,94 53.7302896,94" id="Fill-167" fill="#000000" mask="url(#mask-4)"></path>
                                <path d="M12.5892696,106 C12.5287947,106 12.467338,105.990686 12.4068631,105.971282 C12.0976165,105.871741 11.9283653,105.543236 12.0290913,105.237433 C15.0039461,96.2067375 20.6341988,90.5765478 29.2416624,88.0249558 C29.5530689,87.9318178 29.8815576,88.1076157 29.9750188,88.415165 C30.06848,88.7231024 29.8915713,89.047727 29.5799685,89.1398948 C21.370304,91.5737061 15.9956952,96.9570802 13.1492515,105.597954 C13.0683565,105.843606 12.8374523,106 12.5892696,106" id="Fill-168" fill="#000000" mask="url(#mask-4)"></path>
                                <path d="M67.4197009,98 C67.242017,98 67.0666559,97.9155067 66.9526518,97.7557742 C64.1131947,93.7723191 61.0544393,91.036749 57.326176,89.1463128 C57.0379721,89.0002601 56.9183549,88.6389508 57.0588761,88.3394021 C57.1993973,88.0396522 57.5470227,87.9147229 57.8354202,88.0615802 C61.6840749,90.0129723 64.9716127,92.9491133 67.8857822,97.0371791 C68.0768213,97.3049423 68.0226258,97.6829491 67.7650036,97.8813071 C67.6610644,97.9615757 67.5398987,98 67.4197009,98" id="Fill-169" fill="#000000" mask="url(#mask-4)"></path>
                                <path d="M39.8524281,104 C39.7114081,104 39.5700027,103.949258 39.4586508,103.847012 C39.0003357,103.425869 38.5348924,102.952653 38.2357064,102.346595 C38.0101129,101.889723 37.9448044,101.423918 38.0469091,101.000115 C38.1650038,100.510745 38.4994448,100.12324 38.9413846,99.9632204 C39.0209492,99.9343333 39.1024403,99.9115277 39.1843167,99.8894823 C39.2378735,99.8750388 39.2918156,99.8615455 39.3434459,99.8417806 C39.5517009,99.7623411 39.7339482,99.6262678 39.6807767,98.8406152 C39.6042945,97.7126887 39.8967377,96.563667 40.5039716,95.605262 L41.0900139,94.6799252 C41.2023291,94.5024217 41.404612,94.3986562 41.6153714,94.4130998 C43.8391344,94.5468926 46.093914,94.4111993 48.3178696,94.0092508 C48.631697,93.953187 48.9330021,94.1576772 48.9904119,94.4674531 C49.0480144,94.777039 48.8401447,95.0740818 48.5261246,95.1309058 C46.3250944,95.5284832 44.0943961,95.6761494 41.8893202,95.5699134 L41.4841765,96.2096102 C41.0046698,96.9663757 40.7738747,97.8738482 40.8341743,98.7644065 C40.8624939,99.1819389 40.9484159,100.45278 39.7601486,100.905471 C39.6628602,100.94234 39.570966,100.967237 39.4898602,100.989282 C39.4391931,101.002775 39.3887187,101.015888 39.3395929,101.033753 C39.2658078,101.060359 39.1981876,101.152912 39.1714092,101.264089 C39.1324938,101.425819 39.16929,101.63297 39.2748624,101.847152 C39.4914014,102.28578 39.8697667,102.666443 40.2463981,103.012708 C40.4800829,103.227461 40.4929905,103.587979 40.2754883,103.818506 C40.1616319,103.938995 40.0071264,104 39.8524281,104" id="Fill-170" fill="#000000" mask="url(#mask-4)"></path>
                                <path d="M32.2117642,104 C32.079813,104 31.9474881,103.951289 31.8409553,103.851895 L31.7998373,103.813636 C31.2972642,103.346247 31.0057007,102.672575 31.0000937,101.965575 C30.9941129,101.258575 31.2746493,100.579579 31.7693727,100.102724 L32.476601,99.4213615 C32.9602973,98.95555 33.014872,98.170849 32.6010761,97.6354222 L32.2011109,97.1181388 C31.265865,95.9080546 31.1998894,94.1655017 32.0405641,92.8804774 L32.4498743,92.2553198 C32.6259338,91.9865218 32.9752493,91.919273 33.2298066,92.1048481 C33.4847377,92.2906205 33.5484705,92.6590099 33.372411,92.927808 L32.9632877,93.5527684 C32.4044577,94.4070847 32.4483791,95.5654998 33.0701943,96.370119 L33.4701595,96.8875996 C34.2598106,97.9093478 34.1555206,99.4063735 33.232797,100.295399 L32.5255687,100.976761 C32.2618533,101.230769 32.1183143,101.578451 32.1213047,101.95532 C32.124482,102.33219 32.2738149,102.677111 32.5416421,102.926385 L32.5829469,102.964842 C32.8152631,103.180984 32.8373173,103.554896 32.6322884,103.799831 C32.5214569,103.932357 32.3670778,104 32.2117642,104" id="Fill-171" fill="#000000" mask="url(#mask-4)"></path>
                                <path d="M55,31.3585636 C55,28.0357514 52.3492842,25.3417481 49.0794344,25.3417481 C47.6961767,25.3417481 46.4248778,25.8251621 45.4170566,26.6329337 C45.3519553,23.5109422 42.8431564,21 39.7553596,21 C37.424389,21 35.4233415,22.4311161 34.5537884,24.4754282 C33.6248953,22.530453 31.6628317,21.1893062 29.3923534,21.1893062 C26.9582577,21.1893062 24.8800105,22.7308834 24.0475209,24.905368 C23.0517982,24.0579787 21.769361,23.5472422 20.3690119,23.5472422 C17.2019029,23.5472422 14.6345321,26.1563504 14.6345321,29.3749466 C14.6345321,29.8286961 14.6873429,30.2697601 14.7837465,30.6936499 C12.6014141,31.3138717 11,33.3482306 11,35.7641294 C11,38.6728098 13.3200244,41.0305506 16.1819832,41.0305506 C18.2763617,41.0305506 20.0794169,39.7668828 20.8963513,37.949543 C29.3890887,34.8767321 37.7376047,35.3790766 45.9253841,39.867781 L45.9253841,58 L49.1458799,58 L49.1458799,53.0405671 L52.4115049,54.4355784 L52.4115049,36.3318529 C53.9739351,35.2489042 55,33.4257096 55,31.3585636" id="Fill-172" fill="#000000" mask="url(#mask-4)"></path>
                                <path d="M46.0494355,57 L48.1252471,57 L48.1252471,52.605179 C48.1252471,52.4081062 48.2219936,52.2243677 48.3833022,52.1151443 C48.5448034,52.0063131 48.7490891,51.9865078 48.9273572,52.0627877 L51.4024893,53.1214901 L51.4024893,35.8169315 C51.4024893,35.6222118 51.4969232,35.4404342 51.6547627,35.3308186 C53.1233064,34.3117269 54,32.6251369 54,30.8197149 C54,27.8106783 51.5940552,25.3624658 48.6365392,25.3624658 C47.4210399,25.3624658 46.2739569,25.7675925 45.3192108,26.5335291 C45.1469171,26.6717741 44.9127596,26.699031 44.7144483,26.603534 C44.5159444,26.5084292 44.3877841,26.3072385 44.3831588,26.0840855 C44.3247639,23.2807497 42.0352234,21 39.2794876,21 C37.2402933,21 35.3996029,22.2314597 34.5901694,24.137281 C34.5003608,24.3482763 34.2980024,24.4869136 34.0721319,24.492012 C33.843756,24.4976986 33.6379286,24.3676894 33.5392548,24.1606159 C32.6652593,22.3285254 30.8796875,21.1902095 28.8794231,21.1902095 C26.7286426,21.1902095 24.8347608,22.5085382 24.0546211,24.5490748 C23.9869756,24.7255579 23.8399285,24.8583124 23.6595404,24.9055707 C23.4791524,24.9520445 23.2873937,24.908512 23.1445865,24.7867387 C22.2156652,23.9953101 21.0363976,23.5593969 19.8239818,23.5593969 C16.9695723,23.5593969 14.6472689,25.9223093 14.6472689,28.8266326 C14.6472689,29.2241117 14.6925587,29.6251205 14.7821745,30.01907 C14.85194,30.3255623 14.6723228,30.6334272 14.3747597,30.7181391 C12.3876003,31.2834732 11,33.145762 11,35.2463028 C11,37.8396237 13.0734989,39.949577 15.6222509,39.949577 C17.4261313,39.949577 19.0767976,38.8695006 19.8274508,37.1978136 C19.8923982,37.0530974 20.0120788,36.9415209 20.1593186,36.8881838 C28.9572829,33.7012915 37.5656085,34.3619265 45.7457052,38.8516562 C45.9328385,38.9544085 46.0494355,39.1532461 46.0494355,39.369536 L46.0494355,57 Z M48.5916068,58 L45.3817641,58 C45.0646268,58 44.8075868,57.7390726 44.8075868,57.4171392 L44.8075868,39.7158502 C37.1405969,35.6146472 29.0833578,35.0131348 20.8509946,37.9266618 C19.8748931,39.8664226 17.8951297,41.1065562 15.738711,41.1065562 C12.5742284,41.1065562 10,38.4932025 10,35.2808622 C10,32.8594641 11.4926697,30.6935533 13.6883238,29.840245 C13.6443035,29.5342431 13.622102,29.2264926 13.622102,28.9202963 C13.622102,25.399817 16.4436094,22.5358332 19.9114491,22.5358332 C21.135978,22.5358332 22.3327549,22.9010926 23.3501971,23.5752683 C24.4327128,21.4958152 26.541092,20.1884583 28.9044059,20.1884583 C30.9408215,20.1884583 32.8534061,21.2115734 34.0224312,22.8641781 C35.158154,21.0963612 37.1067204,20 39.2327077,20 C42.2503924,20 44.8091179,22.2401284 45.3467393,25.1678384 C46.3113572,24.6121777 47.3938729,24.3223016 48.5251936,24.3223016 C52.0954283,24.3223016 55,27.2708002 55,30.8950288 C55,32.9651562 54.0413152,34.904917 52.4204126,36.1452448 L52.4204126,53.8686825 C52.4204126,54.0639409 52.3241422,54.246182 52.1639468,54.3542055 C52.0037513,54.4620348 51.8008753,54.4818521 51.6236459,54.4060802 L49.1657841,53.3573192 L49.1657841,57.4171392 C49.1657841,57.7390726 48.9085527,58 48.5916068,58 L48.5916068,58 Z" id="Fill-173" fill="#000000" mask="url(#mask-4)"></path>
                                <path d="M47,59.2765856 C47.6934081,60.3177187 48.8488305,61 50.1579354,61 C52.2799149,61 54,59.2093638 54,57.0001006 C54,54.7910388 52.2799149,53 50.1579354,53 C48.8977383,53 47.7815581,53.633777 47.0811908,54.6099021" id="Fill-174" fill="#FFFFFF" mask="url(#mask-4)"></path>
                                <path d="M50.6646356,62 C49.2443419,62 47.9123663,61.2752628 47.1013926,60.0614658 C46.9224818,59.7935255 46.986541,59.4258454 47.2446728,59.2403331 C47.5024256,59.0542307 47.8568357,59.1209207 48.0357465,59.388861 C48.6344532,60.2847494 49.6171358,60.8196463 50.6646356,60.8196463 C52.4281576,60.8196463 53.8628553,59.3306302 53.8628553,57.5000984 C53.8628553,55.6695665 52.4281576,54.1803537 50.6646356,54.1803537 C49.6484073,54.1803537 48.715001,54.667643 48.1037857,55.5169075 C47.9157777,55.7777656 47.5592829,55.831275 47.3079739,55.6363199 C47.0562858,55.4413648 47.0047353,55.0715207 47.1927432,54.8102691 C48.0207741,53.6598177 49.2862267,53 50.6646356,53 C53.0551034,53 55,55.0187982 55,57.5000984 C55,59.9812018 53.0551034,62 50.6646356,62" id="Fill-175" fill="#000000" mask="url(#mask-4)"></path>
                                <path d="M46,57.8033695 C46,57.8033695 48.8329719,58.2457881 48.9486608,57.8033695 C49.0641739,57.3609509 48.9486608,51.3385017 48.9486608,51.3385017 L46,51 L46,57.8033695 Z" id="Fill-176" fill="#000000" mask="url(#mask-4)"></path>
                                <path d="M46,56.8652716 C46.7758361,56.9678749 47.5869293,57.0267528 47.983074,56.988006 C48.0152574,56.1028902 47.9986233,53.6228778 47.9577613,51.2298833 L46,51 L46,56.8652716 Z M47.6430155,58 C47.4234867,58 47.1753463,57.9872096 46.897554,57.9662254 C46.175502,57.9118664 45.480501,57.8055464 45.4513692,57.8011497 C45.192998,57.7613797 45,57.5073709 45,57.2067972 L45,50.5995716 C45,50.430299 45.0620784,50.2690205 45.1708024,50.1553061 C45.2795264,50.0419914 45.4241448,49.9864332 45.5710176,50.0028209 L48.4789935,50.3315734 C48.7410061,50.3609513 48.9425009,50.6113627 48.9483967,50.9147343 C49.0012847,53.6268924 49.0403005,56.9507899 48.9256808,57.3822651 C48.8006569,57.8537101 48.3858759,58 47.6430155,58 L47.6430155,58 Z" id="Fill-177" fill="#000000" mask="url(#mask-4)"></path>
                                <path d="M54.3954908,102 C54.195227,102 53.9996018,101.901635 53.8842434,101.721334 L52.0943735,98.9234544 C51.9152856,98.6431857 51.9985776,98.2717645 52.2807216,98.0936666 C52.5628656,97.9159694 52.9365703,97.9985075 53.1158598,98.2785759 L54.9055281,101.076656 C55.0848176,101.356724 55.0013239,101.728346 54.7193816,101.906243 C54.6187455,101.969749 54.5064123,102 54.3954908,102" id="Fill-178" fill="#000000" mask="url(#mask-4)"></path>
                                <path d="M57.3308494,101 C57.1067286,101 56.8879653,100.916118 56.7611718,100.763529 L55.1008028,98.7643625 C54.9057017,98.5295588 55.0023593,98.2210455 55.3168874,98.0754606 C55.6309691,97.9293754 56.0437174,98.0019177 56.2388186,98.2367213 L57.8991876,100.235888 C58.0942888,100.470691 57.9976311,100.779205 57.6833262,100.924789 C57.5732749,100.975652 57.4513925,101 57.3308494,101" id="Fill-179" fill="#000000" mask="url(#mask-4)"></path>
                                <path d="M59.4681887,101 C59.285998,101 59.1087745,100.892564 59.00943,100.69873 L57.0739861,96.9245858 C56.9246145,96.63312 57.0085251,96.2572987 57.2616762,96.0853196 C57.5151821,95.912932 57.8410676,96.0101554 57.9906165,96.3014169 L59.9260605,100.075766 C60.075432,100.367027 59.991344,100.742848 59.7381929,100.914827 C59.6532179,100.97263 59.5600824,101 59.4681887,101" id="Fill-180" fill="#000000" mask="url(#mask-4)"></path>
                                <path d="M79.6324013,90 C76.5502791,90 73.5278642,89.2624882 70.8327832,87.7722482 C65.9281504,85.0600769 63,80.2324468 63,74.8581834 C63,74.8512494 63,74.8443154 63.000384,74.8373813 L63.8675788,50.5570828 C63.8790979,50.2381171 64.1438448,49.9911884 64.4638832,50 C64.7816179,50.0117979 65.0302381,50.2793361 65.018719,50.5984944 L64.1519081,74.8681993 C64.1555558,79.8845893 66.7928495,84.2185546 71.3887709,86.7600715 C77.0191058,89.8732612 84.1949174,89.4762876 90.116301,85.7243961 C90.3852716,85.5535492 90.7410192,85.6344463 90.9109257,85.9042959 C91.0808321,86.1741454 91.0003905,86.5308631 90.731612,86.7013248 C87.2755036,88.8913246 83.409508,90 79.6324013,90" id="Fill-181" fill="#000000" mask="url(#mask-4)"></path>
                                <path d="M74.531222,70 C74.411534,70 74.2936166,69.954947 74.1978308,69.869366 C74.0565424,69.7428635 73.9832423,69.544945 74.0032493,69.3448625 L75.6787038,52.5253388 C75.7109275,52.2013114 75.9734974,51.9679801 76.2651041,52.0035897 C76.5567107,52.039396 76.7668729,52.3311585 76.7346492,52.6551859 L75.1507312,68.5557465 L78.2994454,67.3794501 C78.577419,67.2755724 78.8787635,67.4420127 78.9722476,67.7506946 C79.0655546,68.05977 78.9159447,68.3944213 78.6379712,68.498299 L74.7004849,69.9693089 C74.6450672,69.9897696 74.587879,70 74.531222,70" id="Fill-182" fill="#000000" mask="url(#mask-4)"></path>
                                <path d="M58,43.3826801 C61.4508434,53.6186428 74.377565,53.9273425 86.6606907,42.755815 C86.8427897,52.0077252 95.5420071,66.8430809 97.7610382,63.5252357 C97.439721,62.9238703 98.3021434,60.3269683 98.4046341,59.5824573 C98.5834642,58.2804325 98.729028,56.9735783 98.8311342,55.6632468 C99.0174636,53.2761369 99.0674591,50.8724136 98.8899751,48.4827924 C98.6021164,44.6039562 97.7220033,40.5935652 95.4872043,37.3479689 C93.4121987,34.3345735 90.2769038,32.4145699 86.7358763,31.6430139 C81.3852038,30.476987 76.0153023,30.6894836 70.6677065,34.0243285 C66.0292776,36.916794 63.8254374,42.7996666 58,43.3826801" id="Fill-183" fill="#FFFFFF" mask="url(#mask-4)"></path>
                                <path d="M85.4259147,41.6494235 C85.5019764,41.6494235 85.5784165,41.6649546 85.6508832,41.6971815 C85.8550389,41.7876499 85.988809,41.9922716 85.99335,42.220384 C86.0612758,45.7469044 87.4436307,50.632004 89.6912347,55.2880205 C92.0103593,60.0921645 94.2426374,62.6351808 95.3353146,62.9646333 C95.5175221,63.0195744 95.6340744,63.0081203 95.7258403,62.9467726 C95.6531844,62.3140762 95.8713414,61.3525097 96.1907248,60.0678972 C96.2949785,59.6495294 96.3933668,59.254264 96.4190991,59.0626496 C96.5999821,57.7176601 96.7399962,56.4039269 96.8353571,55.1579479 C97.0336473,52.5586316 97.0527573,50.2272259 96.8930656,48.0305521 C96.5596808,43.4430664 95.4968984,39.8767476 93.6437935,37.1285272 C91.7466031,34.3142998 88.8888028,32.4140751 85.3795587,31.6330571 C79.4386111,30.3111701 74.5481473,31.0479246 69.9884194,33.9518438 C68.3239551,35.0120325 66.9516281,36.5303874 65.624522,37.9990429 C63.5239328,40.3230713 61.3569315,42.7212606 58,43.3388142 C59.2716682,46.6152846 61.6131194,48.7867204 64.8073319,49.6384047 C70.547908,51.168602 78.1132078,48.2390566 85.0448494,41.8002689 C85.1511844,41.7012584 85.2876035,41.6494235 85.4259147,41.6494235 M96.3671958,64 C96.1978325,64 96.0213804,63.9738516 95.8407134,63.9205933 C93.7911102,63.3159107 91.179964,59.2894354 89.419658,55.7230574 C87.3210084,51.4710519 85.9442605,47.0067825 85.624501,43.4973158 C78.5599032,49.5824039 70.9025336,52.2808844 64.9637039,50.7323584 C61.1231407,49.7306425 58.3797992,47.0879196 57.0304483,43.0895155 C56.9741216,42.9232037 56.9967289,42.7399724 57.0917563,42.5921183 C57.1865922,42.4444565 57.3435023,42.3481303 57.517847,42.3306339 C60.9058805,41.9918578 63.0100861,39.7150209 65.2374825,37.3039809 C66.6330059,35.7939085 68.076043,34.232116 69.893059,33.1002346 C74.7798816,30.0560563 80.0021739,29.2798706 86.3274356,30.6565091 C90.1160786,31.4811463 93.3372394,33.581289 95.3975715,36.5700941 C97.3935301,39.4656493 98.5352001,43.1839191 98.8884875,47.9379362 C99.0545938,50.1724742 99.0352435,52.538908 98.8296701,55.172402 C98.7315773,56.428873 98.5873119,57.7526378 98.4008973,59.1069732 C98.3660283,59.3611514 98.2685103,59.7447259 98.1449363,60.2303947 C97.9838112,60.8643021 97.607725,62.3430349 97.705243,62.6956543 C97.7968218,62.8808083 97.7828359,63.1013396 97.6675003,63.273804 C97.3492734,63.7490903 96.8911877,64 96.3671958,64" id="Fill-184" fill="#000000" mask="url(#mask-4)"></path>
                                <path d="M94,65.4918979 C94.6935187,66.4028683 95.8487017,67 97.1580454,67 C99.2799019,67 101,65.4330415 101,63.4999069 C101,61.5669585 99.2799019,60 97.1580454,60 C95.8977714,60 94.7816397,60.5542932 94.0811695,61.408456" id="Fill-185" fill="#FFFFFF" mask="url(#mask-4)"></path>
                                <path d="M96.6673775,68 C95.2480221,68 93.9167427,67.3558956 93.1063642,66.2769428 C92.9186808,66.0269371 92.985881,65.6838676 93.2566699,65.510589 C93.5270612,65.3373104 93.8988492,65.3995365 94.0867314,65.6491751 C94.6742359,66.4316821 95.6390954,66.8986531 96.6673775,66.8986531 C98.3986769,66.8986531 99.8070973,65.5983296 99.8070973,63.9999082 C99.8070973,62.4016704 98.3986769,61.1013469 96.6673775,61.1013469 C95.6697132,61.1013469 94.753564,61.5266503 94.1533351,62.2684074 C93.9563073,62.5119886 93.5825312,62.5617328 93.318502,62.3800106 C93.0546717,62.1981048 93.0005935,61.8530161 93.1976212,61.6094349 C94.0250981,60.5864672 95.2897737,60 96.6673775,60 C99.0563639,60 101,61.7942776 101,63.9999082 C101,66.2057224 99.0563639,68 96.6673775,68" id="Fill-186" fill="#000000" mask="url(#mask-4)"></path>
                                <path d="M87.7695763,97 C84.1949912,97 80.9975573,95.813286 78.2036106,93.4398579 C78.0742904,93.3301697 78,93.1705532 78,93.0028402 L78,89.2410569 C78,88.9216311 78.263947,88.6627362 78.5896061,88.6627362 C78.9152652,88.6627362 79.1792122,88.9216311 79.1792122,89.2410569 L79.1792122,92.7358488 C84.1301345,96.8056842 90.2335402,96.9138302 97.8207878,93.0654916 L97.8207878,67.5783207 C97.8207878,67.2588949 98.0847348,67 98.4103939,67 C98.736053,67 99,67.2588949 99,67.5783207 L99,93.4155684 C99,93.6299326 98.8791308,93.8265616 98.6859365,93.9269967 C94.7361653,95.9757941 91.0900413,97 87.7695763,97" id="Fill-187" fill="#000000" mask="url(#mask-4)"></path>
                                <path d="M79.7916042,75 C79.0061081,75 78.1912064,74.8090466 77.3490132,74.4261241 C77.0564942,74.2932692 76.9211897,73.9347237 77.0470767,73.6253386 C77.1729636,73.3161566 77.5118013,73.1735509 77.8047047,73.3064058 C79.7550874,74.1931203 81.4596543,73.8244177 83.0154631,72.1787649 C83.2407143,71.9404794 83.6056903,71.9404794 83.8309415,72.1783586 C84.0561926,72.4162378 84.0563848,72.8022075 83.8313258,73.0402898 C82.5972494,74.3454767 81.2449738,75 79.7916042,75" id="Fill-188" fill="#000000" mask="url(#mask-4)"></path>
                                <path d="M83.5,59 C83.2238333,59 83,58.7678613 83,58.4814473 L83,56.5185527 C83,56.2319659 83.2238333,56 83.5,56 C83.7761667,56 84,56.2319659 84,56.5185527 L84,58.4814473 C84,58.7678613 83.7761667,59 83.5,59" id="Fill-189" fill="#000000" mask="url(#mask-4)"></path>
                                <path d="M69.5,59 C69.2238333,59 69,58.7678613 69,58.4814473 L69,56.5185527 C69,56.2319659 69.2238333,56 69.5,56 C69.7761667,56 70,56.2319659 70,56.5185527 L70,58.4814473 C70,58.7678613 69.7761667,59 69.5,59" id="Fill-190" fill="#000000" mask="url(#mask-4)"></path>
                                <path d="M66.6065195,55 C66.4762387,55 66.3451488,54.9559371 66.2342888,54.8648168 C65.9696813,54.6472831 65.922141,54.2440864 66.1278793,53.9643085 C67.4078269,52.2246806 69.2264975,51.6366765 71.5333163,52.2156969 C71.8592204,52.2976196 72.0609128,52.6434918 71.9834322,52.9885084 C71.9059516,53.3333111 71.5786313,53.5467807 71.2527272,53.4644302 C69.4243462,53.0051924 68.0614559,53.4265703 67.0859688,54.7523068 C66.9662076,54.9150827 66.787375,55 66.6065195,55" id="Fill-191" fill="#000000" mask="url(#mask-4)"></path>
                                <path d="M87.4722084,54 C87.3056397,54 87.1418881,53.9206383 87.0390592,53.7719019 C86.1009215,52.4145485 84.9835375,51.8780988 83.6243999,52.1331264 C83.3363381,52.1869854 83.0618342,51.9947338 83.008835,51.7042163 C82.956012,51.4136988 83.1454707,51.1347735 83.4323,51.0809145 C85.2163112,50.7474168 86.7208883,51.4458002 87.9044772,53.1580521 C88.0717503,53.4002392 88.0136449,53.7339152 87.7747085,53.9033392 C87.6824442,53.968612 87.5767981,54 87.4722084,54" id="Fill-192" fill="#000000" mask="url(#mask-4)"></path>
                                <path d="M86.8778553,102 C86.7970546,102 86.7164494,101.999418 86.6358443,101.998643 C81.7220629,101.944165 77.2696087,100.233815 73.4023242,96.9148985 C73.3516526,96.8716648 73.3088066,96.8199006 73.2759385,96.7621264 C72.7641352,95.8674014 72.9724955,94.7373142 73.8327399,93.7390608 C74.8806063,92.5225062 76.9115812,91.5698131 78.6113317,92.2002889 C78.9149703,92.3129292 79.0689418,92.6481361 78.9552729,92.9488335 C78.841604,93.2497248 78.5035321,93.4024969 78.1998934,93.2896626 C77.0442275,92.8610089 75.5256428,93.5655443 74.725461,94.4941971 C74.4830588,94.7753134 73.9696903,95.4784916 74.2561123,96.1085797 C77.8876465,99.1942663 82.0568089,100.784415 86.6489524,100.835403 C86.7250578,100.836373 86.8019456,100.836761 86.8782466,100.836761 C91.2984196,100.836761 96.2474168,99.4305978 101.596701,96.6545268 C101.945924,95.7460367 101.899361,94.9837271 101.458968,94.440882 C100.877907,93.7245203 99.6770469,93.4587201 98.2470888,93.7314998 C97.9287768,93.790825 97.6212253,93.5853194 97.5599889,93.2700814 C97.4989481,92.9544558 97.7075041,92.6496871 98.0256204,92.5890047 C99.8895157,92.2344106 101.515313,92.6539523 102.373992,93.7121125 C103.12272,94.6349491 103.202542,95.909278 102.598787,97.3001247 C102.545963,97.422071 102.452445,97.5223034 102.334081,97.5845367 C96.7418079,100.515125 91.5433652,102 86.8778553,102" id="Fill-193" fill="#000000" mask="url(#mask-4)"></path>
                                <path d="M125.412458,106 C125.317381,106 125.220935,105.97705 125.131727,105.928428 C116.731106,101.368834 109.890257,99.119183 101.520155,98.1634654 C101.198145,98.126707 100.966909,97.8373078 101.003883,97.5171793 C101.040857,97.1968564 101.332936,96.9659982 101.653967,97.004118 C110.185857,97.9785066 117.150932,100.267056 125.694168,104.90425 C125.978616,105.058675 126.083475,105.413033 125.928143,105.696014 C125.821524,105.890114 125.620219,106 125.412458,106" id="Fill-194" fill="#000000" mask="url(#mask-4)"></path>
                                <path d="M46.580902,106 C46.3772373,106 46.1797617,105.887319 46.0735775,105.687897 C45.9174925,105.394642 46.0178743,105.024375 46.2977442,104.860825 C54.5748898,100.025259 63.6800401,97.0450824 73.3604032,96.0033888 C73.6793427,95.9681252 73.9640478,96.2121328 73.9969282,96.5461233 C74.0296151,96.8801138 73.7977119,97.1788408 73.4789659,97.213091 C63.9564285,98.2377609 55.0015608,101.168082 46.8628994,105.922785 C46.7735422,105.975072 46.6764485,106 46.580902,106" id="Fill-195" fill="#000000" mask="url(#mask-4)"></path>
                                <path d="M9.48411174,104 C9.30423604,104 9.12139209,103.968356 8.94369311,103.901255 C8.18045815,103.613599 7.8036888,102.78418 8.10249222,102.048931 C11.5796933,93.4888192 17.105182,87.9421411 24.994186,85.0915028 C25.7613786,84.8141403 26.6172228,85.188532 26.9051427,85.9279747 C27.1928647,86.6672268 26.8040244,87.4913079 26.0366339,87.7688611 C18.9815092,90.3181179 14.0191957,95.3300868 10.8665228,103.090899 C10.6373742,103.654965 10.0771673,104 9.48411174,104" id="Fill-196" fill="#58ADC4" mask="url(#mask-4)"></path>
                                <path d="M223.5,91 C223.223833,91 223,90.7542993 223,90.4511526 L223,87.5488474 C223,87.2457007 223.223833,87 223.5,87 C223.776167,87 224,87.2457007 224,87.5488474 L224,90.4511526 C224,90.7542993 223.776167,91 223.5,91" id="Fill-197" fill="#000000" mask="url(#mask-4)"></path>
                                <path d="M226.5,93 C226.223833,93 226,92.73215 226,92.4016753 L226,90.5983247 C226,90.26785 226.223833,90 226.5,90 C226.776167,90 227,90.26785 227,90.5983247 L227,92.4016753 C227,92.73215 226.776167,93 226.5,93" id="Fill-198" fill="#000000" mask="url(#mask-4)"></path>
                                <path d="M233.5,93 C233.223833,93 233,92.7092234 233,92.3504619 L233,90.6495381 C233,90.29056 233.223833,90 233.5,90 C233.776167,90 234,90.29056 234,90.6495381 L234,92.3504619 C234,92.7092234 233.776167,93 233.5,93" id="Fill-199" fill="#000000" mask="url(#mask-4)"></path>
                                <path d="M236.5,93 C236.223833,93 236,92.7077417 236,92.347152 L236,89.652848 C236,89.2922583 236.223833,89 236.5,89 C236.776167,89 237,89.2922583 237,89.652848 L237,92.347152 C237,92.7077417 236.776167,93 236.5,93" id="Fill-200" fill="#000000" mask="url(#mask-4)"></path>
                            </g>
                        </g>
                    </g>
                    <g id="Group-2" transform="translate(149.000000, 0.000000)">
                        <path d="M84.8663703,35.3246465 L90.1648328,35.3246465 C96.1491777,35.3246465 101,30.4754644 101,24.4937621 L101,15.8311616 C101,9.84918215 96.1491777,5 90.1648328,5 L10.8351672,5 C4.85109964,5 2.27373675e-13,9.84918215 2.27373675e-13,15.8311616 L2.27373675e-13,24.4937621 C2.27373675e-13,30.4754644 4.85109964,35.3246465 10.8351672,35.3246465 L73.8168128,35.3246465 C72.5157718,44.8599945 78.8190673,50.087053 92.7386253,51 C81.342105,49.3676185 78.5780516,40.9830884 84.8663703,35.3246465" id="Fill-1" fill="#DEEFF3"></path>
                        <path d="M87.8660929,30.3248293 L93.1645554,30.3248293 C99.1489004,30.3248293 104,25.4756179 104,19.4938796 L104,10.8312269 C104,4.84921137 99.1489004,0 93.1645554,0 L13.8348899,0 C7.8508223,0 3,4.84921137 3,10.8312269 L3,19.4938796 C3,25.4756179 7.8508223,30.3248293 13.8348899,30.3248293 L76.8165355,30.3248293 C75.5154944,39.8602347 81.8187899,45.0873247 95.7383479,46 C84.342105,44.3678859 81.5780516,35.9830281 87.8660929,30.3248293 Z" id="Stroke-4" stroke="#000000" stroke-linecap="round" stroke-linejoin="round"></path>
                    </g>
                </g>
                <path d="M186.272,21 L186.272,20.072 L185.312,20.072 C185.12,20.072 185.056,19.992 185.056,19.672 L185.056,16.072 L190.256,16.072 L190.256,19.672 C190.256,19.992 190.192,20.072 190.016,20.072 L189.04,20.072 L189.04,21 L193.008,21 L193.008,20.072 L192.048,20.072 C191.872,20.072 191.808,19.992 191.808,19.672 L191.808,11.688 C191.808,11.368 191.872,11.304 192.048,11.304 L193.008,11.304 L193.008,10.376 L189.04,10.376 L189.04,11.304 L190.016,11.304 C190.192,11.304 190.256,11.368 190.256,11.688 L190.256,15.128 L185.056,15.128 L185.056,11.688 C185.056,11.368 185.12,11.304 185.312,11.304 L186.272,11.304 L186.272,10.376 L182.304,10.376 L182.304,11.304 L183.264,11.304 C183.44,11.304 183.52,11.368 183.52,11.688 L183.52,19.672 C183.52,19.992 183.44,20.072 183.264,20.072 L182.304,20.072 L182.304,21 L186.272,21 Z M197.565858,21.192 C199.565858,21.192 200.669858,20.152 201.053858,18.792 L200.125858,18.408 C199.773858,19.528 199.021858,20.216 197.677858,20.216 C195.997858,20.216 195.101858,19.032 195.069858,17.384 L201.117858,17.384 L201.117858,17 C201.117858,14.568 199.757858,13.048 197.453858,13.048 C195.117858,13.048 193.517858,14.728 193.517858,17.112 C193.517858,19.48 194.973858,21.192 197.565858,21.192 Z M199.597858,16.536 L195.069858,16.536 C195.181858,14.904 196.029858,13.992 197.453858,13.992 C198.829858,13.992 199.565858,14.84 199.597858,16.536 Z M205.371717,21 L205.371717,20.072 L204.491717,20.072 C204.347717,20.072 204.267717,20.024 204.267717,19.704 L204.267717,10.232 C203.931717,10.296 203.211717,10.376 202.475717,10.376 L201.579717,10.376 L201.579717,11.304 L202.523717,11.304 C202.683717,11.304 202.747717,11.4 202.747717,11.736 L202.747717,19.704 C202.747717,20.024 202.651717,20.072 202.523717,20.072 L201.611717,20.072 L201.611717,21 L205.371717,21 Z M209.897575,21 L209.897575,20.072 L209.017575,20.072 C208.873575,20.072 208.793575,20.024 208.793575,19.704 L208.793575,10.232 C208.457575,10.296 207.737575,10.376 207.001575,10.376 L206.105575,10.376 L206.105575,11.304 L207.049575,11.304 C207.209575,11.304 207.273575,11.4 207.273575,11.736 L207.273575,19.704 C207.273575,20.024 207.177575,20.072 207.049575,20.072 L206.137575,20.072 L206.137575,21 L209.897575,21 Z M214.359434,21.192 C216.743434,21.192 218.359434,19.528 218.359434,17.112 C218.359434,14.696 216.759434,13.048 214.423434,13.048 C212.023434,13.048 210.391434,14.712 210.391434,17.112 C210.391434,19.544 211.991434,21.192 214.359434,21.192 Z M214.375434,20.216 C212.791434,20.216 211.927434,19.144 211.927434,17.192 L211.927434,17.048 C211.927434,15.096 212.807434,14.024 214.391434,14.024 C215.959434,14.024 216.839434,15.08 216.839434,17.048 L216.839434,17.192 C216.839434,19.128 215.959434,20.216 214.375434,20.216 Z M220.261292,17.992 C220.421292,16.616 220.773292,14.76 220.773292,13.304 L220.773292,10.376 L219.221292,10.376 L219.221292,13.304 C219.221292,14.76 219.573292,16.616 219.733292,17.992 L220.261292,17.992 Z M219.941292,21.192 C220.517292,21.192 220.949292,20.76 220.949292,20.184 C220.949292,19.592 220.517292,19.176 219.941292,19.176 C219.365292,19.176 218.933292,19.592 218.933292,20.184 C218.933292,20.76 219.349292,21.192 219.941292,21.192 Z" id="Hello!" fill="#000000" fill-rule="nonzero"></path>
            </g>
        </g>
    </g>
</svg>