<?xml version="1.0" encoding="UTF-8"?>
<svg width="599px" height="559px" viewBox="0 0 599 559" version="1.1" xmlns="http://www.w3.org/2000/svg" xmlns:xlink="http://www.w3.org/1999/xlink">
    <!-- Generator: Sketch 63.1 (92452) - https://sketch.com -->
    <title>Illustration/welcome</title>
    <desc>Created with Sketch.</desc>
    <defs>
        <polygon id="path-1" points="-2.27373675e-13 558.919136 527.324566 558.919136 527.324566 5.68434189e-14 -2.27373675e-13 5.68434189e-14"></polygon>
        <path d="M546,521 L512,483" id="path-3"></path>
        <path d="M512,465 L544,491" id="path-5"></path>
        <polygon id="path-7" points="-42.9860227 226 -23 208.645858 -49 202"></polygon>
    </defs>
    <g id="SP01_Landing-Page" stroke="none" stroke-width="1" fill="none" fill-rule="evenodd">
        <g id="SP1_LandingPage_web-Copy-4" transform="translate(-755.000000, -114.000000)">
            <g id="Illustration/welcome" transform="translate(806.000000, 114.000000)">
                <g id="Group-180">
                    <path d="M258.214253,54.6462011 C250.982369,59.63615 246.109741,64.0050275 243.59637,67.7528338 C239.826312,73.3745431 236.773654,79.3347587 237.104615,84.8477298 C237.325257,88.523044 236.815775,90.8530976 235.576172,91.8378906 L206.956789,93.7553769 L222.617127,123.518728 L224.234513,130.652344 L283.697202,130.652344 L308.342171,138.492188 L309.401258,124.36046 C317.363953,120.028295 322.466855,115.179497 324.709961,109.814066 C328.074621,101.765919 329.340647,92.1202644 328.074621,84.8477298 C326.808594,77.5751953 318.519432,60.8830957 314.714177,57.7646484 C310.908921,54.6462011 299.002916,47.5467599 296.311393,47.5467599 C294.517044,47.5467599 289.216694,36.3925014 280.410342,14.0839844 L257.433508,17.9003906 L248.910126,24.609375 L258.214253,54.6462011 Z" id="Path-3" fill="#FFFFFF"></path>
                    <path d="M173.355397,329.909339 L183.414406,329.909339 C220.852855,329.909339 234.264462,317.071905 234.264462,281.352598 C234.264462,247.307263 221.41152,233.354456 188.442997,233.354456 L173.355397,233.354456 L173.355397,329.909339 Z M299.642843,356.140372 C351.610228,368.419207 368.373822,398.557392 370.609089,452.137265 C371.167754,463.298902 374.52096,469.438624 384.578751,469.438624 L390.167225,469.438624 L390.167225,536.412705 L285.113908,536.412705 C238.733778,536.412705 220.294191,483.39143 215.264991,430.370156 C213.029723,404.138515 208.000523,385.720566 178.943871,385.720566 L173.355397,385.720566 L173.355397,447.113524 C173.355397,463.856893 177.267268,469.438624 188.442997,469.438624 L202.412658,469.438624 L202.412658,536.412705 L1.80636923,536.412705 L1.80636923,469.438624 L15.77664,469.438624 C26.95176,469.438624 30.8636308,463.856893 30.8636308,447.113524 L30.8636308,255.121565 C30.8636308,238.378197 26.95176,232.796465 15.77664,232.796465 L1.80636923,232.796465 L1.80636923,165.822384 L232.029194,165.822384 C321.436246,165.822384 373.403022,194.844588 373.403022,270.748343 C373.403022,316.513914 346.581028,343.304155 299.642843,356.140372 L299.642843,356.140372 Z" id="Fill-1" fill="#F5B59D"></path>
                    <path d="M186.825672,330.131562 L197.163709,330.131562 C235.639069,330.131562 249.422306,316.938766 249.422306,280.229437 C249.422306,245.240324 236.213574,230.901123 202.331204,230.901123 L186.825672,230.901123 L186.825672,330.131562 Z M316.61254,357.089747 C370.020146,369.708732 387.249192,400.682381 389.545992,455.746375 C390.119887,467.217736 393.566306,473.527837 403.902515,473.527837 L409.645734,473.527837 L409.645734,542.357221 L301.681512,542.357221 C254.015906,542.357221 235.065174,487.867038 229.897069,433.376247 C227.59966,406.418061 222.430946,387.489585 192.56889,387.489585 L186.825672,387.489585 L186.825672,450.583897 C186.825672,467.791548 190.845986,473.527837 202.331204,473.527837 L216.688337,473.527837 L216.688337,542.357221 L10.5228166,542.357221 L10.5228166,473.527837 L24.8799489,473.527837 C36.3651674,473.527837 40.384872,467.791548 40.384872,450.583897 L40.384872,253.270642 C40.384872,236.063601 36.3651674,230.327311 24.8799489,230.327311 L10.5228166,230.327311 L10.5228166,161.497319 L247.125506,161.497319 C339.00969,161.497319 392.417297,191.323345 392.417297,269.331278 C392.417297,316.364955 364.852041,343.89756 316.61254,357.089747 Z" id="Stroke-3" stroke="#000000" stroke-width="2.4" stroke-linecap="round" stroke-linejoin="round"></path>
                    <g id="Group-7" transform="translate(0.000000, -0.000000)">
                        <mask id="mask-2" fill="white">
                            <use xlink:href="#path-1"></use>
                        </mask>
                        <g id="Clip-6"></g>
                        <mask id="mask-4" fill="white">
                            <use xlink:href="#path-3"></use>
                        </mask>
                        <use id="Stroke-50" stroke="#E1EEF2" stroke-width="4" stroke-linecap="round" stroke-linejoin="round" xlink:href="#path-3"></use>
                        <mask id="mask-6" fill="white">
                            <use xlink:href="#path-5"></use>
                        </mask>
                        <use id="Stroke-66" stroke="#58ADC4" stroke-width="4" stroke-linecap="round" stroke-linejoin="round" xlink:href="#path-5"></use>
                        <mask id="mask-8" fill="white">
                            <use xlink:href="#path-7"></use>
                        </mask>
                        <use id="Stroke-46-Copy" stroke="#58ADC4" stroke-width="3" stroke-linecap="round" stroke-linejoin="round" transform="translate(-36.000000, 214.000000) rotate(76.000000) translate(36.000000, -214.000000) " xlink:href="#path-7"></use>
                    </g>
                    <polygon id="Fill-5" fill="#FFFFFF" points="216.017391 165.434164 223.934954 165.434164 223.934954 157.526154 216.017391 157.526154"></polygon>
                    <path d="M260.61814,48.4886504 C258.844669,47.3002583 257.44953,45.6293291 256.447346,43.7460348 L249.723266,31.1063618 L246.463881,31.650357 L255.217309,57.2838475 C255.775364,58.918267 257.387389,59.9308039 259.109684,59.7792885 C262.178989,59.5097248 265.172749,58.6006322 268.07878,56.9503919 C269.673137,56.0443417 270.373752,54.1129763 269.722484,52.4000609 L268.935358,50.3275245 C265.992164,50.8021512 263.135481,50.1754006 260.61814,48.4886504" id="Fill-7" fill="#000000"></path>
                    <path d="M260.61814,48.4886504 C258.844669,47.3002583 257.44953,45.6293291 256.447346,43.7460348 L249.723266,31.1063618 L246.463881,31.650357 L255.217309,57.2838475 C255.775364,58.918267 257.387389,59.9308039 259.109684,59.7792885 C262.178989,59.5097248 265.172749,58.6006322 268.07878,56.9503919 C269.673137,56.0443417 270.373752,54.1129763 269.722484,52.4000609 L268.935358,50.3275245 C265.992164,50.8021512 263.135481,50.1754006 260.61814,48.4886504 Z" id="Stroke-8" stroke="#000000" stroke-width="2.4" stroke-linecap="round" stroke-linejoin="round"></path>
                    <polygon id="Fill-9" fill="#DF6436" points="211.757771 120.59807 200.454103 99.0646237 238.532854 96.0574379 248.014922 118.851687"></polygon>
                    <g id="Group-12" transform="translate(218.104615, 215.727552)">
                        <path d="M10.6794498,0.084641754 L3.73300062,10.9584602 C2.22637292,13.3163811 1.10965292,15.9110068 0.526619077,18.6468036 C-0.894716308,25.3153081 3.96694523,24.7281097 9.98797292,17.0671487 C14.4079422,12.2320417 17.0434745,6.48114872 18.4233822,0.084641754" id="Fill-10" fill="#FFFFFF"></path>
                        <path d="M10.6794498,0.084641754 L3.73300062,10.9584602 C2.22637292,13.3163811 1.10965292,15.9110068 0.526619077,18.6468036 C-0.894716308,25.3153081 3.96694523,24.7281097 9.98797292,17.0671487 C14.4079422,12.2320417 17.0434745,6.48114872 18.4233822,0.084641754" id="Stroke-11" stroke="#000000" stroke-width="2.4" stroke-linecap="round" stroke-linejoin="round"></path>
                    </g>
                    <path d="M221.139559,227.848422 C221.742089,228.016366 229.490286,231.159247 229.490286,231.159247" id="Stroke-13" stroke="#000000" stroke-width="2.4" stroke-linecap="round" stroke-linejoin="round"></path>
                    <path d="M218.631234,234.373686 C217.209899,241.041582 222.071561,240.454992 228.092588,232.793423 C228.580582,232.259772 229.042988,231.713343 229.487727,231.157786 C229.439598,231.138315 221.757807,228.022208 221.141874,227.848178 C219.987991,229.887247 219.120447,232.079657 218.631234,234.373686" id="Fill-14" fill="#000000"></path>
                    <g id="Group-17" transform="translate(188.252308, 184.085775)">
                        <path d="M15.3052172,0.0671170774 L4.04541415,11.3918308 C-2.68475815,18.3773617 0.614835692,23.2538463 6.679728,21.6352477 C9.35242338,20.9220907 11.621808,19.1531937 13.1448849,16.8457779 L22.5306942,2.63010103" id="Fill-15" fill="#FFFFFF"></path>
                        <path d="M15.3052172,0.0671170774 L4.04541415,11.3918308 C-2.68475815,18.3773617 0.614835692,23.2538463 6.679728,21.6352477 C9.35242338,20.9220907 11.621808,19.1531937 13.1448849,16.8457779 L22.5306942,2.63010103" id="Stroke-16" stroke="#000000" stroke-width="2.4" stroke-linecap="round" stroke-linejoin="round"></path>
                    </g>
                    <path d="M192.297478,195.477484 C193.797404,198.790743 196.256869,201.298354 199.675872,203.000925" id="Stroke-18" stroke="#000000" stroke-width="2.4" stroke-linecap="round" stroke-linejoin="round"></path>
                    <path d="M192.297478,195.477484 C185.567306,202.463015 188.8669,207.340108 194.931792,205.720901 C196.730241,205.241406 198.33922,204.275115 199.668561,202.996666 C196.252604,201.294703 193.796186,198.788309 192.297478,195.477484" id="Fill-19" fill="#000000"></path>
                    <path d="M314.714177,5.01777737 C314.714177,7.11708759 313.010767,8.81844161 310.908921,8.81844161 C308.807684,8.81844161 307.103666,7.11708759 307.103666,5.01777737 C307.103666,2.91846715 308.807684,1.21711313 310.908921,1.21711313 C313.010767,1.21711313 314.714177,2.91846715 314.714177,5.01777737 Z" id="Stroke-20" stroke="#58ADC4" stroke-width="2.4" stroke-linecap="round" stroke-linejoin="round"></path>
                    <path d="M249.723388,30.8339383 L256.447468,43.4730028 C257.449652,45.3569055 258.844791,47.0284433 260.618262,48.2162269 C266.444335,52.1203354 274.090182,50.3599573 280.410342,42.3570217" id="Stroke-21" stroke="#000000" stroke-width="2.4" stroke-linecap="round" stroke-linejoin="round"></path>
                    <path d="M269.450828,21.2210447 C275.82521,28.6878956 279.88817,38.7256409 282.550508,50.3229608 C283.207868,53.1847161 286.372822,54.6749221 288.986422,53.3301466 L293.480718,51.0172544 C295.463154,49.9980241 296.674305,47.3881859 296.213727,45.2097713 C294.294041,36.1291897 290.118373,26.2788611 284.704139,16.0050194 C279.014533,5.20787143 265.78265,0.464038833 254.806748,5.82001812 C246.597973,9.82574542 241.090527,18.7067404 244.749567,31.5393065 C253.176447,30.969146 261.388878,27.2056 269.450828,21.2210447" id="Fill-22" fill="#000000"></path>
                    <path d="M269.450828,21.2210447 C275.82521,28.6878956 279.88817,38.7256409 282.550508,50.3229608 C283.207868,53.1847161 286.372822,54.6749221 288.986422,53.3301466 L293.480718,51.0172544 C295.463154,49.9980241 296.674305,47.3881859 296.213727,45.2097713 C294.294041,36.1291897 290.118373,26.2788611 284.704139,16.0050194 C279.014533,5.20787143 265.78265,0.464038833 254.806748,5.82001812 C246.597973,9.82574542 241.090527,18.7067404 244.749567,31.5393065 C253.176447,30.969146 261.388878,27.2056 269.450828,21.2210447 Z" id="Stroke-23" stroke="#000000" stroke-width="2.4" stroke-linecap="round" stroke-linejoin="round"></path>
                    <line x1="266.025063" y1="30.6963574" x2="267.997143" y2="29.5207437" id="Stroke-24" stroke="#000000" stroke-width="2.4" stroke-linecap="round" stroke-linejoin="round"></line>
                    <line x1="255.982929" y1="35.9313069" x2="257.433508" y2="35.067243" id="Stroke-25" stroke="#000000" stroke-width="2.4" stroke-linecap="round" stroke-linejoin="round"></line>
                    <path d="M273.141914,35.6546848 C273.430689,38.0095632 273.029815,40.2816862 270.829274,41.511456" id="Stroke-26" stroke="#000000" stroke-width="2.4" stroke-linecap="round" stroke-linejoin="round"></path>
                    <polyline id="Stroke-27" stroke="#000000" stroke-width="2.4" stroke-linecap="round" stroke-linejoin="round" points="259.589514 30.9180324 264.027761 40.3917022 267.011773 37.7100616"></polyline>
                    <path d="M269.876193,54.5029004 C274.550212,56.4902474 280.928249,55.3876532 283.697202,51.7129475" id="Stroke-28" stroke="#000000" stroke-width="2.4" stroke-linecap="round" stroke-linejoin="round"></path>
                    <path d="M277.648089,55.1999322 C279.100495,65.8778151 269.96508,68.3975958 259.108588,54.6462011" id="Stroke-29" stroke="#000000" stroke-width="2.4" stroke-linecap="round" stroke-linejoin="round"></path>
                    <path d="M277.648089,56.1328779 C283.853714,65.9899 294.137529,61.7499018 293.599578,42.830553" id="Stroke-30" stroke="#000000" stroke-width="2.4" stroke-linecap="round" stroke-linejoin="round"></path>
                    <path d="M296.311143,47.5467599 C349.395857,62.7920116 331.460712,156.041546 275.621057,115.642298 C274.476312,112.719694 278.674521,107.765321 282.108755,108.781509 C300.495949,121.331125 321.15801,100.397047 300.551998,79.9430718" id="Stroke-31" stroke="#000000" stroke-width="2.4" stroke-linecap="round" stroke-linejoin="round"></path>
                    <path d="M254.911962,56.3883852 C242.777913,63.5540308 235.681593,76.5125555 237.810855,90.360701" id="Stroke-32" stroke="#000000" stroke-width="2.4" stroke-linecap="round" stroke-linejoin="round"></path>
                    <polygon id="Stroke-33" stroke="#000000" stroke-width="2.4" stroke-linecap="round" stroke-linejoin="round" points="222.580512 123.518728 206.956789 93.7553769 259.589454 89.5981342 272.695835 121.104825"></polygon>
                    <path d="M248.910126,79.5617276 C250.427719,83.6739416 251.856975,87.5470168 252.811639,90.1337321" id="Stroke-34" stroke="#000000" stroke-width="2.4" stroke-linecap="round" stroke-linejoin="round"></path>
                    <path d="M281.219583,108.650074 C275.428844,105.345334 270.991207,103.978653 266.384814,105.933749" id="Stroke-35" stroke="#000000" stroke-width="2.4" stroke-linecap="round" stroke-linejoin="round"></path>
                    <path d="M271.539089,118.32364 C271.540916,118.327894 275.620935,115.641994 275.620935,115.641994" id="Stroke-36" stroke="#000000" stroke-width="2.4" stroke-linecap="round" stroke-linejoin="round"></path>
                    <line x1="300.183048" y1="101.765919" x2="306.08954" y2="106.558431" id="Stroke-37" stroke="#000000" stroke-width="2.4" stroke-linecap="round" stroke-linejoin="round"></line>
                    <line x1="304.613679" y1="99.6183548" x2="308.342171" y2="102.291477" id="Stroke-38" stroke="#000000" stroke-width="2.4" stroke-linecap="round" stroke-linejoin="round"></line>
                    <line x1="298.879538" y1="106.840956" x2="302.667735" y2="109.814066" id="Stroke-39" stroke="#000000" stroke-width="2.4" stroke-linecap="round" stroke-linejoin="round"></line>
                    <path d="M237.004538,144.537995 C236.82055,144.453414 236.636562,144.370051 236.451966,144.287295 C232.922082,142.715551 228.659295,141.984139 225.103215,143.890556 C222.671775,145.194562 220.898304,147.497719 219.715178,149.940829 C218.359639,152.737475 217.846667,155.516475 217.651104,158.501755 C216.865196,170.558489 219.858956,176.773056 211.382729,186.928849 L202.823646,183.892456 C202.227818,158.117794 210.721104,138.488331 225.889122,127.941883 C233.01103,121.04215 257.817689,117.561555 279.470359,121.87153 C298.304119,125.621081 312.181178,132.254901 308.645202,148.559544 C305.386427,163.581477 287.935012,162.349273 269.339461,157.556153 C261.57055,155.552985 253.948464,152.920024 246.687042,149.501495 C243.40999,147.958958 240.293166,146.056801 237.004538,144.537995" id="Fill-40" fill="#000000"></path>
                    <path d="M237.004538,144.537995 C236.82055,144.453414 236.636562,144.370051 236.451966,144.287295 C232.922082,142.715551 228.659295,141.984139 225.103215,143.890556 C222.671775,145.194562 220.898304,147.497719 219.715178,149.940829 C218.359639,152.737475 217.846667,155.516475 217.651104,158.501755 C216.865196,170.558489 219.858956,176.773056 211.382729,186.928849 L202.823646,183.892456 C202.227818,158.117794 210.721104,138.488331 225.889122,127.941883 C233.01103,121.04215 257.817689,117.561555 279.470359,121.87153 C298.304119,125.621081 312.181178,132.254901 308.645202,148.559544 C305.386427,163.581477 287.935012,162.349273 269.339461,157.556153 C261.57055,155.552985 253.948464,152.920024 246.687042,149.501495 C243.40999,147.958958 240.293166,146.056801 237.004538,144.537995 Z" id="Stroke-41" stroke="#000000" stroke-width="2.4" stroke-linecap="round" stroke-linejoin="round"></path>
                    <path d="M236.527998,215.812194 C240.501401,210.520107 249.060484,172.55971 243.864354,162.179381 L274.126674,162.179381 C262.155899,159.930381 251.215333,156.625641 242.029961,151.49298 C229.645518,143.401204 221.10593,143.71032 221.855284,164.316418 C221.798625,170.762822 221.172336,176.884897 219.715056,182.533563 C220.620373,195.543202 223.30769,206.939109 228.784065,215.812194 L236.527998,215.812194 Z" id="Fill-42" fill="#000000"></path>
                    <path d="M236.527998,215.812194 C240.501401,210.520107 249.060484,172.55971 243.864354,162.179381 L274.126674,162.179381 C262.155899,159.930381 251.215333,156.625641 242.029961,151.49298 C229.645518,143.401204 221.10593,143.71032 221.855284,164.316418 C221.798625,170.762822 221.172336,176.884897 219.715056,182.533563 C220.620373,195.543202 223.30769,206.939109 228.784065,215.812194 L236.527998,215.812194 Z" id="Stroke-43" stroke="#000000" stroke-width="2.4" stroke-linecap="round" stroke-linejoin="round"></path>
                    <polyline id="Stroke-44" stroke="#000000" stroke-width="2.4" stroke-linecap="round" stroke-linejoin="round" points="222.580512 123.518728 222.580512 127.982044 225.889244 127.982044"></polyline>
                    <line x1="309.401258" y1="124.36046" x2="308.815787" y2="143.112472" id="Stroke-45" stroke="#000000" stroke-width="2.4" stroke-linecap="round" stroke-linejoin="round"></line>
                    <line x1="224.907347" y1="16.6023188" x2="230.575021" y2="26.5427048" id="Stroke-46" stroke="#000000" stroke-width="2.4" stroke-linecap="round" stroke-linejoin="round"></line>
                    <line x1="334.226193" y1="29.1992146" x2="332.152981" y2="41.848015" id="Stroke-47" stroke="#000000" stroke-width="2.4" stroke-linecap="round" stroke-linejoin="round"></line>
                    <polyline id="Stroke-50" stroke="#EA5B25" stroke-width="2.4" stroke-linecap="round" stroke-linejoin="round" points="226.373948 67.7528338 218.860305 62.9840528 223.634238 55.4794752"></polyline>
                    <path d="M312.127322,47.5467599 C340.717913,66.6565679 342.295211,114.571955 315.570694,127.547517" id="Stroke-51" stroke="#58ADC4" stroke-width="4.8" stroke-linecap="round" stroke-linejoin="round"></path>
                    <path d="M105.248271,366.28716 C103.385852,376.093069 103.137895,386.33466 99.7524,390.693923 C79.5308123,392.09894 60.9261231,391.587804 46.3472308,386.305452 C44.8917785,381.871344 44.3964738,376.972345 44.4994338,371.783702 L44.5286769,371.781268 C23.0076,369.071028 12.2845292,343.18988 30.6004431,316.740397 C39.204,305.21853 50.1451754,302.205868 63.4684431,294.431118 L63.4684431,283.959515 L63.4739262,283.960124 C59.4140123,281.269356 56.4561969,276.478669 56.4561969,269.910566 L56.4561969,254.074465 C56.9295692,242.909177 79.5302031,241.538237 86.1720369,250.940104 C87.1937169,252.38589 87.6390646,254.160872 87.5129538,255.926118 L86.5156431,269.910566 C85.9295631,278.790953 81.5583323,283.879194 76.3219938,285.696162 L76.87152,285.770399 L77.4807508,294.431118 C90.6663323,302.747429 104.689606,308.92001 115.476646,320.515504 C122.756345,328.341367 129.065538,339.139124 126.976486,350.245996 C125.279778,359.26512 117.774055,364.919262 108.926806,366.037068 L105.248271,366.28716 Z" id="Fill-52" fill="#FFFFFF"></path>
                    <path d="M44.3891631,371.783824 C44.2862031,376.972467 44.7815077,381.871466 46.23696,386.305574 C60.8152431,391.587925 79.4205415,392.099062 99.6421292,390.694045 C103.027625,386.334782 103.276191,376.09319 105.138,366.287282" id="Stroke-53" stroke="#000000" stroke-width="2.4" stroke-linecap="round" stroke-linejoin="round"></path>
                    <path d="M65.5724215,515.507652 C65.5724215,518.043253 65.3208092,520.437684 64.8742431,522.555249 C63.8007785,527.645316 61.6002369,531.13443 59.0609631,531.13443 C56.4778246,531.13443 54.2462123,527.525442 53.1934615,522.294205 C52.7804031,520.241748 52.5488954,517.939809 52.5488954,515.507652 C52.5488954,506.876749 56.25972,498.703434 59.8560092,498.703434 C63.4529077,498.703434 65.5724215,506.876749 65.5724215,515.507652" id="Fill-54" fill="#FFFFFF"></path>
                    <path d="M65.5724215,515.507652 C65.5724215,518.043253 65.3208092,520.437684 64.8742431,522.555249 C63.8007785,527.645316 61.6002369,531.13443 59.0609631,531.13443 C56.4778246,531.13443 54.2462123,527.525442 53.1934615,522.294205 C52.7804031,520.241748 52.5488954,517.939809 52.5488954,515.507652 C52.5488954,506.876749 56.25972,498.703434 59.8560092,498.703434 C63.4529077,498.703434 65.5724215,506.876749 65.5724215,515.507652 Z" id="Stroke-55" stroke="#000000" stroke-width="2.4" stroke-linecap="round" stroke-linejoin="round"></path>
                    <path d="M53.2819218,522.712119 C57.1456634,521.437321 61.0100142,521.38499 64.8743649,522.555127" id="Stroke-56" stroke="#000000" stroke-width="2.4" stroke-linecap="round" stroke-linejoin="round"></path>
                    <line x1="58.3830111" y1="521.715282" x2="58.3830111" y2="505.825025" id="Stroke-57" stroke="#000000" stroke-width="2.4" stroke-linecap="round" stroke-linejoin="round"></line>
                    <polyline id="Stroke-58" stroke="#000000" stroke-width="2.4" stroke-linecap="round" stroke-linejoin="round" points="70.1591982 255.506438 69.1168043 270.951885 71.8845397 270.91355"></polyline>
                    <path d="M60.3418708,251.948503 C62.1951508,250.578171 64.0484308,250.346334 65.90232,251.254209" id="Stroke-59" stroke="#000000" stroke-width="2.4" stroke-linecap="round" stroke-linejoin="round"></path>
                    <path d="M81.4335618,252.765834 C79.7466018,251.194698 77.9310942,250.756582 75.9870388,251.450267" id="Stroke-60" stroke="#000000" stroke-width="2.4" stroke-linecap="round" stroke-linejoin="round"></path>
                    <line x1="62.7008732" y1="258.834788" x2="62.7008732" y2="260.328037" id="Stroke-61" stroke="#000000" stroke-width="2.4" stroke-linecap="round" stroke-linejoin="round"></line>
                    <line x1="77.6338505" y1="259.185343" x2="77.6338505" y2="260.678591" id="Stroke-62" stroke="#000000" stroke-width="2.4" stroke-linecap="round" stroke-linejoin="round"></line>
                    <g id="Group-65" transform="translate(49.347692, 225.463484)">
                        <path d="M42.780672,24.0548701 C45.7342228,23.7743536 48.0444258,21.291691 48.0444258,18.2692928 C48.0444258,16.0860102 46.8381489,14.1868951 45.0567582,13.1926131 C45.188352,12.7082505 45.2645058,12.200765 45.2645058,11.6744163 C45.2645058,8.46338436 42.6582166,5.86084818 39.4433058,5.86084818 C38.9827274,5.86084818 38.5361612,5.91987227 38.1060443,6.02088256 C37.7959458,3.10192861 35.3242966,0.82798012 32.3195705,0.82798012 C30.5558474,0.82798012 28.9779397,1.61476508 27.9105674,2.85244537 C26.8901058,1.1723887 25.047792,0.0466716214 22.9368074,0.0466716214 C20.8398351,0.0466716214 19.0078782,1.1577848 17.9825428,2.8189781 C16.9492874,1.8812862 15.5809551,1.30504076 14.0749366,1.30504076 C10.8600258,1.30504076 8.25434585,3.90818543 8.25434585,7.11860883 C8.25434585,7.29020462 8.265312,7.45875793 8.27993354,7.62609426 C7.55494892,7.30298303 6.75381046,7.11860883 5.90880738,7.11860883 C2.69389662,7.11860883 0.0876073846,9.7217535 0.0876073846,12.9327854 C0.0876073846,15.2834043 1.48761969,17.3042186 3.49808123,18.2200047 L4.56545354,35.1988606 L4.56545354,40.6071705 L7.03832123,40.3479514 L7.03832123,28.5948566 C7.51169354,17.4295687 30.1129366,16.0586279 36.7541612,25.4611037 C37.7758412,26.9068895 38.2211889,28.6818715 38.0950782,30.4465091 L37.2878474,41.7614869 L39.2909982,42.1527497 L40.4856997,36.7949449 L42.780672,24.0548701" id="Fill-63" fill="#000000"></path>
                        <path d="M42.780672,24.0548701 C45.7342228,23.7743536 48.0444258,21.291691 48.0444258,18.2692928 C48.0444258,16.0860102 46.8381489,14.1868951 45.0567582,13.1926131 C45.188352,12.7082505 45.2645058,12.200765 45.2645058,11.6744163 C45.2645058,8.46338436 42.6582166,5.86084818 39.4433058,5.86084818 C38.9827274,5.86084818 38.5361612,5.91987227 38.1060443,6.02088256 C37.7959458,3.10192861 35.3242966,0.82798012 32.3195705,0.82798012 C30.5558474,0.82798012 28.9779397,1.61476508 27.9105674,2.85244537 C26.8901058,1.1723887 25.047792,0.0466716214 22.9368074,0.0466716214 C20.8398351,0.0466716214 19.0078782,1.1577848 17.9825428,2.8189781 C16.9492874,1.8812862 15.5809551,1.30504076 14.0749366,1.30504076 C10.8600258,1.30504076 8.25434585,3.90818543 8.25434585,7.11860883 C8.25434585,7.29020462 8.265312,7.45875793 8.27993354,7.62609426 C7.55494892,7.30298303 6.75381046,7.11860883 5.90880738,7.11860883 C2.69389662,7.11860883 0.0876073846,9.7217535 0.0876073846,12.9327854 C0.0876073846,15.2834043 1.48761969,17.3042186 3.49808123,18.2200047 L4.56545354,35.1988606 L4.56545354,40.6071705 L7.03832123,40.3479514 L7.03832123,28.5948566 C7.51169354,17.4295687 30.1129366,16.0586279 36.7541612,25.4611037 C37.7758412,26.9068895 38.2211889,28.6818715 38.0950782,30.4465091 L37.2878474,41.7614869 L39.2909982,42.1527497 L40.4856997,36.7949449 L42.780672,24.0548701" id="Stroke-64" stroke="#000000" stroke-width="2.4" stroke-linecap="round" stroke-linejoin="round"></path>
                    </g>
                    <path d="M86.4052505,269.910688 L87.4025612,255.926239 C87.528672,254.160993 87.0833243,252.386011 86.0622535,250.940226 C79.4204197,241.538358 56.8191766,242.909299 56.3458043,254.074587 L56.3458043,269.910688 C56.3458043,290.302596 84.8419643,293.600035 86.4052505,269.910688 Z" id="Stroke-66" stroke="#000000" stroke-width="2.4" stroke-linecap="round" stroke-linejoin="round"></path>
                    <g id="Group-69" transform="translate(51.175385, 260.756235)">
                        <path d="M4.12010585,8.34983906 C1.87996431,8.34983906 0.0644566154,6.53652183 0.0644566154,4.29908308 C0.0644566154,2.06164433 1.87996431,0.247718606 4.12010585,0.247718606" id="Fill-67" fill="#FFFFFF"></path>
                        <path d="M4.12010585,8.34983906 C1.87996431,8.34983906 0.0644566154,6.53652183 0.0644566154,4.29908308 C0.0644566154,2.06164433 1.87996431,0.247718606 4.12010585,0.247718606" id="Stroke-68" stroke="#000000" stroke-width="2.4" stroke-linecap="round" stroke-linejoin="round"></path>
                    </g>
                    <g id="Group-72" transform="translate(87.120000, 261.364731)">
                        <path d="M0.0946744615,8.60419027 C2.334816,8.60419027 4.15032369,6.79087304 4.15032369,4.55343429 C4.15032369,2.31599554 2.334816,0.502069815 0.0946744615,0.502069815" id="Fill-70" fill="#FFFFFF"></path>
                        <path d="M0.0946744615,8.60419027 C2.334816,8.60419027 4.15032369,6.79087304 4.15032369,4.55343429 C4.15032369,2.31599554 2.334816,0.502069815 0.0946744615,0.502069815" id="Stroke-71" stroke="#000000" stroke-width="2.4" stroke-linecap="round" stroke-linejoin="round"></path>
                    </g>
                    <path d="M76.7613711,285.770216 L76.7613711,294.430936 C72.1866572,297.343805 67.6984542,297.663873 63.3582942,294.430936 L63.3582942,283.959333" id="Stroke-73" stroke="#000000" stroke-width="2.4" stroke-linecap="round" stroke-linejoin="round"></path>
                    <path d="M63.6144148,275.012194 C64.1755163,276.402607 65.3367102,277.40845 67.0979963,278.030333" id="Stroke-74" stroke="#000000" stroke-width="2.4" stroke-linecap="round" stroke-linejoin="round"></path>
                    <path d="M75.9870388,265.084891 C75.9870388,265.544914 75.6135803,265.917922 75.1530018,265.917922 C74.6924234,265.917922 74.3195742,265.544914 74.3195742,265.084891 C74.3195742,264.624868 74.6924234,264.25186 75.1530018,264.25186 C75.6135803,264.25186 75.9870388,264.624868 75.9870388,265.084891" id="Fill-75" fill="#000000"></path>
                    <path d="M79.5442763,266.750831 C79.5442763,267.210853 79.1708178,267.583861 78.7102394,267.583861 C78.2496609,267.583861 77.8768117,267.210853 77.8768117,266.750831 C77.8768117,266.290808 78.2496609,265.9178 78.7102394,265.9178 C79.1708178,265.9178 79.5442763,266.290808 79.5442763,266.750831" id="Fill-76" fill="#000000"></path>
                    <path d="M75.9870388,268.684813 C75.9870388,269.144835 75.6135803,269.517843 75.1530018,269.517843 C74.6924234,269.517843 74.3195742,269.144835 74.3195742,268.684813 C74.3195742,268.22479 74.6924234,267.851782 75.1530018,267.851782 C75.6135803,267.851782 75.9870388,268.22479 75.9870388,268.684813" id="Fill-77" fill="#000000"></path>
                    <path d="M66.1899988,268.684813 C66.1899988,269.144835 65.8165403,269.517843 65.3559618,269.517843 C64.8953834,269.517843 64.5219249,269.144835 64.5219249,268.684813 C64.5219249,268.22479 64.8953834,267.851782 65.3559618,267.851782 C65.8165403,267.851782 66.1899988,268.22479 66.1899988,268.684813" id="Fill-78" fill="#000000"></path>
                    <path d="M66.7361132,265.084891 C66.7361132,265.544914 66.3626548,265.917922 65.9020763,265.917922 C65.4414978,265.917922 65.0680394,265.544914 65.0680394,265.084891 C65.0680394,264.624868 65.4414978,264.25186 65.9020763,264.25186 C66.3626548,264.25186 66.7361132,264.624868 66.7361132,265.084891" id="Fill-79" fill="#000000"></path>
                    <path d="M62.4804535,267.019116 C62.4804535,267.479139 62.1069951,267.852147 61.6464166,267.852147 C61.1858382,267.852147 60.8123797,267.479139 60.8123797,267.019116 C60.8123797,266.559094 61.1858382,266.186086 61.6464166,266.186086 C62.1069951,266.186086 62.4804535,266.559094 62.4804535,267.019116" id="Fill-80" fill="#000000"></path>
                    <line x1="69.4660763" y1="296.729954" x2="69.4660763" y2="310.374862" id="Stroke-81" stroke="#000000" stroke-width="2.4" stroke-linecap="round" stroke-linejoin="round"></line>
                    <path d="M75.1532455,304.3855 C75.1532455,304.845522 74.7797871,305.21853 74.3192086,305.21853 C73.8586302,305.21853 73.4851717,304.845522 73.4851717,304.3855 C73.4851717,303.925477 73.8586302,303.552469 74.3192086,303.552469 C74.7797871,303.552469 75.1532455,303.925477 75.1532455,304.3855" id="Fill-82" fill="#000000"></path>
                    <path d="M63.3582942,294.430875 C50.0344172,302.205625 39.0938511,305.218287 30.4902942,316.740762 C4.04114954,354.933604 38.137968,391.95996 77.8768726,359.707861" id="Stroke-83" stroke="#000000" stroke-width="2.4" stroke-linecap="round" stroke-linejoin="round"></path>
                    <path d="M76.7613711,294.430875 C89.9475618,302.747186 104.579457,308.919766 115.366497,320.515261 C122.646196,328.341732 128.95539,339.139489 126.866337,350.245753 C125.16963,359.265485 117.663906,364.919018 108.816657,366.036825 C101.581433,366.951394 94.1804972,365.29872 87.4235188,362.785024 C80.0493895,360.040708 71.1503557,357.539182 61.2125834,356.90513 C60.5485218,356.862535 59.9709711,356.404946 59.8223188,355.756898 C58.9968111,352.161297 60.1415557,349.177234 63.0615988,346.745077 C64.1131311,345.869452 65.4589218,345.428292 66.8278634,345.432552 C73.2491557,345.451415 81.6138942,346.612425 87.4235188,347.295157 C100.064448,348.780495 105.69435,340.823197 97.3028049,334.457723" id="Stroke-84" stroke="#000000" stroke-width="2.4" stroke-linecap="round" stroke-linejoin="round"></path>
                    <path d="M40.793544,336.049243 C37.9368609,350.372016 44.1924425,356.701588 59.5608978,355.039786" id="Stroke-85" stroke="#000000" stroke-width="2.4" stroke-linecap="round" stroke-linejoin="round"></path>
                    <path d="M52.1092745,355.15534 C53.3856129,349.835262 56.7223698,347.320957 62.1201545,347.611818" id="Stroke-86" stroke="#000000" stroke-width="2.4" stroke-linecap="round" stroke-linejoin="round"></path>
                    <path d="M73.9615292,535.425481 L73.2109569,544.738508 L91.5628154,554.867528 C93.2327169,555.814347 94.9994862,556.591396 96.8515477,557.098273 C106.44084,559.720281 108.739468,553.376105 98.6055231,546.352847 L87.31404,538.735698 L73.9615292,535.425481 Z" id="Fill-87" fill="#FFFFFF"></path>
                    <path d="M73.9615292,535.425481 L73.2109569,544.738508 L91.5628154,554.867528 C93.2327169,555.814347 94.9994862,556.591396 96.8515477,557.098273 C106.44084,559.720281 108.739468,553.376105 98.6055231,546.352847 L87.31404,538.735698 L73.9615292,535.425481 Z" id="Stroke-88" stroke="#000000" stroke-width="2.4" stroke-linecap="round" stroke-linejoin="round"></path>
                    <g id="Group-91" transform="translate(90.775385, 544.923734)">
                        <path d="M0.152977846,9.58435517 C3.10470092,3.22374945 5.00854708,1.16642544 6.55599323,0.56949114" id="Fill-89" fill="#FFFFFF"></path>
                        <path d="M0.152977846,9.58435517 C3.10470092,3.22374945 5.00854708,1.16642544 6.55599323,0.56949114" id="Stroke-90" stroke="#000000" stroke-width="2.4" stroke-linecap="round" stroke-linejoin="round"></path>
                    </g>
                    <g id="Group-94" transform="translate(81.027692, 538.838777)">
                        <path d="M13.8585988,8.70726944 C13.0123772,8.31296422 0.570666462,0.135390297 0.570666462,0.135390297" id="Fill-92" fill="#FFFFFF"></path>
                        <path d="M13.8585988,8.70726944 C13.0123772,8.31296422 0.570666462,0.135390297 0.570666462,0.135390297" id="Stroke-93" stroke="#000000" stroke-width="2.4" stroke-linecap="round" stroke-linejoin="round"></path>
                    </g>
                    <path d="M73.9270468,542.690555 L91.8688929,552.554271 C95.984856,555.055188 100.158696,556.312949 104.376401,556.624498" id="Stroke-95" stroke="#000000" stroke-width="2.4" stroke-linecap="round" stroke-linejoin="round"></path>
                    <path d="M99.642312,390.694106 C79.4207243,392.099123 60.8154258,391.587986 46.2365335,386.305635 C7.82270585,438.268126 11.2739982,468.829824 53.3761089,509.502894 C58.0757151,508.631529 61.4155182,505.808108 63.1432966,500.668754 C41.4863612,472.69864 46.4540289,447.904265 66.1431489,428.160404 L64.9015366,421.616033 C64.7224228,420.669822 65.3353089,419.754644 66.2796166,419.559317 C67.2501212,419.357297 68.2011305,419.995 68.3826812,420.967985 C75.9066812,461.254661 78.4727612,499.092141 73.6086628,534.866213 C76.1631674,539.217566 80.7025458,540.666394 87.1768412,539.080654 C105.704158,492.759526 111.322484,439.020227 99.642312,390.694106" id="Fill-96" fill="#000000"></path>
                    <path d="M99.642312,390.694106 C79.4207243,392.099123 60.8154258,391.587986 46.2365335,386.305635 C7.82270585,438.268126 11.2739982,468.829824 53.3761089,509.502894 C58.0757151,508.631529 61.4155182,505.808108 63.1432966,500.668754 C41.4863612,472.69864 46.4540289,447.904265 66.1431489,428.160404 L64.9015366,421.616033 C64.7224228,420.669822 65.3353089,419.754644 66.2796166,419.559317 C67.2501212,419.357297 68.2011305,419.995 68.3826812,420.967985 C75.9066812,461.254661 78.4727612,499.092141 73.6086628,534.866213 C76.1631674,539.217566 80.7025458,540.666394 87.1768412,539.080654 C105.704158,492.759526 111.322484,439.020227 99.642312,390.694106 Z" id="Stroke-97" stroke="#000000" stroke-width="2.4" stroke-linecap="round" stroke-linejoin="round"></path>
                    <path d="M43.6817243,395.794152 C47.9579151,396.498181 51.9965058,395.340823 55.8334412,392.602592" id="Stroke-98" stroke="#FFFFFF" stroke-width="2.4" stroke-linecap="round" stroke-linejoin="round"></path>
                    <path d="M86.0042548,395.480107 C88.9553686,399.123171 93.4898732,400.522103 99.0990609,400.39797" id="Stroke-99" stroke="#FFFFFF" stroke-width="2.4" stroke-linecap="round" stroke-linejoin="round"></path>
                    <line x1="50.4014178" y1="391.65918" x2="50.8686978" y2="395.201234" id="Stroke-100" stroke="#FFFFFF" stroke-width="2.4" stroke-linecap="round" stroke-linejoin="round"></line>
                    <line x1="47.087568" y1="392.602774" x2="47.5603311" y2="395.923336" id="Stroke-101" stroke="#FFFFFF" stroke-width="2.4" stroke-linecap="round" stroke-linejoin="round"></line>
                    <path d="M25.2269668,432.01565 C21.521016,442.664934 21.6733237,453.313609 25.6838898,463.962892" id="Stroke-102" stroke="#FFFFFF" stroke-width="2.4" stroke-linecap="round" stroke-linejoin="round"></path>
                    <path d="M22.2917538,258.664531 C22.2917538,261.750213 19.7872062,264.252347 16.6971877,264.252347 C13.6077785,264.252347 11.1032308,261.750213 11.1032308,258.664531 C11.1032308,255.578849 13.6077785,253.076715 16.6971877,253.076715 C19.7872062,253.076715 22.2917538,255.578849 22.2917538,258.664531 Z" id="Stroke-103" stroke="#EA5B25" stroke-width="2.4" stroke-linecap="round" stroke-linejoin="round"></path>
                    <polygon id="Stroke-104" stroke="#58ADC4" stroke-width="2.4" stroke-linecap="round" stroke-linejoin="round" points="98.4200123 209.527893 107.064997 208.491625 103.329803 216.347305"></polygon>
                    <line x1="40.7406018" y1="211.656107" x2="46.5155003" y2="222.250626" id="Stroke-105" stroke="#000000" stroke-width="2.4" stroke-linecap="round" stroke-linejoin="round"></line>
                    <line x1="116.524097" y1="240.378991" x2="128.545438" y2="229.548985" id="Stroke-106" stroke="#000000" stroke-width="2.4" stroke-linecap="round" stroke-linejoin="round"></line>
                    <line x1="17.8759883" y1="283.959272" x2="28.9548498" y2="290.348477" id="Stroke-107" stroke="#000000" stroke-width="2.4" stroke-linecap="round" stroke-linejoin="round"></line>
                    <polyline id="Stroke-108" stroke="#000000" stroke-width="2.4" stroke-linecap="round" stroke-linejoin="round" points="116.524097 270.952068 111.220134 279.453361 121.474097 279.453361"></polyline>
                    <polyline id="Stroke-109" stroke="#58ADC4" stroke-width="2.4" stroke-linecap="round" stroke-linejoin="round" points="112.870479 297.942504 109.806048 292.41006 118.174442 292.998476"></polyline>
                    <path d="M27.2474197,311.872857 C9.29156123,333.578507 10.3985335,367.024474 37.3886751,376.616801" id="Stroke-115" stroke="#58ADC4" stroke-width="4.8" stroke-linecap="round" stroke-linejoin="round"></path>
                    <polyline id="Stroke-116" stroke="#EA5B25" stroke-width="2.4" stroke-linecap="round" stroke-linejoin="round" points="467.206892 169.582888 477.943366 169.582888 473.388148 178.681724"></polyline>
                    <polyline id="Stroke-117" stroke="#000000" stroke-width="2.4" stroke-linecap="round" stroke-linejoin="round" points="458.965036 165.900089 453.976654 176.948546 465.254734 175.323863"></polyline>
                    <g id="Group-120" transform="translate(388.080000, 165.222408)">
                        <line x1="0.144083077" y1="0.352927515" x2="6.43378154" y2="12.0512576" id="Fill-118" fill="#FFFFFF"></line>
                        <line x1="0.144083077" y1="0.352927515" x2="6.43378154" y2="12.0512576" id="Stroke-119" stroke="#58ADC4" stroke-width="2.4" stroke-linecap="round" stroke-linejoin="round"></line>
                    </g>
                    <line x1="479.570012" y1="215.833856" x2="490.871852" y2="205.976834" id="Stroke-121" stroke="#000000" stroke-width="2.4" stroke-linecap="round" stroke-linejoin="round"></line>
                    <polygon id="Stroke-122" stroke="#EA5B25" stroke-width="2.4" stroke-linecap="round" stroke-linejoin="round" points="447.187935 330.239144 455.211504 320.615176 459.384126 332.425469"></polygon>
                    <line x1="3.08191569" y1="549.657709" x2="66.6813434" y2="549.657709" id="Stroke-126" stroke="#58ADC4" stroke-width="4.8" stroke-linecap="round" stroke-linejoin="round"></line>
                    <path d="M220.586804,427.25764 C220.039106,482.852851 243.838706,539.810484 282.067937,549.65777" id="Stroke-127" stroke="#DF6436" stroke-width="4.8" stroke-linecap="round" stroke-linejoin="round"></path>
                    <polyline id="Stroke-128" stroke="#DF6436" stroke-width="4.8" stroke-linecap="round" stroke-linejoin="round" points="2.436984 163.608434 2.436984 153.451423 98.0015317 153.451423"></polyline>
                    <g id="Group-131" transform="translate(368.584615, 327.082268)">
                        <path d="M39.6143778,79.970515 C59.9961932,133.801697 86.123664,121.505216 129.033006,78.6932825 C127.736562,74.1405175 125.494593,70.6653985 122.282119,68.2983502 L82.6815102,86.7728886 C79.9625132,88.0416022 76.7603963,86.4917636 76.0695286,83.5746351 C68.5041009,51.6200911 62.4221502,22.6124918 48.9142855,7.6769645 L7.64986708,0.513752933 C-6.44834215,32.6922234 2.64625477,102.85543 16.5817994,185.31877 L31.9539102,184.353696 L39.6143778,79.970515" id="Fill-129" fill="#000000"></path>
                        <path d="M39.6143778,79.970515 C59.9961932,133.801697 86.123664,121.505216 129.033006,78.6932825 C127.736562,74.1405175 125.494593,70.6653985 122.282119,68.2983502 L82.6815102,86.7728886 C79.9625132,88.0416022 76.7603963,86.4917636 76.0695286,83.5746351 C68.5041009,51.6200911 62.4221502,22.6124918 48.9142855,7.6769645 L7.64986708,0.513752933 C-6.44834215,32.6922234 2.64625477,102.85543 16.5817994,185.31877 L31.9539102,184.353696 L39.6143778,79.970515" id="Stroke-130" stroke="#000000" stroke-width="2.4" stroke-linecap="round" stroke-linejoin="round"></path>
                    </g>
                    <path d="M410.625803,419.017391 C405.164658,407.58619 396.947354,379.364159 395.864751,373.901085" id="Stroke-132" stroke="#FFFFFF" stroke-width="2.4" stroke-linecap="round" stroke-linejoin="round"></path>
                    <path d="M413.182866,342.907903 C424.296454,369.143196 432.95667,394.30206 438.277691,417.998708 C439.905556,422.867891 445.494639,425.144273 450.066916,422.799739 L488.03174,403.332744" id="Stroke-133" stroke="#FFFFFF" stroke-width="2.4" stroke-linecap="round" stroke-linejoin="round" stroke-dasharray="1.2,6"></path>
                    <path d="M395.864994,508.880708 C398.787474,473.779024 399.761025,438.67734 398.787474,403.575656" id="Stroke-134" stroke="#FFFFFF" stroke-width="2.4" stroke-linecap="round" stroke-linejoin="round" stroke-dasharray="1.2,6"></path>
                    <path d="M498.220577,405.140524 C503.279629,399.340952 515.866946,398.570596 522.623315,399.245418 C525.370337,399.519849 527.177315,396.296039 525.394706,394.189427 C520.834004,388.800589 502.729494,386.103736 494.776595,387.621324 C494.051001,387.760061 493.491118,388.33509 493.383894,389.064676 C493.043943,391.359313 492.140454,395.489174 491.657334,395.406418" id="Stroke-135" stroke="#000000" stroke-width="2.4" stroke-linecap="round" stroke-linejoin="round"></path>
                    <path d="M519.655447,390.617192 C520.12821,393.586043 520.186697,396.419807 519.655447,399.061896" id="Stroke-136" stroke="#000000" stroke-width="2.4" stroke-linecap="round" stroke-linejoin="round"></path>
                    <path d="M492.950487,391.465739 C501.347514,390.089931 510.273354,391.031882 519.84437,393.472558" id="Stroke-137" stroke="#000000" stroke-width="2.4" stroke-linecap="round" stroke-linejoin="round"></path>
                    <path d="M502.723158,395.790258 C502.723158,397.070533 501.684419,398.108018 500.402598,398.108018 C499.120776,398.108018 498.082038,397.070533 498.082038,395.790258 C498.082038,394.509983 499.120776,393.472497 500.402598,393.472497 C501.684419,393.472497 502.723158,394.509983 502.723158,395.790258" id="Fill-138" fill="#000000"></path>
                    <path d="M385.902548,512.401281 L387.217268,523.824571 C385.360333,535.226564 377.24477,545.275871 377.730327,550.393928 C377.790031,551.019462 378.222585,551.548245 378.823896,551.73201 C384.517767,553.47535 394.799754,541.588995 402.965274,529.883972 C402.965274,529.883972 398.822505,521.887121 398.742696,520.2168 C398.677508,518.847076 399.152099,511.138044 399.152099,511.138044 L385.902548,512.401281 Z" id="Fill-139" fill="#FFFFFF"></path>
                    <path d="M385.902548,512.401281 L387.217268,523.824571 C385.360333,535.226564 377.24477,545.275871 377.730327,550.393928 C377.790031,551.019462 378.222585,551.548245 378.823896,551.73201 C384.517767,553.47535 394.799754,541.588995 402.965274,529.883972 C402.965274,529.883972 398.822505,521.887121 398.742696,520.2168 C398.677508,518.847076 399.152099,511.138044 399.152099,511.138044 L385.902548,512.401281 Z" id="Stroke-140" stroke="#000000" stroke-width="2.4" stroke-linecap="round" stroke-linejoin="round"></path>
                    <path d="M386.604565,518.499869 C390.49755,519.460683 394.998546,519.141832 398.867771,517.033394" id="Stroke-141" stroke="#000000" stroke-width="2.4" stroke-linecap="round" stroke-linejoin="round"></path>
                    <path d="M396.910374,525.517832 C396.910374,526.786546 395.880774,527.815512 394.610527,527.815512 C393.339672,527.815512 392.309463,526.786546 392.309463,525.517832 C392.309463,524.249119 393.339672,523.220152 394.610527,523.220152 C395.880774,523.220152 396.910374,524.249119 396.910374,525.517832" id="Fill-142" fill="#000000"></path>
                    <path d="M379.703747,543.451175 C382.711519,544.706501 384.87307,546.199141 386.405895,548.707361" id="Stroke-143" stroke="#000000" stroke-width="2.4" stroke-linecap="round" stroke-linejoin="round"></path>
                    <path d="M401.150559,526.236222 C395.902036,534.199606 390.590762,541.073173 384.8975,546.589187" id="Stroke-144" stroke="#000000" stroke-width="2.4" stroke-linecap="round" stroke-linejoin="round"></path>
                    <g id="Group-147" transform="translate(346.652308, 174.958339)">
                        <path d="M79.0191803,120.399214 C78.7943742,124.568626 78.0474572,128.88712 76.6559742,132.835041 C75.3729342,136.476279 72.8488911,139.623419 72.1165957,143.467895 C71.4988357,146.706918 72.7355742,150.098064 72.9079865,153.33161 C73.0468911,155.947533 72.2408788,160.606177 68.7231803,160.460138 C68.4106449,160.447359 68.1121218,160.340264 67.8190818,160.233777 C56.7079311,156.1958 44.9936418,158.047452 33.6808357,155.221598 C28.5297895,153.93463 27.6866142,149.275986 27.2534511,144.592395 C26.6161957,137.70544 27.263808,130.674881 28.0143803,123.824436 C25.0309772,112.326301 25.6761526,102.13704 30.8290265,93.5718546 C-1.89885046,72.1911407 -3.06918277,39.403566 3.11938338,0.300414335 L12.8085895,2.75265207 C3.43679262,39.5234397 29.5782757,79.2563844 53.4278326,83.3722494 L65.1549157,84.9938905 C94.7202757,95.010947 114.842559,151.360084 143.690245,93.0242085 C144.685119,92.882429 151.933137,93.165988 151.933137,93.165988 C142.979882,132.198554 110.29526,146.534105 77.8263065,119.424404" id="Fill-145" fill="#FFFFFF"></path>
                        <path d="M79.0191803,120.399214 C78.7943742,124.568626 78.0474572,128.88712 76.6559742,132.835041 C75.3729342,136.476279 72.8488911,139.623419 72.1165957,143.467895 C71.4988357,146.706918 72.7355742,150.098064 72.9079865,153.33161 C73.0468911,155.947533 72.2408788,160.606177 68.7231803,160.460138 C68.4106449,160.447359 68.1121218,160.340264 67.8190818,160.233777 C56.7079311,156.1958 44.9936418,158.047452 33.6808357,155.221598 C28.5297895,153.93463 27.6866142,149.275986 27.2534511,144.592395 C26.6161957,137.70544 27.263808,130.674881 28.0143803,123.824436 C25.0309772,112.326301 25.6761526,102.13704 30.8290265,93.5718546 C-1.89885046,72.1911407 -3.06918277,39.403566 3.11938338,0.300414335 L12.8085895,2.75265207 C3.43679262,39.5234397 29.5782757,79.2563844 53.4278326,83.3722494 L65.1549157,84.9938905 C94.7202757,95.010947 114.842559,151.360084 143.690245,93.0242085 C144.685119,92.882429 151.933137,93.165988 151.933137,93.165988 C142.979882,132.198554 110.29526,146.534105 77.8263065,119.424404" id="Stroke-146" stroke="#000000" stroke-width="2.4" stroke-linecap="round" stroke-linejoin="round"></path>
                    </g>
                    <path d="M411.044649,263.23476 C406.882994,263.854208 403.228218,263.006574 400.080323,260.692465 L402.219332,251.490792 L413.183049,254.032479 L411.044649,263.23476 Z" id="Fill-148" fill="#FFFFFF"></path>
                    <path d="M411.044649,263.23476 C406.882994,263.854208 403.228218,263.006574 400.080323,260.692465 L402.219332,251.490792 L413.183049,254.032479 L411.044649,263.23476 Z" id="Stroke-149" stroke="#000000" stroke-width="2.4" stroke-linecap="round" stroke-linejoin="round"></path>
                    <path d="M447.307527,233.243162 C447.919804,230.608984 446.278536,227.978457 443.640567,227.366919 C443.308536,227.28964 442.975287,227.248871 442.646911,227.24096 C442.663361,227.13995 442.676764,227.03894 442.693213,226.937321 C442.71941,226.944014 442.744388,226.95375 442.770585,226.959835 C445.059465,227.490444 447.345299,226.067781 447.876548,223.781662 C448.407798,221.495544 446.983416,219.212468 444.694536,218.68186 C444.228474,218.574156 443.763631,218.550425 443.312191,218.595453 C444.756678,218.18837 445.941631,217.029185 446.304733,215.466568 C446.835982,213.18045 445.411601,210.897374 443.122721,210.366766 C442.572585,210.238982 442.021841,210.226812 441.496684,210.310176 C441.907305,209.844676 442.211921,209.274516 442.361791,208.627685 C442.84613,206.544804 441.547859,204.463749 439.461853,203.979995 C438.594308,203.779191 437.72981,203.889329 436.978019,204.23252 C437.163225,203.885678 437.310659,203.51267 437.403262,203.111671 C437.978376,200.639962 436.437631,198.171903 433.963545,197.597483 C432.469711,197.251858 430.980142,197.678413 429.905459,198.611845 C429.906678,198.603935 429.909724,198.596633 429.911551,198.589331 C430.486056,196.117622 428.945311,193.648954 426.471225,193.075143 C424.458327,192.608427 422.447256,193.539425 421.457865,195.233477 C421.391459,195.217656 421.326271,195.197576 421.259256,195.182364 C421.19285,195.166543 421.125225,195.156198 421.058819,195.140986 C420.918087,193.184672 419.523558,191.463846 417.51005,190.997739 C415.397847,190.5079 413.292345,191.559989 412.362659,193.414684 C411.771096,192.231159 410.675699,191.309288 409.284825,190.987394 C406.81013,190.413583 404.338481,191.95186 403.763976,194.423569 C403.690868,194.738162 403.653096,195.052146 403.645785,195.363087 C403.139514,194.973041 402.546124,194.679746 401.882671,194.526405 C399.408585,193.952594 396.936327,195.490871 396.362431,197.962581 C396.194893,198.684256 396.211951,199.404715 396.375225,200.078929 C396.03101,199.896988 395.661207,199.750949 395.263379,199.659067 C392.789293,199.085255 390.317644,200.624141 389.743139,203.09585 C389.420247,204.483221 389.765071,205.869374 390.56621,206.920246 C390.469342,206.891038 390.373084,206.860005 390.272561,206.836274 C387.797256,206.262462 385.326216,207.800739 384.751102,210.272449 C384.22229,212.550048 385.491318,214.821563 387.630327,215.613824 C387.623016,215.640598 387.615705,215.667372 387.609613,215.694146 C385.340228,215.465351 383.200001,216.945821 382.671188,219.222812 C382.096684,221.694522 383.636819,224.163189 386.112124,224.737001 C386.353379,224.792982 386.595244,224.822798 386.834671,224.839836 C386.84381,224.951191 386.857213,225.061937 386.86757,225.173292 C385.173299,225.531087 383.751964,226.829617 383.334641,228.625897 C382.760136,231.097606 384.300271,233.566273 386.774967,234.140085 C387.608394,234.332978 388.439385,234.281864 389.199096,234.041508 C389.255145,234.165642 389.315459,234.287949 389.372727,234.410865 C388.73669,235.010842 388.263318,235.79641 388.050087,236.710979 C387.476191,239.182689 389.016327,241.651356 391.491022,242.225167 C392.532198,242.466132 393.570936,242.330437 394.470161,241.911184 C394.486001,241.927613 394.501841,241.943434 394.51829,241.960472 C394.215502,242.409542 393.985213,242.917635 393.855447,243.476235 C393.280333,245.947944 394.821078,248.416611 397.295164,248.990423 C398.52581,249.275807 399.754628,249.037885 400.750721,248.424522 C400.68797,250.565818 402.138548,252.526391 404.308628,253.029617 C406.578622,253.555966 408.841914,252.301856 409.644881,250.183074 C409.966554,250.244532 410.287619,250.297472 410.609902,250.34676 C410.999201,251.80289 412.159176,253.001626 413.730991,253.365507 C415.929705,253.876035 418.121718,252.564118 418.735213,250.420388 C419.156801,250.361972 419.576561,250.295646 419.994493,250.218367 C420.561078,251.174314 421.499293,251.90816 422.667798,252.17894 C424.937182,252.705289 427.20413,251.294188 427.730505,249.027541 C427.847478,248.526749 427.863927,248.026566 427.802394,247.544637 C427.927287,247.480136 428.052179,247.414419 428.176462,247.348093 C428.725379,247.927381 429.444881,248.358804 430.281354,248.552914 C432.55013,249.078655 434.817078,247.668162 435.344062,245.400907 C435.450068,244.943926 435.473828,244.488163 435.431791,244.045787 C435.592628,244.10116 435.757121,244.149231 435.926487,244.188783 C438.563847,244.800321 441.198161,243.160425 441.810438,240.526247 C442.115662,239.214331 441.860394,237.903631 441.202425,236.842414 C441.276751,236.863103 441.348641,236.888051 441.424185,236.905698 C444.061545,237.516628 446.69525,235.87734 447.307527,233.243162" id="Fill-150" fill="#000000"></path>
                    <path d="M447.307527,233.243162 C447.919804,230.608984 446.278536,227.978457 443.640567,227.366919 C443.308536,227.28964 442.975287,227.248871 442.646911,227.24096 C442.663361,227.13995 442.676764,227.03894 442.693213,226.937321 C442.71941,226.944014 442.744388,226.95375 442.770585,226.959835 C445.059465,227.490444 447.345299,226.067781 447.876548,223.781662 C448.407798,221.495544 446.983416,219.212468 444.694536,218.68186 C444.228474,218.574156 443.763631,218.550425 443.312191,218.595453 C444.756678,218.18837 445.941631,217.029185 446.304733,215.466568 C446.835982,213.18045 445.411601,210.897374 443.122721,210.366766 C442.572585,210.238982 442.021841,210.226812 441.496684,210.310176 C441.907305,209.844676 442.211921,209.274516 442.361791,208.627685 C442.84613,206.544804 441.547859,204.463749 439.461853,203.979995 C438.594308,203.779191 437.72981,203.889329 436.978019,204.23252 C437.163225,203.885678 437.310659,203.51267 437.403262,203.111671 C437.978376,200.639962 436.437631,198.171903 433.963545,197.597483 C432.469711,197.251858 430.980142,197.678413 429.905459,198.611845 C429.906678,198.603935 429.909724,198.596633 429.911551,198.589331 C430.486056,196.117622 428.945311,193.648954 426.471225,193.075143 C424.458327,192.608427 422.447256,193.539425 421.457865,195.233477 C421.391459,195.217656 421.326271,195.197576 421.259256,195.182364 C421.19285,195.166543 421.125225,195.156198 421.058819,195.140986 C420.918087,193.184672 419.523558,191.463846 417.51005,190.997739 C415.397847,190.5079 413.292345,191.559989 412.362659,193.414684 C411.771096,192.231159 410.675699,191.309288 409.284825,190.987394 C406.81013,190.413583 404.338481,191.95186 403.763976,194.423569 C403.690868,194.738162 403.653096,195.052146 403.645785,195.363087 C403.139514,194.973041 402.546124,194.679746 401.882671,194.526405 C399.408585,193.952594 396.936327,195.490871 396.362431,197.962581 C396.194893,198.684256 396.211951,199.404715 396.375225,200.078929 C396.03101,199.896988 395.661207,199.750949 395.263379,199.659067 C392.789293,199.085255 390.317644,200.624141 389.743139,203.09585 C389.420247,204.483221 389.765071,205.869374 390.56621,206.920246 C390.469342,206.891038 390.373084,206.860005 390.272561,206.836274 C387.797256,206.262462 385.326216,207.800739 384.751102,210.272449 C384.22229,212.550048 385.491318,214.821563 387.630327,215.613824 C387.623016,215.640598 387.615705,215.667372 387.609613,215.694146 C385.340228,215.465351 383.200001,216.945821 382.671188,219.222812 C382.096684,221.694522 383.636819,224.163189 386.112124,224.737001 C386.353379,224.792982 386.595244,224.822798 386.834671,224.839836 C386.84381,224.951191 386.857213,225.061937 386.86757,225.173292 C385.173299,225.531087 383.751964,226.829617 383.334641,228.625897 C382.760136,231.097606 384.300271,233.566273 386.774967,234.140085 C387.608394,234.332978 388.439385,234.281864 389.199096,234.041508 C389.255145,234.165642 389.315459,234.287949 389.372727,234.410865 C388.73669,235.010842 388.263318,235.79641 388.050087,236.710979 C387.476191,239.182689 389.016327,241.651356 391.491022,242.225167 C392.532198,242.466132 393.570936,242.330437 394.470161,241.911184 C394.486001,241.927613 394.501841,241.943434 394.51829,241.960472 C394.215502,242.409542 393.985213,242.917635 393.855447,243.476235 C393.280333,245.947944 394.821078,248.416611 397.295164,248.990423 C398.52581,249.275807 399.754628,249.037885 400.750721,248.424522 C400.68797,250.565818 402.138548,252.526391 404.308628,253.029617 C406.578622,253.555966 408.841914,252.301856 409.644881,250.183074 C409.966554,250.244532 410.287619,250.297472 410.609902,250.34676 C410.999201,251.80289 412.159176,253.001626 413.730991,253.365507 C415.929705,253.876035 418.121718,252.564118 418.735213,250.420388 C419.156801,250.361972 419.576561,250.295646 419.994493,250.218367 C420.561078,251.174314 421.499293,251.90816 422.667798,252.17894 C424.937182,252.705289 427.20413,251.294188 427.730505,249.027541 C427.847478,248.526749 427.863927,248.026566 427.802394,247.544637 C427.927287,247.480136 428.052179,247.414419 428.176462,247.348093 C428.725379,247.927381 429.444881,248.358804 430.281354,248.552914 C432.55013,249.078655 434.817078,247.668162 435.344062,245.400907 C435.450068,244.943926 435.473828,244.488163 435.431791,244.045787 C435.592628,244.10116 435.757121,244.149231 435.926487,244.188783 C438.563847,244.800321 441.198161,243.160425 441.810438,240.526247 C442.115662,239.214331 441.860394,237.903631 441.202425,236.842414 C441.276751,236.863103 441.348641,236.888051 441.424185,236.905698 C444.061545,237.516628 446.69525,235.87734 447.307527,233.243162 Z" id="Stroke-151" stroke="#000000" stroke-width="2.4" stroke-linecap="round" stroke-linejoin="round"></path>
                    <g id="Group-154" transform="translate(394.781538, 227.288971)">
                        <path d="M3.02598831,6.9872346 C1.24337908,6.57406601 0.133969846,4.79543304 0.547637538,3.01558307 C0.961305231,1.2351246 2.74147754,0.127053905 4.52408677,0.540222496" id="Fill-152" fill="#FFFFFF"></path>
                        <path d="M3.02598831,6.9872346 C1.24337908,6.57406601 0.133969846,4.79543304 0.547637538,3.01558307 C0.961305231,1.2351246 2.74147754,0.127053905 4.52408677,0.540222496" id="Stroke-153" stroke="#000000" stroke-width="2.4" stroke-linecap="round" stroke-linejoin="round"></path>
                    </g>
                    <g id="Group-157" transform="translate(424.024615, 233.373928)">
                        <path d="M1.95270646,0.108129689 C3.73470646,0.52129828 4.84411569,2.29993126 4.430448,4.07978122 C4.01678031,5.86023969 2.236608,6.96831039 0.453998769,6.5551418" id="Fill-155" fill="#FFFFFF"></path>
                        <path d="M1.95270646,0.108129689 C3.73470646,0.52129828 4.84411569,2.29993126 4.430448,4.07978122 C4.01678031,5.86023969 2.236608,6.96831039 0.453998769,6.5551418" id="Stroke-156" stroke="#000000" stroke-width="2.4" stroke-linecap="round" stroke-linejoin="round"></path>
                    </g>
                    <path d="M407.145877,254.615722 L407.145877,254.615722 C400.232326,253.012945 395.92872,246.115646 397.534043,239.211045 L401.380726,222.658136 C408.952246,215.471801 422.670905,218.313476 426.416455,228.463185 L422.569163,245.015485 C420.964449,251.920695 414.059428,256.2185 407.145877,254.615722" id="Fill-158" fill="#FFFFFF"></path>
                    <path d="M407.145877,254.615722 L407.145877,254.615722 C400.232326,253.012945 395.92872,246.115646 397.534043,239.211045 L401.380726,222.658136 C408.952246,215.471801 422.670905,218.313476 426.416455,228.463185 L422.569163,245.015485 C420.964449,251.920695 414.059428,256.2185 407.145877,254.615722 Z" id="Stroke-159" stroke="#000000" stroke-width="2.4" stroke-linecap="round" stroke-linejoin="round"></path>
                    <polyline id="Stroke-160" stroke="#000000" stroke-width="2.4" stroke-linecap="round" stroke-linejoin="round" points="412.412433 226.712847 408.025362 239.373817 410.252101 239.89043"></polyline>
                    <path d="M415.375854,243.03611 C413.642592,244.943744 411.523078,245.852228 409.016703,245.760345 C411.17277,251.895199 416.737484,248.664086 415.375854,243.03611 Z" id="Stroke-161" stroke="#000000" stroke-width="2.4" stroke-linecap="round" stroke-linejoin="round"></path>
                    <path d="M403.993839,224.761036 C405.126399,223.993114 406.45574,223.786226 407.981254,224.139762" id="Stroke-162" stroke="#000000" stroke-width="2.4" stroke-linecap="round" stroke-linejoin="round"></path>
                    <path d="M418.893247,226.901785 C420.179334,227.139707 421.224774,227.820005 422.029567,228.942679" id="Stroke-163" stroke="#000000" stroke-width="2.4" stroke-linecap="round" stroke-linejoin="round"></path>
                    <path d="M416.284338,233.482058 C417.268855,232.700749 418.893065,233.301943 418.893065,234.639416" id="Stroke-164" stroke="#000000" stroke-width="2.0934" stroke-linecap="round" stroke-linejoin="round"></path>
                    <path d="M403.936754,230.89802 C404.727535,229.921384 406.443738,230.154438 406.73556,231.46027" id="Stroke-165" stroke="#000000" stroke-width="2.0934" stroke-linecap="round" stroke-linejoin="round"></path>
                    <path d="M380.63721,302.195706 C388.682712,312.779272 399.773149,316.171027 402.10102,321.734503" id="Stroke-166" stroke="#000000" stroke-width="2.0934" stroke-linecap="round" stroke-linejoin="round"></path>
                    <path d="M489.355172,259.327974 L485.382378,259.327974 L485.382378,252.713625 C485.382378,251.617725 486.271246,250.729321 487.368471,250.729321 C488.465695,250.729321 489.355172,251.617725 489.355172,252.713625 L489.355172,259.327974 Z" id="Fill-167" fill="#FFFFFF"></path>
                    <path d="M489.355172,259.327974 L485.382378,259.327974 L485.382378,252.713625 C485.382378,251.617725 486.271246,250.729321 487.368471,250.729321 C488.465695,250.729321 489.355172,251.617725 489.355172,252.713625 L489.355172,259.327974 Z" id="Stroke-168" stroke="#000000" stroke-width="2.0892" stroke-linecap="round" stroke-linejoin="round"></path>
                    <path d="M505.548587,291.985878 L468.743129,283.121313 C467.399775,282.797593 466.573049,281.447949 466.897769,280.106216 L472.801215,255.65199 C473.125326,254.309649 474.476599,253.484529 475.819953,253.808248 L512.625412,262.672814 C513.968766,262.996534 514.795492,264.346177 514.471381,265.68791 L508.566716,290.142136 C508.243215,291.483869 506.891332,292.309598 505.548587,291.985878" id="Fill-169" fill="#FFFFFF"></path>
                    <path d="M505.548587,291.985878 L468.743129,283.121313 C467.399775,282.797593 466.573049,281.447949 466.897769,280.106216 L472.801215,255.65199 C473.125326,254.309649 474.476599,253.484529 475.819953,253.808248 L512.625412,262.672814 C513.968766,262.996534 514.795492,264.346177 514.471381,265.68791 L508.566716,290.142136 C508.243215,291.483869 506.891332,292.309598 505.548587,291.985878 Z" id="Stroke-170" stroke="#000000" stroke-width="2.6508" stroke-linecap="round" stroke-linejoin="round"></path>
                    <path d="M503.586438,288.134952 L475.335188,281.330753 C474.144142,281.043543 473.411238,279.846632 473.698185,278.656414 L478.19309,260.038271 C478.480647,258.848053 479.679613,258.116033 480.871268,258.403243 L509.121908,265.207442 C510.313564,265.494044 511.046468,266.691563 510.758911,267.881781 L506.264007,286.499924 C505.97645,287.690142 504.778093,288.422162 503.586438,288.134952" id="Fill-171" fill="#58ADC4"></path>
                    <path d="M474.954967,269.108447 C474.788647,269.796656 474.095343,270.220169 473.406912,270.05405 C472.717872,269.88793 472.293847,269.196071 472.460167,268.507862 C472.626487,267.819653 473.319183,267.39614 474.008223,267.56226 C474.697263,267.72777 475.120678,268.420239 474.954967,269.108447" id="Fill-172" fill="#000000"></path>
                    <path d="M503.183614,258.837709 C502.464113,261.816904 498.551023,263.429418 494.441762,262.440004 C490.33311,261.45059 487.585479,258.233473 488.30498,255.254278 C489.024482,252.275083 492.93818,250.66196 497.046833,251.651983 C501.155485,252.641397 503.903116,255.858514 503.183614,258.837709" id="Fill-173" fill="#FFFFFF"></path>
                    <path d="M503.183614,258.837709 C502.464113,261.816904 498.551023,263.429418 494.441762,262.440004 C490.33311,261.45059 487.585479,258.233473 488.30498,255.254278 C489.024482,252.275083 492.93818,250.66196 497.046833,251.651983 C501.155485,252.641397 503.903116,255.858514 503.183614,258.837709 Z" id="Stroke-174" stroke="#000000" stroke-width="2.0892" stroke-linecap="round" stroke-linejoin="round"></path>
                    <path d="M358.911371,177.144177 L363.18147,171.96527 C363.736479,171.291057 364.06059,170.454984 364.120903,169.584835 C364.240313,167.844537 364.034393,165.577282 362.31819,164.63594 C360.391802,163.579591 357.497956,164.559269 355.94198,165.903436 C355.37966,166.389016 354.465814,167.33766 354.891666,168.168257 C355.302897,168.969038 356.522577,168.796225 357.21771,168.592379 L358.911371,167.982057" id="Stroke-175" stroke="#000000" stroke-width="2.4" stroke-linecap="round" stroke-linejoin="round"></path>
                    <path d="M363.770961,166.39717 C362.392272,149.375719 342.77565,163.377205 354.78237,167.84113" id="Stroke-176" stroke="#000000" stroke-width="2.4" stroke-linecap="round" stroke-linejoin="round"></path>
                    <path d="M350.637347,175.477934 C350.537433,175.029472 351.001667,164.448949 351.001667,164.448949" id="Stroke-177" stroke="#000000" stroke-width="2.4" stroke-linecap="round" stroke-linejoin="round"></path>
                    <path d="M398.245442,345.360019 C400.42466,351.598926 405.756039,354.342024 413.183171,354.761886" id="Stroke-178" stroke="#FFFFFF" stroke-width="2.4" stroke-linecap="round" stroke-linejoin="round"></path>
                    <path d="M384.226006,332.457415 C382.6152,339.169731 382.229557,345.533379 383.725218,351.360943 L388.031262,351.360943" id="Stroke-179" stroke="#FFFFFF" stroke-width="2.4" stroke-linecap="round" stroke-linejoin="round"></path>
                </g>
            </g>
        </g>
    </g>
</svg>