<?xml version="1.0" encoding="UTF-8"?>
<svg width="17px" height="16px" viewBox="0 0 17 16" version="1.1" xmlns="http://www.w3.org/2000/svg" xmlns:xlink="http://www.w3.org/1999/xlink">
    <!-- Generator: Sketch 61.2 (89653) - https://sketch.com -->
    <title>Shape</title>
    <desc>Created with Sketch.</desc>
    <g id="Symbols" stroke="none" stroke-width="1" fill="none" fill-rule="evenodd">
        <g id="element/footer" transform="translate(-1211.000000, -97.000000)" fill="#000000">
            <g id="Footer" transform="translate(0.000000, 10.000000)">
                <g id="Follow-us-on..." transform="translate(1110.000000, 32.000000)">
                    <g id="Social-Media" transform="translate(0.763030, 41.000000)">
                        <path d="M113.907808,14 L104.092192,14 C102.387582,14 101,15.3866416 101,17.0921919 L101,26.9078081 C101,28.6133584 102.387582,30 104.092192,30 L113.907808,30 C115.612418,30 117,28.6133584 117,26.9078081 L117,17.0921919 C117,15.3866416 115.612418,14 113.907808,14 L113.907808,14 Z M114.79492,15.8447789 L115.148636,15.8428975 L115.148636,18.5550329 L112.444967,18.5634995 L112.43556,15.8513641 L114.79492,15.8447789 L114.79492,15.8447789 Z M106.716839,20.3574788 C107.228598,19.6481656 108.060207,19.1834431 109,19.1834431 C109.939793,19.1834431 110.771402,19.6481656 111.283161,20.3574788 C111.617121,20.8203198 111.816557,21.3866416 111.816557,22 C111.816557,23.5522107 110.553151,24.8156162 109,24.8156162 C107.447789,24.8156162 106.184384,23.5522107 106.184384,22 C106.184384,21.3866416 106.383819,20.8203198 106.716839,20.3574788 L106.716839,20.3574788 Z M115.441204,26.9078081 C115.441204,27.7535278 114.753528,28.4412041 113.907808,28.4412041 L104.092192,28.4412041 C103.246472,28.4412041 102.558796,27.7535278 102.558796,26.9078081 L102.558796,20.3574788 L104.94826,20.3574788 C104.741298,20.8654751 104.625588,21.4195673 104.625588,22 C104.625588,24.4120414 106.587959,26.3753528 109,26.3753528 C111.412982,26.3753528 113.375353,24.4120414 113.375353,22 C113.375353,21.4195673 113.257761,20.8654751 113.052681,20.3574788 L115.441204,20.3574788 L115.441204,26.9078081 L115.441204,26.9078081 Z" id="Shape"></path>
                    </g>
                </g>
            </g>
        </g>
    </g>
</svg>