<?xml version="1.0" encoding="UTF-8"?>
<svg width="17px" height="16px" viewBox="0 0 17 16" version="1.1" xmlns="http://www.w3.org/2000/svg" xmlns:xlink="http://www.w3.org/1999/xlink">
    <!-- Generator: Sketch 61.2 (89653) - https://sketch.com -->
    <title>LinkedIn</title>
    <desc>Created with Sketch.</desc>
    <g id="Symbols" stroke="none" stroke-width="1" fill="none" fill-rule="evenodd">
        <g id="element/footer" transform="translate(-1123.000000, -97.000000)" fill="#000000">
            <g id="Footer" transform="translate(0.000000, 10.000000)">
                <g id="Follow-us-on..." transform="translate(1110.000000, 32.000000)">
                    <g id="Social-Media" transform="translate(0.763030, 41.000000)">
                        <g id="LinkedIn" transform="translate(12.026733, 14.000000)">
                            <path d="M1.37684148,5.13049046 L4.49537394,5.13049046 L4.49537394,15.9989755 L1.37684148,15.9989755 L1.37684148,5.13049046 Z M2.85661571,3.77103342 L2.8340381,3.77103342 C1.70515757,3.77103342 0.973266694,2.94019721 0.973266694,1.88807786 C0.973266694,0.814444871 1.72679445,0 2.87825258,0 C4.02876999,0 4.73620178,0.812395953 4.75877939,1.88500448 C4.75877939,2.93712383 4.02876999,3.77103342 2.85661571,3.77103342 L2.85661571,3.77103342 Z M16.9732667,16 L13.4370484,16 L13.4370484,10.3746959 C13.4370484,8.90254834 12.883897,7.89857856 11.6675282,7.89857856 C10.7371425,7.89857856 10.2197389,8.57574593 9.9789111,9.23037521 C9.88860065,9.46395185 9.90271166,9.79075426 9.90271166,10.1185811 L9.90271166,16 L6.39941909,16 C6.39941909,16 6.44457431,6.03611218 6.39941909,5.13049046 L9.90271166,5.13049046 L9.90271166,6.83621462 C10.1096731,6.0904085 11.2291463,5.02599565 13.0155997,5.02599565 C15.2319685,5.02599565 16.9732667,6.59034447 16.9732667,9.95569215 L16.9732667,16 L16.9732667,16 Z" id="Shape"></path>
                        </g>
                    </g>
                </g>
            </g>
        </g>
    </g>
</svg>