<?xml version="1.0" encoding="UTF-8"?>
<svg width="18px" height="13px" viewBox="0 0 18 13" version="1.1" xmlns="http://www.w3.org/2000/svg" xmlns:xlink="http://www.w3.org/1999/xlink">
    <!-- Generator: Sketch 61.2 (89653) - https://sketch.com -->
    <title>Shape</title>
    <desc>Created with Sketch.</desc>
    <g id="Symbols" stroke="none" stroke-width="1" fill="none" fill-rule="evenodd">
        <g id="element/footer" transform="translate(-1253.000000, -100.000000)" fill="#000000">
            <g id="Footer" transform="translate(0.000000, 10.000000)">
                <g id="Follow-us-on..." transform="translate(1110.000000, 32.000000)">
                    <g id="Social-Media" transform="translate(0.763030, 41.000000)">
                        <path d="M159.25,18.9150303 L158.607663,18.9150303 C158.369134,18.9150303 158.031062,19.2633039 158.031062,19.4863129 L158.031062,27.55734 C158.031062,27.7803489 158.369134,28.0840207 158.607663,28.0840207 L159.25,28.0840207 L159.25,30 L153.426708,30 L153.426708,28.0840207 L154.645646,28.0840207 L154.645646,19.5992408 L154.586483,19.5992408 L151.740103,30 L149.537,30 L146.727245,19.5992408 L146.655874,19.5992408 L146.655874,28.0840207 L147.874812,28.0840207 L147.874812,30 L143,30 L143,28.0840207 L143.624494,28.0840207 C143.881805,28.0840207 144.218938,27.7803489 144.218938,27.55734 L144.218938,19.4863129 C144.218938,19.2633039 143.881805,18.9150303 143.624494,18.9150303 L143,18.9150303 L143,17 L149.095628,17 L151.097766,24.5263158 L151.152234,24.5263158 L153.172215,17 L159.25,17 L159.25,18.9150303" id="Shape"></path>
                    </g>
                </g>
            </g>
        </g>
    </g>
</svg>