<?xml version="1.0" encoding="UTF-8"?>
<svg width="24px" height="24px" viewBox="0 0 24 24" version="1.1" xmlns="http://www.w3.org/2000/svg" xmlns:xlink="http://www.w3.org/1999/xlink">
    <!-- Generator: Sketch 63.1 (92452) - https://sketch.com -->
    <title>Icons/Profile/Findmymentor</title>
    <desc>Created with Sketch.</desc>
    <g id="Icons/Profile/Findmymentor" stroke="none" stroke-width="1" fill="none" fill-rule="evenodd">
        <g id="add-user" transform="translate(2.000000, 2.000000)" fill="#000000">
            <path d="M9.95757992,0 C13.1318335,0 15.7142857,2.59345365 15.7142857,5.78122982 C15.7142857,8.96900599 13.1318335,11.5624988 9.95757992,11.5624988 C5.32484861,11.5624988 1.55587064,15.3475329 1.55587064,20 L1.55587064,20 L0,20 C0,17.328895 1.03577912,14.8177111 2.91656569,12.9288731 C4.00109974,11.8397188 5.29203354,11.0334598 6.70047022,10.5453599 C5.19191251,9.5019589 4.20087412,7.75574264 4.20087412,5.78122982 C4.20087412,2.59349278 6.78332632,0 9.95757992,0 Z M16.5384798,11.4285714 L16.5384798,14.8901329 L20,14.8901329 L20,16.5384798 L16.5384798,16.5384798 L16.5384798,20 L14.8901329,20 L14.8901329,16.5384798 L11.4285714,16.5384798 L11.4285714,14.8901329 L14.8901329,14.8901329 L14.8901329,11.4285714 L16.5384798,11.4285714 Z M9.95757992,1.56249878 C7.64123375,1.56249878 5.75674477,3.45505497 5.75674477,5.78126896 C5.75674477,8.10748295 7.64123375,10 9.95757992,10 C12.2739261,10 14.1584151,8.10752208 14.1584151,5.78126896 C14.1584151,3.45501583 12.2739261,1.56249878 9.95757992,1.56249878 Z" id="Combined-Shape"></path>
        </g>
    </g>
</svg>