<?xml version="1.0" encoding="UTF-8"?>
<svg width="59px" height="59px" viewBox="0 0 59 59" version="1.1" xmlns="http://www.w3.org/2000/svg" xmlns:xlink="http://www.w3.org/1999/xlink">
    <!-- Generator: Sketch 61.2 (89653) - https://sketch.com -->
    <title>icon/visual/calender copy 5</title>
    <desc>Created with Sketch.</desc>
    <defs>
        <polygon id="path-1" points="11.0086341 -0.497273171 69.9427268 -0.497273171 69.9427268 62.5027268 11.0086341 62.5027268"></polygon>
    </defs>
    <g id="Styles-&amp;-Behaviours" stroke="none" stroke-width="1" fill="none" fill-rule="evenodd">
        <g id="Styles/Icons" transform="translate(-786.000000, -234.000000)">
            <g id="icon/visual/mentoringsession" transform="translate(775.000000, 232.000000)">
                <mask id="mask-2" fill="white">
                    <use xlink:href="#path-1"></use>
                </mask>
                <g id="Clip-3"></g>
                <path d="M17.4086951,58.6402878 C17.7117537,58.6402878 18.0084805,58.7633244 18.2226073,58.9774512 C18.436878,59.191722 18.5599146,59.4884488 18.5599146,59.7915073 C18.5599146,60.0938463 18.436878,60.3912927 18.2226073,60.6048439 C18.0084805,60.8189707 17.7117537,60.9427268 17.4086951,60.9427268 C17.1052049,60.9427268 16.8089098,60.8189707 16.5947829,60.6048439 C16.3795049,60.3912927 16.2574756,60.0938463 16.2574756,59.7915073 C16.2574756,59.4884488 16.3795049,59.191722 16.5947829,58.9774512 C16.8089098,58.7633244 17.1052049,58.6402878 17.4086951,58.6402878 Z M62.804878,11.0002878 C65.4709585,11.0002878 67.6402878,13.1688976 67.6402878,15.834978 L67.6402878,15.834978 L67.6402878,16.7563854 C67.6402878,18.0851805 67.1006537,19.290939 66.2293244,20.1661537 C68.4400976,21.3802585 69.9427268,23.7310488 69.9427268,26.4264854 L69.9427268,26.4264854 L69.9427268,39.3394268 C69.9427268,42.947061 67.007261,45.8819512 63.3996268,45.8819512 L63.3996268,45.8819512 L54.2859976,45.8819512 L54.2859976,46.5728268 C54.2859976,47.2085878 53.770539,47.7240463 53.134778,47.7240463 C52.4990171,47.7240463 51.9835585,47.2085878 51.9835585,46.5728268 L51.9835585,46.5728268 L51.9835585,44.7307317 C51.9835585,44.0949707 52.4990171,43.5795122 53.134778,43.5795122 L53.134778,43.5795122 L63.3996268,43.5795122 C65.7380415,43.5795122 67.6402878,41.6772659 67.6402878,39.3394268 L67.6402878,39.3394268 L67.6402878,39.0899 L52.5878049,39.0899 C50.7946366,39.0899 49.335322,40.5484951 49.335322,42.3416634 L49.335322,42.3416634 L49.335322,56.8758098 C49.335322,57.6061146 49.9294951,58.2002878 50.6598,58.2002878 C51.3893854,58.2002878 51.9835585,57.6061146 51.9835585,56.8758098 L51.9835585,56.8758098 L51.9835585,55.5520512 C51.9835585,54.9162902 52.4990171,54.4008317 53.134778,54.4008317 C53.770539,54.4008317 54.2859976,54.9162902 54.2859976,55.5520512 L54.2859976,55.5520512 L54.2859976,56.8758098 C54.2859976,57.343061 54.1960585,57.7893024 54.0347439,58.2002878 L54.0347439,58.2002878 L63.5338878,58.2002878 C64.1696488,58.2002878 64.6851073,58.7157463 64.6851073,59.3515073 C64.6851073,59.9872683 64.1696488,60.5027268 63.5338878,60.5027268 L63.5338878,60.5027268 L22.3587951,60.5027268 C21.7230341,60.5027268 21.2075756,59.9872683 21.2075756,59.3515073 C21.2075756,58.7157463 21.7230341,58.2002878 22.3587951,58.2002878 L22.3587951,58.2002878 L26.9079829,58.2002878 C26.7466683,57.7893024 26.6567293,57.343061 26.6567293,56.8758098 L26.6567293,56.8758098 L26.6567293,45.8819512 L17.5425244,45.8819512 C13.9348902,45.8819512 11,42.947061 11,39.3394268 L11,39.3394268 L11,26.4264854 C11,23.7310488 12.5020537,21.3802585 14.7128268,20.1661537 C13.8420732,19.290939 13.302439,18.0851805 13.302439,16.7563854 L13.302439,16.7563854 L13.302439,15.834978 C13.302439,13.1688976 15.4716244,11.0002878 18.1378488,11.0002878 C20.8039293,11.0002878 22.972539,13.1688976 22.972539,15.834978 L22.972539,15.834978 L22.972539,16.7563854 C22.972539,18.0857561 22.4329049,19.2915146 21.5617195,20.1661537 C23.4514463,21.2038341 24.8235561,23.0711122 25.1823049,25.2752659 L25.1823049,25.2752659 L30.4554659,25.2752659 C32.3600146,25.2752659 33.9091244,26.8243756 33.9091244,28.7289244 C33.9091244,29.1324268 33.8389,29.5198122 33.7112585,29.8801439 L33.7112585,29.8801439 L47.2313244,29.8801439 C47.1032512,29.5198122 47.0328829,29.1324268 47.0328829,28.7289244 C47.0328829,26.8243756 48.5827122,25.2752659 50.4865415,25.2752659 L50.4865415,25.2752659 L55.7598463,25.2752659 C56.1190268,23.0711122 57.4911366,21.2038341 59.3804317,20.1661537 C58.5091024,19.2915146 57.9694683,18.0857561 57.9694683,16.7563854 L57.9694683,16.7563854 L57.9694683,15.834978 C57.9694683,13.1688976 60.1387976,11.0002878 62.804878,11.0002878 Z M28.354922,39.0899 L13.302439,39.0899 L13.302439,39.3394268 C13.302439,41.6772659 15.2046854,43.5795122 17.5425244,43.5795122 L17.5425244,43.5795122 L27.8079488,43.5795122 C28.4437098,43.5795122 28.9591683,44.0949707 28.9591683,44.7307317 L28.9591683,44.7307317 L28.9591683,56.8758098 C28.9591683,57.6061146 29.5527659,58.2002878 30.2829268,58.2002878 C31.0130878,58.2002878 31.6066854,57.6061146 31.6066854,56.8758098 L31.6066854,56.8758098 L31.6066854,42.3416634 C31.6066854,40.5484951 30.1479463,39.0899 28.354922,39.0899 L28.354922,39.0899 Z M37.0177049,39.0899 L32.8534561,39.0899 C33.5168463,40.0049756 33.9091244,41.1281341 33.9091244,42.3416634 L33.9091244,42.3416634 L33.9091244,56.8758098 C33.9091244,57.343061 33.819761,57.7893024 33.6578707,58.2002878 L33.6578707,58.2002878 L37.0177049,58.2002878 L37.0177049,39.0899 Z M41.6225829,39.0899 L39.3201439,39.0899 L39.3201439,58.2002878 L41.6225829,58.2002878 L41.6225829,39.0899 Z M48.0891268,39.0899 L43.925022,39.0899 L43.925022,58.2002878 L47.2842805,58.2002878 C47.122822,57.7893024 47.0328829,57.343061 47.0328829,56.8758098 L47.0328829,56.8758098 L47.0328829,42.3416634 C47.0328829,41.1281341 47.4258805,40.0049756 48.0891268,39.0899 L48.0891268,39.0899 Z M53.134778,50.0640439 C53.4371171,50.0640439 53.7345634,50.1872244 53.9486902,50.4013512 C54.1628171,50.615622 54.2859976,50.9129244 54.2859976,51.2152634 C54.2859976,51.5194732 54.1622415,51.8150488 53.9486902,52.0293195 C53.7345634,52.2434463 53.4371171,52.3664829 53.134778,52.3664829 C52.8317195,52.3664829 52.5349927,52.2434463 52.3208659,52.0293195 C52.1065951,51.8150488 51.9835585,51.5194732 51.9835585,51.2152634 C51.9835585,50.9129244 52.1065951,50.6160537 52.3208659,50.4013512 C52.5349927,50.1872244 52.8317195,50.0640439 53.134778,50.0640439 Z M18.1378488,21.5910756 C15.4716244,21.5910756 13.302439,23.760261 13.302439,26.4264854 L13.302439,26.4264854 L13.302439,36.787461 L22.972539,36.787461 L22.972539,32.527661 C22.972539,32.3944073 22.9955634,32.2663341 23.0371512,32.1477585 C20.6408878,31.9121902 18.5053756,30.5029537 17.3530049,28.3511805 C17.0528244,27.7906805 17.2636415,27.0931854 17.8241415,26.7930049 C18.3844976,26.4928244 19.0827122,26.7036415 19.3828927,27.2639976 C20.2468829,28.8778634 21.9209,29.8801439 23.7516268,29.8801439 L23.7516268,29.8801439 L30.4554659,29.8801439 C31.0900756,29.8801439 31.6066854,29.3635341 31.6066854,28.7289244 C31.6066854,28.0943146 31.0900756,27.5777049 30.4554659,27.5777049 L30.4554659,27.5777049 L24.1237585,27.5777049 C23.4879976,27.5777049 22.972539,27.0622463 22.972539,26.4264854 C22.972539,23.760261 20.8039293,21.5910756 18.1378488,21.5910756 Z M27.5066171,32.1825829 L25.2221659,32.1825829 C25.2564146,32.291661 25.274978,32.4073585 25.274978,32.527661 L25.274978,32.527661 L25.274978,36.787461 L27.5066171,36.787461 C27.1131878,36.1095366 26.8865415,35.3231098 26.8865415,34.485022 C26.8865415,33.6463585 27.1131878,32.8605073 27.5066171,32.1825829 L27.5066171,32.1825829 Z M49.4505878,32.1825829 L31.4914195,32.1825829 C30.2222,32.1825829 29.1889805,33.2152268 29.1889805,34.485022 C29.1889805,35.7542415 30.2222,36.787461 31.4914195,36.787461 L31.4914195,36.787461 L49.4505878,36.787461 C50.7203829,36.787461 51.7530268,35.7542415 51.7530268,34.485022 C51.7530268,33.2152268 50.7203829,32.1825829 49.4505878,32.1825829 L49.4505878,32.1825829 Z M55.7199854,32.1825829 L53.4361098,32.1825829 C53.829539,32.8605073 54.0554659,33.6463585 54.0554659,34.485022 C54.0554659,35.3231098 53.8289634,36.1095366 53.4361098,36.787461 L53.4361098,36.787461 L55.6670293,36.787461 L55.6670293,32.527661 C55.6670293,32.4073585 55.6855927,32.291661 55.7199854,32.1825829 L55.7199854,32.1825829 Z M62.804878,21.5910756 C60.1387976,21.5910756 57.9694683,23.760261 57.9694683,26.4264854 C57.9694683,27.0622463 57.4540098,27.5777049 56.8182488,27.5777049 L56.8182488,27.5777049 L50.4865415,27.5777049 C49.8519317,27.5777049 49.335322,28.0943146 49.335322,28.7289244 C49.335322,29.3635341 49.8519317,29.8801439 50.4865415,29.8801439 L50.4865415,29.8801439 L57.1909561,29.8801439 C59.0212512,29.8801439 60.6952683,28.8778634 61.5598341,27.2639976 C61.8600146,26.7040732 62.5575098,26.4928244 63.1180098,26.7930049 C63.6783659,27.0931854 63.8897585,27.7906805 63.589578,28.3511805 C62.4366317,30.5029537 60.3016951,31.9121902 57.9054317,32.1477585 C57.9470195,32.2663341 57.9694683,32.3944073 57.9694683,32.527661 L57.9694683,32.527661 L57.9694683,36.787461 L67.6402878,36.787461 L67.6402878,26.4264854 C67.6402878,23.760261 65.4709585,21.5910756 62.804878,21.5910756 Z M48.7597122,2 C50.664261,2 52.2133707,3.54925366 52.2133707,5.45365854 L52.2133707,5.45365854 L52.2133707,16.735322 C52.2133707,18.6398707 50.664261,20.1889805 48.7597122,20.1889805 L48.7597122,20.1889805 L44.7474244,20.1889805 L41.2852756,23.6511293 C41.0605,23.8760488 40.7659317,23.9884366 40.4713634,23.9884366 C40.1767951,23.9884366 39.8822268,23.8760488 39.6568756,23.6511293 L39.6568756,23.6511293 L36.1953024,20.1889805 L32.1822951,20.1889805 C30.2778902,20.1889805 28.7286366,18.6398707 28.7286366,16.735322 L28.7286366,16.735322 L28.7286366,5.45365854 C28.7286366,3.54925366 30.2778902,2 32.1822951,2 L32.1822951,2 Z M48.7597122,4.30243902 L32.1822951,4.30243902 C31.5476854,4.30243902 31.0310756,4.81904878 31.0310756,5.45365854 L31.0310756,5.45365854 L31.0310756,16.735322 C31.0310756,17.3705073 31.5476854,17.8865415 32.1822951,17.8865415 L32.1822951,17.8865415 L36.6719073,17.8865415 C36.9777,17.8865415 37.2701098,18.0079951 37.486539,18.2238488 L37.486539,18.2238488 L40.4713634,21.2086732 L43.4561878,18.2238488 C43.6720415,18.0079951 43.9648829,17.8865415 44.2701,17.8865415 L44.2701,17.8865415 L48.7597122,17.8865415 C49.3948976,17.8865415 49.9109317,17.3705073 49.9109317,16.735322 L49.9109317,16.735322 L49.9109317,5.45365854 C49.9109317,4.81904878 49.3948976,4.30243902 48.7597122,4.30243902 L48.7597122,4.30243902 Z M62.804878,13.3027268 C61.4085927,13.3027268 60.2719073,14.4386927 60.2719073,15.834978 L60.2719073,15.834978 L60.2719073,16.7563854 C60.2719073,18.1526707 61.4085927,19.2886366 62.804878,19.2886366 C64.2011634,19.2886366 65.3378488,18.1526707 65.3378488,16.7563854 L65.3378488,16.7563854 L65.3378488,15.834978 C65.3378488,14.4386927 64.2011634,13.3027268 62.804878,13.3027268 Z M18.1378488,13.3027268 C16.7409878,13.3027268 15.604878,14.4386927 15.604878,15.834978 L15.604878,15.834978 L15.604878,16.7563854 C15.604878,18.1526707 16.7409878,19.2886366 18.1378488,19.2886366 C19.5341341,19.2886366 20.6701,18.1526707 20.6701,16.7563854 L20.6701,16.7563854 L20.6701,15.834978 C20.6701,14.4386927 19.5341341,13.3027268 18.1378488,13.3027268 Z M35.0603439,9.50264146 C35.3634024,9.50264146 35.6601293,9.62452683 35.8742561,9.83980488 C36.0885268,10.0540756 36.2115634,10.3508024 36.2115634,10.653861 C36.2115634,10.9562 36.0885268,11.2536463 35.8742561,11.4677732 C35.6601293,11.6819 35.3634024,11.8050805 35.0603439,11.8050805 C34.7580049,11.8050805 34.4605585,11.6819 34.2464317,11.4677732 C34.0323049,11.2536463 33.9091244,10.9562 33.9091244,10.653861 C33.9091244,10.3508024 34.0323049,10.0540756 34.2464317,9.83980488 C34.4605585,9.62452683 34.7580049,9.50264146 35.0603439,9.50264146 Z M40.4713634,9.50264146 C40.7737024,9.50264146 41.0711488,9.62567805 41.2852756,9.83980488 C41.4994024,10.0540756 41.6225829,10.3508024 41.6225829,10.653861 C41.6225829,10.9562 41.4988268,11.2536463 41.2852756,11.4677732 C41.0711488,11.6819 40.7737024,11.8050805 40.4713634,11.8050805 C40.1683049,11.8050805 39.871578,11.6819 39.6574512,11.4677732 C39.4431805,11.2536463 39.3201439,10.9562 39.3201439,10.653861 C39.3201439,10.3508024 39.4431805,10.0540756 39.6574512,9.83980488 C39.871578,9.62567805 40.1683049,9.50264146 40.4713634,9.50264146 Z M45.8816634,9.50264146 C46.184722,9.50264146 46.4814488,9.62452683 46.6957195,9.83980488 C46.9098463,10.0540756 47.0328829,10.3508024 47.0328829,10.653861 C47.0328829,10.9562 46.9098463,11.2536463 46.6957195,11.4677732 C46.4814488,11.6819 46.184722,11.8050805 45.8816634,11.8050805 C45.5793244,11.8050805 45.281878,11.6819 45.0677512,11.4677732 C44.8536244,11.2536463 44.7304439,10.9562 44.7304439,10.653861 C44.7304439,10.3508024 44.8542,10.0540756 45.0677512,9.83980488 C45.281878,9.62452683 45.5793244,9.50264146 45.8816634,9.50264146 Z" id="Combined-Shape" fill="#EA5B29" fill-rule="evenodd" mask="url(#mask-2)"></path>
                <g id="Group-5" stroke-width="1" fill-rule="evenodd" mask="url(#mask-2)">
                    <g transform="translate(57.000000, 49.440000)"></g>
                </g>
            </g>
        </g>
    </g>
</svg>