<?xml version="1.0" encoding="UTF-8"?>
<svg width="59px" height="59px" viewBox="0 0 59 59" version="1.1" xmlns="http://www.w3.org/2000/svg" xmlns:xlink="http://www.w3.org/1999/xlink">
    <!-- Generator: Sketch 61.2 (89653) - https://sketch.com -->
    <title>icon/visual/calender copy 4</title>
    <desc>Created with Sketch.</desc>
    <g id="Styles-&amp;-Behaviours" stroke="none" stroke-width="1" fill="none" fill-rule="evenodd">
        <g id="Styles/Icons" transform="translate(-653.000000, -233.000000)" fill="#EA5B29">
            <g id="icon/visual/look-for-mentor" transform="translate(648.000000, 231.000000)">
                <g id="Group" transform="translate(5.000000, 2.000000)">
                    <path d="M55.4890683,1.38555833e-13 C57.3294366,1.38555833e-13 58.8390115,1.44769147 58.937605,3.26444611 L58.9427268,3.45365854 L58.9427268,55.4890683 C58.9427268,57.3294366 57.4944975,58.8390115 55.6782269,58.937605 L55.4890683,58.9427268 L14.5055098,58.9427268 C12.6644459,58.9427268 11.1555201,57.4944975 11.0569707,55.6782269 L11.0518512,55.4890683 L11.0518512,51.7660244 C11.0518512,51.1302634 11.5673098,50.6148049 12.2030707,50.6148049 C12.7964476,50.6148049 13.2850278,51.0638265 13.3475345,51.6405933 L13.3542902,51.7660244 L13.3542902,55.4890683 C13.3542902,56.0813707 13.8043147,56.5708821 14.3802792,56.6335178 L14.5055098,56.6402878 L55.4890683,56.6402878 C56.0813707,56.6402878 56.5708821,56.1902633 56.6335178,55.6142988 L56.6402878,55.4890683 L56.6402878,3.45365854 C56.6402878,2.8613561 56.1902633,2.37184477 55.6142988,2.30920905 L55.4890683,2.30243902 L14.5055098,2.30243902 C13.9132073,2.30243902 13.423696,2.75246352 13.3610603,3.32842803 L13.3542902,3.45365854 L13.3542902,7.36766098 C13.3542902,8.00342195 12.8388317,8.51888049 12.2030707,8.51888049 C11.6096938,8.51888049 11.1211137,8.06985883 11.0586069,7.49309205 L11.0518512,7.36766098 L11.0518512,3.45365854 C11.0518512,1.61273382 12.4994082,0.10367819 14.3162839,0.00511995285 L14.5055098,1.38555833e-13 L55.4890683,1.38555833e-13 Z M30.3893171,4.60487805 C40.2723927,4.60487805 48.3123659,12.6454268 48.3123659,22.5280707 C48.3123659,32.4111463 40.2723927,40.4512634 30.3893171,40.4512634 C27.2172962,40.4512634 24.236101,39.6221765 21.6484784,38.1704789 L21.2633122,37.9480805 L7.59761707,51.6137756 C6.73031707,52.4816512 5.59032195,52.915661 4.45090244,52.915661 C3.31090732,52.915661 2.1714878,52.4816512 1.3036122,51.6137756 C0.463221951,50.7733854 1.10134124e-13,49.655839 1.10134124e-13,48.467061 C1.10134124e-13,47.3574005 0.403517789,46.3099161 1.14058855,45.4915639 L1.3036122,45.3197707 L8.13725122,38.4859878 C8.58694634,38.0368683 9.3159561,38.0368683 9.76507561,38.4859878 C10.1826497,38.9035618 10.2124764,39.5620976 9.85455576,40.0140947 L9.76507561,40.1145317 L2.93143659,46.9481707 C2.52620732,47.3534 2.30243902,47.8930341 2.30243902,48.467061 C2.30243902,49.0409439 2.52620732,49.5800024 2.93143659,49.9858073 C3.72707317,50.7815806 4.99713199,50.8213693 5.8402108,50.1051733 L5.96964878,49.9858073 L19.331278,36.624322 C15.1536463,33.3398927 12.4661244,28.2420049 12.4661244,22.5280707 C12.4661244,12.6454268 20.5066732,4.60487805 30.3893171,4.60487805 Z M49.9504073,50.4231268 C50.2540415,50.4231268 50.5501927,50.5463073 50.7644634,50.7604341 C50.9785902,50.974561 51.1016268,51.2720073 51.1016268,51.5743463 C51.1016268,51.8774049 50.9785902,52.1741317 50.7644634,52.3884024 C50.5501927,52.6025293 50.2540415,52.7255659 49.9504073,52.7255659 C49.6474927,52.7255659 49.350622,52.6025293 49.1364951,52.3884024 C48.9223683,52.1741317 48.7991878,51.8774049 48.7991878,51.5743463 C48.7991878,51.2720073 48.9223683,50.9751366 49.1364951,50.7604341 C49.350622,50.5463073 49.6474927,50.4231268 49.9504073,50.4231268 Z M45.242639,50.4231268 C45.8789756,50.4231268 46.3938585,50.9385854 46.3938585,51.5743463 C46.3938585,52.1677233 45.9453383,52.6563034 45.3681704,52.7188102 L45.242639,52.7255659 L22.321139,52.7255659 C21.685378,52.7255659 21.1699195,52.2101073 21.1699195,51.5743463 C21.1699195,50.9809694 21.6189412,50.4923893 22.1957079,50.4298825 L22.321139,50.4231268 L45.242639,50.4231268 Z M49.9504073,44.4372171 C50.5861683,44.4372171 51.1016268,44.9526756 51.1016268,45.5884366 C51.1016268,46.1818135 50.6526052,46.6703936 50.0758384,46.7329004 L49.9504073,46.7396561 L22.321139,46.7396561 C21.685378,46.7396561 21.1699195,46.2241976 21.1699195,45.5884366 C21.1699195,44.9950597 21.6189412,44.5064796 22.1957079,44.4439728 L22.321139,44.4372171 L49.9504073,44.4372171 Z M30.3893171,6.90731707 C21.7758927,6.90731707 14.7685634,13.9146463 14.7685634,22.5280707 C14.7685634,31.1413512 21.7758927,38.1488244 30.3893171,38.1488244 C39.0025976,38.1488244 46.0099268,31.1413512 46.0099268,22.5280707 C46.0099268,13.9146463 39.0025976,6.90731707 30.3893171,6.90731707 Z M12.5746268,34.525361 C12.8786927,34.525361 13.1744122,34.6483976 13.388539,34.8626683 C13.6038171,35.0767951 13.7258463,35.373522 13.7258463,35.6765805 C13.7258463,35.9789195 13.6038171,36.2763659 13.388539,36.4899171 C13.1744122,36.7040439 12.8786927,36.8272244 12.5746268,36.8278 C12.2721439,36.8278 11.9748415,36.7040439 11.7607146,36.4899171 C11.5464439,36.2763659 11.4234073,35.9789195 11.4234073,35.6765805 C11.4234073,35.373522 11.5464439,35.0767951 11.7607146,34.8626683 C11.9748415,34.6483976 12.2721439,34.525361 12.5746268,34.525361 Z M30.3893171,10.1041098 C37.2403683,10.1041098 42.8138537,15.6774512 42.8138537,22.5280707 C42.8138537,26.0840439 41.3118,29.2953707 38.9093488,31.5624098 C38.8683366,31.6068756 38.8244463,31.6484634 38.7760951,31.686022 C36.5641707,33.7130317 33.6192073,34.9526073 30.3893171,34.9526073 C27.1598585,34.9526073 24.2144634,33.7130317 22.0023951,31.686022 C21.9546195,31.6484634 21.9108732,31.6068756 21.869861,31.5624098 C19.4672659,29.2953707 17.9653561,26.0840439 17.9653561,22.5280707 C17.9653561,15.6774512 23.5386976,10.1041098 30.3893171,10.1041098 Z M30.3893171,26.7039756 C27.7253951,26.7039756 25.3436659,28.1582537 24.1216463,30.4701902 C25.8467488,31.8345293 28.0244244,32.6501683 30.3893171,32.6501683 C32.7540659,32.6501683 34.9323171,31.8345293 36.6568439,30.4701902 C35.4348244,28.1582537 33.0536707,26.7039756 30.3893171,26.7039756 Z M30.3893171,12.4065488 C24.808061,12.4065488 20.2677951,16.9468146 20.2677951,22.5280707 C20.2677951,24.8877829 21.0794049,27.0609976 22.4381317,28.7837976 C23.4914976,27.103161 25.0334122,25.821422 26.8378049,25.0906854 C26.1082195,24.2582098 25.6641366,23.1694439 25.6641366,21.9782195 L25.6641366,21.9782195 L25.6641366,21.0845854 C25.6641366,18.4790878 27.7838195,16.3588293 30.3893171,16.3588293 C32.9952463,16.3588293 35.1150732,18.4790878 35.1150732,21.0845854 L35.1150732,21.0845854 L35.1150732,21.9782195 C35.1150732,23.1694439 34.6709902,24.2582098 33.9406854,25.0906854 C35.7456537,25.821422 37.2869927,27.103161 38.341078,28.7837976 C39.699661,27.0609976 40.5114146,24.8877829 40.5114146,22.5280707 C40.5114146,16.9468146 35.9705732,12.4065488 30.3893171,12.4065488 Z M30.3893171,18.6612683 C29.0531829,18.6612683 27.966,19.7483073 27.966,21.0845854 L27.966,21.0845854 L27.966,21.9782195 C27.966,23.3144976 29.0531829,24.4015366 30.3893171,24.4015366 C31.7254512,24.4015366 32.8126341,23.3144976 32.8126341,21.9782195 L32.8126341,21.9782195 L32.8126341,21.0845854 C32.8126341,19.7483073 31.7254512,18.6612683 30.3893171,18.6612683 Z" id="Combined-Shape"></path>
                </g>
            </g>
        </g>
    </g>
</svg>