<?xml version="1.0" encoding="UTF-8"?>
<svg width="17px" height="14px" viewBox="0 0 17 14" version="1.1" xmlns="http://www.w3.org/2000/svg" xmlns:xlink="http://www.w3.org/1999/xlink">
    <!-- Generator: Sketch 61.2 (89653) - https://sketch.com -->
    <title>Shape</title>
    <desc>Created with Sketch.</desc>
    <g id="Symbols" stroke="none" stroke-width="1" fill="none" fill-rule="evenodd">
        <g id="element/footer" transform="translate(-1167.000000, -98.000000)" fill="#000000">
            <g id="Footer" transform="translate(0.000000, 10.000000)">
                <g id="Follow-us-on..." transform="translate(1110.000000, 32.000000)">
                    <g id="Social-Media" transform="translate(0.763030, 41.000000)">
                        <path d="M71.1151611,17.1681765 C71.7932148,16.740286 72.3134942,16.0618023 72.5576686,15.2535647 C71.922815,15.6507501 71.2212831,15.9379914 70.4727945,16.0934979 C69.8755063,15.4199666 69.0218348,15 68.0770676,15 C66.2645419,15 64.7957387,16.5501125 64.7957387,18.4617527 C64.7957387,18.7331462 64.8229735,18.9976063 64.8793215,19.2501806 C62.1520808,19.1055694 59.7338146,17.7287922 58.1138111,15.6329213 C57.8311322,16.1459937 57.6696015,16.740286 57.6696015,17.3741978 C57.6696015,18.5746683 58.2490462,19.6344896 59.1299525,20.2565155 C58.5918295,20.2386868 58.0856371,20.0811993 57.6423666,19.8236726 L57.6423666,19.8662636 C57.6423666,21.5441489 58.7730821,22.9437073 60.2766332,23.2606632 C60.0005283,23.3418832 59.7112755,23.3824931 59.4107531,23.3824931 C59.1994483,23.3824931 58.9928391,23.3616929 58.793743,23.3210829 C59.2107178,24.6958792 60.4231379,25.6982522 61.8600106,25.7249954 C60.735869,26.6540723 59.3205963,27.2067642 57.7832365,27.2067642 C57.5184011,27.2067642 57.2563832,27.1919069 57,27.1592208 C58.4528379,28.1407936 60.1780243,28.7142857 62.0318718,28.7142857 C68.0704936,28.7142857 71.3706052,23.4389509 71.3706052,18.8638906 C71.3706052,18.7133365 71.3687269,18.5637729 71.362153,18.4161903 C72.0035804,17.9278802 72.5614251,17.31774 73,16.6234085 C72.4111639,16.898764 71.7781886,17.0849755 71.1151611,17.1681765 Z" id="Shape"></path>
                    </g>
                </g>
            </g>
        </g>
    </g>
</svg>