<?xml version="1.0" encoding="UTF-8"?>
<svg width="24px" height="24px" viewBox="0 0 24 24" version="1.1" xmlns="http://www.w3.org/2000/svg" xmlns:xlink="http://www.w3.org/1999/xlink">
    <!-- Generator: Sketch 63.1 (92452) - https://sketch.com -->
    <title>Link/Twitter</title>
    <desc>Created with Sketch.</desc>
    <g id="Link/Twitter" stroke="none" stroke-width="1" fill="none" fill-rule="evenodd">
        <path d="M18.1151611,7.16817647 C18.7932148,6.740286 19.3134942,6.06180227 19.5576686,5.25356472 C18.922815,5.65075009 18.2212831,5.93799137 17.4727945,6.09349786 C16.8755063,5.41996657 16.0218348,5 15.0770676,5 C13.2645419,5 11.7957387,6.55011246 11.7957387,8.46175275 C11.7957387,8.73314624 11.8229735,8.99760632 11.8793215,9.25018056 C9.15208077,9.10556943 6.73381464,7.72879222 5.11381112,5.63292132 C4.83113224,6.14599369 4.66960146,6.740286 4.66960146,7.37419781 C4.66960146,8.57466829 5.24904619,9.63448959 6.12995246,10.2565155 C5.59182955,10.2386868 5.08563714,10.0811993 4.64236661,9.82367264 L4.64236661,9.86626359 C4.64236661,11.5441489 5.77308212,12.9437073 7.27663321,13.2606632 C7.00052826,13.3418832 6.71127546,13.3824931 6.41075307,13.3824931 C6.19944826,13.3824931 5.99283911,13.3616929 5.79374303,13.3210829 C6.21071785,14.6958792 7.42313788,15.6982522 8.86001057,15.7249954 C7.73586899,16.6540723 6.32059635,17.2067642 4.78323649,17.2067642 C4.51840113,17.2067642 4.25638317,17.1919069 4,17.1592208 C5.45283794,18.1407936 7.1780243,18.7142857 9.03187181,18.7142857 C15.0704936,18.7142857 18.3706052,13.4389509 18.3706052,8.86389055 C18.3706052,8.7133365 18.3687269,8.56377293 18.362153,8.41619034 C19.0035804,7.92788015 19.5614251,7.31774004 20,6.62340851 C19.4111639,6.89876395 18.7781886,7.08497555 18.1151611,7.16817647 Z" id="Shape" fill="#000000"></path>
    </g>
</svg>